g Box001
v 1.918313 -1.951608 0.02638696
v 2.021599 0 0.5393338
v 2.021599 -2.027135 0.5393338
v 1.918313 0 0.02638696
v 1.918313 1.951608 0.02638696
v 0.4806442 2.027135 0.5380518
v 2.021599 2.027135 0.5393338
v 0.4313538 1.951608 0.02638696
v -1.061873 2.027135 0.5367699
v -1.055605 1.951608 0.02638696
v -1.984903 1.476634 0.02638696
v -2.027135 0 0.5367699
v -2.027135 1.533779 0.5367699
v -1.984903 0 0.02638696
v -1.984903 -1.476634 0.02638696
v -2.027135 -1.533779 0.5367699
v -1.061873 -2.027135 0.5367699
v 0.4313537 -1.951608 0.02638696
v 0.4806441 -2.027135 0.5380518
v -1.055605 -1.951608 0.02638696
v 1.918313 -1.951608 0.02638696
v 2.021599 -2.027135 0.5393338
v 2.021483 -1.533728 4.541045
v 2.021536 -0.001162332 3.627451
v 2.021483 -2.029459 3.623995
v 2.021536 2.579784E-05 4.541041
v 2.021541 -2.028297 2.081664
v 2.021567 -0.0005811419 2.083392
v 2.021599 -2.027135 0.5393338
v 2.021599 0 0.5393338
v 2.021589 1.533779 4.541038
v 2.021589 2.027135 3.630906
v 2.021594 2.027135 2.08512
v 2.021599 2.027135 0.5393338
v 2.021536 2.579784E-05 4.541041
v 1.469018 -1.417202 4.481962
v 1.469018 0 4.481962
v 2.021483 -1.533728 4.541045
v 2.021589 1.533779 4.541038
v 1.469018 1.417202 4.481962
v 2.021541 -2.028297 2.081664
v 1.472991 -1.949182 0.5393338
v 1.471005 -1.949182 2.08512
v 2.021599 -2.027135 0.5393338
v 2.021483 -2.029459 3.623995
v 1.469018 -1.949181 3.530544
v 2.021594 2.027135 2.08512
v 1.469018 1.949181 3.530544
v 1.471005 1.949181 2.08512
v 2.021589 2.027135 3.630906
v 2.021599 2.027135 0.5393338
v 1.472991 1.949181 0.5393338
v -2.027135 -1.533779 0.5367699
v -1.592004 -1.296918 0.02638696
v -1.619031 -1.347109 0.5367699
v -1.984903 -1.476634 0.02638696
v -1.984903 1.476634 0.02638696
v -1.619031 1.347109 0.5367699
v -1.592004 1.296918 0.02638696
v -2.027135 1.533779 0.5367699
v -1.592004 -1.296918 0.02638696
v -1.061873 -2.027135 0.5367699
v -1.619031 -1.347109 0.5367699
v -1.055605 -1.951608 0.02638696
v -1.619031 1.347109 0.5367699
v -1.055605 1.951608 0.02638696
v -1.592004 1.296918 0.02638696
v -1.061873 2.027135 0.5367699
v 0.4806442 2.027135 0.5380518
v -1.061873 2.027135 -0.07552107
v 0.4806442 2.027135 -0.07423914
v -1.061873 2.027135 0.5367699
v 2.021599 2.027135 0.5393338
v 2.023162 2.027135 -0.07295723
v -2.027135 0 0.5367699
v -2.027135 -1.533779 -0.07552107
v -2.027135 0 -0.07552107
v -2.027135 -1.533779 0.5367699
v -2.027135 1.533779 0.5367699
v -2.027135 1.533779 -0.07552107
v 0.4806441 -2.027135 0.5380518
v 2.023162 -2.027135 -0.07295723
v 0.4806441 -2.027135 -0.07423914
v 2.021599 -2.027135 0.5393338
v -1.061873 -2.027135 0.5367699
v -1.061873 -2.027135 -0.07552107
v 2.021599 0 0.5393338
v 2.023162 2.027135 -0.07295717
v 2.023162 0 -0.07295717
v 2.021599 2.027135 0.5393338
v -1.619031 -1.347109 0.5367699
v -2.027135 -1.533779 -0.07552107
v -2.027135 -1.533779 0.5367699
v -1.619031 -1.347109 -0.01697748
v -2.027135 1.533779 0.5367699
v -1.619031 1.347109 -0.01698803
v -1.619031 1.347109 0.5367699
v -2.027135 1.533779 -0.07552107
v -1.061873 -2.027135 0.5367699
v -1.619031 -1.347109 -0.01697748
v -1.619031 -1.347109 0.5367699
v -1.061873 -2.027135 -0.07552107
v -1.619031 1.347109 0.5367699
v -1.061873 2.027135 -0.07552107
v -1.061873 2.027135 0.5367699
v -1.619031 1.347109 -0.01698803
v -1.619031 -1.347109 -0.07521537
v -2.027135 0 -0.07552107
v -2.027135 -1.533779 -0.07552107
v -1.619031 0 -0.07522652
v -1.061873 0 -0.07552107
v -1.061873 -2.027135 -0.07552107
v -1.619031 1.347109 -0.07523767
v -2.027135 1.533779 -0.07552107
v -1.061873 2.027135 -0.07552107
v 0.4806441 0 -0.07423914
v 0.4806442 2.027135 -0.07423914
v 0.4806441 -2.027135 -0.07423914
v 2.023162 0 -0.07295723
v 2.023162 -2.027135 -0.07295723
v 2.023162 2.027135 -0.07295723
v -1.619031 1.347109 -0.01698803
v -2.027135 1.533779 -0.07552107
v -1.061873 2.027135 -0.07552107
v -1.619031 -1.347109 -0.01697748
v -1.061873 -2.027135 -0.07552107
v -2.027135 -1.533779 -0.07552107
v 1.469018 0 4.481962
v 2.021483 -1.533728 4.541045
v 2.021536 2.579784E-05 4.541041
v 1.469018 -1.417202 4.481962
v 1.469018 1.417202 4.481962
v 2.021589 1.533779 4.541038
v 1.472991 -1.949182 0.5393338
v 2.021541 -2.028297 2.081664
v 1.471005 -1.949182 2.08512
v 2.021599 -2.027135 0.5393338
v 2.021483 -2.029459 3.623995
v 1.469018 -1.949181 3.530544
v 1.471005 1.949181 2.08512
v 2.021589 2.027135 3.630906
v 2.021594 2.027135 2.08512
v 1.469018 1.949181 3.530544
v 1.472991 1.949181 0.5393338
v 2.021599 2.027135 0.5393338
v 2.021594 2.027135 2.08512
v 2.021536 -0.001162332 3.627451
v 2.021567 -0.0005807542 2.083392
v 2.021589 2.027135 3.630906
v 2.021589 1.533779 4.541038
v 2.021536 2.579784E-05 4.541041
v 2.021599 2.027135 0.5393338
v 2.021599 0 0.5393338
v 2.021541 -2.028297 2.081664
v 2.021483 -2.029459 3.623995
v 2.021483 -1.533728 4.541045
v 2.021599 -2.027135 0.5393338
v 2.021599 0 0.5393338
v 1.918313 1.951608 0.02638696
v 2.021599 2.027135 0.5393338
v 1.918313 0 0.02638696
v 2.021599 -2.027135 0.5393338
v 2.023162 0 -0.07295717
v 2.023162 -2.027135 -0.07295717
v 2.021599 0 0.5393338
v -1.984903 0 0.02638696
v -1.592004 1.296918 0.02638696
v -1.592004 0 0.02638696
v -1.984903 1.476634 0.02638696
v -1.055605 0 0.02638696
v -1.055605 1.951608 0.02638696
v 0.4313538 1.951608 0.02638696
v 0.4313538 0 0.02638696
v -1.592004 -1.296918 0.02638696
v -1.984903 -1.476634 0.02638696
v -1.055605 -1.951608 0.02638696
v 0.4313537 -1.951608 0.02638696
v 1.918313 0 0.02638696
v 1.918313 1.951608 0.02638696
v 1.918313 -1.951608 0.02638696
vt 0.5516519 0.0164999
vt 0.6264629 0.07574227
vt 0.5523315 0.07574227
vt 0.6264629 0.0164999
vt 0.1082224 0.0164999
vt 0.1595493 0.07559421
vt 0.1075428 0.07574227
vt 0.1609875 0.0164999
vt 0.2271705 0.07544614
vt 0.2284238 0.0164999
vt 0.2695652 0.0164999
vt 0.3299371 0.07544614
vt 0.2688001 0.07544614
vt 0.3299371 0.0164999
vt 0.3903091 0.0164999
vt 0.3910742 0.07544614
vt 0.4327038 0.07544614
vt 0.4988869 0.0164999
vt 0.500325 0.07559421
vt 0.4314506 0.0164999
vt 0.5516519 0.0164999
vt 0.5523315 0.07574227
vt 0.5569152 0.3607987
vt 0.3303301 0.5041394
vt 0.6302075 0.5046504
vt 0.3301546 0.3607993
vt 0.6300355 0.7326792
vt 0.330244 0.7324237
vt 0.6298636 0.9607079
vt 0.3301581 0.9607078
vt 0.1033939 0.3607998
vt 0.03045267 0.5036286
vt 0.03045256 0.7321682
vt 0.03045256 0.9607078
vt 0.1130563 0.2541795
vt 0.02038452 0.2123851
vt 0.1130569 0.2123851
vt 0.01687209 0.2541755
vt 0.2091776 0.2541834
vt 0.2056696 0.212385
vt 0.5182719 0.2561303
vt 0.4336043 0.2146361
vt 0.5171548 0.2144858
vt 0.4365171 0.2561346
vt 0.6245062 0.256126
vt 0.6213742 0.2143355
vt 0.3372718 0.2577744
vt 0.2344985 0.2159756
vt 0.3386066 0.2161259
vt 0.2308988 0.2577741
vt 0.4192003 0.2577748
vt 0.4221096 0.2162762
vt 0.3910742 0.07544614
vt 0.3944781 0.0164999
vt 0.3954558 0.07544614
vt 0.3903091 0.0164999
vt 0.2695652 0.0164999
vt 0.2644186 0.07544614
vt 0.2653962 0.0164999
vt 0.2688001 0.07544614
vt 0.3944781 0.0164999
vt 0.4327038 0.07544614
vt 0.3954558 0.07544614
vt 0.4314506 0.0164999
vt 0.2644186 0.07544614
vt 0.2284238 0.0164999
vt 0.2653962 0.0164999
vt 0.2271705 0.07544614
vt 0.1319445 0.3384928
vt 0.2008702 0.2766818
vt 0.1319462 0.2768028
vt 0.2008694 0.3383717
vt 0.06308973 0.3386113
vt 0.06302181 0.2769212
vt 0.3287378 0.3383726
vt 0.3972716 0.2766826
vt 0.3287378 0.2766826
vt 0.3972716 0.3383727
vt 0.260204 0.3383726
vt 0.2602041 0.2766825
vt 0.5255317 0.3384923
vt 0.5944541 0.2769192
vt 0.5255297 0.2768022
vt 0.5943865 0.3386092
vt 0.4566065 0.3383723
vt 0.4566057 0.2766822
vt 0.04234824 0.3383231
vt 0.1329269 0.2766329
vt 0.04234824 0.2766329
vt 0.1329269 0.3383231
vt 0.4173239 0.3383724
vt 0.3972716 0.2766826
vt 0.3972716 0.3383727
vt 0.4173239 0.2825809
vt 0.260204 0.3383726
vt 0.2401518 0.2825793
vt 0.2401516 0.338372
vt 0.2602041 0.2766825
vt 0.4566065 0.3383723
vt 0.4173239 0.2825809
vt 0.4173239 0.3383724
vt 0.4566057 0.2766822
vt 0.2401516 0.338372
vt 0.2008702 0.2766818
vt 0.2008694 0.3383717
vt 0.2401518 0.2825793
vt 0.6957559 0.7081208
vt 0.6641077 0.8124852
vt 0.6641077 0.6936586
vt 0.6957559 0.8124853
vt 0.7389629 0.8124853
vt 0.7389629 0.6554371
vt 0.6957559 0.9168499
vt 0.6641077 0.9313117
vt 0.7389629 0.9695334
vt 0.8585833 0.8124853
vt 0.8585833 0.9695334
vt 0.8585836 0.6554371
vt 0.978204 0.8124853
vt 0.978204 0.6554371
vt 0.978204 0.9695334
vt 0.6925645 0.1092193
vt 0.6866895 0.08659777
vt 0.6526754 0.1316552
vt 0.6454948 0.118813
vt 0.6745759 0.08335346
vt 0.6241935 0.1090792
vt 0.08879746 0.1014145
vt 0.01228924 0.1477882
vt 0.08879693 0.1477928
vt 0.01508313 0.1014145
vt 0.1624642 0.1014146
vt 0.1652545 0.1477973
vt 0.4247079 0.1038087
vt 0.4920549 0.1498539
vt 0.4911661 0.1036419
vt 0.4270247 0.1498587
vt 0.5765566 0.149849
vt 0.5740655 0.1034752
vt 0.3029588 0.1015813
vt 0.217285 0.1477973
vt 0.3018973 0.1477977
vt 0.2201483 0.1014146
vt 0.3693795 0.1017481
vt 0.3670654 0.1477981
vt 0.8553134 0.3335556
vt 0.7384726 0.4872507
vt 0.8554443 0.4872069
vt 0.7382107 0.3335556
vt 0.665026 0.3709398
vt 0.6650257 0.4871608
vt 0.9724161 0.3335555
vt 0.9724161 0.4871628
vt 0.8555753 0.6408582
vt 0.7387344 0.6409463
vt 0.6650255 0.6033819
vt 0.9724161 0.64077
vt 0.03341137 0.07574227
vt 0.1082224 0.0164999
vt 0.1075428 0.07574227
vt 0.03341137 0.0164999
vt 0.5245497 0.3383231
vt 0.6151286 0.2766329
vt 0.5245499 0.2766329
vt 0.6151286 0.3383231
vt 0.70592 0.1648659
vt 0.7338853 0.2570866
vt 0.7338853 0.1648659
vt 0.7059199 0.2698658
vt 0.7720649 0.1648659
vt 0.7720649 0.3036399
vt 0.8779027 0.3036399
vt 0.8779027 0.1648659
vt 0.7338853 0.07264519
vt 0.70592 0.05986595
vt 0.7720649 0.02609169
vt 0.8779027 0.02609175
vt 0.9837404 0.1648659
vt 0.9837404 0.3036399
vt 0.9837405 0.02609175
vn -0.9803239 0 0.1973957
vn -0.9803239 0 0.1973957
vn -0.9722618 -0.01425348 0.2334606
vn -0.9803239 0 0.1973957
vn -9.761988E-05 -0.9893199 0.1457598
vn -7.035096E-05 -0.9892851 0.1459969
vn -0.752878 -0.6511382 0.09588377
vn -5.150318E-05 -0.9892741 0.1460711
vn -0.8987358 -0.404713 0.1687649
vn 0 -0.9892273 0.1463872
vn 0.996594 0 0.08246371
vn 0.996594 0 0.08246372
vn 0.826923 0.5603294 0.04721658
vn 0.996594 0 0.08246372
vn 0.996594 0 0.08246371
vn 0.826923 -0.5603294 0.04721658
vn -0.8987356 0.404713 0.1687649
vn -5.150318E-05 0.9892741 0.1460711
vn -7.032362E-05 0.9892851 0.145997
vn 0 0.9892273 0.1463872
vn -9.742011E-05 0.9893199 0.1457604
vn -0.7530298 0.6509688 0.09584241
vn 1 -2.839213E-05 1.049124E-05
vn 1 -2.517444E-05 1.010354E-05
vn 1 -2.622607E-05 2.798375E-05
vn 1 -3.468257E-05 0
vn 1 -1.696342E-05 3.386093E-05
vn 1 -9.271528E-06 2.020285E-05
vn 1 -7.687312E-06 3.029575E-05
vn 1 0 2.020626E-05
vn 0.8525658 -2.580047E-05 -0.5226199
vn 0.8995041 -0.4369124 6.039982E-05
vn 1 -1.696202E-05 6.534543E-06
vn 1 -7.669831E-06 1.013395E-05
vn -0.1063225 3.684684E-06 0.9943317
vn -0.1063326 4.693414E-06 0.9943306
vn -0.1063189 2.318725E-06 0.9943321
vn -0.1063357 5.942642E-06 0.9943303
vn -0.8525662 2.346818E-05 0.5226192
vn -0.1063043 0 0.9943336
vn -0.1420764 -0.9898555 -0.0005281518
vn -0.1410257 -0.9900057 -0.0006259741
vn -0.1424162 -0.9898067 -0.0004068857
vn 0.6554631 -0.755226 0.001374508
vn -0.1433912 -0.989666 -0.0003341007
vn -0.1437652 -0.9896119 -0.0001974788
vn -0.1401266 0.9901336 -7.408403E-05
vn -0.1397951 0.9901805 -4.102207E-05
vn -0.1402388 0.9901177 -0.0001164583
vn -0.8994935 0.436934 3.128629E-06
vn 0.6555243 0.7551719 0.001839741
vn -0.1406808 0.990055 -0.000180817
vn -0.8547761 0.5175773 0.03836166
vn -0.4150177 0.9073246 0.06724884
vn -0.9643794 0.2584119 0.05653036
vn -0.4150178 0.9073246 0.06724882
vn -0.4150178 -0.9073246 0.06724885
vn -0.9643794 -0.258412 0.05653035
vn -0.4150178 -0.9073246 0.06724886
vn -0.8547761 -0.5175773 0.03836164
vn 0.7694331 0.6304106 0.1027388
vn 0.8612062 -0.4950763 0.1149928
vn 0.973656 -0.2115186 0.08517039
vn 0.7694331 0.6304105 0.1027387
vn 0.973656 0.2115186 0.08517037
vn 0.7694331 -0.6304104 0.1027387
vn 0.7694331 -0.6304106 0.1027388
vn 0.8612061 0.4950765 0.1149928
vn 0 1 0
vn 0 1 0
vn 0 1 0
vn 0.8612061 0.4950765 0.1149928
vn -0.9724817 0.01431531 0.2325389
vn 0 1 3.164937E-07
vn -1 0 0
vn -1 0 0
vn -1 0 0
vn -0.8547761 0.5175773 0.03836166
vn -0.8547761 -0.5175773 0.03836164
vn -1 0 0
vn 0 -1 0
vn 0 -1 0
vn 0 -1 0
vn -0.9722618 -0.01425348 0.2334606
vn 0.8612062 -0.4950763 0.1149928
vn 0 -1 0
vn 0.9999968 0 0.002553152
vn 0.9999968 0 0.002553152
vn 0.9999968 0 0.002553152
vn 0.6555243 0.7551719 0.001839741
vn 0.973656 -0.2115186 0.08517039
vn 0.4159593 -0.9093832 0
vn 0.826923 -0.5603294 0.04721658
vn 0.4159593 -0.9093832 0
vn 0.826923 0.5603294 0.04721658
vn 0.4159593 0.9093832 0
vn 0.973656 0.2115186 0.08517037
vn 0.4159593 0.9093832 0
vn -0.8987356 0.404713 0.1687649
vn -0.7735263 -0.6337643 0
vn -0.9643794 0.2584119 0.05653036
vn -0.7735263 -0.6337641 0
vn -0.9643794 -0.258412 0.05653035
vn -0.7735263 0.6337642 0
vn -0.8987358 -0.404713 0.1687649
vn -0.7735263 0.6337643 0
vn 0.0001390051 0.0002241361 -1
vn 0.0007217512 -6.72624E-06 -0.9999998
vn 0.0005929886 0.0003412293 -0.9999998
vn 9.654333E-05 -8.276083E-06 -1
vn 0.0001511969 -3.104922E-06 -1
vn 0.0004089882 0.0001193523 -0.9999999
vn 0.0001289239 -0.0002095298 -1
vn 0.0005497363 -0.0003163402 -0.9999999
vn 0.0004148307 -0.0001106468 -0.9999999
vn 0.0008310584 0 -0.9999996
vn 0.0008310584 0 -0.9999996
vn 0.0008310584 0 -0.9999996
vn 0.0008310584 0 -0.9999996
vn 0.0008310584 0 -0.9999996
vn 0.0008310584 0 -0.9999996
vn -0.07466425 0.1460822 0.9864508
vn -0.07466426 0.1460823 0.9864508
vn -0.07466425 0.1460822 0.9864508
vn -0.07467735 -0.1461079 0.986446
vn -0.07467735 -0.1461078 0.986446
vn -0.07467735 -0.1461079 0.986446
vn 0.1063225 -2.313764E-06 -0.9943317
vn 0.1063328 -1.514141E-06 -0.9943305
vn 0.1063189 -3.67929E-06 -0.9943321
vn 0.106337 0 -0.9943302
vn 0.1063087 -4.703197E-06 -0.9943331
vn 0.8525658 -2.580047E-05 -0.5226199
vn 0.1410257 0.9900057 0.0006259739
vn 0.1420764 0.9898555 0.000528152
vn 0.1424162 0.9898067 0.0004068856
vn -0.9722618 -0.01425348 0.2334606
vn 0.1433912 0.989666 0.0003341008
vn 0.1437652 0.9896119 0.0001974788
vn 0.1401262 -0.9901336 0.0001114663
vn 0.8995041 -0.4369124 6.039982E-05
vn 0.1402388 -0.9901177 7.072136E-05
vn 0.1396574 -0.9901999 0.0001920979
vn 0.1405718 -0.9900705 3.992547E-05
vn -0.9724817 0.01431531 0.2325389
vn -1 1.696202E-05 -6.534543E-06
vn -1 2.517444E-05 -1.010354E-05
vn -1 9.271526E-06 -2.020285E-05
vn -0.8994935 0.436934 3.128629E-06
vn -0.8525662 2.346818E-05 0.5226192
vn -1 3.468257E-05 0
vn -0.752878 -0.6511382 0.09588377
vn -1 0 -2.020626E-05
vn -1 1.696341E-05 -3.386093E-05
vn -1 2.622607E-05 -2.798376E-05
vn -1 2.839213E-05 -1.049124E-05
vn -0.7530298 0.6509688 0.09584241
vn -0.9803239 0 0.1973957
vn -0.9803239 0 0.1973957
vn -0.9724817 0.01431531 0.2325389
vn -0.9803239 0 0.1973957
vn 0.6554631 -0.755226 0.001374508
vn 0.9999968 0 0.002553152
vn 0.9999968 0 0.002553152
vn 0.9999968 0 0.002553152
vn 0 0 1
vn 0 0 1
vn 0 0 1
vn 0 0 1
vn 0 0 1
vn 0 0 1
vn 0 0 1
vn 0 0 1
vn 0 0 1
vn 0 0 1
vn 0 0 1
vn 0 0 1
vn 0 0 1
vn 0 0 1
vn 0 0 1
g Box001_0
f 3/3/3 2/2/2 1/1/1
f 4/4/4 1/1/1 2/2/2
f 7/7/7 6/6/6 5/5/5
f 8/8/8 5/5/5 6/6/6
f 6/6/6 9/9/9 8/8/8
f 10/10/10 8/8/8 9/9/9
f 13/13/13 12/12/12 11/11/11
f 14/14/14 11/11/11 12/12/12
f 14/14/14 12/12/12 15/15/15
f 16/16/16 15/15/15 12/12/12
f 19/19/19 18/18/18 17/17/17
f 20/20/20 17/17/17 18/18/18
f 18/18/18 19/19/19 21/21/21
f 22/22/22 21/21/21 19/19/19
f 25/25/25 24/24/24 23/23/23
f 26/26/26 23/23/23 24/24/24
f 25/25/25 27/27/27 24/24/24
f 28/28/28 24/24/24 27/27/27
f 27/27/27 29/29/29 28/28/28
f 30/30/30 28/28/28 29/29/29
f 26/26/26 24/24/24 31/31/31
f 32/32/32 31/31/31 24/24/24
f 32/32/32 24/24/24 33/33/33
f 28/28/28 33/33/33 24/24/24
f 33/33/33 28/28/28 34/34/34
f 30/30/30 34/34/34 28/28/28
f 37/37/37 36/36/36 35/35/35
f 38/38/38 35/35/35 36/36/36
f 35/35/35 39/39/39 37/37/37
f 40/40/40 37/37/37 39/39/39
f 43/43/43 42/42/42 41/41/41
f 44/44/44 41/41/41 42/42/42
f 41/41/41 45/45/45 43/43/43
f 46/46/46 43/43/43 45/45/45
f 49/49/49 48/48/48 47/47/47
f 50/50/50 47/47/47 48/48/48
f 47/47/47 51/51/51 49/49/49
f 52/52/52 49/49/49 51/51/51
f 55/55/55 54/54/54 53/53/53
f 56/56/56 53/53/53 54/54/54
f 59/59/59 58/58/58 57/57/57
f 60/60/60 57/57/57 58/58/58
f 63/63/63 62/62/62 61/61/61
f 64/64/64 61/61/61 62/62/62
f 67/67/67 66/66/66 65/65/65
f 68/68/68 65/65/65 66/66/66
f 71/71/71 70/70/70 69/69/69
f 72/72/72 69/69/69 70/70/70
f 69/69/69 73/73/73 71/71/71
f 74/74/74 71/71/71 73/73/73
f 77/77/77 76/76/76 75/75/75
f 78/78/78 75/75/75 76/76/76
f 75/75/75 79/79/79 77/77/77
f 80/80/80 77/77/77 79/79/79
f 83/83/83 82/82/82 81/81/81
f 84/84/84 81/81/81 82/82/82
f 81/81/81 85/85/85 83/83/83
f 86/86/86 83/83/83 85/85/85
f 89/89/89 88/88/88 87/87/87
f 90/90/90 87/87/87 88/88/88
f 93/93/93 92/92/92 91/91/91
f 94/94/94 91/91/91 92/92/92
f 97/97/97 96/96/96 95/95/95
f 98/98/98 95/95/95 96/96/96
f 101/101/101 100/100/100 99/99/99
f 102/102/102 99/99/99 100/100/100
f 105/105/105 104/104/104 103/103/103
f 106/106/106 103/103/103 104/104/104
f 109/109/109 108/108/108 107/107/107
f 110/110/110 107/107/107 108/108/108
f 110/110/110 111/111/111 107/107/107
f 112/112/112 107/107/107 111/111/111
f 109/109/109 107/107/107 112/112/112
f 110/110/110 108/108/108 113/113/113
f 110/110/110 113/113/113 111/111/111
f 114/114/114 113/113/113 108/108/108
f 115/115/115 113/113/113 114/114/114
f 115/115/115 111/111/111 113/113/113
f 111/111/111 115/115/115 116/116/116
f 111/111/111 116/116/116 112/112/112
f 117/117/117 116/116/116 115/115/115
f 118/118/118 112/112/112 116/116/116
f 116/116/116 119/119/119 118/118/118
f 120/120/120 118/118/118 119/119/119
f 119/119/119 116/116/116 121/121/121
f 117/117/117 121/121/121 116/116/116
f 124/124/124 123/123/123 122/122/122
f 127/127/127 126/126/126 125/125/125
f 130/130/130 129/129/129 128/128/128
f 131/131/131 128/128/128 129/129/129
f 128/128/128 132/132/132 130/130/130
f 133/133/133 130/130/130 132/132/132
f 136/136/136 135/135/135 134/134/134
f 137/137/137 134/134/134 135/135/135
f 135/135/135 136/136/136 138/138/138
f 139/139/139 138/138/138 136/136/136
f 142/142/142 141/141/141 140/140/140
f 143/143/143 140/140/140 141/141/141
f 140/140/140 144/144/144 142/142/142
f 145/145/145 142/142/142 144/144/144
f 148/148/148 147/147/147 146/146/146
f 149/149/149 146/146/146 147/147/147
f 149/149/149 147/147/147 150/150/150
f 151/151/151 150/150/150 147/147/147
f 146/146/146 152/152/152 148/148/148
f 153/153/153 148/148/148 152/152/152
f 148/148/148 154/154/154 147/147/147
f 155/155/155 147/147/147 154/154/154
f 155/155/155 156/156/156 147/147/147
f 151/151/151 147/147/147 156/156/156
f 154/154/154 148/148/148 157/157/157
f 153/153/153 157/157/157 148/148/148
f 160/160/160 159/159/159 158/158/158
f 161/161/161 158/158/158 159/159/159
f 164/164/164 163/163/163 162/162/162
f 165/165/165 162/162/162 163/163/163
g Box001_1
f 168/168/168 167/167/167 166/166/166
f 169/169/169 166/166/166 167/167/167
f 168/168/168 170/170/170 167/167/167
f 171/171/171 167/167/167 170/170/170
f 171/171/171 170/170/170 172/172/172
f 173/173/173 172/172/172 170/170/170
f 168/168/168 166/166/166 174/174/174
f 168/168/168 174/174/174 170/170/170
f 175/175/175 174/174/174 166/166/166
f 170/170/170 176/176/176 173/173/173
f 176/176/176 170/170/170 174/174/174
f 177/177/177 173/173/173 176/176/176
f 173/173/173 178/178/178 172/172/172
f 179/179/179 172/172/172 178/178/178
f 178/178/178 173/173/173 180/180/180
f 177/177/177 180/180/180 173/173/173
