g Chains004
v -23.81952 12.85281 2.081341
v -12.69845 -0.04961967 3.347187
v -23.81952 12.85282 2.688438
v -12.69846 -0.04962349 2.740082
v -34.94059 25.75525 1.422596
v -34.94059 25.75525 2.029694
v -1.577381 -12.95206 4.005932
v -1.577393 -12.95206 3.398827
v 4.08769 -0.0496254 -13.46386
v 2.791912 12.85281 -24.60648
v 3.4806 -0.0496273 -13.46386
v 3.399006 12.85281 -24.60648
v 4.776377 -12.95206 -2.321236
v 4.169291 -12.95206 -2.321236
v 2.103222 25.75524 -35.7491
v 2.71032 25.75524 -35.74911
vt 4.415384 0.09100431
vt 6.392946 0.006340702
vt 4.415382 0.006340709
vt 6.392948 0.09100431
vt 2.43782 0.09100431
vt 2.437819 0.006340716
vt 8.37051 0.006340695
vt 8.370512 0.09100431
vt 6.392948 0.09100431
vt 4.415382 0.006340709
vt 6.392946 0.006340702
vt 4.415384 0.09100431
vt 8.370512 0.09100431
vt 8.37051 0.006340695
vt 2.437819 0.006340716
vt 2.43782 0.09100431
vn 0.75746 0.6528816 0
vn 0.7574604 0.6528813 0
vn 0.75746 0.6528816 0
vn 0.7574604 0.6528813 -1.009943E-05
vn 0.7574599 0.6528817 0
vn 0.7574599 0.6528817 0
vn 0.7574605 0.6528811 -1.418032E-05
vn 0.7574604 0.6528811 -1.427833E-05
vn 0 -0.653607 -0.7568342
vn 0 -0.6536068 -0.7568343
vn 0 -0.6536069 -0.7568342
vn 0 -0.6536068 -0.7568343
vn 0 -0.6536068 -0.7568343
vn 0 -0.6536068 -0.7568343
vn 0 -0.6536071 -0.7568341
vn 0 -0.6536071 -0.7568341
g Chains004_0
f 3/3/3 2/2/2 1/1/1
f 4/4/4 1/1/1 2/2/2
f 1/1/1 5/5/5 3/3/3
f 6/6/6 3/3/3 5/5/5
f 2/2/2 7/7/7 4/4/4
f 8/8/8 4/4/4 7/7/7
f 11/11/11 10/10/10 9/9/9
f 12/12/12 9/9/9 10/10/10
f 9/9/9 13/13/13 11/11/11
f 14/14/14 11/11/11 13/13/13
f 10/10/10 15/15/15 12/12/12
f 16/16/16 12/12/12 15/15/15
