g Chains
v -0.3035488 -29.92123 0
v 0.3035488 -29.92123 0
v -0.3035488 -41.88973 0
v 0.3035488 -41.88973 0
v 0.3035488 -17.95274 0
v -0.3035488 -17.95274 0
v 0.3035488 -5.984246 0
v -0.3035488 -5.984246 0
v 0.3035488 5.984247 0
v -0.3035488 5.984247 0
v 0.3035507 21.48532 0
v -0.3035469 21.48532 0
v 0.3035498 39.89768 3.814697E-06
v -0.3035488 39.89768 3.814697E-06
v 0.3035479 59.10948 -3.814697E-06
v -0.3035488 59.10948 -3.814697E-06
v -26.11339 -29.92123 26.41694
v -26.11339 -29.92123 25.80984
v -26.11339 -41.88972 26.41694
v -26.11339 -41.88972 25.80984
v -26.11339 -17.95274 25.80984
v -26.11339 -17.95274 26.41693
v -26.11338 -5.984242 25.80984
v -26.11338 -5.984242 26.41693
v -26.11338 5.984251 25.80983
v -26.11338 5.984251 26.41693
v -26.11338 21.48533 25.80983
v -26.11338 21.48533 26.41693
v -26.11338 39.89768 25.80983
v -26.11338 39.89768 26.41692
v -26.11337 59.10949 25.80983
v -26.11337 59.10949 26.41692
v 3.089467 -29.92122 55.0127
v 2.482369 -29.92122 55.0127
v 3.089467 -41.88972 55.0127
v 2.482369 -41.88972 55.0127
v 2.482369 -17.95273 55.01269
v 3.089467 -17.95273 55.01269
v 2.482369 -5.984237 55.01269
v 3.089467 -5.984237 55.01269
v 2.482369 5.984257 55.01268
v 3.089467 5.984257 55.01268
v 2.48237 21.48533 55.01268
v 3.089469 21.48533 55.01267
v 2.482367 39.89769 55.01267
v 3.089465 39.89769 55.01267
v 2.482369 59.1095 55.01266
v 3.089468 59.1095 55.01266
v 28.89929 -41.88972 29.20286
v 28.89929 -29.92123 28.59576
v 28.89929 -29.92123 29.20286
v 28.89929 -41.88972 28.59576
v 28.8993 -17.95273 28.59576
v 28.8993 -17.95273 29.20285
v 28.8993 -5.984241 28.59575
v 28.8993 -5.984241 29.20285
v 28.8993 5.984253 28.59575
v 28.8993 5.984253 29.20285
v 28.8993 21.48533 28.59575
v 28.8993 21.48533 29.20284
v 28.8993 39.89768 28.59575
v 28.8993 39.89768 29.20284
v 28.89931 59.10949 28.59575
v 28.89931 59.10949 29.20284
v 39.98099 -41.88972 51.66351
v 39.98099 -29.92123 51.05641
v 39.98099 -29.92123 51.66351
v 39.98099 -41.88972 51.05641
v 39.98099 -17.95273 51.05641
v 39.98099 -17.95273 51.66351
v 39.981 -5.984239 51.05641
v 39.981 -5.984239 51.66351
v 39.981 5.984255 51.0564
v 39.981 5.984255 51.6635
v 39.981 21.48533 51.0564
v 39.981 21.48533 51.6635
v 39.981 39.89769 51.0564
v 39.981 39.89769 51.66349
v 39.981 59.10949 51.0564
v 39.981 59.10949 51.66349
v 25.10374 -29.92122 66.54076
v 24.49664 -29.92122 66.54076
v 25.10374 -41.88972 66.54077
v 24.49664 -41.88972 66.54077
v 24.49664 -17.95273 66.54076
v 25.10374 -17.95273 66.54076
v 24.49664 -5.984235 66.54076
v 25.10374 -5.984235 66.54076
v 24.49664 5.984259 66.54076
v 25.10374 5.984259 66.54076
v 24.49664 21.48533 66.54074
v 25.10374 21.48533 66.54074
v 24.49664 39.89769 66.54074
v 25.10374 39.89769 66.54075
v 24.49664 59.10949 66.54074
v 25.10374 59.10949 66.54074
vt 3.729698 0.006340705
vt 3.729699 0.09100431
vt 5.021577 0.006340695
vt 5.021578 0.09100431
vt 2.43782 0.09100431
vt 2.437819 0.006340716
vt 1.14594 0.09100431
vt 1.145939 0.006340727
vt -0.1459395 0.09100431
vt -0.14594 0.006340738
vt -1.437819 0.09100431
vt -1.437819 0.006340749
vt -2.729698 0.09100443
vt -2.729698 0.006340759
vt -4.021577 0.09100443
vt -4.021578 0.00634077
vt 3.729698 0.006340705
vt 3.729699 0.09100431
vt 5.021577 0.006340695
vt 5.021578 0.09100431
vt 2.43782 0.09100431
vt 2.437819 0.006340716
vt 1.14594 0.09100431
vt 1.145939 0.006340727
vt -0.1459395 0.09100431
vt -0.14594 0.006340738
vt -1.437819 0.09100431
vt -1.437819 0.006340749
vt -2.729698 0.09100443
vt -2.729698 0.006340759
vt -4.021577 0.09100443
vt -4.021578 0.00634077
vt 3.729698 0.006340705
vt 3.729699 0.09100431
vt 5.021577 0.006340695
vt 5.021578 0.09100431
vt 2.43782 0.09100431
vt 2.437819 0.006340716
vt 1.14594 0.09100431
vt 1.145939 0.006340727
vt -0.1459395 0.09100431
vt -0.14594 0.006340738
vt -1.437819 0.09100431
vt -1.437819 0.006340749
vt -2.729698 0.09100443
vt -2.729698 0.006340759
vt -4.021577 0.09100443
vt -4.021578 0.00634077
vt 5.021577 0.006340695
vt 3.729699 0.09100431
vt 3.729698 0.006340705
vt 5.021578 0.09100431
vt 2.43782 0.09100431
vt 2.437819 0.006340716
vt 1.14594 0.09100431
vt 1.145939 0.006340727
vt -0.1459395 0.09100431
vt -0.14594 0.006340738
vt -1.437819 0.09100431
vt -1.437819 0.006340749
vt -2.729698 0.09100443
vt -2.729698 0.006340759
vt -4.021577 0.09100443
vt -4.021578 0.00634077
vt 5.021577 0.006340695
vt 3.729699 0.09100431
vt 3.729698 0.006340705
vt 5.021578 0.09100431
vt 2.43782 0.09100431
vt 2.437819 0.006340716
vt 1.14594 0.09100431
vt 1.145939 0.006340727
vt -0.1459395 0.09100431
vt -0.14594 0.006340738
vt -1.437819 0.09100431
vt -1.437819 0.006340749
vt -2.729698 0.09100443
vt -2.729698 0.006340759
vt -4.021577 0.09100443
vt -4.021578 0.00634077
vt 3.729698 0.006340705
vt 3.729699 0.09100431
vt 5.021577 0.006340695
vt 5.021578 0.09100431
vt 2.43782 0.09100431
vt 2.437819 0.006340716
vt 1.14594 0.09100431
vt 1.145939 0.006340727
vt -0.1459395 0.09100431
vt -0.14594 0.006340738
vt -1.437819 0.09100431
vt -1.437819 0.006340749
vt -2.729698 0.09100443
vt -2.729698 0.006340759
vt -4.021577 0.09100443
vt -4.021578 0.00634077
vn 0 0 1
vn 0 0 1
vn 0 0 1
vn 0 0 1
vn 0 0 1
vn 0 0 1
vn 0 0 1
vn 0 0 1
vn 0 0 1
vn 0 0 1
vn 0 0 1
vn 0 0 1
vn 0 0 1
vn 0 0 1
vn 0 0 1
vn 0 0 1
vn 1 0 0
vn 1 0 0
vn 1 0 0
vn 1 0 0
vn 1 0 0
vn 1 0 0
vn 1 0 0
vn 1 0 0
vn 1 0 0
vn 1 0 0
vn 1 0 0
vn 1 0 0
vn 1 0 0
vn 1 0 0
vn 1 0 0
vn 1 0 0
vn 0 0 -1
vn 0 0 -1
vn 0 0 -1
vn 0 0 -1
vn 0 0 -1
vn 0 0 -1
vn 0 0 -1
vn 0 0 -1
vn 0 0 -1
vn 0 0 -1
vn 0 0 -1
vn 0 0 -1
vn 0 0 -1
vn 0 0 -1
vn 0 0 -1
vn 0 0 -1
vn -1 0 0
vn -1 0 0
vn -1 0 0
vn -1 0 0
vn -1 0 0
vn -1 0 0
vn -1 0 0
vn -1 0 0
vn -1 0 0
vn -1 0 0
vn -1 0 0
vn -1 0 0
vn -1 0 0
vn -1 0 0
vn -1 0 0
vn -1 0 0
vn -1 0 0
vn -1 0 0
vn -1 0 0
vn -1 0 0
vn -1 0 0
vn -1 0 0
vn -1 0 0
vn -1 0 0
vn -1 0 0
vn -1 0 0
vn -1 0 0
vn -1 0 0
vn -1 0 -1.243531E-05
vn -1 0 -1.244078E-05
vn -1 0 0
vn -1 0 0
vn 0 0 -1
vn 0 0 -1
vn 0 0 -1
vn 0 0 -1
vn 0 0 -1
vn 0 0 -1
vn 0 0 -1
vn 0 0 -1
vn 0 0 -1
vn 0 0 -1
vn 0 0 -1
vn 0 0 -1
vn 1.243503E-05 0 -1
vn 1.244051E-05 0 -1
vn 0 0 -1
vn 0 0 -1
g Chains_0
f 3/3/3 2/2/2 1/1/1
f 2/2/2 3/3/3 4/4/4
f 5/5/5 1/1/1 2/2/2
f 1/1/1 5/5/5 6/6/6
f 7/7/7 6/6/6 5/5/5
f 6/6/6 7/7/7 8/8/8
f 9/9/9 8/8/8 7/7/7
f 8/8/8 9/9/9 10/10/10
f 11/11/11 10/10/10 9/9/9
f 10/10/10 11/11/11 12/12/12
f 13/13/13 12/12/12 11/11/11
f 12/12/12 13/13/13 14/14/14
f 15/15/15 14/14/14 13/13/13
f 14/14/14 15/15/15 16/16/16
f 19/19/19 18/18/18 17/17/17
f 18/18/18 19/19/19 20/20/20
f 21/21/21 17/17/17 18/18/18
f 17/17/17 21/21/21 22/22/22
f 23/23/23 22/22/22 21/21/21
f 22/22/22 23/23/23 24/24/24
f 25/25/25 24/24/24 23/23/23
f 24/24/24 25/25/25 26/26/26
f 27/27/27 26/26/26 25/25/25
f 26/26/26 27/27/27 28/28/28
f 29/29/29 28/28/28 27/27/27
f 28/28/28 29/29/29 30/30/30
f 31/31/31 30/30/30 29/29/29
f 30/30/30 31/31/31 32/32/32
f 35/35/35 34/34/34 33/33/33
f 34/34/34 35/35/35 36/36/36
f 37/37/37 33/33/33 34/34/34
f 33/33/33 37/37/37 38/38/38
f 39/39/39 38/38/38 37/37/37
f 38/38/38 39/39/39 40/40/40
f 41/41/41 40/40/40 39/39/39
f 40/40/40 41/41/41 42/42/42
f 43/43/43 42/42/42 41/41/41
f 42/42/42 43/43/43 44/44/44
f 45/45/45 44/44/44 43/43/43
f 44/44/44 45/45/45 46/46/46
f 47/47/47 46/46/46 45/45/45
f 46/46/46 47/47/47 48/48/48
f 51/51/51 50/50/50 49/49/49
f 52/52/52 49/49/49 50/50/50
f 50/50/50 51/51/51 53/53/53
f 54/54/54 53/53/53 51/51/51
f 53/53/53 54/54/54 55/55/55
f 56/56/56 55/55/55 54/54/54
f 55/55/55 56/56/56 57/57/57
f 58/58/58 57/57/57 56/56/56
f 57/57/57 58/58/58 59/59/59
f 60/60/60 59/59/59 58/58/58
f 59/59/59 60/60/60 61/61/61
f 62/62/62 61/61/61 60/60/60
f 61/61/61 62/62/62 63/63/63
f 64/64/64 63/63/63 62/62/62
f 67/67/67 66/66/66 65/65/65
f 68/68/68 65/65/65 66/66/66
f 66/66/66 67/67/67 69/69/69
f 70/70/70 69/69/69 67/67/67
f 69/69/69 70/70/70 71/71/71
f 72/72/72 71/71/71 70/70/70
f 71/71/71 72/72/72 73/73/73
f 74/74/74 73/73/73 72/72/72
f 73/73/73 74/74/74 75/75/75
f 76/76/76 75/75/75 74/74/74
f 75/75/75 76/76/76 77/77/77
f 78/78/78 77/77/77 76/76/76
f 77/77/77 78/78/78 79/79/79
f 80/80/80 79/79/79 78/78/78
f 83/83/83 82/82/82 81/81/81
f 82/82/82 83/83/83 84/84/84
f 85/85/85 81/81/81 82/82/82
f 81/81/81 85/85/85 86/86/86
f 87/87/87 86/86/86 85/85/85
f 86/86/86 87/87/87 88/88/88
f 89/89/89 88/88/88 87/87/87
f 88/88/88 89/89/89 90/90/90
f 91/91/91 90/90/90 89/89/89
f 90/90/90 91/91/91 92/92/92
f 93/93/93 92/92/92 91/91/91
f 92/92/92 93/93/93 94/94/94
f 95/95/95 94/94/94 93/93/93
f 94/94/94 95/95/95 96/96/96
