g Circle
v 0.009999999 0.001500003 6.806145E-09
v 0.007071058 0.001250002 0.007071074
v -5.960464E-10 0.003000003 2.355638E-09
v -7.105427E-17 0.001000002 0.009999997
v -0.007071067 0.001250002 0.007071065
v -0.009999999 0.001500003 -2.094868E-09
v -0.007071067 0.001250003 -0.00707107
v 3.258413E-09 0.001000004 -0.01
v 0.007071072 0.001250003 -0.007071066
v 0.007071072 0.001250003 -0.007071066
v 0.007071072 -0.000749997 -0.007071066
v 0.009999999 -0.0004999972 6.806145E-09
v 0.009999999 0.001500003 6.806145E-09
v 3.258413E-09 0.001000004 -0.01
v 3.258413E-09 -0.0009999964 -0.01
v 0.007071072 -0.000749997 -0.007071066
v 0.007071072 0.001250003 -0.007071066
v -0.007071067 0.001250003 -0.00707107
v -0.007071067 -0.000749997 -0.00707107
v 3.258413E-09 -0.0009999964 -0.01
v 3.258413E-09 0.001000004 -0.01
v -0.009999999 0.001500003 -2.094868E-09
v -0.009999999 -0.0004999972 -2.094868E-09
v -0.007071067 -0.000749997 -0.00707107
v -0.007071067 0.001250003 -0.00707107
v -0.007071067 0.001250002 0.007071065
v -0.007071067 -0.0007499976 0.007071065
v -0.009999999 -0.0004999972 -2.094868E-09
v -0.009999999 0.001500003 -2.094868E-09
v -7.105427E-17 0.001000002 0.009999997
v -7.105427E-17 -0.0009999976 0.009999997
v -0.007071067 -0.0007499976 0.007071065
v -0.007071067 0.001250002 0.007071065
v 0.007071058 0.001250002 0.007071074
v 0.007071058 -0.0007499976 0.007071074
v -7.105427E-17 -0.0009999976 0.009999997
v -7.105427E-17 0.001000002 0.009999997
v 0.009999999 0.001500003 6.806145E-09
v 0.009999999 -0.0004999972 6.806145E-09
v 0.007071058 -0.0007499976 0.007071074
v 0.007071058 0.001250002 0.007071074
v 3.258413E-09 -0.0009999964 -0.01
v -5.960464E-10 0.001000003 2.355638E-09
v 0.007071072 -0.000749997 -0.007071066
v 0.009999999 -0.0004999972 6.806145E-09
v 0.007071058 -0.0007499976 0.007071074
v -7.105427E-17 -0.0009999976 0.009999997
v -0.007071067 -0.0007499976 0.007071065
v -0.009999999 -0.0004999972 -2.094868E-09
v -0.007071067 -0.000749997 -0.00707107
vt 0.4979233 0.1484855
vt 0.4979234 0.3543029
vt 0.7457471 0.2500001
vt 0.6433613 0.4999502
vt 0.8491825 0.4981871
vt 0.9935708 0.3515148
vt 0.9935709 0.1456974
vt 0.8481328 4.976988E-05
vt 0.6423116 0.001812965
vt 0.4880469 0.00218749
vt 0.004140913 0.002339363
vt 0.004140615 0.4919531
vt 0.4880465 0.4918013
vt 0.004140615 0.4919531
vt 0.4880466 0.4918013
vt 0.4880469 0.00218749
vt 0.004140884 0.002339363
vt 0.004140615 0.4919531
vt 0.4880466 0.4918012
vt 0.4880469 0.00218749
vt 0.004140854 0.002339363
vt 0.004140615 0.4919531
vt 0.4880466 0.4918013
vt 0.4880469 0.00218749
vt 0.004140854 0.002339363
vt 0.004140615 0.4919531
vt 0.4880466 0.4918013
vt 0.4880469 0.00218749
vt 0.004140913 0.002339333
vt 0.4880469 0.00218749
vt 0.004140973 0.002339363
vt 0.004140615 0.4919531
vt 0.4880465 0.4918013
vt 0.4880469 0.002187476
vt 0.004140854 0.002339333
vt 0.004140615 0.4919531
vt 0.4880465 0.4918013
vt 0.4880469 0.002187476
vt 0.004140885 0.002339335
vt 0.004140631 0.4919531
vt 0.4880466 0.4918012
vt 0.3440374 0.5100478
vt 0.2457471 0.7500001
vt 0.483658 0.6498695
vt 0.4836578 0.8474542
vt 0.345045 0.9882596
vt 0.1474569 0.9899523
vt 0.007836312 0.8501307
vt 0.007836327 0.652546
vt 0.1464491 0.5117404
vn 0.8066989 0.5909626 0
vn 0.5683573 0.57498 0.5885304
vn 0 1 0
vn 0 0.5592626 0.8289905
vn -0.5683573 0.57498 0.5885304
vn -0.8066989 0.5909626 0
vn -0.5683573 0.57498 -0.5885304
vn 0 0.5592626 -0.8289905
vn 0.5683573 0.57498 -0.5885304
vn 0.5683573 0.57498 -0.5885304
vn 0.5291171 -0.6817758 -0.5051898
vn 0.7449475 -0.6671231 0
vn 0.8066989 0.5909626 0
vn 0 0.5592626 -0.8289905
vn 0 -0.6965613 -0.7174972
vn 0.5291171 -0.6817758 -0.5051898
vn 0.5683573 0.57498 -0.5885304
vn -0.5683573 0.57498 -0.5885304
vn -0.5291171 -0.6817758 -0.5051898
vn 0 -0.6965613 -0.7174972
vn 0 0.5592626 -0.8289905
vn -0.8066989 0.5909626 0
vn -0.7449475 -0.6671231 0
vn -0.5291171 -0.6817758 -0.5051898
vn -0.5683573 0.57498 -0.5885304
vn -0.5683573 0.57498 0.5885304
vn -0.5291171 -0.6817758 0.5051898
vn -0.7449475 -0.6671231 0
vn -0.8066989 0.5909626 0
vn 0 0.5592626 0.8289905
vn 0 -0.6965613 0.7174972
vn -0.5291171 -0.6817758 0.5051898
vn -0.5683573 0.57498 0.5885304
vn 0.5683573 0.57498 0.5885304
vn 0.5291171 -0.6817758 0.5051898
vn 0 -0.6965613 0.7174972
vn 0 0.5592626 0.8289905
vn 0.8066989 0.5909626 0
vn 0.7449475 -0.6671231 0
vn 0.5291171 -0.6817758 0.5051898
vn 0.5683573 0.57498 0.5885304
vn 0 -0.6965613 -0.7174972
vn 0 -1 0
vn 0.5291171 -0.6817758 -0.5051898
vn 0.7449475 -0.6671231 0
vn 0.5291171 -0.6817758 0.5051898
vn 0 -0.6965613 0.7174972
vn -0.5291171 -0.6817758 0.5051898
vn -0.7449475 -0.6671231 0
vn -0.5291171 -0.6817758 -0.5051898
g Circle_0
f 3/3/3 2/2/2 1/1/1
f 3/3/3 4/4/4 2/2/2
f 3/3/3 5/5/5 4/4/4
f 3/3/3 6/6/6 5/5/5
f 3/3/3 7/7/7 6/6/6
f 7/7/7 3/3/3 8/8/8
f 3/3/3 9/9/9 8/8/8
f 9/9/9 3/3/3 1/1/1
f 12/12/12 11/11/11 10/10/10
f 13/13/13 12/12/12 10/10/10
f 16/16/16 15/15/15 14/14/14
f 17/17/17 16/16/16 14/14/14
f 20/20/20 19/19/19 18/18/18
f 21/21/21 20/20/20 18/18/18
f 24/24/24 23/23/23 22/22/22
f 25/25/25 24/24/24 22/22/22
f 28/28/28 27/27/27 26/26/26
f 29/29/29 28/28/28 26/26/26
f 32/32/32 31/31/31 30/30/30
f 33/33/33 32/32/32 30/30/30
f 36/36/36 35/35/35 34/34/34
f 37/37/37 36/36/36 34/34/34
f 40/40/40 39/39/39 38/38/38
f 41/41/41 40/40/40 38/38/38
f 44/44/44 43/43/43 42/42/42
f 43/43/43 44/44/44 45/45/45
f 46/46/46 43/43/43 45/45/45
f 47/47/47 43/43/43 46/46/46
f 48/48/48 43/43/43 47/47/47
f 49/49/49 43/43/43 48/48/48
f 50/50/50 43/43/43 49/49/49
f 43/43/43 50/50/50 42/42/42
