g cranepiece
v 0.004999987 -0.02500001 0.03
v 0.004999983 -0.03500001 0.03
v 0.004999983 -0.03500001 0.0375
v 0.004999987 -0.02500001 0.0375
v 0.004999987 -0.02500001 0.0375
v 0.004999983 -0.03500001 0.0375
v -0.005000017 -0.035 0.0375
v -0.005000012 -0.025 0.0375
v -0.005000012 -0.025 0.0375
v -0.005000017 -0.035 0.0375
v -0.005000017 -0.035 0.03
v -0.005000012 -0.025 0.03
v -0.005000012 -0.025 0.03
v -0.005000017 -0.035 0.03
v 0.004999983 -0.03500001 0.03
v 0.004999987 -0.02500001 0.03
vt 0.5029992 0.4976796
vt 0.9987017 0.4976797
vt 0.9987016 0.237886
vt 0.5029992 0.2378859
vt 0.2688425 0.1555613
vt 0.2688425 0.06318882
vt 0.17647 0.06318885
vt 0.1764701 0.1555613
vt 0.9987016 0.237886
vt 0.5029992 0.2378859
vt 0.5029992 0.4976796
vt 0.9987017 0.4976797
vt 0.51251 0.6124899
vt 0.61249 0.6124898
vt 0.6124899 0.5125099
vt 0.51251 0.5125099
vn 1 -4.768372E-07 0
vn 1 -4.768372E-07 0
vn 1 -4.768372E-07 0
vn 1 -4.768372E-07 0
vn -1.192093E-07 0 1
vn -1.192093E-07 0 1
vn -1.192093E-07 0 1
vn -1.192093E-07 0 1
vn -1 4.768372E-07 0
vn -1 4.768372E-07 0
vn -1 4.768372E-07 0
vn -1 4.768372E-07 0
vn 0 0 -1
vn 0 0 -1
vn 0 0 -1
vn 0 0 -1
g cranepiece_0
f 3/3/3 2/2/2 1/1/1
f 4/4/4 3/3/3 1/1/1
f 7/7/7 6/6/6 5/5/5
f 8/8/8 7/7/7 5/5/5
f 11/11/11 10/10/10 9/9/9
f 12/12/12 11/11/11 9/9/9
f 15/15/15 14/14/14 13/13/13
f 16/16/16 15/15/15 13/13/13
