g cranehookholder
v -0.005000013 -0.0275 0.0375
v -0.002500013 -0.0275 0.0375
v -0.002500017 -0.035 0.0375
v -0.005000017 -0.035 0.0375
v -0.002500012 -0.025 0.0375
v 0.002499988 -0.025 0.0375
v 0.002499986 -0.0275 0.0375
v -0.005000012 -0.025 0.0375
v 0.004999987 -0.02500001 0.0375
v 0.004999986 -0.02750001 0.0375
v 0.004999983 -0.03500001 0.0375
v 0.002499983 -0.035 0.0375
v -0.002500012 -0.025 0.03
v -0.002500013 -0.0275 0.03
v 0.002499986 -0.0275 0.03
v 0.002499988 -0.025 0.03
v 0.004999986 -0.02750001 0.03
v 0.004999987 -0.02500001 0.03
v -0.005000012 -0.025 0.03
v -0.005000013 -0.0275 0.03
v 0.002499983 -0.035 0.03
v 0.002499983 -0.035 0.0375
v 0.002499983 -0.04300001 0.025
v 0.002499983 -0.038 0.025
v 0.002499986 -0.0275 0.0375
v 0.002499986 -0.0275 0.03
v 0.002499986 -0.0305 0.025
v -0.002500017 -0.035 0.0375
v -0.002500017 -0.035 0.03
v -0.002500017 -0.038 0.025
v -0.002500017 -0.043 0.025
v -0.002500013 -0.0275 0.0375
v -0.002500013 -0.0275 0.03
v -0.002500013 -0.0305 0.025
v -0.002500013 -0.0275 0.0375
v 0.002499986 -0.0275 0.0375
v 0.002499986 -0.0275 0.03
v -0.002500013 -0.0275 0.03
v -0.002500017 -0.035 0.0375
v -0.002500017 -0.043 0.025
v -0.005000017 -0.043 0.025
v -0.005000017 -0.035 0.0375
v -0.005000017 -0.035 0.03
v -0.005000017 -0.035 0.0375
v -0.005000017 -0.043 0.025
v -0.005000017 -0.038 0.025
v -0.005000013 -0.0305 0.025
v -0.005000013 -0.0275 0.03
v -0.005000013 -0.0275 0.0375
v -0.005000012 -0.025 0.03
v -0.005000012 -0.025 0.0375
v 0.002499986 -0.0275 0.03
v -0.002500013 -0.0275 0.03
v -0.002500013 -0.0305 0.025
v 0.002499986 -0.0305 0.025
v -0.005000013 -0.0275 0.03
v -0.005000013 -0.0305 0.025
v -0.002500013 -0.0305 0.025
v -0.002500013 -0.0275 0.03
v 0.004999983 -0.03800001 0.025
v 0.004999986 -0.03050001 0.025
v 0.002499986 -0.0305 0.025
v 0.002499983 -0.038 0.025
v 0.002499983 -0.04300001 0.025
v 0.004999983 -0.04300001 0.025
v -0.002500013 -0.0305 0.025
v -0.005000013 -0.0305 0.025
v -0.005000017 -0.038 0.025
v -0.002500017 -0.038 0.025
v -0.005000017 -0.043 0.025
v -0.002500017 -0.043 0.025
v 0.004999983 -0.03500001 0.0375
v 0.004999983 -0.04300001 0.025
v 0.002499983 -0.04300001 0.025
v 0.002499983 -0.035 0.0375
v 0.002499986 -0.0275 0.03
v 0.002499986 -0.0305 0.025
v 0.004999986 -0.03050001 0.025
v 0.004999986 -0.02750001 0.03
v 0.004999986 -0.02750001 0.03
v 0.004999986 -0.03050001 0.025
v 0.004999983 -0.03800001 0.025
v 0.004999983 -0.03500001 0.03
v 0.004999983 -0.03500001 0.0375
v 0.004999983 -0.04300001 0.025
v 0.004999986 -0.02750001 0.0375
v 0.004999987 -0.02500001 0.0375
v 0.004999987 -0.02500001 0.03
vt 0.3858333 0.1851842
vt 0.3858333 0.1708821
vt 0.3458334 0.1708821
vt 0.3458334 0.1851842
vt 0.3991666 0.1708821
vt 0.3991666 0.1422778
vt 0.3858333 0.1422778
vt 0.3991666 0.1851842
vt 0.3991666 0.1279756
vt 0.3858333 0.1279756
vt 0.3458334 0.1279756
vt 0.3458334 0.1422778
vt 0.3591667 0.02499998
vt 0.3591667 0.03930214
vt 0.3858333 0.03930214
vt 0.3858333 0.02499998
vt 0.3991666 0.03930214
vt 0.3991666 0.02499998
vt 0.3458333 0.02499998
vt 0.3458333 0.03930214
vt 0.2391666 0.1737426
vt 0.2791666 0.1737426
vt 0.2125 0.1279756
vt 0.2125 0.15658
vt 0.2791666 0.2166491
vt 0.2391666 0.2166491
vt 0.2125 0.1994865
vt 0.3458334 0.1708821
vt 0.3058333 0.1708821
vt 0.2791667 0.1880447
vt 0.2791667 0.216649
vt 0.3458334 0.1279756
vt 0.3058333 0.1279756
vt 0.2791667 0.1451382
vt 0.4290528 0.1839194
vt 0.432006 0.1839194
vt 0.432006 0.17951
vt 0.4290528 0.17951
vt 0.3991666 0.1084154
vt 0.3991667 0.1918308
vt 0.4125 0.1918308
vt 0.4125 0.1084154
vt 0.3058333 0.07076696
vt 0.3458333 0.07076693
vt 0.2791667 0.02499998
vt 0.2791667 0.05360436
vt 0.2791667 0.09651086
vt 0.3058333 0.1136734
vt 0.3458333 0.1136734
vt 0.3058333 0.1279756
vt 0.3458333 0.1279756
vt 0.4268114 0.1822374
vt 0.4313847 0.1822374
vt 0.4313847 0.179294
vt 0.4268114 0.179294
vt 0.3458333 0.03930214
vt 0.3458334 0.05646473
vt 0.3591667 0.05646473
vt 0.3591667 0.03930214
vt 0.3991666 0.09937119
vt 0.3991666 0.05646473
vt 0.3858333 0.05646473
vt 0.3858333 0.09937119
vt 0.3858333 0.1279756
vt 0.3991666 0.1279756
vt 0.3591667 0.05646473
vt 0.3458334 0.05646473
vt 0.3458334 0.09937119
vt 0.3591667 0.09937119
vt 0.3458334 0.1279755
vt 0.3591667 0.1279755
vt 0.3991666 0.02499998
vt 0.3991667 0.1084154
vt 0.4125 0.1084154
vt 0.4125 0.02499998
vt 0.3858333 0.03930214
vt 0.3858333 0.05646473
vt 0.3991666 0.05646473
vt 0.3991666 0.03930214
vt 0.2391667 0.03930214
vt 0.2125 0.05646473
vt 0.2125 0.09937122
vt 0.2391666 0.08220863
vt 0.2791667 0.08220863
vt 0.2125 0.1279756
vt 0.2791667 0.03930214
vt 0.2791667 0.02499998
vt 0.2391667 0.02499998
vn 0 0 1
vn 0 0 1
vn 0 0 1
vn 0 0 1
vn 0 0 1
vn 0 0 1
vn 0 0 1
vn 0 0 1
vn 0 0 1
vn 0 0 1
vn 0 0 1
vn 0 0 1
vn 0 0 -1
vn 0 0 -1
vn 0 0 -1
vn 0 0 -1
vn 0 0 -1
vn 0 0 -1
vn 0 0 -1
vn 0 0 -1
vn -1 0 0
vn -1 0 0
vn -1 0 0
vn -1 0 0
vn -1 4.768372E-07 0
vn -1 4.768372E-07 0
vn -1 4.768372E-07 -2.861022E-07
vn 1 0 0
vn 1 0 0
vn 1 0 0
vn 1 0 0
vn 1 -4.768372E-07 0
vn 1 -4.768372E-07 0
vn 1 -4.768372E-07 2.861022E-07
vn 0 -1 0
vn 0 -1 0
vn 0 -1 0
vn 0 -1 0
vn -6.426022E-07 -0.8422715 0.5390537
vn -6.426022E-07 -0.8422715 0.5390537
vn -6.426022E-07 -0.8422715 0.5390537
vn -6.426022E-07 -0.8422715 0.5390537
vn -1 0 0
vn -1 0 0
vn -1 0 0
vn -1 0 0
vn -1 4.768372E-07 -2.861022E-07
vn -1 4.768372E-07 -2.861022E-07
vn -1 4.768372E-07 0
vn -1 4.768372E-07 0
vn -1 4.768372E-07 0
vn 0 0.8574931 -0.5144955
vn 0 0.8574931 -0.5144955
vn 0 0.8574931 -0.5144955
vn 0 0.8574931 -0.5144955
vn 8.177691E-07 0.8574931 -0.5144954
vn 8.177691E-07 0.8574931 -0.5144954
vn 8.177691E-07 0.8574931 -0.5144954
vn 8.177691E-07 0.8574931 -0.5144954
vn 0 0 -1
vn 0 0 -1
vn 0 0 -1
vn 0 0 -1
vn 0 0 -1
vn 0 0 -1
vn 0 0 -1
vn 0 0 -1
vn 0 0 -1
vn 0 0 -1
vn 0 0 -1
vn 0 0 -1
vn -6.42602E-07 -0.8422713 0.5390539
vn -6.42602E-07 -0.8422713 0.5390539
vn -6.42602E-07 -0.8422713 0.5390539
vn -6.42602E-07 -0.8422713 0.5390539
vn 8.177689E-07 0.8574927 -0.514496
vn 8.177689E-07 0.8574927 -0.514496
vn 8.177689E-07 0.8574927 -0.514496
vn 8.177689E-07 0.8574927 -0.514496
vn 1 -4.768372E-07 2.861022E-07
vn 1 -4.768372E-07 2.861022E-07
vn 1 -4.768372E-07 2.861022E-07
vn 1 -4.768372E-07 2.861022E-07
vn 1 0 0
vn 1 0 0
vn 1 -3.178915E-07 0
vn 1 -3.178915E-07 0
vn 1 -3.178915E-07 0
g cranehookholder_0
f 3/3/3 2/2/2 1/1/1
f 4/4/4 3/3/3 1/1/1
f 1/1/1 2/2/2 5/5/5
f 5/5/5 2/2/2 6/6/6
f 2/2/2 7/7/7 6/6/6
f 8/8/8 1/1/1 5/5/5
f 6/6/6 7/7/7 9/9/9
f 7/7/7 10/10/10 9/9/9
f 11/11/11 10/10/10 7/7/7
f 12/12/12 11/11/11 7/7/7
f 15/15/15 14/14/14 13/13/13
f 16/16/16 15/15/15 13/13/13
f 17/17/17 15/15/15 16/16/16
f 18/18/18 17/17/17 16/16/16
f 13/13/13 14/14/14 19/19/19
f 14/14/14 20/20/20 19/19/19
f 23/23/23 22/22/22 21/21/21
f 24/24/24 23/23/23 21/21/21
f 22/22/22 25/25/25 21/21/21
f 25/25/25 26/26/26 21/21/21
f 27/27/27 24/24/24 21/21/21
f 26/26/26 27/27/27 21/21/21
f 30/30/30 29/29/29 28/28/28
f 31/31/31 30/30/30 28/28/28
f 32/32/32 28/28/28 29/29/29
f 33/33/33 32/32/32 29/29/29
f 29/29/29 30/30/30 33/33/33
f 30/30/30 34/34/34 33/33/33
f 37/37/37 36/36/36 35/35/35
f 38/38/38 37/37/37 35/35/35
f 41/41/41 40/40/40 39/39/39
f 42/42/42 41/41/41 39/39/39
f 45/45/45 44/44/44 43/43/43
f 46/46/46 45/45/45 43/43/43
f 47/47/47 46/46/46 43/43/43
f 48/48/48 47/47/47 43/43/43
f 49/49/49 48/48/48 43/43/43
f 44/44/44 49/49/49 43/43/43
f 48/48/48 49/49/49 50/50/50
f 49/49/49 51/51/51 50/50/50
f 54/54/54 53/53/53 52/52/52
f 55/55/55 54/54/54 52/52/52
f 58/58/58 57/57/57 56/56/56
f 59/59/59 58/58/58 56/56/56
f 62/62/62 61/61/61 60/60/60
f 63/63/63 62/62/62 60/60/60
f 64/64/64 63/63/63 60/60/60
f 65/65/65 64/64/64 60/60/60
f 68/68/68 67/67/67 66/66/66
f 69/69/69 68/68/68 66/66/66
f 70/70/70 68/68/68 69/69/69
f 71/71/71 70/70/70 69/69/69
f 74/74/74 73/73/73 72/72/72
f 75/75/75 74/74/74 72/72/72
f 78/78/78 77/77/77 76/76/76
f 79/79/79 78/78/78 76/76/76
f 82/82/82 81/81/81 80/80/80
f 83/83/83 82/82/82 80/80/80
f 82/82/82 83/83/83 84/84/84
f 83/83/83 80/80/80 84/84/84
f 85/85/85 82/82/82 84/84/84
f 80/80/80 86/86/86 84/84/84
f 86/86/86 80/80/80 87/87/87
f 80/80/80 88/88/88 87/87/87
