g cranehook
v 0.001875 0.001875 -0.0075
v 0.001875 -0.001875 -0.0075
v 0.001875 -0.001875 -0.0025
v 0.001875 0.001875 -0.0025
v 0.001875 -0.001875 -0.0075
v -0.001875 -0.001875 -0.0075
v -0.001875 -0.001875 -0.0025
v 0.001875 -0.001875 -0.0025
v -0.001875 -0.001875 -0.0075
v -0.001875 0.001875 -0.0075
v -0.001875 0.001875 -0.0025
v -0.001875 -0.001875 -0.0025
v -0.001875 0.001875 -0.0075
v 0.001875 0.001875 -0.0075
v 0.001875 0.001875 -0.0025
v -0.001875 0.001875 -0.0025
v 0.001875 -0.001875 -0.0075
v 0.001875 0.001875 -0.0075
v -0.001875 0.001875 -0.0075
v -0.001875 -0.001875 -0.0075
v -0.001875 -0.001875 -0.0025
v -0.001875 0.001875 -0.0025
v 0.001875 0.001875 -0.0025
v 0.001875 -0.001875 -0.0025
vt 0.3154212 0.2085119
vt 0.3154212 0.2149733
vt 0.3218827 0.2149733
vt 0.3218827 0.2085119
vt 0.3074198 0.2066624
vt 0.3074198 0.2155924
vt 0.3163498 0.2155924
vt 0.3163498 0.2066624
vt 0.3074198 0.2066624
vt 0.3074198 0.2155924
vt 0.3163498 0.2155924
vt 0.3163498 0.2066624
vt 0.3074198 0.2066624
vt 0.3074198 0.2155924
vt 0.3163498 0.2155924
vt 0.3163498 0.2066624
vt 0.3074198 0.2066624
vt 0.3074198 0.2155924
vt 0.3163498 0.2155924
vt 0.3163498 0.2066624
vt 0.3074198 0.2066624
vt 0.3074198 0.2155924
vt 0.3163498 0.2155924
vt 0.3163498 0.2066624
vn 1 0 0
vn 1 0 0
vn 1 0 0
vn 1 0 0
vn 0 -1 0
vn 0 -1 0
vn 0 -1 0
vn 0 -1 0
vn -1 0 0
vn -1 0 0
vn -1 0 0
vn -1 0 0
vn 0 1 0
vn 0 1 0
vn 0 1 0
vn 0 1 0
vn 0 0 -1
vn 0 0 -1
vn 0 0 -1
vn 0 0 -1
vn 0 0 1
vn 0 0 1
vn 0 0 1
vn 0 0 1
g cranehook_0
f 3/3/3 2/2/2 1/1/1
f 4/4/4 3/3/3 1/1/1
f 7/7/7 6/6/6 5/5/5
f 8/8/8 7/7/7 5/5/5
f 11/11/11 10/10/10 9/9/9
f 12/12/12 11/11/11 9/9/9
f 15/15/15 14/14/14 13/13/13
f 16/16/16 15/15/15 13/13/13
f 19/19/19 18/18/18 17/17/17
f 20/20/20 19/19/19 17/17/17
f 23/23/23 22/22/22 21/21/21
f 24/24/24 23/23/23 21/21/21
