g Cube
v 0.009999997 -0.002500004 0.00625
v -0.01 -0.002499998 0.00625
v -0.01 -0.009999997 0.00625
v 0.009999994 -0.01 0.00625
v -0.01 -0.009999996 0.01
v -0.01 -0.009999997 0.00625
v -0.01 -0.002499998 0.00625
v -0.009999999 0.01 0.01
v -0.01 -0.002499998 -0.00625
v -0.009999999 0.01 -0.01
v -0.01 -0.009999997 -0.00625
v -0.01 -0.009999998 -0.01
v -0.009999999 0.01 -0.01
v -0.01 -0.002499998 -0.00625
v -0.01 -0.009999997 -0.00625
v -0.01 -0.002499998 -0.00625
v 0.009999997 -0.002500004 -0.00625
v 0.009999994 -0.01 -0.00625
v -0.01 -0.002499998 -0.00625
v -0.01 -0.002499998 0.00625
v 0.009999997 -0.002500004 0.00625
v 0.009999997 -0.002500004 -0.00625
v 0.009999993 -0.01000001 -0.01
v -0.01 -0.009999998 -0.01
v -0.01 -0.009999997 -0.00625
v 0.009999994 -0.01 -0.00625
v -0.01 -0.009999996 0.01
v -0.009999999 0.01 0.01
v 0.01 0.009999999 0.01
v 0.009999993 -0.01000001 0.01
v 0.01 0.009999999 -0.01
v 0.01 0.009999999 0.01
v -0.009999999 0.01 0.01
v -0.009999999 0.01 -0.01
v 0.009999993 -0.01000001 0.01
v 0.009999994 -0.01 0.00625
v -0.01 -0.009999997 0.00625
v -0.01 -0.009999996 0.01
v -0.01 -0.009999998 -0.01
v 0.009999993 -0.01000001 -0.01
v 0.01 0.009999999 -0.01
v -0.009999999 0.01 -0.01
v 0.01 0.009999999 -0.01
v 0.009999993 -0.01000001 -0.01
v 0.009999994 -0.01 -0.00625
v 0.009999994 -0.01 -0.00625
v 0.009999997 -0.002500004 -0.00625
v 0.01 0.009999999 -0.01
v 0.009999997 -0.002500004 -0.00625
v 0.009999997 -0.002500004 0.00625
v 0.01 0.009999999 -0.01
v 0.01 0.009999999 0.01
v 0.009999994 -0.01 0.00625
v 0.009999993 -0.01000001 0.01
v 0.01 0.009999999 0.01
v 0.01 0.009999999 0.01
v 0.009999997 -0.002500004 0.00625
v 0.009999994 -0.01 0.00625
vt 0.4583333 0.6666667
vt 0.4583333 0.3333334
vt 0.3333333 0.3333334
vt 0.3333333 0.6666666
vt 0.3900981 0.9375
vt 0.4525981 0.9375
vt 0.4525981 0.8125001
vt 0.2442649 1
vt 0.4525981 0.7291667
vt 0.2442649 0.6666667
vt 0.3910786 0.7500001
vt 0.3285786 0.7500001
vt 0.2442649 0.6666667
vt 0.4525981 0.7291667
vt 0.3333333 0.6666666
vt 0.4583332 0.6666666
vt 0.4583332 0.3333334
vt 0.3333332 0.3333334
vt 0.2442647 0.3333335
vt 1.788139E-07 0.3333334
vt 1.788139E-07 0.6666666
vt 0.2442647 0.6666667
vt 0.1458333 1.003472
vt 0.1458333 0.6701384
vt 0.08333334 0.6701384
vt 0.08333334 1.003472
vt 0.6271548 0.7108216
vt 0.6271549 0.9634331
vt 0.8797665 0.9634331
vt 0.8797665 0.7108215
vt 0.4857193 0.7434477
vt 0.3476145 0.7434477
vt 0.3476146 0.8815525
vt 0.4857193 0.8815524
vt 0.1458333 0.6701385
vt 0.08333331 0.6701385
vt 0.08333334 1.003472
vt 0.1458333 1.003472
vt 0.7050784 0.8238236
vt 0.7050784 0.9488235
vt 0.862219 0.8172712
vt 0.6207646 0.7404903
vt 0.2442648 1
vt 0.3285786 0.875
vt 0.2660786 0.875
vt 0.2660786 0.875
vt 0.2660786 1
vt 0.2442648 1
vt 0.2660786 1
vt 0.4525981 0.7291666
vt 0.2442648 1
vt 0.2442647 0.6666667
vt 0.2650982 1
vt 0.3275982 1
vt 0.2442647 0.6666667
vt 0.2442647 0.6666667
vt 0.4525981 0.7291666
vt 0.2650982 1
vn 0 0 -1
vn 0 0 -1
vn 0 0 -1
vn 0 0 -1
vn -1 1.070451E-07 0
vn -1 1.070451E-07 0
vn -1 1.070451E-07 0
vn -1 1.070451E-07 0
vn -1 1.070451E-07 0
vn -1 1.070451E-07 0
vn -1 1.070451E-07 0
vn -1 1.070451E-07 0
vn -1 1.070451E-07 0
vn -1 1.070451E-07 0
vn 0 0 1
vn 0 0 1
vn 0 0 1
vn 0 0 1
vn -3.278256E-07 -1 0
vn -3.278256E-07 -1 0
vn -3.278256E-07 -1 0
vn -3.278256E-07 -1 0
vn -3.725291E-07 -1 4.768372E-07
vn -3.725291E-07 -1 4.768372E-07
vn -3.725291E-07 -1 4.768372E-07
vn -3.725291E-07 -1 4.768372E-07
vn 0 0 1
vn 0 0 1
vn 0 0 1
vn 0 0 1
vn 0 1 0
vn 0 1 0
vn 0 1 0
vn 0 1 0
vn -4.172326E-07 -1 -3.178915E-07
vn -4.172326E-07 -1 -3.178915E-07
vn -4.172326E-07 -1 -3.178915E-07
vn -4.172326E-07 -1 -3.178915E-07
vn 0 0 -1
vn 0 0 -1
vn 0 0 -1
vn 0 0 -1
vn 1 -2.335528E-07 0
vn 1 -2.335528E-07 0
vn 1 -2.335528E-07 0
vn 1 -2.335528E-07 0
vn 1 -2.335528E-07 0
vn 1 -2.335528E-07 0
vn 1 -2.335528E-07 0
vn 1 -2.335528E-07 0
vn 1 -2.335528E-07 0
vn 1 -2.335528E-07 0
vn 1 -2.335528E-07 0
vn 1 -2.335528E-07 0
vn 1 -2.335528E-07 0
vn 1 -2.335528E-07 0
vn 1 -2.335528E-07 0
vn 1 -2.335528E-07 0
g Cube_0
f 3/3/3 2/2/2 1/1/1
f 4/4/4 3/3/3 1/1/1
f 7/7/7 6/6/6 5/5/5
f 5/5/5 8/8/8 7/7/7
f 8/8/8 9/9/9 7/7/7
f 9/9/9 8/8/8 10/10/10
f 13/13/13 12/12/12 11/11/11
f 11/11/11 14/14/14 13/13/13
f 17/17/17 16/16/16 15/15/15
f 18/18/18 17/17/17 15/15/15
f 21/21/21 20/20/20 19/19/19
f 22/22/22 21/21/21 19/19/19
f 25/25/25 24/24/24 23/23/23
f 26/26/26 25/25/25 23/23/23
f 29/29/29 28/28/28 27/27/27
f 30/30/30 29/29/29 27/27/27
f 33/33/33 32/32/32 31/31/31
f 34/34/34 33/33/33 31/31/31
f 37/37/37 36/36/36 35/35/35
f 38/38/38 37/37/37 35/35/35
f 41/41/41 40/40/40 39/39/39
f 42/42/42 41/41/41 39/39/39
f 45/45/45 44/44/44 43/43/43
f 48/48/48 47/47/47 46/46/46
f 51/51/51 50/50/50 49/49/49
f 50/50/50 51/51/51 52/52/52
f 55/55/55 54/54/54 53/53/53
f 58/58/58 57/57/57 56/56/56
