g Cube__5_
v 181 -3.757195 -21
v 181 -10.61805 -34
v 181 -3.756521 -34
v 181 -10.62301 -21
v 181 -20.85467 -34
v 181 -20.90209 -21
v 181 -31.50733 -21
v 181 -28.70499 -34
v 181 -31.50733 -34
v 181 2.708672 -21
v 181 2.70531 -34
v 181 13.66948 -34
v 181 13.66948 -21
v 181 20.35941 -34
v 181 23.49267 -34
v 181 23.49267 -21
v 127 -31.50733 -21
v 140.8023 -20.97418 -21
v 127 -20.84862 -21
v 136.0441 -31.50733 -21
v 141 -18 -21
v 147.7576 -20.97418 -21
v 147.9525 -18 -21
v 154.3077 -20.97418 -21
v 154.5 -18 -21
v 160.8578 -20.97418 -21
v 161.0475 -18 -21
v 167.8131 -20.97418 -21
v 168 -18 -21
v 181 -20.90209 -21
v 181 -10.62301 -21
v 168 7.999999 -21
v 181 -3.757195 -21
v 181 2.708672 -21
v 181 13.66948 -21
v 167.8015 13.66948 -21
v 161.0475 7.999999 -21
v 160.8461 13.66948 -21
v 154.5 7.999999 -21
v 154.2958 13.66948 -21
v 147.9525 7.999999 -21
v 147.7455 13.66948 -21
v 141 7.999999 -21
v 140.7901 13.66948 -21
v 127 13.66948 -21
v 127 3 -21
v 127 -11 -21
v 127 23.49267 -21
v 136.0441 23.49267 -21
v 171.0536 23.49267 -21
v 162.0387 23.49267 -21
v 181 23.49267 -21
v 145.0591 23.49267 -21
v 153.5489 23.49267 -21
v 144.8321 23.49267 -34
v 136.0441 23.49267 -21
v 145.0591 23.49267 -21
v 135.7769 23.49267 -34
v 127 23.49267 -34
v 127 23.49267 -27
v 125 23.49267 -27
v 125 23.49267 -34
v 127 23.49267 -21
v 153.3598 23.49267 -34
v 153.5489 23.49267 -21
v 161.8875 23.49267 -34
v 162.0387 23.49267 -21
v 170.9427 23.49267 -34
v 171.0536 23.49267 -21
v 145.0591 -31.50733 -21
v 136.0416 -31.50733 -34
v 145.0013 -31.50733 -34
v 136.0441 -31.50733 -21
v 127 -31.50733 -21
v 127 -31.50733 -27
v 127 -31.50733 -34
v 125 -31.50733 -34
v 125 -31.50733 -27
v 153.5489 -31.50733 -21
v 153.4391 -31.50733 -34
v 162.0387 -31.50733 -21
v 161.8769 -31.50733 -34
v 170.8366 -31.50733 -34
v 170.9427 -31.50733 -34
v 171.0536 -31.50733 -21
v 178.201 -31.50733 -34
v 181 -31.50733 -34
v 181 -31.50733 -21
v 127 13.66948 -34
v 125 6 -34
v 125 18.49232 -34
v 127 3 -34
v 127 20.44857 -34
v 125 20.456 -34
v 127 23.49267 -34
v 125 23.49267 -34
v 135.7769 20.41885 -34
v 135.7769 23.49267 -34
v 144.8321 20.4112 -34
v 144.8321 23.49267 -34
v 153.3598 20.40399 -34
v 153.3598 23.49267 -34
v 161.8875 20.39678 -34
v 161.8875 23.49267 -34
v 170.9427 20.38913 -34
v 170.9427 23.49267 -34
v 178.201 20.35941 -34
v 178.201 23.49267 -34
v 181 23.49267 -34
v 181 20.35941 -34
v 178.201 13.66948 -34
v 181 13.66948 -34
v 178.201 2.70531 -34
v 181 2.70531 -34
v 178.201 -3.756521 -34
v 181 -3.756521 -34
v 178.201 -10.61805 -34
v 181 -10.61805 -34
v 178.201 -20.85467 -34
v 181 -20.85467 -34
v 178.201 -28.70499 -34
v 181 -28.70499 -34
v 181 -31.50733 -34
v 178.201 -31.50733 -34
v 170.9427 -28.70501 -34
v 170.9427 -31.50733 -34
v 170.8366 -28.70503 -34
v 170.8366 -31.50733 -34
v 161.8387 -28.70504 -34
v 161.8769 -31.50733 -34
v 153.4391 -31.50733 -34
v 153.365 -28.70504 -34
v 145.0013 -31.50733 -34
v 144.8912 -28.70504 -34
v 136.0416 -31.50733 -34
v 135.8933 -28.70505 -34
v 127 -31.50733 -34
v 127 -28.70505 -34
v 125 -28.70506 -34
v 125 -31.50733 -34
v 125 -25.67133 -34
v 127 -20.80128 -34
v 125 -14 -34
v 127 -11 -34
v 127 -20.80128 -34
v 127 -11 -56.20969
v 127 -20.80128 -56.20969
v 127 -11 -34
v 127 -28.70505 -34
v 127 -28.70505 -56.20969
v 127 13.66948 -34
v 127 20.44857 -56.20969
v 127 13.66948 -56.20969
v 127 20.44857 -34
v 127 3 -34
v 127 3 -56.20969
v 161.8875 20.39678 -34
v 170.9427 20.38913 -56.20969
v 161.8875 20.39678 -56.20969
v 170.9427 20.38913 -34
v 178.201 20.35941 -56.20969
v 178.201 20.35941 -34
v 153.3598 20.40399 -34
v 153.3598 20.40399 -56.20969
v 144.8321 20.4112 -34
v 144.8321 20.4112 -56.20969
v 135.7769 20.41885 -34
v 135.7769 20.41885 -56.20969
v 127 20.44857 -34
v 127 20.44857 -56.20969
v 178.201 2.70531 -34
v 178.201 -10.61795 -56.20969
v 178.201 2.705335 -56.20969
v 178.201 -3.756521 -34
v 178.201 -10.61805 -34
v 178.201 13.66948 -34
v 178.201 13.72577 -56.20969
v 178.201 -20.85422 -56.20969
v 178.201 -20.85467 -34
v 178.201 20.35941 -34
v 178.201 20.35941 -56.20969
v 178.201 -28.67836 -56.20969
v 178.201 -28.70499 -34
v 170.8366 -28.70503 -34
v 170.9427 -28.69268 -56.20969
v 170.9427 -28.70501 -34
v 161.8875 -28.69637 -56.20969
v 161.8387 -28.70504 -34
v 178.201 -28.70499 -34
v 178.201 -28.67836 -56.20969
v 153.3598 -28.69985 -56.20969
v 153.365 -28.70504 -34
v 144.8321 -28.70332 -56.20969
v 144.8912 -28.70504 -34
v 135.7769 -28.70701 -56.20969
v 135.8933 -28.70505 -34
v 127 -28.70505 -56.20969
v 127 -28.70505 -34
v 153.3598 2.543375 -56.20969
v 144.8321 -10.46614 -56.20969
v 144.8321 2.547023 -56.20969
v 153.3598 -10.46623 -56.20969
v 153.3598 13.72577 -56.20969
v 144.8321 13.7203 -56.20969
v 135.7769 2.550896 -56.20969
v 135.7769 -10.46605 -56.20969
v 135.7769 -20.85197 -56.20969
v 144.8321 -20.85191 -56.20969
v 127 3 -56.20969
v 127 -11 -56.20969
v 127 -20.80128 -56.20969
v 161.8875 -10.46631 -56.20969
v 153.3598 -20.85186 -56.20969
v 161.8875 -20.8518 -56.20969
v 153.3598 -28.69985 -56.20969
v 144.8321 -28.70332 -56.20969
v 135.7769 13.72032 -56.20969
v 135.7769 20.41885 -56.20969
v 127 13.66948 -56.20969
v 127 20.44857 -56.20969
v 135.7769 -28.70701 -56.20969
v 161.8875 -28.69637 -56.20969
v 170.9427 -28.69268 -56.20969
v 170.9427 -20.85174 -56.20969
v 178.201 -28.67836 -56.20969
v 178.201 -20.85422 -56.20969
v 178.201 -10.61795 -56.20969
v 170.9427 -10.4664 -56.20969
v 170.9427 2.53586 -56.20969
v 161.8875 2.53973 -56.20969
v 170.9427 13.72022 -56.20969
v 161.8875 13.72577 -56.20969
v 178.201 2.705335 -56.20969
v 178.201 13.72577 -56.20969
v 170.9427 20.38913 -56.20969
v 161.8875 20.39678 -56.20969
v 153.3598 20.40399 -56.20969
v 144.8321 20.4112 -56.20969
v 178.201 20.35941 -56.20969
v 178.201 23.49267 -34
v 181 23.49267 -21
v 181 23.49267 -34
v 170.9427 23.49267 -34
v 171.0536 23.49267 -21
v 181 -31.50733 -21
v 171.0536 -31.50733 -21
v 162.0387 -31.50733 -21
v 153.5489 -31.50733 -21
v 145.0591 -31.50733 -21
v 127 -28.70505 -56.20969
vt 0.5112143 1.046477
vt 0.1943376 0.6265388
vt 0.5112453 0.6265388
vt 0.1941085 1.046477
vt -0.2784519 0.6265388
vt -0.2806423 1.046477
vt -0.7704573 1.046477
vt -0.6410279 0.6265388
vt -0.7704573 0.6265388
vt 0.8098474 1.046477
vt 0.8096924 0.6265388
vt 1.316085 0.6265388
vt 1.316085 1.046477
vt 1.625067 0.6265388
vt 1.76978 0.6265388
vt 1.76978 1.046477
vt -0.3985713 -0.7704582
vt -0.1947334 -0.2839725
vt -0.3985713 -0.2781734
vt -0.2650042 -0.7704582
vt -0.1918137 -0.1466067
vt -0.09201527 -0.2839725
vt -0.08913684 -0.1466067
vt 0.004719257 -0.2839725
vt 0.007559061 -0.1466067
vt 0.1014535 -0.2839725
vt 0.1042554 -0.1466067
vt 0.2041719 -0.2839725
vt 0.2069323 -0.1466067
vt 0.3989215 -0.2806432
vt 0.3989215 0.1941075
vt 0.2069323 1.054233
vt 0.3989215 0.5112133
vt 0.3989215 0.8098464
vt 0.3989215 1.316084
vt 0.2040014 1.316084
vt 0.1042554 1.054233
vt 0.1012807 1.316084
vt 0.007559061 1.054233
vt 0.004543304 1.316084
vt -0.08913684 1.054233
vt -0.0921936 1.316084
vt -0.1918137 1.054233
vt -0.1949141 1.316084
vt -0.3985713 1.316084
vt -0.3985713 0.8233023
vt -0.3985713 0.1766961
vt -0.3985713 1.769779
vt -0.2650042 1.769779
vt 0.2520294 1.769779
vt 0.1188934 1.769779
vt 0.3989215 1.769779
vt -0.1318681 1.769779
vt -0.00648737 1.769779
vt -0.1352201 0.6265388
vt -0.2650042 1.046477
vt -0.1318681 1.046477
vt -0.2689505 0.6265388
vt -0.3985713 0.6265388
vt -0.3985713 0.8526592
vt -0.428108 0.8526592
vt -0.428108 0.6265388
vt -0.3985713 1.046477
vt -0.009279966 0.6265388
vt -0.00648737 1.046477
vt 0.1166606 0.6265388
vt 0.1188934 1.046477
vt 0.250391 0.6265388
vt 0.2520294 1.046477
vt -0.1318681 1.046477
vt -0.2650416 0.6265388
vt -0.1327212 0.6265388
vt -0.2650042 1.046477
vt -0.3985713 1.046477
vt -0.3985713 0.8526592
vt -0.3985713 0.6265388
vt -0.428108 0.6265388
vt -0.428108 0.8526592
vt -0.00648737 1.046477
vt -0.008108616 0.6265388
vt 0.1188934 1.046477
vt 0.1165037 0.6265388
vt 0.2488244 0.6265388
vt 0.250391 0.6265388
vt 0.2520294 1.046477
vt 0.357584 0.6265388
vt 0.3989215 0.6265388
vt 0.3989215 1.046477
vt -0.3985713 1.316084
vt -0.428108 0.9618602
vt -0.428108 1.316084
vt -0.3985713 0.8233023
vt -0.3985713 1.629184
vt -0.428108 1.629527
vt -0.3985713 1.769779
vt -0.428108 1.769779
vt -0.2689505 1.627811
vt -0.2689505 1.769779
vt -0.1352201 1.627458
vt -0.1352201 1.769779
vt -0.009279966 1.627125
vt -0.009279966 1.769779
vt 0.1166606 1.626792
vt 0.1166606 1.769779
vt 0.250391 1.626439
vt 0.250391 1.769779
vt 0.357584 1.625066
vt 0.357584 1.769779
vt 0.3989215 1.769779
vt 0.3989215 1.625066
vt 0.357584 1.316084
vt 0.3989215 1.316084
vt 0.357584 0.8096914
vt 0.3989215 0.8096914
vt 0.357584 0.5112443
vt 0.3989215 0.5112443
vt 0.357584 0.1943367
vt 0.3989215 0.1943367
vt 0.357584 -0.2784529
vt 0.3989215 -0.2784529
vt 0.357584 -0.6410289
vt 0.3989215 -0.6410289
vt 0.3989215 -0.7704582
vt 0.357584 -0.7704582
vt 0.250391 -0.6410298
vt 0.250391 -0.7704582
vt 0.2488244 -0.6410308
vt 0.2488244 -0.7704582
vt 0.1159403 -0.641031
vt 0.1165037 -0.7704582
vt -0.008108616 -0.7704582
vt -0.009203196 -0.6410313
vt -0.1327212 -0.7704582
vt -0.1343467 -0.6410313
vt -0.2650416 -0.7704582
vt -0.2672312 -0.6410315
vt -0.3985713 -0.7704582
vt -0.3985713 -0.6410317
vt -0.428108 -0.6410322
vt -0.428108 -0.7704582
vt -0.428108 -0.2784724
vt -0.3985713 -0.2759874
vt -0.428108 0.03813767
vt -0.3985713 0.1766961
vt -0.2759864 0.6265388
vt 0.176697 -0.09089923
vt -0.2759864 -0.09089923
vt 0.176697 0.6265388
vt -0.6410308 0.6265388
vt -0.6410308 -0.09089923
vt 1.316085 0.6265388
vt 1.629185 -0.09089923
vt 1.316085 -0.09089923
vt 1.629185 0.6265388
vt 0.8233032 0.6265388
vt 0.8233032 -0.09089923
vt 0.1166606 0.6265388
vt 0.250391 -0.09089923
vt 0.1166606 -0.09089923
vt 0.250391 0.6265388
vt 0.357584 -0.09089923
vt 0.357584 0.6265388
vt -0.009279966 0.6265388
vt -0.009279966 -0.09089923
vt -0.1352201 0.6265388
vt -0.1352201 -0.09089923
vt -0.2689505 0.6265388
vt -0.2689505 -0.09089923
vt -0.3985713 0.6265388
vt -0.3985713 -0.09089923
vt 0.8096924 0.6265388
vt 0.1943426 -0.09089923
vt 0.8096938 -0.09089923
vt 0.5112453 0.6265388
vt 0.1943376 0.6265388
vt 1.316085 0.6265388
vt 1.318685 -0.09089923
vt -0.2784309 -0.09089923
vt -0.2784519 0.6265388
vt 1.625067 0.6265388
vt 1.625067 -0.09089923
vt -0.6397979 -0.09089923
vt -0.6410279 0.6265388
vt 0.2488244 0.6265388
vt 0.250391 -0.09089923
vt 0.250391 0.6265388
vt 0.1166606 -0.09089923
vt 0.1159403 0.6265388
vt 0.357584 0.6265388
vt 0.357584 -0.09089923
vt -0.009279966 -0.09089923
vt -0.009203196 0.6265388
vt -0.1352201 -0.09089923
vt -0.1343467 0.6265388
vt -0.2689505 -0.09089923
vt -0.2672312 0.6265388
vt -0.3985713 -0.09089923
vt -0.3985713 0.6265388
vt -0.009279966 0.8022122
vt -0.1352201 0.2013531
vt -0.1352201 0.8023806
vt -0.009279966 0.201349
vt -0.009279966 1.318684
vt -0.1352201 1.318431
vt -0.2689505 0.8025599
vt -0.2689505 0.2013576
vt -0.2689505 -0.2783284
vt -0.1352201 -0.2783256
vt -0.3985713 0.8233023
vt -0.3985713 0.1766961
vt -0.3985713 -0.2759874
vt 0.1166606 0.2013452
vt -0.009279966 -0.2783232
vt 0.1166606 -0.2783206
vt -0.009279966 -0.6407914
vt -0.1352201 -0.6409519
vt -0.2689505 1.318432
vt -0.2689505 1.627811
vt -0.3985713 1.316084
vt -0.3985713 1.629184
vt -0.2689505 -0.6411223
vt 0.1166606 -0.6406307
vt 0.250391 -0.6404607
vt 0.250391 -0.2783177
vt 0.357584 -0.6397989
vt 0.357584 -0.2784319
vt 0.357584 0.1943417
vt 0.250391 0.2013407
vt 0.250391 0.8018651
vt 0.1166606 0.8020439
vt 0.250391 1.318428
vt 0.1166606 1.318684
vt 0.357584 0.8096929
vt 0.357584 1.318684
vt 0.250391 1.626439
vt 0.1166606 1.626792
vt -0.009279966 1.627125
vt -0.1352201 1.627458
vt 0.357584 1.625066
vt 1.76978 0.6265388
vt 1.76978 1.046477
vt 1.76978 0.6265388
vt 1.76978 0.6265388
vt 1.76978 1.046477
vt 0.3989215 -0.7704582
vt 0.2520294 -0.7704582
vt 0.1188934 -0.7704582
vt -0.00648737 -0.7704582
vt -0.1318681 -0.7704582
vt -0.3985713 -0.6410317
vn -1 0 0
vn -1 0 0
vn -1 0 0
vn -1 0 0
vn -1 0 0
vn -1 0 0
vn -1 0 0
vn -1 0 0
vn -1 0 0
vn -1 0 0
vn -1 0 0
vn -1 0 0
vn -1 0 0
vn -1 0 0
vn -1 0 0
vn -1 0 0
vn 0 0 -1
vn 0 0 -1
vn 0 0 -1
vn 0 0 -1
vn 0 0 -1
vn 0 0 -1
vn 0 0 -1
vn 0 0 -1
vn 0 0 -1
vn 0 0 -1
vn 0 0 -1
vn 0 0 -1
vn 0 0 -1
vn 0 0 -1
vn 0 0 -1
vn 0 0 -1
vn 0 0 -1
vn 0 0 -1
vn 0 0 -1
vn 0 0 -1
vn 0 0 -1
vn 0 0 -1
vn 0 0 -1
vn 0 0 -1
vn 0 0 -1
vn 0 0 -1
vn 0 0 -1
vn 0 0 -1
vn 0 0 -1
vn 0 0 -1
vn 0 0 -1
vn 0 0 -1
vn 0 0 -1
vn 0 0 -1
vn 0 0 -1
vn 0 0 -1
vn 0 0 -1
vn 0 0 -1
vn 0 -1 0
vn 0 -1 0
vn 0 -1 0
vn 0 -1 0
vn 0 -1 0
vn 0 -1 0
vn 0 -1 0
vn 0 -1 0
vn 0 -1 0
vn 0 -1 0
vn 0 -1 0
vn 0 -1 0
vn 0 -1 0
vn 0 -1 0
vn 0 -1 0
vn 0 1 0
vn 0 1 0
vn 0 1 0
vn 0 1 0
vn 0 1 0
vn 0 1 0
vn 0 1 0
vn 0 1 0
vn 0 1 0
vn 0 1 0
vn 0 1 0
vn 0 1 0
vn 0 1 0
vn 0 1 0
vn 0 1 0
vn 0 1 0
vn 0 1 0
vn 0 1 0
vn 0 1 0
vn 0 0 1
vn 0 0 1
vn 0 0 1
vn 0 0 1
vn 0 0 1
vn 0 0 1
vn 0 0 1
vn 0 0 1
vn 0 0 1
vn 0 0 1
vn 0 0 1
vn 0 0 1
vn 0 0 1
vn 0 0 1
vn 0 0 1
vn 0 0 1
vn 0 0 1
vn 0 0 1
vn 0 0 1
vn 0 0 1
vn 0 0 1
vn 0 0 1
vn 0 0 1
vn 0 0 1
vn 0 0 1
vn 0 0 1
vn 0 0 1
vn 0 0 1
vn 0 0 1
vn 0 0 1
vn 0 0 1
vn 0 0 1
vn 0 0 1
vn 0 0 1
vn 0 0 1
vn 0 0 1
vn 0 0 1
vn 0 0 1
vn 0 0 1
vn 0 0 1
vn 0 0 1
vn 0 0 1
vn 0 0 1
vn 0 0 1
vn 0 0 1
vn 0 0 1
vn 0 0 1
vn 0 0 1
vn 0 0 1
vn 0 0 1
vn 0 0 1
vn 0 0 1
vn 0 0 1
vn 0 0 1
vn 0 0 1
vn 0 0 1
vn 1 0 0
vn 1 0 0
vn 1 0 0
vn 1 0 0
vn 1 0 0
vn 1 0 0
vn 1 0 0
vn 1 0 0
vn 1 0 0
vn 1 0 0
vn 1 0 0
vn 1 0 0
vn -0.0008452625 -0.9999996 0
vn -0.002469859 -0.999997 0
vn -0.0008452627 -0.9999996 0
vn -0.002469859 -0.999997 0
vn -0.004094639 -0.9999917 0
vn -0.004094639 -0.9999917 0
vn -0.0008452298 -0.9999996 0
vn -0.0008452297 -0.9999996 0
vn -0.0008450397 -0.9999996 0
vn -0.0008450396 -0.9999996 0
vn -0.002115623 -0.9999977 0
vn -0.002115623 -0.9999977 0
vn -0.00338617 -0.9999943 0
vn -0.00338617 -0.9999943 0
vn -1 0 0
vn -1 0 0
vn -1 0 0
vn -1 0 0
vn -1 0 0
vn -1 0 0
vn -1 0 0
vn -1 0 0
vn -1 0 0
vn -1 0 0
vn -1 0 0
vn -1 0 0
vn -1 0 0
vn -0.0001400896 0.9999999 0.0004925831
vn -0.0009921627 0.9999992 0.0008119014
vn -9.13604E-05 0.9999999 0.0005551226
vn -0.0003575427 0.9999999 0.0004516101
vn -4.797591E-05 1 0.000329952
vn -0.000399257 0.9999998 0.0006846578
vn -0.001974015 0.9999974 0.001199299
vn -0.0003602937 0.9999999 0.0002934729
vn -4.794869E-05 1 0.000173874
vn -0.0003602604 1 0.0001379434
vn -5.05356E-05 1 1.520522E-05
vn -4.127799E-05 1 -2.624162E-05
vn 2.622885E-05 1 -5.509051E-05
vn 0.0001689104 1 -6.789379E-05
vn 0 1 0
vn 0 0 1
vn 0 0 1
vn 0 0 1
vn 0 0 1
vn 0 0 1
vn 0 0 1
vn 0 0 1
vn 0 0 1
vn 0 0 1
vn 0 0 1
vn 0 0 1
vn 0 0 1
vn 0 0 1
vn 0 0 1
vn 0 0 1
vn 0 0 1
vn 0 0 1
vn 0 0 1
vn 0 0 1
vn 0 0 1
vn 0 0 1
vn 0 0 1
vn 0 0 1
vn 0 0 1
vn 0 0 1
vn 0 0 1
vn 0 0 1
vn 0 0 1
vn 0 0 1
vn 0 0 1
vn 0 0 1
vn 0 0 1
vn 0 0 1
vn 0 0 1
vn 0 0 1
vn 0 0 1
vn 0 0 1
vn 0 0 1
vn 0 0 1
vn 0 0 1
vn 0 0 1
vn 0 -1 0
vn 0 -1 0
vn 0 -1 0
vn 0 -1 0
vn 0 -1 0
vn 0 0 -1
vn 0 0 -1
vn 0 0 -1
vn 0 0 -1
vn 0 0 -1
vn 0 0 1
g Cube__5__0
f 3/3/3 2/2/2 1/1/1
f 4/4/4 1/1/1 2/2/2
f 2/2/2 5/5/5 4/4/4
f 6/6/6 4/4/4 5/5/5
f 7/7/7 6/6/6 5/5/5
f 8/8/8 7/7/7 5/5/5
f 9/9/9 7/7/7 8/8/8
f 1/1/1 10/10/10 3/3/3
f 11/11/11 3/3/3 10/10/10
f 11/11/11 10/10/10 12/12/12
f 13/13/13 12/12/12 10/10/10
f 14/14/14 12/12/12 13/13/13
f 15/15/15 14/14/14 13/13/13
f 16/16/16 15/15/15 13/13/13
f 19/19/19 18/18/18 17/17/17
f 20/20/20 17/17/17 18/18/18
f 18/18/18 19/19/19 21/21/21
f 18/18/18 21/21/21 22/22/22
f 23/23/23 22/22/22 21/21/21
f 22/22/22 23/23/23 24/24/24
f 25/25/25 24/24/24 23/23/23
f 24/24/24 25/25/25 26/26/26
f 27/27/27 26/26/26 25/25/25
f 26/26/26 27/27/27 28/28/28
f 29/29/29 28/28/28 27/27/27
f 28/28/28 29/29/29 30/30/30
f 31/31/31 30/30/30 29/29/29
f 32/32/32 31/31/31 29/29/29
f 31/31/31 32/32/32 33/33/33
f 34/34/34 33/33/33 32/32/32
f 34/34/34 32/32/32 35/35/35
f 36/36/36 35/35/35 32/32/32
f 32/32/32 37/37/37 36/36/36
f 38/38/38 36/36/36 37/37/37
f 37/37/37 39/39/39 38/38/38
f 40/40/40 38/38/38 39/39/39
f 39/39/39 41/41/41 40/40/40
f 42/42/42 40/40/40 41/41/41
f 41/41/41 43/43/43 42/42/42
f 44/44/44 42/42/42 43/43/43
f 44/44/44 43/43/43 45/45/45
f 46/46/46 45/45/45 43/43/43
f 43/43/43 21/21/21 46/46/46
f 46/46/46 21/21/21 47/47/47
f 47/47/47 21/21/21 19/19/19
f 45/45/45 48/48/48 44/44/44
f 49/49/49 44/44/44 48/48/48
f 36/36/36 38/38/38 50/50/50
f 51/51/51 50/50/50 38/38/38
f 50/50/50 52/52/52 36/36/36
f 35/35/35 36/36/36 52/52/52
f 49/49/49 53/53/53 44/44/44
f 42/42/42 44/44/44 53/53/53
f 53/53/53 54/54/54 42/42/42
f 54/54/54 51/51/51 40/40/40
f 40/40/40 42/42/42 54/54/54
f 38/38/38 40/40/40 51/51/51
f 57/57/57 56/56/56 55/55/55
f 58/58/58 55/55/55 56/56/56
f 59/59/59 58/58/58 56/56/56
f 60/60/60 59/59/59 56/56/56
f 60/60/60 61/61/61 59/59/59
f 62/62/62 59/59/59 61/61/61
f 63/63/63 60/60/60 56/56/56
f 55/55/55 64/64/64 57/57/57
f 65/65/65 57/57/57 64/64/64
f 64/64/64 66/66/66 65/65/65
f 67/67/67 65/65/65 66/66/66
f 66/66/66 68/68/68 67/67/67
f 69/69/69 67/67/67 68/68/68
f 72/72/72 71/71/71 70/70/70
f 73/73/73 70/70/70 71/71/71
f 74/74/74 73/73/73 71/71/71
f 75/75/75 74/74/74 71/71/71
f 76/76/76 75/75/75 71/71/71
f 76/76/76 77/77/77 75/75/75
f 78/78/78 75/75/75 77/77/77
f 70/70/70 79/79/79 72/72/72
f 80/80/80 72/72/72 79/79/79
f 79/79/79 81/81/81 80/80/80
f 82/82/82 80/80/80 81/81/81
f 83/83/83 82/82/82 81/81/81
f 84/84/84 83/83/83 81/81/81
f 85/85/85 84/84/84 81/81/81
f 86/86/86 84/84/84 85/85/85
f 87/87/87 86/86/86 85/85/85
f 88/88/88 87/87/87 85/85/85
f 91/91/91 90/90/90 89/89/89
f 92/92/92 89/89/89 90/90/90
f 89/89/89 93/93/93 91/91/91
f 94/94/94 91/91/91 93/93/93
f 93/93/93 95/95/95 94/94/94
f 96/96/96 94/94/94 95/95/95
f 93/93/93 97/97/97 95/95/95
f 98/98/98 95/95/95 97/97/97
f 97/97/97 99/99/99 98/98/98
f 100/100/100 98/98/98 99/99/99
f 99/99/99 101/101/101 100/100/100
f 102/102/102 100/100/100 101/101/101
f 101/101/101 103/103/103 102/102/102
f 104/104/104 102/102/102 103/103/103
f 103/103/103 105/105/105 104/104/104
f 106/106/106 104/104/104 105/105/105
f 105/105/105 107/107/107 106/106/106
f 108/108/108 106/106/106 107/107/107
f 108/108/108 107/107/107 109/109/109
f 110/110/110 109/109/109 107/107/107
f 107/107/107 111/111/111 110/110/110
f 112/112/112 110/110/110 111/111/111
f 111/111/111 113/113/113 112/112/112
f 114/114/114 112/112/112 113/113/113
f 113/113/113 115/115/115 114/114/114
f 116/116/116 114/114/114 115/115/115
f 115/115/115 117/117/117 116/116/116
f 118/118/118 116/116/116 117/117/117
f 117/117/117 119/119/119 118/118/118
f 120/120/120 118/118/118 119/119/119
f 119/119/119 121/121/121 120/120/120
f 122/122/122 120/120/120 121/121/121
f 122/122/122 121/121/121 123/123/123
f 124/124/124 123/123/123 121/121/121
f 121/121/121 125/125/125 124/124/124
f 126/126/126 124/124/124 125/125/125
f 125/125/125 127/127/127 126/126/126
f 128/128/128 126/126/126 127/127/127
f 127/127/127 129/129/129 128/128/128
f 130/130/130 128/128/128 129/129/129
f 130/130/130 129/129/129 131/131/131
f 132/132/132 131/131/131 129/129/129
f 131/131/131 132/132/132 133/133/133
f 134/134/134 133/133/133 132/132/132
f 133/133/133 134/134/134 135/135/135
f 136/136/136 135/135/135 134/134/134
f 135/135/135 136/136/136 137/137/137
f 138/138/138 137/137/137 136/136/136
f 138/138/138 139/139/139 137/137/137
f 140/140/140 137/137/137 139/139/139
f 139/139/139 138/138/138 141/141/141
f 142/142/142 141/141/141 138/138/138
f 141/141/141 142/142/142 143/143/143
f 144/144/144 143/143/143 142/142/142
f 147/147/147 146/146/146 145/145/145
f 148/148/148 145/145/145 146/146/146
f 145/145/145 149/149/149 147/147/147
f 150/150/150 147/147/147 149/149/149
f 153/153/153 152/152/152 151/151/151
f 154/154/154 151/151/151 152/152/152
f 151/151/151 155/155/155 153/153/153
f 156/156/156 153/153/153 155/155/155
f 159/159/159 158/158/158 157/157/157
f 160/160/160 157/157/157 158/158/158
f 158/158/158 161/161/161 160/160/160
f 162/162/162 160/160/160 161/161/161
f 157/157/157 163/163/163 159/159/159
f 164/164/164 159/159/159 163/163/163
f 163/163/163 165/165/165 164/164/164
f 166/166/166 164/164/164 165/165/165
f 165/165/165 167/167/167 166/166/166
f 168/168/168 166/166/166 167/167/167
f 167/167/167 169/169/169 168/168/168
f 170/170/170 168/168/168 169/169/169
f 173/173/173 172/172/172 171/171/171
f 171/171/171 172/172/172 174/174/174
f 174/174/174 172/172/172 175/175/175
f 171/171/171 176/176/176 173/173/173
f 177/177/177 173/173/173 176/176/176
f 172/172/172 178/178/178 175/175/175
f 179/179/179 175/175/175 178/178/178
f 176/176/176 180/180/180 177/177/177
f 181/181/181 177/177/177 180/180/180
f 178/178/178 182/182/182 179/179/179
f 183/183/183 179/179/179 182/182/182
f 186/186/186 185/185/185 184/184/184
f 185/185/185 187/187/187 184/184/184
f 187/187/187 188/188/188 184/184/184
f 186/186/186 189/189/189 185/185/185
f 190/190/190 185/185/185 189/189/189
f 187/187/187 191/191/191 188/188/188
f 192/192/192 188/188/188 191/191/191
f 191/191/191 193/193/193 192/192/192
f 194/194/194 192/192/192 193/193/193
f 193/193/193 195/195/195 194/194/194
f 196/196/196 194/194/194 195/195/195
f 195/195/195 197/197/197 196/196/196
f 198/198/198 196/196/196 197/197/197
f 201/201/201 200/200/200 199/199/199
f 202/202/202 199/199/199 200/200/200
f 199/199/199 203/203/203 201/201/201
f 204/204/204 201/201/201 203/203/203
f 201/201/201 205/205/205 200/200/200
f 201/201/201 204/204/204 205/205/205
f 206/206/206 200/200/200 205/205/205
f 206/206/206 207/207/207 200/200/200
f 208/208/208 200/200/200 207/207/207
f 200/200/200 208/208/208 202/202/202
f 205/205/205 209/209/209 206/206/206
f 210/210/210 206/206/206 209/209/209
f 207/207/207 206/206/206 211/211/211
f 210/210/210 211/211/211 206/206/206
f 202/202/202 212/212/212 199/199/199
f 202/202/202 213/213/213 212/212/212
f 213/213/213 202/202/202 208/208/208
f 214/214/214 212/212/212 213/213/213
f 213/213/213 208/208/208 215/215/215
f 213/213/213 215/215/215 214/214/214
f 216/216/216 215/215/215 208/208/208
f 205/205/205 217/217/217 209/209/209
f 217/217/217 205/205/205 204/204/204
f 217/217/217 204/204/204 218/218/218
f 217/217/217 218/218/218 219/219/219
f 219/219/219 209/209/209 217/217/217
f 220/220/220 219/219/219 218/218/218
f 216/216/216 208/208/208 221/221/221
f 207/207/207 221/221/221 208/208/208
f 222/222/222 214/214/214 215/215/215
f 222/222/222 223/223/223 214/214/214
f 224/224/224 214/214/214 223/223/223
f 223/223/223 225/225/225 224/224/224
f 226/226/226 224/224/224 225/225/225
f 226/226/226 227/227/227 224/224/224
f 228/228/228 224/224/224 227/227/227
f 224/224/224 228/228/228 214/214/214
f 228/228/228 227/227/227 229/229/229
f 228/228/228 229/229/229 212/212/212
f 230/230/230 212/212/212 229/229/229
f 229/229/229 231/231/231 230/230/230
f 232/232/232 230/230/230 231/231/231
f 233/233/233 229/229/229 227/227/227
f 229/229/229 233/233/233 231/231/231
f 234/234/234 231/231/231 233/233/233
f 230/230/230 199/199/199 212/212/212
f 230/230/230 232/232/232 199/199/199
f 231/231/231 235/235/235 232/232/232
f 236/236/236 232/232/232 235/235/235
f 236/236/236 237/237/237 232/232/232
f 203/203/203 232/232/232 237/237/237
f 203/203/203 199/199/199 232/232/232
f 203/203/203 237/237/237 204/204/204
f 238/238/238 204/204/204 237/237/237
f 238/238/238 218/218/218 204/204/204
f 235/235/235 231/231/231 239/239/239
f 234/234/234 239/239/239 231/231/231
f 212/212/212 214/214/214 228/228/228
f 242/242/242 241/241/241 240/240/240
f 240/240/240 241/241/241 243/243/243
f 241/241/241 244/244/244 243/243/243
f 246/246/246 28/28/28 245/245/245
f 30/30/30 245/245/245 28/28/28
f 28/28/28 246/246/246 26/26/26
f 247/247/247 26/26/26 246/246/246
f 26/26/26 247/247/247 24/24/24
f 248/248/248 24/24/24 247/247/247
f 24/24/24 248/248/248 22/22/22
f 249/249/249 22/22/22 248/248/248
f 22/22/22 249/249/249 18/18/18
f 20/20/20 18/18/18 249/249/249
f 221/221/221 207/207/207 250/250/250
f 211/211/211 250/250/250 207/207/207
