g Cube
v -0.007500001 -0.009999999 -0.01
v -0.01 -0.009999998 -0.01
v -0.01 -0.009999996 0.01
v -0.007500004 -0.009999997 0.01
v 0.0075 0.01 -0.01
v 0.01 0.009999999 -0.01
v 0.01 0.009999994 0.01
v 0.007500004 0.009999995 0.01
v -0.007499998 0.002500002 -0.01
v -0.007499997 0.01 -0.01
v -0.009999996 0.01 -0.01
v -0.007499999 -0.002499998 -0.01
v -0.007500001 -0.009999999 -0.01
v -0.01 -0.009999998 -0.01
v 0.0075 0.0025 -0.01
v -0.007499998 0.002500002 -0.01
v -0.007499999 -0.002499998 -0.01
v 0.0075 -0.0025 -0.01
v 0.007500004 0.009999995 0.01
v 0.01 0.009999994 0.01
v 0.009999993 -0.01000001 0.01
v 0.007499994 -0.01 0.01
v 0.0075 0.002499996 0.01
v 0.007499998 -0.002500004 0.01
v 0.0075 0.002499996 0.01
v 0.007499998 -0.002500004 0.01
v -0.007500002 -0.002499999 0.01
v -0.0075 0.002500001 0.01
v -0.007499999 -0.002499998 -0.01
v -0.007500001 -0.009999999 -0.01
v -0.007500004 -0.009999997 0.01
v -0.007500002 -0.002499999 0.01
v -0.01 -0.009999996 0.01
v -0.01 -0.009999998 -0.01
v -0.009999996 0.01 -0.01
v -0.009999999 0.01 0.01
v 0.007500004 0.009999995 0.01
v 0.0075 0.002499996 0.01
v 0.0075 0.0025 -0.01
v 0.0075 0.01 -0.01
v 0.0075 -0.0025 -0.01
v -0.007499999 -0.002499998 -0.01
v -0.007500002 -0.002499999 0.01
v 0.007499998 -0.002500004 0.01
v -0.009999999 0.01 0.01
v -0.009999996 0.01 -0.01
v -0.007499997 0.01 -0.01
v -0.007499998 0.009999999 0.01
v 0.0075 -0.01 -0.01
v 0.01 -0.01 -0.01
v 0.01 0.009999999 -0.01
v 0.0075 0.01 -0.01
v 0.0075 0.0025 -0.01
v 0.0075 0.0025 -0.01
v 0.0075 -0.0025 -0.01
v 0.0075 -0.01 -0.01
v 0.0075 0.0025 -0.01
v 0.0075 0.002499996 0.01
v -0.0075 0.002500001 0.01
v -0.007499998 0.002500002 -0.01
v 0.007499994 -0.01 0.01
v 0.009999993 -0.01000001 0.01
v 0.01 -0.01 -0.01
v 0.0075 -0.01 -0.01
v 0.0075 -0.0025 -0.01
v 0.007499998 -0.002500004 0.01
v 0.007499994 -0.01 0.01
v 0.0075 -0.01 -0.01
v 0.009999993 -0.01000001 0.01
v 0.01 0.009999994 0.01
v 0.01 0.009999999 -0.01
v 0.01 -0.01 -0.01
v -0.009999999 0.01 0.01
v -0.007499998 0.009999999 0.01
v -0.0075 0.002500001 0.01
v -0.007500002 -0.002499999 0.01
v -0.007500004 -0.009999997 0.01
v -0.01 -0.009999996 0.01
v -0.007499998 0.002500002 -0.01
v -0.0075 0.002500001 0.01
v -0.007499998 0.009999999 0.01
v -0.007499997 0.01 -0.01
vt 0.9583334 0.3333333
vt 0.9166667 0.3333332
vt 0.9166667 0
vt 0.9583333 0
vt 0.9583334 0
vt 1 5.960463E-08
vt 1 0.3333333
vt 0.9583333 0.3333333
vt 0.1666667 0.7916667
vt 0.1666667 0.6666667
vt 0.2083333 0.6666667
vt 0.1666667 0.8750001
vt 0.1666667 1
vt 0.2083334 1
vt 0.8749999 3.973642E-08
vt 0.8749999 0.25
vt 0.7916666 0.2499999
vt 0.7916666 0
vt 0.8750002 0.3333334
vt 0.9166668 0.3333334
vt 0.9166667 0.6666667
vt 0.8750001 0.6666667
vt 0.8750001 0.4583334
vt 0.8750001 0.5416667
vt 0 0.6666667
vt 0.08333331 0.6666667
vt 0.08333334 0.9166667
vt 2.980232E-08 0.9166667
vt 0.6250001 0.6666667
vt 0.5000001 0.6666667
vt 0.5000001 0.3333334
vt 0.625 0.3333334
vt 0.3333333 1.986821E-08
vt 0.6666666 0
vt 0.6666666 0.3333333
vt 0.3333333 0.3333332
vt 0.8750001 0.6666667
vt 0.7500001 0.6666667
vt 0.7500001 0.3333335
vt 0.8750001 0.3333334
vt 0.5000001 0.6666667
vt 0.2500001 0.6666667
vt 0.2500001 0.3333334
vt 0.5 0.3333334
vt 0.9166666 0
vt 0.9166667 0.3333333
vt 0.8750001 0.3333333
vt 0.8749999 1.986821E-08
vt 0.1666667 1
vt 0.125 1
vt 0.125 0.6666667
vt 0.1666666 0.6666667
vt 0.1666667 0.7916667
vt 0.1666667 0.7916667
vt 0.1666667 0.875
vt 0.1666667 1
vt 1.390775E-07 0.6666667
vt 0 0.3333335
vt 0.2499999 0.3333334
vt 0.2500001 0.6666667
vt 0.08333334 0.6666667
vt 0.125 0.6666667
vt 0.125 1
vt 0.08333334 1
vt 0.7916666 0
vt 0.7916666 0.3333333
vt 0.6666666 0.3333333
vt 0.6666666 1.986821E-08
vt 0.3333333 0.3333334
vt 0 0.3333333
vt 4.967053E-08 0
vt 0.3333333 1.291434E-07
vt 0.9166669 0.3333334
vt 0.9583335 0.3333334
vt 0.9583335 0.4583333
vt 0.9583336 0.5416666
vt 0.9583336 0.6666666
vt 0.9166669 0.6666666
vt 0.7500001 0.3333334
vt 0.7500001 0.6666667
vt 0.6250002 0.6666667
vt 0.6250001 0.3333334
vn -3.576279E-07 -1 0
vn -3.576279E-07 -1 0
vn -3.576279E-07 -1 0
vn -3.576279E-07 -1 0
vn 2.384186E-07 1 2.384183E-07
vn 2.384186E-07 1 2.384183E-07
vn 2.384186E-07 1 2.384183E-07
vn 2.384186E-07 1 2.384183E-07
vn 0 0 -1
vn 0 0 -1
vn 0 0 -1
vn 0 0 -1
vn 0 0 -1
vn 0 0 -1
vn 0 0 -1
vn 0 0 -1
vn 0 0 -1
vn 0 0 -1
vn 1.192093E-07 0 1
vn 1.192093E-07 0 1
vn 1.192093E-07 0 1
vn 1.192093E-07 0 1
vn 1.192093E-07 0 1
vn 1.192093E-07 0 1
vn 0 0 1
vn 0 0 1
vn 0 0 1
vn 0 0 1
vn 1 -2.384186E-07 1.341105E-07
vn 1 -2.384186E-07 1.341105E-07
vn 1 -2.384186E-07 1.341105E-07
vn 1 -2.384186E-07 1.341105E-07
vn -1 2.384186E-07 -1.341105E-07
vn -1 2.384186E-07 -1.341105E-07
vn -1 2.384186E-07 -1.341105E-07
vn -1 2.384186E-07 -1.341105E-07
vn -1 3.178915E-07 0
vn -1 3.178915E-07 0
vn -1 3.178915E-07 0
vn -1 3.178915E-07 0
vn -2.682209E-07 -1 -1.390775E-07
vn -2.682209E-07 -1 -1.390775E-07
vn -2.682209E-07 -1 -1.390775E-07
vn -2.682209E-07 -1 -1.390775E-07
vn 3.576279E-07 1 1.192093E-07
vn 3.576279E-07 1 1.192093E-07
vn 3.576279E-07 1 1.192093E-07
vn 3.576279E-07 1 1.192093E-07
vn 0 0 -1
vn 0 0 -1
vn 0 0 -1
vn 0 0 -1
vn 0 0 -1
vn 0 0 -1
vn 0 0 -1
vn 0 0 -1
vn 2.582868E-07 1 1.688798E-07
vn 2.582868E-07 1 1.688798E-07
vn 2.582868E-07 1 1.688798E-07
vn 2.582868E-07 1 1.688798E-07
vn -2.384186E-07 -1 -2.38419E-07
vn -2.384186E-07 -1 -2.38419E-07
vn -2.384186E-07 -1 -2.38419E-07
vn -2.384186E-07 -1 -2.38419E-07
vn -1 2.384186E-07 -2.086162E-07
vn -1 2.384186E-07 -2.086162E-07
vn -1 2.384186E-07 -2.086162E-07
vn -1 2.384186E-07 -2.086162E-07
vn 1 -2.980232E-07 0
vn 1 -2.980232E-07 0
vn 1 -2.980232E-07 0
vn 1 -2.980232E-07 0
vn -1.192093E-07 0 1
vn -1.192093E-07 0 1
vn -1.192093E-07 0 1
vn -1.192093E-07 0 1
vn -1.192093E-07 0 1
vn -1.192093E-07 0 1
vn 1 -3.178915E-07 0
vn 1 -3.178915E-07 0
vn 1 -3.178915E-07 0
vn 1 -3.178915E-07 0
g Cube_0
f 3/3/3 2/2/2 1/1/1
f 4/4/4 3/3/3 1/1/1
f 7/7/7 6/6/6 5/5/5
f 8/8/8 7/7/7 5/5/5
f 11/11/11 10/10/10 9/9/9
f 9/9/9 12/12/12 11/11/11
f 12/12/12 13/13/13 11/11/11
f 13/13/13 14/14/14 11/11/11
f 17/17/17 16/16/16 15/15/15
f 18/18/18 17/17/17 15/15/15
f 21/21/21 20/20/20 19/19/19
f 19/19/19 22/22/22 21/21/21
f 19/19/19 23/23/23 22/22/22
f 23/23/23 24/24/24 22/22/22
f 27/27/27 26/26/26 25/25/25
f 28/28/28 27/27/27 25/25/25
f 31/31/31 30/30/30 29/29/29
f 32/32/32 31/31/31 29/29/29
f 35/35/35 34/34/34 33/33/33
f 36/36/36 35/35/35 33/33/33
f 39/39/39 38/38/38 37/37/37
f 40/40/40 39/39/39 37/37/37
f 43/43/43 42/42/42 41/41/41
f 44/44/44 43/43/43 41/41/41
f 47/47/47 46/46/46 45/45/45
f 48/48/48 47/47/47 45/45/45
f 51/51/51 50/50/50 49/49/49
f 49/49/49 52/52/52 51/51/51
f 49/49/49 53/53/53 52/52/52
f 56/56/56 55/55/55 54/54/54
f 59/59/59 58/58/58 57/57/57
f 60/60/60 59/59/59 57/57/57
f 63/63/63 62/62/62 61/61/61
f 64/64/64 63/63/63 61/61/61
f 67/67/67 66/66/66 65/65/65
f 68/68/68 67/67/67 65/65/65
f 71/71/71 70/70/70 69/69/69
f 72/72/72 71/71/71 69/69/69
f 75/75/75 74/74/74 73/73/73
f 73/73/73 76/76/76 75/75/75
f 73/73/73 77/77/77 76/76/76
f 73/73/73 78/78/78 77/77/77
f 81/81/81 80/80/80 79/79/79
f 82/82/82 81/81/81 79/79/79
