g Cube
v 5.960464E-10 1.192093E-09 -0.01
v -0.009999999 2.980232E-09 -0.01
v -0.01 -0.009999998 -0.01
v 0 -0.009999999 -0.01
v 1.788139E-09 0.01 -0.01
v -0.009999996 0.01 -0.01
v 0.01 0.009999999 -0.01
v 0.01 -5.960464E-10 -0.01
v 0.01 -0.01 -0.01
v -1.490116E-09 -1.788139E-09 0.01
v -5.364418E-09 -0.01 0.01
v -0.01 -0.009999996 0.01
v -0.01 1.788139E-09 0.01
v 0.009999999 -5.364418E-09 0.01
v 0.009999993 -0.01000001 0.01
v 0.01 0.009999994 0.01
v 2.384186E-09 0.009999997 0.01
v -0.009999999 0.01 0.01
v 0.01 0.009999994 0.01
v 0.01166667 0.009999994 0.01
v 0.01166666 -0.01000001 0.01
v 0.009999993 -0.01000001 0.01
v 0.009999999 -5.364418E-09 0.01
v 0.01 0.01166666 0.01000001
v 0.01166667 0.01166666 0.01000001
v -0.009999999 0.01166667 0.01000001
v 2.384186E-09 0.009999997 0.01
v -0.009999999 0.01 0.01
v -0.01166666 0.01166667 0.01
v -0.01166667 0.01 0.009999992
v -0.01 1.788139E-09 0.01
v -0.01 -0.009999996 0.01
v -0.01166667 -0.009999996 0.009999992
v -0.01 -0.01166666 0.009999993
v -5.364418E-09 -0.01 0.01
v 0.009999992 -0.01166667 0.009999993
v -0.01166667 -0.01166666 0.009999986
v 0.01166666 -0.01166667 0.009999996
v -0.009999999 0.01166667 0.01000001
v -0.01166666 0.01166667 0.01
v -0.01166666 0.01166667 -0.009999995
v -0.009999996 0.01166667 -0.009999988
v 0.01 0.01166666 0.01000001
v 0.01 0.01166667 -0.009999988
v 0.01166667 0.01166666 0.01000001
v 0.01166667 0.01166667 -0.009999985
v 0.009999999 -0.01166667 -0.01000001
v 0.01166667 -0.01166667 -0.01
v 0.01166667 -0.01 -0.009999997
v 0.01 -0.01 -0.01
v 0.01166667 0.009999999 -0.009999997
v 0.01 0.009999999 -0.01
v 0.01 -5.960464E-10 -0.01
v 0 -0.009999999 -0.01
v -0.01 -0.01166666 -0.01000001
v -0.01 -0.009999998 -0.01
v -0.01166667 -0.01166666 -0.01000001
v -0.01166667 -0.009999997 -0.01000001
v -0.01166666 0.01 -0.01000001
v -0.009999999 2.980232E-09 -0.01
v -0.009999996 0.01 -0.01
v -0.009999996 0.01166667 -0.009999988
v 1.788139E-09 0.01 -0.01
v 0.01 0.01166667 -0.009999988
v -0.01166666 0.01166667 -0.009999995
v 0.01166667 0.01166667 -0.009999985
v 0.01166667 0.009999999 -0.009999997
v 0.01166667 -0.01 -0.009999997
v 0.01166666 -0.01000001 0.01
v 0.01166667 0.009999994 0.01
v 0.01166667 0.01166667 -0.009999985
v 0.01166667 0.01166666 0.01000001
v 0.01166666 -0.01166667 0.009999996
v 0.01166667 -0.01166667 -0.01
v 0.01 0.009999994 0.01
v 0.01 0.009999999 -0.01
v 1.788139E-09 0.01 -0.01
v -0.009999996 0.01 -0.01
v -0.009999999 0.01 0.01
v 2.384186E-09 0.009999997 0.01
v -0.009999999 2.980232E-09 -0.01
v -0.01 -0.009999998 -0.01
v -0.01 -0.009999996 0.01
v -0.01 1.788139E-09 0.01
v -0.009999999 0.01 0.01
v -0.009999996 0.01 -0.01
v 0.009999999 -0.01166667 -0.01000001
v -0.01 -0.01166666 -0.01000001
v -0.01 -0.01166666 0.009999993
v 0.009999992 -0.01166667 0.009999993
v -0.01166667 -0.01166666 0.009999986
v -0.01166667 -0.01166666 -0.01000001
v 0.01166667 -0.01166667 -0.01
v 0.01166666 -0.01166667 0.009999996
v -0.01166667 0.01 0.009999992
v -0.01166667 -0.009999996 0.009999992
v -0.01166667 -0.009999997 -0.01000001
v -0.01166666 0.01 -0.01000001
v -0.01166667 -0.01166666 -0.01000001
v -0.01166667 -0.01166666 0.009999986
v -0.01166666 0.01166667 0.01
v -0.01166666 0.01166667 -0.009999995
v -0.01 -0.009999996 0.01
v -0.01 -0.009999998 -0.01
v 0 -0.009999999 -0.01
v 0.01 -0.01 -0.01
v 0.009999993 -0.01000001 0.01
v -5.364418E-09 -0.01 0.01
v 0.009999999 -5.364418E-09 0.01
v 0.009999993 -0.01000001 0.01
v 0.01 -0.01 -0.01
v 0.01 -5.960464E-10 -0.01
v 0.01 0.009999994 0.01
v 0.01 0.009999999 -0.01
vt 0.120438 0.6751824
vt 0.1204379 0.7846714
vt 0.229927 0.7846714
vt 0.229927 0.6751825
vt 0.01094894 0.6751823
vt 0.0109489 0.7846714
vt 0.01094899 0.5656934
vt 0.120438 0.5656934
vt 0.229927 0.5656934
vt 0.6021897 0.6751824
vt 0.7116787 0.6751824
vt 0.7116787 0.5656934
vt 0.6021897 0.5656934
vt 0.6021897 0.7846714
vt 0.7116787 0.7846714
vt 0.4927007 0.7846714
vt 0.4927007 0.6751824
vt 0.4927007 0.5656934
vt 0.02919708 0.5255474
vt 0.02919708 0.5437956
vt 0.2481751 0.5437955
vt 0.2481751 0.5255474
vt 0.1386861 0.5255474
vt 0.01094892 0.5255474
vt 0.0109489 0.5437956
vt 0.01094894 0.3065693
vt 0.0291971 0.4160584
vt 0.02919711 0.3065693
vt 0.01094895 0.2883212
vt 0.02919712 0.2883212
vt 0.1386861 0.3065693
vt 0.2481751 0.3065694
vt 0.2481751 0.2883212
vt 0.2664233 0.3065694
vt 0.2481751 0.4160584
vt 0.2664233 0.5255474
vt 0.2664233 0.2883212
vt 0.2664233 0.5437955
vt 0.7481753 0.3065693
vt 0.7481751 0.2883212
vt 0.5291972 0.2883212
vt 0.5291972 0.3065693
vt 0.7481752 0.5255474
vt 0.5291972 0.5255473
vt 0.7481753 0.5437956
vt 0.5291972 0.5437955
vt 0.2664234 0.02919713
vt 0.2664234 0.01094898
vt 0.2481752 0.01094895
vt 0.2481752 0.02919713
vt 0.02919718 0.01094893
vt 0.02919717 0.02919707
vt 0.1386862 0.0291971
vt 0.2481752 0.1386862
vt 0.2664233 0.2481752
vt 0.2481751 0.2481752
vt 0.2664233 0.2664234
vt 0.2481751 0.2664233
vt 0.02919708 0.2664233
vt 0.1386861 0.2481751
vt 0.02919709 0.2481751
vt 0.01094893 0.2481751
vt 0.02919713 0.1386861
vt 0.01094899 0.02919707
vt 0.0109489 0.2664232
vt 0.01094902 0.0109489
vt 0.7481753 0.2481751
vt 0.7481753 0.02919708
vt 0.5291972 0.02919708
vt 0.5291973 0.2481751
vt 0.7481751 0.2664233
vt 0.5291972 0.2664233
vt 0.5291973 0.0109489
vt 0.7481753 0.0109489
vt 0.7700731 0.2518248
vt 0.9890511 0.2518248
vt 0.9890511 0.3613138
vt 0.9890511 0.4708028
vt 0.7700731 0.4708028
vt 0.7700731 0.3613138
vt 0.9890511 0.1204379
vt 0.9890511 0.229927
vt 0.7700731 0.229927
vt 0.7700731 0.120438
vt 0.7700731 0.01094896
vt 0.9890511 0.0109489
vt 0.5072994 0.2481751
vt 0.5072992 0.02919707
vt 0.2883212 0.02919715
vt 0.2883213 0.2481752
vt 0.2883213 0.01094901
vt 0.5072993 0.0109489
vt 0.5072994 0.2664233
vt 0.2883213 0.2664234
vt 0.2883213 0.3065693
vt 0.2883213 0.5255473
vt 0.5072993 0.5255474
vt 0.5072994 0.3065693
vt 0.5072994 0.5437955
vt 0.2883213 0.5437955
vt 0.2883212 0.2883212
vt 0.5072992 0.2883212
vt 0.9525546 0.7846714
vt 0.9525546 0.5656934
vt 0.8430656 0.5656934
vt 0.7335766 0.5656934
vt 0.7335766 0.7846714
vt 0.8430656 0.7846714
vt 0.4708029 0.6751823
vt 0.4708029 0.5656934
vt 0.2518248 0.5656935
vt 0.2518249 0.6751825
vt 0.4708029 0.7846714
vt 0.2518249 0.7846715
vn -1.192093E-07 0 -1
vn -1.192093E-07 0 -1
vn -1.192093E-07 0 -1
vn -1.192093E-07 0 -1
vn 0 0 -1
vn 0 0 -1
vn 0 0 -1
vn 0 0 -1
vn 0 0 -1
vn 0 0 1
vn 0 0 1
vn 0 0 1
vn 0 0 1
vn 0 0 1
vn 0 0 1
vn 0 0 1
vn 0 0 1
vn 0 0 1
vn -1.430511E-06 0 1
vn -1.430511E-06 0 1
vn -1.430511E-06 0 1
vn -1.430511E-06 0 1
vn -1.430511E-06 0 1
vn -1.072883E-06 -7.152556E-06 1
vn -1.072883E-06 -7.152556E-06 1
vn 0 -7.152559E-06 1
vn 0 -7.152559E-06 1
vn 0 -7.152559E-06 1
vn -5.364419E-06 -6.973749E-06 1
vn -4.649163E-06 0 1
vn -4.649163E-06 0 1
vn 0 -3.933907E-06 1
vn -4.649163E-06 0 1
vn 0 -3.933907E-06 1
vn 0 -3.933907E-06 1
vn 0 -3.933907E-06 1
vn -4.291537E-06 -3.933906E-06 1
vn -1.609326E-06 -3.933909E-06 1
vn 0 1 2.086164E-07
vn 0 1 2.086164E-07
vn 0 1 2.086164E-07
vn 0 1 2.086164E-07
vn 0 1 2.384182E-07
vn 0 1 2.384182E-07
vn 0 1 2.384182E-07
vn 0 1 2.384182E-07
vn 1.609326E-06 3.576278E-06 -1
vn 1.609326E-06 3.576278E-06 -1
vn 1.609326E-06 3.576278E-06 -1
vn 1.609326E-06 3.576278E-06 -1
vn 1.78814E-06 0 -1
vn 1.78814E-06 0 -1
vn 1.78814E-06 0 -1
vn 0 3.576281E-06 -1
vn 0 3.576281E-06 -1
vn 0 3.576281E-06 -1
vn 5.364416E-06 3.576278E-06 -1
vn 5.364419E-06 0 -1
vn 5.364419E-06 0 -1
vn 5.364419E-06 0 -1
vn 0 7.510183E-06 -1
vn 0 7.510183E-06 -1
vn 0 7.510183E-06 -1
vn 0 7.510183E-06 -1
vn 5.364418E-06 7.688993E-06 -1
vn 1.072884E-06 7.510187E-06 -1
vn 1 -2.980232E-07 0
vn 1 -2.980232E-07 0
vn 1 -2.980232E-07 0
vn 1 -2.980232E-07 0
vn 1 0 -2.384186E-07
vn 1 0 -2.384186E-07
vn 1 0 3.278257E-07
vn 1 0 3.278257E-07
vn -2.384186E-07 -1 -1.341105E-07
vn -2.384186E-07 -1 -1.341105E-07
vn -2.384186E-07 -1 -1.341105E-07
vn -2.384186E-07 -1 -1.341105E-07
vn -2.384186E-07 -1 -1.341105E-07
vn -2.384186E-07 -1 -1.341105E-07
vn 1 -2.384186E-07 1.266599E-07
vn 1 -2.384186E-07 1.266599E-07
vn 1 -2.384186E-07 1.266599E-07
vn 1 -2.384186E-07 1.266599E-07
vn 1 -2.384186E-07 1.266599E-07
vn 1 -2.384186E-07 1.266599E-07
vn -2.682209E-07 -1 -1.092752E-07
vn -2.682209E-07 -1 -1.092752E-07
vn -2.682209E-07 -1 -1.092752E-07
vn -2.682209E-07 -1 -1.092752E-07
vn 0 -1 1.192091E-07
vn 0 -1 1.192091E-07
vn 0 -1 -3.129252E-07
vn 0 -1 -3.129252E-07
vn -1 1.78814E-07 -1.490116E-07
vn -1 1.78814E-07 -1.490116E-07
vn -1 1.78814E-07 -1.490116E-07
vn -1 1.78814E-07 -1.490116E-07
vn -1 0 -1.192093E-07
vn -1 0 -1.192093E-07
vn -1 1.430512E-06 -1.490114E-07
vn -1 1.430512E-06 -1.490114E-07
vn 2.831221E-07 1 1.192093E-07
vn 2.831221E-07 1 1.192093E-07
vn 2.831221E-07 1 1.192093E-07
vn 2.831221E-07 1 1.192093E-07
vn 2.831221E-07 1 1.192093E-07
vn 2.831221E-07 1 1.192093E-07
vn -1 2.980232E-07 0
vn -1 2.980232E-07 0
vn -1 2.980232E-07 0
vn -1 2.980232E-07 0
vn -1 2.980232E-07 0
vn -1 2.980232E-07 0
g Cube_0
f 3/3/3 2/2/2 1/1/1
f 4/4/4 3/3/3 1/1/1
f 1/1/1 2/2/2 5/5/5
f 2/2/2 6/6/6 5/5/5
f 1/1/1 5/5/5 7/7/7
f 8/8/8 1/1/1 7/7/7
f 4/4/4 1/1/1 8/8/8
f 9/9/9 4/4/4 8/8/8
f 12/12/12 11/11/11 10/10/10
f 13/13/13 12/12/12 10/10/10
f 10/10/10 11/11/11 14/14/14
f 11/11/11 15/15/15 14/14/14
f 10/10/10 14/14/14 16/16/16
f 17/17/17 10/10/10 16/16/16
f 13/13/13 10/10/10 17/17/17
f 18/18/18 13/13/13 17/17/17
f 21/21/21 20/20/20 19/19/19
f 19/19/19 22/22/22 21/21/21
f 19/19/19 23/23/23 22/22/22
f 19/19/19 20/20/20 24/24/24
f 20/20/20 25/25/25 24/24/24
f 19/19/19 24/24/24 26/26/26
f 26/26/26 27/27/27 19/19/19
f 26/26/26 28/28/28 27/27/27
f 26/26/26 29/29/29 28/28/28
f 29/29/29 30/30/30 28/28/28
f 31/31/31 28/28/28 30/30/30
f 30/30/30 32/32/32 31/31/31
f 30/30/30 33/33/33 32/32/32
f 32/32/32 33/33/33 34/34/34
f 35/35/35 32/32/32 34/34/34
f 36/36/36 22/22/22 35/35/35
f 35/35/35 34/34/34 36/36/36
f 33/33/33 37/37/37 34/34/34
f 36/36/36 38/38/38 22/22/22
f 38/38/38 21/21/21 22/22/22
f 41/41/41 40/40/40 39/39/39
f 42/42/42 41/41/41 39/39/39
f 39/39/39 43/43/43 42/42/42
f 43/43/43 44/44/44 42/42/42
f 43/43/43 45/45/45 44/44/44
f 45/45/45 46/46/46 44/44/44
f 49/49/49 48/48/48 47/47/47
f 50/50/50 49/49/49 47/47/47
f 51/51/51 49/49/49 50/50/50
f 50/50/50 52/52/52 51/51/51
f 50/50/50 53/53/53 52/52/52
f 54/54/54 50/50/50 47/47/47
f 47/47/47 55/55/55 54/54/54
f 55/55/55 56/56/56 54/54/54
f 55/55/55 57/57/57 56/56/56
f 57/57/57 58/58/58 56/56/56
f 56/56/56 58/58/58 59/59/59
f 60/60/60 56/56/56 59/59/59
f 59/59/59 61/61/61 60/60/60
f 61/61/61 59/59/59 62/62/62
f 63/63/63 61/61/61 62/62/62
f 64/64/64 52/52/52 63/63/63
f 63/63/63 62/62/62 64/64/64
f 59/59/59 65/65/65 62/62/62
f 66/66/66 51/51/51 52/52/52
f 64/64/64 66/66/66 52/52/52
f 69/69/69 68/68/68 67/67/67
f 70/70/70 69/69/69 67/67/67
f 67/67/67 71/71/71 70/70/70
f 71/71/71 72/72/72 70/70/70
f 69/69/69 73/73/73 68/68/68
f 73/73/73 74/74/74 68/68/68
f 77/77/77 76/76/76 75/75/75
f 75/75/75 78/78/78 77/77/77
f 75/75/75 79/79/79 78/78/78
f 75/75/75 80/80/80 79/79/79
f 83/83/83 82/82/82 81/81/81
f 81/81/81 84/84/84 83/83/83
f 81/81/81 85/85/85 84/84/84
f 81/81/81 86/86/86 85/85/85
f 89/89/89 88/88/88 87/87/87
f 90/90/90 89/89/89 87/87/87
f 89/89/89 91/91/91 88/88/88
f 91/91/91 92/92/92 88/88/88
f 87/87/87 93/93/93 90/90/90
f 93/93/93 94/94/94 90/90/90
f 97/97/97 96/96/96 95/95/95
f 98/98/98 97/97/97 95/95/95
f 97/97/97 99/99/99 96/96/96
f 99/99/99 100/100/100 96/96/96
f 95/95/95 101/101/101 98/98/98
f 101/101/101 102/102/102 98/98/98
f 105/105/105 104/104/104 103/103/103
f 103/103/103 106/106/106 105/105/105
f 103/103/103 107/107/107 106/106/106
f 103/103/103 108/108/108 107/107/107
f 111/111/111 110/110/110 109/109/109
f 109/109/109 112/112/112 111/111/111
f 109/109/109 113/113/113 112/112/112
f 113/113/113 114/114/114 112/112/112
