g Cube
v -0.0002500001 -0.004499999 0.00975
v -0.0002500001 0.004499999 0.00975
v -0.0002500002 0.004499999 0.0085
v -0.0002500002 -0.004499999 0.0085
v -0.0007500003 -0.01025 0.01
v 0.0007499997 -0.01025 0.01
v 0.0007499997 0.01025 0.01
v -0.0007500003 0.01025 0.01
v -0.0007500003 -0.01025 0.00975
v -0.0007500003 0.01025 0.00975
v 0.0007499997 0.01025 0.00975
v 0.0007499997 -0.01025 0.00975
v -0.0007500003 0.01025 0.01
v -0.0007500003 0.01025 0.00975
v -0.0007500003 -0.01025 0.00975
v -0.0007500003 -0.01025 0.01
v -0.0007500003 -0.01025 0.01
v -0.0007500003 -0.01025 0.00975
v 0.0007499997 -0.01025 0.00975
v 0.0007499997 -0.01025 0.01
v 0.0007499997 -0.01025 0.01
v 0.0007499997 -0.01025 0.00975
v 0.0007499997 0.01025 0.00975
v 0.0007499997 0.01025 0.01
v 0.0007499997 0.01025 0.01
v 0.0007499997 0.01025 0.00975
v -0.0007500003 0.01025 0.00975
v -0.0007500003 0.01025 0.01
v 0.0002499999 -0.004499999 0.00975
v 0.0002499999 0.004499999 0.00975
v 0.0002499998 0.004499999 0.0085
v 0.0002499998 -0.004499999 0.0085
v -0.0004999996 0.01 0.02
v 0.000500005 0.009999994 0.02
v 0.0005000022 0.004999994 0.02
v 0.0004999993 -5.364418E-09 0.02
v 0.0004999965 -0.005000005 0.02
v 0.0004999937 -0.01000001 0.02
v -0.0005000038 -0.009999996 0.02
v -0.0005000038 -0.009999996 0.02
v -0.0005000017 1.788139E-09 0.02
v -0.0004999996 0.01 0.02
v -0.0005000007 0.005000001 0.02
v -0.0005000028 -0.004999997 0.02
v 0.0004999973 -0.005000005 0.0175
v 0.0004999951 -0.01 0.0175
v 0.0004999937 -0.01000001 0.02
v 0.0004999965 -0.005000005 0.02
v 0.000499998 -0.005000004 0.015
v 0.0004999966 -0.01 0.015
v 0.0004999989 -0.005000002 0.0125
v 0.0004999982 -0.01 0.0125
v 0.0004999996 -0.005000001 0.01
v 0.0004999996 -0.01 0.01
v 0.0004999996 -1.788139E-09 0.01
v 0.0004999996 -2.682209E-09 0.0125
v 0.0004999996 0.004999998 0.01
v 0.0005000003 0.004999998 0.0125
v 0.0004999995 -3.576279E-09 0.015
v 0.0005000009 0.004999996 0.015
v 0.0004999994 -4.470348E-09 0.0175
v 0.0005000015 0.004999995 0.0175
v 0.0004999993 -5.364418E-09 0.02
v 0.0005000022 0.004999994 0.02
v 0.0005000023 0.009999996 0.015
v 0.0005000036 0.009999995 0.0175
v 0.000500005 0.009999994 0.02
v 0.0004999996 0.009999998 0.01
v 0.000500001 0.009999997 0.0125
v 0.0004999982 -0.01 0.0125
v 0.0004999996 -0.01 0.01
v -0.0005000026 -0.009999999 0.01
v -0.0005000029 -0.009999999 0.0125
v 0.0004999966 -0.01 0.015
v -0.0005000032 -0.009999997 0.015
v 0.0004999951 -0.01 0.0175
v -0.0005000035 -0.009999997 0.0175
v 0.0004999937 -0.01000001 0.02
v -0.0005000038 -0.009999996 0.02
v -0.0005000001 0.005000001 0.0175
v -0.000499999 0.01 0.0175
v -0.0004999996 0.01 0.02
v -0.0005000007 0.005000001 0.02
v -0.0004999996 0.005000001 0.015
v -0.0004999985 0.01 0.015
v -0.0004999991 0.005000002 0.0125
v -0.0004999978 0.01 0.0125
v -0.0004999986 0.005000002 0.01
v -0.0004999972 0.01 0.01
v -0.0004999999 1.788139E-09 0.01
v -0.0005000004 1.788139E-09 0.0125
v -0.0005000012 -0.004999998 0.01
v -0.0005000017 -0.004999998 0.0125
v -0.0005000008 1.788139E-09 0.015
v -0.000500002 -0.004999998 0.015
v -0.0005000012 1.788139E-09 0.0175
v -0.0005000024 -0.004999998 0.0175
v -0.0005000017 1.788139E-09 0.02
v -0.0005000028 -0.004999997 0.02
v -0.0005000032 -0.009999997 0.015
v -0.0005000035 -0.009999997 0.0175
v -0.0005000038 -0.009999996 0.02
v -0.0005000026 -0.009999999 0.01
v -0.0005000029 -0.009999999 0.0125
v -0.0004999978 0.01 0.0125
v -0.0004999972 0.01 0.01
v 0.0004999996 0.009999998 0.01
v 0.000500001 0.009999997 0.0125
v -0.0004999985 0.01 0.015
v 0.0005000023 0.009999996 0.015
v -0.000499999 0.01 0.0175
v 0.0005000036 0.009999995 0.0175
v -0.0004999996 0.01 0.02
v 0.000500005 0.009999994 0.02
vt 0.51 0.005000018
vt 0.5100011 0.245
vt 0.99 0.245
vt 0.9899989 0.005000003
vt 0.5340117 0.4583065
vt 0.5340117 0.4899146
vt 0.9659883 0.4899146
vt 0.9659883 0.4583066
vt 0.5500108 0.4262439
vt 0.9499892 0.426244
vt 0.9499892 0.3969772
vt 0.5500108 0.3969772
vt 0.9499948 0.4497303
vt 0.9499636 0.4427495
vt 0.5500053 0.4427505
vt 0.5500365 0.4497313
vt 0.6000122 0.4333695
vt 0.6000123 0.4833653
vt 0.8999878 0.4833653
vt 0.8999878 0.4333694
vt 0.600004 0.3186214
vt 0.6000274 0.3238569
vt 0.8999961 0.3238569
vt 0.8999727 0.3186214
vt 0.9074872 0.4846151
vt 0.9074872 0.4321195
vt 0.5925128 0.4321195
vt 0.5925128 0.4846152
vt 0.51 0.005000018
vt 0.5100011 0.245
vt 0.99 0.2449999
vt 0.9899989 0.005000003
vt 0.4499912 0.03502102
vt 0.449991 0.01502178
vt 0.3499955 0.01502183
vt 0.25 0.01502188
vt 0.1500045 0.01502193
vt 0.05000897 0.01502198
vt 0.05000915 0.03502095
vt 0.05000915 0.03502095
vt 0.2500001 0.03502098
vt 0.4499912 0.03502102
vt 0.3499957 0.035021
vt 0.1500047 0.03502097
vt 0.2500354 0.8750178
vt 7.076029E-05 0.8750178
vt 7.070069E-05 1
vt 0.2500353 1
vt 0.2500354 0.7500354
vt 7.081988E-05 0.7500354
vt 0.2500355 0.625053
vt 7.087948E-05 0.625053
vt 0.2500355 0.5000707
vt 7.093907E-05 0.5000708
vt 0.5000001 0.5000707
vt 0.5000001 0.625053
vt 0.7499647 0.5000707
vt 0.7499647 0.625053
vt 0.5000001 0.7500354
vt 0.7499647 0.7500354
vt 0.5 0.8750178
vt 0.7499646 0.8750178
vt 0.4999999 1
vt 0.7499646 1
vt 0.9999292 0.7500354
vt 0.9999292 0.8750178
vt 0.9999292 1
vt 0.9999293 0.5000707
vt 0.9999293 0.625053
vt 0.1325272 0.1500063
vt 0.1325272 0.05001265
vt 0.09252973 0.05001265
vt 0.09252976 0.1500063
vt 0.1325272 0.25
vt 0.09252979 0.25
vt 0.1325272 0.3499936
vt 0.09252982 0.3499936
vt 0.1325272 0.4499873
vt 0.09252985 0.4499873
vt 0.2500353 0.8750178
vt 7.069111E-05 0.8750178
vt 7.069111E-05 1
vt 0.2500353 1
vt 0.2500353 0.7500355
vt 7.069111E-05 0.7500355
vt 0.2500353 0.6250532
vt 7.069111E-05 0.6250532
vt 0.2500353 0.5000709
vt 7.069111E-05 0.5000709
vt 0.5 0.5000708
vt 0.5 0.6250532
vt 0.7499647 0.5000708
vt 0.7499646 0.6250532
vt 0.4999999 0.7500355
vt 0.7499646 0.7500355
vt 0.4999999 0.8750179
vt 0.7499645 0.8750179
vt 0.4999999 1
vt 0.7499645 1
vt 0.9999292 0.7500355
vt 0.9999291 0.8750179
vt 0.9999291 1
vt 0.9999293 0.5000708
vt 0.9999292 0.6250532
vt 0.07202753 0.1400069
vt 0.07202743 0.0300139
vt 0.02803034 0.0300139
vt 0.02803029 0.1400069
vt 0.07202764 0.25
vt 0.02803024 0.25
vt 0.07202774 0.359993
vt 0.0280302 0.359993
vt 0.07202785 0.469986
vt 0.02803015 0.469986
vn 1 0 -1.192093E-07
vn 1 0 -1.192093E-07
vn 1 0 -1.192093E-07
vn 1 0 -1.192093E-07
vn 0 0 -1
vn 0 0 -1
vn 0 0 -1
vn 0 0 -1
vn 0 0 1
vn 0 0 1
vn 0 0 1
vn 0 0 1
vn 1 0 0
vn 1 0 0
vn 1 0 0
vn 1 0 0
vn 0 1 0
vn 0 1 0
vn 0 1 0
vn 0 1 0
vn -1 0 0
vn -1 0 0
vn -1 0 0
vn -1 0 0
vn 0 -1 0
vn 0 -1 0
vn 0 -1 0
vn 0 -1 0
vn 1 0 -1.192093E-07
vn 1 0 -1.192093E-07
vn 1 0 -1.192093E-07
vn 1 0 -1.192093E-07
vn -5.960458E-07 0 1
vn -5.960458E-07 0 1
vn -5.960458E-07 0 1
vn -5.960458E-07 0 1
vn -5.960458E-07 0 1
vn -5.960458E-07 0 1
vn -5.960458E-07 0 1
vn -5.960458E-07 0 1
vn -5.960458E-07 0 1
vn -5.960458E-07 0 1
vn -5.960458E-07 0 1
vn -5.960458E-07 0 1
vn 1 -4.991888E-07 4.54485E-07
vn 1 -4.991888E-07 4.54485E-07
vn 1 -4.991888E-07 4.54485E-07
vn 1 -4.991888E-07 4.54485E-07
vn 1 -2.160668E-07 4.544851E-07
vn 1 -2.160668E-07 4.544851E-07
vn 1 -2.160668E-07 4.544851E-07
vn 1 -2.160668E-07 4.544851E-07
vn 1 0 4.544855E-07
vn 1 0 4.544855E-07
vn 1 0 -1.117588E-07
vn 1 -2.086162E-07 -1.117587E-07
vn 1 0 -1.117588E-07
vn 1 -2.086162E-07 -1.117587E-07
vn 1 -2.086162E-07 -1.117587E-07
vn 1 -2.086162E-07 -1.117587E-07
vn 1 -4.917383E-07 -1.117588E-07
vn 1 -4.917383E-07 -1.117588E-07
vn 1 -4.917383E-07 -1.117588E-07
vn 1 -4.917383E-07 -1.117588E-07
vn 1 -3.501773E-07 -3.948809E-07
vn 1 -3.501773E-07 -3.948809E-07
vn 1 -4.991889E-07 -3.948809E-07
vn 1 0 -3.948809E-07
vn 1 0 -3.948809E-07
vn -5.736948E-06 -1 -1.49012E-07
vn -5.736948E-06 -1 -1.49012E-07
vn -5.736948E-06 -1 -1.49012E-07
vn -5.736948E-06 -1 -1.49012E-07
vn -5.736948E-06 -1 -1.49012E-07
vn -5.736948E-06 -1 -1.49012E-07
vn -5.736948E-06 -1 -1.49012E-07
vn -5.736948E-06 -1 -1.49012E-07
vn -5.736948E-06 -1 -1.49012E-07
vn -5.736948E-06 -1 -1.49012E-07
vn -1 2.160668E-07 -2.235174E-07
vn -1 2.160668E-07 -2.235174E-07
vn -1 2.160668E-07 -2.235174E-07
vn -1 2.160668E-07 -2.235174E-07
vn -1 2.458691E-07 -2.235173E-07
vn -1 2.458691E-07 -2.235173E-07
vn -1 2.458691E-07 -2.235173E-07
vn -1 2.458691E-07 -2.235173E-07
vn -1 2.607703E-07 -2.235174E-07
vn -1 2.607703E-07 -2.235174E-07
vn -1 2.607703E-07 -1.639128E-07
vn -1 2.458692E-07 -1.639128E-07
vn -1 2.607703E-07 -1.639128E-07
vn -1 2.458692E-07 -1.639128E-07
vn -1 2.458692E-07 -1.639128E-07
vn -1 2.458692E-07 -1.639128E-07
vn -1 2.160668E-07 -1.639128E-07
vn -1 2.160668E-07 -1.639128E-07
vn -1 2.160668E-07 -1.639128E-07
vn -1 2.160668E-07 -1.639128E-07
vn -1 2.30968E-07 -1.341105E-07
vn -1 2.30968E-07 -1.341105E-07
vn -1 2.160668E-07 -1.341104E-07
vn -1 2.607703E-07 -1.341105E-07
vn -1 2.607703E-07 -1.341105E-07
vn 4.768368E-06 1 2.235175E-07
vn 4.768368E-06 1 2.235175E-07
vn 4.768368E-06 1 2.235175E-07
vn 4.768368E-06 1 2.235175E-07
vn 4.768368E-06 1 2.235175E-07
vn 4.768368E-06 1 2.235175E-07
vn 4.768368E-06 1 2.235175E-07
vn 4.768368E-06 1 2.235175E-07
vn 4.768368E-06 1 2.235175E-07
vn 4.768368E-06 1 2.235175E-07
g Cube_0
f 3/3/3 2/2/2 1/1/1
f 4/4/4 3/3/3 1/1/1
f 7/7/7 6/6/6 5/5/5
f 8/8/8 7/7/7 5/5/5
f 11/11/11 10/10/10 9/9/9
f 12/12/12 11/11/11 9/9/9
f 15/15/15 14/14/14 13/13/13
f 16/16/16 15/15/15 13/13/13
f 19/19/19 18/18/18 17/17/17
f 20/20/20 19/19/19 17/17/17
f 23/23/23 22/22/22 21/21/21
f 24/24/24 23/23/23 21/21/21
f 27/27/27 26/26/26 25/25/25
f 28/28/28 27/27/27 25/25/25
f 31/31/31 30/30/30 29/29/29
f 32/32/32 31/31/31 29/29/29
f 35/35/35 34/34/34 33/33/33
f 33/33/33 36/36/36 35/35/35
f 33/33/33 37/37/37 36/36/36
f 33/33/33 38/38/38 37/37/37
f 33/33/33 39/39/39 38/38/38
f 42/42/42 41/41/41 40/40/40
f 42/42/42 43/43/43 41/41/41
f 41/41/41 44/44/44 40/40/40
f 47/47/47 46/46/46 45/45/45
f 48/48/48 47/47/47 45/45/45
f 45/45/45 46/46/46 49/49/49
f 46/46/46 50/50/50 49/49/49
f 49/49/49 50/50/50 51/51/51
f 50/50/50 52/52/52 51/51/51
f 51/51/51 52/52/52 53/53/53
f 52/52/52 54/54/54 53/53/53
f 51/51/51 53/53/53 55/55/55
f 56/56/56 51/51/51 55/55/55
f 49/49/49 51/51/51 56/56/56
f 56/56/56 55/55/55 57/57/57
f 58/58/58 56/56/56 57/57/57
f 59/59/59 56/56/56 58/58/58
f 59/59/59 49/49/49 56/56/56
f 45/45/45 49/49/49 59/59/59
f 60/60/60 59/59/59 58/58/58
f 61/61/61 59/59/59 60/60/60
f 62/62/62 61/61/61 60/60/60
f 63/63/63 61/61/61 62/62/62
f 63/63/63 48/48/48 61/61/61
f 64/64/64 63/63/63 62/62/62
f 62/62/62 60/60/60 65/65/65
f 66/66/66 62/62/62 65/65/65
f 64/64/64 62/62/62 66/66/66
f 67/67/67 64/64/64 66/66/66
f 58/58/58 57/57/57 68/68/68
f 69/69/69 58/58/58 68/68/68
f 60/60/60 58/58/58 69/69/69
f 65/65/65 60/60/60 69/69/69
f 61/61/61 45/45/45 59/59/59
f 48/48/48 45/45/45 61/61/61
f 72/72/72 71/71/71 70/70/70
f 70/70/70 73/73/73 72/72/72
f 70/70/70 74/74/74 73/73/73
f 74/74/74 75/75/75 73/73/73
f 74/74/74 76/76/76 75/75/75
f 76/76/76 77/77/77 75/75/75
f 76/76/76 78/78/78 77/77/77
f 78/78/78 79/79/79 77/77/77
f 82/82/82 81/81/81 80/80/80
f 83/83/83 82/82/82 80/80/80
f 80/80/80 81/81/81 84/84/84
f 81/81/81 85/85/85 84/84/84
f 84/84/84 85/85/85 86/86/86
f 85/85/85 87/87/87 86/86/86
f 86/86/86 87/87/87 88/88/88
f 87/87/87 89/89/89 88/88/88
f 86/86/86 88/88/88 90/90/90
f 91/91/91 86/86/86 90/90/90
f 84/84/84 86/86/86 91/91/91
f 91/91/91 90/90/90 92/92/92
f 93/93/93 91/91/91 92/92/92
f 94/94/94 91/91/91 93/93/93
f 94/94/94 84/84/84 91/91/91
f 80/80/80 84/84/84 94/94/94
f 95/95/95 94/94/94 93/93/93
f 96/96/96 94/94/94 95/95/95
f 97/97/97 96/96/96 95/95/95
f 98/98/98 96/96/96 97/97/97
f 98/98/98 83/83/83 96/96/96
f 99/99/99 98/98/98 97/97/97
f 97/97/97 95/95/95 100/100/100
f 101/101/101 97/97/97 100/100/100
f 99/99/99 97/97/97 101/101/101
f 102/102/102 99/99/99 101/101/101
f 93/93/93 92/92/92 103/103/103
f 104/104/104 93/93/93 103/103/103
f 95/95/95 93/93/93 104/104/104
f 100/100/100 95/95/95 104/104/104
f 96/96/96 80/80/80 94/94/94
f 83/83/83 80/80/80 96/96/96
f 107/107/107 106/106/106 105/105/105
f 105/105/105 108/108/108 107/107/107
f 105/105/105 109/109/109 108/108/108
f 109/109/109 110/110/110 108/108/108
f 109/109/109 111/111/111 110/110/110
f 111/111/111 112/112/112 110/110/110
f 111/111/111 113/113/113 112/112/112
f 113/113/113 114/114/114 112/112/112
