g Cube
v 0.009999993 -0.01000001 0.01
v -0.01 -0.009999996 0.01
v -0.009999999 0.01 0.01
v 0.01 0.009999999 0.01
v 0.01 0.009999999 -0.01
v 0.009999993 -0.01000001 -0.01
v 0.009999994 -0.01 -0.00625
v 0.009999994 -0.01 -0.00625
v 0.009999997 -0.002500004 -0.00625
v 0.01 0.009999999 -0.01
v 0.009999997 -0.002500004 -0.00625
v 0.009999997 -0.002500004 0.00625
v 0.01 0.009999999 -0.01
v 0.01 0.009999999 0.01
v 0.009999994 -0.01 0.00625
v 0.009999993 -0.01000001 0.01
v 0.01 0.009999999 0.01
v 0.01 0.009999999 0.01
v 0.009999997 -0.002500004 0.00625
v 0.009999994 -0.01 0.00625
v 0.009999994 -0.01 -0.00625
v 0.009999993 -0.01000001 -0.01
v -0.01 -0.009999998 -0.01
v -0.01 -0.009999997 -0.00625
v -0.002500004 -0.01 -0.00625
v 0.009999993 -0.01000001 0.01
v 0.009999994 -0.01 0.00625
v -0.002500004 -0.01 0.00625
v -0.01 -0.009999997 0.00625
v -0.01 -0.009999996 0.01
v 0.009999997 -0.002500004 0.00625
v -0.002500001 -0.0025 0.00625
v -0.002500004 -0.01 0.00625
v 0.009999994 -0.01 0.00625
v 0.009999994 -0.01 -0.00625
v -0.002500004 -0.01 -0.00625
v -0.002500001 -0.0025 -0.00625
v 0.009999997 -0.002500004 -0.00625
v -0.01 -0.009999997 -0.00625
v -0.01 -0.002499998 -0.00625
v -0.002500001 -0.0025 -0.00625
v -0.002500004 -0.01 -0.00625
v -0.002500004 -0.01 0.00625
v -0.002500001 -0.0025 0.00625
v -0.01 -0.002499998 0.00625
v -0.01 -0.009999997 0.00625
v -0.01 -0.009999997 -0.00625
v -0.01 -0.009999998 -0.01
v -0.01 -0.002499998 -0.01
v -0.01 -0.002499998 -0.00625
v -0.009999999 0.01 -0.01
v -0.009999999 0.01 -0.00625
v -0.01 -0.002499998 -0.00625
v -0.01 -0.002499998 -0.01
v -0.002500001 -0.0025 0.00625
v -0.002499999 0.01 0.00625
v -0.009999999 0.01 0.00625
v -0.01 -0.002499998 0.00625
v -0.01 -0.009999997 0.00625
v -0.009999999 0.01 0.00625
v -0.009999999 0.01 0.01
v -0.01 -0.009999996 0.01
v -0.002500001 -0.0025 -0.00625
v -0.01 -0.002499998 -0.00625
v -0.009999999 0.01 -0.00625
v -0.002499999 0.01 -0.00625
v -0.002500001 -0.0025 -0.00625
v -0.002499999 0.01 -0.00625
v -0.002499999 0.01 0.00625
v -0.002500001 -0.0025 0.00625
v -0.002500001 -0.0025 0.00625
v 0.009999997 -0.002500004 0.00625
v 0.009999997 -0.002500004 -0.00625
v -0.002500001 -0.0025 -0.00625
v -0.009999999 0.01 0.01
v -0.009999999 0.01 0.00625
v -0.002499999 0.01 0.00625
v 0.01 0.009999999 0.01
v -0.009999999 0.01 -0.00625
v -0.009999999 0.01 -0.01
v 0.01 0.009999999 -0.01
v -0.002499999 0.01 -0.00625
v 0.01 0.009999999 0.01
v -0.002499999 0.01 0.00625
v 0.009999993 -0.01000001 -0.01
v 0.01 0.009999999 -0.01
v -0.009999999 0.01 -0.01
v -0.01 -0.009999998 -0.01
vt 0.9924464 0.6993657
vt 0.6946228 0.6993659
vt 0.6946228 0.9971894
vt 0.9924464 0.9971894
vt 0.2606721 0.9756861
vt 0.3317056 0.8687423
vt 0.27905 0.8687423
vt 0.27905 0.8687423
vt 0.27905 0.9740535
vt 0.2606721 0.9756861
vt 0.27905 0.9740535
vt 0.4361907 0.7458792
vt 0.2606721 0.9756861
vt 0.260672 0.6948562
vt 0.278224 0.9740535
vt 0.3308796 0.9740535
vt 0.260672 0.6948562
vt 0.260672 0.6948562
vt 0.4361907 0.7458792
vt 0.278224 0.9740535
vt 0.08942766 0.9709685
vt 0.139739 0.9709685
vt 0.139739 0.7026414
vt 0.08942766 0.7026414
vt 0.08942766 0.8032641
vt 0.1415498 0.687857
vt 0.0863864 0.687857
vt 0.08638641 0.8717351
vt 0.08638642 0.9820619
vt 0.1415498 0.9820619
vt 0.4583333 0.6686044
vt 0.4583333 0.4583334
vt 0.3333333 0.4583334
vt 0.3333333 0.6686044
vt 0.3333332 0.3333334
vt 0.3333333 0.5416666
vt 0.4583332 0.5416666
vt 0.4583332 0.3333334
vt 0.3333333 0.4583334
vt 0.3581557 0.5072852
vt 0.4584498 0.4581473
vt 0.358543 0.4152105
vt 0.3581557 0.5072852
vt 0.4583333 0.4583334
vt 0.358543 0.4152105
vt 0.3333333 0.4583334
vt 0.8386973 0.1322365
vt 0.8964425 0.1322366
vt 0.8964425 0.2552989
vt 0.9636972 0.1322365
vt 0.8379202 0.05093634
vt 0.9373864 0.2776479
vt 0.8840648 0.1506326
vt 0.9441499 0.1943913
vt 0.4583332 0.6686044
vt 0.4583332 0.3333334
vt 0.3333332 0.3333334
vt 0.3333333 0.6686044
vt 0.948384 0.2935566
vt 0.964009 0.2414714
vt 0.8661082 0.2688152
vt 0.8543895 0.3091815
vt 0.4583332 0.3333334
vt 0.3333332 0.3333334
vt 0.3333333 0.6686044
vt 0.4583332 0.6686044
vt 0.2442647 0.6686044
vt 0.2442646 0.3352711
vt 0.001512229 0.3349594
vt 0.001512229 0.6682928
vt 0.2442647 0.6686044
vt 0.2442646 0.3352711
vt 0.001512229 0.3349594
vt 0.001512229 0.6682928
vt 0.3991622 0.9406751
vt 0.399161 0.9426104
vt 0.398 0.94263
vt 0.3991622 0.718919
vt 0.3991936 0.9445454
vt 0.6209184 0.9406751
vt 0.6209184 0.718919
vt 0.3980326 0.9445649
vt 0.3991622 0.718919
vt 0.398 0.94263
vt 0.6946228 0.9971894
vt 0.9924464 0.9971894
vt 0.9924464 0.6993657
vt 0.6946228 0.6993659
vn 0 0 1
vn 0 0 1
vn 0 0 1
vn 0 0 1
vn 1 -2.335528E-07 0
vn 1 -2.335528E-07 0
vn 1 -2.335528E-07 0
vn 1 -2.335528E-07 0
vn 1 -2.335528E-07 0
vn 1 -2.335528E-07 0
vn 1 -2.335528E-07 0
vn 1 -2.335528E-07 0
vn 1 -2.335528E-07 0
vn 1 -2.335528E-07 0
vn 1 -2.335528E-07 0
vn 1 -2.335528E-07 0
vn 1 -2.335528E-07 0
vn 1 -2.335528E-07 0
vn 1 -2.335528E-07 0
vn 1 -2.335528E-07 0
vn -3.725291E-07 -1 5.563101E-07
vn -3.725291E-07 -1 5.563101E-07
vn -3.725291E-07 -1 5.563101E-07
vn -3.725291E-07 -1 5.563101E-07
vn -3.725291E-07 -1 5.563101E-07
vn -4.172326E-07 -1 -4.768373E-07
vn -4.172326E-07 -1 -4.768373E-07
vn -4.172326E-07 -1 -4.768373E-07
vn -4.172326E-07 -1 -4.768373E-07
vn -4.172326E-07 -1 -4.768373E-07
vn 0 0 -1
vn 0 0 -1
vn 0 0 -1
vn 0 0 -1
vn 0 0 1
vn 0 0 1
vn 0 0 1
vn 0 0 1
vn 0 0 1
vn 0 0 1
vn 0 0 1
vn 0 0 1
vn 0 0 -1
vn 0 0 -1
vn 0 0 -1
vn 0 0 -1
vn -1 1.059638E-07 1.589457E-07
vn -1 1.059638E-07 1.589457E-07
vn -1 1.059638E-07 1.589457E-07
vn -1 1.059638E-07 1.589457E-07
vn -1 1.907349E-07 3.178915E-07
vn -1 1.907349E-07 3.178915E-07
vn -1 1.907349E-07 3.178915E-07
vn -1 1.907349E-07 3.178915E-07
vn 0 0 -1
vn 0 0 -1
vn 0 0 -1
vn 0 0 -1
vn -1 1.589457E-07 -1.589457E-07
vn -1 1.589457E-07 -1.589457E-07
vn -1 1.589457E-07 -1.589457E-07
vn -1 1.589457E-07 -1.589457E-07
vn 0 0 1
vn 0 0 1
vn 0 0 1
vn 0 0 1
vn -1 1.144409E-07 0
vn -1 1.144409E-07 0
vn -1 1.144409E-07 0
vn -1 1.144409E-07 0
vn -3.33786E-07 -1 0
vn -3.33786E-07 -1 0
vn -3.33786E-07 -1 0
vn -3.33786E-07 -1 0
vn 0 1 0
vn 0 1 0
vn 0 1 0
vn 0 1 0
vn 0 1 0
vn 0 1 0
vn 0 1 0
vn 0 1 0
vn 0 1 0
vn 0 1 0
vn 0 0 -1
vn 0 0 -1
vn 0 0 -1
vn 0 0 -1
g Cube_0
f 3/3/3 2/2/2 1/1/1
f 4/4/4 3/3/3 1/1/1
f 7/7/7 6/6/6 5/5/5
f 10/10/10 9/9/9 8/8/8
f 13/13/13 12/12/12 11/11/11
f 12/12/12 13/13/13 14/14/14
f 17/17/17 16/16/16 15/15/15
f 20/20/20 19/19/19 18/18/18
f 23/23/23 22/22/22 21/21/21
f 21/21/21 24/24/24 23/23/23
f 21/21/21 25/25/25 24/24/24
f 28/28/28 27/27/27 26/26/26
f 26/26/26 29/29/29 28/28/28
f 26/26/26 30/30/30 29/29/29
f 33/33/33 32/32/32 31/31/31
f 34/34/34 33/33/33 31/31/31
f 37/37/37 36/36/36 35/35/35
f 38/38/38 37/37/37 35/35/35
f 41/41/41 40/40/40 39/39/39
f 42/42/42 41/41/41 39/39/39
f 45/45/45 44/44/44 43/43/43
f 46/46/46 45/45/45 43/43/43
f 49/49/49 48/48/48 47/47/47
f 50/50/50 49/49/49 47/47/47
f 53/53/53 52/52/52 51/51/51
f 54/54/54 53/53/53 51/51/51
f 57/57/57 56/56/56 55/55/55
f 58/58/58 57/57/57 55/55/55
f 61/61/61 60/60/60 59/59/59
f 62/62/62 61/61/61 59/59/59
f 65/65/65 64/64/64 63/63/63
f 66/66/66 65/65/65 63/63/63
f 69/69/69 68/68/68 67/67/67
f 70/70/70 69/69/69 67/67/67
f 73/73/73 72/72/72 71/71/71
f 74/74/74 73/73/73 71/71/71
f 77/77/77 76/76/76 75/75/75
f 77/77/77 75/75/75 78/78/78
f 81/81/81 80/80/80 79/79/79
f 79/79/79 82/82/82 81/81/81
f 82/82/82 83/83/83 81/81/81
f 82/82/82 84/84/84 83/83/83
f 87/87/87 86/86/86 85/85/85
f 88/88/88 87/87/87 85/85/85
