g Cube.001
v -7.847945E-09 -0.01875 0.01
v -2.036492E-09 -2.384186E-09 0.011
v 0.01499999 -0.01125001 0.01
v -0.015 -0.01124999 0.01
v -2.036492E-09 -2.384186E-09 0.011
v -7.847945E-09 -0.01875 0.01
v -0.015 0.01125 0.01
v -2.036492E-09 -2.384186E-09 0.011
v -0.015 -0.01124999 0.01
v 3.774961E-09 0.01875 0.01
v -2.036492E-09 -2.384186E-09 0.011
v -0.015 0.01125 0.01
v 3.774961E-09 0.01875 0.01
v 0.01500001 0.01124999 0.01
v -2.036492E-09 -2.384186E-09 0.011
v 0.01499999 -0.01125001 0.01
v -2.036492E-09 -2.384186E-09 0.011
v 0.01500001 0.01124999 0.01
vt 0.5000003 0.333026
vt 0.5000001 0.6663593
vt 1 0.4663594
vt 3.178914E-07 0.4663592
vt 0.5000001 0.6663593
vt 0.5000003 0.333026
vt 0 0.8663592
vt 0.5000001 0.6663593
vt 3.178914E-07 0.4663592
vt 0.4999998 0.9996926
vt 0.5000001 0.6663593
vt 0 0.8663592
vt 0.4999998 0.9996926
vt 1 0.8663594
vt 0.5000001 0.6663593
vt 1 0.4663594
vt 0.5000001 0.6663593
vt 1 0.8663594
vn 0.02661932 -0.05323879 0.9982269
vn 0.02661932 -0.05323879 0.9982269
vn 0.02661932 -0.05323879 0.9982269
vn -0.0266194 -0.05323878 0.9982269
vn -0.0266194 -0.05323878 0.9982269
vn -0.0266194 -0.05323878 0.9982269
vn -0.06651893 0 0.9977851
vn -0.06651893 0 0.9977851
vn -0.06651893 0 0.9977851
vn -0.02661932 0.05323879 0.9982269
vn -0.02661932 0.05323879 0.9982269
vn -0.02661932 0.05323879 0.9982269
vn 0.02661931 0.05323878 0.9982269
vn 0.02661931 0.05323878 0.9982269
vn 0.02661931 0.05323878 0.9982269
vn 0.06651897 0 0.9977851
vn 0.06651897 0 0.9977851
vn 0.06651897 0 0.9977851
g Cube.001_0
f 3/3/3 2/2/2 1/1/1
f 6/6/6 5/5/5 4/4/4
f 9/9/9 8/8/8 7/7/7
f 12/12/12 11/11/11 10/10/10
f 15/15/15 14/14/14 13/13/13
f 18/18/18 17/17/17 16/16/16
