g Cylinder
v 0.02585786 0.03414216 -2.64217
v 0.02 0.02000002 -2.64217
v 0.02 0.02000001 -2.75
v 0.02585786 0.03414215 -2.75
v 0.04 0.04000002 -2.64217
v 0.02585786 0.03414216 -2.64217
v 0.02585786 0.03414215 -2.75
v 0.04 0.04000001 -2.75
v 0.05414214 0.03414216 -2.64217
v 0.04 0.04000002 -2.64217
v 0.04 0.04000001 -2.75
v 0.05414214 0.03414215 -2.75
v 0.06 0.02000002 -2.64217
v 0.05414214 0.03414216 -2.64217
v 0.05414214 0.03414215 -2.75
v 0.06 0.02000001 -2.75
v 0.05414214 0.005857888 -2.64217
v 0.06 0.02000002 -2.64217
v 0.06 0.02000001 -2.75
v 0.05414214 0.005857875 -2.75
v 0.04 2.119893E-08 -2.64217
v 0.05414214 0.005857888 -2.64217
v 0.05414214 0.005857875 -2.75
v 0.04 8.34465E-09 -2.75
v 0.02585787 0.005857884 -2.64217
v 0.04 2.119893E-08 -2.64217
v 0.04 8.34465E-09 -2.75
v 0.02585787 0.005857871 -2.75
v 0.02 0.02000002 -2.64217
v 0.02585787 0.005857884 -2.64217
v 0.02585787 0.005857871 -2.75
v 0.02 0.02000001 -2.75
v 0.009376693 0.02000004 -2.508664
v 0.01834605 0.04165399 -2.508664
v 0.04 0.02000004 -2.508664
v 0.04 0.05062335 -2.508664
v 0.06165395 0.04165399 -2.508664
v 0.07062331 0.02000004 -2.508664
v 0.06165395 -0.001653911 -2.508664
v 0.04 -0.01062327 -2.508664
v 0.01834605 -0.001653913 -2.508664
v 0.02585786 0.03414215 -2.75
v 0.02 0.02000001 -2.75
v 0.04 0.02 -2.83
v 0.04 0.04000001 -2.75
v 0.02585786 0.03414215 -2.75
v 0.04 0.02 -2.83
v 0.05414214 0.03414215 -2.75
v 0.04 0.04000001 -2.75
v 0.04 0.02 -2.83
v 0.06 0.02000001 -2.75
v 0.05414214 0.03414215 -2.75
v 0.04 0.02 -2.83
v 0.05414214 0.005857875 -2.75
v 0.06 0.02000001 -2.75
v 0.04 0.02 -2.83
v 0.04 8.34465E-09 -2.75
v 0.05414214 0.005857875 -2.75
v 0.04 0.02 -2.83
v 0.02585787 0.005857871 -2.75
v 0.04 8.34465E-09 -2.75
v 0.04 0.02 -2.83
v 0.02 0.02000001 -2.75
v 0.02585787 0.005857871 -2.75
v 0.04 0.02 -2.83
v 0.0226273 0.03737273 -2.625114
v 0.02585786 0.03414216 -2.64217
v 0.04 0.04000002 -2.64217
v 0.04 0.04456873 -2.625114
v 0.01543129 0.02000003 -2.625114
v 0.02 0.02000002 -2.64217
v 0.02585786 0.03414216 -2.64217
v 0.0226273 0.03737273 -2.625114
v 0.04 0.04456873 -2.625114
v 0.04 0.04000002 -2.64217
v 0.05414214 0.03414216 -2.64217
v 0.0573727 0.03737273 -2.625114
v 0.0573727 0.03737273 -2.625114
v 0.05414214 0.03414216 -2.64217
v 0.06 0.02000002 -2.64217
v 0.06456871 0.02000002 -2.625114
v 0.06456871 0.02000002 -2.625114
v 0.06 0.02000002 -2.64217
v 0.05414214 0.005857888 -2.64217
v 0.0573727 0.002627327 -2.625114
v 0.0573727 0.002627327 -2.625114
v 0.05414214 0.005857888 -2.64217
v 0.04 2.119893E-08 -2.64217
v 0.04 -0.004568683 -2.625114
v 0.04 -0.004568683 -2.625114
v 0.04 2.119893E-08 -2.64217
v 0.02585787 0.005857884 -2.64217
v 0.02262731 0.002627322 -2.625114
v 0.02262731 0.002627322 -2.625114
v 0.02585787 0.005857884 -2.64217
v 0.02 0.02000002 -2.64217
v 0.01543129 0.02000003 -2.625114
v 0.0226273 0.03737273 -2.548455
v 0.0226273 0.03737273 -2.625114
v 0.04 0.04456873 -2.625114
v 0.04 0.04456874 -2.548455
v 0.01543129 0.02000003 -2.548455
v 0.01543129 0.02000003 -2.625114
v 0.0226273 0.03737273 -2.625114
v 0.0226273 0.03737273 -2.548455
v 0.04 0.04456874 -2.548455
v 0.04 0.04456873 -2.625114
v 0.0573727 0.03737273 -2.625114
v 0.0573727 0.03737273 -2.548455
v 0.0573727 0.03737273 -2.548455
v 0.0573727 0.03737273 -2.625114
v 0.06456871 0.02000002 -2.625114
v 0.06456871 0.02000003 -2.548455
v 0.06456871 0.02000003 -2.548455
v 0.06456871 0.02000002 -2.625114
v 0.0573727 0.002627327 -2.625114
v 0.0573727 0.002627336 -2.548455
v 0.0573727 0.002627336 -2.548455
v 0.0573727 0.002627327 -2.625114
v 0.04 -0.004568683 -2.625114
v 0.04 -0.004568674 -2.548455
v 0.04 -0.004568674 -2.548455
v 0.04 -0.004568683 -2.625114
v 0.02262731 0.002627322 -2.625114
v 0.02262731 0.002627332 -2.548455
v 0.02262731 0.002627332 -2.548455
v 0.02262731 0.002627322 -2.625114
v 0.01543129 0.02000003 -2.625114
v 0.01543129 0.02000003 -2.548455
v 0.02836743 0.03163261 -2.535883
v 0.0226273 0.03737273 -2.548455
v 0.04 0.04456874 -2.548455
v 0.04 0.03645098 -2.535883
v 0.02354906 0.02000004 -2.535883
v 0.01543129 0.02000003 -2.548455
v 0.0573727 0.03737273 -2.548455
v 0.05163257 0.03163261 -2.535883
v 0.06456871 0.02000003 -2.548455
v 0.05645094 0.02000003 -2.535883
v 0.0573727 0.002627336 -2.548455
v 0.05163257 0.008367462 -2.535883
v 0.04 -0.004568674 -2.548455
v 0.04 0.003549094 -2.535883
v 0.02262731 0.002627332 -2.548455
v 0.02836743 0.008367461 -2.535883
v 0.01834605 0.04165399 -2.508664
v 0.02836743 0.03163261 -2.535883
v 0.04 0.03645098 -2.535883
v 0.04 0.05062335 -2.508664
v 0.009376693 0.02000004 -2.508664
v 0.02354906 0.02000004 -2.535883
v 0.05163257 0.03163261 -2.535883
v 0.06165395 0.04165399 -2.508664
v 0.05645094 0.02000003 -2.535883
v 0.07062331 0.02000004 -2.508664
v 0.05163257 0.008367462 -2.535883
v 0.06165395 -0.001653911 -2.508664
v 0.04 0.003549094 -2.535883
v 0.04 -0.01062327 -2.508664
v 0.02836743 0.008367461 -2.535883
v 0.01834605 -0.001653913 -2.508664
vt 0.497137 0.5028365
vt 0.00286305 0.5028316
vt 0.002819419 0.997137
vt 0.4970918 0.997137
vt 0.0028193 0.997137
vt 0.4970955 0.997137
vt 0.4971362 0.5028393
vt 0.00286305 0.5028287
vt 0.4971368 0.5028365
vt 0.00286305 0.5028287
vt 0.002820969 0.997137
vt 0.4970955 0.997137
vt 0.002863288 0.997137
vt 0.4971368 0.997137
vt 0.4971367 0.5028651
vt 0.00286305 0.502863
vt 0.002822518 0.997137
vt 0.4970955 0.997137
vt 0.4971352 0.5028365
vt 0.00286305 0.5028287
vt 0.002820373 0.997137
vt 0.4970952 0.997137
vt 0.497137 0.5028365
vt 0.00286305 0.5028287
vt 0.4971364 0.5028365
vt 0.00286305 0.5028287
vt 0.002818942 0.997137
vt 0.4970955 0.997137
vt 0.002822638 0.997137
vt 0.4970955 0.997137
vt 0.4971352 0.5028365
vt 0.00286305 0.5028316
vt 0.2058923 0.2451879
vt 0.2170168 0.2599829
vt 0.2293136 0.2391571
vt 0.2353445 0.2625783
vt 0.2501394 0.2514539
vt 0.2527348 0.233126
vt 0.2416104 0.2183312
vt 0.2232827 0.2157358
vt 0.2084878 0.2268602
vt 0 0.2499999
vt 1.251698E-06 0.4999999
vt 1 0.3479368
vt 0 0.2499999
vt 1.251698E-06 0.4999999
vt 1 0.3479368
vt 0 0.2499999
vt 1.251698E-06 0.4999999
vt 1 0.3479368
vt 0 0.2499999
vt 1.251698E-06 0.4999999
vt 1 0.3479368
vt 0 0.2499999
vt 1.251698E-06 0.4999999
vt 1 0.3479368
vt 1.251698E-06 0.4999999
vt 0 0.2499999
vt 1 0.3479368
vt 0 0.2499999
vt 1.251698E-06 0.4999999
vt 1 0.3479368
vt 1.251698E-06 0.4999999
vt 0 0.2499999
vt 1 0.3479368
vt 0.5000001 1.293421E-05
vt 0.546499 0.4999999
vt 0.9535212 0.5
vt 1 2.980232E-08
vt 0.5 -2.980232E-08
vt 0.5464806 0.5
vt 0.9535027 0.5
vt 1 -1.490116E-08
vt 0.5 -2.980232E-08
vt 0.5464848 0.4999913
vt 0.953507 0.5
vt 1 -1.490116E-08
vt 0.5 -2.980232E-08
vt 0.5464895 0.5
vt 0.9535109 0.4999956
vt 1 -1.490116E-08
vt 0.5 -2.980232E-08
vt 0.5464881 0.5
vt 0.9535108 0.4999913
vt 1 -1.490116E-08
vt 0.5 -2.980232E-08
vt 0.5464933 0.5
vt 0.9535153 0.4999913
vt 1 -1.490116E-08
vt 0.5000001 -5.960464E-08
vt 0.5464895 0.4999999
vt 0.9535099 0.5
vt 1 2.980232E-08
vt 0.5 -2.980232E-08
vt 0.5464881 0.5
vt 0.9535108 0.5
vt 1 -1.490116E-08
vt 0.00284636 0.5028231
vt 0.002849698 0.9971227
vt 0.4971364 0.9971212
vt 0.4971303 0.5027213
vt 0.4971356 0.9971212
vt 0.4971306 0.5027213
vt 0.00284636 0.5028231
vt 0.00285089 0.9971207
vt 0.9971363 0.9971192
vt 0.9971306 0.5027213
vt 0.5028464 0.5028231
vt 0.5028504 0.9971227
vt 0.4971368 0.997137
vt 0.4971367 0.5028651
vt 0.00286305 0.502863
vt 0.002863288 0.997137
vt 0.4971358 0.9971212
vt 0.4971306 0.5027213
vt 0.002846897 0.5028231
vt 0.00284934 0.9971207
vt 0.4971364 0.9971212
vt 0.4971306 0.5027293
vt 0.00284636 0.5028231
vt 0.002850354 0.9971207
vt 0.002847016 0.5028231
vt 0.00284934 0.9971187
vt 0.4971364 0.9971212
vt 0.4971302 0.5027213
vt 0.4971357 0.9971212
vt 0.4971306 0.5027213
vt 0.002848029 0.5028271
vt 0.00284934 0.9971187
vt 0.1901084 0.2597723
vt 0.1334796 0.2859632
vt 0.1963668 0.3508253
vt 0.2177631 0.2927981
vt 0.1908259 0.216514
vt 0.1324954 0.1964656
vt 0.2867613 0.351222
vt 0.2602205 0.2952027
vt 0.3505926 0.2870463
vt 0.2918959 0.2662177
vt 0.3504463 0.1963292
vt 0.293951 0.2229095
vt 0.2863627 0.1320134
vt 0.2651035 0.1905709
vt 0.1957236 0.1320134
vt 0.2223047 0.187966
vt 0.2170168 0.2599829
vt 0.2876241 0.09838277
vt 0.1710031 0.09838301
vt 0.2353445 0.2625783
vt 0.2058923 0.2451879
vt 0.3700878 0.1808463
vt 0.08853939 0.1808465
vt 0.2501394 0.2514539
vt 0.08853939 0.2974676
vt 0.2527348 0.233126
vt 0.171003 0.3799312
vt 0.2416104 0.2183312
vt 0.2876241 0.3799313
vt 0.2232827 0.2157358
vt 0.3700877 0.2974676
vt 0.2084878 0.2268602
vn -0.5750937 0.8021741 0.1605743
vn -0.9738754 0.1605974 0.1605466
vn -0.9940251 -2.460907E-07 0.1091529
vn -0.842833 0.5230533 -0.1266802
vn 0.1605834 0.9738754 0.1605604
vn -0.5750937 0.8021741 0.1605743
vn -0.842833 0.5230533 -0.1266802
vn -0.2261186 0.9658274 -0.1266802
vn 0.8021835 0.5750843 0.1605604
vn 0.1605834 0.9738754 0.1605604
vn -0.2261186 0.9658274 -0.1266802
vn 0.523052 0.8428338 -0.1266801
vn 0.9738753 -0.1605842 0.1605604
vn 0.8021835 0.5750843 0.1605604
vn 0.523052 0.8428338 -0.1266801
vn 0.9658273 0.2261191 -0.12668
vn 0.5750839 -0.8021838 0.1605605
vn 0.9738753 -0.1605842 0.1605604
vn 0.9658273 0.2261191 -0.12668
vn 0.842834 -0.5230517 -0.1266797
vn -0.1605837 -0.9738754 0.1605606
vn 0.5750839 -0.8021838 0.1605605
vn 0.842834 -0.5230517 -0.1266797
vn 0.2261206 -0.965827 -0.1266798
vn -0.8021836 -0.5750841 0.1605605
vn -0.1605837 -0.9738754 0.1605606
vn 0.2261206 -0.965827 -0.1266798
vn -0.5230522 -0.8428336 -0.1266799
vn -0.9738754 0.1605974 0.1605466
vn -0.8021836 -0.5750841 0.1605605
vn -0.5230522 -0.8428336 -0.1266799
vn -0.9940251 -2.460907E-07 0.1091529
vn 0 0 1
vn -9.204304E-06 0 1
vn -2.301076E-06 0 1
vn -9.204304E-06 0 1
vn 0 0 1
vn 0 0 1
vn 0 0 1
vn 0 0 1
vn 0 0 1
vn -0.842833 0.5230533 -0.1266802
vn -0.9940251 -2.460907E-07 0.1091529
vn 4.85307E-06 2.582367E-06 -1
vn -0.2261186 0.9658274 -0.1266802
vn -0.842833 0.5230533 -0.1266802
vn 4.85307E-06 2.582367E-06 -1
vn 0.523052 0.8428338 -0.1266801
vn -0.2261186 0.9658274 -0.1266802
vn 4.85307E-06 2.582367E-06 -1
vn 0.9658273 0.2261191 -0.12668
vn 0.523052 0.8428338 -0.1266801
vn 4.85307E-06 2.582367E-06 -1
vn 0.842834 -0.5230517 -0.1266797
vn 0.9658273 0.2261191 -0.12668
vn 4.85307E-06 2.582367E-06 -1
vn 0.2261206 -0.965827 -0.1266798
vn 0.842834 -0.5230517 -0.1266797
vn 4.85307E-06 2.582367E-06 -1
vn -0.5230522 -0.8428336 -0.1266799
vn 0.2261206 -0.965827 -0.1266798
vn 4.85307E-06 2.582367E-06 -1
vn -0.9940251 -2.460907E-07 0.1091529
vn -0.5230522 -0.8428336 -0.1266799
vn 4.85307E-06 2.582367E-06 -1
vn -0.7014217 0.7014211 -0.1265538
vn -0.7414085 0.5278271 -0.4143815
vn -0.1510212 0.8974854 -0.4143821
vn 1.173543E-06 0.9919598 -0.126554
vn -0.9919598 -8.854915E-07 -0.1265541
vn -0.8974846 -0.1510258 -0.4143821
vn -0.7414085 0.5278271 -0.4143815
vn -0.7014217 0.7014211 -0.1265538
vn 1.173543E-06 0.9919598 -0.126554
vn -0.1510212 0.8974854 -0.4143821
vn 0.5278293 0.7414066 -0.414382
vn 0.701422 0.7014209 -0.1265541
vn 0.701422 0.7014209 -0.1265541
vn 0.5278293 0.7414066 -0.414382
vn 0.8974851 0.1510271 -0.4143805
vn 0.9919598 1.344239E-06 -0.1265533
vn 0.9919598 1.344239E-06 -0.1265533
vn 0.8974851 0.1510271 -0.4143805
vn 0.741407 -0.5278293 -0.4143812
vn 0.7014209 -0.7014221 -0.1265533
vn 0.7014209 -0.7014221 -0.1265533
vn 0.741407 -0.5278293 -0.4143812
vn 0.1510212 -0.8974856 -0.4143817
vn -1.514935E-06 -0.9919598 -0.1265539
vn -1.514935E-06 -0.9919598 -0.1265539
vn 0.1510212 -0.8974856 -0.4143817
vn -0.5278252 -0.7414093 -0.4143824
vn -0.7014206 -0.7014222 -0.1265542
vn -0.7014206 -0.7014222 -0.1265542
vn -0.5278252 -0.7414093 -0.4143824
vn -0.8974846 -0.1510258 -0.4143821
vn -0.9919598 -8.854915E-07 -0.1265541
vn -0.6816975 0.6816989 0.2656595
vn -0.7014217 0.7014211 -0.1265538
vn 1.173543E-06 0.9919598 -0.126554
vn 0 0.9640673 0.265658
vn -0.9640663 0 0.2656619
vn -0.9919598 -8.854915E-07 -0.1265541
vn -0.7014217 0.7014211 -0.1265538
vn -0.6816975 0.6816989 0.2656595
vn 0 0.9640673 0.265658
vn 1.173543E-06 0.9919598 -0.126554
vn 0.701422 0.7014209 -0.1265541
vn 0.6816977 0.6816988 0.2656595
vn 0.6816977 0.6816988 0.2656595
vn 0.701422 0.7014209 -0.1265541
vn 0.9919598 1.344239E-06 -0.1265533
vn 0.9640667 4.766588E-07 0.2656602
vn 0.9640667 4.766588E-07 0.2656602
vn 0.9919598 1.344239E-06 -0.1265533
vn 0.7014209 -0.7014221 -0.1265533
vn 0.6817001 -0.6816972 0.2656578
vn 0.6817001 -0.6816972 0.2656578
vn 0.7014209 -0.7014221 -0.1265533
vn -1.514935E-06 -0.9919598 -0.1265539
vn 4.255879E-06 -0.9640672 0.2656585
vn 4.255879E-06 -0.9640672 0.2656585
vn -1.514935E-06 -0.9919598 -0.1265539
vn -0.7014206 -0.7014222 -0.1265542
vn -0.6816958 -0.6817003 0.2656606
vn -0.6816958 -0.6817003 0.2656606
vn -0.7014206 -0.7014222 -0.1265542
vn -0.9919598 -8.854915E-07 -0.1265541
vn -0.9640663 0 0.2656619
vn -0.5940313 0.594034 0.5424485
vn -0.6816975 0.6816989 0.2656595
vn 0 0.9640673 0.265658
vn 0 0.8400903 0.5424466
vn -0.8400856 0 0.5424538
vn -0.9640663 0 0.2656619
vn 0.6816977 0.6816988 0.2656595
vn 0.5940314 0.594034 0.5424485
vn 0.9640667 4.766588E-07 0.2656602
vn 0.8400878 1.808316E-06 0.5424506
vn 0.6817001 -0.6816972 0.2656578
vn 0.5940371 -0.5940311 0.5424453
vn 4.255879E-06 -0.9640672 0.2656585
vn 9.342959E-06 -0.84009 0.542447
vn -0.6816958 -0.6817003 0.2656606
vn -0.5940263 -0.5940368 0.5424511
vn -0.6271845 0.627182 -0.461825
vn -0.6271845 0.627182 -0.461825
vn -1.325595E-06 0.8869707 -0.4618258
vn -1.321845E-06 0.8869707 -0.4618258
vn -0.8869715 8.546406E-07 -0.461824
vn -0.8869715 8.716231E-07 -0.461824
vn 0.6271835 0.6271827 -0.4618255
vn 0.6271835 0.6271827 -0.4618255
vn 0.8869703 -9.44259E-07 -0.4618264
vn 0.8869703 -8.090602E-07 -0.4618264
vn 0.6271818 -0.6271836 -0.4618264
vn 0.6271818 -0.6271836 -0.4618264
vn 6.718762E-07 -0.8869707 -0.4618257
vn 6.609218E-07 -0.8869707 -0.4618256
vn -0.6271836 -0.6271828 -0.461825
vn -0.6271836 -0.6271828 -0.461825
g Cylinder_0
f 3/3/3 2/2/2 1/1/1
f 4/4/4 3/3/3 1/1/1
f 7/7/7 6/6/6 5/5/5
f 8/8/8 7/7/7 5/5/5
f 11/11/11 10/10/10 9/9/9
f 12/12/12 11/11/11 9/9/9
f 15/15/15 14/14/14 13/13/13
f 16/16/16 15/15/15 13/13/13
f 19/19/19 18/18/18 17/17/17
f 20/20/20 19/19/19 17/17/17
f 23/23/23 22/22/22 21/21/21
f 24/24/24 23/23/23 21/21/21
f 27/27/27 26/26/26 25/25/25
f 28/28/28 27/27/27 25/25/25
f 31/31/31 30/30/30 29/29/29
f 32/32/32 31/31/31 29/29/29
f 35/35/35 34/34/34 33/33/33
f 35/35/35 36/36/36 34/34/34
f 35/35/35 37/37/37 36/36/36
f 35/35/35 38/38/38 37/37/37
f 35/35/35 39/39/39 38/38/38
f 35/35/35 40/40/40 39/39/39
f 35/35/35 41/41/41 40/40/40
f 35/35/35 33/33/33 41/41/41
f 44/44/44 43/43/43 42/42/42
f 47/47/47 46/46/46 45/45/45
f 50/50/50 49/49/49 48/48/48
f 53/53/53 52/52/52 51/51/51
f 56/56/56 55/55/55 54/54/54
f 59/59/59 58/58/58 57/57/57
f 62/62/62 61/61/61 60/60/60
f 65/65/65 64/64/64 63/63/63
f 68/68/68 67/67/67 66/66/66
f 69/69/69 68/68/68 66/66/66
f 72/72/72 71/71/71 70/70/70
f 73/73/73 72/72/72 70/70/70
f 76/76/76 75/75/75 74/74/74
f 77/77/77 76/76/76 74/74/74
f 80/80/80 79/79/79 78/78/78
f 81/81/81 80/80/80 78/78/78
f 84/84/84 83/83/83 82/82/82
f 85/85/85 84/84/84 82/82/82
f 88/88/88 87/87/87 86/86/86
f 89/89/89 88/88/88 86/86/86
f 92/92/92 91/91/91 90/90/90
f 93/93/93 92/92/92 90/90/90
f 96/96/96 95/95/95 94/94/94
f 97/97/97 96/96/96 94/94/94
f 100/100/100 99/99/99 98/98/98
f 101/101/101 100/100/100 98/98/98
f 104/104/104 103/103/103 102/102/102
f 105/105/105 104/104/104 102/102/102
f 108/108/108 107/107/107 106/106/106
f 109/109/109 108/108/108 106/106/106
f 112/112/112 111/111/111 110/110/110
f 113/113/113 112/112/112 110/110/110
f 116/116/116 115/115/115 114/114/114
f 117/117/117 116/116/116 114/114/114
f 120/120/120 119/119/119 118/118/118
f 121/121/121 120/120/120 118/118/118
f 124/124/124 123/123/123 122/122/122
f 125/125/125 124/124/124 122/122/122
f 128/128/128 127/127/127 126/126/126
f 129/129/129 128/128/128 126/126/126
f 132/132/132 131/131/131 130/130/130
f 133/133/133 132/132/132 130/130/130
f 130/130/130 131/131/131 134/134/134
f 131/131/131 135/135/135 134/134/134
f 136/136/136 132/132/132 133/133/133
f 137/137/137 136/136/136 133/133/133
f 138/138/138 136/136/136 137/137/137
f 139/139/139 138/138/138 137/137/137
f 140/140/140 138/138/138 139/139/139
f 141/141/141 140/140/140 139/139/139
f 142/142/142 140/140/140 141/141/141
f 143/143/143 142/142/142 141/141/141
f 144/144/144 142/142/142 143/143/143
f 145/145/145 144/144/144 143/143/143
f 135/135/135 144/144/144 145/145/145
f 134/134/134 135/135/135 145/145/145
f 148/148/148 147/147/147 146/146/146
f 149/149/149 148/148/148 146/146/146
f 146/146/146 147/147/147 150/150/150
f 147/147/147 151/151/151 150/150/150
f 152/152/152 148/148/148 149/149/149
f 153/153/153 152/152/152 149/149/149
f 154/154/154 152/152/152 153/153/153
f 155/155/155 154/154/154 153/153/153
f 156/156/156 154/154/154 155/155/155
f 157/157/157 156/156/156 155/155/155
f 158/158/158 156/156/156 157/157/157
f 159/159/159 158/158/158 157/157/157
f 160/160/160 158/158/158 159/159/159
f 161/161/161 160/160/160 159/159/159
f 151/151/151 160/160/160 161/161/161
f 150/150/150 151/151/151 161/161/161
