g Icosphere_(30)
v -114.5 288.5 278.5
v -114 289 277
v -113 287 278
v -114 285.5 280.5
v -113 287 278
v -112 282.5 279
v -114.5 288.5 278.5
v -113 287 278
v -114 285.5 280.5
v -115.5 287 280
v -114.5 288.5 278.5
v -114 285.5 280.5
v -115 289 277
v -114 289 277
v -114.5 288.5 278.5
v -116.5 288.5 278.5
v -117 289 277
v -117 289 275
v -115 289 277
v -113 288 273
v -114 289 277
v -116.5 288.5 278.5
v -114.5 288.5 278.5
v -115.5 287 280
v -113 288 273
v -115 289 277
v -117 289 275
v -115 288 271
v -112 287 276
v -114 289 277
v -113 288 273
v -113 286 274
v -113 288 273
v -115 288 271
v -112 287 276
v -113 288 273
v -113 286 274
v -111 282.5 275
v -112 287 276
v -113 286 274
v -113 287 278
v -114 289 277
v -112 287 276
v -111 282.5 276.5
v -112 287 276
v -111 282.5 275
v -113 287 278
v -112 287 276
v -111 282.5 276.5
v -112 282.5 279
v -113 287 278
v -111 282.5 276.5
v -121 287 278
v -117 289 277
v -116.5 288.5 278.5
v -117 285.5 280
v -116.5 288.5 278.5
v -115.5 287 280
v -121 287 278
v -116.5 288.5 278.5
v -117 285.5 280
v -119.5 282.5 280
v -121 287 278
v -117 285.5 280
v -115 282.5 281
v -115.5 287 280
v -114 285.5 280.5
v -113.5 279.5 280.5
v -114 285.5 280.5
v -112 282.5 279
v -115 282.5 281
v -114 285.5 280.5
v -113.5 279.5 280.5
v -115.5 276.5 280
v -115 282.5 281
v -113.5 279.5 280.5
v -111.5 276.5 279
v -112 282.5 279
v -111 282.5 276.5
v -111 276.5 275.5
v -111 282.5 276.5
v -111 282.5 275
v -111.5 276.5 279
v -111 282.5 276.5
v -111 276.5 275.5
v -114 273.6675 277
v -111.5 276.5 279
v -111 276.5 275.5
v -112 279.5 273.5
v -111 282.5 275
v -113 286 274
v -115 282 272
v -113 286 274
v -115 288 271
v -112 279.5 273.5
v -113 286 274
v -115 282 272
v -115 276.5 274
v -112 279.5 273.5
v -115 282 272
v -119 286 273
v -115 288 271
v -117 289 275
v -122 287 275
v -117 289 275
v -117 289 277
v -119 286 273
v -117 289 275
v -122 287 275
v -120 282.5 275.5
v -119 286 273
v -122 287 275
v -117 273.5 280.5
v -118 273.5 278.5
v -120 276.5 279.5
v -118 279.5 281.5
v -120 276.5 279.5
v -119.5 282.5 280
v -117 273.5 280.5
v -120 276.5 279.5
v -118 279.5 281.5
v -115.5 276.5 280
v -117 273.5 280.5
v -118 279.5 281.5
v -115.6823 272.2338 277
v -118 273.5 278.5
v -117 273.5 280.5
v -114 273.5 279
v -117 273.5 280.5
v -115.5 276.5 280
v -115.6823 272.2338 277
v -117 273.5 280.5
v -114 273.5 279
v -114 273.6675 277
v -115.6823 272.2338 277
v -114 273.5 279
v -116.6712 274.0672 275.4
v -118 273.5 278.5
v -115.6823 272.2338 277
v -113.5 273.5 275
v -115.6823 272.2338 277
v -114 273.6675 277
v -116.6712 274.0672 275.4
v -115.6823 272.2338 277
v -113.5 273.5 275
v -115 276.5 274
v -116.6712 274.0672 275.4
v -113.5 273.5 275
v -118.5 266 271
v -118 273.5 278.5
v -116.6712 274.0672 275.4
v -118.5 269 269.5
v -116.6712 274.0672 275.4
v -115 276.5 274
v -118.5 266 271
v -116.6712 274.0672 275.4
v -118.5 269 269.5
v -120 282.5 275.5
v -118.5 266 271
v -118.5 269 269.5
v -120 276.5 279.5
v -118 273.5 278.5
v -118.5 266 271
v -120.5 282.5 278
v -118.5 266 271
v -120 282.5 275.5
v -120 276.5 279.5
v -118.5 266 271
v -120.5 282.5 278
v -119.5 282.5 280
v -120 276.5 279.5
v -120.5 282.5 278
v -115 282.5 281
v -115.5 276.5 280
v -118 279.5 281.5
v -117 285.5 280
v -118 279.5 281.5
v -119.5 282.5 280
v -115 282.5 281
v -118 279.5 281.5
v -117 285.5 280
v -115.5 287 280
v -115 282.5 281
v -117 285.5 280
v -111.5 276.5 279
v -114 273.6675 277
v -114 273.5 279
v -113.5 279.5 280.5
v -114 273.5 279
v -115.5 276.5 280
v -111.5 276.5 279
v -114 273.5 279
v -113.5 279.5 280.5
v -112 282.5 279
v -111.5 276.5 279
v -113.5 279.5 280.5
v -112 279.5 273.5
v -115 276.5 274
v -113.5 273.5 275
v -111 276.5 275.5
v -113.5 273.5 275
v -114 273.6675 277
v -112 279.5 273.5
v -113.5 273.5 275
v -111 276.5 275.5
v -111 282.5 275
v -112 279.5 273.5
v -111 276.5 275.5
v -119 286 273
v -120 282.5 275.5
v -118.5 269 269.5
v -115 282 272
v -118.5 269 269.5
v -115 276.5 274
v -119 286 273
v -118.5 269 269.5
v -115 282 272
v -115 288 271
v -119 286 273
v -115 282 272
v -121 287 278
v -119.5 282.5 280
v -120.5 282.5 278
v -122 287 275
v -120.5 282.5 278
v -120 282.5 275.5
v -121 287 278
v -120.5 282.5 278
v -122 287 275
v -117 289 277
v -121 287 278
v -122 287 275
vt -1.977709 3.2
vt -3.364679 0
vt -5.177709 1.977709
vt -5.177709 1.977709
vt -1.977709 3.2
vt -3.364679 0
vt 1.977709 5.177709
vt 5.177709 3.2
vt 3.2 1.977709
vt 0 3.364679
vt 1.977709 5.177709
vt 3.2 1.977709
vt 0 0
vt -3.364679 0
vt -1.977709 3.2
vt 1.977709 3.2
vt 3.364679 0
vt 1.977709 -3.2
vt 0 0
vt -1.977709 -3.2
vt -3.364679 0
vt 1.977709 3.2
vt -1.977709 3.2
vt 0 5.444165
vt -1.977709 -3.2
vt 0 0
vt 1.977709 -3.2
vt 0 -5.444165
vt -5.177709 -1.977709
vt -3.364679 0
vt -1.977709 -3.2
vt -3.2 1.977709
vt -1.977709 5.177709
vt 0 3.364679
vt -5.177709 3.2
vt -1.977709 5.177709
vt -3.2 1.977709
vt 3.364679 0
vt 1.977709 3.2
vt 5.177709 1.977709
vt -1.977709 3.2
vt 0 5.444165
vt 1.977709 3.2
vt 0 0
vt 1.977709 3.2
vt 3.364679 0
vt -1.977709 3.2
vt 1.977709 3.2
vt 0 0
vt -3.364679 0
vt -1.977709 3.2
vt 0 0
vt 5.177709 1.977709
vt 3.364679 0
vt 1.977709 3.2
vt -3.2 1.977709
vt -1.977709 5.177709
vt 0 3.364679
vt -5.177709 3.2
vt -1.977709 5.177709
vt -3.2 1.977709
vt 3.364679 0
vt 1.977709 3.2
vt 5.177709 1.977709
vt 0 0
vt 0 3.364679
vt 3.2 1.977709
vt 3.2 -1.977709
vt 3.2 1.977709
vt 5.444165 0
vt 0 0
vt 3.2 1.977709
vt 3.2 -1.977709
vt 0 -3.364679
vt 0 0
vt 3.2 -1.977709
vt -1.977709 -3.2
vt -3.364679 0
vt 0 0
vt 1.977709 -3.2
vt 0 0
vt 3.364679 0
vt -1.977709 -3.2
vt 0 0
vt 1.977709 -3.2
vt 0 -5.444165
vt -1.977709 -3.2
vt 1.977709 -3.2
vt -3.2 -1.977709
vt -5.444165 0
vt -3.2 1.977709
vt 0 0
vt -3.2 1.977709
vt 0 3.364679
vt -3.2 -1.977709
vt -3.2 1.977709
vt 0 0
vt 0 -3.364679
vt -3.2 -1.977709
vt 0 0
vt 3.2 1.977709
vt 0 3.364679
vt 1.977709 5.177709
vt 5.177709 -1.977709
vt 1.977709 -3.2
vt 3.364679 0
vt 3.2 1.977709
vt 1.977709 5.177709
vt 5.177709 3.2
vt -3.364679 0
vt -5.177709 1.977709
vt -1.977709 3.2
vt -1.977709 3.2
vt -3.364679 0
vt -5.177709 1.977709
vt 5.177709 -1.977709
vt 1.977709 -3.2
vt 3.364679 0
vt -1.977709 -5.177709
vt -5.177709 -3.2
vt -3.2 -1.977709
vt 0 -3.364679
vt -1.977709 -5.177709
vt -3.2 -1.977709
vt 0 0
vt -3.364679 0
vt -1.977709 3.2
vt 1.977709 3.2
vt -1.977709 3.2
vt 0 5.444165
vt 0 0
vt -1.977709 3.2
vt 1.977709 3.2
vt 3.364679 0
vt 0 0
vt 1.977709 3.2
vt -1.977709 -3.2
vt -3.364679 0
vt 0 0
vt 1.977709 -3.2
vt 0 0
vt 3.364679 0
vt -1.977709 -3.2
vt 0 0
vt 1.977709 -3.2
vt 0 -5.444165
vt -1.977709 -3.2
vt 1.977709 -3.2
vt -5.177709 -1.977709
vt -3.364679 0
vt -1.977709 -3.2
vt 3.2 -1.977709
vt 1.977709 -5.177709
vt 0 -3.364679
vt 5.177709 -3.2
vt 1.977709 -5.177709
vt 3.2 -1.977709
vt -3.364679 0
vt -1.977709 -3.2
vt -5.177709 -1.977709
vt 1.977709 -3.2
vt 0 -5.444165
vt -1.977709 -3.2
vt 0 0
vt -1.977709 -3.2
vt -3.364679 0
vt 1.977709 -3.2
vt -1.977709 -3.2
vt 0 0
vt 3.364679 0
vt 1.977709 -3.2
vt 0 0
vt 0 0
vt 0 -3.364679
vt -3.2 -1.977709
vt -3.2 1.977709
vt -3.2 -1.977709
vt -5.444165 0
vt 0 0
vt -3.2 -1.977709
vt -3.2 1.977709
vt 0 3.364679
vt 0 0
vt -3.2 1.977709
vt 5.177709 1.977709
vt 3.364679 0
vt 1.977709 3.2
vt 3.2 -1.977709
vt 1.977709 -5.177709
vt 0 -3.364679
vt 5.177709 -3.2
vt 1.977709 -5.177709
vt 3.2 -1.977709
vt -3.364679 0
vt -1.977709 -3.2
vt -5.177709 -1.977709
vt -3.2 -1.977709
vt 0 -3.364679
vt -1.977709 -5.177709
vt 5.177709 -1.977709
vt 1.977709 -3.2
vt 3.364679 0
vt -3.2 -1.977709
vt -1.977709 -5.177709
vt -5.177709 -3.2
vt 3.364679 0
vt 5.177709 -1.977709
vt 1.977709 -3.2
vt 3.2 1.977709
vt 5.444165 0
vt 3.2 -1.977709
vt 0 0
vt 3.2 -1.977709
vt 0 -3.364679
vt 3.2 1.977709
vt 3.2 -1.977709
vt 0 0
vt 0 3.364679
vt 3.2 1.977709
vt 0 0
vt 1.977709 3.2
vt 3.364679 0
vt 0 0
vt -1.977709 3.2
vt 0 0
vt -3.364679 0
vt 1.977709 3.2
vt 0 0
vt -1.977709 3.2
vt 0 5.444165
vt 1.977709 3.2
vt -1.977709 3.2
vn 0.1371019 0.9871354 0.08226074
vn 0.1371019 0.9871354 0.08226074
vn 0.1371019 0.9871354 0.08226074
vn 0.290907 0.9398537 0.1790197
vn 0.290907 0.9398537 0.1790197
vn 0.290907 0.9398537 0.1790197
vn 0.1508509 0.980531 0.1257091
vn 0.1508509 0.980531 0.1257091
vn 0.1508509 0.980531 0.1257091
vn 0.05981487 0.9869452 0.1495372
vn 0.05981487 0.9869452 0.1495372
vn 0.05981487 0.9869452 0.1495372
vn 0 0.9993148 0.03701117
vn 0 0.9993148 0.03701117
vn 0 0.9993148 0.03701117
vn 0 0.9993148 0.03701117
vn 0 0.9993148 0.03701117
vn 0 1 0
vn 0 0.9996144 -0.02776706
vn 0 0.9996144 -0.02776706
vn 0 0.9996144 -0.02776706
vn 0 0.9938837 0.1104315
vn 0 0.9938837 0.1104315
vn 0 0.9938837 0.1104315
vn 0.01851217 0.9996572 -0.01851217
vn 0.01851217 0.9996572 -0.01851217
vn 0.01851217 0.9996572 -0.01851217
vn 0.01851217 0.9996572 -0.01851217
vn 0.1104312 0.9938838 0
vn 0.1104312 0.9938838 0
vn 0.1104312 0.9938838 0
vn 0.2119996 -0.9539981 -0.2119996
vn 0.2119996 -0.9539981 -0.2119996
vn 0.2119996 -0.9539981 -0.2119996
vn 0.4767318 -0.8581161 -0.1906925
vn 0.4767318 -0.8581161 -0.1906925
vn 0.4767318 -0.8581161 -0.1906925
vn 0.2788199 0.9410179 -0.1916891
vn 0.2788199 0.9410179 -0.1916891
vn 0.2788199 0.9410179 -0.1916891
vn 0.1461563 0.9865586 0.07307817
vn 0.1461563 0.9865586 0.07307817
vn 0.1461563 0.9865586 0.07307817
vn 0.4472135 0.8944272 0
vn 0.4472135 0.8944272 0
vn 0.4472135 0.8944272 0
vn 0.3651484 0.9128709 0.1825742
vn 0.3651484 0.9128709 0.1825742
vn 0.3651484 0.9128709 0.1825742
vn 0.3333334 0.9333333 0.1333334
vn 0.3333334 0.9333333 0.1333334
vn 0.3333334 0.9333333 0.1333334
vn -0.04264026 0.9977794 0.05116773
vn -0.04264026 0.9977794 0.05116773
vn -0.04264026 0.9977794 0.05116773
vn -0.1086072 0.9774656 0.1810121
vn -0.1086072 0.9774656 0.1810121
vn -0.1086072 0.9774656 0.1810121
vn -0.05824214 0.9784656 0.1980227
vn -0.05824214 0.9784656 0.1980227
vn -0.05824214 0.9784656 0.1980227
vn -0.124863 0.9364719 0.3277648
vn -0.124863 0.9364719 0.3277648
vn -0.124863 0.9364719 0.3277648
vn -0.05872203 0.8808303 0.4697762
vn -0.05872203 0.8808303 0.4697762
vn -0.05872203 0.8808303 0.4697762
vn 0.5848442 0.4386331 0.6823182
vn 0.5848442 0.4386331 0.6823182
vn 0.5848442 0.4386331 0.6823182
vn 0.357771 0.2683281 0.8944272
vn 0.357771 0.2683281 0.8944272
vn 0.357771 0.2683281 0.8944272
vn 0 -0.8320503 0.5547002
vn 0 -0.8320503 0.5547002
vn 0 -0.8320503 0.5547002
vn 0.7619393 0.5714544 0.3047758
vn 0.7619393 0.5714544 0.3047758
vn 0.7619393 0.5714544 0.3047758
vn 1 0 0
vn 1 0 0
vn 1 0 0
vn 0.9684002 -0.2075143 0.1383429
vn 0.9684002 -0.2075143 0.1383429
vn 0.9684002 -0.2075143 0.1383429
vn 0.1122484 -0.9935508 0.01603549
vn 0.1122484 -0.9935508 0.01603549
vn 0.1122484 -0.9935508 0.01603549
vn 0.3756551 0.8196122 -0.4325727
vn 0.3756551 0.8196122 -0.4325727
vn 0.3756551 0.8196122 -0.4325727
vn 0.5946353 -0.6689647 -0.4459765
vn 0.5946353 -0.6689647 -0.4459765
vn 0.5946353 -0.6689647 -0.4459765
vn 0.3259346 0.8000223 -0.5037172
vn 0.3259346 0.8000223 -0.5037172
vn 0.3259346 0.8000223 -0.5037172
vn 0.05746316 -0.9547714 -0.2917354
vn 0.05746316 -0.9547714 -0.2917354
vn 0.05746316 -0.9547714 -0.2917354
vn -0.09194849 0.9930431 -0.07355879
vn -0.09194849 0.9930431 -0.07355879
vn -0.09194849 0.9930431 -0.07355879
vn -0.04440061 0.9990138 0
vn -0.04440061 0.9990138 0
vn -0.04440061 0.9990138 0
vn -0.04407329 0.991649 -0.1212015
vn -0.04407329 0.991649 -0.1212015
vn -0.04407329 0.991649 -0.1212015
vn -0.1837569 -0.957472 -0.2224425
vn -0.1837569 -0.957472 -0.2224425
vn -0.1837569 -0.957472 -0.2224425
vn -0.1318761 -0.9890707 0.06593806
vn -0.1318761 -0.9890707 0.06593806
vn -0.1318761 -0.9890707 0.06593806
vn -0.7071068 0 0.7071068
vn -0.7071068 0 0.7071068
vn -0.7071068 0 0.7071068
vn -0.2248595 -0.899438 0.3747659
vn -0.2248595 -0.899438 0.3747659
vn -0.2248595 -0.899438 0.3747659
vn 0.3713907 -0.557086 0.7427813
vn 0.3713907 -0.557086 0.7427813
vn 0.3713907 -0.557086 0.7427813
vn -0.04580353 -0.9986879 0.02290176
vn -0.04580353 -0.9986879 0.02290176
vn -0.04580353 -0.9986879 0.02290176
vn 0.3713907 -0.557086 0.7427813
vn 0.3713907 -0.557086 0.7427813
vn 0.3713907 -0.557086 0.7427813
vn 0.02472206 -0.9984708 0.04944413
vn 0.02472206 -0.9984708 0.04944413
vn 0.02472206 -0.9984708 0.04944413
vn 0.09426735 -0.9955038 -0.009263956
vn 0.09426735 -0.9955038 -0.009263956
vn 0.09426735 -0.9955038 -0.009263956
vn -0.1014846 -0.9927967 -0.063684
vn -0.1014846 -0.9927967 -0.063684
vn -0.1014846 -0.9927967 -0.063684
vn 0.09422056 -0.9950104 0.03281451
vn 0.09422056 -0.9950104 0.03281451
vn 0.09422056 -0.9950104 0.03281451
vn -0.03312777 -0.9938077 -0.1060595
vn -0.03312777 -0.9938077 -0.1060595
vn -0.03312777 -0.9938077 -0.1060595
vn -0.0503855 -0.967707 -0.2469908
vn -0.0503855 -0.967707 -0.2469908
vn -0.0503855 -0.967707 -0.2469908
vn 0.2554514 -0.9626305 0.08992881
vn 0.2554514 -0.9626305 0.08992881
vn 0.2554514 -0.9626305 0.08992881
vn 0.1883135 -0.9814748 0.03528845
vn 0.1883135 -0.9814748 0.03528845
vn 0.1883135 -0.9814748 0.03528845
vn 0.7072417 -0.6901368 -0.1533637
vn 0.7072417 -0.6901368 -0.1533637
vn 0.7072417 -0.6901368 -0.1533637
vn -0.8790491 -0.4653789 -0.1034175
vn -0.8790491 -0.4653789 -0.1034175
vn -0.8790491 -0.4653789 -0.1034175
vn -0.1061788 -0.9874637 0.1167968
vn -0.1061788 -0.9874637 0.1167968
vn -0.1061788 -0.9874637 0.1167968
vn -0.9336798 -0.3055679 -0.1867359
vn -0.9336798 -0.3055679 -0.1867359
vn -0.9336798 -0.3055679 -0.1867359
vn -0.7513826 -0.6585152 -0.04221252
vn -0.7513826 -0.6585152 -0.04221252
vn -0.7513826 -0.6585152 -0.04221252
vn -0.8479983 0.3179995 0.4239991
vn -0.8479983 0.3179995 0.4239991
vn -0.8479983 0.3179995 0.4239991
vn 0.1758772 -0.8574017 0.4836625
vn 0.1758772 -0.8574017 0.4836625
vn 0.1758772 -0.8574017 0.4836625
vn -0.1246489 0.9348663 0.3323969
vn -0.1246489 0.9348663 0.3323969
vn -0.1246489 0.9348663 0.3323969
vn -0.03843313 0.9223949 0.3843313
vn -0.03843313 0.9223949 0.3843313
vn -0.03843313 0.9223949 0.3843313
vn -0.09667365 0.8700628 0.4833682
vn -0.09667365 0.8700628 0.4833682
vn -0.09667365 0.8700628 0.4833682
vn 0.1321581 -0.9911857 -0.009223775
vn 0.1321581 -0.9911857 -0.009223775
vn 0.1321581 -0.9911857 -0.009223775
vn 0.0557062 -0.9191523 0.3899434
vn 0.0557062 -0.9191523 0.3899434
vn 0.0557062 -0.9191523 0.3899434
vn 0.122859 -0.9214427 0.3685771
vn 0.122859 -0.9214427 0.3685771
vn 0.122859 -0.9214427 0.3685771
vn 0.5848442 0.4386331 0.6823182
vn 0.5848442 0.4386331 0.6823182
vn 0.5848442 0.4386331 0.6823182
vn 0.04123054 -0.9276871 -0.3710749
vn 0.04123054 -0.9276871 -0.3710749
vn 0.04123054 -0.9276871 -0.3710749
vn 0.1241407 -0.9914476 0.04026139
vn 0.1241407 -0.9914476 0.04026139
vn 0.1241407 -0.9914476 0.04026139
vn 0.1764462 -0.9528094 -0.2470247
vn 0.1764462 -0.9528094 -0.2470247
vn 0.1764462 -0.9528094 -0.2470247
vn 0.8137335 -0.3487429 -0.4649906
vn 0.8137335 -0.3487429 -0.4649906
vn 0.8137335 -0.3487429 -0.4649906
vn -0.8929704 0.3302771 -0.3058119
vn -0.8929704 0.3302771 -0.3058119
vn -0.8929704 0.3302771 -0.3058119
vn 0.5166421 -0.8188296 -0.2501977
vn 0.5166421 -0.8188296 -0.2501977
vn 0.5166421 -0.8188296 -0.2501977
vn -0.02169173 0.8785168 -0.4772187
vn -0.02169173 0.8785168 -0.4772187
vn -0.02169173 0.8785168 -0.4772187
vn -0.2251887 -0.8106793 -0.5404528
vn -0.2251887 -0.8106793 -0.5404528
vn -0.2251887 -0.8106793 -0.5404528
vn -0.6666663 -0.6666672 0.3333331
vn -0.6666663 -0.6666672 0.3333331
vn -0.6666663 -0.6666672 0.3333331
vn -0.2313722 -0.9717642 -0.04627442
vn -0.2313722 -0.9717642 -0.04627442
vn -0.2313722 -0.9717642 -0.04627442
vn -0.6882467 -0.6882477 0.2294157
vn -0.6882467 -0.6882477 0.2294157
vn -0.6882467 -0.6882477 0.2294157
vn -0.0512073 0.9985422 0.0170691
vn -0.0512073 0.9985422 0.0170691
vn -0.0512073 0.9985422 0.0170691
g Icosphere_(30)_0
f 3/3/3 2/2/2 1/1/1
f 6/6/6 5/5/5 4/4/4
f 9/9/9 8/8/8 7/7/7
f 12/12/12 11/11/11 10/10/10
f 15/15/15 14/14/14 13/13/13
f 16/16/16 15/15/15 13/13/13
f 16/16/16 13/13/13 17/17/17
f 17/17/17 19/19/19 18/18/18
f 19/19/19 21/21/21 20/20/20
f 24/24/24 23/23/23 22/22/22
f 27/27/27 26/26/26 25/25/25
f 27/27/27 25/25/25 28/28/28
f 31/31/31 30/30/30 29/29/29
f 34/34/34 33/33/33 32/32/32
f 37/37/37 36/36/36 35/35/35
f 40/40/40 39/39/39 38/38/38
f 43/43/43 42/42/42 41/41/41
f 46/46/46 45/45/45 44/44/44
f 49/49/49 48/48/48 47/47/47
f 52/52/52 51/51/51 50/50/50
f 55/55/55 54/54/54 53/53/53
f 58/58/58 57/57/57 56/56/56
f 61/61/61 60/60/60 59/59/59
f 64/64/64 63/63/63 62/62/62
f 67/67/67 66/66/66 65/65/65
f 70/70/70 69/69/69 68/68/68
f 73/73/73 72/72/72 71/71/71
f 76/76/76 75/75/75 74/74/74
f 79/79/79 78/78/78 77/77/77
f 82/82/82 81/81/81 80/80/80
f 85/85/85 84/84/84 83/83/83
f 88/88/88 87/87/87 86/86/86
f 91/91/91 90/90/90 89/89/89
f 94/94/94 93/93/93 92/92/92
f 97/97/97 96/96/96 95/95/95
f 100/100/100 99/99/99 98/98/98
f 103/103/103 102/102/102 101/101/101
f 106/106/106 105/105/105 104/104/104
f 109/109/109 108/108/108 107/107/107
f 112/112/112 111/111/111 110/110/110
f 115/115/115 114/114/114 113/113/113
f 118/118/118 117/117/117 116/116/116
f 121/121/121 120/120/120 119/119/119
f 124/124/124 123/123/123 122/122/122
f 127/127/127 126/126/126 125/125/125
f 130/130/130 129/129/129 128/128/128
f 133/133/133 132/132/132 131/131/131
f 136/136/136 135/135/135 134/134/134
f 139/139/139 138/138/138 137/137/137
f 142/142/142 141/141/141 140/140/140
f 145/145/145 144/144/144 143/143/143
f 148/148/148 147/147/147 146/146/146
f 151/151/151 150/150/150 149/149/149
f 154/154/154 153/153/153 152/152/152
f 157/157/157 156/156/156 155/155/155
f 160/160/160 159/159/159 158/158/158
f 163/163/163 162/162/162 161/161/161
f 166/166/166 165/165/165 164/164/164
f 169/169/169 168/168/168 167/167/167
f 172/172/172 171/171/171 170/170/170
f 175/175/175 174/174/174 173/173/173
f 178/178/178 177/177/177 176/176/176
f 181/181/181 180/180/180 179/179/179
f 184/184/184 183/183/183 182/182/182
f 187/187/187 186/186/186 185/185/185
f 190/190/190 189/189/189 188/188/188
f 193/193/193 192/192/192 191/191/191
f 196/196/196 195/195/195 194/194/194
f 199/199/199 198/198/198 197/197/197
f 202/202/202 201/201/201 200/200/200
f 205/205/205 204/204/204 203/203/203
f 208/208/208 207/207/207 206/206/206
f 211/211/211 210/210/210 209/209/209
f 214/214/214 213/213/213 212/212/212
f 217/217/217 216/216/216 215/215/215
f 220/220/220 219/219/219 218/218/218
f 223/223/223 222/222/222 221/221/221
f 226/226/226 225/225/225 224/224/224
f 229/229/229 228/228/228 227/227/227
f 232/232/232 231/231/231 230/230/230
