g Icosphere_(31)
v -112.5 284 262.5
v -112 284 261
v -111 283 262
v -112 282 264.5
v -111 283 262
v -110 279 263
v -112.5 284 262.5
v -111 283 262
v -112 282 264.5
v -113 283 264.5
v -112.5 284 262.5
v -112 282 264.5
v -113.5 285 261
v -112 284 261
v -112.5 284 262.5
v -111.5 284 259.5
v -114.5 285 262.5
v -112.5 284 262.5
v -113 283 264.5
v -113.5 285 261
v -112.5 284 262.5
v -114.5 285 262.5
v -115.5 285 261
v -113.5 285 261
v -114.5 285 262.5
v -115 285 259.5
v -118 285 260
v -111.5 284 259.5
v -113.5 285 261
v -115 285 259.5
v -113.5 285 257.5
v -111.5 284 259.5
v -115 285 259.5
v -110 283 260
v -112 284 261
v -111.5 284 259.5
v -111 284 258.5
v -111.5 284 259.5
v -113.5 285 257.5
v -110 283 260
v -111.5 284 259.5
v -111 284 258.5
v -108 281 259
v -110 283 260
v -111 284 258.5
v -111 283 262
v -112 284 261
v -110 283 260
v -109 279 260.5
v -110 283 260
v -108 281 259
v -111 283 262
v -110 283 260
v -109 279 260.5
v -110 279 263
v -111 283 262
v -109 279 260.5
v -118.5 284 262.5
v -115.5 285 261
v -114.5 285 262.5
v -114.5 283 264
v -114.5 285 262.5
v -113 283 264.5
v -118.5 284 262.5
v -114.5 285 262.5
v -114.5 283 264
v -118.5 279 264
v -118.5 284 262.5
v -114.5 283 264
v -112.5 279 266
v -113 283 264.5
v -112 282 264.5
v -111.5 277 264.5
v -112 282 264.5
v -110 279 263
v -112.5 279 266
v -112 282 264.5
v -111.5 277 264.5
v -113 275 265.5
v -112.5 279 266
v -111.5 277 264.5
v -109 275 263
v -110 279 263
v -109 279 260.5
v -107.5 275 259.5
v -107.5 275 259.5
v -109 279 260.5
v -108 281 259
v -106.5 273 261
v -109 275 263
v -107.5 275 259.5
v -108.5 281 257
v -108 281 259
v -111 284 258.5
v -111.5 282 255.5
v -111 284 258.5
v -113.5 285 257.5
v -108.5 281 257
v -111 284 258.5
v -111.5 282 255.5
v -111.5 275 254
v -108.5 281 257
v -111.5 282 255.5
v -116.5 284 257
v -113.5 285 257.5
v -115 285 259.5
v -116.5 284 257
v -115 285 259.5
v -118 285 260
v -119 279 259
v -116.5 284 257
v -118 285 260
v -113 273 267
v -116 273 262.5
v -119.5 275 265
v -116.5 277 265
v -119.5 275 265
v -118.5 279 264
v -113 273 267
v -119.5 275 265
v -116.5 277 265
v -113 275 265.5
v -113 273 267
v -116.5 277 265
v -113.6823 272.1558 261
v -116 273 262.5
v -113 273 267
v -109 273 265.5
v -113 273 267
v -113 275 265.5
v -113.6823 272.1558 261
v -113 273 267
v -109 273 265.5
v -106.5 273 261
v -113.6823 272.1558 261
v -109 273 265.5
v -107.5 273 256
v -114.6712 273.3781 259.4
v -116 273 262.5
v -113.6823 272.1558 261
v -114.6712 273.3781 259.4
v -113.6823 272.1558 261
v -107.5 273 256
v -111.5 275 254
v -118.5 268 257
v -116 273 262.5
v -114.6712 273.3781 259.4
v -116.5 270 253.5
v -114.6712 273.3781 259.4
v -111.5 275 254
v -118.5 268 257
v -114.6712 273.3781 259.4
v -116.5 270 253.5
v -119 279 259
v -118.5 268 257
v -116.5 270 253.5
v -119.5 275 265
v -116 273 262.5
v -118.5 268 257
v -120 279 262.5
v -118.5 268 257
v -119 279 259
v -119.5 275 265
v -118.5 268 257
v -120 279 262.5
v -118.5 279 264
v -119.5 275 265
v -120 279 262.5
v -112.5 279 266
v -113 275 265.5
v -116.5 277 265
v -114.5 283 264
v -116.5 277 265
v -118.5 279 264
v -112.5 279 266
v -116.5 277 265
v -114.5 283 264
v -113 283 264.5
v -112.5 279 266
v -114.5 283 264
v -109 275 263
v -106.5 273 261
v -109 273 265.5
v -111.5 277 264.5
v -109 273 265.5
v -113 275 265.5
v -109 275 263
v -109 273 265.5
v -111.5 277 264.5
v -110 279 263
v -109 275 263
v -111.5 277 264.5
v -108.5 281 257
v -111.5 275 254
v -107.5 273 256
v -107.5 275 259.5
v -107.5 273 256
v -106.5 273 261
v -108.5 281 257
v -107.5 273 256
v -107.5 275 259.5
v -108 281 259
v -108.5 281 257
v -107.5 275 259.5
v -116.5 284 257
v -119 279 259
v -116.5 270 253.5
v -111.5 282 255.5
v -116.5 270 253.5
v -111.5 275 254
v -116.5 284 257
v -116.5 270 253.5
v -111.5 282 255.5
v -113.5 285 257.5
v -116.5 284 257
v -111.5 282 255.5
v -118.5 284 262.5
v -118.5 279 264
v -120 279 262.5
v -118 285 260
v -120 279 262.5
v -119 279 259
v -118.5 284 262.5
v -120 279 262.5
v -118 285 260
v -115.5 285 261
v -118.5 284 262.5
v -118 285 260
vt -1.977709 3.2
vt -3.364679 0
vt -5.177709 1.977709
vt -5.177709 1.977709
vt -1.977709 3.2
vt -3.364679 0
vt 1.977709 5.177709
vt 5.177709 3.2
vt 3.2 1.977709
vt 0 3.364679
vt 1.977709 5.177709
vt 3.2 1.977709
vt 0 0
vt -3.364679 0
vt -1.977709 3.2
vt -1.977709 -3.2
vt 1.977709 3.2
vt -1.977709 3.2
vt 0 5.444165
vt 0 0
vt -1.977709 3.2
vt 1.977709 3.2
vt 3.364679 0
vt 0 0
vt 1.977709 3.2
vt 1.977709 -3.2
vt 5.177709 -1.977709
vt -1.977709 -3.2
vt 0 0
vt 1.977709 -3.2
vt 0 -5.444165
vt -1.977709 -3.2
vt 1.977709 -3.2
vt -5.177709 -1.977709
vt -3.364679 0
vt -1.977709 -3.2
vt -3.2 1.977709
vt -1.977709 5.177709
vt 0 3.364679
vt -5.177709 3.2
vt -1.977709 5.177709
vt -3.2 1.977709
vt 3.364679 0
vt 1.977709 3.2
vt 5.177709 1.977709
vt -1.977709 3.2
vt 0 5.444165
vt 1.977709 3.2
vt 0 0
vt 1.977709 3.2
vt 3.364679 0
vt -1.977709 3.2
vt 1.977709 3.2
vt 0 0
vt -3.364679 0
vt -1.977709 3.2
vt 0 0
vt 5.177709 1.977709
vt 3.364679 0
vt 1.977709 3.2
vt -3.2 1.977709
vt -1.977709 5.177709
vt 0 3.364679
vt -5.177709 3.2
vt -1.977709 5.177709
vt -3.2 1.977709
vt 3.364679 0
vt 1.977709 3.2
vt 5.177709 1.977709
vt 0 0
vt 0 3.364679
vt 3.2 1.977709
vt 3.2 -1.977709
vt 3.2 1.977709
vt 5.444165 0
vt 0 0
vt 3.2 1.977709
vt 3.2 -1.977709
vt 0 -3.364679
vt 0 0
vt 3.2 -1.977709
vt -1.977709 -3.2
vt -3.364679 0
vt 0 0
vt 1.977709 -3.2
vt 1.977709 -3.2
vt 0 0
vt 3.364679 0
vt 0 -5.444165
vt -1.977709 -3.2
vt 1.977709 -3.2
vt -3.2 -1.977709
vt -5.444165 0
vt -3.2 1.977709
vt 0 0
vt -3.2 1.977709
vt 0 3.364679
vt -3.2 -1.977709
vt -3.2 1.977709
vt 0 0
vt 0 -3.364679
vt -3.2 -1.977709
vt 0 0
vt 3.2 1.977709
vt 0 3.364679
vt 1.977709 5.177709
vt 3.2 1.977709
vt 1.977709 5.177709
vt 5.177709 3.2
vt -3.364679 0
vt -5.177709 1.977709
vt -1.977709 3.2
vt -1.977709 3.2
vt -3.364679 0
vt -5.177709 1.977709
vt 5.177709 -1.977709
vt 1.977709 -3.2
vt 3.364679 0
vt -1.977709 -5.177709
vt -5.177709 -3.2
vt -3.2 -1.977709
vt 0 -3.364679
vt -1.977709 -5.177709
vt -3.2 -1.977709
vt 0 0
vt -3.364679 0
vt -1.977709 3.2
vt 1.977709 3.2
vt -1.977709 3.2
vt 0 5.444165
vt 0 0
vt -1.977709 3.2
vt 1.977709 3.2
vt 3.364679 0
vt 0 0
vt 1.977709 3.2
vt 1.977709 -3.2
vt -1.977709 -3.2
vt -3.364679 0
vt 0 0
vt -1.977709 -3.2
vt 0 0
vt 1.977709 -3.2
vt 0 -5.444165
vt -5.177709 -1.977709
vt -3.364679 0
vt -1.977709 -3.2
vt 3.2 -1.977709
vt 1.977709 -5.177709
vt 0 -3.364679
vt 5.177709 -3.2
vt 1.977709 -5.177709
vt 3.2 -1.977709
vt -3.364679 0
vt -1.977709 -3.2
vt -5.177709 -1.977709
vt 1.977709 -3.2
vt 0 -5.444165
vt -1.977709 -3.2
vt 0 0
vt -1.977709 -3.2
vt -3.364679 0
vt 1.977709 -3.2
vt -1.977709 -3.2
vt 0 0
vt 3.364679 0
vt 1.977709 -3.2
vt 0 0
vt 0 0
vt 0 -3.364679
vt -3.2 -1.977709
vt -3.2 1.977709
vt -3.2 -1.977709
vt -5.444165 0
vt 0 0
vt -3.2 -1.977709
vt -3.2 1.977709
vt 0 3.364679
vt 0 0
vt -3.2 1.977709
vt 5.177709 1.977709
vt 3.364679 0
vt 1.977709 3.2
vt 3.2 -1.977709
vt 1.977709 -5.177709
vt 0 -3.364679
vt 5.177709 -3.2
vt 1.977709 -5.177709
vt 3.2 -1.977709
vt -3.364679 0
vt -1.977709 -3.2
vt -5.177709 -1.977709
vt -3.2 -1.977709
vt 0 -3.364679
vt -1.977709 -5.177709
vt 5.177709 -1.977709
vt 1.977709 -3.2
vt 3.364679 0
vt -3.2 -1.977709
vt -1.977709 -5.177709
vt -5.177709 -3.2
vt 3.364679 0
vt 5.177709 -1.977709
vt 1.977709 -3.2
vt 3.2 1.977709
vt 5.444165 0
vt 3.2 -1.977709
vt 0 0
vt 3.2 -1.977709
vt 0 -3.364679
vt 3.2 1.977709
vt 3.2 -1.977709
vt 0 0
vt 0 3.364679
vt 3.2 1.977709
vt 0 0
vt 1.977709 3.2
vt 3.364679 0
vt 0 0
vt -1.977709 3.2
vt 0 0
vt -3.364679 0
vt 1.977709 3.2
vt 0 0
vt -1.977709 3.2
vt 0 5.444165
vt 1.977709 3.2
vt -1.977709 3.2
vn 0.1839418 0.9810229 0.06131393
vn 0.1839418 0.9810229 0.06131393
vn 0.1839418 0.9810229 0.06131393
vn 0.5178919 0.8056095 0.2877177
vn 0.5178919 0.8056095 0.2877177
vn 0.5178919 0.8056095 0.2877177
vn 0.2210128 0.9577222 0.1841773
vn 0.2210128 0.9577222 0.1841773
vn 0.2210128 0.9577222 0.1841773
vn 0.23862 0.95448 0.178965
vn 0.23862 0.95448 0.178965
vn 0.23862 0.95448 0.178965
vn 0.1641527 0.9849162 0.05471757
vn 0.1641527 0.9849162 0.05471757
vn 0.1641527 0.9849162 0.05471757
vn 0.1641527 0.9849162 0.05471757
vn 0.1225703 0.9805623 0.1532128
vn 0.1225703 0.9805623 0.1532128
vn 0.1225703 0.9805623 0.1532128
vn 0.1236128 0.9889027 0.08240855
vn 0.1236128 0.9889027 0.08240855
vn 0.1236128 0.9889027 0.08240855
vn 0 1 0
vn 0 1 0
vn 0 1 0
vn 0 1 0
vn 0 1 0
vn 0.07106689 0.9949367 -0.07106689
vn 0.07106689 0.9949367 -0.07106689
vn 0.07106689 0.9949367 -0.07106689
vn 0.07114556 0.9960377 0.05335917
vn 0.07114556 0.9960377 0.05335917
vn 0.07114556 0.9960377 0.05335917
vn 0.1481594 0.9877296 0.04938648
vn 0.1481594 0.9877296 0.04938648
vn 0.1481594 0.9877296 0.04938648
vn 0.08297397 0.9956878 0.04148699
vn 0.08297397 0.9956878 0.04148699
vn 0.08297397 0.9956878 0.04148699
vn 0.1410692 0.9874839 0.07053456
vn 0.1410692 0.9874839 0.07053456
vn 0.1410692 0.9874839 0.07053456
vn 0.2425356 0.9701425 0
vn 0.2425356 0.9701425 0
vn 0.2425356 0.9701425 0
vn 0.1638464 0.9830783 0.08192319
vn 0.1638464 0.9830783 0.08192319
vn 0.1638464 0.9830783 0.08192319
vn 0.4472135 0.7155417 0.5366564
vn 0.4472135 0.7155417 0.5366564
vn 0.4472135 0.7155417 0.5366564
vn 0.5962848 0.745356 0.2981424
vn 0.5962848 0.745356 0.2981424
vn 0.5962848 0.745356 0.2981424
vn 0.5661385 0.7925939 0.2264554
vn 0.5661385 0.7925939 0.2264554
vn 0.5661385 0.7925939 0.2264554
vn -0.06232442 0.9971907 0.04154961
vn -0.06232442 0.9971907 0.04154961
vn -0.06232442 0.9971907 0.04154961
vn -0.1048285 0.9434564 0.3144855
vn -0.1048285 0.9434564 0.3144855
vn -0.1048285 0.9434564 0.3144855
vn -0.05918876 0.9470201 0.3156734
vn -0.05918876 0.9470201 0.3156734
vn -0.05918876 0.9470201 0.3156734
vn -0.1886084 0.7544336 0.6286947
vn -0.1886084 0.7544336 0.6286947
vn -0.1886084 0.7544336 0.6286947
vn 0.2110793 0.844317 0.4925183
vn 0.2110793 0.844317 0.4925183
vn 0.2110793 0.844317 0.4925183
vn 0.6396022 0.2558408 0.7248825
vn 0.6396022 0.2558408 0.7248825
vn 0.6396022 0.2558408 0.7248825
vn 0.8320503 0.33282 0.4437602
vn 0.8320503 0.33282 0.4437602
vn 0.8320503 0.33282 0.4437602
vn 0.5773503 -0.5773503 0.5773503
vn 0.5773503 -0.5773503 0.5773503
vn 0.5773503 -0.5773503 0.5773503
vn 0.6804138 0.6804138 0.2721655
vn 0.6804138 0.6804138 0.2721655
vn 0.6804138 0.6804138 0.2721655
vn 0.6548924 0.7016704 0.2806681
vn 0.6810052 0.4256283 0.5958796
vn 0.6810052 0.4256283 0.5958796
vn 0.6810052 0.4256283 0.5958796
vn 0.2889209 0.9493116 0.1238232
vn 0.2889209 0.9493116 0.1238232
vn 0.2889209 0.9493116 0.1238232
vn 0.2519208 0.9656963 -0.0629802
vn 0.2519208 0.9656963 -0.0629802
vn 0.2519208 0.9656963 -0.0629802
vn 0.1725935 0.9665233 -0.1898528
vn 0.1725935 0.9665233 -0.1898528
vn 0.1725935 0.9665233 -0.1898528
vn 0.1756181 0.9658996 -0.190253
vn 0.1756181 0.9658996 -0.190253
vn 0.1756181 0.9658996 -0.190253
vn 0.3980149 0.5970224 -0.696526
vn 0.3980149 0.5970224 -0.696526
vn 0.3980149 0.5970224 -0.696526
vn -0.07375857 0.9957407 -0.05531893
vn -0.07375857 0.9957407 -0.05531893
vn -0.07375857 0.9957407 -0.05531893
vn -0.01508758 0.9957799 -0.09052546
vn -0.01508758 0.9957799 -0.09052546
vn -0.01508758 0.9957799 -0.09052546
vn -0.6366549 0.6741053 -0.374503
vn -0.6366549 0.6741053 -0.374503
vn -0.6366549 0.6741053 -0.374503
vn -0.0961262 -0.9933041 0.06408413
vn -0.0961262 -0.9933041 0.06408413
vn -0.0961262 -0.9933041 0.06408413
vn -0.1270001 0.7620007 0.6350007
vn -0.1270001 0.7620007 0.6350007
vn -0.1270001 0.7620007 0.6350007
vn -0.1295727 0.7774362 0.6154705
vn -0.1295727 0.7774362 0.6154705
vn -0.1295727 0.7774362 0.6154705
vn 0.08998426 0.9448347 0.314945
vn 0.08998426 0.9448347 0.314945
vn 0.08998426 0.9448347 0.314945
vn -0.06342643 -0.9970903 0.04228429
vn -0.06342643 -0.9970903 0.04228429
vn -0.06342643 -0.9970903 0.04228429
vn 0.1177603 0.9420824 0.3140275
vn 0.1177603 0.9420824 0.3140275
vn 0.1177603 0.9420824 0.3140275
vn 0.01264239 -0.9993516 0.03371304
vn 0.01264239 -0.9993516 0.03371304
vn 0.01264239 -0.9993516 0.03371304
vn 0.02936679 -0.9994355 0.01631489
vn 0.02936679 -0.9994355 0.01631489
vn 0.02936679 -0.9994355 0.01631489
vn 0.0293702 -0.9995514 -0.005874041
vn -0.1508793 -0.9840077 -0.09468034
vn -0.1508793 -0.9840077 -0.09468034
vn -0.1508793 -0.9840077 -0.09468034
vn -0.079184 -0.9870411 -0.1395698
vn -0.079184 -0.9870411 -0.1395698
vn -0.079184 -0.9870411 -0.1395698
vn -0.06701361 -0.9912429 -0.1137835
vn 0.2790209 -0.9560159 0.09044868
vn 0.2790209 -0.9560159 0.09044868
vn 0.2790209 -0.9560159 0.09044868
vn 0.2358245 -0.9695731 0.06568775
vn 0.2358245 -0.9695731 0.06568775
vn 0.2358245 -0.9695731 0.06568775
vn 0.3083888 -0.9503999 0.04045075
vn 0.3083888 -0.9503999 0.04045075
vn 0.3083888 -0.9503999 0.04045075
vn -0.8646055 0.1830929 -0.4679042
vn -0.8646055 0.1830929 -0.4679042
vn -0.8646055 0.1830929 -0.4679042
vn 0.01435917 -0.9764231 0.2153875
vn 0.01435917 -0.9764231 0.2153875
vn 0.01435917 -0.9764231 0.2153875
vn -0.9612243 0.02496686 -0.2746354
vn -0.9612243 0.02496686 -0.2746354
vn -0.9612243 0.02496686 -0.2746354
vn -0.8852705 -0.4649906 -0.008942126
vn -0.8852705 -0.4649906 -0.008942126
vn -0.8852705 -0.4649906 -0.008942126
vn -0.4082482 0.8164966 0.4082482
vn -0.4082482 0.8164966 0.4082482
vn -0.4082482 0.8164966 0.4082482
vn -0.1825742 -0.3651484 0.9128709
vn -0.1825742 -0.3651484 0.9128709
vn -0.1825742 -0.3651484 0.9128709
vn -0.1740776 0.6963106 0.6963106
vn -0.1740776 0.6963106 0.6963106
vn -0.1740776 0.6963106 0.6963106
vn -0.2480695 0.7442085 0.6201737
vn -0.2480695 0.7442085 0.6201737
vn -0.2480695 0.7442085 0.6201737
vn -0.1961161 0.7844645 0.5883483
vn -0.1961161 0.7844645 0.5883483
vn -0.1961161 0.7844645 0.5883483
vn 0.3328771 0.9246584 0.1849317
vn 0.3328771 0.9246584 0.1849317
vn 0.3328771 0.9246584 0.1849317
vn 0.1024631 0.8197049 0.563547
vn 0.1024631 0.8197049 0.563547
vn 0.1024631 0.8197049 0.563547
vn 0.2993925 0.9356014 0.1871203
vn 0.2993925 0.9356014 0.1871203
vn 0.2993925 0.9356014 0.1871203
vn 0.5144958 0.5144958 0.6859943
vn 0.5144958 0.5144958 0.6859943
vn 0.5144958 0.5144958 0.6859943
vn 0.4242641 0.5656855 -0.7071068
vn 0.4242641 0.5656855 -0.7071068
vn 0.4242641 0.5656855 -0.7071068
vn 0.5773502 0.8082904 -0.1154701
vn 0.5773502 0.8082904 -0.1154701
vn 0.5773502 0.8082904 -0.1154701
vn 0.8784586 0.4730162 -0.06757374
vn 0.8784586 0.4730162 -0.06757374
vn 0.8784586 0.4730162 -0.06757374
vn 0.9428091 0.2357022 -0.2357022
vn 0.9428091 0.2357022 -0.2357022
vn 0.9428091 0.2357022 -0.2357022
vn -0.676753 0.5205792 -0.5205792
vn -0.676753 0.5205792 -0.5205792
vn -0.676753 0.5205792 -0.5205792
vn -0.08644735 0.6483551 -0.7564142
vn -0.08644735 0.6483551 -0.7564142
vn -0.08644735 0.6483551 -0.7564142
vn -0.140028 0.70014 -0.70014
vn -0.140028 0.70014 -0.70014
vn -0.140028 0.70014 -0.70014
vn -0.01661826 0.930623 -0.3656019
vn -0.01661826 0.930623 -0.3656019
vn -0.01661826 0.930623 -0.3656019
vn -0.5391639 0.6469966 0.5391639
vn -0.5391639 0.6469966 0.5391639
vn -0.5391639 0.6469966 0.5391639
vn -0.7419985 0.6359988 -0.2119995
vn -0.7419985 0.6359988 -0.2119995
vn -0.7419985 0.6359988 -0.2119995
vn -0.6393464 0.7672158 -0.0511477
vn -0.6393464 0.7672158 -0.0511477
vn -0.6393464 0.7672158 -0.0511477
vn -0.03685423 0.9950642 0.09213557
vn -0.03685423 0.9950642 0.09213557
vn -0.03685423 0.9950642 0.09213557
g Icosphere_(31)_0
f 3/3/3 2/2/2 1/1/1
f 6/6/6 5/5/5 4/4/4
f 9/9/9 8/8/8 7/7/7
f 12/12/12 11/11/11 10/10/10
f 15/15/15 14/14/14 13/13/13
f 13/13/13 14/14/14 16/16/16
f 19/19/19 18/18/18 17/17/17
f 22/22/22 21/21/21 20/20/20
f 25/25/25 24/24/24 23/23/23
f 23/23/23 24/24/24 26/26/26
f 23/23/23 26/26/26 27/27/27
f 30/30/30 29/29/29 28/28/28
f 33/33/33 32/32/32 31/31/31
f 36/36/36 35/35/35 34/34/34
f 39/39/39 38/38/38 37/37/37
f 42/42/42 41/41/41 40/40/40
f 45/45/45 44/44/44 43/43/43
f 48/48/48 47/47/47 46/46/46
f 51/51/51 50/50/50 49/49/49
f 54/54/54 53/53/53 52/52/52
f 57/57/57 56/56/56 55/55/55
f 60/60/60 59/59/59 58/58/58
f 63/63/63 62/62/62 61/61/61
f 66/66/66 65/65/65 64/64/64
f 69/69/69 68/68/68 67/67/67
f 72/72/72 71/71/71 70/70/70
f 75/75/75 74/74/74 73/73/73
f 78/78/78 77/77/77 76/76/76
f 81/81/81 80/80/80 79/79/79
f 84/84/84 83/83/83 82/82/82
f 85/85/85 84/84/84 82/82/82
f 88/88/88 87/87/87 86/86/86
f 91/91/91 90/90/90 89/89/89
f 94/94/94 93/93/93 92/92/92
f 97/97/97 96/96/96 95/95/95
f 100/100/100 99/99/99 98/98/98
f 103/103/103 102/102/102 101/101/101
f 106/106/106 105/105/105 104/104/104
f 109/109/109 108/108/108 107/107/107
f 112/112/112 111/111/111 110/110/110
f 115/115/115 114/114/114 113/113/113
f 118/118/118 117/117/117 116/116/116
f 121/121/121 120/120/120 119/119/119
f 124/124/124 123/123/123 122/122/122
f 127/127/127 126/126/126 125/125/125
f 130/130/130 129/129/129 128/128/128
f 133/133/133 132/132/132 131/131/131
f 136/136/136 135/135/135 134/134/134
f 134/134/134 135/135/135 137/137/137
f 140/140/140 139/139/139 138/138/138
f 143/143/143 142/142/142 141/141/141
f 143/143/143 141/141/141 144/144/144
f 147/147/147 146/146/146 145/145/145
f 150/150/150 149/149/149 148/148/148
f 153/153/153 152/152/152 151/151/151
f 156/156/156 155/155/155 154/154/154
f 159/159/159 158/158/158 157/157/157
f 162/162/162 161/161/161 160/160/160
f 165/165/165 164/164/164 163/163/163
f 168/168/168 167/167/167 166/166/166
f 171/171/171 170/170/170 169/169/169
f 174/174/174 173/173/173 172/172/172
f 177/177/177 176/176/176 175/175/175
f 180/180/180 179/179/179 178/178/178
f 183/183/183 182/182/182 181/181/181
f 186/186/186 185/185/185 184/184/184
f 189/189/189 188/188/188 187/187/187
f 192/192/192 191/191/191 190/190/190
f 195/195/195 194/194/194 193/193/193
f 198/198/198 197/197/197 196/196/196
f 201/201/201 200/200/200 199/199/199
f 204/204/204 203/203/203 202/202/202
f 207/207/207 206/206/206 205/205/205
f 210/210/210 209/209/209 208/208/208
f 213/213/213 212/212/212 211/211/211
f 216/216/216 215/215/215 214/214/214
f 219/219/219 218/218/218 217/217/217
f 222/222/222 221/221/221 220/220/220
f 225/225/225 224/224/224 223/223/223
f 228/228/228 227/227/227 226/226/226
