g Icosphere_(32)
v -113.6113 287.5 244.244
v -115 287 245
v -115.7807 287 242.9046
v -112.954 285 242.806
v -115.7807 287 242.9046
v -115.0987 281.5 242.1733
v -113.6113 287.5 244.244
v -115.7807 287 242.9046
v -112.954 285 242.806
v -111.857 286 243.829
v -113.6113 287.5 244.244
v -112.954 285 242.806
v -114 287 246
v -115 287 245
v -113.6113 287.5 244.244
v -112.1486 287.5 245.608
v -113 287 247
v -114 287 249
v -114 287 246
v -117 287 247
v -115 287 245
v -117 287 250
v -117.1447 287 244.3673
v -112.1486 287.5 245.608
v -113.6113 287.5 244.244
v -111.857 286 243.829
v -118 285 247
v -117 287 247
v -117 287 250
v -117.1447 287 244.3673
v -117 287 247
v -118 285 247
v -118.5581 281.5 244.4167
v -117.1447 287 244.3673
v -118 285 247
v -115.7807 287 242.9046
v -115 287 245
v -117.1447 287 244.3673
v -117.535 281.5 243.3197
v -117.1447 287 244.3673
v -118.5581 281.5 244.4167
v -115.7807 287 242.9046
v -115.0987 281.5 242.1733
v -115.7807 287 242.9046
v -117.535 281.5 243.3197
v -111.3926 286 246.9967
v -113 287 247
v -112.1486 287.5 245.608
v -110.7599 284.5 244.852
v -112.1486 287.5 245.608
v -111.857 286 243.829
v -111.3926 286 246.9967
v -112.1486 287.5 245.608
v -110.7599 284.5 244.852
v -108.9316 281.5 246.557
v -111.3926 286 246.9967
v -110.7599 284.5 244.852
v -111.5406 281.5 242.7566
v -111.857 286 243.829
v -112.954 285 242.806
v -112.9787 278.5 242.0993
v -112.954 285 242.806
v -115.0987 281.5 242.1733
v -111.5406 281.5 242.7566
v -112.954 285 242.806
v -112.9787 278.5 242.0993
v -111.857 275.5 243.829
v -111.5406 281.5 242.7566
v -112.9787 278.5 242.0993
v -115.4644 275.5 241.8323
v -115.0987 281.5 242.1733
v -117.535 281.5 243.3197
v -118.2171 275.5 244.051
v -117.535 281.5 243.3197
v -118.5581 281.5 244.4167
v -115.4644 275.5 241.8323
v -117.535 281.5 243.3197
v -118.2171 275.5 244.051
v -115 272.6675 245
v -115.4644 275.5 241.8323
v -118.2171 275.5 244.051
v -118.8497 278.5 246.1957
v -118.5581 281.5 244.4167
v -118 285 247
v -117.6787 281 249.3388
v -118 285 247
v -117 287 250
v -118.8497 278.5 246.1957
v -118 285 247
v -117.6787 281 249.3388
v -116.3147 275.5 247.8761
v -118.8497 278.5 246.1957
v -117.6787 281 249.3388
v -114 285 250
v -117 287 250
v -114 287 249
v -112.7073 286 249.8727
v -114 287 249
v -113 287 247
v -114 285 250
v -114 287 249
v -112.7073 286 249.8727
v -111.6349 281.5 250.1891
v -114 285 250
v -112.7073 286 249.8727
v -110.4189 272.5 244.4863
v -111.0516 272.5 246.631
v -108.9069 275.5 247.2637
v -109.0056 278.5 244.4369
v -108.9069 275.5 247.2637
v -108.9316 281.5 246.557
v -110.4189 272.5 244.4863
v -108.9069 275.5 247.2637
v -109.0056 278.5 244.4369
v -111.857 275.5 243.829
v -110.4189 272.5 244.4863
v -109.0056 278.5 244.4369
v -113.7696 271.2338 246.1474
v -111.0516 272.5 246.631
v -110.4189 272.5 244.4863
v -113.636 272.5 243.5373
v -110.4189 272.5 244.4863
v -111.857 275.5 243.829
v -113.7696 271.2338 246.1474
v -110.4189 272.5 244.4863
v -113.636 272.5 243.5373
v -115 272.6675 245
v -113.7696 271.2338 246.1474
v -113.636 272.5 243.5373
v -114.1376 273.0672 247.9919
v -111.0516 272.5 246.631
v -113.7696 271.2338 246.1474
v -116.7297 272.5 246.1217
v -113.7696 271.2338 246.1474
v -115 272.6675 245
v -114.1376 273.0672 247.9919
v -113.7696 271.2338 246.1474
v -116.7297 272.5 246.1217
v -116.3147 275.5 247.8761
v -114.1376 273.0672 247.9919
v -116.7297 272.5 246.1217
v -115.8009 265 252.4571
v -111.0516 272.5 246.631
v -114.1376 273.0672 247.9919
v -116.824 268 253.5541
v -114.1376 273.0672 247.9919
v -116.3147 275.5 247.8761
v -115.8009 265 252.4571
v -114.1376 273.0672 247.9919
v -116.824 268 253.5541
v -111.6349 281.5 250.1891
v -115.8009 265 252.4571
v -116.824 268 253.5541
v -108.9069 275.5 247.2637
v -111.0516 272.5 246.631
v -115.8009 265 252.4571
v -109.5642 281.5 248.7017
v -115.8009 265 252.4571
v -111.6349 281.5 250.1891
v -108.9069 275.5 247.2637
v -115.8009 265 252.4571
v -109.5642 281.5 248.7017
v -108.9316 281.5 246.557
v -108.9069 275.5 247.2637
v -109.5642 281.5 248.7017
v -111.5406 281.5 242.7566
v -111.857 275.5 243.829
v -109.0056 278.5 244.4369
v -110.7599 284.5 244.852
v -109.0056 278.5 244.4369
v -108.9316 281.5 246.557
v -111.5406 281.5 242.7566
v -109.0056 278.5 244.4369
v -110.7599 284.5 244.852
v -111.857 286 243.829
v -111.5406 281.5 242.7566
v -110.7599 284.5 244.852
v -115.4644 275.5 241.8323
v -115 272.6675 245
v -113.636 272.5 243.5373
v -112.9787 278.5 242.0993
v -113.636 272.5 243.5373
v -111.857 275.5 243.829
v -115.4644 275.5 241.8323
v -113.636 272.5 243.5373
v -112.9787 278.5 242.0993
v -115.0987 281.5 242.1733
v -115.4644 275.5 241.8323
v -112.9787 278.5 242.0993
v -118.8497 278.5 246.1957
v -116.3147 275.5 247.8761
v -116.7297 272.5 246.1217
v -118.2171 275.5 244.051
v -116.7297 272.5 246.1217
v -115 272.6675 245
v -118.8497 278.5 246.1957
v -116.7297 272.5 246.1217
v -118.2171 275.5 244.051
v -118.5581 281.5 244.4167
v -118.8497 278.5 246.1957
v -118.2171 275.5 244.051
v -114 285 250
v -111.6349 281.5 250.1891
v -116.824 268 253.5541
v -117.6787 281 249.3388
v -116.824 268 253.5541
v -116.3147 275.5 247.8761
v -114 285 250
v -116.824 268 253.5541
v -117.6787 281 249.3388
v -117 287 250
v -114 285 250
v -117.6787 281 249.3388
v -111.3926 286 246.9967
v -108.9316 281.5 246.557
v -109.5642 281.5 248.7017
v -112.7073 286 249.8727
v -109.5642 281.5 248.7017
v -111.6349 281.5 250.1891
v -111.3926 286 246.9967
v -109.5642 281.5 248.7017
v -112.7073 286 249.8727
v -113 287 247
v -111.3926 286 246.9967
v -112.7073 286 249.8727
vt -1.977709 3.2
vt -3.364679 0
vt -5.177709 1.977709
vt -5.177709 1.977709
vt -1.977709 3.2
vt -3.364679 0
vt 1.977709 5.177709
vt 5.177709 3.2
vt 3.2 1.977709
vt 0 3.364679
vt 1.977709 5.177709
vt 3.2 1.977709
vt 0 0
vt -3.364679 0
vt -1.977709 3.2
vt 1.977709 3.2
vt 3.364679 0
vt 1.977709 -3.2
vt 0 0
vt -1.977709 -3.2
vt -3.364679 0
vt 0 -5.444165
vt -5.177709 -1.977709
vt 1.977709 3.2
vt -1.977709 3.2
vt 0 5.444165
vt -3.2 1.977709
vt -1.977709 5.177709
vt 0 3.364679
vt -5.177709 3.2
vt -1.977709 5.177709
vt -3.2 1.977709
vt 3.364679 0
vt 1.977709 3.2
vt 5.177709 1.977709
vt -1.977709 3.2
vt 0 5.444165
vt 1.977709 3.2
vt 0 0
vt 1.977709 3.2
vt 3.364679 0
vt -1.977709 3.2
vt -3.364679 0
vt -1.977709 3.2
vt 0 0
vt 5.177709 1.977709
vt 3.364679 0
vt 1.977709 3.2
vt -3.2 1.977709
vt -1.977709 5.177709
vt 0 3.364679
vt -5.177709 3.2
vt -1.977709 5.177709
vt -3.2 1.977709
vt 3.364679 0
vt 1.977709 3.2
vt 5.177709 1.977709
vt 0 0
vt 0 3.364679
vt 3.2 1.977709
vt 3.2 -1.977709
vt 3.2 1.977709
vt 5.444165 0
vt 0 0
vt 3.2 1.977709
vt 3.2 -1.977709
vt 0 -3.364679
vt 0 0
vt 3.2 -1.977709
vt -1.977709 -3.2
vt -3.364679 0
vt 0 0
vt 1.977709 -3.2
vt 0 0
vt 3.364679 0
vt -1.977709 -3.2
vt 0 0
vt 1.977709 -3.2
vt 0 -5.444165
vt -1.977709 -3.2
vt 1.977709 -3.2
vt -3.2 -1.977709
vt -5.444165 0
vt -3.2 1.977709
vt 0 0
vt -3.2 1.977709
vt 0 3.364679
vt -3.2 -1.977709
vt -3.2 1.977709
vt 0 0
vt 0 -3.364679
vt -3.2 -1.977709
vt 0 0
vt 3.2 1.977709
vt 0 3.364679
vt 1.977709 5.177709
vt 5.177709 -1.977709
vt 1.977709 -3.2
vt 3.364679 0
vt 3.2 1.977709
vt 1.977709 5.177709
vt 5.177709 3.2
vt -3.364679 0
vt -5.177709 1.977709
vt -1.977709 3.2
vt -1.977709 3.2
vt -3.364679 0
vt -5.177709 1.977709
vt 5.177709 -1.977709
vt 1.977709 -3.2
vt 3.364679 0
vt -1.977709 -5.177709
vt -5.177709 -3.2
vt -3.2 -1.977709
vt 0 -3.364679
vt -1.977709 -5.177709
vt -3.2 -1.977709
vt 0 0
vt -3.364679 0
vt -1.977709 3.2
vt 1.977709 3.2
vt -1.977709 3.2
vt 0 5.444165
vt 0 0
vt -1.977709 3.2
vt 1.977709 3.2
vt 3.364679 0
vt 0 0
vt 1.977709 3.2
vt -1.977709 -3.2
vt -3.364679 0
vt 0 0
vt 1.977709 -3.2
vt 0 0
vt 3.364679 0
vt -1.977709 -3.2
vt 0 0
vt 1.977709 -3.2
vt 0 -5.444165
vt -1.977709 -3.2
vt 1.977709 -3.2
vt -5.177709 -1.977709
vt -3.364679 0
vt -1.977709 -3.2
vt 3.2 -1.977709
vt 1.977709 -5.177709
vt 0 -3.364679
vt 5.177709 -3.2
vt 1.977709 -5.177709
vt 3.2 -1.977709
vt -3.364679 0
vt -1.977709 -3.2
vt -5.177709 -1.977709
vt 1.977709 -3.2
vt 0 -5.444165
vt -1.977709 -3.2
vt 0 0
vt -1.977709 -3.2
vt -3.364679 0
vt 1.977709 -3.2
vt -1.977709 -3.2
vt 0 0
vt 3.364679 0
vt 1.977709 -3.2
vt 0 0
vt 0 0
vt 0 -3.364679
vt -3.2 -1.977709
vt -3.2 1.977709
vt -3.2 -1.977709
vt -5.444165 0
vt 0 0
vt -3.2 -1.977709
vt -3.2 1.977709
vt 0 3.364679
vt 0 0
vt -3.2 1.977709
vt 5.177709 1.977709
vt 3.364679 0
vt 1.977709 3.2
vt 3.2 -1.977709
vt 1.977709 -5.177709
vt 0 -3.364679
vt 5.177709 -3.2
vt 1.977709 -5.177709
vt 3.2 -1.977709
vt -3.364679 0
vt -1.977709 -3.2
vt -5.177709 -1.977709
vt -3.2 -1.977709
vt 0 -3.364679
vt -1.977709 -5.177709
vt 5.177709 -1.977709
vt 1.977709 -3.2
vt 3.364679 0
vt -3.2 -1.977709
vt -1.977709 -5.177709
vt -5.177709 -3.2
vt 3.364679 0
vt 5.177709 -1.977709
vt 1.977709 -3.2
vt 3.2 1.977709
vt 5.444165 0
vt 3.2 -1.977709
vt 0 0
vt 3.2 -1.977709
vt 0 -3.364679
vt 3.2 1.977709
vt 3.2 -1.977709
vt 0 0
vt 0 3.364679
vt 3.2 1.977709
vt 0 0
vt 1.977709 3.2
vt 3.364679 0
vt 0 0
vt -1.977709 3.2
vt 0 0
vt -3.364679 0
vt 1.977709 3.2
vt 0 0
vt -1.977709 3.2
vt 0 5.444165
vt 1.977709 3.2
vt -1.977709 3.2
vn -0.03323926 0.9993708 0.01238451
vn -0.03323926 0.9993708 0.01238451
vn -0.03323926 0.9993708 0.01238451
vn 0.04010922 0.7848373 -0.6184025
vn 0.04010922 0.7848373 -0.6184025
vn 0.04010922 0.7848373 -0.6184025
vn 0.07193486 0.9849162 -0.1573708
vn 0.07193486 0.9849162 -0.1573708
vn 0.07193486 0.9849162 -0.1573708
vn 0.05443941 0.9847342 -0.1653328
vn 0.05443941 0.9847342 -0.1653328
vn 0.05443941 0.9847342 -0.1653328
vn -0.02588671 0.9993297 0.02588671
vn -0.02588671 0.9993297 0.02588671
vn -0.02588671 0.9993297 0.02588671
vn -0.0244396 0.9993578 0.02620791
vn -0.02474932 0.9993873 0.02474932
vn 0 1 0
vn 0 1 0
vn 0 1 0
vn 0 1 0
vn 0 1 0
vn 0 1 0
vn 0.07531473 0.9938837 -0.0807641
vn 0.07531473 0.9938837 -0.0807641
vn 0.07531473 0.9938837 -0.0807641
vn -0.2169307 0.976187 0
vn -0.2169307 0.976187 0
vn -0.2169307 0.976187 0
vn -0.2169152 0.9761176 0.01192317
vn -0.2169152 0.9761176 0.01192317
vn -0.2169152 0.9761176 0.01192317
vn -0.3978653 0.9159724 -0.05194017
vn -0.3978653 0.9159724 -0.05194017
vn -0.3978653 0.9159724 -0.05194017
vn 0 1 0
vn 0 1 0
vn 0 1 0
vn -0.3813619 0.8532819 -0.3556306
vn -0.3813619 0.8532819 -0.3556306
vn -0.3813619 0.8532819 -0.3556306
vn -0.381362 0.8532819 -0.3556306
vn -0.3638316 0.5193449 -0.7732447
vn -0.3638316 0.5193449 -0.7732447
vn -0.3638316 0.5193449 -0.7732447
vn 0.06889853 0.9942628 0.0818206
vn 0.06889853 0.9942628 0.0818206
vn 0.06889853 0.9942628 0.0818206
vn 0.2028808 0.9774656 -0.05831257
vn 0.2028808 0.9774656 -0.05831257
vn 0.2028808 0.9774656 -0.05831257
vn 0.2292765 0.9733284 -0.008004521
vn 0.2292765 0.9733284 -0.008004521
vn 0.2292765 0.9733284 -0.008004521
vn 0.1959073 0.9804498 -0.0184014
vn 0.1959073 0.9804498 -0.0184014
vn 0.1959073 0.9804498 -0.0184014
vn 0.2368303 0.9054235 -0.3523064
vn 0.2368303 0.9054235 -0.3523064
vn 0.2368303 0.9054235 -0.3523064
vn 0.0844221 0.6954002 -0.7136465
vn 0.0844221 0.6954002 -0.7136465
vn 0.0844221 0.6954002 -0.7136465
vn 0.164315 0.6869925 -0.7078431
vn 0.164315 0.6869925 -0.7078431
vn 0.164315 0.6869925 -0.7078431
vn 0.3783077 -0.83205 -0.4056798
vn 0.3783077 -0.83205 -0.4056798
vn 0.3783077 -0.83205 -0.4056798
vn -0.3493857 0.571454 -0.7425428
vn -0.3493857 0.571454 -0.7425428
vn -0.3493857 0.571454 -0.7425428
vn -0.7313491 0 -0.6820033
vn -0.7313491 0 -0.6820033
vn -0.7313491 0 -0.6820033
vn -0.6138884 -0.2075141 -0.7616292
vn -0.6138884 -0.2075141 -0.7616292
vn -0.6138884 -0.2075141 -0.7616292
vn -0.07115658 -0.9935508 -0.08828148
vn -0.07115658 -0.9935508 -0.08828148
vn -0.07115658 -0.9935508 -0.08828148
vn -0.6642179 0.7468938 0.03105161
vn -0.6642179 0.7468938 0.03105161
vn -0.6642179 0.7468938 0.03105161
vn -0.783765 0.581471 0.2181831
vn -0.783765 0.581471 0.2181831
vn -0.783765 0.581471 0.2181831
vn -0.7448661 0.6292285 0.2219143
vn -0.7448661 0.6292285 0.2219143
vn -0.7448661 0.6292285 0.2219143
vn -0.2409904 -0.9547713 0.1741705
vn -0.2409904 -0.9547713 0.1741705
vn -0.2409904 -0.9547713 0.1741705
vn 0.07212192 0.9736449 0.2163658
vn 0.07212192 0.9736449 0.2163658
vn 0.07212192 0.9736449 0.2163658
vn 0.06409491 0.9974291 0.03204745
vn 0.06409491 0.9974291 0.03204745
vn 0.06409491 0.9974291 0.03204745
vn -0.0624222 0.9742833 0.2165077
vn -0.0624222 0.9742833 0.2165077
vn -0.0624222 0.9742833 0.2165077
vn 0.03030282 0.5800052 0.814049
vn 0.03030282 0.5800052 0.814049
vn 0.03030282 0.5800052 0.814049
vn 0.1414176 -0.9890707 0.04171626
vn 0.1414176 -0.9890707 0.04171626
vn 0.1414176 -0.9890707 0.04171626
vn 0.9993911 0 -0.03489266
vn 0.9993911 0 -0.03489266
vn 0.9993911 0 -0.03489266
vn 0.4200428 -0.8994378 -0.1207298
vn 0.4200428 -0.8994378 -0.1207298
vn 0.4200428 -0.8994378 -0.1207298
vn 0.2349633 -0.5570856 -0.7965224
vn 0.2349633 -0.5570856 -0.7965224
vn 0.2349633 -0.5570856 -0.7965224
vn 0.04911751 -0.9986879 0.014489
vn 0.04911751 -0.9986879 0.014489
vn 0.04911751 -0.9986879 0.014489
vn 0.2349633 -0.5570856 -0.7965224
vn 0.2349633 -0.5570856 -0.7965224
vn 0.2349633 -0.5570856 -0.7965224
vn 0.01564062 -0.9984708 -0.05302151
vn 0.01564062 -0.9984708 -0.05302151
vn 0.01564062 -0.9984708 -0.05302151
vn -0.07526047 -0.9955038 -0.05751552
vn -0.07526047 -0.9955038 -0.05751552
vn -0.07526047 -0.9955038 -0.05751552
vn 0.03078798 -0.9927966 0.1157882
vn 0.03078798 -0.9927966 0.1157882
vn 0.03078798 -0.9927966 0.1157882
vn -0.04652857 -0.9950104 -0.08825772
vn -0.04652857 -0.9950104 -0.08825772
vn -0.04652857 -0.9950104 -0.08825772
vn -0.04810506 -0.9938077 0.1001599
vn -0.04810506 -0.9938077 0.1001599
vn -0.04810506 -0.9938077 0.1001599
vn -0.1315993 -0.9677069 0.2149997
vn -0.1315993 -0.9677069 0.2149997
vn -0.1315993 -0.9677069 0.2149997
vn -0.1254925 -0.9626305 -0.2399883
vn -0.1254925 -0.9626305 -0.2399883
vn -0.1254925 -0.9626305 -0.2399883
vn -0.1136562 -0.9814748 -0.1542388
vn -0.1136562 -0.9814748 -0.1542388
vn -0.1136562 -0.9814748 -0.1542388
vn -0.6218354 -0.6901364 -0.370179
vn -0.6218354 -0.6901364 -0.370179
vn -0.6218354 -0.6901364 -0.370179
vn 0.5723608 -0.4653785 0.6751489
vn 0.5723608 -0.4653785 0.6751489
vn 0.5723608 -0.4653785 0.6751489
vn 0.1573098 -0.9874637 -0.01300486
vn 0.1573098 -0.9874637 -0.01300486
vn 0.1573098 -0.9874637 -0.01300486
vn 0.5554914 -0.3055677 0.773342
vn 0.5554914 -0.3055677 0.773342
vn 0.5554914 -0.3055677 0.773342
vn 0.5207342 -0.6585147 0.5433178
vn 0.5207342 -0.6585147 0.5433178
vn 0.5207342 -0.6585147 0.5433178
vn 0.9093516 0.3179991 0.2682463
vn 0.9093516 0.3179991 0.2682463
vn 0.9093516 0.3179991 0.2682463
vn 0.201232 -0.8574014 -0.4736754
vn 0.201232 -0.8574014 -0.4736754
vn 0.201232 -0.8574014 -0.4736754
vn 0.3178578 0.9348661 -0.1580874
vn 0.3178578 0.9348661 -0.1580874
vn 0.3178578 0.9348661 -0.1580874
vn 0.2902235 0.9223947 -0.254869
vn 0.2902235 0.9223947 -0.254869
vn 0.2902235 0.9223947 -0.254869
vn 0.4003612 0.8700626 -0.2875794
vn 0.4003612 0.8700626 -0.2875794
vn 0.4003612 0.8700626 -0.2875794
vn -0.1029445 -0.9911857 -0.08338658
vn -0.1029445 -0.9911857 -0.08338658
vn -0.1029445 -0.9911857 -0.08338658
vn 0.2252022 -0.9191523 -0.3231769
vn 0.2252022 -0.9191523 -0.3231769
vn 0.2252022 -0.9191523 -0.3231769
vn 0.1615181 -0.9214425 -0.3533491
vn 0.1615181 -0.9214425 -0.3533491
vn 0.1615181 -0.9214425 -0.3533491
vn 0.03761807 0.4386328 -0.8978787
vn 0.03761807 0.4386328 -0.8978787
vn 0.03761807 0.4386328 -0.8978787
vn -0.2832284 -0.927687 0.2432661
vn -0.2832284 -0.927687 0.2432661
vn -0.2832284 -0.927687 0.2432661
vn -0.06333186 -0.9914474 -0.1141097
vn -0.06333186 -0.9914474 -0.1141097
vn -0.06333186 -0.9914474 -0.1141097
vn -0.2975157 -0.9528093 0.06032441
vn -0.2975157 -0.9528093 0.06032441
vn -0.2975157 -0.9528093 0.06032441
vn -0.9122484 -0.3487425 -0.2148986
vn -0.9122484 -0.3487425 -0.2148986
vn -0.9122484 -0.3487425 -0.2148986
vn 0.09688549 0.8449293 0.5260301
vn 0.09688549 0.8449293 0.5260301
vn 0.09688549 0.8449293 0.5260301
vn -0.5484818 -0.8188294 -0.1693701
vn -0.5484818 -0.8188294 -0.1693701
vn -0.5484818 -0.8188294 -0.1693701
vn -0.1741982 0.9201716 0.3506269
vn -0.1741982 0.9201716 0.3506269
vn -0.1741982 0.9201716 0.3506269
vn -0.05015779 -0.6771298 0.7341522
vn -0.05015779 -0.6771298 0.7341522
vn -0.05015779 -0.6771298 0.7341522
vn 0.2093013 0.9759001 0.06174104
vn 0.2093013 0.9759001 0.06174104
vn 0.2093013 0.9759001 0.06174104
vn 0.287579 0.870063 0.4003608
vn 0.287579 0.870063 0.4003608
vn 0.287579 0.870063 0.4003608
vn 0.1876127 0.9784921 0.08575896
vn 0.1876127 0.9784921 0.08575896
vn 0.1876127 0.9784921 0.08575896
vn 0.06899154 0.9971187 0.03153647
vn 0.06899154 0.9971187 0.03153647
vn 0.06899154 0.9971187 0.03153647
g Icosphere_(32)_0
f 3/3/3 2/2/2 1/1/1
f 6/6/6 5/5/5 4/4/4
f 9/9/9 8/8/8 7/7/7
f 12/12/12 11/11/11 10/10/10
f 15/15/15 14/14/14 13/13/13
f 16/16/16 15/15/15 13/13/13
f 16/16/16 13/13/13 17/17/17
f 17/17/17 19/19/19 18/18/18
f 18/18/18 19/19/19 20/20/20
f 19/19/19 21/21/21 20/20/20
f 18/18/18 20/20/20 22/22/22
f 20/20/20 21/21/21 23/23/23
f 26/26/26 25/25/25 24/24/24
f 29/29/29 28/28/28 27/27/27
f 32/32/32 31/31/31 30/30/30
f 35/35/35 34/34/34 33/33/33
f 38/38/38 37/37/37 36/36/36
f 41/41/41 40/40/40 39/39/39
f 39/39/39 40/40/40 42/42/42
f 45/45/45 44/44/44 43/43/43
f 48/48/48 47/47/47 46/46/46
f 51/51/51 50/50/50 49/49/49
f 54/54/54 53/53/53 52/52/52
f 57/57/57 56/56/56 55/55/55
f 60/60/60 59/59/59 58/58/58
f 63/63/63 62/62/62 61/61/61
f 66/66/66 65/65/65 64/64/64
f 69/69/69 68/68/68 67/67/67
f 72/72/72 71/71/71 70/70/70
f 75/75/75 74/74/74 73/73/73
f 78/78/78 77/77/77 76/76/76
f 81/81/81 80/80/80 79/79/79
f 84/84/84 83/83/83 82/82/82
f 87/87/87 86/86/86 85/85/85
f 90/90/90 89/89/89 88/88/88
f 93/93/93 92/92/92 91/91/91
f 96/96/96 95/95/95 94/94/94
f 99/99/99 98/98/98 97/97/97
f 102/102/102 101/101/101 100/100/100
f 105/105/105 104/104/104 103/103/103
f 108/108/108 107/107/107 106/106/106
f 111/111/111 110/110/110 109/109/109
f 114/114/114 113/113/113 112/112/112
f 117/117/117 116/116/116 115/115/115
f 120/120/120 119/119/119 118/118/118
f 123/123/123 122/122/122 121/121/121
f 126/126/126 125/125/125 124/124/124
f 129/129/129 128/128/128 127/127/127
f 132/132/132 131/131/131 130/130/130
f 135/135/135 134/134/134 133/133/133
f 138/138/138 137/137/137 136/136/136
f 141/141/141 140/140/140 139/139/139
f 144/144/144 143/143/143 142/142/142
f 147/147/147 146/146/146 145/145/145
f 150/150/150 149/149/149 148/148/148
f 153/153/153 152/152/152 151/151/151
f 156/156/156 155/155/155 154/154/154
f 159/159/159 158/158/158 157/157/157
f 162/162/162 161/161/161 160/160/160
f 165/165/165 164/164/164 163/163/163
f 168/168/168 167/167/167 166/166/166
f 171/171/171 170/170/170 169/169/169
f 174/174/174 173/173/173 172/172/172
f 177/177/177 176/176/176 175/175/175
f 180/180/180 179/179/179 178/178/178
f 183/183/183 182/182/182 181/181/181
f 186/186/186 185/185/185 184/184/184
f 189/189/189 188/188/188 187/187/187
f 192/192/192 191/191/191 190/190/190
f 195/195/195 194/194/194 193/193/193
f 198/198/198 197/197/197 196/196/196
f 201/201/201 200/200/200 199/199/199
f 204/204/204 203/203/203 202/202/202
f 207/207/207 206/206/206 205/205/205
f 210/210/210 209/209/209 208/208/208
f 213/213/213 212/212/212 211/211/211
f 216/216/216 215/215/215 214/214/214
f 219/219/219 218/218/218 217/217/217
f 222/222/222 221/221/221 220/220/220
f 225/225/225 224/224/224 223/223/223
