g Icosphere_(29)
v -131.5 286 281.5
v -131 286 280
v -130 286 281
v -131 285 284
v -130 286 281
v -129 281 282
v -131.5 286 281.5
v -130 286 281
v -131 285 284
v -132 285 283.5
v -131.5 286 281.5
v -131 285 284
v -132.5 287 280
v -131 286 280
v -131.5 286 281.5
v -130.5 286 278.5
v -133.5 287 281.5
v -131.5 286 281.5
v -132 285 283.5
v -132.5 287 280
v -131.5 286 281.5
v -133.5 287 281.5
v -134.5 287 280
v -132.5 287 280
v -133.5 287 281.5
v -134 286 278
v -132.5 287 280
v -134.5 287 280
v -130.5 286 278.5
v -132.5 287 280
v -134 286 278
v -132 286 276
v -130.5 286 278.5
v -134 286 278
v -129 286 279
v -131 286 280
v -130.5 286 278.5
v -130 286 278
v -130.5 286 278.5
v -132 286 276
v -129 286 279
v -127 284 278
v -129 286 279
v -130 286 278
v -130 286 281
v -131 286 280
v -129 286 279
v -128 281 279.5
v -129 286 279
v -127 284 278
v -130 286 281
v -129 286 279
v -128 281 279.5
v -129 281 282
v -130 286 281
v -128 281 279.5
v -137.5 286 281.5
v -134.5 287 280
v -133.5 287 281.5
v -133.5 285 283
v -133.5 287 281.5
v -132 285 283.5
v -137.5 286 281.5
v -133.5 287 281.5
v -133.5 285 283
v -137.5 281 283
v -137.5 286 281.5
v -133.5 285 283
v -131.5 281 285
v -132 285 283.5
v -131 285 284
v -130.5 279 283.5
v -131 285 284
v -129 281 282
v -131.5 281 285
v -131 285 284
v -130.5 279 283.5
v -132 277 284.5
v -131.5 281 285
v -130.5 279 283.5
v -128 277 282
v -129 281 282
v -128 281 279.5
v -126.5 277 278.5
v -126.5 277 278.5
v -128 281 279.5
v -127 284 278
v -125.5 275 280
v -128 277 282
v -126.5 277 278.5
v -128 284 276
v -127 284 278
v -130 286 278
v -130 285 274
v -130 286 278
v -132 286 276
v -128 284 276
v -130 286 278
v -130 285 274
v -130.5 277 273
v -128 284 276
v -130 285 274
v -135.5 286 276
v -132 286 276
v -134 286 278
v -137 287 279
v -134 286 278
v -134.5 287 280
v -135.5 286 276
v -134 286 278
v -137 287 279
v -138 281 278
v -135.5 286 276
v -137 287 279
v -132 275 286
v -135 275 281.5
v -138.5 277 284
v -135.5 279 284
v -138.5 277 284
v -137.5 281 283
v -132 275 286
v -138.5 277 284
v -135.5 279 284
v -132 277 284.5
v -132 275 286
v -135.5 279 284
v -132.6823 274.1558 280
v -135 275 281.5
v -132 275 286
v -128 275 284.5
v -132 275 286
v -132 277 284.5
v -132.6823 274.1558 280
v -132 275 286
v -128 275 284.5
v -125.5 275 280
v -132.6823 274.1558 280
v -128 275 284.5
v -126.5 275 275
v -133.6712 275.3781 278.4
v -135 275 281.5
v -132.6823 274.1558 280
v -133.6712 275.3781 278.4
v -132.6823 274.1558 280
v -126.5 275 275
v -130.5 277 273
v -137.5 270 276
v -135 275 281.5
v -133.6712 275.3781 278.4
v -135.5 272 272.5
v -133.6712 275.3781 278.4
v -130.5 277 273
v -137.5 270 276
v -133.6712 275.3781 278.4
v -135.5 272 272.5
v -138 281 278
v -137.5 270 276
v -135.5 272 272.5
v -138.5 277 284
v -135 275 281.5
v -137.5 270 276
v -139 281 281.5
v -137.5 270 276
v -138 281 278
v -138.5 277 284
v -137.5 270 276
v -139 281 281.5
v -137.5 281 283
v -138.5 277 284
v -139 281 281.5
v -131.5 281 285
v -132 277 284.5
v -135.5 279 284
v -133.5 285 283
v -135.5 279 284
v -137.5 281 283
v -131.5 281 285
v -135.5 279 284
v -133.5 285 283
v -132 285 283.5
v -131.5 281 285
v -133.5 285 283
v -128 277 282
v -125.5 275 280
v -128 275 284.5
v -130.5 279 283.5
v -128 275 284.5
v -132 277 284.5
v -128 277 282
v -128 275 284.5
v -130.5 279 283.5
v -129 281 282
v -128 277 282
v -130.5 279 283.5
v -128 284 276
v -130.5 277 273
v -126.5 275 275
v -126.5 277 278.5
v -126.5 275 275
v -125.5 275 280
v -128 284 276
v -126.5 275 275
v -126.5 277 278.5
v -127 284 278
v -128 284 276
v -126.5 277 278.5
v -135.5 286 276
v -138 281 278
v -135.5 272 272.5
v -130 285 274
v -135.5 272 272.5
v -130.5 277 273
v -135.5 286 276
v -135.5 272 272.5
v -130 285 274
v -132 286 276
v -135.5 286 276
v -130 285 274
v -137.5 286 281.5
v -137.5 281 283
v -139 281 281.5
v -137 287 279
v -139 281 281.5
v -138 281 278
v -137.5 286 281.5
v -139 281 281.5
v -137 287 279
v -134.5 287 280
v -137.5 286 281.5
v -137 287 279
vt -1.977709 3.2
vt -3.364679 0
vt -5.177709 1.977709
vt -5.177709 1.977709
vt -1.977709 3.2
vt -3.364679 0
vt 1.977709 5.177709
vt 5.177709 3.2
vt 3.2 1.977709
vt 0 3.364679
vt 1.977709 5.177709
vt 3.2 1.977709
vt 0 0
vt -3.364679 0
vt -1.977709 3.2
vt -1.977709 -3.2
vt 1.977709 3.2
vt -1.977709 3.2
vt 0 5.444165
vt 0 0
vt -1.977709 3.2
vt 1.977709 3.2
vt 3.364679 0
vt 0 0
vt 1.977709 3.2
vt 1.977709 -3.2
vt 0 0
vt 3.364679 0
vt -1.977709 -3.2
vt 0 0
vt 1.977709 -3.2
vt 0 -5.444165
vt -1.977709 -3.2
vt 1.977709 -3.2
vt -5.177709 -1.977709
vt -3.364679 0
vt -1.977709 -3.2
vt -3.2 1.977709
vt -1.977709 5.177709
vt 0 3.364679
vt -5.177709 3.2
vt 3.364679 0
vt 1.977709 3.2
vt 5.177709 1.977709
vt -1.977709 3.2
vt 0 5.444165
vt 1.977709 3.2
vt 0 0
vt 1.977709 3.2
vt 3.364679 0
vt -1.977709 3.2
vt 1.977709 3.2
vt 0 0
vt -3.364679 0
vt -1.977709 3.2
vt 0 0
vt 5.177709 1.977709
vt 3.364679 0
vt 1.977709 3.2
vt -3.2 1.977709
vt -1.977709 5.177709
vt 0 3.364679
vt -5.177709 3.2
vt -1.977709 5.177709
vt -3.2 1.977709
vt 3.364679 0
vt 1.977709 3.2
vt 5.177709 1.977709
vt 0 0
vt 0 3.364679
vt 3.2 1.977709
vt 3.2 -1.977709
vt 3.2 1.977709
vt 5.444165 0
vt 0 0
vt 3.2 1.977709
vt 3.2 -1.977709
vt 0 -3.364679
vt 0 0
vt 3.2 -1.977709
vt -1.977709 -3.2
vt -3.364679 0
vt 0 0
vt 1.977709 -3.2
vt 1.977709 -3.2
vt 0 0
vt 3.364679 0
vt 0 -5.444165
vt -1.977709 -3.2
vt 1.977709 -3.2
vt -3.2 -1.977709
vt -5.444165 0
vt -3.2 1.977709
vt 0 0
vt -3.2 1.977709
vt 0 3.364679
vt -3.2 -1.977709
vt -3.2 1.977709
vt 0 0
vt 0 -3.364679
vt -3.2 -1.977709
vt 0 0
vt 3.2 1.977709
vt 0 3.364679
vt 1.977709 5.177709
vt 5.177709 -1.977709
vt 1.977709 -3.2
vt 3.364679 0
vt 3.2 1.977709
vt 1.977709 5.177709
vt 5.177709 3.2
vt -3.364679 0
vt -5.177709 1.977709
vt -1.977709 3.2
vt -1.977709 3.2
vt -3.364679 0
vt -5.177709 1.977709
vt 5.177709 -1.977709
vt 1.977709 -3.2
vt 3.364679 0
vt -1.977709 -5.177709
vt -5.177709 -3.2
vt -3.2 -1.977709
vt 0 -3.364679
vt -1.977709 -5.177709
vt -3.2 -1.977709
vt 0 0
vt -3.364679 0
vt -1.977709 3.2
vt 1.977709 3.2
vt -1.977709 3.2
vt 0 5.444165
vt 0 0
vt -1.977709 3.2
vt 1.977709 3.2
vt 3.364679 0
vt 0 0
vt 1.977709 3.2
vt 1.977709 -3.2
vt -1.977709 -3.2
vt -3.364679 0
vt 0 0
vt -1.977709 -3.2
vt 0 0
vt 1.977709 -3.2
vt 0 -5.444165
vt -5.177709 -1.977709
vt -3.364679 0
vt -1.977709 -3.2
vt 3.2 -1.977709
vt 1.977709 -5.177709
vt 0 -3.364679
vt 5.177709 -3.2
vt 1.977709 -5.177709
vt 3.2 -1.977709
vt -3.364679 0
vt -1.977709 -3.2
vt -5.177709 -1.977709
vt 1.977709 -3.2
vt 0 -5.444165
vt -1.977709 -3.2
vt 0 0
vt -1.977709 -3.2
vt -3.364679 0
vt 1.977709 -3.2
vt -1.977709 -3.2
vt 0 0
vt 3.364679 0
vt 1.977709 -3.2
vt 0 0
vt 0 0
vt 0 -3.364679
vt -3.2 -1.977709
vt -3.2 1.977709
vt -3.2 -1.977709
vt -5.444165 0
vt 0 0
vt -3.2 -1.977709
vt -3.2 1.977709
vt 0 3.364679
vt 0 0
vt -3.2 1.977709
vt 5.177709 1.977709
vt 3.364679 0
vt 1.977709 3.2
vt 3.2 -1.977709
vt 1.977709 -5.177709
vt 0 -3.364679
vt 5.177709 -3.2
vt 1.977709 -5.177709
vt 3.2 -1.977709
vt -3.364679 0
vt -1.977709 -3.2
vt -5.177709 -1.977709
vt -3.2 -1.977709
vt 0 -3.364679
vt -1.977709 -5.177709
vt 5.177709 -1.977709
vt 1.977709 -3.2
vt 3.364679 0
vt -3.2 -1.977709
vt -1.977709 -5.177709
vt -5.177709 -3.2
vt 3.364679 0
vt 5.177709 -1.977709
vt 1.977709 -3.2
vt 3.2 1.977709
vt 5.444165 0
vt 3.2 -1.977709
vt 0 0
vt 3.2 -1.977709
vt 0 -3.364679
vt 3.2 1.977709
vt 3.2 -1.977709
vt 0 0
vt 0 3.364679
vt 3.2 1.977709
vt 0 0
vt 1.977709 3.2
vt 3.364679 0
vt 0 0
vt -1.977709 3.2
vt 0 0
vt -3.364679 0
vt 1.977709 3.2
vt 0 0
vt -1.977709 3.2
vt 0 5.444165
vt 1.977709 3.2
vt -1.977709 3.2
vn 0 1 0
vn 0 1 0
vn 0 1 0
vn 0.6337502 0.724286 0.2716073
vn 0.6337502 0.724286 0.2716073
vn 0.6337502 0.724286 0.2716073
vn 0.03109853 0.9951527 0.09329557
vn 0.03109853 0.9951527 0.09329557
vn 0.03109853 0.9951527 0.09329557
vn -0.05513179 0.9923722 0.1102636
vn -0.05513179 0.9923722 0.1102636
vn -0.05513179 0.9923722 0.1102636
vn 0.1641527 0.9849162 0.05471757
vn 0.1641527 0.9849162 0.05471757
vn 0.1641527 0.9849162 0.05471757
vn 0.1641527 0.9849162 0.05471757
vn 0.1225703 0.9805623 0.1532128
vn 0.1225703 0.9805623 0.1532128
vn 0.1225703 0.9805623 0.1532128
vn 0.1236128 0.9889027 0.08240855
vn 0.1236128 0.9889027 0.08240855
vn 0.1236128 0.9889027 0.08240855
vn 0 1 0
vn 0 1 0
vn 0 1 0
vn 0 0.9922779 -0.1240347
vn 0 0.9922779 -0.1240347
vn 0 0.9922779 -0.1240347
vn 0.01980295 0.9901475 -0.1386207
vn 0.01980295 0.9901475 -0.1386207
vn 0.01980295 0.9901475 -0.1386207
vn 0 1 0
vn 0 1 0
vn 0 1 0
vn 0 1 0
vn 0 1 0
vn 0 1 0
vn 0 1 0
vn 0 1 0
vn 0 1 0
vn 0 1 0
vn 0.1622215 0.9733285 -0.1622215
vn 0.1622215 0.9733285 -0.1622215
vn 0.1622215 0.9733285 -0.1622215
vn 0 1 0
vn 0 1 0
vn 0 1 0
vn 0.4685213 0.6246951 0.6246951
vn 0.4685213 0.6246951 0.6246951
vn 0.4685213 0.6246951 0.6246951
vn 0.6666667 0.6666667 0.3333333
vn 0.6666667 0.6666667 0.3333333
vn 0.6666667 0.6666667 0.3333333
vn 0.6435694 0.7207977 0.2574278
vn 0.6435694 0.7207977 0.2574278
vn 0.6435694 0.7207977 0.2574278
vn -0.06232442 0.9971907 0.04154961
vn -0.06232442 0.9971907 0.04154961
vn -0.06232442 0.9971907 0.04154961
vn -0.1048285 0.9434564 0.3144855
vn -0.1048285 0.9434564 0.3144855
vn -0.1048285 0.9434564 0.3144855
vn -0.05918876 0.9470201 0.3156734
vn -0.05918876 0.9470201 0.3156734
vn -0.05918876 0.9470201 0.3156734
vn -0.1886084 0.7544336 0.6286947
vn -0.1886084 0.7544336 0.6286947
vn -0.1886084 0.7544336 0.6286947
vn -0.2981424 0.745356 0.5962848
vn -0.2981424 0.745356 0.5962848
vn -0.2981424 0.745356 0.5962848
vn 0.7071068 0 0.7071068
vn 0.7071068 0 0.7071068
vn 0.7071068 0 0.7071068
vn 0.843274 0.1054092 0.5270463
vn 0.843274 0.1054092 0.5270463
vn 0.843274 0.1054092 0.5270463
vn 0.5773503 -0.5773503 0.5773503
vn 0.5773503 -0.5773503 0.5773503
vn 0.5773503 -0.5773503 0.5773503
vn 0.6804138 0.6804138 0.2721655
vn 0.6804138 0.6804138 0.2721655
vn 0.6804138 0.6804138 0.2721655
vn 0.6548924 0.7016704 0.2806681
vn 0.6741053 0.374503 0.636655
vn 0.6741053 0.374503 0.636655
vn 0.6741053 0.374503 0.636655
vn 0.2889209 0.9493116 0.1238232
vn 0.2889209 0.9493116 0.1238232
vn 0.2889209 0.9493116 0.1238232
vn 0.1638464 0.9830783 -0.08192319
vn 0.1638464 0.9830783 -0.08192319
vn 0.1638464 0.9830783 -0.08192319
vn 0.06225728 0.9961165 -0.06225728
vn 0.06225728 0.9961165 -0.06225728
vn 0.06225728 0.9961165 -0.06225728
vn 0.1839418 0.9810229 -0.06131393
vn 0.1839418 0.9810229 -0.06131393
vn 0.1839418 0.9810229 -0.06131393
vn 0.707566 0.1664861 -0.6867552
vn 0.707566 0.1664861 -0.6867552
vn 0.707566 0.1664861 -0.6867552
vn 0 1 0
vn 0 1 0
vn 0 1 0
vn 0.04511788 0.9925935 -0.1127947
vn 0.04511788 0.9925935 -0.1127947
vn 0.04511788 0.9925935 -0.1127947
vn 0.06643638 0.9965457 -0.04982728
vn 0.06643638 0.9965457 -0.04982728
vn 0.06643638 0.9965457 -0.04982728
vn -0.6366549 0.6741053 -0.374503
vn -0.6366549 0.6741053 -0.374503
vn -0.6366549 0.6741053 -0.374503
vn -0.0961262 -0.9933041 0.06408413
vn -0.0961262 -0.9933041 0.06408413
vn -0.0961262 -0.9933041 0.06408413
vn -0.1270001 0.7620007 0.6350007
vn -0.1270001 0.7620007 0.6350007
vn -0.1270001 0.7620007 0.6350007
vn -0.1295727 0.7774362 0.6154705
vn -0.1295727 0.7774362 0.6154705
vn -0.1295727 0.7774362 0.6154705
vn 0.08998426 0.9448347 0.314945
vn 0.08998426 0.9448347 0.314945
vn 0.08998426 0.9448347 0.314945
vn -0.06342643 -0.9970903 0.04228429
vn -0.06342643 -0.9970903 0.04228429
vn -0.06342643 -0.9970903 0.04228429
vn 0.1177603 0.9420824 0.3140275
vn 0.1177603 0.9420824 0.3140275
vn 0.1177603 0.9420824 0.3140275
vn 0.01264239 -0.9993516 0.03371304
vn 0.01264239 -0.9993516 0.03371304
vn 0.01264239 -0.9993516 0.03371304
vn 0.02936679 -0.9994355 0.01631489
vn 0.02936679 -0.9994355 0.01631489
vn 0.02936679 -0.9994355 0.01631489
vn 0.0293702 -0.9995514 -0.005874041
vn -0.1508793 -0.9840077 -0.09468034
vn -0.1508793 -0.9840077 -0.09468034
vn -0.1508793 -0.9840077 -0.09468034
vn -0.079184 -0.9870411 -0.1395698
vn -0.079184 -0.9870411 -0.1395698
vn -0.079184 -0.9870411 -0.1395698
vn -0.06701361 -0.9912429 -0.1137835
vn 0.2790209 -0.9560159 0.09044868
vn 0.2790209 -0.9560159 0.09044868
vn 0.2790209 -0.9560159 0.09044868
vn 0.2358245 -0.9695731 0.06568775
vn 0.2358245 -0.9695731 0.06568775
vn 0.2358245 -0.9695731 0.06568775
vn 0.3083888 -0.9503999 0.04045075
vn 0.3083888 -0.9503999 0.04045075
vn 0.3083888 -0.9503999 0.04045075
vn -0.8646055 0.1830929 -0.4679042
vn -0.8646055 0.1830929 -0.4679042
vn -0.8646055 0.1830929 -0.4679042
vn 0.01435917 -0.9764231 0.2153875
vn 0.01435917 -0.9764231 0.2153875
vn 0.01435917 -0.9764231 0.2153875
vn -0.9612243 0.02496686 -0.2746354
vn -0.9612243 0.02496686 -0.2746354
vn -0.9612243 0.02496686 -0.2746354
vn -0.8852705 -0.4649906 -0.008942126
vn -0.8852705 -0.4649906 -0.008942126
vn -0.8852705 -0.4649906 -0.008942126
vn -0.4082482 0.8164966 0.4082482
vn -0.4082482 0.8164966 0.4082482
vn -0.4082482 0.8164966 0.4082482
vn -0.1825742 -0.3651484 0.9128709
vn -0.1825742 -0.3651484 0.9128709
vn -0.1825742 -0.3651484 0.9128709
vn -0.1740776 0.6963106 0.6963106
vn -0.1740776 0.6963106 0.6963106
vn -0.1740776 0.6963106 0.6963106
vn -0.2480695 0.7442085 0.6201737
vn -0.2480695 0.7442085 0.6201737
vn -0.2480695 0.7442085 0.6201737
vn -0.1961161 0.7844645 0.5883483
vn -0.1961161 0.7844645 0.5883483
vn -0.1961161 0.7844645 0.5883483
vn 0.3328771 0.9246584 0.1849317
vn 0.3328771 0.9246584 0.1849317
vn 0.3328771 0.9246584 0.1849317
vn 0.1024631 0.8197049 0.563547
vn 0.1024631 0.8197049 0.563547
vn 0.1024631 0.8197049 0.563547
vn 0.2993925 0.9356014 0.1871203
vn 0.2993925 0.9356014 0.1871203
vn 0.2993925 0.9356014 0.1871203
vn 0.5144958 0.5144958 0.6859943
vn 0.5144958 0.5144958 0.6859943
vn 0.5144958 0.5144958 0.6859943
vn 0.4194984 0.5872978 -0.6921723
vn 0.4194984 0.5872978 -0.6921723
vn 0.4194984 0.5872978 -0.6921723
vn 0.5773502 0.8082904 -0.1154701
vn 0.5773502 0.8082904 -0.1154701
vn 0.5773502 0.8082904 -0.1154701
vn 0.8118839 0.5779513 -0.08256446
vn 0.8118839 0.5779513 -0.08256446
vn 0.8118839 0.5779513 -0.08256446
vn 0.8872139 0.1267449 -0.4436071
vn 0.8872139 0.1267449 -0.4436071
vn 0.8872139 0.1267449 -0.4436071
vn -0.676753 0.5205792 -0.5205792
vn -0.676753 0.5205792 -0.5205792
vn -0.676753 0.5205792 -0.5205792
vn -0.0237809 0.4518369 -0.8917835
vn -0.0237809 0.4518369 -0.8917835
vn -0.0237809 0.4518369 -0.8917835
vn -0.2195015 0.689862 -0.689862
vn -0.2195015 0.689862 -0.689862
vn -0.2195015 0.689862 -0.689862
vn 0 0.9922779 -0.1240347
vn 0 0.9922779 -0.1240347
vn 0 0.9922779 -0.1240347
vn -0.5391639 0.6469966 0.5391639
vn -0.5391639 0.6469966 0.5391639
vn -0.5391639 0.6469966 0.5391639
vn -0.7419985 0.6359988 -0.2119995
vn -0.7419985 0.6359988 -0.2119995
vn -0.7419985 0.6359988 -0.2119995
vn -0.6393464 0.7672158 -0.0511477
vn -0.6393464 0.7672158 -0.0511477
vn -0.6393464 0.7672158 -0.0511477
vn -0.03685423 0.9950642 0.09213557
vn -0.03685423 0.9950642 0.09213557
vn -0.03685423 0.9950642 0.09213557
g Icosphere_(29)_0
f 3/3/3 2/2/2 1/1/1
f 6/6/6 5/5/5 4/4/4
f 9/9/9 8/8/8 7/7/7
f 12/12/12 11/11/11 10/10/10
f 15/15/15 14/14/14 13/13/13
f 13/13/13 14/14/14 16/16/16
f 19/19/19 18/18/18 17/17/17
f 22/22/22 21/21/21 20/20/20
f 25/25/25 24/24/24 23/23/23
f 28/28/28 27/27/27 26/26/26
f 31/31/31 30/30/30 29/29/29
f 34/34/34 33/33/33 32/32/32
f 37/37/37 36/36/36 35/35/35
f 40/40/40 39/39/39 38/38/38
f 38/38/38 39/39/39 41/41/41
f 44/44/44 43/43/43 42/42/42
f 47/47/47 46/46/46 45/45/45
f 50/50/50 49/49/49 48/48/48
f 53/53/53 52/52/52 51/51/51
f 56/56/56 55/55/55 54/54/54
f 59/59/59 58/58/58 57/57/57
f 62/62/62 61/61/61 60/60/60
f 65/65/65 64/64/64 63/63/63
f 68/68/68 67/67/67 66/66/66
f 71/71/71 70/70/70 69/69/69
f 74/74/74 73/73/73 72/72/72
f 77/77/77 76/76/76 75/75/75
f 80/80/80 79/79/79 78/78/78
f 83/83/83 82/82/82 81/81/81
f 84/84/84 83/83/83 81/81/81
f 87/87/87 86/86/86 85/85/85
f 90/90/90 89/89/89 88/88/88
f 93/93/93 92/92/92 91/91/91
f 96/96/96 95/95/95 94/94/94
f 99/99/99 98/98/98 97/97/97
f 102/102/102 101/101/101 100/100/100
f 105/105/105 104/104/104 103/103/103
f 108/108/108 107/107/107 106/106/106
f 111/111/111 110/110/110 109/109/109
f 114/114/114 113/113/113 112/112/112
f 117/117/117 116/116/116 115/115/115
f 120/120/120 119/119/119 118/118/118
f 123/123/123 122/122/122 121/121/121
f 126/126/126 125/125/125 124/124/124
f 129/129/129 128/128/128 127/127/127
f 132/132/132 131/131/131 130/130/130
f 135/135/135 134/134/134 133/133/133
f 138/138/138 137/137/137 136/136/136
f 136/136/136 137/137/137 139/139/139
f 142/142/142 141/141/141 140/140/140
f 145/145/145 144/144/144 143/143/143
f 145/145/145 143/143/143 146/146/146
f 149/149/149 148/148/148 147/147/147
f 152/152/152 151/151/151 150/150/150
f 155/155/155 154/154/154 153/153/153
f 158/158/158 157/157/157 156/156/156
f 161/161/161 160/160/160 159/159/159
f 164/164/164 163/163/163 162/162/162
f 167/167/167 166/166/166 165/165/165
f 170/170/170 169/169/169 168/168/168
f 173/173/173 172/172/172 171/171/171
f 176/176/176 175/175/175 174/174/174
f 179/179/179 178/178/178 177/177/177
f 182/182/182 181/181/181 180/180/180
f 185/185/185 184/184/184 183/183/183
f 188/188/188 187/187/187 186/186/186
f 191/191/191 190/190/190 189/189/189
f 194/194/194 193/193/193 192/192/192
f 197/197/197 196/196/196 195/195/195
f 200/200/200 199/199/199 198/198/198
f 203/203/203 202/202/202 201/201/201
f 206/206/206 205/205/205 204/204/204
f 209/209/209 208/208/208 207/207/207
f 212/212/212 211/211/211 210/210/210
f 215/215/215 214/214/214 213/213/213
f 218/218/218 217/217/217 216/216/216
f 221/221/221 220/220/220 219/219/219
f 224/224/224 223/223/223 222/222/222
f 227/227/227 226/226/226 225/225/225
f 230/230/230 229/229/229 228/228/228
