g Icosphere_(38)
v -75.90152 288.69 255.4068
v -71.39001 288.69 254.46
v -73.2969 287.69 257.5201
v -80.95367 286.69 258.7944
v -73.2969 287.69 257.5201
v -75.20378 283.69 260.5801
v -75.90152 288.69 255.4068
v -73.2969 287.69 257.5201
v -80.95367 286.69 258.7944
v -81.77926 287.69 256.9727
v -75.90152 288.69 255.4068
v -80.95367 286.69 258.7944
v -72.6284 289.69 251.7275
v -71.39001 288.69 254.46
v -75.90152 288.69 255.4068
v -66.87851 288.69 253.5132
v -77.5527 289.69 251.7635
v -75.90152 288.69 255.4068
v -81.77926 287.69 256.9727
v -72.6284 289.69 251.7275
v -75.90152 288.69 255.4068
v -77.5527 289.69 251.7635
v -74.27958 289.69 248.0842
v -72.6284 289.69 251.7275
v -77.5527 289.69 251.7635
v -69.76808 289.69 247.1375
v -73.61108 289.69 242.2917
v -66.87851 288.69 253.5132
v -72.6284 289.69 251.7275
v -69.76808 289.69 247.1375
v -63.06475 289.69 247.3932
v -66.87851 288.69 253.5132
v -69.76808 289.69 247.1375
v -67.00636 287.69 256.8649
v -71.39001 288.69 254.46
v -66.87851 288.69 253.5132
v -63.73324 288.69 253.1857
v -66.87851 288.69 253.5132
v -63.06475 289.69 247.3932
v -67.00636 287.69 256.8649
v -66.87851 288.69 253.5132
v -63.73324 288.69 253.1857
v -63.86109 285.69 256.5374
v -67.00636 287.69 256.8649
v -63.73324 288.69 253.1857
v -73.2969 287.69 257.5201
v -71.39001 288.69 254.46
v -67.00636 287.69 256.8649
v -67.547 283.69 259.3058
v -67.00636 287.69 256.8649
v -63.86109 285.69 256.5374
v -73.2969 287.69 257.5201
v -67.00636 287.69 256.8649
v -67.547 283.69 259.3058
v -75.20378 283.69 260.5801
v -73.2969 287.69 257.5201
v -67.547 283.69 259.3058
v -80.85506 288.69 244.4769
v -74.27958 289.69 248.0842
v -77.5527 289.69 251.7635
v -81.65141 287.69 253.621
v -77.5527 289.69 251.7635
v -81.77926 287.69 256.9727
v -80.85506 288.69 244.4769
v -77.5527 289.69 251.7635
v -81.65141 287.69 253.621
v -84.95377 283.69 246.3345
v -80.85506 288.69 244.4769
v -81.65141 287.69 253.621
v -85.46517 283.69 259.7411
v -81.77926 287.69 256.9727
v -80.95367 286.69 258.7944
v -80.54087 281.69 259.7052
v -80.95367 286.69 258.7944
v -75.20378 283.69 260.5801
v -85.46517 283.69 259.7411
v -80.95367 286.69 258.7944
v -80.54087 281.69 259.7052
v -84.51173 279.69 258.2111
v -85.46517 283.69 259.7411
v -80.54087 281.69 259.7052
v -74.37819 279.69 262.4017
v -75.20378 283.69 260.5801
v -67.547 283.69 259.3058
v -63.57615 279.69 260.7998
v -66.84927 274.2052 264.4791
v -74.37819 279.69 262.4017
v -63.57615 279.69 260.7998
v -67.547 283.69 259.3058
v -63.86109 285.69 256.5374
v -58.80894 285.69 253.1497
v -63.86109 285.69 256.5374
v -63.73324 288.69 253.1857
v -58.6811 286.69 249.7981
v -63.73324 288.69 253.1857
v -63.06475 289.69 247.3932
v -58.80894 285.69 253.1497
v -63.73324 288.69 253.1857
v -58.6811 286.69 249.7981
v -57.5739 279.69 249.1755
v -58.80894 285.69 253.1497
v -58.6811 286.69 249.7981
v -64.17529 288.69 241.3091
v -63.06475 289.69 247.3932
v -69.76808 289.69 247.1375
v -64.17529 288.69 241.3091
v -69.76808 289.69 247.1375
v -73.61108 289.69 242.2917
v -69.98188 283.69 241.6478
v -64.17529 288.69 241.3091
v -73.61108 289.69 242.2917
v -88.61044 273.8379 260.0687
v -78.79108 272.8795 249.031
v -88.51183 279.69 245.7512
v -86.03506 281.69 251.2161
v -88.51183 279.69 245.7512
v -84.95377 283.69 246.3345
v -88.61044 273.8379 260.0687
v -88.51183 279.69 245.7512
v -86.03506 281.69 251.2161
v -84.51173 279.69 258.2111
v -88.61044 273.8379 260.0687
v -86.03506 281.69 251.2161
v -72.77894 270.8878 248.6186
v -78.79108 272.8795 249.031
v -88.61044 273.8379 260.0687
v -81.20937 274.3624 265.4977
v -88.61044 273.8379 260.0687
v -84.51173 279.69 258.2111
v -72.77894 270.8878 248.6186
v -88.61044 273.8379 260.0687
v -81.20937 274.3624 265.4977
v -66.84927 274.2052 264.4791
v -72.77894 270.8878 248.6186
v -81.20937 274.3624 265.4977
v -69.22337 268.9336 247.6126
v -78.79108 272.8795 249.031
v -72.77894 270.8878 248.6186
v -54.01249 277.69 256.4655
v -72.77894 270.8878 248.6186
v -66.84927 274.2052 264.4791
v -69.22337 268.9336 247.6126
v -72.77894 270.8878 248.6186
v -54.01249 277.69 256.4655
v -57.5739 279.69 249.1755
v -69.22337 268.9336 247.6126
v -54.01249 277.69 256.4655
v -65.82646 272.69 237.6658
v -78.79108 272.8795 249.031
v -69.22337 268.9336 247.6126
v -63.4599 271.7513 240.9848
v -69.22337 268.9336 247.6126
v -57.5739 279.69 249.1755
v -65.82646 272.69 237.6658
v -69.22337 268.9336 247.6126
v -63.4599 271.7513 240.9848
v -69.98188 283.69 241.6478
v -65.82646 272.69 237.6658
v -63.4599 271.7513 240.9848
v -88.51183 279.69 245.7512
v -78.79108 272.8795 249.031
v -65.82646 272.69 237.6658
v -80.37112 283.69 244.1605
v -65.82646 272.69 237.6658
v -69.98188 283.69 241.6478
v -88.51183 279.69 245.7512
v -65.82646 272.69 237.6658
v -80.37112 283.69 244.1605
v -84.95377 283.69 246.3345
v -88.51183 279.69 245.7512
v -80.37112 283.69 244.1605
v -85.46517 283.69 259.7411
v -84.51173 279.69 258.2111
v -86.03506 281.69 251.2161
v -81.65141 287.69 253.621
v -86.03506 281.69 251.2161
v -84.95377 283.69 246.3345
v -85.46517 283.69 259.7411
v -86.03506 281.69 251.2161
v -81.65141 287.69 253.621
v -81.77926 287.69 256.9727
v -85.46517 283.69 259.7411
v -81.65141 287.69 253.621
v -74.37819 279.69 262.4017
v -66.84927 274.2052 264.4791
v -81.20937 274.3624 265.4977
v -80.54087 281.69 259.7052
v -81.20937 274.3624 265.4977
v -84.51173 279.69 258.2111
v -74.37819 279.69 262.4017
v -81.20937 274.3624 265.4977
v -80.54087 281.69 259.7052
v -75.20378 283.69 260.5801
v -74.37819 279.69 262.4017
v -80.54087 281.69 259.7052
v -58.80894 285.69 253.1497
v -57.5739 279.69 249.1755
v -54.01249 277.69 256.4655
v -63.57615 279.69 260.7998
v -54.01249 277.69 256.4655
v -66.84927 274.2052 264.4791
v -58.80894 285.69 253.1497
v -54.01249 277.69 256.4655
v -63.57615 279.69 260.7998
v -63.86109 285.69 256.5374
v -58.80894 285.69 253.1497
v -63.57615 279.69 260.7998
v -64.17529 288.69 241.3091
v -69.98188 283.69 241.6478
v -63.4599 271.7513 240.9848
v -58.6811 286.69 249.7981
v -63.4599 271.7513 240.9848
v -57.5739 279.69 249.1755
v -64.17529 288.69 241.3091
v -63.4599 271.7513 240.9848
v -58.6811 286.69 249.7981
v -63.06475 289.69 247.3932
v -64.17529 288.69 241.3091
v -58.6811 286.69 249.7981
v -80.85506 288.69 244.4769
v -84.95377 283.69 246.3345
v -80.37112 283.69 244.1605
v -73.61108 289.69 242.2917
v -80.37112 283.69 244.1605
v -69.98188 283.69 241.6478
v -80.85506 288.69 244.4769
v -80.37112 283.69 244.1605
v -73.61108 289.69 242.2917
v -74.27958 289.69 248.0842
v -80.85506 288.69 244.4769
v -73.61108 289.69 242.2917
vt -1.977709 3.2
vt -3.364679 0
vt -5.177709 1.977709
vt -5.177709 1.977709
vt -1.977709 3.2
vt -3.364679 0
vt 1.977709 5.177709
vt 5.177709 3.2
vt 3.2 1.977709
vt 0 3.364679
vt 1.977709 5.177709
vt 3.2 1.977709
vt 0 0
vt -3.364679 0
vt -1.977709 3.2
vt -1.977709 -3.2
vt 1.977709 3.2
vt -1.977709 3.2
vt 0 5.444165
vt 0 0
vt -1.977709 3.2
vt 1.977709 3.2
vt 3.364679 0
vt 0 0
vt 1.977709 3.2
vt 1.977709 -3.2
vt 5.177709 -1.977709
vt -1.977709 -3.2
vt 0 0
vt 1.977709 -3.2
vt 0 -5.444165
vt -1.977709 -3.2
vt 1.977709 -3.2
vt -5.177709 -1.977709
vt -3.364679 0
vt -1.977709 -3.2
vt -3.2 1.977709
vt -1.977709 5.177709
vt 0 3.364679
vt -5.177709 3.2
vt -1.977709 5.177709
vt -3.2 1.977709
vt 3.364679 0
vt 1.977709 3.2
vt 5.177709 1.977709
vt -1.977709 3.2
vt 0 5.444165
vt 1.977709 3.2
vt 0 0
vt 1.977709 3.2
vt 3.364679 0
vt -1.977709 3.2
vt 1.977709 3.2
vt 0 0
vt -3.364679 0
vt -1.977709 3.2
vt 0 0
vt 5.177709 1.977709
vt 3.364679 0
vt 1.977709 3.2
vt -3.2 1.977709
vt -1.977709 5.177709
vt 0 3.364679
vt -5.177709 3.2
vt -1.977709 5.177709
vt -3.2 1.977709
vt 3.364679 0
vt 1.977709 3.2
vt 5.177709 1.977709
vt 0 0
vt 0 3.364679
vt 3.2 1.977709
vt 3.2 -1.977709
vt 3.2 1.977709
vt 5.444165 0
vt 0 0
vt 3.2 1.977709
vt 3.2 -1.977709
vt 0 -3.364679
vt 0 0
vt 3.2 -1.977709
vt -1.977709 -3.2
vt -3.364679 0
vt 0 0
vt 1.977709 -3.2
vt 0 -5.444165
vt -1.977709 -3.2
vt 1.977709 -3.2
vt 0 0
vt 3.364679 0
vt -3.2 -1.977709
vt -5.444165 0
vt -3.2 1.977709
vt 0 0
vt -3.2 1.977709
vt 0 3.364679
vt -3.2 -1.977709
vt -3.2 1.977709
vt 0 0
vt 0 -3.364679
vt -3.2 -1.977709
vt 0 0
vt 3.2 1.977709
vt 0 3.364679
vt 1.977709 5.177709
vt 3.2 1.977709
vt 1.977709 5.177709
vt 5.177709 3.2
vt -3.364679 0
vt -5.177709 1.977709
vt -1.977709 3.2
vt -1.977709 3.2
vt -3.364679 0
vt -5.177709 1.977709
vt 5.177709 -1.977709
vt 1.977709 -3.2
vt 3.364679 0
vt -1.977709 -5.177709
vt -5.177709 -3.2
vt -3.2 -1.977709
vt 0 -3.364679
vt -1.977709 -5.177709
vt -3.2 -1.977709
vt 0 0
vt -3.364679 0
vt -1.977709 3.2
vt 1.977709 3.2
vt -1.977709 3.2
vt 0 5.444165
vt 0 0
vt -1.977709 3.2
vt 1.977709 3.2
vt 3.364679 0
vt 0 0
vt 1.977709 3.2
vt -1.977709 -3.2
vt -3.364679 0
vt 0 0
vt 1.977709 -3.2
vt 0 0
vt 3.364679 0
vt -1.977709 -3.2
vt 0 0
vt 1.977709 -3.2
vt 0 -5.444165
vt -1.977709 -3.2
vt 1.977709 -3.2
vt -5.177709 -1.977709
vt -3.364679 0
vt -1.977709 -3.2
vt 3.2 -1.977709
vt 1.977709 -5.177709
vt 0 -3.364679
vt 5.177709 -3.2
vt 1.977709 -5.177709
vt 3.2 -1.977709
vt -3.364679 0
vt -1.977709 -3.2
vt -5.177709 -1.977709
vt 1.977709 -3.2
vt 0 -5.444165
vt -1.977709 -3.2
vt 0 0
vt -1.977709 -3.2
vt -3.364679 0
vt 1.977709 -3.2
vt -1.977709 -3.2
vt 0 0
vt 3.364679 0
vt 1.977709 -3.2
vt 0 0
vt 0 0
vt 0 -3.364679
vt -3.2 -1.977709
vt -3.2 1.977709
vt -3.2 -1.977709
vt -5.444165 0
vt 0 0
vt -3.2 -1.977709
vt -3.2 1.977709
vt 0 3.364679
vt 0 0
vt -3.2 1.977709
vt 5.177709 1.977709
vt 3.364679 0
vt 1.977709 3.2
vt 3.2 -1.977709
vt 1.977709 -5.177709
vt 0 -3.364679
vt 5.177709 -3.2
vt 1.977709 -5.177709
vt 3.2 -1.977709
vt -3.364679 0
vt -1.977709 -3.2
vt -5.177709 -1.977709
vt -3.2 -1.977709
vt 0 -3.364679
vt -1.977709 -5.177709
vt 5.177709 -1.977709
vt 1.977709 -3.2
vt 3.364679 0
vt -3.2 -1.977709
vt -1.977709 -5.177709
vt -5.177709 -3.2
vt 3.364679 0
vt 5.177709 -1.977709
vt 1.977709 -3.2
vt 3.2 1.977709
vt 5.444165 0
vt 3.2 -1.977709
vt 0 0
vt 3.2 -1.977709
vt 0 -3.364679
vt 3.2 1.977709
vt 3.2 -1.977709
vt 0 0
vt 0 3.364679
vt 3.2 1.977709
vt 0 0
vt 1.977709 3.2
vt 3.364679 0
vt 0 0
vt -1.977709 3.2
vt 0 0
vt -3.364679 0
vt 1.977709 3.2
vt 0 0
vt -1.977709 3.2
vt 0 5.444165
vt 1.977709 3.2
vt -1.977709 3.2
vn -0.01473831 0.9222246 0.3863735
vn -0.01473831 0.9222246 0.3863735
vn -0.01473831 0.9222246 0.3863735
vn -0.2283245 0.5129202 0.8275148
vn -0.2283245 0.5129202 0.8275148
vn -0.2283245 0.5129202 0.8275148
vn -0.2694022 0.8042945 0.5296534
vn -0.2694022 0.8042945 0.5296534
vn -0.2694022 0.8042945 0.5296534
vn -0.2444473 0.7990017 0.5494012
vn -0.2444473 0.7990017 0.5494012
vn -0.2444473 0.7990017 0.5494012
vn -0.01331122 0.9370427 0.3489614
vn -0.01331122 0.9370427 0.3489614
vn -0.01331122 0.9370427 0.3489614
vn -0.01331122 0.9370427 0.3489614
vn -0.2859087 0.8831156 0.3719718
vn -0.2859087 0.8831156 0.3719718
vn -0.2859087 0.8831156 0.3719718
vn -0.1173865 0.9428091 0.3119801
vn -0.1173865 0.9428091 0.3119801
vn -0.1173865 0.9428091 0.3119801
vn 0 1 0
vn 0 1 0
vn 0 1 0
vn 0 1 0
vn 0 1 0
vn 0.2461164 0.9684002 0.04034498
vn 0.2461164 0.9684002 0.04034498
vn 0.2461164 0.9684002 0.04034498
vn -0.08545833 0.9776534 0.1920696
vn -0.08545833 0.9776534 0.1920696
vn -0.08545833 0.9776534 0.1920696
vn -0.01212135 0.9480909 0.3177683
vn -0.01212135 0.9480909 0.3177683
vn -0.01212135 0.9480909 0.3177683
vn -0.04410677 0.9789804 0.1991279
vn -0.04410677 0.9789804 0.1991279
vn -0.04410677 0.9789804 0.1991279
vn -0.0727355 0.9417419 0.3283774
vn -0.0727355 0.9417419 0.3283774
vn -0.0727355 0.9417419 0.3283774
vn 0.6411519 0.6064073 0.470313
vn 0.6411519 0.6064073 0.470313
vn 0.6411519 0.6064073 0.470313
vn -0.08317623 0.9230769 0.3755139
vn -0.08317623 0.9230769 0.3755139
vn -0.08317623 0.9230769 0.3755139
vn 0.3692155 0.4472135 0.8146656
vn 0.3692155 0.4472135 0.8146656
vn 0.3692155 0.4472135 0.8146656
vn -0.1934272 0.4472135 0.8732617
vn -0.1934272 0.4472135 0.8732617
vn -0.1934272 0.4472135 0.8732617
vn -0.09829751 0.5146502 0.8517469
vn -0.09829751 0.5146502 0.8517469
vn -0.09829751 0.5146502 0.8517469
vn -0.1629263 0.9847319 -0.06130303
vn -0.1629263 0.9847319 -0.06130303
vn -0.1629263 0.9847319 -0.06130303
vn -0.7003211 0.6985353 0.146965
vn -0.7003211 0.6985353 0.146965
vn -0.7003211 0.6985353 0.146965
vn -0.6778933 0.7043605 0.2105634
vn -0.6778933 0.7043605 0.2105634
vn -0.6778933 0.7043605 0.2105634
vn -0.9068304 0.3651482 0.2105362
vn -0.9068304 0.3651482 0.2105362
vn -0.9068304 0.3651482 0.2105362
vn -0.6681627 0.4815432 0.5671637
vn -0.6681627 0.4815432 0.5671637
vn -0.6681627 0.4815432 0.5671637
vn -0.5728369 0.1008866 0.813437
vn -0.5728369 0.1008866 0.813437
vn -0.5728369 0.1008866 0.813437
vn -0.2436944 0.1543033 0.9574986
vn -0.2436944 0.1543033 0.9574986
vn -0.2436944 0.1543033 0.9574986
vn -0.5096353 -0.2672611 0.8178285
vn -0.5096353 -0.2672611 0.8178285
vn -0.5096353 -0.2672611 0.8178285
vn -0.1053697 0.3940552 0.9130267
vn -0.1053697 0.3940552 0.9130267
vn -0.1053697 0.3940552 0.9130267
vn -0.1324713 0.4108433 0.9020305
vn -0.1297569 0.450008 0.8835474
vn -0.1297569 0.450008 0.8835474
vn 0.1970925 0.5598852 0.8047876
vn 0.1970925 0.5598852 0.8047876
vn 0.1970925 0.5598852 0.8047876
vn 0.5359743 0.6512981 0.5371614
vn 0.5359743 0.6512981 0.5371614
vn 0.5359743 0.6512981 0.5371614
vn 0.7133974 0.7005154 0.01850352
vn 0.7133974 0.7005154 0.01850352
vn 0.7133974 0.7005154 0.01850352
vn 0.7365177 0.6728737 0.06915678
vn 0.7365177 0.6728737 0.06915678
vn 0.7365177 0.6728737 0.06915678
vn 0.9806594 0.07400734 -0.1811906
vn 0.9806594 0.07400734 -0.1811906
vn 0.9806594 0.07400734 -0.1811906
vn 0.08847608 0.9760276 -0.1988521
vn 0.08847608 0.9760276 -0.1988521
vn 0.08847608 0.9760276 -0.1988521
vn 0.2274883 0.9643517 -0.1351842
vn 0.2274883 0.9643517 -0.1351842
vn 0.2274883 0.9643517 -0.1351842
vn 0.223804 0.03954515 -0.9738316
vn 0.223804 0.03954515 -0.9738316
vn 0.223804 0.03954515 -0.9738316
vn -0.6787047 -0.714674 -0.1691188
vn -0.6787047 -0.714674 -0.1691188
vn -0.6787047 -0.714674 -0.1691188
vn -0.8899876 0.3685768 0.2684644
vn -0.8899876 0.3685768 0.2684644
vn -0.8899876 0.3685768 0.2684644
vn -0.912729 0.2523777 0.3212963
vn -0.912729 0.2523777 0.3212963
vn -0.912729 0.2523777 0.3212963
vn -0.8609375 0.3233932 0.3926874
vn -0.8609375 0.3233932 0.3926874
vn -0.8609375 0.3233932 0.3926874
vn -0.513459 -0.8533598 -0.0902054
vn -0.513459 -0.8533598 -0.0902054
vn -0.513459 -0.8533598 -0.0902054
vn -0.7556522 0.3161454 0.5736217
vn -0.7556522 0.3161454 0.5736217
vn -0.7556522 0.3161454 0.5736217
vn -0.1930801 -0.9537147 0.2305393
vn -0.1930801 -0.9537147 0.2305393
vn -0.1930801 -0.9537147 0.2305393
vn -0.0868934 -0.9664249 0.2418107
vn -0.0868934 -0.9664249 0.2418107
vn -0.0868934 -0.9664249 0.2418107
vn -0.5141541 -0.5084431 0.6907468
vn -0.5141541 -0.5084431 0.6907468
vn -0.5141541 -0.5084431 0.6907468
vn 0.5283309 -0.8480901 -0.04012242
vn 0.5283309 -0.8480901 -0.04012242
vn 0.5283309 -0.8480901 -0.04012242
vn -0.4511735 -0.4598122 0.7648628
vn -0.4511735 -0.4598122 0.7648628
vn -0.4511735 -0.4598122 0.7648628
vn 0.8160965 -0.3320366 -0.4730097
vn 0.8160965 -0.3320366 -0.4730097
vn 0.8160965 -0.3320366 -0.4730097
vn -0.5664307 -0.7569225 -0.3259211
vn -0.5664307 -0.7569225 -0.3259211
vn -0.5664307 -0.7569225 -0.3259211
vn 0.8522857 -0.5230752 -0.001165846
vn 0.8522857 -0.5230752 -0.001165846
vn 0.8522857 -0.5230752 -0.001165846
vn 0.2997192 -0.8657043 -0.4009046
vn 0.2997192 -0.8657043 -0.4009046
vn 0.2997192 -0.8657043 -0.4009046
vn 0.8742064 0.219681 -0.4330166
vn 0.8742064 0.219681 -0.4330166
vn 0.8742064 0.219681 -0.4330166
vn -0.576883 -0.7460648 -0.3325556
vn -0.576883 -0.7460648 -0.3325556
vn -0.576883 -0.7460648 -0.3325556
vn -0.02002982 0.2389997 -0.970813
vn -0.02002982 0.2389997 -0.970813
vn -0.02002982 0.2389997 -0.970813
vn -0.1176362 0.1828216 -0.9760829
vn -0.1176362 0.1828216 -0.9760829
vn -0.1176362 0.1828216 -0.9760829
vn -0.3988135 0.4562165 -0.7954962
vn -0.3988135 0.4562165 -0.7954962
vn -0.3988135 0.4562165 -0.7954962
vn -0.9491369 -0.1310243 0.2863068
vn -0.9491369 -0.1310243 0.2863068
vn -0.9491369 -0.1310243 0.2863068
vn -0.9179485 0.3123474 0.2445602
vn -0.9179485 0.3123474 0.2445602
vn -0.9179485 0.3123474 0.2445602
vn -0.9201013 0.360505 0.1531329
vn -0.9201013 0.360505 0.1531329
vn -0.9201013 0.360505 0.1531329
vn -0.8978225 0.3980148 0.1884115
vn -0.8978225 0.3980148 0.1884115
vn -0.8978225 0.3980148 0.1884115
vn -0.2400737 0.3687395 0.8979954
vn -0.2400737 0.3687395 0.8979954
vn -0.2400737 0.3687395 0.8979954
vn -0.7603695 0.3095827 0.5709612
vn -0.7603695 0.3095827 0.5709612
vn -0.7603695 0.3095827 0.5709612
vn -0.4769224 0.4645029 0.7461783
vn -0.4769224 0.4645029 0.7461783
vn -0.4769224 0.4645029 0.7461783
vn -0.6148737 0.2182178 0.7578334
vn -0.6148737 0.2182178 0.7578334
vn -0.6148737 0.2182178 0.7578334
vn 0.908277 0.1842255 -0.3756246
vn 0.908277 0.1842255 -0.3756246
vn 0.908277 0.1842255 -0.3756246
vn 0.506892 0.2982917 0.8087537
vn 0.506892 0.2982917 0.8087537
vn 0.506892 0.2982917 0.8087537
vn 0.5450255 0.5430437 0.6387886
vn 0.5450255 0.5430437 0.6387886
vn 0.5450255 0.5430437 0.6387886
vn 0.6096104 0.5050763 0.6109608
vn 0.6096104 0.5050763 0.6109608
vn 0.6096104 0.5050763 0.6109608
vn 0.2641245 0.01316243 -0.9643988
vn 0.2641245 0.01316243 -0.9643988
vn 0.2641245 0.01316243 -0.9643988
vn 0.83383 0.08153405 -0.5459668
vn 0.83383 0.08153405 -0.5459668
vn 0.83383 0.08153405 -0.5459668
vn 0.8830929 0.02056398 -0.4687472
vn 0.8830929 0.02056398 -0.4687472
vn 0.8830929 0.02056398 -0.4687472
vn 0.8305196 0.4361106 -0.3464749
vn 0.8305196 0.4361106 -0.3464749
vn 0.8305196 0.4361106 -0.3464749
vn -0.4481161 0.01567302 -0.893838
vn -0.4481161 0.01567302 -0.893838
vn -0.4481161 0.01567302 -0.893838
vn -0.02061467 -0.03541739 -0.9991599
vn -0.02061467 -0.03541739 -0.9991599
vn -0.02061467 -0.03541739 -0.9991599
vn -0.1424552 0.03112132 -0.9893119
vn -0.1424552 0.03112132 -0.9893119
vn -0.1424552 0.03112132 -0.9893119
vn -0.2725451 0.9610732 0.04535978
vn -0.2725451 0.9610732 0.04535978
vn -0.2725451 0.9610732 0.04535978
g Icosphere_(38)_0
f 3/3/3 2/2/2 1/1/1
f 6/6/6 5/5/5 4/4/4
f 9/9/9 8/8/8 7/7/7
f 12/12/12 11/11/11 10/10/10
f 15/15/15 14/14/14 13/13/13
f 13/13/13 14/14/14 16/16/16
f 19/19/19 18/18/18 17/17/17
f 22/22/22 21/21/21 20/20/20
f 25/25/25 24/24/24 23/23/23
f 23/23/23 24/24/24 26/26/26
f 23/23/23 26/26/26 27/27/27
f 30/30/30 29/29/29 28/28/28
f 33/33/33 32/32/32 31/31/31
f 36/36/36 35/35/35 34/34/34
f 39/39/39 38/38/38 37/37/37
f 42/42/42 41/41/41 40/40/40
f 45/45/45 44/44/44 43/43/43
f 48/48/48 47/47/47 46/46/46
f 51/51/51 50/50/50 49/49/49
f 54/54/54 53/53/53 52/52/52
f 57/57/57 56/56/56 55/55/55
f 60/60/60 59/59/59 58/58/58
f 63/63/63 62/62/62 61/61/61
f 66/66/66 65/65/65 64/64/64
f 69/69/69 68/68/68 67/67/67
f 72/72/72 71/71/71 70/70/70
f 75/75/75 74/74/74 73/73/73
f 78/78/78 77/77/77 76/76/76
f 81/81/81 80/80/80 79/79/79
f 84/84/84 83/83/83 82/82/82
f 85/85/85 84/84/84 82/82/82
f 85/85/85 87/87/87 86/86/86
f 90/90/90 89/89/89 88/88/88
f 93/93/93 92/92/92 91/91/91
f 96/96/96 95/95/95 94/94/94
f 99/99/99 98/98/98 97/97/97
f 102/102/102 101/101/101 100/100/100
f 105/105/105 104/104/104 103/103/103
f 108/108/108 107/107/107 106/106/106
f 111/111/111 110/110/110 109/109/109
f 114/114/114 113/113/113 112/112/112
f 117/117/117 116/116/116 115/115/115
f 120/120/120 119/119/119 118/118/118
f 123/123/123 122/122/122 121/121/121
f 126/126/126 125/125/125 124/124/124
f 129/129/129 128/128/128 127/127/127
f 132/132/132 131/131/131 130/130/130
f 135/135/135 134/134/134 133/133/133
f 138/138/138 137/137/137 136/136/136
f 141/141/141 140/140/140 139/139/139
f 144/144/144 143/143/143 142/142/142
f 147/147/147 146/146/146 145/145/145
f 150/150/150 149/149/149 148/148/148
f 153/153/153 152/152/152 151/151/151
f 156/156/156 155/155/155 154/154/154
f 159/159/159 158/158/158 157/157/157
f 162/162/162 161/161/161 160/160/160
f 165/165/165 164/164/164 163/163/163
f 168/168/168 167/167/167 166/166/166
f 171/171/171 170/170/170 169/169/169
f 174/174/174 173/173/173 172/172/172
f 177/177/177 176/176/176 175/175/175
f 180/180/180 179/179/179 178/178/178
f 183/183/183 182/182/182 181/181/181
f 186/186/186 185/185/185 184/184/184
f 189/189/189 188/188/188 187/187/187
f 192/192/192 191/191/191 190/190/190
f 195/195/195 194/194/194 193/193/193
f 198/198/198 197/197/197 196/196/196
f 201/201/201 200/200/200 199/199/199
f 204/204/204 203/203/203 202/202/202
f 207/207/207 206/206/206 205/205/205
f 210/210/210 209/209/209 208/208/208
f 213/213/213 212/212/212 211/211/211
f 216/216/216 215/215/215 214/214/214
f 219/219/219 218/218/218 217/217/217
f 222/222/222 221/221/221 220/220/220
f 225/225/225 224/224/224 223/223/223
f 228/228/228 227/227/227 226/226/226
f 231/231/231 230/230/230 229/229/229
