g New Game Object
v 0.005 0.03 0.09999999
v -0.005 0.03 0.09999999
v -0.005 0.03 0.09
v 0.005 0.03 0.09
v -0.005 -0.03 0.09
v -0.005 -0.03 0.09999999
v 0.005 -0.03 0.09999999
v 0.005 -0.03 0.09
v -0.005 -0.03 0.09999999
v -0.005 0.03 0.09999999
v 0.005 0.03 0.09999999
v 0.005 -0.03 0.09999999
v 0.005 -0.03 0.09999999
v 0.005 0.03 0.09999999
v 0.005 0.03 0.09
v 0.005 -0.03 0.09
v -0.005 -0.03 0.09
v -0.005 0.03 0.09
v -0.005 0.03 0.09999999
v -0.005 -0.03 0.09999999
v 0.005 -0.03 0.09
v 0.005 0.03 0.09
v -0.005 0.03 0.09
v -0.005 -0.03 0.09
v 0.005 0.03 -0.09
v -0.005 0.03 -0.09
v -0.005 0.03 -0.09999999
v 0.005 0.03 -0.09999999
v -0.005 -0.03 -0.09999999
v -0.005 -0.03 -0.09
v 0.005 -0.03 -0.09
v 0.005 -0.03 -0.09999999
v -0.005 -0.03 -0.09
v -0.005 0.03 -0.09
v 0.005 0.03 -0.09
v 0.005 -0.03 -0.09
v 0.005 -0.03 -0.09
v 0.005 0.03 -0.09
v 0.005 0.03 -0.09999999
v 0.005 -0.03 -0.09999999
v -0.005 -0.03 -0.09999999
v -0.005 0.03 -0.09999999
v -0.005 0.03 -0.09
v -0.005 -0.03 -0.09
v 0.005 -0.03 -0.09999999
v 0.005 0.03 -0.09999999
v -0.005 0.03 -0.09999999
v -0.005 -0.03 -0.09999999
vt 0.675 0.4464286
vt 0.65 0.4464286
vt 0.65 0.475
vt 0.675 0.475
vt 0.75 0.475
vt 0.75 0.4464286
vt 0.725 0.4464286
vt 0.725 0.475
vt 0.8 0.275
vt 0.8 0.4464285
vt 0.825 0.4464285
vt 0.825 0.275
vt 0.65 0.275
vt 0.65 0.4464286
vt 0.675 0.4464285
vt 0.675 0.275
vt 0.725 0.4464286
vt 0.725 0.275
vt 0.7 0.275
vt 0.7 0.4464286
vt 0.8 0.4464285
vt 0.8 0.275
vt 0.775 0.275
vt 0.775 0.4464285
vt 0.7 0.4464286
vt 0.675 0.4464286
vt 0.675 0.475
vt 0.7 0.475
vt 0.725 0.475
vt 0.725 0.4464286
vt 0.7 0.4464286
vt 0.7 0.475
vt 0.7500001 0.275
vt 0.75 0.4464285
vt 0.775 0.4464285
vt 0.775 0.275
vt 0.725 0.275
vt 0.725 0.4464286
vt 0.75 0.4464286
vt 0.75 0.275
vt 0.7 0.4464286
vt 0.7 0.275
vt 0.675 0.275
vt 0.675 0.4464286
vt 0.85 0.4464285
vt 0.85 0.275
vt 0.825 0.275
vt 0.825 0.4464285
vn 0.5773503 0.5773503 0.5773503
vn -0.5773503 0.5773503 0.5773503
vn -0.5773503 0.5773503 -0.5773503
vn 0.5773503 0.5773503 -0.5773503
vn -0.5773503 -0.5773503 -0.5773503
vn -0.5773503 -0.5773503 0.5773503
vn 0.5773503 -0.5773503 0.5773503
vn 0.5773503 -0.5773503 -0.5773503
vn -0.5773503 -0.5773503 0.5773503
vn -0.5773503 0.5773503 0.5773503
vn 0.5773503 0.5773503 0.5773503
vn 0.5773503 -0.5773503 0.5773503
vn 0.5773503 -0.5773503 0.5773503
vn 0.5773503 0.5773503 0.5773503
vn 0.5773503 0.5773503 -0.5773503
vn 0.5773503 -0.5773503 -0.5773503
vn -0.5773503 -0.5773503 -0.5773503
vn -0.5773503 0.5773503 -0.5773503
vn -0.5773503 0.5773503 0.5773503
vn -0.5773503 -0.5773503 0.5773503
vn 0.5773503 -0.5773503 -0.5773503
vn 0.5773503 0.5773503 -0.5773503
vn -0.5773503 0.5773503 -0.5773503
vn -0.5773503 -0.5773503 -0.5773503
vn 0.5773503 0.5773503 0.5773503
vn -0.5773503 0.5773503 0.5773503
vn -0.5773503 0.5773503 -0.5773503
vn 0.5773503 0.5773503 -0.5773503
vn -0.5773503 -0.5773503 -0.5773503
vn -0.5773503 -0.5773503 0.5773503
vn 0.5773503 -0.5773503 0.5773503
vn 0.5773503 -0.5773503 -0.5773503
vn -0.5773503 -0.5773503 0.5773503
vn -0.5773503 0.5773503 0.5773503
vn 0.5773503 0.5773503 0.5773503
vn 0.5773503 -0.5773503 0.5773503
vn 0.5773503 -0.5773503 0.5773503
vn 0.5773503 0.5773503 0.5773503
vn 0.5773503 0.5773503 -0.5773503
vn 0.5773503 -0.5773503 -0.5773503
vn -0.5773503 -0.5773503 -0.5773503
vn -0.5773503 0.5773503 -0.5773503
vn -0.5773503 0.5773503 0.5773503
vn -0.5773503 -0.5773503 0.5773503
vn 0.5773503 -0.5773503 -0.5773503
vn 0.5773503 0.5773503 -0.5773503
vn -0.5773503 0.5773503 -0.5773503
vn -0.5773503 -0.5773503 -0.5773503
g New Game Object_0
f 3/3/3 2/2/2 1/1/1
f 4/4/4 3/3/3 1/1/1
f 7/7/7 6/6/6 5/5/5
f 8/8/8 7/7/7 5/5/5
f 11/11/11 10/10/10 9/9/9
f 12/12/12 11/11/11 9/9/9
f 15/15/15 14/14/14 13/13/13
f 16/16/16 15/15/15 13/13/13
f 19/19/19 18/18/18 17/17/17
f 20/20/20 19/19/19 17/17/17
f 23/23/23 22/22/22 21/21/21
f 24/24/24 23/23/23 21/21/21
f 27/27/27 26/26/26 25/25/25
f 28/28/28 27/27/27 25/25/25
f 31/31/31 30/30/30 29/29/29
f 32/32/32 31/31/31 29/29/29
f 35/35/35 34/34/34 33/33/33
f 36/36/36 35/35/35 33/33/33
f 39/39/39 38/38/38 37/37/37
f 40/40/40 39/39/39 37/37/37
f 43/43/43 42/42/42 41/41/41
f 44/44/44 43/43/43 41/41/41
f 47/47/47 46/46/46 45/45/45
f 48/48/48 47/47/47 45/45/45
