g Object008
v 238 9.999998 -154.9943
v 207 -20 -154.9943
v 207 9.999998 -154.9943
v 238 -20 -154.9943
v 187 35 -166
v 207 -20 -166
v 187 -44 -166
v 207 9.999998 -166
v 259 35 -166
v 238 9.999998 -166
v 259 -44 -166
v 238 -20 -166
v 268 35 -166
v 268 -44 -166
v 268 -53 -166
v 259 -53 -166
v 187 -53 -166
v 187 43 -166
v 259 43 -166
v 268 43 -166
v 178 43 -166
v 178 -53 -166
v 178 -44 -166
v 178 35 -166
v 207 9.999998 -166
v 207 -20 -154.9943
v 207 -20 -166
v 207 9.999998 -154.9943
v 238 -20 -166
v 238 9.999998 -154.9943
v 238 9.999998 -166
v 238 -20 -154.9943
v 207 9.999998 -166
v 238 9.999998 -154.9943
v 207 9.999998 -154.9943
v 238 9.999998 -166
v 238 -20 -166
v 207 -20 -154.9943
v 238 -20 -154.9943
v 207 -20 -166
v 268 -44 -117
v 259 35 -117
v 259 -44 -117
v 268 35 -117
v 268 -53 -117
v 259 -53 -117
v 187 -53 -117
v 187 -44 -117
v 259 43 -117
v 187 35 -117
v 187 43 -117
v 268 43 -117
v 178 -44 -117
v 178 -53 -117
v 178 43 -117
v 178 35 -117
v 178 -44 -117
v 178 35 -133
v 178 -44 -133
v 178 35 -117
v 178 -53 -133
v 178 -53 -117
v 178 43 -117
v 178 43 -133
v 268 35 -117
v 268 -44 -133
v 268 35 -133
v 268 -44 -117
v 268 -53 -117
v 268 -53 -133
v 268 43 -117
v 268 43 -133
v 187 43 -133
v 259 43 -117
v 259 43 -133
v 187 43 -117
v 268 43 -117
v 268 43 -133
v 178 43 -133
v 178 43 -117
v 259 -53 -133
v 187 -53 -117
v 187 -53 -133
v 259 -53 -117
v 268 -53 -133
v 268 -53 -117
v 178 -53 -117
v 178 -53 -133
v 172 40 -133
v 172 -49 -148
v 172 -49 -133
v 172 40 -148
v 172 -58.99999 -148
v 172 -58.99999 -133
v 172 49 -148
v 172 49 -133
v 178 -44 -148
v 178 35 -166
v 178 -44 -166
v 178 35 -148
v 178 -53 -166
v 178 -53 -148
v 178 43 -166
v 178 43 -148
v 268 35 -148
v 268 -44 -166
v 268 35 -166
v 268 -44 -148
v 268 -53 -148
v 268 -53 -166
v 268 43 -148
v 268 43 -166
v 264 49 -148
v 182 49 -133
v 264 49 -133
v 182 49 -148
v 274 49 -133
v 274 49 -148
v 172 49 -148
v 172 49 -133
v 187 43 -166
v 259 43 -148
v 259 43 -166
v 187 43 -148
v 268 43 -148
v 268 43 -166
v 178 43 -148
v 178 43 -166
v 264 -58.99999 -133
v 182 -58.99999 -148
v 264 -58.99999 -148
v 182 -58.99999 -133
v 274 -58.99999 -133
v 274 -58.99999 -148
v 172 -58.99999 -133
v 172 -58.99999 -148
v 187 -53 -166
v 259 -53 -148
v 187 -53 -148
v 259 -53 -166
v 178 -53 -166
v 178 -53 -148
v 259 -53 -166
v 268 -53 -148
v 259 -53 -148
v 268 -53 -166
v 274 -58.99999 -133
v 274 -49 -148
v 274 -49 -133
v 274 -58.99999 -148
v 274 -19 -148
v 274 -19 -133
v 274 49 -148
v 274 40 -133
v 274 40 -148
v 274 49 -133
v 274 6.999999 -133
v 274 6.999999 -148
v 274 40 -133
v 268 43 -133
v 268 35 -133
v 274 49 -133
v 259 43 -133
v 264 49 -133
v 187 43 -133
v 182 49 -133
v 178 43 -133
v 172 49 -133
v 178 35 -133
v 172 40 -133
v 178 -44 -133
v 172 -49 -133
v 178 -53 -133
v 172 -58.99999 -133
v 187 -53 -133
v 182 -58.99999 -133
v 259 -53 -133
v 264 -58.99999 -133
v 268 -53 -133
v 274 -58.99999 -133
v 274 -49 -133
v 268 -44 -133
v 274 -19 -133
v 274 6.999999 -133
v 468 -19 -133
v 468 6.999999 -133
v 274 49 -148
v 268 35 -148
v 268 43 -148
v 274 40 -148
v 259 43 -148
v 264 49 -148
v 182 49 -148
v 187 43 -148
v 172 49 -148
v 178 43 -148
v 172 40 -148
v 178 35 -148
v 172 -49 -148
v 178 -44 -148
v 172 -58.99999 -148
v 178 -53 -148
v 182 -58.99999 -148
v 187 -53 -148
v 264 -58.99999 -148
v 259 -53 -148
v 274 -58.99999 -148
v 268 -53 -148
v 274 -49 -148
v 268 -44 -148
v 274 -19 -148
v 274 6.999999 -148
v 468 -19 -148
v 468 6.999999 -148
v 468 6.999999 -148
v 468 -19 -133
v 468 -19 -148
v 468 6.999999 -133
v 274 6.999999 -133
v 468 6.999999 -148
v 274 6.999999 -148
v 468 6.999999 -133
v 274 -19 -148
v 468 -19 -133
v 274 -19 -133
v 468 -19 -148
vt -2.218316 0.7655572
vt -2.442973 0.09319896
vt -2.442973 0.7655572
vt -2.218316 0.09319896
vt -2.587912 1.325856
vt -2.442973 0.09319896
vt -2.587912 -0.4446877
vt -2.442973 0.7655572
vt -2.06613 1.325856
vt -2.218316 0.7655572
vt -2.06613 -0.4446877
vt -2.218316 0.09319896
vt -2.000908 1.325856
vt -2.000908 -0.4446877
vt -2.000908 -0.6463951
vt -2.06613 -0.6463951
vt -2.587912 -0.6463951
vt -2.587912 1.505151
vt -2.06613 1.505151
vt -2.000908 1.505151
vt -2.653135 1.505151
vt -2.653135 -0.6463951
vt -2.653135 -0.4446877
vt -2.653135 1.325856
vt -1.425578 -0.7808664
vt -2.097937 -0.6710393
vt -2.097937 -0.7808664
vt -1.425578 -0.6710393
vt -0.2389781 -3.637448
vt 1.146606 -3.152904
vt 1.146606 -3.637448
vt -0.2389781 -3.152904
vt 0.7828994 -3.637448
vt 1.240719 -3.152904
vt 0.7828994 -3.152904
vt 1.240719 -3.637448
vt -2.218316 -0.7808664
vt -2.442973 -0.6710393
vt -2.218316 -0.6710393
vt -2.442973 -0.7808664
vt 1.683771 -1.347446
vt 1.550855 2.301258
vt 1.550855 -1.347446
vt 1.683771 2.301258
vt 1.683771 -1.763121
vt 1.550855 -1.763121
vt 0.4875317 -1.763121
vt 0.4875317 -1.347446
vt 1.550855 2.670747
vt 0.4875317 2.301258
vt 0.4875317 2.670747
vt 1.683771 2.670747
vt 0.3546162 -1.347446
vt 0.3546162 -1.763121
vt 0.3546162 2.670747
vt 0.3546162 2.301258
vt -2.635823 -0.2918906
vt -0.8652797 -0.4515561
vt -2.635823 -0.4515561
vt -0.8652797 -0.2918906
vt -2.837531 -0.4515561
vt -2.837531 -0.2918906
vt -0.6859841 -0.2918906
vt -0.6859841 -0.4515561
vt -0.8652797 -0.2918906
vt -2.635823 -0.4515561
vt -0.8652797 -0.4515561
vt -2.635823 -0.2918906
vt -2.837531 -0.2918906
vt -2.837531 -0.4515561
vt -0.6859841 -0.2918906
vt -0.6859841 -0.4515561
vt -2.587912 -0.4515561
vt -2.06613 -0.2918906
vt -2.06613 -0.4515561
vt -2.587912 -0.2918906
vt -2.000908 -0.2918906
vt -2.000908 -0.4515561
vt -2.653135 -0.4515561
vt -2.653135 -0.2918906
vt 1.550855 -2.571451
vt 0.4875317 -2.054604
vt 0.4875317 -2.571451
vt 1.550855 -2.054604
vt 1.683771 -2.571451
vt 1.683771 -2.054604
vt 0.3546162 -2.054604
vt 0.3546162 -2.571451
vt -0.7532203 -0.4515561
vt -2.747883 -0.6012427
vt -2.747883 -0.4515561
vt -0.7532203 -0.6012427
vt -2.972002 -0.6012427
vt -2.972002 -0.4515561
vt -0.5515125 -0.6012427
vt -0.5515125 -0.4515561
vt -2.635823 -0.6012427
vt -0.8652797 -0.7808664
vt -2.635823 -0.7808664
vt -0.8652797 -0.6012427
vt -2.837531 -0.7808664
vt -2.837531 -0.6012427
vt -0.6859841 -0.7808664
vt -0.6859841 -0.6012427
vt -0.8652797 -0.6012427
vt -2.635823 -0.7808664
vt -0.8652797 -0.7808664
vt -2.635823 -0.6012427
vt -2.837531 -0.6012427
vt -2.837531 -0.7808664
vt -0.6859841 -0.6012427
vt -0.6859841 -0.7808664
vt -2.029896 -0.6012427
vt -2.624147 -0.4515561
vt -2.029896 -0.4515561
vt -2.624147 -0.6012427
vt -1.957426 -0.4515561
vt -1.957426 -0.6012427
vt -2.696617 -0.6012427
vt -2.696617 -0.4515561
vt -2.587912 -0.7808664
vt -2.06613 -0.6012427
vt -2.06613 -0.7808664
vt -2.587912 -0.6012427
vt -2.000908 -0.6012427
vt -2.000908 -0.7808664
vt -2.653135 -0.6012427
vt -2.653135 -0.7808664
vt 1.624697 -2.571451
vt 0.4136896 -3.055995
vt 1.624697 -3.055995
vt 0.4136896 -2.571451
vt 1.772381 -2.571451
vt 1.772381 -3.055995
vt 0.2660058 -2.571451
vt 0.2660058 -3.055995
vt 0.4875317 -3.637448
vt 1.550855 -3.055995
vt 0.4875317 -3.055995
vt 1.550855 -3.637448
vt 0.3546162 -3.637448
vt 0.3546162 -3.055995
vt 134.246 -174.244
vt 146.1754 -150.3852
vt 134.246 -150.3852
vt 146.1754 -174.244
vt -2.972002 -0.4515561
vt -2.747883 -0.6012427
vt -2.747883 -0.4515561
vt -2.972002 -0.6012427
vt -2.075525 -0.6012427
vt -2.075525 -0.4515561
vt -0.5515125 -0.6012427
vt -0.7532203 -0.4515561
vt -0.7532203 -0.6012427
vt -0.5515125 -0.4515561
vt -1.492814 -0.4515561
vt -1.492814 -0.6012427
vt 1.772381 2.532188
vt 1.683771 2.670747
vt 1.683771 2.301258
vt 1.772381 2.947864
vt 1.550855 2.670747
vt 1.624697 2.947864
vt 0.4875317 2.670747
vt 0.4136896 2.947864
vt 0.3546162 2.670747
vt 0.2660058 2.947864
vt 0.3546162 2.301258
vt 0.2660058 2.532188
vt 0.3546162 -1.347446
vt 0.2660058 -1.578377
vt 0.3546162 -1.763121
vt 0.2660058 -2.040237
vt 0.4875317 -1.763121
vt 0.4136896 -2.040237
vt 1.550855 -1.763121
vt 1.624697 -2.040237
vt 1.683771 -1.763121
vt 1.772381 -2.040237
vt 1.772381 -1.578377
vt 1.683771 -1.347446
vt 1.772381 -0.1927931
vt 1.772381 1.008047
vt 4.637447 -0.1927931
vt 4.637447 1.008047
vt -1.957426 1.639623
vt -2.000908 1.325856
vt -2.000908 1.505151
vt -1.957426 1.437915
vt -2.06613 1.505151
vt -2.029896 1.639623
vt -2.624147 1.639623
vt -2.587912 1.505151
vt -2.696617 1.639623
vt -2.653135 1.505151
vt -2.696617 1.437915
vt -2.653135 1.325856
vt -2.696617 -0.5567474
vt -2.653135 -0.4446877
vt -2.696617 -0.7808665
vt -2.653135 -0.6463951
vt -2.624147 -0.7808665
vt -2.587912 -0.6463951
vt -2.029896 -0.7808665
vt -2.06613 -0.6463951
vt -1.957426 -0.7808665
vt -2.000908 -0.6463951
vt -1.957426 -0.5567474
vt -2.000908 -0.4446877
vt -1.957426 0.115611
vt -1.957426 0.6983212
vt -0.5515125 0.115611
vt -0.5515125 0.6983212
vt -1.492814 -0.6012427
vt -2.075525 -0.4515561
vt -2.075525 -0.6012427
vt -1.492814 -0.4515561
vt -1.957426 -0.4515561
vt -0.5515125 -0.6012427
vt -1.957426 -0.6012427
vt -0.5515125 -0.4515561
vt 1.772381 -3.055995
vt 4.637447 -2.571451
vt 1.772381 -2.571451
vt 4.637447 -3.055995
vn 0 0 1
vn 0 0 1
vn 0 0 1
vn 0 0 1
vn 0 0 1
vn 0 0 1
vn 0 0 1
vn 0 0 1
vn 0 0 1
vn 0 0 1
vn 0 0 1
vn 0 0 1
vn 0 0 1
vn 0 0 1
vn 0 0 1
vn 0 0 1
vn 0 0 1
vn 0 0 1
vn 0 0 1
vn 0 0 1
vn 0 0 1
vn 0 0 1
vn 0 0 1
vn 0 0 1
vn -1 0 0
vn -1 0 0
vn -1 0 0
vn -1 0 0
vn 1 0 0
vn 1 0 0
vn 1 0 0
vn 1 0 0
vn 0 1 0
vn 0 1 0
vn 0 1 0
vn 0 1 0
vn 0 -1 0
vn 0 -1 0
vn 0 -1 0
vn 0 -1 0
vn 0 0 -1
vn 0 0 -1
vn 0 0 -1
vn 0 0 -1
vn 0 0 -1
vn 0 0 -1
vn 0 0 -1
vn 0 0 -1
vn 0 0 -1
vn 0 0 -1
vn 0 0 -1
vn 0 0 -1
vn 0 0 -1
vn 0 0 -1
vn 0 0 -1
vn 0 0 -1
vn 1 0 0
vn 1 0 0
vn 1 0 0
vn 1 0 0
vn 1 0 0
vn 1 0 0
vn 1 0 0
vn 1 0 0
vn -1 0 0
vn -1 0 0
vn -1 0 0
vn -1 0 0
vn -1 0 0
vn -1 0 0
vn -1 0 0
vn -1 0 0
vn 0 -1 0
vn 0 -1 0
vn 0 -1 0
vn 0 -1 0
vn 0 -1 0
vn 0 -1 0
vn 0 -1 0
vn 0 -1 0
vn 0 1 0
vn 0 1 0
vn 0 1 0
vn 0 1 0
vn 0 1 0
vn 0 1 0
vn 0 1 0
vn 0 1 0
vn 1 0 0
vn 1 0 0
vn 1 0 0
vn 1 0 0
vn 1 0 0
vn 1 0 0
vn 1 0 0
vn 1 0 0
vn 1 0 0
vn 1 0 0
vn 1 0 0
vn 1 0 0
vn 1 0 0
vn 1 0 0
vn 1 0 0
vn 1 0 0
vn -1 0 0
vn -1 0 0
vn -1 0 0
vn -1 0 0
vn -1 0 0
vn -1 0 0
vn -1 0 0
vn -1 0 0
vn 0 -1 0
vn 0 -1 0
vn 0 -1 0
vn 0 -1 0
vn 0 -1 0
vn 0 -1 0
vn 0 -1 0
vn 0 -1 0
vn 0 -1 0
vn 0 -1 0
vn 0 -1 0
vn 0 -1 0
vn 0 -1 0
vn 0 -1 0
vn 0 -1 0
vn 0 -1 0
vn 0 1 0
vn 0 1 0
vn 0 1 0
vn 0 1 0
vn 0 1 0
vn 0 1 0
vn 0 1 0
vn 0 1 0
vn 0 1 0
vn 0 1 0
vn 0 1 0
vn 0 1 0
vn 0 1 0
vn 0 1 0
vn 0 1 0
vn 0 1 0
vn 0 1 0
vn 0 1 0
vn -1 0 0
vn -1 0 0
vn -1 0 0
vn -1 0 0
vn -1 0 0
vn -1 0 0
vn -1 0 0
vn -1 0 0
vn -1 0 0
vn -1 0 0
vn -1 0 0
vn -1 0 0
vn 0 0 -1
vn 0 0 -1
vn 0 0 -1
vn 0 0 -1
vn 0 0 -1
vn 0 0 -1
vn 0 0 -1
vn 0 0 -1
vn 0 0 -1
vn 0 0 -1
vn 0 0 -1
vn 0 0 -1
vn 0 0 -1
vn 0 0 -1
vn 0 0 -1
vn 0 0 -1
vn 0 0 -1
vn 0 0 -1
vn 0 0 -1
vn 0 0 -1
vn 0 0 -1
vn 0 0 -1
vn 0 0 -1
vn 0 0 -1
vn 0 0 -1
vn 0 0 -1
vn 0 0 -1
vn 0 0 -1
vn 0 0 1
vn 0 0 1
vn 0 0 1
vn 0 0 1
vn 0 0 1
vn 0 0 1
vn 0 0 1
vn 0 0 1
vn 0 0 1
vn 0 0 1
vn 0 0 1
vn 0 0 1
vn 0 0 1
vn 0 0 1
vn 0 0 1
vn 0 0 1
vn 0 0 1
vn 0 0 1
vn 0 0 1
vn 0 0 1
vn 0 0 1
vn 0 0 1
vn 0 0 1
vn 0 0 1
vn 0 0 1
vn 0 0 1
vn 0 0 1
vn 0 0 1
vn -1 0 0
vn -1 0 0
vn -1 0 0
vn -1 0 0
vn 0 -1 0
vn 0 -1 0
vn 0 -1 0
vn 0 -1 0
vn 0 1 0
vn 0 1 0
vn 0 1 0
vn 0 1 0
g Object008_0
f 3/3/3 2/2/2 1/1/1
f 4/4/4 1/1/1 2/2/2
f 7/7/7 6/6/6 5/5/5
f 8/8/8 5/5/5 6/6/6
f 5/5/5 8/8/8 9/9/9
f 10/10/10 9/9/9 8/8/8
f 9/9/9 10/10/10 11/11/11
f 12/12/12 11/11/11 10/10/10
f 11/11/11 12/12/12 7/7/7
f 6/6/6 7/7/7 12/12/12
f 9/9/9 11/11/11 13/13/13
f 14/14/14 13/13/13 11/11/11
f 14/14/14 11/11/11 15/15/15
f 16/16/16 15/15/15 11/11/11
f 11/11/11 7/7/7 16/16/16
f 17/17/17 16/16/16 7/7/7
f 5/5/5 9/9/9 18/18/18
f 19/19/19 18/18/18 9/9/9
f 9/9/9 13/13/13 19/19/19
f 20/20/20 19/19/19 13/13/13
f 18/18/18 21/21/21 5/5/5
f 17/17/17 7/7/7 22/22/22
f 23/23/23 22/22/22 7/7/7
f 24/24/24 5/5/5 21/21/21
f 24/24/24 23/23/23 5/5/5
f 7/7/7 5/5/5 23/23/23
f 27/27/27 26/26/26 25/25/25
f 28/28/28 25/25/25 26/26/26
f 31/31/31 30/30/30 29/29/29
f 32/32/32 29/29/29 30/30/30
f 35/35/35 34/34/34 33/33/33
f 36/36/36 33/33/33 34/34/34
f 39/39/39 38/38/38 37/37/37
f 40/40/40 37/37/37 38/38/38
f 43/43/43 42/42/42 41/41/41
f 44/44/44 41/41/41 42/42/42
f 41/41/41 45/45/45 43/43/43
f 46/46/46 43/43/43 45/45/45
f 46/46/46 47/47/47 43/43/43
f 48/48/48 43/43/43 47/47/47
f 42/42/42 49/49/49 44/44/44
f 42/42/42 50/50/50 49/49/49
f 51/51/51 49/49/49 50/50/50
f 52/52/52 44/44/44 49/49/49
f 48/48/48 47/47/47 53/53/53
f 48/48/48 53/53/53 50/50/50
f 54/54/54 53/53/53 47/47/47
f 51/51/51 50/50/50 55/55/55
f 56/56/56 55/55/55 50/50/50
f 56/56/56 50/50/50 53/53/53
f 59/59/59 58/58/58 57/57/57
f 60/60/60 57/57/57 58/58/58
f 59/59/59 57/57/57 61/61/61
f 62/62/62 61/61/61 57/57/57
f 60/60/60 58/58/58 63/63/63
f 64/64/64 63/63/63 58/58/58
f 67/67/67 66/66/66 65/65/65
f 68/68/68 65/65/65 66/66/66
f 68/68/68 66/66/66 69/69/69
f 70/70/70 69/69/69 66/66/66
f 65/65/65 71/71/71 67/67/67
f 72/72/72 67/67/67 71/71/71
f 75/75/75 74/74/74 73/73/73
f 76/76/76 73/73/73 74/74/74
f 74/74/74 75/75/75 77/77/77
f 78/78/78 77/77/77 75/75/75
f 73/73/73 76/76/76 79/79/79
f 80/80/80 79/79/79 76/76/76
f 83/83/83 82/82/82 81/81/81
f 84/84/84 81/81/81 82/82/82
f 81/81/81 84/84/84 85/85/85
f 86/86/86 85/85/85 84/84/84
f 82/82/82 83/83/83 87/87/87
f 88/88/88 87/87/87 83/83/83
f 91/91/91 90/90/90 89/89/89
f 92/92/92 89/89/89 90/90/90
f 90/90/90 91/91/91 93/93/93
f 94/94/94 93/93/93 91/91/91
f 92/92/92 95/95/95 89/89/89
f 96/96/96 89/89/89 95/95/95
f 99/99/99 98/98/98 97/97/97
f 100/100/100 97/97/97 98/98/98
f 99/99/99 97/97/97 101/101/101
f 102/102/102 101/101/101 97/97/97
f 98/98/98 103/103/103 100/100/100
f 104/104/104 100/100/100 103/103/103
f 107/107/107 106/106/106 105/105/105
f 108/108/108 105/105/105 106/106/106
f 108/108/108 106/106/106 109/109/109
f 110/110/110 109/109/109 106/106/106
f 105/105/105 111/111/111 107/107/107
f 112/112/112 107/107/107 111/111/111
f 115/115/115 114/114/114 113/113/113
f 116/116/116 113/113/113 114/114/114
f 115/115/115 113/113/113 117/117/117
f 118/118/118 117/117/117 113/113/113
f 116/116/116 114/114/114 119/119/119
f 120/120/120 119/119/119 114/114/114
f 123/123/123 122/122/122 121/121/121
f 124/124/124 121/121/121 122/122/122
f 122/122/122 123/123/123 125/125/125
f 126/126/126 125/125/125 123/123/123
f 124/124/124 127/127/127 121/121/121
f 128/128/128 121/121/121 127/127/127
f 131/131/131 130/130/130 129/129/129
f 132/132/132 129/129/129 130/130/130
f 129/129/129 133/133/133 131/131/131
f 134/134/134 131/131/131 133/133/133
f 132/132/132 130/130/130 135/135/135
f 136/136/136 135/135/135 130/130/130
f 139/139/139 138/138/138 137/137/137
f 140/140/140 137/137/137 138/138/138
f 137/137/137 141/141/141 139/139/139
f 142/142/142 139/139/139 141/141/141
f 145/145/145 144/144/144 143/143/143
f 146/146/146 143/143/143 144/144/144
f 149/149/149 148/148/148 147/147/147
f 150/150/150 147/147/147 148/148/148
f 148/148/148 149/149/149 151/151/151
f 152/152/152 151/151/151 149/149/149
f 155/155/155 154/154/154 153/153/153
f 156/156/156 153/153/153 154/154/154
f 154/154/154 155/155/155 157/157/157
f 158/158/158 157/157/157 155/155/155
f 161/161/161 160/160/160 159/159/159
f 162/162/162 159/159/159 160/160/160
f 160/160/160 163/163/163 162/162/162
f 164/164/164 162/162/162 163/163/163
f 163/163/163 165/165/165 164/164/164
f 166/166/166 164/164/164 165/165/165
f 165/165/165 167/167/167 166/166/166
f 168/168/168 166/166/166 167/167/167
f 167/167/167 169/169/169 168/168/168
f 170/170/170 168/168/168 169/169/169
f 169/169/169 171/171/171 170/170/170
f 172/172/172 170/170/170 171/171/171
f 171/171/171 173/173/173 172/172/172
f 174/174/174 172/172/172 173/173/173
f 173/173/173 175/175/175 174/174/174
f 176/176/176 174/174/174 175/175/175
f 175/175/175 177/177/177 176/176/176
f 178/178/178 176/176/176 177/177/177
f 177/177/177 179/179/179 178/178/178
f 180/180/180 178/178/178 179/179/179
f 180/180/180 179/179/179 181/181/181
f 182/182/182 181/181/181 179/179/179
f 183/183/183 181/181/181 182/182/182
f 161/161/161 183/183/183 182/182/182
f 184/184/184 183/183/183 161/161/161
f 159/159/159 184/184/184 161/161/161
f 183/183/183 184/184/184 185/185/185
f 186/186/186 185/185/185 184/184/184
f 189/189/189 188/188/188 187/187/187
f 190/190/190 187/187/187 188/188/188
f 189/189/189 187/187/187 191/191/191
f 192/192/192 191/191/191 187/187/187
f 192/192/192 193/193/193 191/191/191
f 194/194/194 191/191/191 193/193/193
f 193/193/193 195/195/195 194/194/194
f 196/196/196 194/194/194 195/195/195
f 195/195/195 197/197/197 196/196/196
f 198/198/198 196/196/196 197/197/197
f 197/197/197 199/199/199 198/198/198
f 200/200/200 198/198/198 199/199/199
f 199/199/199 201/201/201 200/200/200
f 202/202/202 200/200/200 201/201/201
f 201/201/201 203/203/203 202/202/202
f 204/204/204 202/202/202 203/203/203
f 203/203/203 205/205/205 204/204/204
f 206/206/206 204/204/204 205/205/205
f 205/205/205 207/207/207 206/206/206
f 208/208/208 206/206/206 207/207/207
f 207/207/207 209/209/209 208/208/208
f 210/210/210 208/208/208 209/209/209
f 211/211/211 210/210/210 209/209/209
f 188/188/188 210/210/210 211/211/211
f 212/212/212 188/188/188 211/211/211
f 190/190/190 188/188/188 212/212/212
f 211/211/211 213/213/213 212/212/212
f 214/214/214 212/212/212 213/213/213
f 217/217/217 216/216/216 215/215/215
f 218/218/218 215/215/215 216/216/216
f 221/221/221 220/220/220 219/219/219
f 222/222/222 219/219/219 220/220/220
f 225/225/225 224/224/224 223/223/223
f 226/226/226 223/223/223 224/224/224
