g Object007
v 54.93457 -38.84192 46.79506
v 36.72515 -44.26408 -25.92831
v 36.72515 -44.2641 32.47805
v 54.93457 -38.84192 -39.83554
v 53.64783 -38.84192 49.06054
v 53.64783 -38.84192 -42.51081
v 51.50064 -38.84192 50.17058
v -49.89041 -38.84192 50.17058
v -35.57859 -44.26408 32.47805
v -52.50124 -38.84192 49.27633
v -53.78801 -38.84192 47.01913
v -53.78801 -38.84192 -39.83554
v -35.57859 -44.26408 -25.92831
v 51.26541 -38.84192 -43.62083
v -49.89041 -38.84192 -43.62083
v -52.50124 -38.84192 -42.51081
v 0.5733056 -47.32073 3.274869
vt 0.973906 0.9045569
vt 0.8117025 0.2759138
vt 0.8114887 0.7794771
vt 0.9742537 0.1545171
vt 0.9610255 0.9262726
vt 0.961367 0.1292616
vt 0.9403845 0.9376746
vt 0.06301789 0.9373518
vt 0.1880062 0.7791964
vt 0.03841007 0.9277427
vt 0.02551028 0.9060808
vt 0.02580196 0.154099
vt 0.1882399 0.2756437
vt 0.938706 0.1178135
vt 0.06335485 0.1174124
vt 0.03871915 0.1288504
vt 0.4998604 0.5275601
vn 0.2306357 -0.9702144 0.07410289
vn 0.1206963 -0.9848893 -0.1242001
vn 0.1206596 -0.984898 0.1241658
vn 0.2376633 -0.9690593 -0.06663347
vn 0.1553279 -0.9747831 0.1602222
vn 0.1571993 -0.9747946 -0.1583152
vn 0.07173286 -0.968854 0.2370158
vn -0.05398456 -0.9661129 0.2524119
vn -0.1206309 -0.9849046 0.1241415
vn -0.1445881 -0.9749468 0.1690356
vn -0.2296689 -0.9704323 0.07425199
vn -0.2376626 -0.9690596 -0.06663451
vn -0.1207072 -0.9848863 -0.1242124
vn 0.06706364 -0.9680647 -0.2415642
vn -0.06302223 -0.9673508 -0.2454805
vn -0.1549962 -0.9747805 -0.1605592
vn 0 -1 0
g Object007_0
f 3/3/3 2/2/2 1/1/1
f 4/4/4 1/1/1 2/2/2
f 5/5/5 3/3/3 1/1/1
f 6/6/6 4/4/4 2/2/2
f 5/5/5 7/7/7 3/3/3
f 7/7/7 8/8/8 3/3/3
f 9/9/9 3/3/3 8/8/8
f 10/10/10 9/9/9 8/8/8
f 10/10/10 11/11/11 9/9/9
f 11/11/11 12/12/12 9/9/9
f 13/13/13 9/9/9 12/12/12
f 2/2/2 13/13/13 14/14/14
f 6/6/6 2/2/2 14/14/14
f 15/15/15 14/14/14 13/13/13
f 16/16/16 13/13/13 12/12/12
f 16/16/16 15/15/15 13/13/13
f 3/3/3 17/17/17 2/2/2
f 13/13/13 17/17/17 9/9/9
f 9/9/9 17/17/17 3/3/3
f 2/2/2 17/17/17 13/13/13
