g Object004
v 134 -26 31
v 134 16 16.97607
v 134 -26 16.97607
v 134 16 31
v 134 -26 31
v 154.5 -26 16.97607
v 154.5 -26 31
v 134 -26 16.97607
v 175 -26 31
v 175 -26 16.97607
v 154.5 16 31
v 175 16 16.97607
v 154.5 16 16.97607
v 175 16 31
v 134 16 31
v 134 16 16.97607
v 141 -18 16.97607
v 154.5 -26 16.97607
v 134 -26 16.97607
v 148.8929 -18 16.97607
v 141 -6.853585 16.97607
v 141 7.999999 16.97607
v 134 16 16.97607
v 168 -18 16.97607
v 175 -26 16.97607
v 175 -11.96049 16.97607
v 168 7.999999 16.97607
v 175 1.960485 16.97607
v 175 16 16.97607
v 154.5 16 16.97607
v 154.5 7.999999 16.97607
v 197 -10 16.97607
v 197 -4.768372E-07 16.97607
v 175 -11.96049 31
v 175 -26 16.97607
v 175 -11.96049 16.97607
v 175 -26 31
v 241 -31 31
v 242 21 17
v 241 21 31
v 242 -31 17
v 241 -31 53.99999
v 241 21 53.99999
v 175 16 31
v 175 1.960485 16.97607
v 175 16 16.97607
v 175 1.960484 31
v 175 1.960484 31
v 197 -4.768372E-07 16.97607
v 175 1.960485 16.97607
v 198 -5.171987E-07 31
v 197 -10 16.97607
v 175 -11.96049 31
v 175 -11.96049 16.97607
v 198 -10 31
v 198 -10 31
v 175 1.960484 31
v 175 -11.96049 31
v 198 -5.171987E-07 31
v 168 -18 31
v 168 8 31
v 175 16 31
v 175 -26 31
v 154.5 16 31
v 155.5 7.999999 31
v 154.5 -26 31
v 155.5 -18 31
v 143 -18 31
v 134 -26 31
v 143 7.999999 31
v 134 16 31
v 241 21 31
v 197 21 17
v 198 21.08999 31
v 242 21 17
v 198 21 53.99999
v 241 21 53.99999
v 242 -31 17
v 198 -31.08999 31
v 197 -31 17
v 241 -31 31
v 198 -31 53.99999
v 241 -31 53.99999
v 187 -44 -117
v 259 -44 -117
v 241 -31 53.99999
v 198 21 53.99999
v 198 -31 53.99999
v 241 21 53.99999
v 198 21.08999 31
v 197 -4.768372E-07 16.97607
v 198 -5.171987E-07 31
v 197 21 17
v 198 21 53.99999
v 198 -10 31
v 198 -31 53.99999
v 198 -31.08999 31
v 197 -31 17
v 197 -10 16.97607
v 187 35 -117
v 197 -10 16.97607
v 197 -4.768372E-07 16.97607
v 187 -44 -117
v 197 -31 17
v 197 21 17
v 242 -31 17
v 259 35 -117
v 242 21 17
v 259 -44 -117
v 197 21 17
v 259 35 -117
v 187 35 -117
v 242 21 17
v 168 -18 76.55591
v 168 8 31
v 168 7.999999 76.55591
v 168 -18 31
v 143 -18 76.55591
v 155.5 -18 31
v 155.5 -18 76.55591
v 143 -18 31
v 168 -18 76.55591
v 168 -18 31
v 143 -18 76.55591
v 143 7.999999 31
v 143 -18 31
v 143 7.999999 76.55591
v 168 7.999999 76.55591
v 155.5 7.999999 31
v 155.5 7.999999 76.55591
v 168 8 31
v 143 7.999999 76.55591
v 143 7.999999 31
v 141 -18 16.97607
v 148.8929 -18 15.963
v 148.8929 -18 16.97607
v 141 -18 15.88
v 141 -18 16.97607
v 141 -6.853585 15.963
v 141 -18 15.88
v 141 -6.853585 16.97607
v 148.8929 -18 15.963
v 148.8929 -6.853582 16.97559
v 148.8929 -18 16.97607
v 148.8929 -6.853582 15.96341
v 141 -6.853585 16.97607
v 148.8929 -6.853582 15.96341
v 141 -6.853585 15.963
v 148.8929 -6.853582 16.97559
v 141 7.999999 16.97607
v 141.9767 -5.911334 16.97606
v 141 -6.853585 16.97607
v 141.9767 6.889711 16.97606
v 154.5 7.999999 16.97607
v 154.4815 6.889711 16.97606
v 168 7.999999 16.97607
v 167.0624 6.889711 16.97606
v 168 -18 16.97607
v 167.0624 -17.09531 16.97606
v 148.8929 -18 16.97607
v 149.8927 -17.09531 16.97606
v 148.8929 -6.853582 16.97559
v 149.8927 -5.911332 16.97566
v 141.9767 6.889711 16.97606
v 141.9767 -5.911334 15.9809
v 141.9767 -5.911334 16.97606
v 141.9767 6.889711 15.9809
v 167.0624 -17.09531 16.97606
v 167.0624 6.88971 15.9809
v 167.0624 6.889711 16.97606
v 167.0624 -17.09531 15.9809
v 167.0624 6.889711 16.97606
v 154.4815 6.889711 15.9809
v 154.4815 6.889711 16.97606
v 167.0624 6.88971 15.9809
v 141.9767 6.889711 15.9809
v 141.9767 6.889711 16.97606
v 149.8927 -17.09531 16.97606
v 167.0624 -17.09531 15.9809
v 167.0624 -17.09531 16.97606
v 149.8927 -17.09531 15.9809
v 149.8927 -5.911332 16.97566
v 149.8927 -17.09531 15.9809
v 149.8927 -17.09531 16.97606
v 149.8927 -5.911332 15.9805
v 141.9767 -5.911334 16.97606
v 149.8927 -5.911332 15.9805
v 149.8927 -5.911332 16.97566
v 141.9767 -5.911334 15.9809
v 167.0624 6.88971 15.9809
v 168 -18 15.963
v 168 7.999999 15.963
v 167.0624 -17.09531 15.9809
v 154.5 7.999999 15.963
v 154.4815 6.889711 15.9809
v 141.9767 6.889711 15.9809
v 141 7.999999 15.963
v 141.9767 -5.911334 15.9809
v 141 -6.853585 15.963
v 148.8929 -6.853582 15.96341
v 149.8927 -5.911332 15.9805
v 149.8927 -17.09531 15.9809
v 148.8929 -18 15.963
v 149.8927 -5.911332 16.0225
v 158.3204 -5.927121 16.0227
v 154.8637 0.5173836 16.0227
v 158.22 -17.09531 16.0227
v 149.8927 -17.09531 16.0227
v 167.0624 0.3623142 16.0227
v 167.0624 -5.784845 16.0227
v 167.0624 -11.61789 16.0227
v 167.0624 6.88971 16.0227
v 154.4815 6.889712 16.0227
v 141.9767 0.6812043 16.0227
v 141.9767 6.889712 16.0227
v 141.9767 -5.911334 16.0227
v 167.0624 -17.09531 16.0227
v 158.22 -17.09531 16.92823
v 167.0624 -11.61789 16.92823
v 167.0624 -17.09531 16.92823
v 158.3204 -5.927135 16.92823
v 149.8927 -5.911332 16.92804
v 149.8927 -17.09531 16.92823
v 167.0624 -5.784845 16.92823
v 167.0624 0.3623147 16.92823
v 154.6902 0.5173869 16.92823
v 167.0624 6.889711 16.92823
v 154.4815 6.889711 16.92823
v 141.9767 0.6812043 16.92823
v 141.9767 6.889711 16.92823
v 141.9767 -5.911334 16.92823
vt -0.5160947 2.726229
vt 1.423723 2.273215
vt -0.5160947 2.273215
vt 1.423723 2.726229
vt -0.2951925 2.726229
vt 0.007559061 2.273215
vt 0.007559061 2.726229
vt -0.2951925 2.273215
vt 0.3103111 2.726229
vt 0.3103111 2.273215
vt 0.007559061 2.726229
vt 0.3103111 2.273215
vt 0.007559061 2.273215
vt 0.3103111 2.726229
vt -0.2951925 2.726229
vt -0.2951925 2.273215
vt -0.1918137 -0.1466067
vt 0.007559061 -0.5160956
vt -0.2951925 -0.5160956
vt -0.07524896 -0.1466067
vt -0.1918137 0.3682032
vt -0.1918137 1.054233
vt -0.2951925 1.423722
vt 0.2069323 -0.1466067
vt 0.3103111 -0.5160956
vt 0.3103111 0.2228823
vt 0.2069323 1.054233
vt 0.3103111 0.6847439
vt 0.3103111 1.423722
vt 0.007559061 1.423722
vt 0.007559061 1.054233
vt 0.6352153 0.2228823
vt 0.6352153 0.6847439
vt 0.2228832 2.726229
vt -0.5160947 2.273215
vt 0.2228832 2.273215
vt -0.5160947 2.726229
vt -0.7470255 2.726229
vt 1.654653 2.273988
vt 1.654653 2.726229
vt -0.7470255 2.273988
vt -0.7470255 3.469196
vt 1.654653 3.469196
vt 1.423723 2.726229
vt 0.6847448 2.273215
vt 1.423723 2.273215
vt 0.6847448 2.726229
vt 0.3103111 2.726229
vt 0.6352153 2.273215
vt 0.3103111 2.273215
vt 0.6499839 2.726229
vt 0.6352153 2.273215
vt 0.3103111 2.726229
vt 0.3103111 2.273215
vt 0.6499839 2.726229
vt 0.6499839 0.2228823
vt 0.3103111 0.6847439
vt 0.3103111 0.2228823
vt 0.6499839 0.6847439
vt 0.2069323 -0.1466067
vt 0.2069323 1.054233
vt 0.3103111 1.423722
vt 0.3103111 -0.5160956
vt 0.007559061 1.423722
vt 0.02232766 1.054233
vt 0.007559061 -0.5160956
vt 0.02232766 -0.1466067
vt -0.1622772 -0.1466067
vt -0.2951925 -0.5160956
vt -0.1622772 1.054233
vt -0.2951925 1.423722
vt 1.285024 2.726229
vt 0.6352153 2.273988
vt 0.6499839 2.726229
vt 1.299793 2.273988
vt 0.6499839 3.469196
vt 1.285024 3.469196
vt 1.299793 2.273988
vt 0.6499839 2.726229
vt 0.6352153 2.273988
vt 1.285024 2.726229
vt 0.6499839 3.469196
vt 1.285024 3.469196
vt 0.4875317 -2.054604
vt 1.550855 -2.054604
vt 1.285024 -0.7470264
vt 0.6499839 1.654652
vt 0.6499839 -0.7470264
vt 1.285024 1.654652
vt 1.65881 2.726229
vt 0.6847448 2.273215
vt 0.6847448 2.726229
vt 1.654653 2.273988
vt 1.654653 3.469196
vt 0.2228832 2.726229
vt -0.7470255 3.469196
vt -0.7511818 2.726229
vt -0.7470255 2.273988
vt 0.2228832 2.273215
vt -0.8652797 -0.2918906
vt -1.873817 1.04507
vt -1.649698 1.04507
vt -2.635823 -0.2918906
vt -2.344468 1.045308
vt -1.179047 1.045308
vt -2.344468 1.045308
vt -0.8652797 -0.2918906
vt -1.179047 1.045308
vt -2.635823 -0.2918906
vt -2.515443 1.045308
vt -2.06613 -0.2918906
vt -2.587912 -0.2918906
vt -2.189328 1.045308
vt -0.1466057 4.197818
vt 1.054234 2.726229
vt 1.054234 4.197818
vt -0.1466057 2.726229
vt -0.1622772 4.197818
vt 0.02232766 2.726229
vt 0.02232766 4.197818
vt -0.1622772 2.726229
vt 0.2069323 4.197818
vt 0.2069323 2.726229
vt -0.1466057 4.197818
vt 1.054234 2.726229
vt -0.1466057 2.726229
vt 1.054234 4.197818
vt 0.2069323 4.197818
vt 0.02232766 2.726229
vt 0.02232766 4.197818
vt 0.2069323 2.726229
vt -0.1622772 4.197818
vt -0.1622772 2.726229
vt -0.1918137 2.273215
vt -0.07524896 2.24049
vt -0.07524896 2.273215
vt -0.1918137 2.237809
vt -0.1466057 2.273215
vt 0.3682041 2.24049
vt -0.1466057 2.237809
vt 0.3682041 2.273215
vt 0.01469108 0.2582065
vt 0.07828581 0.262247
vt 0.01469108 0.262249
vt 0.07828581 0.258208
vt 0.009106521 0.262249
vt 0.02350584 0.258208
vt 0.009106521 0.2582065
vt 0.02350584 0.262247
vt 0.004837062 0.1999846
vt 0.005664764 0.1631152
vt 0.004837062 0.1606179
vt 0.005664764 0.197042
vt 0.01627777 0.1999846
vt 0.0162621 0.197042
vt 0.02771849 0.1999846
vt 0.02692389 0.197042
vt 0.02771849 0.1310764
vt 0.02692389 0.1334741
vt 0.01152596 0.1310764
vt 0.01237329 0.1334741
vt 0.01152596 0.1606179
vt 0.01237329 0.1631152
vt 0.1566967 0.2622488
vt 0.0836617 0.2582778
vt 0.0836617 0.2622488
vt 0.1566967 0.2582778
vt 0.01985269 0.2622488
vt 0.1566967 0.2582778
vt 0.1566967 0.2622488
vt 0.01985269 0.2582778
vt 0.05665328 0.2622488
vt 0.03370143 0.2582778
vt 0.03370143 0.2622488
vt 0.05665328 0.2582778
vt 0.01088833 0.2582778
vt 0.01088833 0.2622488
vt 0.0253299 0.2622488
vt 0.05665328 0.2582778
vt 0.05665328 0.2622488
vt 0.0253299 0.2582778
vt 0.08366173 0.2622473
vt 0.01985269 0.2582778
vt 0.01985269 0.2622488
vt 0.08366173 0.2582761
vt 0.01088833 0.2622488
vt 0.0253299 0.2582761
vt 0.0253299 0.2622473
vt 0.01088833 0.2582778
vt 0.02692389 0.197042
vt 0.02771849 0.1310764
vt 0.02771849 0.1999846
vt 0.02692389 0.1334741
vt 0.01627777 0.1999846
vt 0.0162621 0.197042
vt 0.005664764 0.197042
vt 0.004837062 0.1999846
vt 0.005664764 0.1631152
vt 0.004837062 0.1606179
vt 0.01152596 0.1606179
vt 0.01237329 0.1631152
vt 0.01237329 0.1334741
vt 0.01152596 0.1310764
vt 111.0924 -56.07088
vt 112.3776 -56.07354
vt 111.8504 -54.98978
vt 112.3623 -57.95167
vt 111.0924 -57.95167
vt 113.7107 -55.01585
vt 113.7107 -56.04961
vt 113.7107 -57.03054
vt 113.7107 -53.91816
vt 111.7921 -53.91816
vt 109.8852 -54.96223
vt 109.8852 -53.91816
vt 109.8852 -56.07088
vt 113.7107 -57.95167
vt 112.3623 -57.95167
vt 113.7107 -57.03054
vt 113.7107 -57.95167
vt 112.3776 -56.07354
vt 111.0924 -56.07088
vt 111.0924 -57.95167
vt 113.7107 -56.04961
vt 113.7107 -55.01585
vt 111.824 -54.98978
vt 113.7107 -53.91816
vt 111.7921 -53.91816
vt 109.8852 -54.96223
vt 109.8852 -53.91816
vt 109.8852 -56.07088
vn 1 0 0
vn 1 0 0
vn 1 0 0
vn 1 0 0
vn 0 1 0
vn 0 1 0
vn 0 1 0
vn 0 1 0
vn 0 1 0
vn 0 1 0
vn 0 -1 0
vn 0 -1 0
vn 0 -1 0
vn 0 -1 0
vn 0 -1 0
vn 0 -1 0
vn 0 0 1
vn 0 0 1
vn 0 0 1
vn 0 0 1
vn 1.029948E-05 0 1
vn 0 0 1
vn 0 0 1
vn 0 0 1
vn 0 0 1
vn 0 0 1
vn 0 0 1
vn 0 0 1
vn 0 0 1
vn 0 0 1
vn 0 0 1
vn 0 0 1
vn 0 0 1
vn -1 0 0
vn -1 0 0
vn -1 0 0
vn -1 0 0
vn -0.9993644 0 -0.03564617
vn -0.9950418 0 -0.09945846
vn -0.9993644 0 -0.03564618
vn -0.9950477 0 -0.09939857
vn -1 0 0
vn -1 0 0
vn -1 0 0
vn -1 0 0
vn -1 0 0
vn -1 0 0
vn -0.08738153 -0.9961725 0.002181047
vn -0.08624996 -0.9962656 0.003969193
vn -0.08876121 -0.9960529 0
vn -0.08492891 -0.9963686 0.006055996
vn -0.08625001 0.9962656 0.003969208
vn -0.08738156 0.9961725 0.002181071
vn -0.08876123 0.9960529 0
vn -0.08492897 0.9963686 0.006056002
vn 0 0 -1
vn 0 0 -1
vn 0 0 -1
vn 0 0 -1
vn 0 0 -1
vn 0 0 -1
vn 0 0 -1
vn 0 0 -1
vn 0 0 -1
vn 0 0 -1
vn 0 0 -1
vn 0 0 -1
vn 0 0 -1
vn 0 0 -1
vn 0 0 -1
vn 0 0 -1
vn -0.0005205894 -0.9999999 3.250553E-05
vn -0.0007941559 -0.9986498 -0.05194364
vn -0.002092798 -0.9999968 0.001448731
vn 0 -0.9984736 -0.05523039
vn -0.001438408 -0.9999954 -0.002689199
vn 0 -1 0
vn -0.0007811335 0.998711 -0.05075235
vn -0.001223842 0.999999 0.0007417136
vn 0 0.9988707 -0.04751186
vn -0.001389556 0.9999988 -0.0006745351
vn -0.001438408 0.9999954 -0.002689199
vn 0 1 0
vn 0 0.995327 -0.09656159
vn 0 0.995327 -0.09656158
vn 0 0 -1
vn 0 0 -1
vn 0 0 -1
vn 0 0 -1
vn 0.9993663 2.533595E-05 -0.03559514
vn 0.9973069 3.380713E-05 -0.07334065
vn 0.9997186 0 -0.02372205
vn 0.997341 8.304153E-05 -0.0728757
vn 1 0 0
vn 0.9997182 -1.68951E-05 -0.0237372
vn 1 0 0
vn 0.9993655 0 -0.03561774
vn 0.9973429 -5.828499E-05 -0.07285028
vn 0.9973081 -5.082178E-05 -0.07332566
vn 0.9972262 0 -0.07443087
vn 0.9973081 -5.082178E-05 -0.07332566
vn 0.9973069 3.380713E-05 -0.07334065
vn 0.9972262 0 -0.07443094
vn 0.9973429 -5.828499E-05 -0.07285028
vn 0.997341 8.304153E-05 -0.0728757
vn -0.9950477 0 -0.09939857
vn -0.9920483 0 -0.1258569
vn -0.9950418 0 -0.09945846
vn -0.9920483 0 -0.1258569
vn -0.0007941559 -0.9986498 -0.05194364
vn 0 -0.9945865 -0.103912
vn 0 -0.9945865 -0.103912
vn 0 -0.9984736 -0.05523039
vn -1 0 0
vn -1 0 0
vn -1 0 0
vn -1 0 0
vn 0 1 0
vn 0 1 0
vn 0 1 0
vn 0 1 0
vn 0 1 0
vn 0 1 0
vn 1 0 0
vn 1 0 0
vn 1 0 0
vn 1 0 0
vn 0 -1 0
vn 0 -1 0
vn 0 -1 0
vn 0 -1 0
vn 0 -1 0
vn 0 -1 0
vn 0 1 0
vn 0 1 0
vn 0 1 0
vn 0 1 0
vn 1 0 0
vn 1 0 0
vn 1 0 0
vn 1 0 0
vn -1 0 0
vn -1 0 0
vn -1 0 0
vn -1 0 0
vn 0 -1 0
vn 0 -1 0
vn 0 -1 0
vn 0 -1 0
vn 0 0 1
vn 3.069923E-05 -1.967562E-05 1
vn 1.029948E-05 0 1
vn 0 0 1
vn 0 0 1
vn 0 -1.030732E-05 1
vn 0 0 1
vn 0 0 1
vn 0 0 1
vn 0 0 1
vn 0 0 1
vn -1.521998E-05 2.739436E-05 1
vn -2.232303E-05 -5.730634E-05 1
vn -2.915235E-05 -4.558446E-05 1
vn 1 0 0
vn 1 0 0
vn 1 0 0
vn 1 0 0
vn -1 0 0
vn -1 0 0
vn -1 0 0
vn -1 0 0
vn 0 -1 0
vn 0 -1 0
vn 0 -1 0
vn 0 -1 0
vn 0 -1 0
vn 0 -1 0
vn 0 1 0
vn 0 1 0
vn 0 1 0
vn 0 1 0
vn 1 0 0
vn 1 0 0
vn 1 0 0
vn 1 0 0
vn 0 1 0
vn 0 1 0
vn 0 1 0
vn 0 1 0
vn -0.009881691 -0.007770129 -0.999921
vn -0.009758355 0.009663504 -0.9999057
vn -0.008519534 -0.008920496 -0.9999239
vn -0.009468905 0.009963491 -0.9999056
vn 0 -0.01611426 -0.9998702
vn 0 -0.01611426 -0.9998702
vn 0.009408116 -0.00783913 -0.999925
vn 0.008414222 -0.008713456 -0.9999267
vn 0.009113135 0.00951832 -0.9999132
vn 0.009394189 0.00925133 -0.9999131
vn 0.008449782 0.009216568 -0.9999218
vn 0.008863957 0.008735135 -0.9999226
vn 0.008726714 0.01011435 -0.9999108
vn 0.009498574 0.009279542 -0.9999119
vn 0 0 -1
vn 0 0 -1
vn 0 0 -1
vn 0 0 -1
vn 0 -1.722483E-05 -1
vn 0 0 -1
vn 0 0 -1
vn 0 0 -1
vn 0 0 -1
vn 0 0 -1
vn 0 0 -1
vn 0 0 -1
vn -2.433571E-05 0 -1
vn 0 0 -1
vn 0 0 1
vn 0 0 1
vn 0 0 1
vn 0 0 1
vn 0 0 1
vn 0 1.739538E-05 1
vn 0 0 1
vn 0 0 1
vn 0 0 1
vn 0 0 1
vn 0 0 1
vn 0 0 1
vn 0 0 1
vn 2.457666E-05 0 1
g Object004_0
f 3/3/3 2/2/2 1/1/1
f 4/4/4 1/1/1 2/2/2
f 7/7/7 6/6/6 5/5/5
f 8/8/8 5/5/5 6/6/6
f 7/7/7 9/9/9 6/6/6
f 10/10/10 6/6/6 9/9/9
f 13/13/13 12/12/12 11/11/11
f 14/14/14 11/11/11 12/12/12
f 11/11/11 15/15/15 13/13/13
f 16/16/16 13/13/13 15/15/15
f 19/19/19 18/18/18 17/17/17
f 20/20/20 17/17/17 18/18/18
f 17/17/17 21/21/21 19/19/19
f 21/21/21 22/22/22 19/19/19
f 22/22/22 23/23/23 19/19/19
f 20/20/20 18/18/18 24/24/24
f 25/25/25 24/24/24 18/18/18
f 26/26/26 24/24/24 25/25/25
f 27/27/27 24/24/24 26/26/26
f 28/28/28 27/27/27 26/26/26
f 29/29/29 27/27/27 28/28/28
f 29/29/29 30/30/30 27/27/27
f 23/23/23 22/22/22 30/30/30
f 31/31/31 27/27/27 30/30/30
f 31/31/31 30/30/30 22/22/22
f 26/26/26 32/32/32 28/28/28
f 33/33/33 28/28/28 32/32/32
f 36/36/36 35/35/35 34/34/34
f 37/37/37 34/34/34 35/35/35
f 40/40/40 39/39/39 38/38/38
f 41/41/41 38/38/38 39/39/39
f 38/38/38 42/42/42 40/40/40
f 43/43/43 40/40/40 42/42/42
f 46/46/46 45/45/45 44/44/44
f 47/47/47 44/44/44 45/45/45
f 50/50/50 49/49/49 48/48/48
f 51/51/51 48/48/48 49/49/49
f 54/54/54 53/53/53 52/52/52
f 55/55/55 52/52/52 53/53/53
f 58/58/58 57/57/57 56/56/56
f 59/59/59 56/56/56 57/57/57
f 58/58/58 60/60/60 57/57/57
f 61/61/61 57/57/57 60/60/60
f 57/57/57 61/61/61 62/62/62
f 63/63/63 60/60/60 58/58/58
f 62/62/62 61/61/61 64/64/64
f 65/65/65 64/64/64 61/61/61
f 63/63/63 66/66/66 60/60/60
f 67/67/67 60/60/60 66/66/66
f 67/67/67 66/66/66 68/68/68
f 69/69/69 68/68/68 66/66/66
f 68/68/68 69/69/69 70/70/70
f 65/65/65 70/70/70 64/64/64
f 71/71/71 70/70/70 69/69/69
f 71/71/71 64/64/64 70/70/70
f 74/74/74 73/73/73 72/72/72
f 75/75/75 72/72/72 73/73/73
f 74/74/74 72/72/72 76/76/76
f 77/77/77 76/76/76 72/72/72
f 80/80/80 79/79/79 78/78/78
f 81/81/81 78/78/78 79/79/79
f 79/79/79 82/82/82 81/81/81
f 83/83/83 81/81/81 82/82/82
f 80/80/80 78/78/78 84/84/84
f 85/85/85 84/84/84 78/78/78
f 88/88/88 87/87/87 86/86/86
f 89/89/89 86/86/86 87/87/87
f 92/92/92 91/91/91 90/90/90
f 93/93/93 90/90/90 91/91/91
f 92/92/92 90/90/90 94/94/94
f 92/92/92 94/94/94 95/95/95
f 96/96/96 95/95/95 94/94/94
f 97/97/97 95/95/95 96/96/96
f 97/97/97 98/98/98 95/95/95
f 99/99/99 95/95/95 98/98/98
f 102/102/102 101/101/101 100/100/100
f 103/103/103 100/100/100 101/101/101
f 103/103/103 101/101/101 104/104/104
f 100/100/100 105/105/105 102/102/102
f 108/108/108 107/107/107 106/106/106
f 109/109/109 106/106/106 107/107/107
f 112/112/112 111/111/111 110/110/110
f 113/113/113 110/110/110 111/111/111
f 116/116/116 115/115/115 114/114/114
f 117/117/117 114/114/114 115/115/115
f 120/120/120 119/119/119 118/118/118
f 121/121/121 118/118/118 119/119/119
f 120/120/120 122/122/122 119/119/119
f 123/123/123 119/119/119 122/122/122
f 126/126/126 125/125/125 124/124/124
f 127/127/127 124/124/124 125/125/125
f 130/130/130 129/129/129 128/128/128
f 131/131/131 128/128/128 129/129/129
f 130/130/130 132/132/132 129/129/129
f 133/133/133 129/129/129 132/132/132
f 136/136/136 135/135/135 134/134/134
f 137/137/137 134/134/134 135/135/135
f 140/140/140 139/139/139 138/138/138
f 141/141/141 138/138/138 139/139/139
g Object004_1
f 144/144/144 143/143/143 142/142/142
f 145/145/145 142/142/142 143/143/143
f 148/148/148 147/147/147 146/146/146
f 149/149/149 146/146/146 147/147/147
f 152/152/152 151/151/151 150/150/150
f 153/153/153 150/150/150 151/151/151
f 150/150/150 153/153/153 154/154/154
f 155/155/155 154/154/154 153/153/153
f 154/154/154 155/155/155 156/156/156
f 157/157/157 156/156/156 155/155/155
f 156/156/156 157/157/157 158/158/158
f 159/159/159 158/158/158 157/157/157
f 158/158/158 159/159/159 160/160/160
f 161/161/161 160/160/160 159/159/159
f 160/160/160 161/161/161 162/162/162
f 163/163/163 162/162/162 161/161/161
f 162/162/162 163/163/163 152/152/152
f 151/151/151 152/152/152 163/163/163
f 166/166/166 165/165/165 164/164/164
f 167/167/167 164/164/164 165/165/165
f 170/170/170 169/169/169 168/168/168
f 171/171/171 168/168/168 169/169/169
f 174/174/174 173/173/173 172/172/172
f 175/175/175 172/172/172 173/173/173
f 173/173/173 174/174/174 176/176/176
f 177/177/177 176/176/176 174/174/174
f 180/180/180 179/179/179 178/178/178
f 181/181/181 178/178/178 179/179/179
f 184/184/184 183/183/183 182/182/182
f 185/185/185 182/182/182 183/183/183
f 188/188/188 187/187/187 186/186/186
f 189/189/189 186/186/186 187/187/187
f 192/192/192 191/191/191 190/190/190
f 193/193/193 190/190/190 191/191/191
f 192/192/192 190/190/190 194/194/194
f 195/195/195 194/194/194 190/190/190
f 195/195/195 196/196/196 194/194/194
f 197/197/197 194/194/194 196/196/196
f 196/196/196 198/198/198 197/197/197
f 199/199/199 197/197/197 198/198/198
f 199/199/199 198/198/198 200/200/200
f 201/201/201 200/200/200 198/198/198
f 201/201/201 202/202/202 200/200/200
f 203/203/203 200/200/200 202/202/202
f 191/191/191 203/203/203 193/193/193
f 202/202/202 193/193/193 203/203/203
g Object004_2
f 206/206/206 205/205/205 204/204/204
f 204/204/204 205/205/205 207/207/207
f 208/208/208 204/204/204 207/207/207
f 206/206/206 209/209/209 205/205/205
f 210/210/210 205/205/205 209/209/209
f 211/211/211 205/205/205 210/210/210
f 207/207/207 205/205/205 211/211/211
f 209/209/209 206/206/206 212/212/212
f 213/213/213 212/212/212 206/206/206
f 206/206/206 214/214/214 213/213/213
f 214/214/214 206/206/206 204/204/204
f 215/215/215 213/213/213 214/214/214
f 216/216/216 214/214/214 204/204/204
f 217/217/217 207/207/207 211/211/211
f 220/220/220 219/219/219 218/218/218
f 219/219/219 221/221/221 218/218/218
f 218/218/218 221/221/221 222/222/222
f 223/223/223 218/218/218 222/222/222
f 224/224/224 221/221/221 219/219/219
f 224/224/224 225/225/225 221/221/221
f 226/226/226 221/221/221 225/225/225
f 221/221/221 226/226/226 222/222/222
f 225/225/225 227/227/227 226/226/226
f 228/228/228 226/226/226 227/227/227
f 222/222/222 226/226/226 229/229/229
f 226/226/226 228/228/228 229/229/229
f 230/230/230 229/229/229 228/228/228
f 231/231/231 222/222/222 229/229/229
