g Object002
v 112.8186 -11 -34.165
v 99.18141 -4.210001 -34.165
v 112.8186 -4.210001 -34.165
v 99.18141 -11 -34.165
v 127 -11 -34.16617
v 127 -4.21 -34.16617
v 112.8186 2.999999 -34.165
v 127 3 -34.16617
v 85.00001 -11 -34.165
v 85.00001 -4.21 -34.165
v 85.00001 3 -34.165
v 99.18141 2.999999 -34.165
vt 108.2243 -62.17043
vt 106.8384 -61.38984
vt 108.2243 -61.38984
vt 106.8384 -62.17043
vt 109.6655 -62.17043
vt 109.6655 -61.38984
vt 108.2243 -60.56096
vt 109.6655 -60.56096
vt 105.3972 -62.17043
vt 105.3972 -61.38984
vt 105.3972 -60.56096
vt 106.8384 -60.56096
vn 4.10214E-05 0 1
vn 0 0 1
vn 4.10214E-05 0 1
vn 0 0 1
vn 8.20428E-05 0 1
vn 8.20428E-05 0 1
vn 4.10214E-05 0 1
vn 8.20428E-05 0 1
vn 0 0 1
vn 0 0 1
vn 0 0 1
vn 0 0 1
g Object002_0
f 3/3/3 2/2/2 1/1/1
f 4/4/4 1/1/1 2/2/2
f 1/1/1 5/5/5 3/3/3
f 6/6/6 3/3/3 5/5/5
f 7/7/7 2/2/2 3/3/3
f 7/7/7 3/3/3 8/8/8
f 6/6/6 8/8/8 3/3/3
f 4/4/4 2/2/2 9/9/9
f 10/10/10 9/9/9 2/2/2
f 10/10/10 2/2/2 11/11/11
f 12/12/12 11/11/11 2/2/2
f 12/12/12 2/2/2 7/7/7
