g pb_Mesh1014226
v -12.99999 -1 2.249999
v -22.99999 -1 2.249999
v -12.99999 1 1.249999
v -22.99999 1 1.249999
v -22.99999 -1 2.249999
v -22 0 -6.25
v -22.99999 1 1.249999
v -22 1 -6.25
v -22 0 -6.25
v -14 0 -6.25
v -22 1 -6.25
v -14 1 -6.25
v -14 0 -6.25
v -12.99999 -1 2.249999
v -14 1 -6.25
v -12.99999 1 1.249999
v -14 0 -6.25
v -22 0 -6.25
v -12.99999 -1 2.249999
v -22.99999 -1 2.249999
v -12.99999 1 1.249999
v -22.99999 1 1.249999
v -14 1 -6.25
v -22 1 -6.25
vt -25.35765 -1.900657
vt -35.35765 -1.900657
vt -25.35765 0.335411
vt -35.35765 0.335411
vt -2.000001 2.5
vt -3 2.5
vt -2 3
vt -3 3
vt -3 2.5
vt -4 2.5
vt -3 3
vt -4 3
vt -4 2.5
vt -5 2.5
vt -4 3
vt -5 3
vt -3.5 -3
vt -2.5 -3
vt -3.5 -3.5
vt -2.5 -3.5
vt -1.999981 6.75
vt -0.6249871 6.75
vt -1.999987 6
vt -0.6249937 6
vn 0 0.4472135 0.8944272
vn 0 0.4472135 0.8944272
vn 0 0.4472135 0.8944272
vn 0 0.4472135 0.8944272
vn -0.9903753 -0.06189786 -0.1237958
vn -0.9910674 -0.04217267 -0.1265181
vn -0.9910674 -0.04217267 -0.1265181
vn -0.9912281 0 -0.1321625
vn 0 0 -1
vn 0 0 -1
vn 0 0 -1
vn 0 0 -1
vn 0.9931505 0 -0.1168419
vn 0.9910671 -0.0421733 -0.1265199
vn 0.9910671 -0.0421733 -0.1265199
vn 0.9890707 -0.06593841 -0.1318769
vn 0 -0.9931506 -0.1168413
vn 0 -0.9931507 -0.1168413
vn 0 -0.9931507 -0.1168413
vn 0 -0.9931507 -0.1168413
vn 0 1 0
vn 0 1 0
vn 0 1 0
vn 0 1 0
g pb_Mesh1014226_0
f 3/3/3 2/2/2 1/1/1
f 3/3/3 4/4/4 2/2/2
g pb_Mesh1014226_1
f 7/7/7 6/6/6 5/5/5
f 7/7/7 8/8/8 6/6/6
f 11/11/11 10/10/10 9/9/9
f 11/11/11 12/12/12 10/10/10
f 15/15/15 14/14/14 13/13/13
f 15/15/15 16/16/16 14/14/14
f 19/19/19 18/18/18 17/17/17
f 19/19/19 20/20/20 18/18/18
g pb_Mesh1014226_2
f 23/23/23 22/22/22 21/21/21
f 23/23/23 24/24/24 22/22/22
