g pb_Mesh1142852
v 0 0 0
v -1 0 0
v 0 3 0
v -1 3 0
v -3 0 0
v -4 0 0
v -3 3 0
v -4 3 0
v -1 0 -1
v 0 0 -1
v -1 3 -1
v 0 3 -1
v -4 0 -1
v -3 0 -1
v -4 3 -1
v -3 3 -1
v -3 3 0
v -1 3 0
v -3 3 -1
v -1 3 -1
v -3 0 -1
v -3 0 0
v -3 3 -1
v -3 0 0
v -3 3 0
v -3 3 -1
v -1 0 0
v -1 0 -1
v -1 3 0
v -1 3 -1
v -3 4 -1
v -1 4 -1
v 0 4 -1
v -4 4 -1
v -3 4 0
v -4 4 0
v -1 4 0
v 0 4 0
v 0 4 0
v -1 4 0
v 0 7 0
v -1 7 0
v -3 4 0
v -4 4 0
v -3 7 0
v -4 7 0
v -1 4 -1
v 0 4 -1
v -1 7 -1
v 0 7 -1
v -4 4 -1
v -3 4 -1
v -4 7 -1
v -3 7 -1
v -3 4 -1
v -4 4 -1
v -3 7 -1
v -4 7 -1
v 0 3 -1
v 0 4 -1
v 0 4 -1
v 0 4 -1
v 0 7 -1
v 0 4 -1
v -1 4 -1
v -1 7 -1
v 0 4 -1
v 0 7 -1
v -4 4 -1
v -4 3 -1
v -4 7 -1
v -4 3 -1
v -4 4 -1
v -4 7 -1
v -3 4 0
v -1 4 0
v -3 7 0
v -1 7 0
v -4 3 0
v -4 4 0
v -4 4 0
v -4 4 0
v -4 7 0
v -4 4 0
v -4 4 0
v -4 7 0
v 0 4 0
v 0 7 0
v 0 4 0
v 0 3 0
v 0 7 0
v 0 3 0
v 0 4 0
v 0 7 0
vt 0 0
vt -1 0
vt 0 3
vt -1 3
vt -3 0
vt -4 0
vt -3 3
vt -4 3
vt 1 0
vt 0 0
vt 1 3
vt 0 3
vt 4 0
vt 3 0
vt 4 3
vt 3 3
vt -3 0
vt -1 0
vt -3 -1
vt -1 -1
vt -2.125 3.0625
vt -2.125 3.0625
vt -2.125 3.4375
vt -2.125 3.0625
vt -2.125 3.4375
vt -2.125 3.4375
vt 0 0
vt -1 0
vt 0 3
vt -1 3
vt 3 4
vt 1 4
vt 0 4
vt 4 4
vt -3 4
vt -4 4
vt -1 4
vt 0 4
vt -1.75 3.5625
vt -1.875 3.5625
vt -1.75 3.9375
vt -1.875 3.9375
vt -2.125 3.5625
vt -2.25 3.5625
vt -2.125 3.9375
vt -2.25 3.9375
vt -1.875 3.5625
vt -1.75 3.5625
vt -1.875 3.9375
vt -1.75 3.9375
vt -2.25 3.5625
vt -2.125 3.5625
vt -2.25 3.9375
vt -2.125 3.9375
vt -2.125 3.5625
vt -2.25 3.5625
vt -2.125 3.9375
vt -2.25 3.9375
vt -1.75 3.4375
vt -1.75 3.5625
vt -1.75 3.5625
vt -1.75 3.5625
vt -1.75 3.9375
vt -1.75 3.5625
vt -1.875 3.5625
vt -1.875 3.9375
vt -1.75 3.5625
vt -1.75 3.9375
vt -2.25 3.5625
vt -2.25 3.4375
vt -2.25 3.9375
vt -2.25 3.4375
vt -2.25 3.5625
vt -2.25 3.9375
vt -2.125 3.5625
vt -1.875 3.5625
vt -2.125 3.9375
vt -1.875 3.9375
vt -2.25 3.4375
vt -2.25 3.5625
vt -2.25 3.5625
vt -2.25 3.5625
vt -2.25 3.9375
vt -2.25 3.5625
vt -2.25 3.5625
vt -2.25 3.9375
vt -1.75 3.5625
vt -1.75 3.9375
vt -1.75 3.5625
vt -1.75 3.4375
vt -1.75 3.9375
vt -1.75 3.4375
vt -1.75 3.5625
vt -1.75 3.9375
vn 0 0 1
vn 0 0 1
vn 0 0 1
vn 0 0 1
vn 0 0 1
vn 0 0 1
vn 0 0 1
vn 0 0 1
vn 0 0 -1
vn 0 0 -1
vn 0 0 -1
vn 0 0 -1
vn 0 0 -1
vn 0 0 -1
vn 0 0 -1
vn 0 0 -1
vn 0 -1 0
vn 0 -1 0
vn 0 -1 0
vn 0 -1 0
vn 1 0 0
vn 1 0 0
vn 1 0 0
vn 1 0 0
vn 1 0 0
vn 1 0 0
vn -1 0 0
vn -1 0 0
vn -1 0 0
vn -1 0 0
vn 0 0 -1
vn 0 0 -1
vn 0 0 -1
vn 0 0 -1
vn 0 0 1
vn 0 0 1
vn 0 0 1
vn 0 0 1
vn 0 0 1
vn 0 0 1
vn 0 0 1
vn 0 0 1
vn 0 0 1
vn 0 0 1
vn 0 0 1
vn 0 0 1
vn 0 0 -1
vn 0 0 -1
vn 0 0 -1
vn 0 0 -1
vn 0 0 -1
vn 0 0 -1
vn 0 0 -1
vn 0 0 -1
vn 0 0 1
vn 0 0 1
vn 0 0 1
vn 0 0 1
vn 0 0 0
vn 0 0 0
vn 0 0 0
vn 0 0 0
vn 0 0 0
vn 0 0 0
vn 0 0 1
vn 0 0 1
vn 0 0 1
vn 0 0 1
vn 0 0 0
vn 0 0 0
vn 0 0 0
vn 0 0 0
vn 0 0 0
vn 0 0 0
vn 0 0 -1
vn 0 0 -1
vn 0 0 -1
vn 0 0 -1
vn 0 0 0
vn 0 0 0
vn 0 0 0
vn 0 0 0
vn 0 0 0
vn 0 0 0
vn 0 0 -1
vn 0 0 -1
vn 0 0 -1
vn 0 0 -1
vn 0 0 0
vn 0 0 0
vn 0 0 0
vn 0 0 0
vn 0 0 0
vn 0 0 0
g pb_Mesh1142852_0
f 3/3/3 2/2/2 1/1/1
f 3/3/3 4/4/4 2/2/2
f 7/7/7 6/6/6 5/5/5
f 7/7/7 8/8/8 6/6/6
f 11/11/11 10/10/10 9/9/9
f 11/11/11 12/12/12 10/10/10
f 15/15/15 14/14/14 13/13/13
f 15/15/15 16/16/16 14/14/14
f 19/19/19 18/18/18 17/17/17
f 19/19/19 20/20/20 18/18/18
f 23/23/23 22/22/22 21/21/21
f 26/26/26 25/25/25 24/24/24
f 29/29/29 28/28/28 27/27/27
f 29/29/29 30/30/30 28/28/28
f 31/31/31 11/11/11 16/16/16
f 31/31/31 32/32/32 11/11/11
f 32/32/32 12/12/12 11/11/11
f 32/32/32 33/33/33 12/12/12
f 34/34/34 16/16/16 15/15/15
f 34/34/34 31/31/31 16/16/16
f 35/35/35 8/8/8 7/7/7
f 35/35/35 36/36/36 8/8/8
f 37/37/37 7/7/7 4/4/4
f 37/37/37 35/35/35 7/7/7
f 38/38/38 4/4/4 3/3/3
f 38/38/38 37/37/37 4/4/4
g pb_Mesh1142852_1
f 41/41/41 40/40/40 39/39/39
f 41/41/41 42/42/42 40/40/40
f 45/45/45 44/44/44 43/43/43
f 45/45/45 46/46/46 44/44/44
f 42/42/42 43/43/43 40/40/40
f 42/42/42 45/45/45 43/43/43
f 49/49/49 48/48/48 47/47/47
f 49/49/49 50/50/50 48/48/48
f 53/53/53 52/52/52 51/51/51
f 53/53/53 54/54/54 52/52/52
f 54/54/54 47/47/47 52/52/52
f 54/54/54 49/49/49 47/47/47
f 57/57/57 56/56/56 55/55/55
f 57/57/57 58/58/58 56/56/56
f 61/61/61 60/60/60 59/59/59
f 64/64/64 63/63/63 62/62/62
f 66/66/66 55/55/55 65/65/65
f 66/66/66 57/57/57 55/55/55
f 68/68/68 65/65/65 67/67/67
f 68/68/68 66/66/66 65/65/65
f 71/71/71 70/70/70 69/69/69
f 74/74/74 73/73/73 72/72/72
f 77/77/77 76/76/76 75/75/75
f 77/77/77 78/78/78 76/76/76
f 81/81/81 80/80/80 79/79/79
f 84/84/84 83/83/83 82/82/82
f 86/86/86 75/75/75 85/85/85
f 86/86/86 77/77/77 75/75/75
f 78/78/78 87/87/87 76/76/76
f 78/78/78 88/88/88 87/87/87
f 91/91/91 90/90/90 89/89/89
f 94/94/94 93/93/93 92/92/92
