g pb_Mesh1276128
v -1.000005 -67.01447 0
v -1.000002 -17.95055 0
v -0.7071123 -67.01447 0.7071068
v -0.7071092 -17.95055 0.7071068
v -0.7071123 -67.01447 0.7071068
v -0.7071092 -17.95055 0.7071068
v -5.947846E-06 -67.01447 1
v -3.742769E-06 -17.95055 1
v -5.947846E-06 -67.01447 1
v -3.742769E-06 -17.95055 1
v 0.7071013 -67.01447 0.7071068
v 0.7071044 -17.95055 0.7071068
v 0.7071013 -67.01447 0.7071068
v 0.7071044 -17.95055 0.7071068
v 0.9999945 -67.01447 -8.742278E-08
v 0.9999976 -17.95055 -8.742278E-08
v 0.9999945 -67.01447 -8.742278E-08
v 0.9999976 -17.95055 -8.742278E-08
v 0.7071013 -67.01447 -0.7071067
v 0.7071044 -17.95055 -0.7071067
v 0.7071013 -67.01447 -0.7071067
v 0.7071044 -17.95055 -0.7071067
v -6.003483E-06 -67.01447 -1
v -3.798405E-06 -17.95055 -1
v -6.003483E-06 -67.01447 -1
v -3.798405E-06 -17.95055 -1
v -0.7071121 -67.01447 -0.7071069
v -0.707109 -17.95055 -0.7071069
v -0.7071121 -67.01447 -0.7071069
v -0.707109 -17.95055 -0.7071069
v -1.000005 -67.01447 0
v -1.000002 -17.95055 0
v -0.7071123 -67.01447 0.7071068
v -5.991557E-06 -67.01447 0
v -1.000005 -67.01447 0
v -5.947846E-06 -67.01447 1
v 0.7071013 -67.01447 0.7071068
v 0.9999945 -67.01447 -8.742278E-08
v 0.7071013 -67.01447 -0.7071067
v -6.003483E-06 -67.01447 -1
v -0.7071121 -67.01447 -0.7071069
v -1.000002 -17.95055 0
v -3.78648E-06 -17.95055 0
v -0.7071092 -17.95055 0.7071068
v -3.742769E-06 -17.95055 1
v 0.7071044 -17.95055 0.7071068
v 0.9999976 -17.95055 -8.742278E-08
v 0.7071044 -17.95055 -0.7071067
v -3.798405E-06 -17.95055 -1
v -0.707109 -17.95055 -0.7071069
vt -0.3826847 -67.01447
vt -0.3826834 -17.95055
vt 0.382682 -67.01447
vt 0.3826832 -17.95055
vt -0.3826883 -67.01447
vt -0.3826854 -17.95055
vt 0.3826782 -67.01447
vt 0.3826802 -17.95055
vt -0.3826887 -67.01447
vt -0.3826867 -17.95055
vt 0.3826786 -67.01447
vt 0.3826814 -17.95055
vt -0.3826855 -67.01447
vt -0.3826844 -17.95055
vt 0.3826814 -67.01447
vt 0.3826826 -17.95055
vt -0.3826813 -67.01447
vt -0.3826825 -17.95055
vt 0.3826855 -67.01447
vt 0.3826843 -17.95055
vt -0.3826786 -67.01447
vt -0.3826815 -17.95055
vt 0.3826888 -67.01447
vt 0.3826868 -17.95055
vt -0.3826781 -67.01447
vt -0.3826801 -17.95055
vt 0.3826881 -67.01447
vt 0.3826853 -17.95055
vt -0.3826821 -67.01447
vt -0.3826832 -17.95055
vt 0.3826848 -67.01447
vt 0.3826835 -17.95055
vt -0.7071123 0.7071068
vt -5.991557E-06 0
vt -1.000005 0
vt -5.947846E-06 1
vt 0.7071013 0.7071068
vt 0.9999945 -8.742278E-08
vt 0.7071013 -0.7071067
vt -6.003483E-06 -1
vt -0.7071121 -0.7071069
vt 1.000002 0
vt 3.78648E-06 0
vt 0.7071092 0.7071068
vt 3.742769E-06 1
vt -0.7071044 0.7071068
vt -0.9999976 -8.742278E-08
vt -0.7071044 -0.7071067
vt 3.798405E-06 -1
vt 0.707109 -0.7071069
vn -0.9238799 6.169109E-08 2.980232E-08
vn -0.9238799 6.174365E-08 2.980232E-08
vn -0.6532817 4.24826E-08 0.653281
vn -0.6532819 3.967378E-08 0.653281
vn -0.6532817 4.24826E-08 0.653281
vn -0.6532819 3.967378E-08 0.653281
vn -3.427267E-07 1.70999E-09 0.9238795
vn -5.215406E-07 -1.819611E-09 0.9238795
vn -3.427267E-07 1.70999E-09 0.9238795
vn -5.215406E-07 -1.819611E-09 0.9238795
vn 0.6532813 -3.953258E-08 0.6532816
vn 0.6532812 -4.127651E-08 0.6532816
vn 0.6532813 -3.953258E-08 0.6532816
vn 0.6532812 -4.127651E-08 0.6532816
vn 0.9238795 -5.83551E-08 0
vn 0.9238795 -5.833958E-08 0
vn 0.9238795 -5.83551E-08 0
vn 0.9238795 -5.833958E-08 0
vn 0.6532814 -4.126101E-08 -0.6532815
vn 0.6532813 -3.957454E-08 -0.6532815
vn 0.6532814 -4.126101E-08 -0.6532815
vn 0.6532813 -3.957454E-08 -0.6532815
vn -2.980232E-07 -1.809161E-09 -0.9238795
vn -5.066395E-07 1.621259E-09 -0.9238795
vn -2.980232E-07 -1.809161E-09 -0.9238795
vn -5.066395E-07 1.621259E-09 -0.9238795
vn -0.6532818 3.953261E-08 -0.6532811
vn -0.6532819 4.236781E-08 -0.653281
vn -0.6532818 3.953261E-08 -0.6532811
vn -0.6532819 4.236781E-08 -0.653281
vn -0.9238799 6.169109E-08 2.980232E-08
vn -0.9238799 6.174365E-08 2.980232E-08
vn 0 -0.9999999 0
vn 0 -0.9999999 0
vn 0 -0.9999999 0
vn 0 -0.9999999 0
vn 0 -0.9999999 0
vn 0 -0.9999999 0
vn 0 -0.9999999 0
vn 0 -0.9999999 0
vn 0 -0.9999999 0
vn 0 0.9999999 0
vn 0 0.9999999 0
vn 0 0.9999999 0
vn 0 0.9999999 0
vn 0 0.9999999 0
vn 0 0.9999999 0
vn 0 0.9999999 0
vn 0 0.9999999 0
vn 0 0.9999999 0
g pb_Mesh1276128_0
f 3/3/3 2/2/2 1/1/1
f 3/3/3 4/4/4 2/2/2
f 7/7/7 6/6/6 5/5/5
f 7/7/7 8/8/8 6/6/6
f 11/11/11 10/10/10 9/9/9
f 11/11/11 12/12/12 10/10/10
f 15/15/15 14/14/14 13/13/13
f 15/15/15 16/16/16 14/14/14
f 19/19/19 18/18/18 17/17/17
f 19/19/19 20/20/20 18/18/18
f 23/23/23 22/22/22 21/21/21
f 23/23/23 24/24/24 22/22/22
f 27/27/27 26/26/26 25/25/25
f 27/27/27 28/28/28 26/26/26
f 31/31/31 30/30/30 29/29/29
f 31/31/31 32/32/32 30/30/30
f 35/35/35 34/34/34 33/33/33
f 33/33/33 34/34/34 36/36/36
f 36/36/36 34/34/34 37/37/37
f 37/37/37 34/34/34 38/38/38
f 38/38/38 34/34/34 39/39/39
f 39/39/39 34/34/34 40/40/40
f 40/40/40 34/34/34 41/41/41
f 41/41/41 34/34/34 35/35/35
f 44/44/44 43/43/43 42/42/42
f 45/45/45 43/43/43 44/44/44
f 46/46/46 43/43/43 45/45/45
f 47/47/47 43/43/43 46/46/46
f 48/48/48 43/43/43 47/47/47
f 49/49/49 43/43/43 48/48/48
f 50/50/50 43/43/43 49/49/49
f 42/42/42 43/43/43 50/50/50
