g pb_Mesh40704
v 7 0 0
v -1 0 0
v 7 0 0
v -1 0 0
v -1 0 0
v -1 0 -27
v -1 0 0
v -1 18 -27
v -1 0 -27
v 7 0 -27
v -1 18 -27
v 7 18 -27
v 7 0 -27
v 7 0 0
v 7 18 -27
v 7 0 0
v 7 0 0
v -1 0 0
v 7 18 -27
v -1 18 -27
v 7 0 -27
v -1 0 -27
v 7 0 0
v -1 0 0
vt 0 0
vt 0 0
vt 0 0
vt 0 0
vt 0 0
vt 0 0
vt 0 0
vt 0 0
vt 1 0
vt -7 0
vt 1 18
vt -7 18
vt 27 0
vt 0 0
vt 27 18
vt 0 0
vt -7 0
vt 1 0
vt -7 -32.44996
vt 1 -32.44996
vt 7 -27
vt -1 -27
vt 7 0
vt -1 0
vn 0 0 0
vn 0 0 0
vn 0 0 0
vn 0 0 0
vn 0 0 0
vn -0.9999999 0 0
vn -0.9999999 0 0
vn -0.9999999 0 0
vn 0 0 -1
vn 0 0 -1
vn 0 0 -1
vn 0 0 -1
vn 0.9999999 0 0
vn 0.9999999 0 0
vn 0.9999999 0 0
vn 0 0 0
vn 0 0.8320503 0.5547002
vn 0 0.8320503 0.5547002
vn 0 0.8320503 0.5547002
vn 0 0.8320503 0.5547002
vn 0 -1 0
vn 0 -1 0
vn 0 -1 0
vn 0 -1 0
g pb_Mesh40704_0
f 3/3/3 2/2/2 1/1/1
f 3/3/3 4/4/4 2/2/2
f 7/7/7 6/6/6 5/5/5
f 7/7/7 8/8/8 6/6/6
f 11/11/11 10/10/10 9/9/9
f 11/11/11 12/12/12 10/10/10
f 15/15/15 14/14/14 13/13/13
f 15/15/15 16/16/16 14/14/14
f 19/19/19 18/18/18 17/17/17
f 19/19/19 20/20/20 18/18/18
f 23/23/23 22/22/22 21/21/21
f 23/23/23 24/24/24 22/22/22
