g pb_Mesh217980
v 3 -1 0
v -5 -1 0
v 3 1 0
v -5 1 0
v -5 -1 0
v -4 0 -2
v -5 1 0
v -4 1 -2
v -4 0 -2
v 2 0 -2
v -4 1 -2
v 2 1 -2
v 2 0 -2
v 3 -1 0
v 2 1 -2
v 3 1 0
v 2 0 -2
v -4 0 -2
v 3 -1 0
v -5 -1 0
v 3 1 0
v -5 1 0
v 2 1 -2
v -4 1 -2
vt -0.5 -0.125
vt -1.5 -0.125
vt -0.5 0.125
vt -1.5 0.125
vt 0.5 -4
vt 2.980232E-08 -4
vt 0.5 -3.5
vt -2.980232E-08 -3.5
vt 1 -5
vt -1 -5
vt 1 -4.5
vt -1 -4.5
vt -1 -4
vt -1.5 -4
vt -1 -3.5
vt -1.5 -3.5
vt -3.000241 -4
vt -1.999759 -4
vt -3.000241 -4.5
vt -1.999759 -4.5
vt 0.5 -0.875
vt 1.5 -0.875
vt 0.625 -1.125
vt 1.375 -1.125
vn 0 0 1
vn 0 0 1
vn 0 0 1
vn 0 0 1
vn -0.8944272 0 -0.4472136
vn -0.8944272 0 -0.4472136
vn -0.8944272 0 -0.4472136
vn -0.8944272 0 -0.4472136
vn 0 0 -1
vn 0 0 -1
vn 0 0 -1
vn 0 0 -1
vn 0.8944272 0 -0.4472136
vn 0.8944272 0 -0.4472136
vn 0.8944272 0 -0.4472136
vn 0.8944272 0 -0.4472136
vn 0 -0.8944272 -0.4472136
vn 0 -0.8944272 -0.4472136
vn 0 -0.8944272 -0.4472136
vn 0 -0.8944272 -0.4472136
vn 0 1 0
vn 0 1 0
vn 0 1 0
vn 0 1 0
g pb_Mesh217980_0
f 3/3/3 2/2/2 1/1/1
f 3/3/3 4/4/4 2/2/2
g pb_Mesh217980_1
f 7/7/7 6/6/6 5/5/5
f 7/7/7 8/8/8 6/6/6
f 11/11/11 10/10/10 9/9/9
f 11/11/11 12/12/12 10/10/10
f 15/15/15 14/14/14 13/13/13
f 15/15/15 16/16/16 14/14/14
f 19/19/19 18/18/18 17/17/17
f 19/19/19 20/20/20 18/18/18
g pb_Mesh217980_2
f 23/23/23 22/22/22 21/21/21
f 23/23/23 24/24/24 22/22/22
