g pb_Mesh216644
v 0 -1 -9
v -2 -1 -9
v 0.5 1 -9
v -2.5 1 -9
v -2 -1 -9
v -1.5 -1 -17
v -2.5 1 -9
v -1.5 -0.5 -17
v -1.5 -1 -17
v -0.5 -1 -17
v -1.5 -0.5 -17
v -0.5 -0.5 -17
v -0.5 -1 -17
v 0 -1 -9
v -0.5 -0.5 -17
v 0.5 1 -9
v 0.5 1 -9
v -2.5 1 -9
v -0.5 -0.5 -17
v -1.5 -0.5 -17
v -0.5 -1 -17
v -1.5 -1 -17
v 0 -1 -9
v -2 -1 -9
vt -0.75 -0.25
vt -1.25 -0.25
vt -0.625 0.25
vt -1.375 0.25
vt -11.85188 0.4218904
vt -13.85578 0.4218904
vt -11.84408 0.9372196
vt -13.85578 0.5431721
vt 1.125 -0.8125
vt 0.875 -0.8125
vt 1.125 -0.6875
vt 0.875 -0.6875
vt 13.98053 -0.25
vt 11.97663 -0.25
vt 13.98053 -0.125
vt 11.96883 0.25
vt 0.625 -11.71384
vt 1.375 -11.71384
vt 0.875 -13.74869
vt 1.125 -13.74869
vt -0.875 -14
vt -1.125 -14
vt -0.75 -12
vt -1.25 -12
vn 0 0 1
vn 0 0 1
vn 0 0 1
vn 0 0 1
vn -0.9683641 -0.242091 -0.06052276
vn -0.9779396 -0.1955879 -0.07334547
vn -0.9779396 -0.1955879 -0.07334547
vn -0.9922779 0 -0.1240347
vn 0 0 -1
vn 0 0 -1
vn 0 0 -1
vn 0 0 -1
vn 0.9980526 0 -0.06237829
vn 0.9779396 -0.1955879 -0.07334547
vn 0.9779396 -0.1955879 -0.07334547
vn 0.967368 -0.241842 -0.07557563
vn 0 0.9828722 -0.1842885
vn 0 0.9828722 -0.1842885
vn 0 0.9828722 -0.1842885
vn 0 0.9828722 -0.1842885
vn 0 -1 0
vn 0 -1 0
vn 0 -1 0
vn 0 -1 0
g pb_Mesh216644_0
f 3/3/3 2/2/2 1/1/1
f 3/3/3 4/4/4 2/2/2
f 7/7/7 6/6/6 5/5/5
f 7/7/7 8/8/8 6/6/6
f 11/11/11 10/10/10 9/9/9
f 11/11/11 12/12/12 10/10/10
f 15/15/15 14/14/14 13/13/13
f 15/15/15 16/16/16 14/14/14
f 19/19/19 18/18/18 17/17/17
f 19/19/19 20/20/20 18/18/18
f 23/23/23 22/22/22 21/21/21
f 23/23/23 24/24/24 22/22/22
