g pb_Mesh223930
v 0 -1 -6
v -2 -1 -6
v 0.5 2.5 -6
v -2.5 2.5 -6
v -2 -1 -6
v -1.500001 -1 -17
v -2.5 2.5 -6
v -1.500001 -0.5 -17
v -1.500001 -1 -17
v -0.5 -1 -17
v -1.500001 -0.5 -17
v -0.5 -0.5 -17
v -0.5 -1 -17
v 0 -1 -6
v -0.5 -0.5 -17
v 0.5 2.5 -6
v 0.5 2.5 -6
v -2.5 2.5 -6
v -0.5 -0.5 -17
v -1.500001 -0.5 -17
v -0.5 -1 -17
v -1.500001 -1 -17
v 0 -1 -6
v -2 -1 -6
vt -0.875 0.53125
vt -1.125 0.53125
vt -0.8125 0.96875
vt -1.1875 0.96875
vt -10.71053 0.8775504
vt -12.08695 0.8775504
vt -10.7077 1.319483
vt -12.08695 0.9394235
vt 1.062533 -0.78125
vt 0.937533 -0.78125
vt 1.062533 -0.71875
vt 0.937533 -0.71875
vt 12.17777 0.53125
vt 10.80135 0.53125
vt 12.17777 0.59375
vt 10.79851 0.96875
vt 0.8125 -10.11906
vt 1.1875 -10.11906
vt 0.9375 -11.54428
vt 1.0625 -11.54428
vt -0.9375 -12.1875
vt -1.0625 -12.1875
vt -0.875 -10.8125
vt -1.125 -10.8125
vn 0 0 1
vn 0 0 1
vn 0 0 1
vn 0 0 1
vn -0.9889488 -0.1412784 -0.0449521
vn -0.9910029 -0.1238754 -0.05067617
vn -0.9910029 -0.1238754 -0.05067617
vn -0.9958931 0 -0.09053562
vn 1.907346E-06 0 -1
vn 1.907346E-06 0 -1
vn 1.907346E-06 0 -1
vn 1.907346E-06 0 -1
vn 0.9989686 0 -0.04540766
vn 0.9910029 -0.1238754 -0.05067629
vn 0.9910029 -0.1238754 -0.05067629
vn 0.9886431 -0.1412347 -0.05135808
vn 0 0.9647638 -0.2631174
vn 1.672855E-07 0.9647638 -0.2631174
vn 1.672855E-07 0.9647638 -0.2631174
vn 6.691412E-07 0.9647639 -0.2631173
vn 0 -1 0
vn 0 -1 0
vn 0 -1 0
vn 0 -1 0
g pb_Mesh223930_0
f 3/3/3 2/2/2 1/1/1
f 3/3/3 4/4/4 2/2/2
f 7/7/7 6/6/6 5/5/5
f 7/7/7 8/8/8 6/6/6
f 11/11/11 10/10/10 9/9/9
f 11/11/11 12/12/12 10/10/10
f 15/15/15 14/14/14 13/13/13
f 15/15/15 16/16/16 14/14/14
f 19/19/19 18/18/18 17/17/17
f 19/19/19 20/20/20 18/18/18
f 23/23/23 22/22/22 21/21/21
f 23/23/23 24/24/24 22/22/22
