g pb_Mesh216286
v -7 -1 0
v -7 -1 -1
v -7 -6 -1
v -7 -6 0
v 3 -1 -1
v 3 -1 0
v 3 -6 0
v 3 -6 -1
v 3 -1 -1
v -7 -1 -1
v -7 -1 0
v 3 -1 0
v 3 -6 0
v -7 -6 0
v -7 -6 -1
v 3 -6 -1
vt 0 -1
vt 1 -1
vt 1 -6
vt 0 -6
vt -1 -1
vt 0 -1
vt 0 -6
vt -1 -6
vt 3 -1
vt -7 -1
vt -7 0
vt 3 0
vt 0.75 -0.375
vt 3.25 -0.375
vt 3.25 -0.625
vt 0.75 -0.625
vn 1 0 0
vn 1 0 0
vn 1 0 0
vn 1 0 0
vn -1 0 0
vn -1 0 0
vn -1 0 0
vn -1 0 0
vn 0 -1 0
vn 0 -1 0
vn 0 -1 0
vn 0 -1 0
vn 0 1 0
vn 0 1 0
vn 0 1 0
vn 0 1 0
g pb_Mesh216286_0
f 3/3/3 2/2/2 1/1/1
f 4/4/4 3/3/3 1/1/1
f 7/7/7 6/6/6 5/5/5
f 8/8/8 7/7/7 5/5/5
f 11/11/11 10/10/10 9/9/9
f 12/12/12 11/11/11 9/9/9
g pb_Mesh216286_1
f 15/15/15 14/14/14 13/13/13
f 16/16/16 15/15/15 13/13/13
