g pb_Mesh178642
v 0 0 0
v 4 0 0
v 0 0.4166667 0
v 4 0.4166667 0
v 0 0.4166667 0
v 4 0.4166667 0
v 0 0.4166667 0.6666667
v 4 0.4166667 0.6666667
v 0 0.4166667 0.6666667
v 4 0.4166667 0.6666667
v 0 0.8333334 0.6666667
v 4 0.8333334 0.6666667
v 0 0.8333334 0.6666667
v 4 0.8333334 0.6666667
v 0 0.8333334 1.333333
v 4 0.8333334 1.333333
v 0 0.8333334 1.333333
v 4 0.8333334 1.333333
v 0 1.25 1.333333
v 4 1.25 1.333333
v 0 1.25 1.333333
v 4 1.25 1.333333
v 0 1.25 2
v 4 1.25 2
v 0 1.25 2
v 4 1.25 2
v 0 1.666667 2
v 4 1.666667 2
v 0 1.666667 2
v 4 1.666667 2
v 0 1.666667 2.666667
v 4 1.666667 2.666667
v 0 1.666667 2.666667
v 4 1.666667 2.666667
v 0 2.083333 2.666667
v 4 2.083333 2.666667
v 0 2.083333 2.666667
v 4 2.083333 2.666667
v 0 2.083333 3.333333
v 4 2.083333 3.333333
v 0 2.083333 3.333333
v 4 2.083333 3.333333
v 0 2.5 3.333333
v 4 2.5 3.333333
v 0 2.5 3.333333
v 4 2.5 3.333333
v 0 2.5 4
v 4 2.5 4
v 0 2.5 4
v 4 2.5 4
v 0 2.916667 4
v 4 2.916667 4
v 0 2.916667 4
v 4 2.916667 4
v 0 2.916667 4.666667
v 4 2.916667 4.666667
v 0 2.916667 4.666667
v 4 2.916667 4.666667
v 0 3.333333 4.666667
v 4 3.333333 4.666667
v 0 3.333333 4.666667
v 4 3.333333 4.666667
v 0 3.333333 5.333333
v 4 3.333333 5.333333
v 0 3.333333 5.333333
v 4 3.333333 5.333333
v 0 3.75 5.333333
v 4 3.75 5.333333
v 0 3.75 5.333333
v 4 3.75 5.333333
v 0 3.75 6
v 4 3.75 6
v 0 3.75 6
v 4 3.75 6
v 0 4.166667 6
v 4 4.166667 6
v 0 4.166667 6
v 4 4.166667 6
v 0 4.166667 6.666667
v 4 4.166667 6.666667
v 0 4.166667 6.666667
v 4 4.166667 6.666667
v 0 4.583333 6.666667
v 4 4.583333 6.666667
v 0 4.583333 6.666667
v 4 4.583333 6.666667
v 0 4.583333 7.333333
v 4 4.583333 7.333333
v 0 4.583333 7.333333
v 4 4.583333 7.333333
v 0 5 7.333333
v 4 5 7.333333
v 0 5 7.333333
v 4 5 7.333333
v 0 5 8
v 4 5 8
v 4 0 0
v 4 0 0.6666667
v 4 0.4166667 0
v 4 0.4166667 0.6666667
v 4 0 1.333333
v 4 0.8333333 1.333333
v 4 0.8333333 0.6666667
v 4 0 2
v 4 1.25 2
v 4 1.25 1.333333
v 4 0 2.666667
v 4 1.666667 2.666667
v 4 1.666667 2
v 4 0 3.333333
v 4 2.083333 3.333333
v 4 2.083333 2.666667
v 4 0 4
v 4 2.5 4
v 4 2.5 3.333333
v 4 0 4.666667
v 4 2.916667 4.666667
v 4 2.916667 4
v 4 0 5.333333
v 4 3.333333 5.333333
v 4 3.333333 4.666667
v 4 0 6
v 4 3.75 6
v 4 3.75 5.333333
v 4 0 6.666667
v 4 4.166667 6.666667
v 4 4.166667 6
v 4 0 7.333333
v 4 4.583333 7.333333
v 4 4.583333 6.666667
v 4 0 8
v 4 5 8
v 4 5 7.333333
v 0 0.4166667 0
v 0 0 0.6666667
v 0 0 0
v 0 0.4166667 0.6666667
v 0 0 1.333333
v 0 0.8333333 1.333333
v 0 0.8333333 0.6666667
v 0 0 2
v 0 1.25 2
v 0 1.25 1.333333
v 0 0 2.666667
v 0 1.666667 2.666667
v 0 1.666667 2
v 0 0 3.333333
v 0 2.083333 3.333333
v 0 2.083333 2.666667
v 0 0 4
v 0 2.5 4
v 0 2.5 3.333333
v 0 0 4.666667
v 0 2.916667 4.666667
v 0 2.916667 4
v 0 0 5.333333
v 0 3.333333 5.333333
v 0 3.333333 4.666667
v 0 0 6
v 0 3.75 6
v 0 3.75 5.333333
v 0 0 6.666667
v 0 4.166667 6.666667
v 0 4.166667 6
v 0 0 7.333333
v 0 4.583333 7.333333
v 0 4.583333 6.666667
v 0 0 8
v 0 5 8
v 0 5 7.333333
v 4 0 8
v 0 0 8
v 4 5 8
v 0 5 8
vt -1.5 0.15625
vt -2.5 0.15625
vt -1.5 0.2604167
vt -2.5 0.2604167
vt -1.5 0.25
vt -2.5 0.25
vt -1.5 0.4166667
vt -2.5 0.4166667
vt -1.5 0.5729167
vt -2.5 0.5729167
vt -1.5 0.6770834
vt -2.5 0.6770834
vt -1.5 0.9166667
vt -2.5 0.9166667
vt -1.5 1.083333
vt -2.5 1.083333
vt -1.5 0.9895834
vt -2.5 0.9895834
vt -1.5 1.09375
vt -2.5 1.09375
vt -1.5 1.583333
vt -2.5 1.583333
vt -1.5 1.75
vt -2.5 1.75
vt -1.5 1.40625
vt -2.5 1.40625
vt -1.5 1.510417
vt -2.5 1.510417
vt -1.5 2.25
vt -2.5 2.25
vt -1.5 2.416667
vt -2.5 2.416667
vt -1.5 1.822917
vt -2.5 1.822917
vt -1.5 1.927083
vt -2.5 1.927083
vt -1.5 2.916667
vt -2.5 2.916667
vt -1.5 3.083333
vt -2.5 3.083333
vt -1.5 2.239583
vt -2.5 2.239583
vt -1.5 2.34375
vt -2.5 2.34375
vt -1.5 3.583333
vt -2.5 3.583333
vt -1.5 3.75
vt -2.5 3.75
vt -1.5 2.65625
vt -2.5 2.65625
vt -1.5 2.760417
vt -2.5 2.760417
vt -1.5 4.25
vt -2.5 4.25
vt -1.5 4.416667
vt -2.5 4.416667
vt -1.5 3.072917
vt -2.5 3.072917
vt -1.5 3.177083
vt -2.5 3.177083
vt -1.5 4.916667
vt -2.5 4.916667
vt -1.5 5.083333
vt -2.5 5.083333
vt -1.5 3.489583
vt -2.5 3.489583
vt -1.5 3.59375
vt -2.5 3.59375
vt -1.5 5.583333
vt -2.5 5.583333
vt -1.5 5.75
vt -2.5 5.75
vt -1.5 3.90625
vt -2.5 3.90625
vt -1.5 4.010417
vt -2.5 4.010417
vt -1.5 6.25
vt -2.5 6.25
vt -1.5 6.416667
vt -2.5 6.416667
vt -1.5 4.322917
vt -2.5 4.322917
vt -1.5 4.427083
vt -2.5 4.427083
vt -1.5 6.916667
vt -2.5 6.916667
vt -1.5 7.083333
vt -2.5 7.083333
vt -1.5 4.739583
vt -2.5 4.739583
vt -1.5 4.84375
vt -2.5 4.84375
vt -1.5 7.583333
vt -2.5 7.583333
vt -1.5 7.75
vt -2.5 7.75
vt 3 1.875
vt 3.166667 1.875
vt 3 1.979167
vt 3.166667 1.979167
vt 3.333333 1.875
vt 3.333333 2.083333
vt 3.166667 2.083333
vt 3.5 1.875
vt 3.5 2.1875
vt 3.333333 2.1875
vt 3.666667 1.875
vt 3.666667 2.291667
vt 3.5 2.291667
vt 3.833333 1.875
vt 3.833333 2.395833
vt 3.666667 2.395833
vt 4 1.875
vt 4 2.5
vt 3.833333 2.5
vt 4.166667 1.875
vt 4.166667 2.604167
vt 4 2.604167
vt 4.333333 1.875
vt 4.333333 2.708333
vt 4.166667 2.708333
vt 4.5 1.875
vt 4.5 2.8125
vt 4.333333 2.8125
vt 4.666667 1.875
vt 4.666667 2.916667
vt 4.5 2.916667
vt 4.833333 1.875
vt 4.833333 3.020833
vt 4.666667 3.020833
vt 5 1.875
vt 5 3.125
vt 4.833333 3.125
vt 3 1.979167
vt 3.166667 1.875
vt 3 1.875
vt 3.166667 1.979167
vt 3.333333 1.875
vt 3.333333 2.083333
vt 3.166667 2.083333
vt 3.5 1.875
vt 3.5 2.1875
vt 3.333333 2.1875
vt 3.666667 1.875
vt 3.666667 2.291667
vt 3.5 2.291667
vt 3.833333 1.875
vt 3.833333 2.395833
vt 3.666667 2.395833
vt 4 1.875
vt 4 2.5
vt 3.833333 2.5
vt 4.166667 1.875
vt 4.166667 2.604167
vt 4 2.604167
vt 4.333333 1.875
vt 4.333333 2.708333
vt 4.166667 2.708333
vt 4.5 1.875
vt 4.5 2.8125
vt 4.333333 2.8125
vt 4.666667 1.875
vt 4.666667 2.916667
vt 4.5 2.916667
vt 4.833333 1.875
vt 4.833333 3.020833
vt 4.666667 3.020833
vt 5 1.875
vt 5 3.125
vt 4.833333 3.125
vt 2.5 1.875
vt 1.5 1.875
vt 2.5 3.125
vt 1.5 3.125
vn 0 0 -1
vn 0 0 -1
vn 0 0 -1
vn 0 0 -1
vn 0 1 0
vn 0 1 0
vn 0 1 0
vn 0 1 0
vn 0 0 -1
vn 0 0 -1
vn 0 0 -1
vn 0 0 -1
vn 0 1 0
vn 0 1 0
vn 0 1 0
vn 0 1 0
vn 0 0 -1
vn 0 0 -1
vn 0 0 -1
vn 0 0 -1
vn 0 1 0
vn 0 1 0
vn 0 1 0
vn 0 1 0
vn 0 0 -1
vn 0 0 -1
vn 0 0 -1
vn 0 0 -1
vn 0 1 0
vn 0 1 0
vn 0 1 0
vn 0 1 0
vn 0 0 -0.9999999
vn 0 0 -0.9999999
vn 0 0 -0.9999999
vn 0 0 -0.9999999
vn 0 1 0
vn 0 1 0
vn 0 1 0
vn 0 1 0
vn 0 0 -1
vn 0 0 -1
vn 0 0 -1
vn 0 0 -1
vn 0 1 0
vn 0 1 0
vn 0 1 0
vn 0 1 0
vn 0 0 -0.9999999
vn 0 0 -0.9999999
vn 0 0 -0.9999999
vn 0 0 -0.9999999
vn 0 1 0
vn 0 1 0
vn 0 1 0
vn 0 1 0
vn 0 0 -1
vn 0 0 -1
vn 0 0 -1
vn 0 0 -1
vn 0 1 0
vn 0 1 0
vn 0 1 0
vn 0 1 0
vn 0 0 -0.9999999
vn 0 0 -0.9999999
vn 0 0 -0.9999999
vn 0 0 -0.9999999
vn 0 1 0
vn 0 1 0
vn 0 1 0
vn 0 1 0
vn 0 0 -0.9999999
vn 0 0 -0.9999999
vn 0 0 -0.9999999
vn 0 0 -0.9999999
vn 0 1 0
vn 0 1 0
vn 0 1 0
vn 0 1 0
vn 0 0 -1
vn 0 0 -1
vn 0 0 -1
vn 0 0 -1
vn 0 1 0
vn 0 1 0
vn 0 1 0
vn 0 1 0
vn 0 0 -0.9999999
vn 0 0 -0.9999999
vn 0 0 -0.9999999
vn 0 0 -0.9999999
vn 0 1 0
vn 0 1 0
vn 0 1 0
vn 0 1 0
vn 1 0 0
vn 1 0 0
vn 1 0 0
vn 1 0 0
vn 1 0 0
vn 1 0 0
vn 1 0 0
vn 1 0 0
vn 1 0 0
vn 1 0 0
vn 1 0 0
vn 1 0 0
vn 1 0 0
vn 1 0 0
vn 1 0 0
vn 1 0 0
vn 1 0 0
vn 0.9999999 0 0
vn 1 0 0
vn 1 0 0
vn 1 0 0
vn 1 0 0
vn 1 0 0
vn 1 0 0
vn 1 0 0
vn 1 0 0
vn 1 0 0
vn 1 0 0
vn 1 0 0
vn 1 0 0
vn 1 0 0
vn 1 0 0
vn 1 0 0
vn 1 0 0
vn 1 0 0
vn 1 0 0
vn 1 0 0
vn -1 0 0
vn -1 0 0
vn -1 0 0
vn -1 0 0
vn -1 0 0
vn -1 0 0
vn -1 0 0
vn -1 0 0
vn -1 0 0
vn -1 0 0
vn -1 0 0
vn -1 0 0
vn -1 0 0
vn -1 0 0
vn -1 0 0
vn -1 0 0
vn -1 0 0
vn -1 0 0
vn -1 0 0
vn -1 0 0
vn -1 0 0
vn -1 0 0
vn -1 0 0
vn -1 0 0
vn -1 0 0
vn -1 0 0
vn -1 0 0
vn -1 0 0
vn -1 0 0
vn -1 0 0
vn -1 0 0
vn -1 0 0
vn -0.9999999 0 0
vn -1 0 0
vn -1 0 0
vn -1 0 0
vn -1 0 0
vn 0 0 1
vn 0 0 1
vn 0 0 1
vn 0 0 1
g pb_Mesh178642_0
f 3/3/3 2/2/2 1/1/1
f 3/3/3 4/4/4 2/2/2
f 7/7/7 6/6/6 5/5/5
f 7/7/7 8/8/8 6/6/6
f 11/11/11 10/10/10 9/9/9
f 11/11/11 12/12/12 10/10/10
f 15/15/15 14/14/14 13/13/13
f 15/15/15 16/16/16 14/14/14
f 19/19/19 18/18/18 17/17/17
f 19/19/19 20/20/20 18/18/18
f 23/23/23 22/22/22 21/21/21
f 23/23/23 24/24/24 22/22/22
f 27/27/27 26/26/26 25/25/25
f 27/27/27 28/28/28 26/26/26
f 31/31/31 30/30/30 29/29/29
f 31/31/31 32/32/32 30/30/30
f 35/35/35 34/34/34 33/33/33
f 35/35/35 36/36/36 34/34/34
f 39/39/39 38/38/38 37/37/37
f 39/39/39 40/40/40 38/38/38
f 43/43/43 42/42/42 41/41/41
f 43/43/43 44/44/44 42/42/42
f 47/47/47 46/46/46 45/45/45
f 47/47/47 48/48/48 46/46/46
f 51/51/51 50/50/50 49/49/49
f 51/51/51 52/52/52 50/50/50
f 55/55/55 54/54/54 53/53/53
f 55/55/55 56/56/56 54/54/54
f 59/59/59 58/58/58 57/57/57
f 59/59/59 60/60/60 58/58/58
f 63/63/63 62/62/62 61/61/61
f 63/63/63 64/64/64 62/62/62
f 67/67/67 66/66/66 65/65/65
f 67/67/67 68/68/68 66/66/66
f 71/71/71 70/70/70 69/69/69
f 71/71/71 72/72/72 70/70/70
f 75/75/75 74/74/74 73/73/73
f 75/75/75 76/76/76 74/74/74
f 79/79/79 78/78/78 77/77/77
f 79/79/79 80/80/80 78/78/78
f 83/83/83 82/82/82 81/81/81
f 83/83/83 84/84/84 82/82/82
f 87/87/87 86/86/86 85/85/85
f 87/87/87 88/88/88 86/86/86
f 91/91/91 90/90/90 89/89/89
f 91/91/91 92/92/92 90/90/90
f 95/95/95 94/94/94 93/93/93
f 95/95/95 96/96/96 94/94/94
f 99/99/99 98/98/98 97/97/97
f 99/99/99 100/100/100 98/98/98
f 100/100/100 101/101/101 98/98/98
f 100/100/100 102/102/102 101/101/101
f 100/100/100 103/103/103 102/102/102
f 102/102/102 104/104/104 101/101/101
f 102/102/102 105/105/105 104/104/104
f 102/102/102 106/106/106 105/105/105
f 105/105/105 107/107/107 104/104/104
f 105/105/105 108/108/108 107/107/107
f 105/105/105 109/109/109 108/108/108
f 108/108/108 110/110/110 107/107/107
f 108/108/108 111/111/111 110/110/110
f 108/108/108 112/112/112 111/111/111
f 111/111/111 113/113/113 110/110/110
f 111/111/111 114/114/114 113/113/113
f 111/111/111 115/115/115 114/114/114
f 114/114/114 116/116/116 113/113/113
f 114/114/114 117/117/117 116/116/116
f 114/114/114 118/118/118 117/117/117
f 117/117/117 119/119/119 116/116/116
f 117/117/117 120/120/120 119/119/119
f 117/117/117 121/121/121 120/120/120
f 120/120/120 122/122/122 119/119/119
f 120/120/120 123/123/123 122/122/122
f 120/120/120 124/124/124 123/123/123
f 123/123/123 125/125/125 122/122/122
f 123/123/123 126/126/126 125/125/125
f 123/123/123 127/127/127 126/126/126
f 126/126/126 128/128/128 125/125/125
f 126/126/126 129/129/129 128/128/128
f 126/126/126 130/130/130 129/129/129
f 129/129/129 131/131/131 128/128/128
f 129/129/129 132/132/132 131/131/131
f 129/129/129 133/133/133 132/132/132
f 136/136/136 135/135/135 134/134/134
f 135/135/135 137/137/137 134/134/134
f 135/135/135 138/138/138 137/137/137
f 138/138/138 139/139/139 137/137/137
f 139/139/139 140/140/140 137/137/137
f 138/138/138 141/141/141 139/139/139
f 141/141/141 142/142/142 139/139/139
f 142/142/142 143/143/143 139/139/139
f 141/141/141 144/144/144 142/142/142
f 144/144/144 145/145/145 142/142/142
f 145/145/145 146/146/146 142/142/142
f 144/144/144 147/147/147 145/145/145
f 147/147/147 148/148/148 145/145/145
f 148/148/148 149/149/149 145/145/145
f 147/147/147 150/150/150 148/148/148
f 150/150/150 151/151/151 148/148/148
f 151/151/151 152/152/152 148/148/148
f 150/150/150 153/153/153 151/151/151
f 153/153/153 154/154/154 151/151/151
f 154/154/154 155/155/155 151/151/151
f 153/153/153 156/156/156 154/154/154
f 156/156/156 157/157/157 154/154/154
f 157/157/157 158/158/158 154/154/154
f 156/156/156 159/159/159 157/157/157
f 159/159/159 160/160/160 157/157/157
f 160/160/160 161/161/161 157/157/157
f 159/159/159 162/162/162 160/160/160
f 162/162/162 163/163/163 160/160/160
f 163/163/163 164/164/164 160/160/160
f 162/162/162 165/165/165 163/163/163
f 165/165/165 166/166/166 163/163/163
f 166/166/166 167/167/167 163/163/163
f 165/165/165 168/168/168 166/166/166
f 168/168/168 169/169/169 166/166/166
f 169/169/169 170/170/170 166/166/166
f 173/173/173 172/172/172 171/171/171
f 173/173/173 174/174/174 172/172/172
