g pb_Mesh217480
v -9.999993 -4 4.708767E-06
v -15.99999 -4 4.708767E-06
v -9.999993 1 4.708767E-06
v -15.99999 1 4.708767E-06
v -9.999993 -1 -3.999994
v -9.999993 -4 4.708767E-06
v -9.999993 1 -3.999994
v -9.999993 1 4.708767E-06
v -15.99999 -4 4.708767E-06
v -14.99999 -1 -3.999994
v -15.99999 1 4.708767E-06
v -14.99999 1 -3.999994
v -14.99999 -1 -3.999994
v -9.999993 -1 -3.999994
v -14.99999 1 -3.999994
v -9.999993 1 -3.999994
v -9.999993 -1 -3.999994
v -14.99999 -1 -3.999994
v -9.999993 -4 4.708767E-06
v -15.99999 -4 4.708767E-06
v -9.999993 1 4.708767E-06
v -15.99999 1 4.708767E-06
v -9.999993 1 -3.999994
v -14.99999 1 -3.999994
vt -12.62499 -1.8125
vt -13.37499 -1.8125
vt -12.62499 -1.1875
vt -13.37499 -1.1875
vt 2.249994 -1.4375
vt 1.749995 -1.8125
vt 2.249994 -1.1875
vt 1.749995 -1.1875
vt 12.9375 -0.5
vt 12.5 -0.4999999
vt 12.9375 -2.980232E-08
vt 12.5 0
vt 12.5 -0.4999999
vt 12 -0.4999998
vt 12.5 0
vt 12 5.960464E-08
vt 12 -0.4999998
vt 12.5 -0.4999999
vt 12 -0.9999999
vt 12.5 -1
vt 12.62499 -1.749995
vt 13.37499 -1.749995
vt 12.62499 -2.249994
vt 13.24999 -2.249994
vn 0 0 0.9999999
vn 0 0 0.9999999
vn 0 0 0.9999999
vn 0 0 0.9999999
vn 1 0 0
vn 0.9999999 0 0
vn 0.9999999 0 0
vn 1 0 0
vn -0.9701425 0 -0.2425357
vn -0.9701425 0 -0.2425357
vn -0.9701425 0 -0.2425357
vn -0.9701424 0 -0.2425357
vn 0 0 -1
vn 0 0 -1
vn 0 0 -1
vn 0 0 -1
vn 0 -0.7999999 -0.6000001
vn 0 -0.7999999 -0.6000001
vn 0 -0.7999999 -0.6000001
vn 0 -0.7999999 -0.6000002
vn 0 1 0
vn 0 1 0
vn 0 1 0
vn 0 1 0
g pb_Mesh217480_0
f 3/3/3 2/2/2 1/1/1
f 3/3/3 4/4/4 2/2/2
f 7/7/7 6/6/6 5/5/5
f 7/7/7 8/8/8 6/6/6
g pb_Mesh217480_1
f 11/11/11 10/10/10 9/9/9
f 11/11/11 12/12/12 10/10/10
f 15/15/15 14/14/14 13/13/13
f 15/15/15 16/16/16 14/14/14
f 19/19/19 18/18/18 17/17/17
f 19/19/19 20/20/20 18/18/18
g pb_Mesh217480_2
f 23/23/23 22/22/22 21/21/21
f 23/23/23 24/24/24 22/22/22
