g pb_Mesh218568
v -5 -5 0
v 0 -5 0
v 0 -5 5
v -5 -5 5
v 5 -5 0
v 5 -5 5
v -3 -5 -5.096188
v 2.961683 -5 -5.000772
v 5 -5 -5
v -5 -5 -5
v 0 -1 5
v 5 -5 5
v 5 -1 5
v 0 -5 5
v 0 3 5
v 5 3 5
v -5 -1 5
v -5 -5 5
v -5 3 5
v -5 -1 -5
v -5 -5 0
v -5 -1 0
v -5 -5 -5
v -5 3 -5
v -5 3 0
v 5 -5 0
v 5 -5 -5
v 5 -1 -5
v 5 -1 0
v 5 3 -5
v 5 3 0
v 5 -5 5
v 5 -1 5
v 5 3 5
v -5 -5 5
v -5 -1 5
v -5 3 5
v 0 3 0
v -5 3 -5
v -5 3 0
v 0 3 -5
v 5 3 0
v 5 3 -5
v 0 3 5
v -5 3 5
v 5 3 5
v 5 3 -5
v 3 0 -5
v 0 3 -5
v -3 0 -5
v -5 3 -5
v 5 3 -5
v 5 -1 -5
v 3 0 -5
v -5 -1 -5
v -5 3 -5
v -3 0 -5
v -3 -5 -5.096188
v -5 -1 -5
v -3 0 -5
v -3 -5 -5.096188
v -5 -5 -5
v -5 -1 -5
v 5 -1 -5
v 2.961683 -5 -5.000772
v 3 0 -5
v 5 -1 -5
v 5 -5 -5
v 2.961683 -5 -5.000772
vt 0.625 -0.04208207
vt 0 -0.04208207
vt 0 0.5829179
vt 0.625 0.5829179
vt -0.625 -0.04208207
vt -0.625 0.5829179
vt 0.375 -0.6791055
vt -0.3702103 -0.6671786
vt -0.625 -0.6670821
vt 0.625 -0.6670821
vt 0 -1
vt 0.625 -1.5
vt 0.625 -1
vt 0 -1.5
vt 0 -0.5
vt 0.625 -0.5
vt -0.625 -1
vt -0.625 -1.5
vt -0.625 -0.5
vt -0.625 -1
vt 0 -1.5
vt 0 -1
vt -0.625 -1.5
vt -0.625 -0.5
vt 0 -0.5
vt 0 -1.5
vt -0.625 -1.5
vt -0.625 -1
vt 0 -1
vt -0.625 -0.5
vt 0 -0.5
vt 0.625 -1.5
vt 0.625 -1
vt 0.625 -0.5
vt 0.625 -1.5
vt 0.625 -1
vt 0.625 -0.5
vt 0 0
vt 0.625 -0.625
vt 0.625 0
vt 0 -0.625
vt -0.625 0
vt -0.625 -0.625
vt 0 0.625
vt 0.625 0.625
vt -0.625 0.625
vt 0.625 1.6875
vt 0.375 1.3125
vt 0 1.6875
vt -0.375 1.3125
vt -0.625 1.6875
vt 4.10752 -0.5003353
vt 4.10752 -1.000335
vt 3.85752 -0.8753353
vt -4.035027 -1.043109
vt -4.035027 -0.5431265
vt -3.785066 -0.9180758
vt -3.784853 -1.543155
vt -4.035027 -1.043109
vt -3.785066 -0.9180758
vt -3.784853 -1.543155
vt -4.035027 -1.543091
vt -4.035027 -1.043109
vt 4.10752 -1.000335
vt 3.85273 -1.500335
vt 3.85752 -0.8753353
vt 4.10752 -1.000335
vt 4.10752 -1.500335
vt 3.85273 -1.500335
vn 0 1 0
vn 0 1 0
vn 0 1 0
vn 0 1 0
vn 0 1 0
vn 0 1 0
vn 0 1 0
vn 0 1 0
vn 0 1 0
vn 0 1 0
vn 0 0 -1
vn 0 0 -1
vn 0 0 -1
vn 0 0 -1
vn 0 0 -1
vn 0 0 -1
vn 0 0 -1
vn 0 0 -1
vn 0 0 -1
vn 1 0 0
vn 1 0 0
vn 1 0 0
vn 1 0 0
vn 1 0 0
vn 1 0 0
vn -1 0 0
vn -1 0 0
vn -1 0 0
vn -1 0 0
vn -1 0 0
vn -1 0 0
vn -1 0 0
vn -1 0 0
vn -1 0 0
vn 1 0 0
vn 1 0 0
vn 1 0 0
vn 0 -1 0
vn 0 -1 0
vn 0 -1 0
vn 0 -1 0
vn 0 -1 0
vn 0 -1 0
vn 0 -1 0
vn 0 -1 0
vn 0 -1 0
vn 0 0 1
vn 0 0 1
vn 0 0 1
vn 0 0 1
vn 0 0 1
vn 0 0 1
vn 0 0 1
vn 0 0 1
vn 0 0 1
vn 0 0 1
vn 0 0 1
vn 0.009616535 -0.01923307 0.9997689
vn 0.009616535 -0.01923307 0.9997689
vn 0.009616535 -0.01923307 0.9997689
vn 0.04803827 0 0.9988455
vn 0.04803827 0 0.9988455
vn 0.04803827 0 0.9988455
vn -7.695276E-05 -0.0001539055 1
vn -7.695276E-05 -0.0001539055 1
vn -7.695276E-05 -0.0001539055 1
vn -0.0003789774 0 1
vn -0.0003789774 0 1
vn -0.0003789774 0 1
g pb_Mesh218568_0
f 3/3/3 2/2/2 1/1/1
f 3/3/3 1/1/1 4/4/4
f 6/6/6 5/5/5 2/2/2
f 6/6/6 2/2/2 3/3/3
f 2/2/2 8/8/8 7/7/7
f 2/2/2 5/5/5 8/8/8
f 5/5/5 9/9/9 8/8/8
f 2/2/2 7/7/7 1/1/1
f 7/7/7 10/10/10 1/1/1
g pb_Mesh218568_1
f 13/13/13 12/12/12 11/11/11
f 12/12/12 14/14/14 11/11/11
f 16/16/16 13/13/13 15/15/15
f 13/13/13 11/11/11 15/15/15
f 11/11/11 14/14/14 17/17/17
f 14/14/14 18/18/18 17/17/17
f 15/15/15 11/11/11 19/19/19
f 11/11/11 17/17/17 19/19/19
f 22/22/22 21/21/21 20/20/20
f 21/21/21 23/23/23 20/20/20
f 25/25/25 22/22/22 24/24/24
f 22/22/22 20/20/20 24/24/24
f 28/28/28 27/27/27 26/26/26
f 28/28/28 26/26/26 29/29/29
f 30/30/30 28/28/28 29/29/29
f 30/30/30 29/29/29 31/31/31
f 29/29/29 26/26/26 32/32/32
f 29/29/29 32/32/32 33/33/33
f 31/31/31 29/29/29 33/33/33
f 31/31/31 33/33/33 34/34/34
f 36/36/36 35/35/35 22/22/22
f 35/35/35 21/21/21 22/22/22
f 37/37/37 36/36/36 25/25/25
f 36/36/36 22/22/22 25/25/25
f 40/40/40 39/39/39 38/38/38
f 39/39/39 41/41/41 38/38/38
f 38/38/38 41/41/41 42/42/42
f 41/41/41 43/43/43 42/42/42
f 45/45/45 40/40/40 44/44/44
f 40/40/40 38/38/38 44/44/44
f 44/44/44 38/38/38 46/46/46
f 38/38/38 42/42/42 46/46/46
f 49/49/49 48/48/48 47/47/47
f 49/49/49 50/50/50 48/48/48
f 49/49/49 51/51/51 50/50/50
f 54/54/54 53/53/53 52/52/52
f 57/57/57 56/56/56 55/55/55
f 60/60/60 59/59/59 58/58/58
f 63/63/63 62/62/62 61/61/61
f 66/66/66 65/65/65 64/64/64
f 69/69/69 68/68/68 67/67/67
