g pb_Mesh416458
v 0 10 0
v -6 10 0
v 0 10 -10
v -6 10 -10
v 0 -79.73954 -10
v -6 -79.73954 -10
v 0 -79.73954 0
v -6 -79.73954 0
v 0 -79.73954 0
v -6 -79.73954 0
v -6 -34.86977 0
v 0 -34.86977 0
v -6 -79.73954 0
v -6 -79.73954 -10
v -6 -34.86977 -10
v -6 -34.86977 0
v -6 -34.86977 -10
v 0 -79.73954 -10
v 0 -34.86977 -10
v -6 -79.73954 -10
v 0 -34.86977 -10
v 0 -79.73954 0
v 0 -34.86977 0
v 0 -79.73954 -10
v -6 -12.43489 0
v 0 -12.43489 0
v -6 -12.43489 0
v -6 -12.43489 -10
v -6 -12.43489 -10
v 0 -12.43489 -10
v 0 -12.43489 0
v 0 -12.43489 -10
v -6 -1.217443 0
v 0 -1.217443 0
v -6 10 0
v 0 10 0
v -6 -1.217443 0
v -6 -1.217443 -10
v -6 10 0
v -6 10 -10
v -6 -1.217443 -10
v 0 -1.217443 -10
v -6 10 -10
v 0 10 -10
v 0 10 0
v 0 10 -10
v 0 -1.217443 -10
v 0 -1.217443 0
vt 2.25 -3.75
vt 3.75 -3.75
vt 2.25 -6.25
vt 3.75 -6.25
vt -2.25 -6.25
vt -3.75 -6.25
vt -2.25 -3.75
vt -3.75 -3.75
vt -2.25 -46.08721
vt -3.75 -46.08721
vt -3.75 -34.86977
vt -2.25 -34.86977
vt -3.75 -46.08721
vt -6.25 -46.08721
vt -6.25 -34.86977
vt -3.75 -34.86977
vt -3.75 -34.86977
vt -2.25 -46.08721
vt -2.25 -34.86977
vt -3.75 -46.08721
vt -6.25 -34.86977
vt -3.75 -46.08721
vt -3.75 -34.86977
vt -6.25 -46.08721
vt -3.75 -29.26105
vt -2.25 -29.26105
vt -3.75 -29.26105
vt -6.25 -29.26105
vt -3.75 -29.26105
vt -2.25 -29.26105
vt -3.75 -29.26105
vt -6.25 -29.26105
vt -3.75 -26.45669
vt -2.25 -26.45669
vt -3.75 -23.65233
vt -2.25 -23.65233
vt -3.75 -26.45669
vt -6.25 -26.45669
vt -3.75 -23.65233
vt -6.25 -23.65233
vt -3.75 -26.45669
vt -2.25 -26.45669
vt -3.75 -23.65233
vt -2.25 -23.65233
vt -3.75 -23.65233
vt -6.25 -23.65233
vt -6.25 -26.45669
vt -3.75 -26.45669
vn 0 1 0
vn 0 1 0
vn 0 1 0
vn 0 1 0
vn 0 -1 0
vn 0 -1 0
vn 0 -1 0
vn 0 -1 0
vn 0 0 1
vn 0 0 1
vn 0 0 1
vn 0 0 1
vn -1 0 0
vn -1 0 0
vn -1 0 0
vn -1 0 0
vn 0 0 -1
vn 0 0 -1
vn 0 0 -1
vn 0 0 -1
vn 1 0 0
vn 1 0 0
vn 1 0 0
vn 1 0 0
vn 0 0 1
vn 0 0 1
vn -1 0 0
vn -1 0 0
vn 0 0 -1
vn 0 0 -1
vn 1 0 0
vn 1 0 0
vn 0 0 1
vn 0 0 1
vn 0 0 1
vn 0 0 1
vn -1 0 0
vn -1 0 0
vn -1 0 0
vn -1 0 0
vn 0 0 -1
vn 0 0 -1
vn 0 0 -1
vn 0 0 -1
vn 1 0 0
vn 1 0 0
vn 1 0 0
vn 1 0 0
g pb_Mesh416458_0
f 3/3/3 2/2/2 1/1/1
f 3/3/3 4/4/4 2/2/2
f 7/7/7 6/6/6 5/5/5
f 7/7/7 8/8/8 6/6/6
f 11/11/11 10/10/10 9/9/9
f 11/11/11 9/9/9 12/12/12
f 15/15/15 14/14/14 13/13/13
f 15/15/15 13/13/13 16/16/16
f 19/19/19 18/18/18 17/17/17
f 18/18/18 20/20/20 17/17/17
f 23/23/23 22/22/22 21/21/21
f 22/22/22 24/24/24 21/21/21
f 25/25/25 11/11/11 12/12/12
f 25/25/25 12/12/12 26/26/26
f 27/27/27 15/15/15 16/16/16
f 27/27/27 28/28/28 15/15/15
f 30/30/30 19/19/19 29/29/29
f 19/19/19 17/17/17 29/29/29
f 21/21/21 32/32/32 31/31/31
f 23/23/23 21/21/21 31/31/31
f 33/33/33 25/25/25 26/26/26
f 33/33/33 26/26/26 34/34/34
f 35/35/35 33/33/33 34/34/34
f 35/35/35 34/34/34 36/36/36
f 37/37/37 28/28/28 27/27/27
f 37/37/37 38/38/38 28/28/28
f 39/39/39 38/38/38 37/37/37
f 39/39/39 40/40/40 38/38/38
f 42/42/42 30/30/30 41/41/41
f 30/30/30 29/29/29 41/41/41
f 44/44/44 42/42/42 43/43/43
f 42/42/42 41/41/41 43/43/43
f 47/47/47 46/46/46 45/45/45
f 48/48/48 47/47/47 45/45/45
f 32/32/32 47/47/47 48/48/48
f 31/31/31 32/32/32 48/48/48
