g pb_Mesh412670
v 2.903214 -0.232851 4.810004
v 4.403214 -0.2328507 2.310004
v 0.1532135 -0.232851 4.810004
v -0.0967865 -0.2328504 -0.1899962
v 2.903214 -0.2328504 -0.1899962
v -1.596786 -0.2328507 2.310004
v -1.509614 0.08103967 2.32679
v -0.009933474 0.08103946 -0.08678435
v -0.06156923 0.08103991 4.794892
v 2.903208 0.0810394 -0.08696751
v 4.279481 0.08103967 2.340958
v 2.918717 0.08103991 4.782433
v -1.596786 -0.2328507 2.310004
v -0.0967865 -0.2328504 -0.1899962
v -1.509614 0.08103967 2.32679
v -0.009933474 0.08103946 -0.08678435
v 0.1532135 -0.232851 4.810004
v -1.596786 -0.2328507 2.310004
v -0.06156923 0.08103991 4.794892
v -1.509614 0.08103967 2.32679
v 2.903214 -0.2328504 -0.1899962
v 4.403214 -0.2328507 2.310004
v 2.903208 0.0810394 -0.08696751
v 4.279481 0.08103967 2.340958
v -0.0967865 -0.2328504 -0.1899962
v 2.903214 -0.2328504 -0.1899962
v -0.009933474 0.08103946 -0.08678435
v 2.903208 0.0810394 -0.08696751
v 4.403214 -0.2328507 2.310004
v 2.903214 -0.232851 4.810004
v 4.279481 0.08103967 2.340958
v 2.918717 0.08103991 4.782433
v 2.903214 -0.232851 4.810004
v 0.1532135 -0.232851 4.810004
v 2.918717 0.08103991 4.782433
v -0.06156923 0.08103991 4.794892
vt 2.903214 4.810004
vt 4.403214 2.310004
vt 0.1532135 4.810004
vt -0.0967865 -0.1899962
vt 2.903214 -0.1899962
vt -1.596786 2.310004
vt 1.509614 2.32679
vt 0.009933474 -0.08678434
vt 0.06156923 4.794892
vt -2.903208 -0.08696751
vt -4.279481 2.340958
vt -2.918717 4.782433
vt 2.802352 -0.2714516
vt -0.1131242 -0.2714513
vt 2.771896 0.053326
vt -0.06930624 0.06467193
vt 4.028371 1.032816
vt 0.976732 1.032816
vt 3.892821 1.388503
vt 1.040474 1.28076
vt -1.33077 -0.6604532
vt -4.246246 -0.6604536
vt -1.419114 -0.3421183
vt -4.209129 -0.3306253
vt 0.0967865 -0.2805469
vt -2.903214 -0.2805469
vt 0.009933474 0.04987631
vt -2.903208 0.04981903
vt 0.2846229 -1.594472
vt -2.630853 -1.594473
vt 0.1944201 -1.267886
vt -2.599235 -1.292538
vt 2.903214 -0.6528261
vt 0.1532135 -0.6528261
vt 2.918717 -0.3377267
vt -0.06156923 -0.3388168
vn 0 -0.9999999 -1.192093E-07
vn 0 -1 -1.192093E-07
vn 0 -1 -1.192093E-07
vn 0 -1 -1.192093E-07
vn 0 -1 -1.192093E-07
vn 0 -1 -1.192093E-07
vn -8.414689E-09 1 -9.166305E-08
vn 4.273461E-09 1 -9.767616E-08
vn 9.467994E-11 1 -9.286123E-08
vn 2.045293E-08 1 -1.220671E-07
vn 5.892653E-09 1 -9.894076E-08
vn -4.091845E-10 1 -9.788155E-08
vn -0.8287479 0.2567502 -0.4972487
vn -0.8090196 0.3186739 -0.493897
vn -0.8090196 0.3186739 -0.493897
vn -0.7862936 0.3782146 -0.4885653
vn -0.7229643 -0.4703306 0.5060749
vn -0.828631 -0.1698594 0.5334027
vn -0.828631 -0.1698594 0.5334027
vn -0.8436775 0.2078332 0.4949886
vn 0.8455191 0.1665306 -0.5073115
vn 0.8321376 0.2676757 -0.4856921
vn 0.8321376 0.2676757 -0.4856921
vn 0.810068 0.3646037 -0.4591883
vn 0 0.3123626 -0.949963
vn -2.942595E-05 0.3121161 -0.950044
vn -2.942595E-05 0.3121161 -0.950044
vn -5.973452E-05 0.3118622 -0.9501273
vn 0.8241584 0.276111 0.4944951
vn 0.8562929 0.1449527 0.4957329
vn 0.8562929 0.1449527 0.4957329
vn 0.8734897 -0.0003806133 0.4868423
vn 0 0.08749851 0.9961647
vn 0.002169087 0.06851822 0.9976475
vn 0.002169087 0.06851822 0.9976475
vn 0.00417494 0.0509377 0.9986931
g pb_Mesh412670_0
f 3/3/3 2/2/2 1/1/1
f 4/4/4 2/2/2 3/3/3
f 5/5/5 2/2/2 4/4/4
f 6/6/6 4/4/4 3/3/3
f 9/9/9 8/8/8 7/7/7
f 8/8/8 11/11/11 10/10/10
f 9/9/9 11/11/11 8/8/8
f 12/12/12 11/11/11 9/9/9
f 15/15/15 14/14/14 13/13/13
f 15/15/15 16/16/16 14/14/14
f 19/19/19 18/18/18 17/17/17
f 19/19/19 20/20/20 18/18/18
f 23/23/23 22/22/22 21/21/21
f 23/23/23 24/24/24 22/22/22
f 27/27/27 26/26/26 25/25/25
f 27/27/27 28/28/28 26/26/26
f 31/31/31 30/30/30 29/29/29
f 31/31/31 32/32/32 30/30/30
f 35/35/35 34/34/34 33/33/33
f 35/35/35 36/36/36 34/34/34
