g pb_Mesh58450
v -13 -1 -1
v -12 0 -3
v -13 1 -1
v -12 1 -3
v 5 0 -3
v 6 -1 -1
v 5 1 -3
v 6 1 -1
v 0.75 1 -3
v 5 0 -3
v 5 1 -3
v 0.75 0 -3
v -3.5 1 -3
v -3.5 0 -3
v 6 -1 -1
v 5 0 -3
v 1.25 -1 -1
v 0.75 0 -3
v -3.5 -1 -1
v -3.5 0 -3
v -7.75 1 -3
v -7.75 0 -3
v -12 1 -3
v -12 0 -3
v -8.25 -1 -1
v -7.75 0 -3
v -12 0 -3
v -13 -1 -1
v 6 -1 -1
v 1.25 -1 -1
v 1.25 1 -1
v 6 1 -1
v -3.5 -1 -1
v -3.5 1 -1
v -8.25 -1 -1
v -8.25 1 -1
v -13 -1 -1
v -13 1 -1
v -3.5 1 -1
v -3.5 1 -3
v 0.75 1 -3
v 1.25 1 -1
v 5 1 -3
v 6 1 -1
v -13 1 -1
v -12 1 -3
v -8.25 1 -1
v -7.75 1 -3
vt -2.000001 2.5
vt 0.9999999 2.499982
vt -2 3
vt 1 2.999982
vt -3.5 2.499996
vt -4.5 2.5
vt -3.5 2.999996
vt -4.5 3
vt -2.375 2.999992
vt -3.5 2.499996
vt -3.5 2.999996
vt -2.375 2.499992
vt -1.25 2.999989
vt -1.25 2.499989
vt -3 -3.5
vt -3 -3
vt -2.25 -3.5
vt -2.25 -3
vt -1.5 -3.5
vt -1.5 -3
vt -0.1249999 2.999986
vt -0.1250001 2.499985
vt 1 2.999982
vt 0.9999999 2.499982
vt -0.75 -3.5
vt -0.75 -3
vt 0 -3
vt 0 -3.5
vt -6.35766 -1
vt -11.10766 -1
vt -11.10766 1
vt -6.35766 1
vt -15.85766 -1
vt -15.85766 1
vt -20.60766 -1
vt -20.60766 1
vt -25.35766 -1
vt -25.35766 1
vt 3.875 12.0625
vt 3.875 11.6875
vt 3.078125 11.6875
vt 2.984375 12.0625
vt 2.28125 11.6875
vt 2.09375 12.0625
vt 5.656249 12.0625
vt 5.46875 11.6875
vt 4.765625 12.0625
vt 4.671875 11.6875
vn -0.8944272 0 -0.4472136
vn -0.8944272 0 -0.4472136
vn -0.8944272 0 -0.4472136
vn -0.8944272 0 -0.4472136
vn 0.8944272 0 -0.4472136
vn 0.8944272 0 -0.4472136
vn 0.8944272 0 -0.4472136
vn 0.8944272 0 -0.4472136
vn 0 0 -1
vn 0 0 -1
vn 0 0 -1
vn 0 0 -1
vn 0 0 -1
vn 0 0 -1
vn 0 -0.8944272 -0.4472136
vn 0 -0.8944272 -0.4472136
vn 0 -0.8944272 -0.4472136
vn 0 -0.8944272 -0.4472136
vn 0 -0.8944272 -0.4472136
vn 0 -0.8944272 -0.4472136
vn 0 0 -1
vn 0 0 -1
vn 0 0 -1
vn 0 0 -1
vn 0 -0.8944272 -0.4472136
vn 0 -0.8944272 -0.4472136
vn 0 -0.8944272 -0.4472136
vn 0 -0.8944272 -0.4472136
vn 0 0 1
vn 0 0 1
vn 0 0 1
vn 0 0 1
vn 0 0 1
vn 0 0 1
vn 0 0 1
vn 0 0 1
vn 0 0 1
vn 0 0 1
vn 0 1 0
vn 0 1 0
vn 0 1 0
vn 0 1 0
vn 0 1 0
vn 0 1 0
vn 0 1 0
vn 0 1 0
vn 0 1 0
vn 0 1 0
g pb_Mesh58450_0
f 3/3/3 2/2/2 1/1/1
f 3/3/3 4/4/4 2/2/2
f 7/7/7 6/6/6 5/5/5
f 7/7/7 8/8/8 6/6/6
f 11/11/11 10/10/10 9/9/9
f 10/10/10 12/12/12 9/9/9
f 9/9/9 12/12/12 13/13/13
f 12/12/12 14/14/14 13/13/13
f 17/17/17 16/16/16 15/15/15
f 18/18/18 16/16/16 17/17/17
f 19/19/19 18/18/18 17/17/17
f 19/19/19 20/20/20 18/18/18
f 13/13/13 14/14/14 21/21/21
f 14/14/14 22/22/22 21/21/21
f 21/21/21 22/22/22 23/23/23
f 22/22/22 24/24/24 23/23/23
f 27/27/27 26/26/26 25/25/25
f 28/28/28 27/27/27 25/25/25
f 25/25/25 26/26/26 19/19/19
f 26/26/26 20/20/20 19/19/19
g pb_Mesh58450_1
f 31/31/31 30/30/30 29/29/29
f 31/31/31 29/29/29 32/32/32
f 34/34/34 33/33/33 30/30/30
f 34/34/34 30/30/30 31/31/31
f 36/36/36 35/35/35 33/33/33
f 36/36/36 33/33/33 34/34/34
f 38/38/38 37/37/37 35/35/35
f 38/38/38 35/35/35 36/36/36
g pb_Mesh58450_2
f 41/41/41 40/40/40 39/39/39
f 42/42/42 41/41/41 39/39/39
f 42/42/42 43/43/43 41/41/41
f 44/44/44 43/43/43 42/42/42
f 47/47/47 46/46/46 45/45/45
f 47/47/47 48/48/48 46/46/46
f 39/39/39 40/40/40 48/48/48
f 39/39/39 48/48/48 47/47/47
