g pb_Mesh1141206
v 0 -3.5 -7
v -1 -3.5 -7
v 0 1 0
v -1 1 0
v -1 -3.5 -7
v -1 -2.5 -7
v -1 1 0
v -1 1 -1
v -1 -2.5 -7
v 0 -2.5 -7
v -1 1 -1
v 0 1 -1
v 0 -2.5 -7
v 0 -3.5 -7
v 0 1 -1
v 0 1 0
v 0 1 0
v -1 1 0
v 0 1 -1
v -1 1 -1
v 0 -2.5 -7
v -1 -2.5 -7
v 0 -3.5 -7
v -1 -3.5 -7
vt -0.46875 -3.880124
vt -0.53125 -3.880124
vt -0.46875 -3.36002
vt -0.53125 -3.36002
vt -3.71875 -1.390625
vt -3.71875 -1.328125
vt -3.28125 -1.109375
vt -3.34375 -1.109375
vt 0.53125 -4.050089
vt 0.46875 -4.050089
vt 0.53125 -3.61595
vt 0.46875 -3.61595
vt 3.71875 -1.328125
vt 3.71875 -1.390625
vt 3.34375 -1.109375
vt 3.28125 -1.109375
vt 0.46875 -0.46875
vt 0.53125 -0.46875
vt 0.46875 -0.53125
vt 0.53125 -0.53125
vt 0.46875 -2.96875
vt 0.53125 -2.96875
vt 0.46875 -3.03125
vt 0.53125 -3.03125
vn 0 -0.8411785 0.5407576
vn 0 -0.8411785 0.5407576
vn 0 -0.8411785 0.5407576
vn 0 -0.8411785 0.5407576
vn -1 0 0
vn -1 0 0
vn -1 0 0
vn -1 0 0
vn 0 0.8637789 -0.5038711
vn 0 0.8637789 -0.5038711
vn 0 0.8637789 -0.5038711
vn 0 0.8637789 -0.5038711
vn 1 0 0
vn 1 0 0
vn 1 0 0
vn 1 0 0
vn 0 1 0
vn 0 1 0
vn 0 1 0
vn 0 1 0
vn 0 0 -1
vn 0 0 -1
vn 0 0 -1
vn 0 0 -1
g pb_Mesh1141206_0
f 3/3/3 2/2/2 1/1/1
f 3/3/3 4/4/4 2/2/2
g pb_Mesh1141206_1
f 7/7/7 6/6/6 5/5/5
f 7/7/7 8/8/8 6/6/6
f 11/11/11 10/10/10 9/9/9
f 11/11/11 12/12/12 10/10/10
f 15/15/15 14/14/14 13/13/13
f 15/15/15 16/16/16 14/14/14
f 19/19/19 18/18/18 17/17/17
f 19/19/19 20/20/20 18/18/18
f 23/23/23 22/22/22 21/21/21
f 23/23/23 24/24/24 22/22/22
