g pb_Mesh389848
v 0 0 0
v -5 0 0
v 0 2 0
v -5 0 0
v -5 0 0
v 0 2 0
v -5 0 0
v -5 0 -12
v -5 0 0
v -5 0 -12
v -5 0 -12
v -5 0 0
v -5 0 -12
v 0 0 -12
v -5 0 -12
v 0 0 -12
v 0 2 -12
v -5 0 -12
v 0 0 -12
v 0 0 0
v 0 2 -12
v 0 2 0
v 0 2 0
v -5 0 0
v 0 2 -12
v -5 0 -12
v 0 0 -12
v -5 0 -12
v 0 0 0
v -5 0 0
vt -1.875 0.75
vt -3.125 0.75
vt -1.875 1.25
vt -3.125 0.75
vt -3.125 0.75
vt -1.875 1.25
vt 0 0
vt 0 0
vt 0 0
vt 0 0
vt 0 0
vt 0 0
vt 0 0
vt 0 0
vt 0 0
vt 0 0
vt 0 0
vt 0 0
vt 7.5 0.75
vt 4.5 0.75
vt 7.5 1.25
vt 4.5 1.25
vt 1.276655 -4.5
vt 2.622947 -4.5
vt 1.276655 -7.5
vt 2.622947 -7.5
vt -1.875 -7.5
vt -3.125 -7.5
vt -1.875 -4.5
vt -3.125 -4.5
vn 0 0 1
vn 0 0 1
vn 0 0 1
vn 0 0 1
vn 0 0 0
vn 0 0 1
vn 0 0 0
vn 0 0 0
vn 0 0 0
vn 0 0 0
vn 0 0 0
vn 0 0 0
vn 0 0 0
vn 0 0 -1
vn 0 0 -1
vn 0 0 -1
vn 0 0 -1
vn 0 0 -1
vn 1 0 0
vn 1 0 0
vn 1 0 0
vn 1 0 0
vn -0.3713907 0.9284766 0
vn -0.3713907 0.9284766 0
vn -0.3713907 0.9284766 0
vn -0.3713907 0.9284766 0
vn 0 -1 0
vn 0 -1 0
vn 0 -1 0
vn 0 -1 0
g pb_Mesh389848_0
f 3/3/3 2/2/2 1/1/1
f 6/6/6 5/5/5 4/4/4
f 9/9/9 8/8/8 7/7/7
f 12/12/12 11/11/11 10/10/10
f 15/15/15 14/14/14 13/13/13
f 18/18/18 17/17/17 16/16/16
f 21/21/21 20/20/20 19/19/19
f 21/21/21 22/22/22 20/20/20
f 25/25/25 24/24/24 23/23/23
f 25/25/25 26/26/26 24/24/24
f 29/29/29 28/28/28 27/27/27
f 29/29/29 30/30/30 28/28/28
