g pb_Mesh374218
v 11 4 -5
v 11 4 -3
v 11 5 -5
v 11 5 -3
v 2.5 -10.5 -7
v -0.5 -11.5 -7
v 2.5 -10.50198 -1
v -0.5 -11.5 -7
v -0.5 -11.5 -1
v 2.5 -10.50198 -1
v 3 1 -5
v 3 1 -3
v 3 4 -5
v 3 4 -3
v 3 6 0
v 3 6 -8
v 5 6 -3
v 5 4 -5
v 5 4 -3
v 11 4 -5
v 11 4 -3
v 5 6 -3
v 5 6 -5
v 11 5 -3
v 11 5 -5
v 5 1 -5
v 5 1 -3
v 3 1 -5
v 3 1 -3
v 5 4 -5
v 5 1 -5
v 3 4 -5
v 3 1 -5
v 5 1 -3
v 5 4 -3
v 3 1 -3
v 3 4 -3
v 5 4 -3
v 5 4 -5
v 3 4 -3
v 3 4 -5
v 4 6 -6.5
v 5 6 -5
v 5 6 -3
v 3 6 -8
v 1 6 0
v -1 6 0
v 3 6 -8
v 3 6 0
v -1 6 -8
v 1 6 -8
v 5 4 -3
v 5 4 -5
v 5 4 -3
v 5 4 -5
v 5 4 -5
v 5 4 -3
v 5 4 -5
v 3.5 -10.69556 -8
v 5 4 -3
v 5 4 -3
v 5 1 -3
v 2.5 -11 -8
v 3 -3.75 -8
v 3 6 -8
v 3.5 -10.69556 -8
v 3 6 -8
v 3.666667 -0.5 -7
v 4 6 -6.5
v 3 -3.75 -8
v 3 -3.75 -8
v 4 -3.75 -6.5
v 3.5 -10.69556 -8
v 5 6 -5
v 4 -3.75 -6.5
v 5 4 -5
v 4 -3.75 -6.5
v 3.5 -10.69556 -8
v 4 -3.75 -6.5
v 5 4 -5
v 5 6 -5
v 4 5 -1.5
v 5 4 -3
v 3.666667 -1.166667 -1
v 4 -4.75 -1.5
v 5 6 -3
v 4 5 -1.5
v 3 6 0
v 5 4 -3
v 5 4 -3
v 5 1 -3
v 4 -4.75 -1.5
v 3.5 -10.69556 0
v -1 -12 0
v -1 -2 0
v 1 -3.75 0
v 0.5 -1 0
v 0.5 -1 0
v -1 -2 0
v -1 6 0
v 1 6 0
v 0.5 -1 0
v 3 6 0
v 1 -3.75 0
v 3 -3.75 0
v 3 -8.625 0
v 2 -6.1875 0
v 3 1.125 0
v 3 -8.625 0
v 3.5 -10.69556 0
v 1 -11.38013 0
v 2 -6.1875 0
v 1 -11.38013 0
v -1 -12 0
v 2 -6.1875 0
v 1 -3.75 0
v 1 -3.75 0
v 3 6 0
v 4 -4.75 -1.5
v 3 -3.75 0
v 3 -8.625 0
v 3.5 -10.69556 0
v 3 1.125 0
v 3 6 0
v -1 6 -8
v -1 -12 -8
v -0.5 -3.75 -8
v 0 -12 -8
v 1.5 -3.75 -8
v 0 -12 -8
v 2.5 -11 -8
v 3 6 -8
v 0.6666667 -0.5 -8
v -0.5 -3.75 -8
v 1.5 -3.75 -8
v 3 6 -8
v 1 6 -8
v -1 6 -8
v 3.5 -10.69556 -8
v 4 -6.25 -6.5
v 5 4 -5
v 5 1 -5
v 4 -6.25 -6.5
v 3.5 -10.69556 -8
v 3.666667 -8.666667 -4.333333
v 3.5 -10.69556 -4
v 4 -6.25 -2.5
v 3.666667 -8.666667 -4.333333
v 3.5 -10.69556 0
v 5 1 -5
v 4 -6.25 -6.5
v 4 -6.25 -2.5
v 3.666667 -8.666667 -4.333333
v 5 1 -3
v 4 -6.25 -2.5
v 3.5 -10.69556 0
v -1 -12 -8
v -0.5 -11.89779 -7.5
v 0 -12 -8
v -0.5 -11.89779 -7.5
v 0 -12 -7.5
v 0 -12 -8
v 0 -12 -7.5
v 2.5 -11 -8
v 0 -12 -8
v 2.5 -11 -7.5
v 2.5 -11 -7.5
v 3 -10.76888 -7.5
v 2.5 -11 -8
v 2.5 -11 -8
v 3 -10.76888 -7.5
v 3.5 -10.69556 -8
v 3.5 -10.69556 -8
v 3 -10.76888 -7.5
v 3 -10.76888 -0.5
v -1 -12 -8
v -1 -12 0
v -0.5 -11.89779 -7.5
v -0.5 -11.89779 -0.5
v 3.5 -10.69556 0
v 3 -10.76888 -0.5
v -0.5 -11.89779 -0.5
v 3 -10.76888 -7.5
v 2.5 -11 -7.5
v 2.5 -10.5 -7
v 2.5 -10.5 -7
v 2.5 -11 -7.5
v 0 -12 -7.5
v 2.5 -10.5 -7
v 0 -12 -7.5
v -0.5 -11.5 -7
v 0 -12 -7.5
v -0.5 -11.89779 -7.5
v -0.5 -11.5 -7
v 3 -10.76888 -0.5
v 3 -10.76888 -7.5
v 2.5 -10.50198 -1
v 3 -10.76888 -7.5
v 2.5 -10.5 -7
v 2.5 -10.50198 -1
v -0.5 -11.89779 -7.5
v -0.5 -11.89779 -0.5
v -0.5 -11.5 -7
v -0.5 -11.5 -1
v -0.5 -11.89779 -0.5
v 3 -10.76888 -0.5
v -0.5 -11.5 -1
v 3 -10.76888 -0.5
v 2.5 -10.50198 -1
v -0.5 -11.5 -1
v -0.5 -11.89779 -0.5
v 1 -11.38013 0
v 3.5 -10.69556 0
v -1 -12 0
v 3.5 -10.69556 0
v 3.5 -10.69556 -4
vt 1.000001 9
vt 2.000001 8.99999
vt 0.999999 8.500006
vt 1.999999 8.499994
vt 1.778781 2.279913
vt 1.383497 2.279913
vt 1.778703 1.529913
vt 1.383223 2.279913
vt 1.383223 1.529913
vt 1.77843 1.529913
vt -3.875 6.029913
vt -3.875 5.779913
vt -4.25 6.029913
vt -4.25 5.779913
vt -3.75 -3
vt -3.75 -5
vt -4.25 -3.75
vt 6.25 -4.25
vt 6.25 -3.75
vt 7.75 -4.25
vt 7.75 -3.75
vt -6.226612 -3.75
vt -6.226612 -4.25
vt -7.747303 -3.75
vt -7.747303 -4.25
vt -4.125 6.029913
vt -4.125 5.779913
vt -3.875 6.029913
vt -3.875 5.779913
vt 4.125 11.21741
vt 4.125 11.59241
vt 3.875 11.21741
vt 3.875 11.59241
vt -4.125 11.59241
vt -4.125 11.21741
vt -3.875 11.59241
vt -3.875 11.21741
vt 4.125 5.779913
vt 4.125 6.029913
vt 3.875 5.779913
vt 3.875 6.029913
vt -4 -5.75
vt -4.25 -5.375
vt -4.25 -4.875
vt -3.75 -6.125
vt -1 -3
vt -0.5 -3
vt -1.5 -5
vt -1.5 -3
vt -0.5 -5
vt -1 -5
vt -5 15.90491
vt -5 15.90491
vt -5 15.90491
vt -5 15.90491
vt -5 15.90491
vt -5 15.90491
vt -6.500008 -9.921875
vt -7.499991 -6.999999
vt -6 -9.921875
vt -6 -9.921875
vt -6.000001 -9.5
vt -1.124997 -9.5
vt -0.9999999 -11.125
vt -1.000003 -12.75
vt -0.9999973 -9.5
vt -7.499986 -10.25
vt -7.166665 -9.166667
vt -6.999993 -10.25
vt -7.499997 -8.625
vt -7.499997 -8.625
vt -7.000005 -8.625
vt -7.500009 -7
vt -6.5 -10.25
vt -7.000005 -8.625
vt -6.499991 -9.921873
vt -7.000005 -8.625
vt -7.500009 -7
vt -7.000005 -8.625
vt -6.499991 -9.921873
vt -6.5 -10.25
vt -5.499999 -10.08594
vt -6 -9.921875
vt -5.333333 -9.057292
vt -5.5 -8.460938
vt -5.999998 -10.25
vt -5.499999 -10.08594
vt -4.999998 -10.25
vt -6 -9.921875
vt -6 -9.921875
vt -6.000001 -9.5
vt -5.5 -8.460938
vt -5 -6.999999
vt 1.192093E-07 -9.5
vt 2.086163E-07 -11.125
vt -0.2499998 -11.125
vt -0.1666664 -11.66667
vt -0.1666664 -11.66667
vt 2.086163E-07 -11.125
vt 2.980232E-07 -12.75
vt -0.2499997 -12.75
vt -0.1666664 -11.66667
vt -0.4999996 -12.75
vt -0.2499998 -11.125
vt -0.4999998 -11.125
vt -0.4999998 -10.3125
vt -0.3749998 -10.71875
vt -0.4999997 -11.9375
vt -0.4999998 -10.3125
vt -0.4999999 -9.5
vt -0.2499999 -9.5
vt -0.3749998 -10.71875
vt -0.2499999 -9.5
vt 1.192093E-07 -9.5
vt -0.3749998 -10.71875
vt -0.2499998 -11.125
vt -0.2499998 -11.125
vt -0.4999996 -12.75
vt -5.5 -8.460938
vt -4.999999 -8.625
vt -4.999999 -7.8125
vt -5 -6.999999
vt -4.999999 -9.4375
vt -4.999998 -10.25
vt -1.500003 -12.75
vt -1.499997 -9.5
vt -1.4375 -11.125
vt -1.374997 -9.5
vt -1.1875 -11.125
vt -1.374997 -9.5
vt -1.124997 -9.5
vt -1.000003 -12.75
vt -1.291667 -11.66667
vt -1.4375 -11.125
vt -1.1875 -11.125
vt -1.000003 -12.75
vt -1.250003 -12.75
vt -1.500003 -12.75
vt -7.499991 -6.999999
vt -6.999999 -8.25
vt -6.500006 -9.921875
vt -6.500007 -9.5
vt -6.999999 -8.25
vt -7.499991 -6.999999
vt -6.333333 -7.833333
vt -6.249995 -6.999999
vt -5.750003 -8.25
vt -6.333333 -7.833333
vt -5 -6.999999
vt -6.500007 -9.5
vt -6.999999 -8.25
vt -5.750003 -8.25
vt -6.333333 -7.833333
vt -6.000001 -9.5
vt -5.750003 -8.25
vt -5 -6.999999
vt -4.183664 -2.254045
vt -3.676217 -2.753287
vt -3.230774 -2.25005
vt -3.676217 -2.753287
vt -3.230774 -2.750006
vt -3.230774 -2.25005
vt -3.230774 -2.750006
vt -0.5452327 -2.252613
vt -3.230774 -2.25005
vt -0.5452327 -2.752569
vt -0.5452327 -2.752569
vt 0.001315176 -2.753473
vt -0.5452327 -2.252613
vt -0.5452327 -2.252613
vt 0.001315176 -2.753473
vt 0.5 -2.252439
vt 0.5 -2.252439
vt 0.001315176 -2.753473
vt 0.001315176 -9.752866
vt -4.183664 -2.254045
vt -4.183664 -10.25335
vt -3.676217 -2.753287
vt -3.676217 -9.75268
vt 0.5 -10.25175
vt 0.001315176 -9.752866
vt -3.676217 -9.75268
vt 0.001315176 -2.753473
vt -0.5452327 -2.752569
vt -0.3935744 -3.258802
vt -0.3935744 -3.258802
vt -0.5452327 -2.752569
vt -3.230774 -2.750006
vt -0.3935744 -3.258802
vt -3.230774 -2.750006
vt -3.555561 -3.258236
vt -3.230774 -2.750006
vt -3.676217 -2.753287
vt -3.555561 -3.258236
vt 0.001315176 -9.752866
vt 0.001315176 -2.753473
vt -0.3941737 -9.258257
vt 0.001315176 -2.753473
vt -0.3935744 -3.258802
vt -0.3941737 -9.258257
vt -3.676217 -2.753287
vt -3.676217 -9.75268
vt -3.555561 -3.258236
vt -3.555561 -9.257716
vt -3.676217 -9.75268
vt 0.001315176 -9.752866
vt -3.555561 -9.257716
vt 0.001315176 -9.752866
vt -0.3941737 -9.258257
vt -3.555561 -9.257716
vt -3.676217 -9.75268
vt -2.089866 -10.25314
vt 0.5 -10.25175
vt -4.183664 -10.25335
vt 0.5 -10.25175
vt 0.5 -6.252092
vn 1 0 0
vn 1 0 0
vn 1 0 0
vn 1 0 0
vn 0.3162277 -0.9486833 -0.0003124351
vn 0.3162277 -0.9486833 -0.0003124351
vn 0.3162277 -0.9486833 -0.0003124351
vn 0.3156652 -0.9488706 0
vn 0.3156652 -0.9488706 0
vn 0.3156652 -0.9488706 0
vn 1 0 0
vn 1 0 0
vn 1 0 0
vn 1 0 0
vn 0 1 0
vn 0 1 0
vn 0 1 0
vn 0 -1 0
vn 0 -1 0
vn 0 -1 0
vn 0 -1 0
vn 0.164399 0.9863939 0
vn 0.164399 0.9863939 0
vn 0.164399 0.9863939 0
vn 0.164399 0.9863939 0
vn 0 1 0
vn 0 1 0
vn 0 1 0
vn 0 1 0
vn 0 0 1
vn 0 0 1
vn 0 0 1
vn 0 0 1
vn 0 0 -1
vn 0 0 -1
vn 0 0 -1
vn 0 0 -1
vn 0 -1 0
vn 0 -1 0
vn 0 -1 0
vn 0 -1 0
vn 0 1 0
vn 0 1 0
vn 0 1 0
vn 0 1 0
vn 0 1 0
vn 0 1 0
vn 0 1 0
vn 0 1 0
vn 0 1 0
vn 0 1 0
vn 0 0 0
vn 0 0 0
vn 0 0 0
vn 0 0 0
vn 0 0 0
vn 0 0 0
vn 0 0 0
vn 0 0 0
vn 0 0 0
vn 0 0 0
vn 0 0 0
vn 0 0 -1
vn 0 0 -1
vn 0 0 -1
vn 0 0 -1
vn 0.8320503 5.086571E-09 -0.5547003
vn 0.8320503 5.086571E-09 -0.5547003
vn 0.8320503 1.017314E-08 -0.5547002
vn 0.8320503 0 -0.5547003
vn 0.8313584 0.04077062 -0.554239
vn 0.8313584 0.04077062 -0.554239
vn 0.8305617 0.05979086 -0.5537078
vn 0.8320503 0 -0.5547002
vn 0.8320503 -1.017314E-08 -0.5547001
vn 0.3302408 0.1381117 -0.9337377
vn 0.3302408 0.1381117 -0.9337377
vn -0.3566511 0.2216757 -0.9075571
vn 0.3302408 0.1381117 -0.9337377
vn 0.3302408 0.1381117 -0.9337377
vn 0.8320503 0 -0.5547002
vn 0.8320503 1.017314E-08 0.5547002
vn 0.8320503 0 0.5547002
vn 0.8320503 0 0.5547002
vn 0.8320503 -1.017314E-08 0.5547001
vn 0.8320503 0 0.5547002
vn 0.8320503 0 0.5547002
vn 0.8320503 0 0.5547002
vn 0.8320503 0 0.5547002
vn 0.8320503 0 0.5547002
vn 0.6168144 0.09651126 0.7811694
vn 0.6168144 0.09651126 0.7811694
vn 0.09240621 0.2362646 0.967285
vn 0 0 1
vn 0 0 1
vn 0 0 1
vn 0 0 1
vn 0 0 1
vn 0 0 1
vn 0 0 1
vn 0 0 1
vn 0 0 1
vn 0 0 1
vn 0 0 0.9999999
vn 0 0 1
vn 0 0 1
vn 0 0 1
vn 0 0 1
vn 0 0 1
vn 0 0 1
vn 0 0 1
vn 0 0 1
vn 0 0 1
vn 0 0 1
vn 0 0 1
vn 0 0 1
vn 0 0 1
vn 0 0 1
vn 0.7828239 0.03839044 0.6210579
vn 0.8320503 -8.138513E-09 0.5547002
vn 0.7598091 0.05469749 0.6478413
vn 0.6059289 0.1463203 0.7819467
vn 0.8320503 5.086571E-09 0.5547002
vn 0.8320503 0 0.5547002
vn 0 0 -1
vn 0 0 -1
vn 0 0 -1
vn 0 0 -1
vn 0 0 -0.9999999
vn 0 0 -1
vn 0 0 -0.9999999
vn 0 0 -0.9999999
vn 0 0 -1
vn 0 0 -1
vn 0 0 -1
vn 0 0 -1
vn 0 0 -1
vn 0 0 -1
vn 0.9933127 -0.08556485 -0.07751529
vn 0.9618739 -0.05462434 -0.2679829
vn 0.9618739 -0.05462434 -0.2679829
vn 0.8320503 0 -0.5547002
vn 0.9927349 -0.1185657 0.02048204
vn 0.9944237 -0.1046879 0.01272625
vn 0.9944237 -0.1046879 0.01272625
vn 0.9966429 -0.08187101 0
vn 0.9923014 -0.1223608 -0.01912453
vn 0.9941092 -0.1076965 -0.01218909
vn 0.9941092 -0.1076965 -0.01218909
vn 0.9906211 -0.1366374 0
vn 0.9906211 -0.1366374 0
vn 0.9906211 -0.1366374 0
vn 0.9906212 -0.1366374 0
vn 0.9900163 -0.1383968 -0.02672056
vn 0.9900163 -0.1383968 -0.02672056
vn 0.9888483 -0.1399118 -0.0510247
vn 0 -0.9797387 0.2002801
vn 0 -0.9797387 0.2002801
vn 0 -0.9797387 0.2002801
vn -0.2002801 -0.9797387 0
vn -0.2002801 -0.9797387 0
vn -0.2002801 -0.9797387 0
vn 0.3713907 -0.9284767 0
vn 0.3713907 -0.9284767 0
vn 0.3713907 -0.9284767 0
vn 0.3713907 -0.9284767 0
vn 0.4195847 -0.9077163 0
vn 0.4195847 -0.9077163 0
vn 0.4195847 -0.9077163 0
vn 0.2879825 -0.9459311 0.1492668
vn 0.2879825 -0.9459311 0.1492668
vn 0.2879825 -0.9459311 0.1492668
vn 0.1450928 -0.9894181 0
vn 0.1450928 -0.9894181 0
vn 0.1450928 -0.9894181 0
vn 0.2002801 -0.9797387 0
vn 0.2002801 -0.9797387 0
vn 0.2002801 -0.9797387 0
vn 0.2002801 -0.9797386 0
vn 0.3027595 -0.938656 -0.1651107
vn 0.3027595 -0.938656 -0.1651107
vn 0.3027595 -0.938656 -0.1651107
vn 0.31068 -0.6721153 0.6721153
vn 0.31068 -0.6721153 0.6721153
vn 0.31068 -0.6721153 0.6721153
vn 0.2721655 -0.6804138 0.6804138
vn 0.2721655 -0.6804138 0.6804138
vn 0.2721655 -0.6804138 0.6804138
vn 0.1961161 -0.5883484 0.7844645
vn 0.1961161 -0.5883484 0.7844645
vn 0.1961161 -0.5883484 0.7844645
vn -0.1579628 -0.7727291 0.6147663
vn -0.1579628 -0.7727291 0.6147663
vn -0.1579628 -0.7727291 0.6147663
vn -0.4709128 -0.8821799 0
vn -0.4709128 -0.8821799 0
vn -0.4709128 -0.8821799 0
vn -0.4738443 -0.8806087 -0.0002900157
vn -0.4738443 -0.8806087 -0.0002900157
vn -0.4738443 -0.8806087 -0.0002900157
vn 1 0 0
vn 1 0 0
vn 1 0 0
vn 1 0 0
vn 0.2447338 -0.7587568 -0.6036503
vn 0.2447338 -0.7587568 -0.6036503
vn 0.2447338 -0.7587568 -0.6036503
vn 0.2438332 -0.7329478 -0.635085
vn 0.2438332 -0.7329478 -0.635085
vn 0.2438332 -0.7329478 -0.635085
vn 0.2749548 -0.9485245 0.1571659
vn 0.2749548 -0.9485245 0.1571659
vn 0.2586614 -0.9446121 0.2019956
vn 0.2945513 -0.95036 0.1002768
vn 0.1450928 -0.9894181 0
vn 0.1450928 -0.9894181 0
g pb_Mesh374218_0
f 3/3/3 2/2/2 1/1/1
f 3/3/3 4/4/4 2/2/2
g pb_Mesh374218_1
f 7/7/7 6/6/6 5/5/5
f 10/10/10 9/9/9 8/8/8
f 13/13/13 12/12/12 11/11/11
f 13/13/13 14/14/14 12/12/12
f 17/17/17 16/16/16 15/15/15
f 20/20/20 19/19/19 18/18/18
f 20/20/20 21/21/21 19/19/19
f 24/24/24 23/23/23 22/22/22
f 24/24/24 25/25/25 23/23/23
f 28/28/28 27/27/27 26/26/26
f 28/28/28 29/29/29 27/27/27
f 32/32/32 31/31/31 30/30/30
f 32/32/32 33/33/33 31/31/31
f 36/36/36 35/35/35 34/34/34
f 36/36/36 37/37/37 35/35/35
f 40/40/40 39/39/39 38/38/38
f 40/40/40 41/41/41 39/39/39
f 44/44/44 43/43/43 42/42/42
f 44/44/44 42/42/42 45/45/45
f 48/48/48 47/47/47 46/46/46
f 46/46/46 49/49/49 48/48/48
f 51/51/51 50/50/50 47/47/47
f 48/48/48 51/51/51 47/47/47
g pb_Mesh374218_2
f 54/54/54 53/53/53 52/52/52
f 57/57/57 56/56/56 55/55/55
f 58/58/58 59/59/59 58/58/58
f 62/62/62 61/61/61 60/60/60
f 65/65/65 64/64/64 63/63/63
f 64/64/64 66/66/66 63/63/63
f 69/69/69 68/68/68 67/67/67
f 68/68/68 70/70/70 67/67/67
f 72/72/72 71/71/71 68/68/68
f 73/73/73 71/71/71 72/72/72
f 68/68/68 69/69/69 74/74/74
f 68/68/68 74/74/74 75/75/75
f 78/78/78 77/77/77 76/76/76
f 81/81/81 80/80/80 79/79/79
f 84/84/84 83/83/83 82/82/82
f 83/83/83 84/84/84 85/85/85
f 88/88/88 87/87/87 86/86/86
f 87/87/87 89/89/89 86/86/86
f 92/92/92 91/91/91 90/90/90
f 93/93/93 91/91/91 92/92/92
f 96/96/96 95/95/95 94/94/94
f 97/97/97 95/95/95 96/96/96
f 100/100/100 99/99/99 98/98/98
f 100/100/100 98/98/98 101/101/101
f 104/104/104 103/103/103 102/102/102
f 103/103/103 101/101/101 102/102/102
f 107/107/107 106/106/106 105/105/105
f 107/107/107 105/105/105 108/108/108
f 111/111/111 110/110/110 109/109/109
f 112/112/112 111/111/111 109/109/109
f 115/115/115 114/114/114 113/113/113
f 116/116/116 114/114/114 115/115/115
f 117/117/117 107/107/107 108/108/108
f 117/117/117 108/108/108 118/118/118
f 120/120/120 119/119/119 84/84/84
f 120/120/120 121/121/121 119/119/119
f 122/122/122 119/119/119 121/121/121
f 124/124/124 123/123/123 82/82/82
f 123/123/123 84/84/84 82/82/82
f 123/123/123 120/120/120 84/84/84
f 127/127/127 126/126/126 125/125/125
f 128/128/128 126/126/126 127/127/127
f 131/131/131 130/130/130 129/129/129
f 129/129/129 132/132/132 131/131/131
f 135/135/135 134/134/134 133/133/133
f 135/135/135 128/128/128 134/134/134
f 133/133/133 137/137/137 136/136/136
f 135/135/135 133/133/133 136/136/136
f 137/137/137 133/133/133 138/138/138
f 133/133/133 134/134/134 138/138/138
f 141/141/141 140/140/140 139/139/139
f 141/141/141 142/142/142 140/140/140
f 145/145/145 144/144/144 143/143/143
f 146/146/146 144/144/144 145/145/145
f 149/149/149 148/148/148 147/147/147
f 146/146/146 148/148/148 149/149/149
f 152/152/152 151/151/151 150/150/150
f 152/152/152 153/153/153 151/151/151
f 155/155/155 150/150/150 154/154/154
f 156/156/156 155/155/155 154/154/154
g pb_Mesh374218_3
f 159/159/159 158/158/158 157/157/157
f 162/162/162 161/161/161 160/160/160
f 165/165/165 164/164/164 163/163/163
f 164/164/164 166/166/166 163/163/163
f 169/169/169 168/168/168 167/167/167
f 172/172/172 171/171/171 170/170/170
f 175/175/175 174/174/174 173/173/173
f 178/178/178 177/177/177 176/176/176
f 178/178/178 179/179/179 177/177/177
f 182/182/182 181/181/181 180/180/180
f 185/185/185 184/184/184 183/183/183
f 188/188/188 187/187/187 186/186/186
f 191/191/191 190/190/190 189/189/189
f 194/194/194 193/193/193 192/192/192
f 197/197/197 196/196/196 195/195/195
f 200/200/200 199/199/199 198/198/198
f 203/203/203 202/202/202 201/201/201
f 203/203/203 204/204/204 202/202/202
f 207/207/207 206/206/206 205/205/205
f 210/210/210 209/209/209 208/208/208
f 213/213/213 212/212/212 211/211/211
f 214/214/214 211/211/211 212/212/212
f 175/175/175 216/216/216 215/215/215
f 173/173/173 216/216/216 175/175/175
