g pb_Mesh781946
v 0.5 -5 -0.5
v -0.5 -5 -0.5
v 0.5 -5 0.5
v -0.5 -5 0.5
v 0.5 -4 -0.5
v -0.5 -4 -0.5
v 0.5 -5 -0.5
v -0.5 -5 -0.5
v 0.5 -4 0.5
v 0.5 -4 -0.5
v 0.5 -5 0.5
v 0.5 -5 -0.5
v -0.5 -4 -0.5
v -0.5 -4 0.5
v -0.5 -5 -0.5
v -0.5 -5 0.5
v -0.5 -4 0.5
v 0.5 -4 0.5
v -0.5 -5 0.5
v 0.5 -5 0.5
v 1 -3 1
v 0 -3 1
v 0 1 1
v 1 1 1
v 0 -1 2
v -1 -1 2
v -1 1 2
v 0 1 2
v 1 -3 -1
v 0.5 -4 -0.5
v 1 -3 0
v 0.5 -4 0.5
v 1 -3 1
v -1 -3 1
v -0.5 -4 0.5
v -1 -3 0
v -0.5 -4 -0.5
v -1 -3 -1
v 1 -3 1
v 0.5 -4 0.5
v 0 -3 1
v -0.5 -4 0.5
v -1 -3 1
v -2 -1 0
v -2 -1 -1
v -2 1 -1
v -2 1 0
v 0 1 -2
v 1 -1 -2
v 1 1 -2
v 0 -1 -2
v -1 1 -1
v 0 -3 -1
v 0 1 -1
v -1 -3 -1
v 2 1 0
v 2 -1 1
v 2 1 1
v 2 -1 0
v -1 -3 -1
v -0.5 -4 -0.5
v 0 -3 -1
v 0.5 -4 -0.5
v 1 -3 -1
v -2 -1 0
v -2 -1 -1
v -1 -3 -1
v -1 1 -1
v -2 -1 -1
v -2 1 -1
v -1 1 0
v -1 -3 0
v -2 1 0
v -2 -1 0
v 1 -3 -1
v 1 1 -1
v 1 -1 -2
v 1 1 -2
v 1 1 -1
v 0 1 -1
v 1 1 -2
v 0 1 -2
v 0 1 -1
v 0 -3 -1
v 0 1 -2
v 0 -1 -2
v 0 -1 -2
v 1 -1 -2
v 2 -1 1
v 2 1 1
v 1 1 0
v 1 -3 0
v 2 1 0
v 2 -1 0
v 2 -1 0
v 2 -1 1
v 0 -1 2
v -1 -1 2
v -1 -3 1
v -1 1 1
v -1 -1 2
v -1 1 2
v 0 1 1
v 0 -3 1
v 0 1 2
v 0 -1 2
v -1 1 1
v 0 1 1
v -1 1 2
v 0 1 2
v 0 1 1
v -1 1 1
v -1 3 1
v 0 5 1
v -1 3 1
v -3 5 1
v 0 5 1
v 1 3 1
v 0 5 1
v 3 5 1
v -1 1 1
v -1 -3 1
v -1 1 0.5
v -1 -3 0
v -1 1 0
v -1 1 -0.5
v -1 3 -0.5
v -1 3 0
v -1 1 -1
v -1 3 -1
v -1 3 -0.5
v -1 3 -1
v -3 5 -1
v -7 5 -1
v -1 3 -0.5
v -3 5 -1
v -1 3 0
v -1 3 -0.5
v -7 5 -1
v -7 5 0
v -1 3 0.5
v -1 3 1
v -1 3 0.5
v -7 5 1
v -1 3 1
v -7 5 1
v -3 5 1
v -1 3 1
v -7 5 1
v 0 5 -1
v 1 3 -1
v 3 5 -1
v 0 5 -1
v 0 1 -1
v 1 3 -1
v 1 1 -1
v 0 5 -1
v -3 5 -1
v -1 3 -1
v 1 3 0.5
v 1 1 1
v 1 3 1
v 1 1 0.5
v 7 5 1
v 1 3 1
v 3 5 1
v 7 5 1
v 1 3 0.5
v 1 3 1
v 7 5 0
v 7 5 1
v 1 3 0
v 1 3 0
v 1 1 0
v 1 3 -0.5
v 1 1 -0.5
v 7 5 -1
v 1 3 -0.5
v 3 5 -1
v 1 3 -0.5
v 7 5 -1
v 3 5 -1
v 1 3 -1
v 1 3 -0.5
v 1 3 -1
v 1 1 -1
v 1 -3 -1
v 1 -3 0
v -3 5 1
v -7 5 1
v 0 5 1
v 0 5 1
v -7 5 1
v -7 5 0
v 0 5 -1
v 3 5 -1
v 7 5 -1
v 0 5 -1
v 7 5 -1
v 7 5 0
v -7 5 -1
v -3 5 -1
v 0 5 -1
v -7 5 -1
v 0 5 -1
v 0 5 -1
v 0 5 1
v 7 5 1
v 0 5 1
v 7 5 1
v 3 5 1
v 0 5 1
v -2 1 -1
v -1 1 -1
v -1 1 -0.5
v -2 1 0
v -1 1 0
v 1 1 0.5
v 1 1 0
v 2 1 0
v 2 1 1
v 1 1 1
vt 0.5 -0.5
vt -0.5 -0.5
vt 0.5 0.5
vt -0.5 0.5
vt -0.5 -4
vt 0.5 -4
vt -0.5 -5
vt 0.5 -5
vt -0.5 -4
vt 0.5 -4
vt -0.5 -5
vt 0.5 -5
vt -0.5 -4
vt 0.5 -4
vt -0.5 -5
vt 0.5 -5
vt -0.5 -4
vt 0.5 -4
vt -0.5 -5
vt 0.5 -5
vt 1 -3
vt 0 -3
vt 0 1
vt 1 1
vt 0 -1
vt -1 -1
vt -1 1
vt 0 1
vt 1 -2.236068
vt 0.5 -3.354102
vt 0 -2.236068
vt -0.5 -3.354102
vt -1 -2.236068
vt 1 -2.236068
vt 0.5 -3.354102
vt 0 -2.236068
vt -0.5 -3.354102
vt -1 -2.236068
vt 1 -2.236068
vt 0.5 -3.354102
vt 0 -2.236068
vt -0.5 -3.354102
vt -1 -2.236068
vt 0 -1
vt -1 -1
vt -1 1
vt 0 1
vt 0 1
vt -1 -1
vt -1 1
vt 0 -1
vt -1 1
vt 0 -3
vt 0 1
vt -1 -3
vt 0 1
vt -1 -1
vt -1 1
vt 0 -1
vt 1 -2.236068
vt 0.5 -3.354102
vt 0 -2.236068
vt -0.5 -3.354102
vt -1 -2.236068
vt 0 0
vt -1 0
vt 1 -3
vt 1 1
vt 2 -1
vt 2 1
vt -1 1
vt -1 -3
vt -2 1
vt -2 -1
vt 1 -3
vt 1 1
vt 2 -1
vt 2 1
vt -1 -1
vt 0 -1
vt -1 -2
vt 0 -2
vt -1 1
vt -1 -3
vt -2 1
vt -2 -1
vt 0 0
vt -1 0
vt 2 -1
vt 2 1
vt -1 1
vt -1 -3
vt -2 1
vt -2 -1
vt 0 0
vt -1 0
vt 0 0
vt -1 0
vt 1 -3
vt 1 1
vt 2 -1
vt 2 1
vt -1 1
vt -1 -3
vt -2 1
vt -2 -1
vt 1 1
vt 0 1
vt 1 2
vt 0 2
vt 0 1
vt -1 1
vt -1 3
vt 0 5
vt -1 3
vt -3 5
vt 0 5
vt 1 3
vt 0 5
vt 3 5
vt -1.025694 0.924926
vt -1.025694 -3.064027
vt -1.012677 0.9620488
vt -0.9996611 -2.989781
vt -0.9996611 0.9991716
vt -0.9866447 1.036294
vt -0.9866447 3.030771
vt -0.9996611 2.993648
vt -0.9736283 1.073417
vt -0.9736283 3.067894
vt -0.9866447 3.030771
vt -0.9736283 3.067894
vt -2.97295 5.066237
vt -6.971595 5.073971
vt -0.9866447 3.030771
vt -2.97295 5.066237
vt -0.9996611 2.993648
vt -0.9866447 3.030771
vt -6.971595 5.073971
vt -6.997628 4.999725
vt -1.012677 2.956525
vt -1.025694 2.919402
vt -1.012677 2.956525
vt -7.02366 4.925479
vt -1.025694 2.919402
vt -7.02366 4.925479
vt -3.025016 4.917746
vt -1.025694 2.919402
vt -7.02366 4.925479
vt 0 5
vt 1 3
vt 3 5
vt 0 5
vt 0 1
vt 1 3
vt 1 1
vt 0 5
vt -3 5
vt -1 3
vt 0.9866446 3.030771
vt 0.9736282 1.073417
vt 0.9736282 3.067894
vt 0.9866446 1.036294
vt 6.971594 5.073971
vt 0.9736282 3.067894
vt 2.97295 5.066236
vt 6.971594 5.073971
vt 0.9866446 3.030771
vt 0.9736282 3.067894
vt 6.997627 4.999725
vt 6.971594 5.073971
vt 0.999661 2.993648
vt 0.999661 2.993648
vt 0.999661 0.9991716
vt 1.012677 2.956525
vt 1.012677 0.9620487
vt 7.02366 4.925479
vt 1.012677 2.956525
vt 3.025016 4.917745
vt 1.012677 2.956525
vt 7.02366 4.925479
vt 3.025016 4.917745
vt 1.025694 2.919402
vt 1.012677 2.956525
vt 1.025694 2.919402
vt 1.025694 0.9249259
vt 1.025694 -3.064027
vt 0.999661 -2.989781
vt 3 1
vt 7 1
vt 0 1
vt 0 1
vt 7 1
vt 7 0
vt 0 -1
vt -3 -1
vt -7 -1
vt 0 -1
vt -7 -1
vt -7 0
vt 7 -1
vt 3 -1
vt 0 -1
vt 7 -1
vt 0 -1
vt 0 -1
vt 0 1
vt -7 1
vt 0 1
vt -7 1
vt -3 1
vt 0 1
vt 2 -1
vt 1 -1
vt 1 -0.5
vt 2 0
vt 1 0
vt -1 0.5
vt -1 0
vt -2 0
vt -2 1
vt -1 1
vn 0 -1 0
vn 0 -1 0
vn 0 -1 0
vn 0 -1 0
vn 0 0 -1
vn 0 0 -1
vn 0 0 -1
vn 0 0 -1
vn 1 0 0
vn 1 0 0
vn 1 0 0
vn 1 0 0
vn -1 0 0
vn -1 0 0
vn -1 0 0
vn -1 0 0
vn 0 0 1
vn 0 0 1
vn 0 0 1
vn 0 0 1
vn 0 0 1
vn 0 0 1
vn 0 0 1
vn 0 0 1
vn 0 0 1
vn 0 0 1
vn 0 0 1
vn 0 0 1
vn 0.8944272 -0.4472136 0
vn 0.8944272 -0.4472136 0
vn 0.8944272 -0.4472136 0
vn 0.8944272 -0.4472136 0
vn 0.8944272 -0.4472136 0
vn -0.8944272 -0.4472136 0
vn -0.8944272 -0.4472136 0
vn -0.8944272 -0.4472136 0
vn -0.8944272 -0.4472136 0
vn -0.8944272 -0.4472136 0
vn 0 -0.4472136 0.8944272
vn 0 -0.4472136 0.8944272
vn 0 -0.4472136 0.8944272
vn 0 -0.4472136 0.8944272
vn 0 -0.4472136 0.8944272
vn -1 0 0
vn -1 0 0
vn -1 0 0
vn -1 0 0
vn 0 0 -1
vn 0 0 -1
vn 0 0 -1
vn 0 0 -1
vn 0 0 -1
vn 0 0 -1
vn 0 0 -1
vn 0 0 -1
vn 1 0 0
vn 1 0 0
vn 1 0 0
vn 1 0 0
vn 0 -0.4472136 -0.8944272
vn 0 -0.4472136 -0.8944272
vn 0 -0.4472136 -0.8944272
vn 0 -0.4472136 -0.8944272
vn 0 -0.4472136 -0.8944272
vn -0.8944272 -0.4472136 0
vn -0.8944272 -0.4472136 0
vn 0 0 -1
vn 0 0 -1
vn 0 0 -1
vn 0 0 -1
vn 0 0 1
vn 0 0 1
vn 0 0 1
vn 0 0 1
vn 1 0 0
vn 1 0 0
vn 1 0 0
vn 1 0 0
vn 0 1 0
vn 0 1 0
vn 0 1 0
vn 0 1 0
vn -1 0 0
vn -1 0 0
vn -1 0 0
vn -1 0 0
vn 0 -0.4472136 -0.8944272
vn 0 -0.4472136 -0.8944272
vn 0 0 1
vn 0 0 1
vn 0 0 -1
vn 0 0 -1
vn 0 0 -1
vn 0 0 -1
vn 0.8944272 -0.4472136 0
vn 0.8944272 -0.4472136 0
vn 0 -0.4472136 0.8944272
vn 0 -0.4472136 0.8944272
vn -1 0 0
vn -1 0 0
vn -1 0 0
vn -1 0 0
vn 1 0 0
vn 1 0 0
vn 1 0 0
vn 1 0 0
vn 0 1 0
vn 0 1 0
vn 0 1 0
vn 0 1 0
vn 0 0 1
vn 0 0 1
vn 0 0 1
vn 0 0 1
vn 0 0 1
vn 0 0 1
vn 0 0 1
vn 0 0 1
vn 0 0 1
vn 0 0 1
vn -1 0 0
vn -1 0 0
vn -1 0 0
vn -1 0 0
vn -1 0 0
vn -1 0 0
vn -1 0 0
vn -1 0 0
vn -1 0 0
vn -1 0 0
vn -0.1162476 -0.3487429 -0.9299811
vn -0.7071068 -0.7071068 0
vn -0.1162476 -0.3487429 -0.9299811
vn 0 -0.2425356 -0.9701425
vn -0.1162476 -0.3487429 -0.9299811
vn -0.1162476 -0.3487429 -0.9299811
vn -0.3162278 -0.9486833 0
vn -0.3162278 -0.9486833 0
vn -0.3162278 -0.9486833 0
vn -0.3162278 -0.9486833 0
vn -1 0 0
vn -1 0 0
vn -0.3162278 -0.9486833 0
vn -0.3162278 -0.9486833 0
vn -0.1162476 -0.3487429 0.9299811
vn -0.1162476 -0.3487429 0.9299811
vn 0 0 1
vn -0.1162476 -0.3487429 0.9299811
vn -0.1162476 -0.3487429 0.9299811
vn 0 0 -1
vn 0 0 -1
vn 0 0 -1
vn 0 0 -1
vn 0 0 -1
vn 0 0 -1
vn 0 0 -1
vn 0 0 -1
vn 0 0 -1
vn 0 0 -1
vn 1 0 0
vn 1 0 0
vn 1 0 0
vn 1 0 0
vn 0.1162476 -0.3487429 0.9299811
vn 0.1162476 -0.3487429 0.9299811
vn 0 0 1
vn 0.1162476 -0.3487429 0.9299811
vn 0.3162278 -0.9486833 0
vn 0.1162476 -0.3487429 0.9299811
vn 0.3162278 -0.9486833 0
vn 0.3162278 -0.9486833 0
vn 0.3162278 -0.9486833 0
vn 1 0 0
vn 1 0 0
vn 1 0 0
vn 1 0 0
vn 0.3162278 -0.9486833 0
vn 0.3162278 -0.9486833 0
vn 0.1162476 -0.3487429 -0.9299811
vn 0.1162476 -0.3487429 -0.9299811
vn 0 -0.2425356 -0.9701425
vn 0.1162476 -0.3487429 -0.9299811
vn 0.7071068 -0.7071068 0
vn 0.1162476 -0.3487429 -0.9299811
vn 1 0 0
vn 1 0 0
vn 1 0 0
vn 1 0 0
vn 0 0 0
vn 0 1 0
vn 0 1 0
vn 0 1 0
vn 0 1 0
vn 0 1 0
vn 0 1 0
vn 0 0 0
vn 0 1 0
vn 0 1 0
vn 0 1 0
vn 0 1 0
vn 0 1 0
vn 0 0 0
vn 0 1 0
vn 0 1 0
vn 0 1 0
vn 0 1 0
vn 0 1 0
vn 0 1 0
vn 0 1 0
vn 0 1 0
vn 0 0 0
vn 0 1 0
vn 0 1 0
vn 0 1 0
vn 0 1 0
vn 0 1 0
vn 0 1 0
vn 0 1 0
vn 0 1 0
vn 0 1 0
vn 0 1 0
vn 0 1 0
g pb_Mesh781946_0
f 3/3/3 2/2/2 1/1/1
f 3/3/3 4/4/4 2/2/2
f 7/7/7 6/6/6 5/5/5
f 7/7/7 8/8/8 6/6/6
f 11/11/11 10/10/10 9/9/9
f 11/11/11 12/12/12 10/10/10
f 15/15/15 14/14/14 13/13/13
f 15/15/15 16/16/16 14/14/14
f 19/19/19 18/18/18 17/17/17
f 19/19/19 20/20/20 18/18/18
f 23/23/23 22/22/22 21/21/21
f 23/23/23 21/21/21 24/24/24
f 27/27/27 26/26/26 25/25/25
f 27/27/27 25/25/25 28/28/28
f 31/31/31 30/30/30 29/29/29
f 32/32/32 30/30/30 31/31/31
f 33/33/33 32/32/32 31/31/31
f 36/36/36 35/35/35 34/34/34
f 36/36/36 37/37/37 35/35/35
f 38/38/38 37/37/37 36/36/36
f 41/41/41 40/40/40 39/39/39
f 41/41/41 42/42/42 40/40/40
f 43/43/43 42/42/42 41/41/41
f 46/46/46 45/45/45 44/44/44
f 46/46/46 44/44/44 47/47/47
f 50/50/50 49/49/49 48/48/48
f 49/49/49 51/51/51 48/48/48
f 54/54/54 53/53/53 52/52/52
f 53/53/53 55/55/55 52/52/52
f 58/58/58 57/57/57 56/56/56
f 57/57/57 59/59/59 56/56/56
f 62/62/62 61/61/61 60/60/60
f 63/63/63 61/61/61 62/62/62
f 64/64/64 63/63/63 62/62/62
f 65/65/65 38/38/38 36/36/36
f 65/65/65 66/66/66 38/38/38
f 69/69/69 68/68/68 67/67/67
f 69/69/69 70/70/70 68/68/68
f 73/73/73 72/72/72 71/71/71
f 73/73/73 74/74/74 72/72/72
f 77/77/77 76/76/76 75/75/75
f 77/77/77 78/78/78 76/76/76
f 81/81/81 80/80/80 79/79/79
f 81/81/81 82/82/82 80/80/80
f 85/85/85 84/84/84 83/83/83
f 85/85/85 86/86/86 84/84/84
f 87/87/87 64/64/64 62/62/62
f 87/87/87 88/88/88 64/64/64
f 89/89/89 24/24/24 21/21/21
f 89/89/89 90/90/90 24/24/24
f 93/93/93 92/92/92 91/91/91
f 93/93/93 94/94/94 92/92/92
f 95/95/95 33/33/33 31/31/31
f 95/95/95 96/96/96 33/33/33
f 97/97/97 43/43/43 41/41/41
f 97/97/97 98/98/98 43/43/43
f 101/101/101 100/100/100 99/99/99
f 101/101/101 102/102/102 100/100/100
f 105/105/105 104/104/104 103/103/103
f 105/105/105 106/106/106 104/104/104
f 109/109/109 108/108/108 107/107/107
f 109/109/109 110/110/110 108/108/108
f 113/113/113 112/112/112 111/111/111
f 114/114/114 113/113/113 111/111/111
f 117/117/117 116/116/116 115/115/115
f 23/23/23 24/24/24 118/118/118
f 119/119/119 23/23/23 118/118/118
f 119/119/119 118/118/118 120/120/120
f 123/123/123 122/122/122 121/121/121
f 122/122/122 123/123/123 124/124/124
f 123/123/123 125/125/125 124/124/124
f 127/127/127 126/126/126 125/125/125
f 127/127/127 125/125/125 128/128/128
f 130/130/130 129/129/129 126/126/126
f 130/130/130 126/126/126 127/127/127
f 133/133/133 132/132/132 131/131/131
f 136/136/136 135/135/135 134/134/134
f 139/139/139 138/138/138 137/137/137
f 139/139/139 137/137/137 140/140/140
f 141/141/141 123/123/123 121/121/121
f 141/141/141 121/121/121 142/142/142
f 128/128/128 125/125/125 123/123/123
f 128/128/128 123/123/123 141/141/141
f 140/140/140 137/137/137 143/143/143
f 140/140/140 143/143/143 144/144/144
f 146/146/146 143/143/143 145/145/145
f 149/149/149 148/148/148 147/147/147
f 152/152/152 151/151/151 150/150/150
f 155/155/155 154/154/154 153/153/153
f 155/155/155 156/156/156 154/154/154
f 159/159/159 158/158/158 157/157/157
f 54/54/54 159/159/159 157/157/157
f 54/54/54 52/52/52 159/159/159
f 162/162/162 161/161/161 160/160/160
f 161/161/161 163/163/163 160/160/160
f 166/166/166 165/165/165 164/164/164
f 169/169/169 168/168/168 167/167/167
f 171/171/171 168/168/168 170/170/170
f 168/168/168 172/172/172 170/170/170
f 160/160/160 163/163/163 173/173/173
f 163/163/163 174/174/174 173/173/173
f 173/173/173 174/174/174 175/175/175
f 174/174/174 176/176/176 175/175/175
f 170/170/170 172/172/172 177/177/177
f 172/172/172 178/178/178 177/177/177
f 181/181/181 180/180/180 179/179/179
f 184/184/184 183/183/183 182/182/182
f 175/175/175 176/176/176 185/185/185
f 176/176/176 186/186/186 185/185/185
f 187/187/187 186/186/186 176/176/176
f 187/187/187 176/176/176 188/188/188
f 174/174/174 188/188/188 176/176/176
f 191/191/191 190/190/190 189/189/189
f 194/194/194 193/193/193 192/192/192
f 197/197/197 196/196/196 195/195/195
f 200/200/200 199/199/199 198/198/198
f 203/203/203 202/202/202 201/201/201
f 205/205/205 204/204/204 194/194/194
f 200/200/200 206/206/206 194/194/194
f 194/194/194 207/207/207 200/200/200
f 209/209/209 208/208/208 200/200/200
f 212/212/212 211/211/211 210/210/210
f 215/215/215 214/214/214 213/213/213
f 216/216/216 215/215/215 213/213/213
f 216/216/216 217/217/217 215/215/215
f 220/220/220 219/219/219 218/218/218
f 221/221/221 220/220/220 218/218/218
f 221/221/221 218/218/218 222/222/222
