g pb_Mesh385686
v 0 10 -10
v 0 10 0
v 0 0 0
v 0 0 -10
v 0 10 -10
v -10 10 -10
v -10 10 0
v 0 10 0
v 0 0 0
v -10 0 0
v -10 0 -10
v 0 0 -10
v -10 10 -10
v 0 10 -10
v -6 3 -10
v -4 3 -10
v 0 0 -10
v -4 0 -10
v 0 0 -10
v -10 0 -10
v -4 0 -10
v -10 0 -10
v -6 0 -10
v -4 0 -10
v -10 0 -10
v -6 0 -10
v -10 10 0
v -10 10 -10
v -10 3 -4
v -10 3 -6
v -10 0 -10
v -10 0 -6
v -10 0 -10
v -10 0 0
v -10 0 -6
v -10 0 0
v -10 0 -4
v -10 0 -6
v -10 0 0
v -10 0 -4
v 0 10 0
v -10 10 0
v -4 3 0
v -6 3 0
v -10 0 0
v -6 0 0
v -10 0 0
v 0 0 0
v -6 0 0
v 0 0 0
v -4 0 0
v -6 0 0
v 0 0 0
v -4 0 0
vt -10 10
vt 0 10
vt 0 0
vt -10 0
vt 0 -10
vt -10 -10
vt -10 0
vt 0 0
vt 0 0
vt 10 0
vt 10 -10
vt 0 -10
vt -10 10
vt 0 10
vt -6 3
vt -4 3
vt 0 0
vt -4 0
vt 0 0
vt 0 0
vt 0 0
vt 0 0
vt 0 0
vt 0 0
vt -10 0
vt -6 0
vt 0 10
vt 10 10
vt 4 3
vt 6 3
vt 10 0
vt 6 0
vt 0 0
vt 0 0
vt 0 0
vt 0 0
vt 0 0
vt 0 0
vt 0 0
vt 4 0
vt 0 10
vt 10 10
vt 4 3
vt 6 3
vt 10 0
vt 6 0
vt 0 0
vt 0 0
vt 0 0
vt 0 0
vt 0 0
vt 0 0
vt 0 0
vt 4 0
vn -1 0 0
vn -1 0 0
vn -1 0 0
vn -1 0 0
vn 0 -1 0
vn 0 -1 0
vn 0 -1 0
vn 0 -1 0
vn 0 1 0
vn 0 1 0
vn 0 1 0
vn 0 1 0
vn 0 0 1
vn 0 0 1
vn 0 0 1
vn 0 0 1
vn 0 0 1
vn 0 0 1
vn 0 0 0
vn 0 0 0
vn 0 0 0
vn 0 0 0
vn 0 0 0
vn 0 0 0
vn 0 0 1
vn 0 0 1
vn 1 0 0
vn 1 0 0
vn 1 0 0
vn 1 0 0
vn 1 0 0
vn 1 0 0
vn 0 0 0
vn 0 0 0
vn 0 0 0
vn 0 0 0
vn 0 0 0
vn 0 0 0
vn 1 0 0
vn 1 0 0
vn 0 0 -1
vn 0 0 -1
vn 0 0 -1
vn 0 0 -1
vn 0 0 -1
vn 0 0 -1
vn 0 0 0
vn 0 0 0
vn 0 0 0
vn 0 0 0
vn 0 0 0
vn 0 0 0
vn 0 0 -1
vn 0 0 -1
g pb_Mesh385686_0
f 3/3/3 2/2/2 1/1/1
f 4/4/4 3/3/3 1/1/1
f 7/7/7 6/6/6 5/5/5
f 8/8/8 7/7/7 5/5/5
f 11/11/11 10/10/10 9/9/9
f 12/12/12 11/11/11 9/9/9
f 15/15/15 14/14/14 13/13/13
f 15/15/15 16/16/16 14/14/14
f 16/16/16 17/17/17 14/14/14
f 16/16/16 18/18/18 17/17/17
f 21/21/21 20/20/20 19/19/19
f 24/24/24 23/23/23 22/22/22
f 26/26/26 13/13/13 25/25/25
f 26/26/26 15/15/15 13/13/13
f 29/29/29 28/28/28 27/27/27
f 29/29/29 30/30/30 28/28/28
f 30/30/30 31/31/31 28/28/28
f 30/30/30 32/32/32 31/31/31
f 35/35/35 34/34/34 33/33/33
f 38/38/38 37/37/37 36/36/36
f 40/40/40 27/27/27 39/39/39
f 40/40/40 29/29/29 27/27/27
f 43/43/43 42/42/42 41/41/41
f 43/43/43 44/44/44 42/42/42
f 44/44/44 45/45/45 42/42/42
f 44/44/44 46/46/46 45/45/45
f 49/49/49 48/48/48 47/47/47
f 52/52/52 51/51/51 50/50/50
f 54/54/54 41/41/41 53/53/53
f 54/54/54 43/43/43 41/41/41
