g pb_Mesh374780
v -3.999999 1 -7.000001
v -0.9999983 0 -7.000001
v -0.9999983 1 -7.000001
v -0.9999991 1 -2.980232E-07
v -0.9999991 0 -2.980232E-07
v -4 1 -6.556511E-07
v -0.9999987 0 -3.500001
v -0.9999987 -4.5 -3.5
v -0.9999989 0 -1.75
v -0.9999989 -4.5 -1.75
v -0.9999987 -9 -3.5
v -0.9999989 -9 -1.75
v -0.9999991 -4.5 -2.980232E-07
v -0.9999991 -9 -2.980232E-07
v -0.9999991 0 -2.980232E-07
v -0.9999985 0 -5.250001
v -0.9999985 -4.5 -5.250001
v -0.9999983 0 -7.000001
v -0.9999983 -4.5 -7.000001
v -0.9999985 -9 -5.250001
v -0.9999983 -9 -7.000001
v -0.9999985 -13.5 -5.250001
v -0.9999987 -18 -3.500001
v -0.9999987 -13.5 -3.5
v -0.9999985 -18 -5.250001
v -0.9999983 -13.5 -7.000001
v -0.9999983 -18 -7.000001
v -0.9999989 -13.5 -1.75
v -0.9999989 -18 -1.75
v -0.9999991 -13.5 -2.980232E-07
v -0.9999991 -18 -2.980232E-07
v -0.9999985 -18 -5.250001
v -0.9999983 -18 -7.000001
v -1.999998 -18 -7.000001
v -1.999999 -18 -3.500001
v -0.9999987 -18 -3.500001
v -0.9999989 -18 -1.75
v -1.999999 -18 -4.172325E-07
v -0.9999991 -18 -2.980232E-07
v -0.9999991 -4.5 -2.980232E-07
v -3.5 -3.75 -5.960464E-07
v -3.499999 -3.75 -7.000001
v -0.9999983 -4.5 -7.000001
v -2.999999 -8.5 -7.000001
v -0.9999983 -9 -7.000001
v -2.499999 -13.25 -7.000001
v -0.9999983 -13.5 -7.000001
v -1.999998 -18 -7.000001
v -0.9999983 -18 -7.000001
v -0.9999991 -13.5 -2.980232E-07
v -0.9999991 -18 -2.980232E-07
v -1.999999 -18 -4.172325E-07
v -2.5 -13.25 -4.768372E-07
v -0.9999991 -9 -2.980232E-07
v -3 -8.5 -5.364418E-07
v -0.9999991 1 -2.980232E-07
v -0.9999983 1 -7.000001
v -0.9999987 0 -3.500001
v -0.9999985 0 -5.250001
v -0.9999983 0 -7.000001
v -0.9999989 0 -1.75
v -0.9999991 0 -2.980232E-07
v -2.999999 -8.5 -3.500001
v -2.999999 -8.5 -7.000001
v -3.499999 -3.75 -7.000001
v -3.499999 -3.75 -3.500001
v -3.999999 1 -3.500001
v -3.999999 1 -7.000001
v -3.5 -3.75 -5.960464E-07
v -4 1 -6.556511E-07
v -3 -8.5 -5.364418E-07
v -1.999999 -18 -4.172325E-07
v -1.999999 -18 -3.500001
v -2.499999 -13.25 -3.500001
v -2.5 -13.25 -4.768372E-07
v -1.999998 -18 -7.000001
v -2.499999 -13.25 -7.000001
v -4 1 -6.556511E-07
v -3.999999 1 -3.500001
v -0.9999991 1 -2.980232E-07
v -3.999999 1 -7.000001
v -0.9999983 1 -7.000001
vt -4 0.9999999
vt -0.9999996 -6.940478E-08
vt -0.9999996 0.9999999
vt -0.9999991 1
vt -0.9999991 2.040038E-22
vt -4 1
vt 12.5 -14
vt 12.5 -15
vt 12.00781 -14
vt 12.00781 -15
vt 12.5 -16
vt 12.00781 -16
vt 11.51562 -15
vt 11.51562 -16
vt 11.51562 -14
vt 12.99219 -14
vt 12.99219 -15
vt 13.48437 -14
vt 13.48437 -15
vt 12.99219 -16
vt 13.48437 -16
vt 12.99219 -17
vt 12.5 -18
vt 12.5 -17
vt 12.99219 -18
vt 13.48437 -17
vt 13.48437 -18
vt 12.00781 -17
vt 12.00781 -18
vt 11.51562 -17
vt 11.51562 -18
vt -0.9999985 -5.250001
vt -0.9999983 -7.000001
vt -1.999998 -7.000001
vt -1.999999 -3.500001
vt -0.9999987 -3.500001
vt -0.9999989 -1.75
vt -1.999999 -4.172325E-07
vt -0.9999991 -2.980232E-07
vt -0.9999991 -4.5
vt -3.5 -3.75
vt -3.5 -3.75
vt -0.9999996 -4.5
vt -3 -8.5
vt -0.9999996 -9
vt -2.5 -13.25
vt -0.9999996 -13.5
vt -2 -18
vt -0.9999996 -18
vt -0.9999991 -13.5
vt -0.9999991 -18
vt -1.999999 -18
vt -2.5 -13.25
vt -0.9999991 -9
vt -3 -8.5
vt 5.960464E-07 3
vt 3.5 3
vt 1.75 2.5
vt 2.625 2.5
vt 3.5 2.5
vt 0.8750004 2.5
vt 5.960464E-07 2.5
vt -6.082996 -8
vt -6.821278 -8
vt -6.821278 -6.998047
vt -6.082996 -6.998047
vt -6.082996 -5.996094
vt -6.821278 -5.996094
vt -5.344715 -6.998047
vt -5.344715 -5.996094
vt -5.344715 -8
vt -5.344715 -10.00391
vt -6.082996 -10.00391
vt -6.082996 -9.001953
vt -5.344715 -9.001953
vt -6.821278 -10.00391
vt -6.821278 -9.001953
vt 2.687499 -3.062501
vt 2.687499 -3.500001
vt 2.312499 -3.062501
vt 2.687499 -3.937501
vt 2.312499 -3.937501
vn 1.589457E-07 0 -1
vn 1.589457E-07 0 -1
vn 1.589457E-07 0 -1
vn -1.192093E-07 0 1
vn -1.192093E-07 0 1
vn -1.192093E-07 0 1
vn 0.9999999 7.218211E-15 1.362392E-07
vn 1 6.622741E-09 1.192093E-07
vn 1 6.622741E-09 1.192093E-07
vn 1 1.324548E-08 1.021794E-07
vn 1 -6.622737E-09 1.192093E-07
vn 1 -1.324547E-08 1.362392E-07
vn 1 -6.622737E-09 1.192093E-07
vn 1 0 1.021794E-07
vn 0.9999999 0 1.021794E-07
vn 0.9999999 0 1.362392E-07
vn 1 3.609105E-15 1.362392E-07
vn 1 0 1.021794E-07
vn 1 0 1.021794E-07
vn 1 0 1.021794E-07
vn 1 0 1.021794E-07
vn 1 6.622736E-09 1.192093E-07
vn 1 6.622736E-09 1.192093E-07
vn 0.9999999 -3.609105E-15 1.021794E-07
vn 0.9999999 1.324548E-08 1.362392E-07
vn 1 0 1.362392E-07
vn 1 0 1.021794E-07
vn 1 6.622737E-09 1.192093E-07
vn 1 -6.622741E-09 1.192093E-07
vn 0.9999999 -6.622737E-09 1.192093E-07
vn 0.9999999 0 1.021794E-07
vn 0 -1 0
vn 0 -1 0
vn 0 -0.9999999 0
vn 0 -1 0
vn 0 -1 0
vn 0 -1 0
vn 0 -1 0
vn 0 -1 0
vn -1.192093E-07 0 1
vn -1.192093E-07 2.273736E-15 1
vn 1.828964E-07 1.306403E-08 -1
vn 2.065043E-07 7.509246E-09 -1
vn 2.243939E-07 1.602814E-08 -0.9999999
vn 2.622604E-07 9.536742E-09 -1
vn 2.902487E-07 2.073205E-08 -1
vn 3.592608E-07 1.306404E-08 -1
vn 3.835429E-07 2.073206E-08 -1
vn 4.768372E-07 0 -1
vn -1.192093E-07 -7.786768E-16 1
vn -1.192093E-07 0 1
vn -1.192093E-07 -1.235726E-15 1
vn -1.192093E-07 6.178631E-16 1
vn -1.192093E-07 1.136868E-15 1
vn -1.192093E-07 9.553514E-16 1
vn 1 -9.934128E-09 1.192093E-07
vn 1 9.93408E-09 1.192093E-07
vn 1 -2.706829E-14 1.248859E-07
vn 1 2.98023E-08 1.192093E-07
vn 1 0 1.021794E-07
vn 1 -2.980232E-08 1.192093E-07
vn 1 0 1.021794E-07
vn -0.9945054 -0.1046848 -1.354906E-07
vn -0.9945054 -0.1046848 -1.354906E-07
vn -0.9945054 -0.1046848 -1.354906E-07
vn -0.9945054 -0.1046848 -1.354906E-07
vn -0.9945054 -0.1046848 -1.390561E-07
vn -0.9945054 -0.1046848 -1.426217E-07
vn -0.9945054 -0.1046848 -1.354906E-07
vn -0.9945054 -0.1046848 -1.354906E-07
vn -0.9945055 -0.1046848 -1.354906E-07
vn -0.9945054 -0.1046848 -1.354906E-07
vn -0.9945054 -0.1046848 -1.354906E-07
vn -0.9945054 -0.1046848 -1.354906E-07
vn -0.9945054 -0.1046848 -1.354906E-07
vn -0.9945054 -0.1046848 -1.354906E-07
vn -0.9945054 -0.1046848 -1.354906E-07
vn 0 1 0
vn 0 0.9999999 0
vn 0 0.9999999 0
vn 0 0.9999999 0
vn 0 1 0
g pb_Mesh374780_0
f 3/3/3 2/2/2 1/1/1
f 6/6/6 5/5/5 4/4/4
f 9/9/9 8/8/8 7/7/7
f 9/9/9 10/10/10 8/8/8
f 11/11/11 8/8/8 10/10/10
f 11/11/11 10/10/10 12/12/12
f 13/13/13 12/12/12 10/10/10
f 13/13/13 14/14/14 12/12/12
f 15/15/15 13/13/13 9/9/9
f 13/13/13 10/10/10 9/9/9
f 17/17/17 16/16/16 7/7/7
f 17/17/17 7/7/7 8/8/8
f 16/16/16 17/17/17 18/18/18
f 17/17/17 19/19/19 18/18/18
f 17/17/17 20/20/20 19/19/19
f 20/20/20 21/21/21 19/19/19
f 20/20/20 17/17/17 8/8/8
f 11/11/11 20/20/20 8/8/8
f 24/24/24 23/23/23 22/22/22
f 23/23/23 25/25/25 22/22/22
f 11/11/11 24/24/24 20/20/20
f 24/24/24 22/22/22 20/20/20
f 20/20/20 22/22/22 21/21/21
f 22/22/22 26/26/26 21/21/21
f 22/22/22 25/25/25 26/26/26
f 25/25/25 27/27/27 26/26/26
f 12/12/12 28/28/28 11/11/11
f 28/28/28 24/24/24 11/11/11
f 29/29/29 23/23/23 24/24/24
f 28/28/28 29/29/29 24/24/24
f 29/29/29 28/28/28 30/30/30
f 31/31/31 29/29/29 30/30/30
f 30/30/30 28/28/28 12/12/12
f 14/14/14 30/30/30 12/12/12
f 34/34/34 33/33/33 32/32/32
f 35/35/35 34/34/34 32/32/32
f 35/35/35 32/32/32 36/36/36
f 35/35/35 36/36/36 37/37/37
f 38/38/38 35/35/35 37/37/37
f 38/38/38 37/37/37 39/39/39
f 41/41/41 40/40/40 5/5/5
f 6/6/6 41/41/41 5/5/5
f 2/2/2 42/42/42 1/1/1
f 2/2/2 43/43/43 42/42/42
f 43/43/43 44/44/44 42/42/42
f 43/43/43 45/45/45 44/44/44
f 45/45/45 46/46/46 44/44/44
f 45/45/45 47/47/47 46/46/46
f 47/47/47 48/48/48 46/46/46
f 47/47/47 49/49/49 48/48/48
f 52/52/52 51/51/51 50/50/50
f 53/53/53 52/52/52 50/50/50
f 53/53/53 50/50/50 54/54/54
f 55/55/55 53/53/53 54/54/54
f 55/55/55 54/54/54 40/40/40
f 41/41/41 55/55/55 40/40/40
g pb_Mesh374780_1
f 58/58/58 57/57/57 56/56/56
f 58/58/58 59/59/59 57/57/57
f 59/59/59 60/60/60 57/57/57
f 56/56/56 61/61/61 58/58/58
f 56/56/56 62/62/62 61/61/61
f 65/65/65 64/64/64 63/63/63
f 65/65/65 63/63/63 66/66/66
f 67/67/67 65/65/65 66/66/66
f 67/67/67 68/68/68 65/65/65
f 67/67/67 66/66/66 69/69/69
f 67/67/67 69/69/69 70/70/70
f 66/66/66 71/71/71 69/69/69
f 66/66/66 63/63/63 71/71/71
f 74/74/74 73/73/73 72/72/72
f 74/74/74 72/72/72 75/75/75
f 63/63/63 74/74/74 75/75/75
f 63/63/63 75/75/75 71/71/71
f 77/77/77 76/76/76 73/73/73
f 77/77/77 73/73/73 74/74/74
f 64/64/64 77/77/77 74/74/74
f 64/64/64 74/74/74 63/63/63
g pb_Mesh374780_2
f 80/80/80 79/79/79 78/78/78
f 82/82/82 81/81/81 79/79/79
f 80/80/80 82/82/82 79/79/79
