g pb_Mesh1276100
v -1.000005 -67.01447 0
v -1.000001 1.161354 0
v -0.7071123 -67.01447 0.7071068
v -0.7071084 1.161354 0.7071068
v -0.7071123 -67.01447 0.7071068
v -0.7071084 1.161354 0.7071068
v -5.947846E-06 -67.01447 1
v -2.034031E-06 1.161354 1
v -5.947846E-06 -67.01447 1
v -2.034031E-06 1.161354 1
v 0.7071013 -67.01447 0.7071068
v 0.7071051 1.161354 0.7071068
v 0.7071013 -67.01447 0.7071068
v 0.7071051 1.161354 0.7071068
v 0.9999945 -67.01447 -8.742278E-08
v 0.9999983 1.161354 -8.742278E-08
v 0.9999945 -67.01447 -8.742278E-08
v 0.9999983 1.161354 -8.742278E-08
v 0.7071013 -67.01447 -0.7071067
v 0.7071052 1.161354 -0.7071067
v 0.7071013 -67.01447 -0.7071067
v 0.7071052 1.161354 -0.7071067
v -6.003483E-06 -67.01447 -1
v -2.089668E-06 1.161354 -1
v -6.003483E-06 -67.01447 -1
v -2.089668E-06 1.161354 -1
v -0.7071121 -67.01447 -0.7071069
v -0.7071083 1.161354 -0.7071069
v -0.7071121 -67.01447 -0.7071069
v -0.7071083 1.161354 -0.7071069
v -1.000005 -67.01447 0
v -1.000001 1.161354 0
v -0.7071123 -67.01447 0.7071068
v -5.991557E-06 -67.01447 0
v -1.000005 -67.01447 0
v -5.947846E-06 -67.01447 1
v 0.7071013 -67.01447 0.7071068
v 0.9999945 -67.01447 -8.742278E-08
v 0.7071013 -67.01447 -0.7071067
v -6.003483E-06 -67.01447 -1
v -0.7071121 -67.01447 -0.7071069
v -1.000001 1.161354 0
v -2.077743E-06 1.161354 0
v -0.7071084 1.161354 0.7071068
v -2.034031E-06 1.161354 1
v 0.7071051 1.161354 0.7071068
v 0.9999983 1.161354 -8.742278E-08
v 0.7071052 1.161354 -0.7071067
v -2.089668E-06 1.161354 -1
v -0.7071083 1.161354 -0.7071069
vt -0.3826847 -67.01447
vt -0.3826831 1.161354
vt 0.382682 -67.01447
vt 0.3826834 1.161354
vt -0.3826883 -67.01447
vt -0.3826847 1.161354
vt 0.3826782 -67.01447
vt 0.3826818 1.161354
vt -0.3826887 -67.01447
vt -0.3826851 1.161354
vt 0.3826786 -67.01447
vt 0.3826821 1.161354
vt -0.3826855 -67.01447
vt -0.3826841 1.161354
vt 0.3826814 -67.01447
vt 0.3826829 1.161354
vt -0.3826813 -67.01447
vt -0.3826827 1.161354
vt 0.3826855 -67.01447
vt 0.382684 1.161354
vt -0.3826786 -67.01447
vt -0.3826821 1.161354
vt 0.3826888 -67.01447
vt 0.3826852 1.161354
vt -0.3826781 -67.01447
vt -0.3826817 1.161354
vt 0.3826882 -67.01447
vt 0.3826846 1.161354
vt -0.3826821 -67.01447
vt -0.3826835 1.161354
vt 0.3826848 -67.01447
vt 0.3826832 1.161354
vt -0.7071123 0.7071068
vt -5.991557E-06 0
vt -1.000005 0
vt -5.947846E-06 1
vt 0.7071013 0.7071068
vt 0.9999945 -8.742278E-08
vt 0.7071013 -0.7071067
vt -6.003483E-06 -1
vt -0.7071121 -0.7071069
vt 1.000001 0
vt 2.077743E-06 0
vt 0.7071084 0.7071068
vt 2.034031E-06 1
vt -0.7071051 0.7071068
vt -0.9999983 -8.742278E-08
vt -0.7071052 -0.7071067
vt 2.089668E-06 -1
vt 0.7071083 -0.7071069
vn -0.9238797 5.533009E-08 5.960464E-08
vn -0.9238799 5.532943E-08 4.470348E-08
vn -0.6532817 3.776382E-08 0.653281
vn -0.6532818 3.669501E-08 0.6532809
vn -0.6532817 3.776382E-08 0.653281
vn -0.6532818 3.669501E-08 0.6532809
vn -2.086163E-07 -1.34003E-10 0.9238795
vn -1.788139E-07 1.478746E-10 0.9238796
vn -2.086163E-07 -1.34003E-10 0.9238795
vn -1.788139E-07 1.478746E-10 0.9238796
vn 0.6532815 -3.669405E-08 0.6532816
vn 0.6532815 -3.655497E-08 0.6532816
vn 0.6532815 -3.669405E-08 0.6532816
vn 0.6532815 -3.655497E-08 0.6532816
vn 0.9238795 -5.16932E-08 0
vn 0.9238795 -5.169044E-08 0
vn 0.9238795 -5.16932E-08 0
vn 0.9238795 -5.169044E-08 0
vn 0.6532814 -3.65522E-08 -0.6532816
vn 0.6532814 -3.676639E-08 -0.6532815
vn 0.6532814 -3.65522E-08 -0.6532816
vn 0.6532814 -3.676639E-08 -0.6532815
vn -1.937151E-07 6.263345E-11 -0.9238795
vn -1.341105E-07 -2.906386E-10 -0.9238795
vn -1.937151E-07 6.263345E-11 -0.9238795
vn -1.341105E-07 -2.906386E-10 -0.9238795
vn -0.6532817 3.669408E-08 -0.6532812
vn -0.6532817 3.776868E-08 -0.6532811
vn -0.6532817 3.669408E-08 -0.6532812
vn -0.6532817 3.776868E-08 -0.6532811
vn -0.9238797 5.533009E-08 5.960464E-08
vn -0.9238799 5.532943E-08 4.470348E-08
vn 0 -0.9999999 0
vn 0 -0.9999999 0
vn 0 -0.9999999 0
vn 0 -0.9999999 0
vn 0 -0.9999999 0
vn 0 -0.9999999 0
vn 0 -0.9999999 0
vn 0 -0.9999999 0
vn 0 -0.9999999 0
vn 0 0.9999999 0
vn 0 0.9999999 0
vn 0 0.9999999 0
vn 0 0.9999999 0
vn 0 0.9999999 0
vn 0 0.9999999 0
vn 0 0.9999999 0
vn 0 0.9999999 0
vn 0 0.9999999 0
g pb_Mesh1276100_0
f 3/3/3 2/2/2 1/1/1
f 3/3/3 4/4/4 2/2/2
f 7/7/7 6/6/6 5/5/5
f 7/7/7 8/8/8 6/6/6
f 11/11/11 10/10/10 9/9/9
f 11/11/11 12/12/12 10/10/10
f 15/15/15 14/14/14 13/13/13
f 15/15/15 16/16/16 14/14/14
f 19/19/19 18/18/18 17/17/17
f 19/19/19 20/20/20 18/18/18
f 23/23/23 22/22/22 21/21/21
f 23/23/23 24/24/24 22/22/22
f 27/27/27 26/26/26 25/25/25
f 27/27/27 28/28/28 26/26/26
f 31/31/31 30/30/30 29/29/29
f 31/31/31 32/32/32 30/30/30
f 35/35/35 34/34/34 33/33/33
f 33/33/33 34/34/34 36/36/36
f 36/36/36 34/34/34 37/37/37
f 37/37/37 34/34/34 38/38/38
f 38/38/38 34/34/34 39/39/39
f 39/39/39 34/34/34 40/40/40
f 40/40/40 34/34/34 41/41/41
f 41/41/41 34/34/34 35/35/35
f 44/44/44 43/43/43 42/42/42
f 45/45/45 43/43/43 44/44/44
f 46/46/46 43/43/43 45/45/45
f 47/47/47 43/43/43 46/46/46
f 48/48/48 43/43/43 47/47/47
f 49/49/49 43/43/43 48/48/48
f 50/50/50 43/43/43 49/49/49
f 42/42/42 43/43/43 50/50/50
