g pb_Mesh213996
v 2.5 -1 0
v -3.5 -1 0
v 2.5 1 0
v -3.5 1 0
v -3.5 -1 0
v -2.5 0 -6
v -3.5 1 0
v -2.5 1 -6
v -2.5 0 -6
v 1.5 0 -6
v -2.5 1 -6
v 1.5 1 -6
v 1.5 0 -6
v 2.5 -1 0
v 1.5 1 -6
v 2.5 1 0
v 1.5 0 -6
v -2.5 0 -6
v 2.5 -1 0
v -3.5 -1 0
v 2.5 1 0
v -3.5 1 0
v 1.5 1 -6
v -2.5 1 -6
vt -0.125 -0.125
vt -0.875 -0.125
vt -0.125 0.125
vt -0.875 0.125
vt 0.005172729 -6.5
vt -1 -6.5
vt 0.005172729 -6
vt -1 -6
vt 0 -5.5
vt -0.5 -5.5
vt 0 -5
vt -0.5 -5
vt 1.502586 -6.5
vt 0.4974134 -6.5
vt 1.502587 -6
vt 0.4974135 -6
vt -0.5 -6.5
vt -2.980232E-08 -6.5
vt -0.5 -7
vt -2.980232E-08 -7
vt 0.125 -2.625
vt 0.875 -2.625
vt 0.25 -3.375
vt 0.75 -3.375
vn 0 0 1
vn 0 0 1
vn 0 0 1
vn 0 0 1
vn -0.9863939 0 -0.164399
vn -0.986394 0 -0.164399
vn -0.986394 0 -0.164399
vn -0.9863939 0 -0.164399
vn 0 0 -1
vn 0 0 -1
vn 0 0 -1
vn 0 0 -1
vn 0.9863939 0 -0.164399
vn 0.986394 0 -0.164399
vn 0.986394 0 -0.164399
vn 0.9863939 0 -0.164399
vn 0 -0.9863939 -0.164399
vn 0 -0.9863939 -0.164399
vn 0 -0.9863939 -0.164399
vn 0 -0.986394 -0.164399
vn 0 1 0
vn 0 1 0
vn 0 1 0
vn 0 1 0
g pb_Mesh213996_0
f 3/3/3 2/2/2 1/1/1
f 3/3/3 4/4/4 2/2/2
g pb_Mesh213996_1
f 7/7/7 6/6/6 5/5/5
f 7/7/7 8/8/8 6/6/6
f 11/11/11 10/10/10 9/9/9
f 11/11/11 12/12/12 10/10/10
f 15/15/15 14/14/14 13/13/13
f 15/15/15 16/16/16 14/14/14
f 19/19/19 18/18/18 17/17/17
f 19/19/19 20/20/20 18/18/18
g pb_Mesh213996_2
f 23/23/23 22/22/22 21/21/21
f 23/23/23 24/24/24 22/22/22
