g pb_Mesh223744
v -5 1 0
v -4 1 -2
v 1 1 0
v 3 1 -5
v 3 1 -3
v 3 -1 -3
v 3 0 -5
v -4 0 -2
v 1 -1 0
v -5 0 0
v 3 0 -5
v 3 -1 -3
v 7 0 -5
v 7 -1 -3
v 7 1 -3
v 7 1 -5
v 3 1 -5
v 3 0 -5
v 7 1 -5
v 7 0 -5
v -5 1 0
v -4 0 -2
v -4 1 -2
v -5 0 0
v -4 1 -2
v 3 0 -5
v 3 1 -5
v -4 0 -2
vt 2 -1.875
vt 1.75 -2.375
vt 0.5 -1.875
vt 0 -3.125
vt 0 -2.625
vt 9.027266 -6.292327
vt 9.027266 -6.836403
vt 7.246249 -6.170973
vt 8.480537 -5.581525
vt 6.96405 -5.694079
vt 13.75501 -8.002834
vt 13.75501 -7.443818
vt 14.75501 -8.002834
vt 14.75501 -7.443818
vt -1 -2.625
vt -1 -3.125
vt -3 5
vt -3.000001 4.5
vt -5 5
vt -5 4.5
vt 2 5
vt 1.003482 4.5
vt 1.003483 5
vt 2 4.5
vt 1.003483 5
vt -3.000001 4.5
vt -3 5
vt 1.003482 4.5
vn 0 1 0
vn 0 1 0
vn 0 1 0
vn 0 1 0
vn 0 1 0
vn -0.1727737 -0.9502552 -0.2591605
vn -0.1882368 -0.8784382 -0.4392191
vn -0.1709886 -0.9618107 -0.2137357
vn -0.1585107 -0.982766 -0.09510639
vn -0.1638464 -0.9830784 -0.08192319
vn 0 -0.8944272 -0.4472136
vn 0 -0.8944272 -0.4472136
vn 0 -0.8944272 -0.4472136
vn 0 -0.8944272 -0.4472136
vn 0 1 0
vn 0 1 0
vn 0 0 -1
vn 0 0 -1
vn 0 0 -1
vn 0 0 -1
vn -0.8944272 0 -0.4472136
vn -0.8944272 0 -0.4472136
vn -0.8944272 0 -0.4472136
vn -0.8944272 0 -0.4472136
vn -0.3939193 0 -0.919145
vn -0.3939193 0 -0.919145
vn -0.3939193 0 -0.919145
vn -0.3939193 0 -0.919145
g pb_Mesh223744_0
f 3/3/3 2/2/2 1/1/1
f 2/2/2 5/5/5 4/4/4
f 3/3/3 5/5/5 2/2/2
f 8/8/8 7/7/7 6/6/6
f 9/9/9 8/8/8 6/6/6
f 10/10/10 8/8/8 9/9/9
f 13/13/13 12/12/12 11/11/11
f 13/13/13 14/14/14 12/12/12
f 15/15/15 4/4/4 5/5/5
f 15/15/15 16/16/16 4/4/4
g pb_Mesh223744_1
f 19/19/19 18/18/18 17/17/17
f 19/19/19 20/20/20 18/18/18
f 23/23/23 22/22/22 21/21/21
f 22/22/22 24/24/24 21/21/21
f 27/27/27 26/26/26 25/25/25
f 26/26/26 28/28/28 25/25/25
