g pb_Mesh1272198
v -16 -77 45
v -16 -77 33.75
v -16 -56.25 33.75
v -16 -56.25 45
v -16 -77 22.5
v -16 -56.25 22.5
v -16 -33 22.5
v -16 -33 34
v -16 -33 45
v -16 -77 11.25
v -16 -56.25 11.25
v -16 -77 0
v -16 -56.25 0
v -16 -33 0
v -16 -33 11
v -16 -14.75 11.25
v -16 -14.75 22.5
v -16 -14.75 0
v -16 6 0
v -16 6 11.25
v -16 6 22.5
v -16 -14.75 33.75
v -16 -14.75 45
v -16 6 33.75
v -16 6 45
v -16 -77 -11.25
v -16 -56.25 -11.25
v -16 -77 -22.5
v -16 -56.25 -22.5
v -16 -33 -22.5
v -16 -33 -11
v -16 -77 -33.75
v -16 -56.25 -33.75
v -16 -77 -45
v -16 -56.25 -45
v -16 -33 -45
v -16 -33 -34
v -16 -14.75 -33.75
v -16 -14.75 -22.5
v -16 -14.75 -45
v -16 6 -45
v -16 6 -33.75
v -16 6 -22.5
v -16 -14.75 -11.25
v -16 6 -11.25
v -16 26.75 -11.25
v -16 26.75 0
v -16 26.75 -22.5
v -16 47.5 -22.5
v -16 47.5 -11.25
v -16 47.5 0
v -16 26.75 -33.75
v -16 26.75 -45
v -16 47.5 -45
v -16 47.5 -33.75
v -16 68.25 -33.75
v -16 68.25 -22.5
v -16 68.25 -45
v -16 89 -45
v -16 89 -33.75
v -16 89 -22.5
v -16 68 -15
v -16 68 -3.5
v -16 89 -11.25
v -16 89 0
v -16 26.75 33.75
v -16 26.75 45
v -16 26.75 22.5
v -16 47.5 22.5
v -16 47.5 33.75
v -16 47.5 45
v -16 26.75 11.25
v -16 47.5 11.25
v -16 68.25 11.25
v -16 68.25 22.5
v -16 89 11.25
v -16 89 22.5
v -16 68.25 33.75
v -16 68.25 45
v -16 89 33.75
v -16 89 45
v -15 -35.5 -23
v -15 -77 0
v -15 -35.5 0
v -15 -77 -23
v -15 6 -23
v -15 6 0
v -15 6 -46
v -15 -35.5 -46
v -15 -77 -46
v -15 -35.5 23
v -15 -77 46
v -15 -35.5 46
v -15 -77 23
v -15 6 23
v -15 6 46
v -15 47.5 23
v -15 47.5 46
v -15 89 23
v -15 89 46
v -15 89 0
v -15 47.5 0
v -15 47.5 -23
v -15 89 -23
v -15 89 -46
v -15 47.5 -46
v -15 -77 46
v -16 -77 45
v -16 -56.25 45
v -15 -35.5 46
v -16 -33 45
v -16 -14.75 45
v -15 6 46
v -16 6 45
v -16 26.75 45
v -15 47.5 46
v -16 47.5 45
v -16 68.25 45
v -15 89 46
v -16 89 45
v -15 89 -46
v -16 89 -45
v -16 68.25 -45
v -15 47.5 -46
v -16 47.5 -45
v -16 26.75 -45
v -15 6 -46
v -16 6 -45
v -16 -14.75 -45
v -15 -35.5 -46
v -16 -33 -45
v -16 -56.25 -45
v -15 -77 -46
v -16 -77 -45
v -16 89 -33.75
v -16 89 -45
v -15 89 -46
v -15 89 -23
v -16 89 -22.5
v -16 89 -11.25
v -15 89 0
v -16 89 0
v -16 89 11.25
v -15 89 23
v -16 89 22.5
v -16 89 33.75
v -15 89 46
v -16 89 45
v -16 -77 45
v -15 -77 46
v -16 -77 33.75
v -15 -77 23
v -16 -77 22.5
v -16 -77 11.25
v -15 -77 0
v -16 -77 0
v -16 -77 -11.25
v -15 -77 -23
v -16 -77 -22.5
v -16 -77 -33.75
v -15 -77 -46
v -16 -77 -45
vt 5.625 -4.375
vt 4.21875 -4.375
vt 4.21875 -1.78125
vt 5.625 -1.78125
vt 2.8125 -4.375
vt 2.8125 -1.78125
vt 2.8125 1.125
vt 4.25 1.125
vt 5.625 1.125
vt 1.40625 -4.375
vt 1.40625 -1.78125
vt 0 -4.375
vt 0 -1.78125
vt 0 1.125
vt 1.375 1.125
vt 1.40625 3.40625
vt 2.8125 3.40625
vt 0 3.40625
vt 0 6
vt 1.40625 6
vt 2.8125 6
vt 4.21875 3.40625
vt 5.625 3.40625
vt 4.21875 6
vt 5.625 6
vt -1.40625 -4.375
vt -1.40625 -1.78125
vt -2.8125 -4.375
vt -2.8125 -1.78125
vt -2.8125 1.125
vt -1.375 1.125
vt -4.21875 -4.375
vt -4.21875 -1.78125
vt -5.625 -4.375
vt -5.625 -1.78125
vt -5.625 1.125
vt -4.25 1.125
vt -4.21875 3.40625
vt -2.8125 3.40625
vt -5.625 3.40625
vt -5.625 6
vt -4.21875 6
vt -2.8125 6
vt -1.40625 3.40625
vt -1.40625 6
vt -1.40625 8.59375
vt 0 8.59375
vt -2.8125 8.59375
vt -2.8125 11.1875
vt -1.40625 11.1875
vt 0 11.1875
vt -4.21875 8.59375
vt -5.625 8.59375
vt -5.625 11.1875
vt -4.21875 11.1875
vt -4.21875 13.78125
vt -2.8125 13.78125
vt -5.625 13.78125
vt -5.625 16.375
vt -4.21875 16.375
vt -2.8125 16.375
vt -1.875 13.75
vt -0.4375 13.75
vt -1.40625 16.375
vt 0 16.375
vt 4.21875 8.59375
vt 5.625 8.59375
vt 2.8125 8.59375
vt 2.8125 11.1875
vt 4.21875 11.1875
vt 5.625 11.1875
vt 1.40625 8.59375
vt 1.40625 11.1875
vt 1.40625 13.78125
vt 2.8125 13.78125
vt 1.40625 16.375
vt 2.8125 16.375
vt 4.21875 13.78125
vt 5.625 13.78125
vt 4.21875 16.375
vt 5.625 16.375
vt -0.9975 3.40625
vt 0.44 0.8125
vt 0.44 3.40625
vt -0.9975 0.8125
vt -0.9975 6
vt 0.44 6
vt -2.435 6
vt -2.435 3.40625
vt -2.435 0.8125
vt 1.8775 3.40625
vt 3.315 0.8125
vt 3.315 3.40625
vt 1.8775 0.8125
vt 1.8775 6
vt 3.315 6
vt 1.8775 8.59375
vt 3.315 8.59375
vt 1.8775 11.1875
vt 3.315 11.1875
vt 0.44 11.1875
vt 0.44 8.59375
vt -0.9975 8.59375
vt -0.9975 11.1875
vt -2.435 11.1875
vt -2.435 8.59375
vt 21.92031 -77
vt 20.50609 -77
vt 20.50609 -56.25
vt 21.92031 -35.5
vt 20.50609 -33
vt 20.50609 -14.75
vt 21.92031 6
vt 20.50609 6
vt 20.50609 26.75
vt 21.92031 47.5
vt 20.50609 47.5
vt 20.50609 68.25
vt 21.92031 89
vt 20.50609 89
vt -21.30159 16.375
vt -21.12481 16.375
vt -21.12481 13.78125
vt -21.30159 11.1875
vt -21.12481 11.1875
vt -21.12481 8.59375
vt -21.30159 6
vt -21.12481 6
vt -21.12481 3.40625
vt -21.30159 0.8125
vt -21.12481 1.125
vt -21.12481 -1.78125
vt -21.30159 -4.375
vt -21.12481 -4.375
vt 15.5625 -4.21875
vt 15.5625 -5.625
vt 15.4375 -5.75
vt 15.4375 -2.875
vt 15.5625 -2.8125
vt 15.5625 -1.40625
vt 15.4375 0
vt 15.5625 0
vt 15.5625 1.40625
vt 15.4375 2.875
vt 15.5625 2.8125
vt 15.5625 4.21875
vt 15.4375 5.75
vt 15.5625 5.625
vt -16 45
vt -15 46
vt -16 33.75
vt -15 23
vt -16 22.5
vt -16 11.25
vt -15 0
vt -16 0
vt -16 -11.25
vt -15 -23
vt -16 -22.5
vt -16 -33.75
vt -15 -46
vt -16 -45
vn -0.9999999 0 0
vn -0.9999999 0 0
vn -0.9999999 0 0
vn -0.9999999 0 0
vn -0.9999999 0 0
vn -0.9999999 0 0
vn -1 0 0
vn -1 0 0
vn -1 0 0
vn -0.9999999 0 0
vn -0.9999999 0 0
vn -0.9999999 0 0
vn -0.9999999 0 0
vn -1 0 0
vn -1 0 0
vn -1 0 0
vn -1 0 0
vn -1 0 0
vn -0.9999999 0 0
vn -0.9999999 0 0
vn -0.9999999 0 0
vn -1 0 0
vn -1 0 0
vn -0.9999999 0 0
vn -0.9999999 0 0
vn -0.9999999 0 0
vn -0.9999999 0 0
vn -0.9999999 0 0
vn -0.9999999 0 0
vn -1 0 0
vn -1 0 0
vn -0.9999999 0 0
vn -0.9999999 0 0
vn -0.9999999 0 0
vn -0.9999999 0 0
vn -1 0 0
vn -1 0 0
vn -1 0 0
vn -1 0 0
vn -1 0 0
vn -0.9999999 0 0
vn -0.9999999 0 0
vn -0.9999999 0 0
vn -1 0 0
vn -0.9999999 0 0
vn -0.9999999 0 0
vn -0.9999999 0 0
vn -0.9999999 0 0
vn -0.9999999 0 0
vn -0.9999999 0 0
vn -0.9999999 0 0
vn -0.9999999 0 0
vn -0.9999999 0 0
vn -0.9999999 0 0
vn -0.9999999 0 0
vn -0.9999999 0 0
vn -0.9999999 0 0
vn -0.9999999 0 0
vn -0.9999999 0 0
vn -0.9999999 0 0
vn -0.9999999 0 0
vn -1 0 0
vn -1 0 0
vn -1 0 0
vn -1 0 0
vn -0.9999999 0 0
vn -0.9999999 0 0
vn -0.9999999 0 0
vn -0.9999999 0 0
vn -0.9999999 0 0
vn -0.9999999 0 0
vn -0.9999999 0 0
vn -0.9999999 0 0
vn -0.9999999 0 0
vn -0.9999999 0 0
vn -0.9999999 0 0
vn -0.9999999 0 0
vn -0.9999999 0 0
vn -0.9999999 0 0
vn -0.9999999 0 0
vn -0.9999999 0 0
vn 1 0 0
vn 1 0 0
vn 1 0 0
vn 1 0 0
vn 1 0 0
vn 1 0 0
vn 1 0 0
vn 1 0 0
vn 1 0 0
vn 1 0 0
vn 1 0 0
vn 1 0 0
vn 1 0 0
vn 1 0 0
vn 1 0 0
vn 1 0 0
vn 1 0 0
vn 1 0 0
vn 1 0 0
vn 1 0 0
vn 1 0 0
vn 1 0 0
vn 1 0 0
vn 1 0 0
vn 1 0 0
vn -0.7071068 0 0.7071068
vn -0.7071068 0 0.7071068
vn -0.7071068 0 0.7071068
vn -0.7071068 0 0.7071068
vn -0.7071068 0 0.7071068
vn -0.7071068 0 0.7071068
vn -0.7071068 0 0.7071068
vn -0.7071068 0 0.7071068
vn -0.7071068 0 0.7071068
vn -0.7071068 0 0.7071068
vn -0.7071068 0 0.7071068
vn -0.7071068 0 0.7071068
vn -0.7071068 0 0.7071068
vn -0.7071068 0 0.7071068
vn -0.7071068 0 -0.7071068
vn -0.7071068 0 -0.7071068
vn -0.7071068 0 -0.7071068
vn -0.7071068 0 -0.7071068
vn -0.7071068 0 -0.7071068
vn -0.7071068 0 -0.7071068
vn -0.7071068 0 -0.7071068
vn -0.7071068 0 -0.7071068
vn -0.7071068 0 -0.7071068
vn -0.7071068 0 -0.7071068
vn -0.7071068 0 -0.7071068
vn -0.7071068 0 -0.7071068
vn -0.7071068 0 -0.7071068
vn -0.7071068 0 -0.7071068
vn 0 1 0
vn 0 1 0
vn 0 1 0
vn 0 1 0
vn 0 1 0
vn 0 1 0
vn 0 1 0
vn 0 1 0
vn 0 1 0
vn 0 1 0
vn 0 1 0
vn 0 1 0
vn 0 1 0
vn 0 1 0
vn 0 -1 0
vn 0 -1 0
vn 0 -1 0
vn 0 -1 0
vn 0 -1 0
vn 0 -1 0
vn 0 -1 0
vn 0 -1 0
vn 0 -1 0
vn 0 -1 0
vn 0 -1 0
vn 0 -1 0
vn 0 -1 0
vn 0 -1 0
g pb_Mesh1272198_0
f 3/3/3 2/2/2 1/1/1
f 3/3/3 1/1/1 4/4/4
f 6/6/6 5/5/5 2/2/2
f 6/6/6 2/2/2 3/3/3
f 7/7/7 6/6/6 3/3/3
f 7/7/7 3/3/3 8/8/8
f 8/8/8 3/3/3 4/4/4
f 8/8/8 4/4/4 9/9/9
f 11/11/11 10/10/10 5/5/5
f 11/11/11 5/5/5 6/6/6
f 13/13/13 12/12/12 10/10/10
f 13/13/13 10/10/10 11/11/11
f 14/14/14 13/13/13 11/11/11
f 14/14/14 11/11/11 15/15/15
f 15/15/15 11/11/11 6/6/6
f 15/15/15 6/6/6 7/7/7
f 16/16/16 15/15/15 7/7/7
f 16/16/16 7/7/7 17/17/17
f 18/18/18 14/14/14 15/15/15
f 18/18/18 15/15/15 16/16/16
f 19/19/19 18/18/18 16/16/16
f 19/19/19 16/16/16 20/20/20
f 20/20/20 16/16/16 17/17/17
f 20/20/20 17/17/17 21/21/21
f 22/22/22 8/8/8 9/9/9
f 22/22/22 9/9/9 23/23/23
f 17/17/17 7/7/7 8/8/8
f 17/17/17 8/8/8 22/22/22
f 21/21/21 17/17/17 22/22/22
f 21/21/21 22/22/22 24/24/24
f 24/24/24 22/22/22 23/23/23
f 24/24/24 23/23/23 25/25/25
f 27/27/27 26/26/26 12/12/12
f 27/27/27 12/12/12 13/13/13
f 29/29/29 28/28/28 26/26/26
f 29/29/29 26/26/26 27/27/27
f 30/30/30 29/29/29 27/27/27
f 30/30/30 27/27/27 31/31/31
f 31/31/31 27/27/27 13/13/13
f 31/31/31 13/13/13 14/14/14
f 33/33/33 32/32/32 28/28/28
f 33/33/33 28/28/28 29/29/29
f 35/35/35 34/34/34 32/32/32
f 35/35/35 32/32/32 33/33/33
f 36/36/36 35/35/35 33/33/33
f 36/36/36 33/33/33 37/37/37
f 37/37/37 33/33/33 29/29/29
f 37/37/37 29/29/29 30/30/30
f 38/38/38 37/37/37 30/30/30
f 38/38/38 30/30/30 39/39/39
f 40/40/40 36/36/36 37/37/37
f 40/40/40 37/37/37 38/38/38
f 41/41/41 40/40/40 38/38/38
f 41/41/41 38/38/38 42/42/42
f 42/42/42 38/38/38 39/39/39
f 42/42/42 39/39/39 43/43/43
f 44/44/44 31/31/31 14/14/14
f 44/44/44 14/14/14 18/18/18
f 39/39/39 30/30/30 31/31/31
f 39/39/39 31/31/31 44/44/44
f 43/43/43 39/39/39 44/44/44
f 43/43/43 44/44/44 45/45/45
f 45/45/45 44/44/44 18/18/18
f 45/45/45 18/18/18 19/19/19
f 46/46/46 45/45/45 19/19/19
f 46/46/46 19/19/19 47/47/47
f 48/48/48 43/43/43 45/45/45
f 48/48/48 45/45/45 46/46/46
f 49/49/49 48/48/48 46/46/46
f 49/49/49 46/46/46 50/50/50
f 50/50/50 46/46/46 47/47/47
f 50/50/50 47/47/47 51/51/51
f 52/52/52 42/42/42 43/43/43
f 52/52/52 43/43/43 48/48/48
f 53/53/53 41/41/41 42/42/42
f 53/53/53 42/42/42 52/52/52
f 54/54/54 53/53/53 52/52/52
f 54/54/54 52/52/52 55/55/55
f 55/55/55 52/52/52 48/48/48
f 55/55/55 48/48/48 49/49/49
f 56/56/56 55/55/55 49/49/49
f 56/56/56 49/49/49 57/57/57
f 58/58/58 54/54/54 55/55/55
f 58/58/58 55/55/55 56/56/56
f 59/59/59 58/58/58 56/56/56
f 59/59/59 56/56/56 60/60/60
f 60/60/60 56/56/56 57/57/57
f 60/60/60 57/57/57 61/61/61
f 62/62/62 50/50/50 51/51/51
f 62/62/62 51/51/51 63/63/63
f 57/57/57 49/49/49 50/50/50
f 57/57/57 50/50/50 62/62/62
f 61/61/61 57/57/57 62/62/62
f 61/61/61 62/62/62 64/64/64
f 64/64/64 62/62/62 63/63/63
f 64/64/64 63/63/63 65/65/65
f 66/66/66 24/24/24 25/25/25
f 66/66/66 25/25/25 67/67/67
f 68/68/68 21/21/21 24/24/24
f 68/68/68 24/24/24 66/66/66
f 69/69/69 68/68/68 66/66/66
f 69/69/69 66/66/66 70/70/70
f 70/70/70 66/66/66 67/67/67
f 70/70/70 67/67/67 71/71/71
f 72/72/72 20/20/20 21/21/21
f 72/72/72 21/21/21 68/68/68
f 47/47/47 19/19/19 20/20/20
f 47/47/47 20/20/20 72/72/72
f 51/51/51 47/47/47 72/72/72
f 51/51/51 72/72/72 73/73/73
f 73/73/73 72/72/72 68/68/68
f 73/73/73 68/68/68 69/69/69
f 74/74/74 73/73/73 69/69/69
f 74/74/74 69/69/69 75/75/75
f 63/63/63 51/51/51 73/73/73
f 63/63/63 73/73/73 74/74/74
f 65/65/65 63/63/63 74/74/74
f 65/65/65 74/74/74 76/76/76
f 76/76/76 74/74/74 75/75/75
f 76/76/76 75/75/75 77/77/77
f 78/78/78 70/70/70 71/71/71
f 78/78/78 71/71/71 79/79/79
f 75/75/75 69/69/69 70/70/70
f 75/75/75 70/70/70 78/78/78
f 77/77/77 75/75/75 78/78/78
f 77/77/77 78/78/78 80/80/80
f 80/80/80 78/78/78 79/79/79
f 80/80/80 79/79/79 81/81/81
g pb_Mesh1272198_1
f 84/84/84 83/83/83 82/82/82
f 83/83/83 85/85/85 82/82/82
f 87/87/87 84/84/84 86/86/86
f 84/84/84 82/82/82 86/86/86
f 86/86/86 82/82/82 88/88/88
f 82/82/82 89/89/89 88/88/88
f 82/82/82 85/85/85 89/89/89
f 85/85/85 90/90/90 89/89/89
f 93/93/93 92/92/92 91/91/91
f 92/92/92 94/94/94 91/91/91
f 96/96/96 93/93/93 95/95/95
f 93/93/93 91/91/91 95/95/95
f 95/95/95 91/91/91 87/87/87
f 91/91/91 84/84/84 87/87/87
f 91/91/91 94/94/94 84/84/84
f 94/94/94 83/83/83 84/84/84
f 98/98/98 96/96/96 97/97/97
f 96/96/96 95/95/95 97/97/97
f 100/100/100 98/98/98 99/99/99
f 98/98/98 97/97/97 99/99/99
f 99/99/99 97/97/97 101/101/101
f 97/97/97 102/102/102 101/101/101
f 97/97/97 95/95/95 102/102/102
f 95/95/95 87/87/87 102/102/102
f 102/102/102 87/87/87 103/103/103
f 87/87/87 86/86/86 103/103/103
f 101/101/101 102/102/102 104/104/104
f 102/102/102 103/103/103 104/104/104
f 104/104/104 103/103/103 105/105/105
f 103/103/103 106/106/106 105/105/105
f 103/103/103 86/86/86 106/106/106
f 86/86/86 88/88/88 106/106/106
g pb_Mesh1272198_2
f 109/109/109 108/108/108 107/107/107
f 110/110/110 109/109/109 107/107/107
f 110/110/110 111/111/111 109/109/109
f 112/112/112 111/111/111 110/110/110
f 113/113/113 112/112/112 110/110/110
f 113/113/113 114/114/114 112/112/112
f 115/115/115 114/114/114 113/113/113
f 116/116/116 115/115/115 113/113/113
f 116/116/116 117/117/117 115/115/115
f 118/118/118 117/117/117 116/116/116
f 119/119/119 118/118/118 116/116/116
f 119/119/119 120/120/120 118/118/118
f 123/123/123 122/122/122 121/121/121
f 124/124/124 123/123/123 121/121/121
f 124/124/124 125/125/125 123/123/123
f 126/126/126 125/125/125 124/124/124
f 127/127/127 126/126/126 124/124/124
f 127/127/127 128/128/128 126/126/126
f 129/129/129 128/128/128 127/127/127
f 130/130/130 129/129/129 127/127/127
f 130/130/130 131/131/131 129/129/129
f 132/132/132 131/131/131 130/130/130
f 133/133/133 132/132/132 130/130/130
f 133/133/133 134/134/134 132/132/132
g pb_Mesh1272198_3
f 137/137/137 136/136/136 135/135/135
f 138/138/138 137/137/137 135/135/135
f 138/138/138 135/135/135 139/139/139
f 138/138/138 139/139/139 140/140/140
f 141/141/141 138/138/138 140/140/140
f 141/141/141 140/140/140 142/142/142
f 141/141/141 142/142/142 143/143/143
f 144/144/144 141/141/141 143/143/143
f 145/145/145 144/144/144 143/143/143
f 144/144/144 145/145/145 146/146/146
f 147/147/147 144/144/144 146/146/146
f 148/148/148 147/147/147 146/146/146
g pb_Mesh1272198_4
f 151/151/151 150/150/150 149/149/149
f 151/151/151 152/152/152 150/150/150
f 151/151/151 153/153/153 152/152/152
f 154/154/154 152/152/152 153/153/153
f 154/154/154 155/155/155 152/152/152
f 154/154/154 156/156/156 155/155/155
f 156/156/156 157/157/157 155/155/155
f 157/157/157 158/158/158 155/155/155
f 157/157/157 159/159/159 158/158/158
f 159/159/159 160/160/160 158/158/158
f 160/160/160 161/161/161 158/158/158
f 160/160/160 162/162/162 161/161/161
