g pb_Mesh1139166
v 0 0 0
v -1 0 0
v 0 3 0
v -1 3 0
v -3 0 0
v -4 0 0
v -3 3 0
v -4 3 0
v -1 0 -1
v 0 0 -1
v -1 3 -1
v 0 3 -1
v -4 0 -1
v -3 0 -1
v -4 3 -1
v -3 3 -1
v -3 3 0
v -1 3 0
v -3 3 -1
v -1 3 -1
v -3 0 -1
v -3 0 0
v -3 3 -1
v -3 3 0
v -1 0 0
v -1 0 -1
v -1 3 0
v -1 3 -1
v -3 4 -1
v -1 4 -1
v 0 4 -1
v -4 4 -1
v -3 4 0
v -4 4 0
v -1 4 0
v 0 4 0
v 0 4 0
v -1 4 0
v 0 7 0
v -1 7 0
v -3 4 0
v -4 4 0
v -3 7 0
v -4 7 0
v -1 4 0
v -3 4 0
v -1 7 0
v -3 7 0
v -1 4 -1
v 0 4 -1
v -1 7 -1
v 0 7 -1
v -4 4 -1
v -3 4 -1
v -4 7 -1
v -3 7 -1
v -3 4 -1
v -1 4 -1
v -3 7 -1
v -1 7 -1
v -3 4 -1
v -4 4 -1
v -3 7 -1
v -4 7 -1
v 0 3 -1
v 0 4 -1
v 0 4 -1
v 0 4 -1
v 0 7 -1
v 0 4 -1
v -1 4 -1
v -3 4 -1
v -1 7 -1
v -3 7 -1
v 0 4 -1
v -1 4 -1
v 0 7 -1
v -1 7 -1
v -4 4 -1
v -4 3 -1
v -4 7 -1
v -4 3 -1
v -4 4 -1
v -4 7 -1
v -3 4 0
v -1 4 0
v -3 7 0
v -1 7 0
v -4 3 0
v -4 4 0
v -4 4 0
v -4 4 0
v -4 7 0
v -4 4 0
v -4 4 0
v -3 4 0
v -4 7 0
v -3 7 0
v -1 4 0
v 0 4 0
v -1 7 0
v 0 7 0
v 0 4 0
v 0 3 0
v 0 7 0
v 0 3 0
v 0 4 0
v 0 7 0
vt 0 0.28
vt -1 0.28
vt 0 3.28
vt -1 3.28
vt -3 0.28
vt -4 0.28
vt -3 3.28
vt -4 3.28
vt 1 0.28
vt 0 0.28
vt 1 3.28
vt 0 3.28
vt 4 0.28
vt 3 0.28
vt 4 3.28
vt 3 3.28
vt -3 0.28
vt -1 0.28
vt -3 -0.72
vt -1 -0.72
vt 1 0.28
vt 0 0.28
vt 1 3.28
vt 0 3.28
vt 0 0.28
vt -1 0.28
vt 0 3.28
vt -1 3.28
vt 3 4.28
vt 1 4.28
vt 0 4.28
vt 4 4.28
vt -3 4.28
vt -4 4.28
vt -1 4.28
vt 0 4.28
vt -0.4375 5.5925
vt -0.5625 5.5925
vt -0.4375 5.9675
vt -0.5625 5.9675
vt -3.4375 5.5925
vt -3.5625 5.5925
vt -3.4375 5.9675
vt -3.5625 5.9675
vt -1.875 5.5925
vt -2.125 5.5925
vt -1.875 5.9675
vt -2.125 5.9675
vt 0.5625 5.5925
vt 0.4375 5.5925
vt 0.5625 5.9675
vt 0.4375 5.9675
vt 3.5625 5.5925
vt 3.4375 5.5925
vt 3.5625 5.9675
vt 3.4375 5.9675
vt 2.125 5.5925
vt 1.875 5.5925
vt 2.125 5.9675
vt 1.875 5.9675
vt -3.4375 5.5925
vt -3.5625 5.5925
vt -3.4375 5.9675
vt -3.5625 5.9675
vt 0 0.28
vt 0 0.28
vt 0 0.28
vt 0 0.28
vt 0 0.28
vt 0 0.28
vt -1.875 5.5925
vt -2.125 5.5925
vt -1.875 5.9675
vt -2.125 5.9675
vt -0.4375 5.5925
vt -0.5625 5.5925
vt -0.4375 5.9675
vt -0.5625 5.9675
vt 0 0.28
vt 0 0.28
vt 0 0.28
vt 0 0.28
vt 0 0.28
vt 0 0.28
vt 2.125 5.5925
vt 1.875 5.5925
vt 2.125 5.9675
vt 1.875 5.9675
vt 0 0.28
vt 0 0.28
vt 0 0.28
vt 0 0.28
vt 0 0.28
vt 0 0.28
vt 3.5625 5.5925
vt 3.4375 5.5925
vt 3.5625 5.9675
vt 3.4375 5.9675
vt 0.5625 5.5925
vt 0.4375 5.5925
vt 0.5625 5.9675
vt 0.4375 5.9675
vt 0 0.28
vt 0 0.28
vt 0 0.28
vt 0 0.28
vt 0 0.28
vt 0 0.28
vn 0 0 1
vn 0 0 1
vn 0 0 1
vn 0 0 1
vn 0 0 1
vn 0 0 1
vn 0 0 1
vn 0 0 1
vn 0 0 -1
vn 0 0 -1
vn 0 0 -1
vn 0 0 -1
vn 0 0 -1
vn 0 0 -1
vn 0 0 -1
vn 0 0 -1
vn 0 -1 0
vn 0 -1 0
vn 0 -1 0
vn 0 -1 0
vn 1 0 0
vn 1 0 0
vn 1 0 0
vn 1 0 0
vn -1 0 0
vn -1 0 0
vn -1 0 0
vn -1 0 0
vn 0 0 -1
vn 0 0 -1
vn 0 0 -1
vn 0 0 -1
vn 0 0 1
vn 0 0 1
vn 0 0 1
vn 0 0 1
vn 0 0 1
vn 0 0 1
vn 0 0 1
vn 0 0 1
vn 0 0 1
vn 0 0 1
vn 0 0 1
vn 0 0 1
vn 0 0 1
vn 0 0 1
vn 0 0 1
vn 0 0 1
vn 0 0 -1
vn 0 0 -1
vn 0 0 -1
vn 0 0 -1
vn 0 0 -1
vn 0 0 -1
vn 0 0 -1
vn 0 0 -1
vn 0 0 -1
vn 0 0 -1
vn 0 0 -1
vn 0 0 -1
vn 0 0 1
vn 0 0 1
vn 0 0 1
vn 0 0 1
vn 0 0 0
vn 0 0 0
vn 0 0 0
vn 0 0 0
vn 0 0 0
vn 0 0 0
vn 0 0 1
vn 0 0 1
vn 0 0 1
vn 0 0 1
vn 0 0 1
vn 0 0 1
vn 0 0 1
vn 0 0 1
vn 0 0 0
vn 0 0 0
vn 0 0 0
vn 0 0 0
vn 0 0 0
vn 0 0 0
vn 0 0 -1
vn 0 0 -1
vn 0 0 -1
vn 0 0 -1
vn 0 0 0
vn 0 0 0
vn 0 0 0
vn 0 0 0
vn 0 0 0
vn 0 0 0
vn 0 0 -1
vn 0 0 -1
vn 0 0 -1
vn 0 0 -1
vn 0 0 -1
vn 0 0 -1
vn 0 0 -1
vn 0 0 -1
vn 0 0 0
vn 0 0 0
vn 0 0 0
vn 0 0 0
vn 0 0 0
vn 0 0 0
g pb_Mesh1139166_0
f 3/3/3 2/2/2 1/1/1
f 3/3/3 4/4/4 2/2/2
f 7/7/7 6/6/6 5/5/5
f 7/7/7 8/8/8 6/6/6
f 11/11/11 10/10/10 9/9/9
f 11/11/11 12/12/12 10/10/10
f 15/15/15 14/14/14 13/13/13
f 15/15/15 16/16/16 14/14/14
f 19/19/19 18/18/18 17/17/17
f 19/19/19 20/20/20 18/18/18
f 23/23/23 22/22/22 21/21/21
f 23/23/23 24/24/24 22/22/22
f 27/27/27 26/26/26 25/25/25
f 27/27/27 28/28/28 26/26/26
f 29/29/29 11/11/11 16/16/16
f 29/29/29 30/30/30 11/11/11
f 30/30/30 12/12/12 11/11/11
f 30/30/30 31/31/31 12/12/12
f 32/32/32 16/16/16 15/15/15
f 32/32/32 29/29/29 16/16/16
f 33/33/33 8/8/8 7/7/7
f 33/33/33 34/34/34 8/8/8
f 35/35/35 7/7/7 4/4/4
f 35/35/35 33/33/33 7/7/7
f 36/36/36 4/4/4 3/3/3
f 36/36/36 35/35/35 4/4/4
g pb_Mesh1139166_1
f 39/39/39 38/38/38 37/37/37
f 39/39/39 40/40/40 38/38/38
f 43/43/43 42/42/42 41/41/41
f 43/43/43 44/44/44 42/42/42
f 47/47/47 46/46/46 45/45/45
f 47/47/47 48/48/48 46/46/46
f 51/51/51 50/50/50 49/49/49
f 51/51/51 52/52/52 50/50/50
f 55/55/55 54/54/54 53/53/53
f 55/55/55 56/56/56 54/54/54
f 59/59/59 58/58/58 57/57/57
f 59/59/59 60/60/60 58/58/58
f 63/63/63 62/62/62 61/61/61
f 63/63/63 64/64/64 62/62/62
f 67/67/67 66/66/66 65/65/65
f 70/70/70 69/69/69 68/68/68
f 73/73/73 72/72/72 71/71/71
f 73/73/73 74/74/74 72/72/72
f 77/77/77 76/76/76 75/75/75
f 77/77/77 78/78/78 76/76/76
f 81/81/81 80/80/80 79/79/79
f 84/84/84 83/83/83 82/82/82
f 87/87/87 86/86/86 85/85/85
f 87/87/87 88/88/88 86/86/86
f 91/91/91 90/90/90 89/89/89
f 94/94/94 93/93/93 92/92/92
f 97/97/97 96/96/96 95/95/95
f 97/97/97 98/98/98 96/96/96
f 101/101/101 100/100/100 99/99/99
f 101/101/101 102/102/102 100/100/100
f 105/105/105 104/104/104 103/103/103
f 108/108/108 107/107/107 106/106/106
