g pb_Mesh221390
v -2.500004 0.5 -4.500003
v -5.500004 0.5 -7.000003
v -5.500004 1 -7.000003
v -2.500004 1 -4.500003
v -5.500004 0.5 -7.000003
v -6 0.5 -7
v -6 1 -7
v -5.500004 1 -7.000003
v 0.4999964 1 -7.000004
v 1 0.5 -7
v 1 1 -7
v 0.4999964 0.5 -7.000004
v -2.500002 1 -9.500002
v 0.4999964 0.5 -7.000004
v 0.4999964 1 -7.000004
v -2.500002 0.5 -9.500002
v -6 0.5 -7
v -6.000005 0.5 -12
v -6.000005 1 -12
v -6 1 -7
v -6.000005 0.5 -12
v -5.500005 0.5 -12
v -5.500005 1 -12
v -6.000005 1 -12
v -6 0.5 -7
v -5.500004 0.5 -7.000003
v -6.000005 0.5 -12
v -5.500005 0.5 -12
v -2.500004 0.5 -4.500003
v -2.500002 0.5 -9.500002
v 0.4999964 0.5 -7.000004
v 1 1 -7
v 0.9999971 0.5 -2.000003
v 0.9999971 1 -2.000003
v 1 0.5 -7
v 0.9999971 1 -2.000003
v 0.499997 0.5 -2.000003
v 0.499997 1 -2.000003
v 0.9999971 0.5 -2.000003
v 0.499997 0.5 -2.000003
v 0.9999971 0.5 -2.000003
v 1 0.5 -7
vt -4.729261 0.5
vt -8.631701 0.5
vt -8.631701 1
vt -4.729261 1
vt -8.631701 0.5
vt -9.02741 0.5
vt -9.02741 1
vt -8.631701 1
vt -3.883142 1
vt -3.487423 0.5
vt -3.487423 1
vt -3.883142 0.5
vt -7.78558 1
vt -3.883142 0.5
vt -3.883142 1
vt -7.78558 0.5
vt -6.796232 0.5
vt -11.79346 0.5
vt -11.79346 1
vt -6.796232 1
vt -11.79346 0.5
vt -11.81012 0.5
vt -11.81012 1
vt -11.79346 1
vt 6 -7
vt 5.500004 -7.000003
vt 6.000005 -12
vt 5.500005 -12
vt 2.500004 -4.500003
vt 2.500002 -9.500002
vt -0.4999964 -7.000004
vt -7.02943 1
vt -2.032208 0.5
vt -2.032208 1
vt -7.02943 0.5
vt -2.032208 1
vt -2.015551 0.5
vt -2.015551 1
vt -2.032208 0.5
vt -0.499997 -2.000003
vt -0.9999971 -2.000003
vt -1 -7
vn -0.6401843 0 0.7682213
vn -0.6401843 0 0.7682213
vn -0.6401843 0 0.7682213
vn -0.6401843 0 0.7682213
vn 6.675778E-06 0 1
vn 6.675778E-06 0 1
vn 6.675778E-06 0 1
vn 6.675778E-06 0 1
vn 7.62934E-06 0 -1
vn 7.62934E-06 0 -1
vn 7.62934E-06 0 -1
vn 7.62934E-06 0 -1
vn 0.6401843 0 -0.7682214
vn 0.6401843 0 -0.7682214
vn 0.6401843 0 -0.7682214
vn 0.6401843 0 -0.7682214
vn -1 0 9.536736E-07
vn -1 0 9.536736E-07
vn -1 0 9.536736E-07
vn -1 0 9.536736E-07
vn 0 0 -1
vn 0 0 -1
vn 0 0 -1
vn 0 0 -1
vn 0 -1 0
vn 0 -1 0
vn 0 -1 0
vn 0 -1 0
vn 0 -1 0
vn 0 -1 0
vn 0 -1 0
vn 1 0 5.841259E-07
vn 1 0 5.841259E-07
vn 1 0 5.841259E-07
vn 1 0 5.841259E-07
vn 0 0 1
vn 0 0 1
vn 0 0 1
vn 0 0 1
vn 0 -0.9999999 0
vn 0 -0.9999999 0
vn 0 -1 0
g pb_Mesh221390_0
f 3/3/3 2/2/2 1/1/1
f 3/3/3 1/1/1 4/4/4
f 7/7/7 6/6/6 5/5/5
f 7/7/7 5/5/5 8/8/8
f 11/11/11 10/10/10 9/9/9
f 10/10/10 12/12/12 9/9/9
f 15/15/15 14/14/14 13/13/13
f 14/14/14 16/16/16 13/13/13
f 19/19/19 18/18/18 17/17/17
f 19/19/19 17/17/17 20/20/20
f 23/23/23 22/22/22 21/21/21
f 23/23/23 21/21/21 24/24/24
f 27/27/27 26/26/26 25/25/25
f 28/28/28 26/26/26 27/27/27
f 26/26/26 30/30/30 29/29/29
f 26/26/26 28/28/28 30/30/30
f 29/29/29 30/30/30 31/31/31
f 34/34/34 33/33/33 32/32/32
f 33/33/33 35/35/35 32/32/32
f 38/38/38 37/37/37 36/36/36
f 37/37/37 39/39/39 36/36/36
f 29/29/29 31/31/31 40/40/40
f 42/42/42 41/41/41 40/40/40
f 42/42/42 40/40/40 31/31/31
