g pb_Mesh22960
v 0.005 0.02874977 0.09999985
v 0.005 -0.03125023 0.09999985
v -0.005 -0.03125023 0.09999985
v -0.005 0.02874977 0.09999985
v -0.005 0.02874977 -0.1000002
v -0.005 -0.03125023 -0.1000002
v 0.005 -0.03125023 -0.1000002
v 0.005 0.02874977 -0.1000002
v -0.005 -0.03125023 0.09999985
v -0.005 -0.03125023 0.04999985
v -0.005 0.02874977 0.04999985
v -0.005 0.02874977 0.09999985
v -0.005 -0.03125023 -1.527369E-07
v -0.005 0.02874977 -1.527369E-07
v 0.005 0.02874977 0.04999985
v 0.005 -0.03125023 0.09999985
v 0.005 0.02874977 0.09999985
v 0.005 -0.03125023 0.04999985
v 0.005 0.02874977 -1.527369E-07
v 0.005 -0.03125023 -1.527369E-07
v -0.005 0.02874977 -1.527369E-07
v 0.005 0.02874977 -1.527369E-07
v -0.005 0.02874977 0.04999985
v 0.005 0.02874977 0.04999985
v -0.005 0.02874977 0.09999985
v 0.005 0.02874977 0.09999985
v -0.005 -0.03125023 0.04999985
v 0.005 -0.03125023 0.04999985
v 0.005 -0.03125023 -1.527369E-07
v -0.005 -0.03125023 -1.527369E-07
v -0.005 -0.03125023 0.09999985
v 0.005 -0.03125023 0.09999985
v -0.005 -0.03125023 -0.05000015
v -0.005 0.02874977 -0.05000015
v -0.005 -0.03125023 -0.1000002
v -0.005 0.02874977 -0.1000002
v 0.005 0.02874977 -0.05000015
v 0.005 -0.03125023 -0.05000015
v 0.005 0.02874977 -0.1000002
v 0.005 -0.03125023 -0.1000002
v -0.005 0.02874977 -0.1000002
v 0.005 0.02874977 -0.1000002
v -0.005 0.02874977 -0.05000015
v 0.005 0.02874977 -0.05000015
v -0.005 -0.03125023 -0.05000015
v 0.005 -0.03125023 -0.05000015
v 0.005 -0.03125023 -0.1000002
v -0.005 -0.03125023 -0.1000002
vt 0.4499999 0.45
vt 0.45 0.05000001
vt 0.05000016 0.05000001
vt 0.05000001 0.45
vt 1.788139E-07 0
vt 0 0.5
vt 0.4999998 0.5
vt 0.5 0
vt 0.01000001 0.009999976
vt 0.01000007 0.13
vt 0.4899998 0.13
vt 0.4899998 0.009999976
vt 0.01000013 0.25
vt 0.4899999 0.25
vt 0.25 1
vt 0 0.5
vt 5.960464E-08 1
vt 0.25 0.5
vt 0.5 1
vt 0.5 0.5
vt 0.00700029 0.25
vt 0.4929997 0.25
vt 0.007000435 0.1285
vt 0.4929998 0.1285
vt 0.00700058 0.006999999
vt 0.493 0.006999999
vt 0.4899994 0.13
vt 0.01000021 0.13
vt 0.01000042 0.25
vt 0.4899996 0.25
vt 0.4899992 0.009999976
vt 0.01000001 0.009999976
vt 0.0100002 0.3699999
vt 0.4899999 0.3699999
vt 0.01000026 0.4899999
vt 0.49 0.4899999
vt 0.75 1
vt 0.7499999 0.5
vt 1 0.9999999
vt 0.9999999 0.5
vt 0.006999999 0.493
vt 0.4929994 0.493
vt 0.007000145 0.3715
vt 0.4929995 0.3715
vt 0.4899998 0.3699999
vt 0.01000062 0.3699999
vt 0.01000082 0.4899999
vt 0.49 0.4899999
vn 0 0 1
vn 0 0 1
vn 0 0 1
vn 0 0 1
vn 0 0 -1
vn 0 0 -1
vn 0 0 -1
vn 0 0 -1
vn -1 0 0
vn -1 0 0
vn -1 0 0
vn -1 0 0
vn -0.9999999 0 0
vn -0.9999999 0 0
vn 1 0 0
vn 1 0 0
vn 1 0 0
vn 1 0 0
vn 0.9999999 0 0
vn 0.9999999 0 0
vn 0 1 0
vn 0 1 0
vn 0 1 0
vn 0 1 0
vn 0 1 0
vn 0 1 0
vn 0 -1 0
vn 0 -1 0
vn 0 -1 0
vn 0 -1 0
vn 0 -1 0
vn 0 -1 0
vn -0.9999999 0 0
vn -0.9999999 0 0
vn -1 0 0
vn -1 0 0
vn 0.9999999 0 0
vn 0.9999999 0 0
vn 1 0 0
vn 1 0 0
vn 0 1 0
vn 0 1 0
vn 0 1 0
vn 0 1 0
vn 0 -1 0
vn 0 -1 0
vn 0 -1 0
vn 0 -1 0
g pb_Mesh22960_0
f 3/3/3 2/2/2 1/1/1
f 4/4/4 3/3/3 1/1/1
f 7/7/7 6/6/6 5/5/5
f 8/8/8 7/7/7 5/5/5
f 11/11/11 10/10/10 9/9/9
f 11/11/11 9/9/9 12/12/12
f 11/11/11 13/13/13 10/10/10
f 11/11/11 14/14/14 13/13/13
f 17/17/17 16/16/16 15/15/15
f 16/16/16 18/18/18 15/15/15
f 20/20/20 19/19/19 15/15/15
f 18/18/18 20/20/20 15/15/15
f 23/23/23 22/22/22 21/21/21
f 23/23/23 24/24/24 22/22/22
f 25/25/25 24/24/24 23/23/23
f 25/25/25 26/26/26 24/24/24
f 29/29/29 28/28/28 27/27/27
f 30/30/30 29/29/29 27/27/27
f 28/28/28 32/32/32 31/31/31
f 27/27/27 28/28/28 31/31/31
f 14/14/14 33/33/33 13/13/13
f 14/14/14 34/34/34 33/33/33
f 36/36/36 35/35/35 33/33/33
f 36/36/36 33/33/33 34/34/34
f 38/38/38 37/37/37 19/19/19
f 20/20/20 38/38/38 19/19/19
f 37/37/37 38/38/38 39/39/39
f 38/38/38 40/40/40 39/39/39
f 43/43/43 42/42/42 41/41/41
f 43/43/43 44/44/44 42/42/42
f 21/21/21 44/44/44 43/43/43
f 21/21/21 22/22/22 44/44/44
f 47/47/47 46/46/46 45/45/45
f 48/48/48 47/47/47 45/45/45
f 46/46/46 29/29/29 30/30/30
f 45/45/45 46/46/46 30/30/30
