g pb_Mesh222440
v -1.499998 -18 -1.5
v -1.499998 2 -2.5
v -1.5 2.5 -1.5
v -1.499998 2.5 -2.5
v -0.4999982 2 -2.5
v -0.4999981 -18 -1.5
v -0.4999982 2.5 -2.5
v -0.5 2.5 -1.5
v -0.4999982 2 -2.5
v -1.499998 2 -2.5
v -0.4999981 -18 -1.5
v -1.499998 -18 -1.5
v -1.499998 2 -2.5
v -0.4999982 2 -2.5
v -1.499998 2.5 -2.5
v -0.4999982 2.5 -2.5
v -0.5 2.5 -1.5
v -1.5 2.5 -1.5
v -0.4999982 2.5 -2.5
v -1.499998 2.5 -2.5
vt -9.749998 -6.125
vt -11 2.000001
vt -9.749998 2.5
vt -11 2.500001
vt -5.750001 2
vt -6.750001 -6.125
vt -5.750001 2.5
vt -6.750001 2.5
vt 6.5 2
vt 7.000001 2
vt 6.5 -3
vt 7 -3
vt 1.499998 2
vt 0.4999982 2
vt 1.499998 2.5
vt 0.4999982 2.5
vt 0.5 -1.5
vt 1.5 -1.5
vt 0.4999982 -2.5
vt 1.499998 -2.5
vn -0.9999999 -8.722633E-08 -1.625317E-06
vn -1 -8.514952E-08 -1.626355E-06
vn -1 -8.514952E-08 -1.626355E-06
vn -1 0 -1.66893E-06
vn 1 0 -1.192093E-07
vn 1 9.082614E-08 1.742726E-06
vn 1 9.082614E-08 1.742726E-06
vn 0.9999999 9.304141E-08 1.788139E-06
vn 0 -0.04993762 -0.9987524
vn -4.762422E-08 -0.04993762 -0.9987524
vn -4.762422E-08 -0.04993762 -0.9987524
vn -9.524844E-08 -0.04993763 -0.9987524
vn 0 0 -1
vn 0 0 -1
vn 0 0 -1
vn 0 0 -1
vn 0 1 0
vn 0 1 0
vn 0 1 0
vn 0 1 0
g pb_Mesh222440_0
f 3/3/3 2/2/2 1/1/1
f 3/3/3 4/4/4 2/2/2
f 7/7/7 6/6/6 5/5/5
f 7/7/7 8/8/8 6/6/6
f 11/11/11 10/10/10 9/9/9
f 11/11/11 12/12/12 10/10/10
g pb_Mesh222440_1
f 15/15/15 14/14/14 13/13/13
f 15/15/15 16/16/16 14/14/14
g pb_Mesh222440_2
f 19/19/19 18/18/18 17/17/17
f 19/19/19 20/20/20 18/18/18
