g pb_Mesh380158
v 3.000001 -7 8.940746E-07
v -4.999997 -7 1.847749E-06
v 3 1 0
v -5 1 0
v 3 1 0
v -5 1 0
v 2.000001 1 -2.499998
v -3.999998 1 -2.499998
v -4.999997 -7 1.847749E-06
v -3.999998 -2.5 -2.499998
v -5 1 0
v -3.999998 1 -2.499998
v -3.999998 -2.5 -2.499998
v 2.000001 -2.5 -2.499998
v -3.999998 1 -2.499998
v 2.000001 1 -2.499998
v 2.000001 -2.5 -2.499998
v 3.000001 -7 8.940746E-07
v 2.000001 1 -2.499998
v 3 1 0
v 2.000001 -2.5 -2.499998
v -3.999998 -2.5 -2.499998
v 3.000001 -7 8.940746E-07
v -4.999997 -7 1.847749E-06
vt -9.357659 -7
vt -17.35766 -7
vt -9.35766 1
vt -17.35766 1
vt -1.999981 6.75
vt -0.6249871 6.75
vt -1.999987 6
vt -0.6249937 6
vt -2.000001 2.5
vt -3 2.5
vt -2 3
vt -3 3
vt -3 2.5
vt -4 2.5
vt -3 3
vt -4 3
vt -4 2.5
vt -5 2.5
vt -4 3
vt -5 3
vt -3.5 -3
vt -2.5 -3
vt -3.5 -3.5
vt -2.5 -3.5
vn 1.192093E-07 1.117593E-07 1
vn 5.960463E-08 1.71364E-07 1
vn 5.960463E-08 1.71364E-07 1
vn 0 2.309686E-07 1
vn 0 1 0
vn 0 1 0
vn 0 1 0
vn 0 1 0
vn -0.9284765 -4.178287E-07 -0.3713913
vn -0.9284763 -2.906635E-07 -0.3713914
vn -0.9284763 -2.906635E-07 -0.3713914
vn -0.9284763 0 -0.3713918
vn -1.192093E-07 0 -0.9999999
vn -1.192093E-07 0 -0.9999999
vn -1.192093E-07 0 -0.9999999
vn -1.192093E-07 0 -0.9999999
vn 0.9284766 0 -0.3713908
vn 0.9284767 2.887368E-08 -0.3713907
vn 0.9284767 2.887368E-08 -0.3713907
vn 0.9284766 4.150592E-08 -0.3713906
vn -1.042077E-07 -0.4856429 -0.8741574
vn -1.108241E-07 -0.4856429 -0.8741573
vn -1.108241E-07 -0.4856429 -0.8741573
vn -1.157863E-07 -0.4856428 -0.8741573
g pb_Mesh380158_0
f 3/3/3 2/2/2 1/1/1
f 3/3/3 4/4/4 2/2/2
f 7/7/7 6/6/6 5/5/5
f 7/7/7 8/8/8 6/6/6
g pb_Mesh380158_1
f 11/11/11 10/10/10 9/9/9
f 11/11/11 12/12/12 10/10/10
f 15/15/15 14/14/14 13/13/13
f 15/15/15 16/16/16 14/14/14
f 19/19/19 18/18/18 17/17/17
f 19/19/19 20/20/20 18/18/18
f 23/23/23 22/22/22 21/21/21
f 23/23/23 24/24/24 22/22/22
