g pb_Mesh220572
v 5.499999 -1 -2.682209E-07
v -7.499996 -1 -2.682209E-07
v 5.499999 1 -2.682209E-07
v -7.499996 1 -2.682209E-07
v -7.499996 -1 -2.682209E-07
v -6 0 -5
v -7.499996 1 -2.682209E-07
v -6 1 -5
v -6 0 -5
v 4 0 -5
v -6 1 -5
v 4 1 -5
v 4 0 -5
v 5.499999 -1 -2.682209E-07
v 4 1 -5
v 5.499999 1 -2.682209E-07
v 4 0 -5
v -6 0 -5
v 5.499999 -1 -2.682209E-07
v -7.499996 -1 -2.682209E-07
v 5.499999 1 -2.682209E-07
v -7.499996 1 -2.682209E-07
v 4 1 -5
v -6 1 -5
vt 5.774656 2.793971
vt 4.149656 2.793971
vt 5.774656 3.043971
vt 4.149656 3.043971
vt -1.5 0
vt -2 0
vt -1.5 0.5
vt -2 0.5
vt 0 -1
vt -2.5 -1
vt 0 -0.5
vt -2.5 -0.5
vt -0.4999999 5.960464E-08
vt -0.9999999 5.960464E-08
vt -0.5000001 0.5
vt -1 0.5000001
vt -4 -1.500001
vt -1.5 -1.499999
vt -4 -2.5
vt -1.5 -2.499999
vt 4.5625 2.5625
vt 6.1875 2.5625
vt 4.75 1.9375
vt 6 1.9375
vn 0 0 1
vn 0 0 1
vn 0 0 1
vn 0 0 1
vn -0.9578265 0 -0.2873472
vn -0.9578266 0 -0.2873472
vn -0.9578266 0 -0.2873472
vn -0.9578265 0 -0.2873472
vn 0 0 -1
vn 0 0 -1
vn 0 0 -1
vn 0 0 -1
vn 0.9578264 0 -0.2873478
vn 0.9578263 0 -0.2873478
vn 0.9578263 0 -0.2873478
vn 0.9578264 0 -0.2873478
vn 0 -0.9805807 -0.1961161
vn 0 -0.9805807 -0.1961161
vn 0 -0.9805807 -0.1961161
vn 0 -0.9805806 -0.1961161
vn 0 1 0
vn 0 1 0
vn 0 1 0
vn 0 1 0
g pb_Mesh220572_0
f 3/3/3 2/2/2 1/1/1
f 3/3/3 4/4/4 2/2/2
g pb_Mesh220572_1
f 7/7/7 6/6/6 5/5/5
f 7/7/7 8/8/8 6/6/6
f 11/11/11 10/10/10 9/9/9
f 11/11/11 12/12/12 10/10/10
f 15/15/15 14/14/14 13/13/13
f 15/15/15 16/16/16 14/14/14
f 19/19/19 18/18/18 17/17/17
f 19/19/19 20/20/20 18/18/18
g pb_Mesh220572_2
f 23/23/23 22/22/22 21/21/21
f 23/23/23 24/24/24 22/22/22
