g pb_Mesh218296
v 9.179117E-06 -1 -12
v -1.99999 -1 -12
v 0.5000089 1 -12
v -2.49999 1 -12
v -1.99999 -1 -12
v -1.5 -1 -17
v -2.49999 1 -12
v -1.5 -0.5 -17
v -1.5 -1 -17
v -0.5 -1 -17
v -1.5 -0.5 -17
v -0.5 -0.5 -17
v -0.5 -1 -17
v 9.179117E-06 -1 -12
v -0.5 -0.5 -17
v 0.5000089 1 -12
v 0.5000089 1 -12
v -2.49999 1 -12
v -0.5 -0.5 -17
v -1.5 -0.5 -17
v -0.5 -1 -17
v -1.5 -1 -17
v 9.179117E-06 -1 -12
v -1.99999 -1 -12
vt -0.8749906 -0.125
vt -1.124991 -0.125
vt -0.8124907 0.125
vt -1.187491 0.125
vt -13.91809 0.6998876
vt -14.54621 0.6998876
vt -13.91187 0.9575067
vt -14.54621 0.7605392
vt 1.0625 -0.78125
vt 0.9375 -0.78125
vt 1.0625 -0.71875
vt 0.9375 -0.71875
vt 14.74521 -0.125
vt 14.11709 -0.125
vt 14.74521 -0.0625
vt 14.11087 0.125
vt 0.8124907 -13.49039
vt 1.187491 -13.49039
vt 0.9374918 -14.1429
vt 1.062492 -14.1429
vt -0.9374917 -14.8125
vt -1.062492 -14.8125
vt -0.8749906 -14.1875
vt -1.12499 -14.1875
vn 0 0 1
vn 0 0 1
vn 0 0 1
vn 0 0 1
vn -0.9656093 -0.2414023 -0.09655908
vn -0.9738619 -0.1947724 -0.1168616
vn -0.9738619 -0.1947724 -0.1168616
vn -0.980581 0 -0.1961144
vn 0 0 -1
vn 0 0 -1
vn 0 0 -1
vn 0 0 -1
vn 0.995037 0 -0.09950557
vn 0.9738616 -0.1947722 -0.1168652
vn 0.9738616 -0.1947722 -0.1168652
vn 0.9630867 -0.2407715 -0.1203876
vn 0 0.9578263 -0.287348
vn 0 0.9578263 -0.287348
vn 0 0.9578263 -0.287348
vn 0 0.9578263 -0.2873479
vn 0 -1 0
vn 0 -1 0
vn 0 -1 0
vn 0 -1 0
g pb_Mesh218296_0
f 3/3/3 2/2/2 1/1/1
f 3/3/3 4/4/4 2/2/2
f 7/7/7 6/6/6 5/5/5
f 7/7/7 8/8/8 6/6/6
f 11/11/11 10/10/10 9/9/9
f 11/11/11 12/12/12 10/10/10
f 15/15/15 14/14/14 13/13/13
f 15/15/15 16/16/16 14/14/14
f 19/19/19 18/18/18 17/17/17
f 19/19/19 20/20/20 18/18/18
f 23/23/23 22/22/22 21/21/21
f 23/23/23 24/24/24 22/22/22
