g pb_Mesh224692
v -12.99999 -1 7.999997
v -19.99999 -1 7.999998
v -13.49999 0 7.499997
v -19.99999 0 7.499998
v -26.49999 0 7.499999
v -26.99999 -1 7.999999
v -26.99999 -1 1.000001
v -26.49999 0 7.499999
v -26.99999 -1 7.999999
v -26.49999 0 1.000001
v -26.49999 0 -5.499997
v -26.99999 -1 -5.999997
v -26.49999 0 -5.499997
v -26.99999 -1 -5.999997
v -19.99999 -1 -5.999998
v -19.99999 0 -5.499998
v -13.5 0 -5.499999
v -13 -1 -5.999999
v -13 -1 0.9999993
v -13.5 0 -5.499999
v -13 -1 -5.999999
v -13.49999 0 0.9999992
v -13.49999 0 7.499997
v -12.99999 -1 7.999997
v -19.99999 1 6.999998
v -21.49999 1 6.999998
v -22.99999 1 6.999998
v -24.49999 1 6.999998
v -25.99999 1 6.999999
v -15.49999 1 6.999997
v -13.99999 1 6.999997
v -16.99999 1 6.999998
v -18.49999 1 6.999998
v -25.99999 1 -0.499999
v -25.99999 1 1
v -25.99999 1 -1.999999
v -25.99999 1 -3.499998
v -25.99999 1 -4.999998
v -25.99999 1 5.499999
v -25.99999 1 6.999999
v -25.99999 1 4
v -25.99999 1 2.5
v -18.49999 1 -4.999998
v -19.99999 1 -4.999998
v -16.99999 1 -4.999999
v -15.49999 1 -4.999999
v -14 1 -4.999999
v -25.99999 1 -4.999998
v -24.49999 1 -4.999998
v -22.99999 1 -4.999998
v -21.49999 1 -4.999998
v -13.99999 1 0.999999
v -13.99999 1 2.499999
v -13.99999 1 3.999998
v -13.99999 1 5.499998
v -13.99999 1 6.999997
v -14 1 -4.999999
v -13.99999 1 -3.5
v -13.99999 1 -2
v -13.99999 1 -0.5000005
v -19.99999 -1 -5.999998
v -13 -3 -5.999999
v -13 -1 -5.999999
v -19.99999 -3 -5.999998
v -26.99999 -1 -5.999997
v -26.99999 -3 -5.999997
v -13 -1 0.9999993
v -13 -3 0.9999994
v -12.99999 -1 7.999997
v -12.99999 -3 7.999997
v -13 -1 -5.999999
v -13 -3 -5.999999
v -26.99999 -3 1.000001
v -26.99999 -3 -5.999997
v -26.99999 -1 -5.999997
v -26.99999 -1 1.000001
v -26.99999 -3 7.999999
v -26.99999 -1 7.999999
v -19.99999 -3 7.999998
v -26.99999 -3 7.999999
v -26.99999 -1 7.999999
v -19.99999 -1 7.999998
v -12.99999 -3 7.999997
v -12.99999 -1 7.999997
v -23.49999 -5 -5.999998
v -25.24999 -5 -5.999997
v -26.99999 -5 -5.999997
v -21.74999 -5 -5.999998
v -19.99999 -5 -5.999998
v -16.5 -5 -5.999998
v -18.25 -5 -5.999998
v -14.75 -5 -5.999998
v -13 -5 -5.999999
v -13 -5 -2.5
v -13 -5 -4.249999
v -13 -5 -5.999999
v -13 -5 -0.7500001
v -13 -5 0.9999993
v -12.99999 -5 2.749999
v -12.99999 -5 4.499998
v -12.99999 -5 6.249998
v -12.99999 -5 7.999997
v -26.99999 -5 7.999999
v -26.99999 -5 6.249999
v -26.99999 -5 4.5
v -26.99999 -5 2.75
v -26.99999 -5 1.000001
v -26.99999 -5 -0.7499987
v -26.99999 -5 -2.499998
v -26.99999 -5 -4.249998
v -26.99999 -5 -5.999997
v -12.99999 -5 7.999997
v -14.74999 -5 7.999997
v -16.49999 -5 7.999998
v -18.24999 -5 7.999998
v -19.99999 -5 7.999998
v -21.74999 -5 7.999998
v -23.49999 -5 7.999998
v -25.24999 -5 7.999998
v -26.99999 -5 7.999999
v -19.99999 1 0.9999999
v -18.49999 1 0.9999996
v -18.49999 1 2.499999
v -17.99999 1 1.999999
v -16.99999 1 0.9999995
v -16.99999 1 2.499999
v -16.99999 1 3.999999
v -19.99999 1 3.999999
v -19.99999 1 2.5
v -18.99999 1 3
v -18.49999 1 3.999999
v -15.49999 1 0.9999993
v -15.49999 1 2.499999
v -14.99999 1 1.999999
v -13.99999 1 0.999999
v -13.99999 1 2.499999
v -13.99999 1 3.999998
v -15.99999 1 2.999999
v -15.49999 1 3.999998
v -15.49999 1 5.499998
v -14.99999 1 4.999998
v -13.99999 1 5.499998
v -13.99999 1 6.999997
v -16.99999 1 6.999998
v -16.99999 1 5.499998
v -15.99999 1 5.999998
v -15.49999 1 6.999997
v -18.49999 1 5.499998
v -17.99999 1 4.999999
v -19.99999 1 6.999998
v -19.99999 1 5.499999
v -18.99999 1 5.999998
v -18.49999 1 6.999998
v -24.99999 1 5
v -24.49999 1 4
v -24.49999 1 5.499999
v -22.99999 1 3.999999
v -25.99999 1 5.499999
v -25.99999 1 6.999999
v -25.99999 1 4
v -22.99999 1 5.499999
v -23.99999 1 5.999999
v -22.99999 1 6.999998
v -24.49999 1 6.999998
v -25.99999 1 1
v -24.49999 1 1
v -24.49999 1 2.5
v -23.99999 1 2
v -22.99999 1 1
v -22.99999 1 2.5
v -25.99999 1 2.5
v -24.99999 1 3
v -21.49999 1 1
v -21.49999 1 2.5
v -20.99999 1 2
v -21.99999 1 3
v -21.49999 1 3.999999
v -21.49999 1 5.499999
v -20.99999 1 4.999999
v -21.99999 1 5.999999
v -21.49999 1 6.999998
v -25.99999 1 -1.999999
v -24.49999 1 -1.999999
v -24.49999 1 -0.4999992
v -23.99999 1 -0.999999
v -22.99999 1 -1.999999
v -22.99999 1 -0.4999993
v -25.99999 1 -0.499999
v -24.99999 1 7.152557E-07
v -25.99999 1 -4.999998
v -24.49999 1 -4.999998
v -24.49999 1 -3.499998
v -23.99999 1 -3.999999
v -22.99999 1 -4.999998
v -22.99999 1 -3.499999
v -25.99999 1 -3.499998
v -24.99999 1 -2.999999
v -21.99999 1 -3.999999
v -21.49999 1 -3.499999
v -21.49999 1 -4.999998
v -19.99999 1 -4.999998
v -21.49999 1 -1.999999
v -20.99999 1 -2.999999
v -19.99999 1 -3.499999
v -19.99999 1 -1.999999
v -21.49999 1 -0.4999995
v -20.99999 1 -0.9999994
v -19.99999 1 -0.4999996
v -21.99999 1 4.371007E-07
v -18.99999 1 -3.999999
v -18.49999 1 -4.999998
v -18.49999 1 -3.499999
v -16.99999 1 -4.999999
v -16.99999 1 -3.499999
v -17.99999 1 -2.999999
v -16.99999 1 -2
v -18.49999 1 -1.999999
v -16 1 -3.999999
v -15.49999 1 -3.499999
v -15.49999 1 -4.999999
v -14 1 -4.999999
v -15.49999 1 -2
v -15 1 -3
v -13.99999 1 -3.5
v -13.99999 1 -2
v -15.99999 1 -1
v -15.49999 1 -0.5000002
v -16.99999 1 -0.5
v -13.99999 1 -0.5000005
v -14.99999 1 -4.967054E-07
v -18.99999 1 -0.9999995
v -18.49999 1 -0.4999998
v -17.99999 1 -5.960464E-08
vt 8 13
vt 6.5 13
vt 8 13.5
vt 6.5 13.5
vt 5 13.5
vt 5 13
vt 3.5 13
vt 5 13.5
vt 5 13
vt 3.5 13.5
vt 2 13.5
vt 2 13
vt 2 13.5
vt 2 13
vt 0.5 13
vt 0.5000002 13.5
vt -1 13.5
vt -1 13
vt -2.5 13
vt -1 13.5
vt -1 13
vt -2.5 13.5
vt -4 13.5
vt -4 13.00001
vt 6.5 14
vt 6.125 14
vt 5.75 14
vt 5.375 14
vt 5 14
vt 7.625 14
vt 8 14
vt 7.25 14
vt 6.875 14
vt 3.125 14
vt 3.5 14
vt 2.749999 14
vt 2.374999 14
vt 1.999999 14
vt 4.625 14
vt 5 14
vt 4.25 14
vt 3.875 14
vt 0.1250004 14
vt 0.5000005 14
vt -0.2499998 14
vt -0.6249999 14
vt -1 14
vt 2.000001 14
vt 1.625001 14
vt 1.250001 14
vt 0.8750006 14
vt -2.5 14
vt -2.875 14
vt -3.25 14
vt -3.625 14
vt -4 13.99999
vt -1 14
vt -1.375 14
vt -1.75 14
vt -2.125 14
vt 0.4999999 13
vt -1.000001 12.5
vt -1 13
vt 0.4999995 12.5
vt 2 13
vt 2 12.5
vt -2.5 13
vt -2.5 12.5
vt -4 13
vt -4 12.5
vt -1 13
vt -1 12.5
vt 3.5 12.5
vt 2 12.5
vt 2 13
vt 3.5 13
vt 5 12.5
vt 5 13
vt 6.5 12.5
vt 5 12.5
vt 5 13
vt 6.5 13
vt 8 12.5
vt 8 13
vt 1.249999 12
vt 1.624999 12
vt 1.999999 12
vt 0.8749992 12
vt 0.4999991 12
vt -0.250001 12
vt 0.1249991 12
vt -0.625001 12
vt -1.000001 12
vt -1.75 12
vt -1.375 12
vt -1.000001 12
vt -2.125 12
vt -2.5 12
vt -2.875 12
vt -3.25 12
vt -3.625 12
vt -4 12
vt 5 12
vt 4.625 12
vt 4.25 12
vt 3.875 12
vt 3.5 12
vt 3.125 12
vt 2.75 12
vt 2.375 12
vt 1.999999 12
vt 8 12
vt 7.625 12
vt 7.25 12
vt 6.875 12
vt 6.5 12
vt 6.125 12
vt 5.75 12
vt 5.375 12
vt 5 12
vt 19.99999 0.9999998
vt 19.81249 0.9999998
vt 19.81249 1.1875
vt 19.74999 1.125
vt 19.62499 0.9999997
vt 19.62499 1.1875
vt 19.62499 1.375
vt 19.99999 1.375
vt 19.99999 1.1875
vt 19.87499 1.25
vt 19.81249 1.375
vt 19.43749 0.9999997
vt 19.43749 1.1875
vt 19.37499 1.125
vt 19.24999 0.9999996
vt 19.24999 1.1875
vt 19.24999 1.375
vt 19.49999 1.25
vt 19.43749 1.375
vt 19.43749 1.5625
vt 19.37499 1.5
vt 19.24999 1.5625
vt 19.24999 1.749999
vt 19.62499 1.75
vt 19.62499 1.5625
vt 19.49999 1.625
vt 19.43749 1.749999
vt 19.81249 1.5625
vt 19.74999 1.5
vt 19.99999 1.75
vt 19.99999 1.5625
vt 19.87499 1.625
vt 19.81249 1.75
vt 20.62499 1.5
vt 20.56249 1.375
vt 20.56249 1.5625
vt 20.37499 1.375
vt 20.74999 1.5625
vt 20.74999 1.75
vt 20.74999 1.375
vt 20.37499 1.5625
vt 20.49999 1.625
vt 20.37499 1.75
vt 20.56249 1.75
vt 20.74999 0.9999999
vt 20.56249 0.9999998
vt 20.56249 1.1875
vt 20.49999 1.125
vt 20.37499 0.9999998
vt 20.37499 1.1875
vt 20.74999 1.1875
vt 20.62499 1.25
vt 20.18749 0.9999998
vt 20.18749 1.1875
vt 20.12499 1.125
vt 20.24999 1.25
vt 20.18749 1.375
vt 20.18749 1.5625
vt 20.12499 1.5
vt 20.24999 1.625
vt 20.18749 1.75
vt 20.74999 0.625
vt 20.56249 0.6249999
vt 20.56249 0.8124999
vt 20.49999 0.7499999
vt 20.37499 0.6249999
vt 20.37499 0.8124999
vt 20.74999 0.8124999
vt 20.62499 0.8749999
vt 20.74999 0.2500001
vt 20.56249 0.25
vt 20.56249 0.4375
vt 20.49999 0.375
vt 20.37499 0.25
vt 20.37499 0.4375
vt 20.74999 0.4375
vt 20.62499 0.5
vt 20.24999 0.375
vt 20.18749 0.4375
vt 20.18749 0.25
vt 19.99999 0.25
vt 20.18749 0.6249999
vt 20.12499 0.4999999
vt 19.99999 0.4375
vt 19.99999 0.6249999
vt 20.18749 0.8124999
vt 20.12499 0.7499999
vt 19.99999 0.8124999
vt 20.24999 0.8749998
vt 19.87499 0.3749999
vt 19.81249 0.25
vt 19.81249 0.4374999
vt 19.62499 0.25
vt 19.62499 0.4374999
vt 19.74999 0.4999999
vt 19.62499 0.6249999
vt 19.81249 0.6249999
vt 19.49999 0.3749999
vt 19.43749 0.4374999
vt 19.43749 0.2499999
vt 19.24999 0.2499999
vt 19.43749 0.6249998
vt 19.37499 0.4999999
vt 19.24999 0.4374999
vt 19.24999 0.6249998
vt 19.49999 0.7499998
vt 19.43749 0.8124998
vt 19.62499 0.8124998
vt 19.24999 0.8124998
vt 19.37499 0.8749998
vt 19.87499 0.7499999
vt 19.81249 0.8124998
vt 19.74999 0.8749998
vn 1.218561E-07 0.4472136 0.8944271
vn 9.477694E-08 0.4472138 0.8944271
vn 9.477694E-08 0.4472138 0.8944271
vn 6.561479E-08 0.4472139 0.894427
vn 9.477694E-08 0.4472137 0.8944271
vn 6.092803E-08 0.4472135 0.8944271
vn -0.8944272 0.4472137 2.527385E-07
vn -0.8944272 0.4472137 2.527385E-07
vn -0.8944271 0.4472137 2.437121E-07
vn -0.8944272 0.4472136 2.624592E-07
vn -0.8944272 0.4472136 0
vn -0.8944271 0.4472136 0
vn -1.263693E-07 0.4472136 -0.8944272
vn -1.218561E-07 0.4472136 -0.8944271
vn -1.263693E-07 0.4472136 -0.8944272
vn -1.312296E-07 0.4472136 -0.8944272
vn -9.477695E-08 0.4472134 -0.8944273
vn -6.092804E-08 0.4472132 -0.8944274
vn 0.8944274 0.4472133 -1.895539E-07
vn 0.8944274 0.4472133 -1.895539E-07
vn 0.8944271 0.4472136 -1.218561E-07
vn 0.8944275 0.4472129 -2.624593E-07
vn 0.8944274 0.4472133 -6.318464E-08
vn 0.8944272 0.4472136 -1.218561E-07
vn 0 0.4472132 0.8944273
vn 0 0.4472132 0.8944273
vn 8.978868E-08 0.4472136 0.8944272
vn 1.421655E-07 0.4472137 0.8944272
vn 2.843312E-07 0.4472135 0.8944273
vn 1.421654E-07 0.4472138 0.8944271
vn 0 0.4472136 0.8944272
vn 1.34683E-07 0.4472135 0.8944273
vn 1.421654E-07 0.4472131 0.8944275
vn -0.8944272 0.4472136 0
vn -0.8944272 0.4472136 0
vn -0.8944272 0.4472136 0
vn -0.8944272 0.4472136 0
vn -0.8944272 0.4472136 0
vn -0.8944275 0.4472132 5.686618E-07
vn -0.894427 0.4472141 1.137323E-06
vn -0.8944275 0.4472129 1.795774E-07
vn -0.8944272 0.4472136 0
vn -1.421654E-07 0.4472138 -0.8944271
vn 0 0.4472136 -0.8944272
vn -1.795774E-07 0.4472136 -0.8944272
vn -1.421654E-07 0.4472134 -0.8944273
vn 0 0.4472136 -0.8944272
vn -2.843308E-07 0.4472134 -0.8944273
vn -1.421654E-07 0.4472131 -0.8944274
vn -8.978869E-08 0.4472133 -0.8944274
vn 0 0.4472136 -0.8944272
vn 0.8944272 0.4472136 0
vn 0.8944272 0.4472136 0
vn 0.8944272 0.4472136 0
vn 0.8944272 0.4472136 0
vn 0.8944272 0.4472136 0
vn 0.8944275 0.4472132 -5.686618E-07
vn 0.8944277 0.4472127 -2.84331E-07
vn 0.8944275 0.4472129 -1.795774E-07
vn 0.8944272 0.4472136 0
vn -6.811961E-08 0 -1
vn -6.811961E-08 0 -1
vn -6.811961E-08 0 -1
vn -6.811961E-08 0 -1
vn -1.362392E-07 0 -1
vn -1.362392E-07 0 -1
vn 1 -8.12049E-15 -1.362392E-07
vn 1 -4.060245E-15 -1.362392E-07
vn 1 -4.060245E-15 -1.362392E-07
vn 1 0 -1.362392E-07
vn 1 0 -1.362392E-07
vn 1 -4.060245E-15 -1.362392E-07
vn -1 0 0
vn -1 0 0
vn -1 0 0
vn -1 0 0
vn -1 0 2.724784E-07
vn -1 0 2.724784E-07
vn 6.811961E-08 0 1
vn 6.811961E-08 0 1
vn 6.811961E-08 0 1
vn 6.811961E-08 0 1
vn 1.362392E-07 0 1
vn 1.362392E-07 0 1
vn -1.816523E-07 -8.661856E-14 -1
vn -1.362392E-07 -1.192093E-07 -1
vn 0 0 -1
vn -1.362393E-07 1.192092E-07 -1
vn 0 0 -1
vn -4.541307E-08 -1.192093E-07 -1
vn 0 0 -1
vn -1.362392E-07 -1.192093E-07 -1
vn -2.724784E-07 0 -1
vn 1 -2.384186E-07 -9.082615E-08
vn 1 0 0
vn 1 0 0
vn 1 -2.384186E-07 -2.724785E-07
vn 1 3.248197E-14 -5.449569E-07
vn 0.9999999 2.384186E-07 -2.724785E-07
vn 0.9999999 2.384186E-07 -9.082616E-08
vn 1 0 0
vn 1 0 0
vn -1 0 1.089914E-06
vn -1 4.768372E-07 5.449569E-07
vn -1 4.768371E-07 1.816523E-07
vn -1 0 0
vn -0.9999999 0 0
vn -1 0 0
vn -1 0 0
vn -1 0 0
vn -1 0 0
vn 0 0 1
vn 1.362393E-07 -1.192093E-07 1
vn 1.816523E-07 6.496392E-14 1
vn 1.362392E-07 1.192093E-07 1
vn 0 0 1
vn 0 0 1
vn 4.541307E-08 -1.192093E-07 1
vn 1.362393E-07 -1.192094E-07 1
vn 2.724787E-07 0 1
vn 0 1 0
vn 0 0.9999999 0
vn 0 0.9999999 0
vn 0 0.9999999 0
vn 0 0.9999999 0
vn 0 1 0
vn 0 1 0
vn 0 1 0
vn 0 1 0
vn 0 1 0
vn 0 1 0
vn 0 1 0
vn 0 1 0
vn 0 1 0
vn 0 1 0
vn 0 1 0
vn 0 1 0
vn 0 1 0
vn 0 1 0
vn 0 1 0
vn 0 1 0
vn 0 1 0
vn 0 1 0
vn 0 1 0
vn 0 1 0
vn 0 1 0
vn 0 0.9999999 0
vn 0 1 0
vn 0 1 0
vn 0 0.9999999 0
vn 0 1 0
vn 0 0.9999999 0
vn 0 1 0
vn 0 1 0
vn 0 1 0
vn 0 1 0
vn 0 1 0
vn 0 1 0
vn 0 1 0
vn 0 0.9999999 0
vn 0 0.9999999 0
vn 0 1 0
vn 0 1 0
vn 0 0.9999999 0
vn 0 1 0
vn 0 0.9999999 0
vn 0 0.9999999 0
vn 0 0.9999999 0
vn 0 1 0
vn 0 1 0
vn 0 1 0
vn 0 1 0
vn 0 0.9999999 0
vn 0 0.9999999 0
vn 0 1 0
vn 0 1 0
vn 0 1 0
vn 0 0.9999999 0
vn 0 1 0
vn 0 1 0
vn 0 0.9999999 0
vn 0 1 0
vn 0 1 0
vn 0 1 0
vn 0 1 0
vn 0 1 0
vn 0 1 0
vn 0 1 0
vn 0 1 0
vn 0 1 0
vn 0 1 0
vn 0 1 0
vn 0 1 0
vn 0 1 0
vn 0 1 0
vn 0 1 0
vn 0 0.9999999 0
vn 0 1 0
vn 0 0.9999999 0
vn 0 1 0
vn 0 1 0
vn 0 0.9999999 0
vn 0 0.9999999 0
vn 0 1 0
vn 0 0.9999999 0
vn 0 1 0
vn 0 1 0
vn 0 1 0
vn 0 1 0
vn 0 1 0
vn 0 1 0
vn 0 1 0
vn 0 1 0
vn 0 0.9999999 0
vn 0 0.9999999 0
vn 0 0.9999999 0
vn 0 0.9999999 0
vn 0 1 0
vn 0 1 0
vn 0 0.9999999 0
vn 0 1 0
vn 0 1 0
vn 0 1 0
vn 0 1 0
vn 0 1 0
vn 0 1 0
vn 0 1 0
vn 0 0.9999999 0
vn 0 0.9999999 0
vn 0 1 0
vn 0 1 0
vn 0 1 0
vn 0 1 0
g pb_Mesh224692_0
f 3/3/3 2/2/2 1/1/1
f 4/4/4 2/2/2 3/3/3
f 5/5/5 2/2/2 4/4/4
f 5/5/5 6/6/6 2/2/2
f 9/9/9 8/8/8 7/7/7
f 8/8/8 10/10/10 7/7/7
f 10/10/10 11/11/11 7/7/7
f 11/11/11 12/12/12 7/7/7
f 15/15/15 14/14/14 13/13/13
f 16/16/16 15/15/15 13/13/13
f 15/15/15 16/16/16 17/17/17
f 15/15/15 17/17/17 18/18/18
f 21/21/21 20/20/20 19/19/19
f 19/19/19 20/20/20 22/22/22
f 23/23/23 19/19/19 22/22/22
f 24/24/24 19/19/19 23/23/23
f 26/26/26 4/4/4 25/25/25
f 26/26/26 27/27/27 4/4/4
f 27/27/27 5/5/5 4/4/4
f 28/28/28 5/5/5 27/27/27
f 5/5/5 28/28/28 29/29/29
f 31/31/31 30/30/30 3/3/3
f 30/30/30 32/32/32 3/3/3
f 3/3/3 32/32/32 4/4/4
f 32/32/32 33/33/33 4/4/4
f 25/25/25 4/4/4 33/33/33
f 35/35/35 34/34/34 10/10/10
f 34/34/34 36/36/36 10/10/10
f 10/10/10 36/36/36 11/11/11
f 11/11/11 36/36/36 37/37/37
f 37/37/37 38/38/38 11/11/11
f 40/40/40 39/39/39 8/8/8
f 8/8/8 39/39/39 41/41/41
f 8/8/8 41/41/41 10/10/10
f 10/10/10 41/41/41 42/42/42
f 42/42/42 35/35/35 10/10/10
f 44/44/44 43/43/43 16/16/16
f 16/16/16 43/43/43 45/45/45
f 16/16/16 45/45/45 17/17/17
f 45/45/45 46/46/46 17/17/17
f 17/17/17 46/46/46 47/47/47
f 49/49/49 13/13/13 48/48/48
f 13/13/13 49/49/49 50/50/50
f 13/13/13 50/50/50 16/16/16
f 16/16/16 50/50/50 51/51/51
f 44/44/44 16/16/16 51/51/51
f 53/53/53 22/22/22 52/52/52
f 22/22/22 53/53/53 54/54/54
f 22/22/22 54/54/54 23/23/23
f 23/23/23 54/54/54 55/55/55
f 23/23/23 55/55/55 56/56/56
f 58/58/58 20/20/20 57/57/57
f 20/20/20 58/58/58 59/59/59
f 20/20/20 59/59/59 22/22/22
f 22/22/22 59/59/59 60/60/60
f 22/22/22 60/60/60 52/52/52
g pb_Mesh224692_1
f 63/63/63 62/62/62 61/61/61
f 62/62/62 64/64/64 61/61/61
f 61/61/61 64/64/64 65/65/65
f 64/64/64 66/66/66 65/65/65
f 69/69/69 68/68/68 67/67/67
f 69/69/69 70/70/70 68/68/68
f 72/72/72 71/71/71 67/67/67
f 72/72/72 67/67/67 68/68/68
f 75/75/75 74/74/74 73/73/73
f 75/75/75 73/73/73 76/76/76
f 76/76/76 73/73/73 77/77/77
f 76/76/76 77/77/77 78/78/78
f 81/81/81 80/80/80 79/79/79
f 81/81/81 79/79/79 82/82/82
f 82/82/82 79/79/79 83/83/83
f 82/82/82 83/83/83 84/84/84
f 85/85/85 66/66/66 64/64/64
f 85/85/85 86/86/86 66/66/66
f 86/86/86 87/87/87 66/66/66
f 64/64/64 88/88/88 85/85/85
f 64/64/64 89/89/89 88/88/88
f 90/90/90 64/64/64 62/62/62
f 90/90/90 91/91/91 64/64/64
f 91/91/91 89/89/89 64/64/64
f 62/62/62 92/92/92 90/90/90
f 62/62/62 93/93/93 92/92/92
f 94/94/94 72/72/72 68/68/68
f 94/94/94 95/95/95 72/72/72
f 95/95/95 96/96/96 72/72/72
f 68/68/68 97/97/97 94/94/94
f 68/68/68 98/98/98 97/97/97
f 99/99/99 98/98/98 68/68/68
f 100/100/100 99/99/99 68/68/68
f 100/100/100 68/68/68 70/70/70
f 70/70/70 101/101/101 100/100/100
f 70/70/70 102/102/102 101/101/101
f 104/104/104 103/103/103 77/77/77
f 105/105/105 104/104/104 77/77/77
f 73/73/73 107/107/107 106/106/106
f 73/73/73 106/106/106 105/105/105
f 77/77/77 73/73/73 105/105/105
f 108/108/108 107/107/107 73/73/73
f 109/109/109 108/108/108 73/73/73
f 74/74/74 111/111/111 110/110/110
f 74/74/74 110/110/110 109/109/109
f 73/73/73 74/74/74 109/109/109
f 113/113/113 112/112/112 83/83/83
f 114/114/114 113/113/113 83/83/83
f 79/79/79 116/116/116 115/115/115
f 79/79/79 115/115/115 114/114/114
f 83/83/83 79/79/79 114/114/114
f 117/117/117 116/116/116 79/79/79
f 118/118/118 117/117/117 79/79/79
f 80/80/80 120/120/120 119/119/119
f 80/80/80 119/119/119 118/118/118
f 79/79/79 80/80/80 118/118/118
g pb_Mesh224692_2
f 123/123/123 122/122/122 121/121/121
f 124/124/124 122/122/122 123/123/123
f 124/124/124 125/125/125 122/122/122
f 126/126/126 125/125/125 124/124/124
f 123/123/123 126/126/126 124/124/124
f 123/123/123 127/127/127 126/126/126
f 130/130/130 129/129/129 128/128/128
f 131/131/131 130/130/130 128/128/128
f 123/123/123 121/121/121 129/129/129
f 130/130/130 123/123/123 129/129/129
f 131/131/131 123/123/123 130/130/130
f 127/127/127 123/123/123 131/131/131
f 133/133/133 132/132/132 125/125/125
f 134/134/134 132/132/132 133/133/133
f 134/134/134 135/135/135 132/132/132
f 136/136/136 135/135/135 134/134/134
f 133/133/133 136/136/136 134/134/134
f 133/133/133 137/137/137 136/136/136
f 138/138/138 126/126/126 127/127/127
f 139/139/139 138/138/138 127/127/127
f 133/133/133 125/125/125 126/126/126
f 138/138/138 133/133/133 126/126/126
f 138/138/138 139/139/139 133/133/133
f 139/139/139 137/137/137 133/133/133
f 140/140/140 139/139/139 127/127/127
f 141/141/141 139/139/139 140/140/140
f 141/141/141 137/137/137 139/139/139
f 142/142/142 137/137/137 141/141/141
f 140/140/140 142/142/142 141/141/141
f 140/140/140 143/143/143 142/142/142
f 146/146/146 145/145/145 144/144/144
f 147/147/147 146/146/146 144/144/144
f 140/140/140 127/127/127 145/145/145
f 146/146/146 140/140/140 145/145/145
f 146/146/146 147/147/147 140/140/140
f 147/147/147 143/143/143 140/140/140
f 148/148/148 131/131/131 128/128/128
f 149/149/149 131/131/131 148/148/148
f 149/149/149 127/127/127 131/131/131
f 145/145/145 127/127/127 149/149/149
f 148/148/148 145/145/145 149/149/149
f 148/148/148 144/144/144 145/145/145
f 152/152/152 151/151/151 150/150/150
f 153/153/153 152/152/152 150/150/150
f 148/148/148 128/128/128 151/151/151
f 152/152/152 148/148/148 151/151/151
f 153/153/153 148/148/148 152/152/152
f 144/144/144 148/148/148 153/153/153
f 156/156/156 155/155/155 154/154/154
f 157/157/157 155/155/155 156/156/156
f 158/158/158 156/156/156 154/154/154
f 159/159/159 156/156/156 158/158/158
f 154/154/154 160/160/160 158/158/158
f 154/154/154 155/155/155 160/160/160
f 156/156/156 161/161/161 157/157/157
f 162/162/162 161/161/161 156/156/156
f 163/163/163 161/161/161 162/162/162
f 163/163/163 162/162/162 164/164/164
f 159/159/159 164/164/164 156/156/156
f 162/162/162 156/156/156 164/164/164
f 167/167/167 166/166/166 165/165/165
f 168/168/168 166/166/166 167/167/167
f 168/168/168 169/169/169 166/166/166
f 170/170/170 169/169/169 168/168/168
f 167/167/167 170/170/170 168/168/168
f 167/167/167 157/157/157 170/170/170
f 172/172/172 171/171/171 160/160/160
f 155/155/155 172/172/172 160/160/160
f 167/167/167 165/165/165 171/171/171
f 172/172/172 167/167/167 171/171/171
f 155/155/155 167/167/167 172/172/172
f 157/157/157 167/167/167 155/155/155
f 174/174/174 173/173/173 169/169/169
f 175/175/175 173/173/173 174/174/174
f 175/175/175 121/121/121 173/173/173
f 129/129/129 121/121/121 175/175/175
f 174/174/174 129/129/129 175/175/175
f 174/174/174 128/128/128 129/129/129
f 176/176/176 170/170/170 157/157/157
f 177/177/177 176/176/176 157/157/157
f 174/174/174 169/169/169 170/170/170
f 176/176/176 174/174/174 170/170/170
f 177/177/177 174/174/174 176/176/176
f 128/128/128 174/174/174 177/177/177
f 178/178/178 177/177/177 157/157/157
f 179/179/179 177/177/177 178/178/178
f 179/179/179 128/128/128 177/177/177
f 151/151/151 128/128/128 179/179/179
f 178/178/178 151/151/151 179/179/179
f 178/178/178 150/150/150 151/151/151
f 180/180/180 161/161/161 163/163/163
f 181/181/181 180/180/180 163/163/163
f 178/178/178 157/157/157 161/161/161
f 180/180/180 178/178/178 161/161/161
f 180/180/180 181/181/181 178/178/178
f 181/181/181 150/150/150 178/178/178
f 184/184/184 183/183/183 182/182/182
f 185/185/185 183/183/183 184/184/184
f 185/185/185 186/186/186 183/183/183
f 187/187/187 186/186/186 185/185/185
f 184/184/184 187/187/187 185/185/185
f 184/184/184 169/169/169 187/187/187
f 189/189/189 188/188/188 165/165/165
f 166/166/166 189/189/189 165/165/165
f 184/184/184 182/182/182 188/188/188
f 189/189/189 184/184/184 188/188/188
f 166/166/166 184/184/184 189/189/189
f 169/169/169 184/184/184 166/166/166
f 192/192/192 191/191/191 190/190/190
f 193/193/193 191/191/191 192/192/192
f 193/193/193 194/194/194 191/191/191
f 195/195/195 194/194/194 193/193/193
f 192/192/192 195/195/195 193/193/193
f 192/192/192 186/186/186 195/195/195
f 197/197/197 196/196/196 182/182/182
f 183/183/183 197/197/197 182/182/182
f 192/192/192 190/190/190 196/196/196
f 197/197/197 192/192/192 196/196/196
f 183/183/183 192/192/192 197/197/197
f 186/186/186 192/192/192 183/183/183
f 199/199/199 198/198/198 195/195/195
f 186/186/186 199/199/199 195/195/195
f 198/198/198 194/194/194 195/195/195
f 198/198/198 200/200/200 194/194/194
f 199/199/199 200/200/200 198/198/198
f 201/201/201 200/200/200 199/199/199
f 186/186/186 202/202/202 199/199/199
f 203/203/203 199/199/199 202/202/202
f 204/204/204 201/201/201 199/199/199
f 203/203/203 204/204/204 199/199/199
f 205/205/205 204/204/204 203/203/203
f 205/205/205 203/203/203 202/202/202
f 206/206/206 202/202/202 186/186/186
f 207/207/207 202/202/202 206/206/206
f 207/207/207 205/205/205 202/202/202
f 208/208/208 205/205/205 207/207/207
f 206/206/206 208/208/208 207/207/207
f 206/206/206 121/121/121 208/208/208
f 209/209/209 187/187/187 169/169/169
f 173/173/173 209/209/209 169/169/169
f 206/206/206 186/186/186 187/187/187
f 209/209/209 206/206/206 187/187/187
f 173/173/173 206/206/206 209/209/209
f 121/121/121 206/206/206 173/173/173
f 212/212/212 211/211/211 210/210/210
f 212/212/212 213/213/213 211/211/211
f 212/212/212 210/210/210 204/204/204
f 205/205/205 212/212/212 204/204/204
f 204/204/204 210/210/210 201/201/201
f 210/210/210 211/211/211 201/201/201
f 212/212/212 214/214/214 213/213/213
f 215/215/215 214/214/214 212/212/212
f 216/216/216 214/214/214 215/215/215
f 216/216/216 215/215/215 217/217/217
f 205/205/205 217/217/217 212/212/212
f 215/215/215 212/212/212 217/217/217
f 219/219/219 218/218/218 214/214/214
f 216/216/216 219/219/219 214/214/214
f 218/218/218 213/213/213 214/214/214
f 218/218/218 220/220/220 213/213/213
f 219/219/219 220/220/220 218/218/218
f 221/221/221 220/220/220 219/219/219
f 216/216/216 222/222/222 219/219/219
f 223/223/223 219/219/219 222/222/222
f 224/224/224 221/221/221 219/219/219
f 223/223/223 224/224/224 219/219/219
f 225/225/225 224/224/224 223/223/223
f 225/225/225 223/223/223 222/222/222
f 227/227/227 222/222/222 226/226/226
f 227/227/227 225/225/225 222/222/222
f 227/227/227 226/226/226 228/228/228
f 125/125/125 227/227/227 228/228/228
f 228/228/228 226/226/226 216/216/216
f 226/226/226 222/222/222 216/216/216
f 227/227/227 229/229/229 225/225/225
f 230/230/230 229/229/229 227/227/227
f 135/135/135 229/229/229 230/230/230
f 135/135/135 230/230/230 132/132/132
f 125/125/125 132/132/132 227/227/227
f 230/230/230 227/227/227 132/132/132
f 232/232/232 231/231/231 208/208/208
f 121/121/121 232/232/232 208/208/208
f 231/231/231 205/205/205 208/208/208
f 231/231/231 217/217/217 205/205/205
f 232/232/232 217/217/217 231/231/231
f 216/216/216 217/217/217 232/232/232
f 121/121/121 122/122/122 232/232/232
f 233/233/233 232/232/232 122/122/122
f 228/228/228 216/216/216 232/232/232
f 233/233/233 228/228/228 232/232/232
f 125/125/125 228/228/228 233/233/233
f 125/125/125 233/233/233 122/122/122
