g pb_Mesh16880
v -10 0 0
v -10 0.2 0
v -9.238795 0 3.826835
v -9.238795 0.2 3.826835
v -9.238795 0 3.826835
v -9.238795 0.2 3.826835
v -7.071068 0 7.071068
v -7.071068 0.2 7.071068
v -7.071068 0 7.071068
v -7.071068 0.2 7.071068
v -3.826834 0 9.238795
v -3.826834 0.2 9.238795
v -3.826834 0 9.238795
v -3.826834 0.2 9.238795
v 4.371139E-07 0 10
v 4.371139E-07 0.2 10
v 4.371139E-07 0 10
v 4.371139E-07 0.2 10
v 3.826834 0 9.238795
v 3.826834 0.2 9.238795
v 3.826834 0 9.238795
v 3.826834 0.2 9.238795
v 7.071068 0 7.071068
v 7.071068 0.2 7.071068
v 7.071068 0 7.071068
v 7.071068 0.2 7.071068
v 9.238795 0 3.826835
v 9.238795 0.2 3.826835
v 9.238795 0 3.826835
v 9.238795 0.2 3.826835
v 10 0 -8.742278E-07
v 10 0.2 -8.742278E-07
v 10 0 -8.742278E-07
v 10 0.2 -8.742278E-07
v 9.238795 0 -3.826834
v 9.238795 0.2 -3.826834
v 9.238795 0 -3.826834
v 9.238795 0.2 -3.826834
v 7.071068 0 -7.071067
v 7.071068 0.2 -7.071067
v 7.071068 0 -7.071067
v 7.071068 0.2 -7.071067
v 3.826836 0 -9.238795
v 3.826836 0.2 -9.238795
v 3.826836 0 -9.238795
v 3.826836 0.2 -9.238795
v -1.192488E-07 0 -10
v -1.192488E-07 0.2 -10
v -1.192488E-07 0 -10
v -1.192488E-07 0.2 -10
v -3.826836 0 -9.238794
v -3.826836 0.2 -9.238794
v -3.826836 0 -9.238794
v -3.826836 0.2 -9.238794
v -7.071066 0 -7.071069
v -7.071066 0.2 -7.071069
v -7.071066 0 -7.071069
v -7.071066 0.2 -7.071069
v -9.238795 0 -3.826834
v -9.238795 0.2 -3.826834
v -9.238795 0 -3.826834
v -9.238795 0.2 -3.826834
v -10 0 0
v -10 0.2 0
v -9.238795 0 3.826835
v 0 0 0
v -10 0 0
v -7.071068 0 7.071068
v -3.826834 0 9.238795
v 4.371139E-07 0 10
v 3.826834 0 9.238795
v 7.071068 0 7.071068
v 9.238795 0 3.826835
v 10 0 -8.742278E-07
v 9.238795 0 -3.826834
v 7.071068 0 -7.071067
v 3.826836 0 -9.238795
v -1.192488E-07 0 -10
v -3.826836 0 -9.238794
v -7.071066 0 -7.071069
v -9.238795 0 -3.826834
v -10 0.2 0
v 0 0.2 0
v -9.238795 0.2 3.826835
v -7.071068 0.2 7.071068
v -3.826834 0.2 9.238795
v 4.371139E-07 0.2 10
v 3.826834 0.2 9.238795
v 7.071068 0.2 7.071068
v 9.238795 0.2 3.826835
v 10 0.2 -8.742278E-07
v 9.238795 0.2 -3.826834
v 7.071068 0.2 -7.071067
v 3.826836 0.2 -9.238795
v -1.192488E-07 0.2 -10
v -3.826836 0.2 -9.238794
v -7.071066 0.2 -7.071069
v -9.238795 0.2 -3.826834
vt -1.950903 0
vt -1.950903 0.2
vt 1.950904 0
vt 1.950904 0.2
vt -1.950903 0
vt -1.950903 0.2
vt 1.950903 0
vt 1.950903 0.2
vt -1.950903 0
vt -1.950903 0.2
vt 1.950903 0
vt 1.950903 0.2
vt -1.950903 0
vt -1.950903 0.2
vt 1.950904 0
vt 1.950904 0.2
vt -1.950903 0
vt -1.950903 0.2
vt 1.950902 0
vt 1.950902 0.2
vt -1.950903 0
vt -1.950903 0.2
vt 1.950904 0
vt 1.950904 0.2
vt -1.950902 0
vt -1.950902 0.2
vt 1.950904 0
vt 1.950904 0.2
vt -1.950904 0
vt -1.950904 0.2
vt 1.950904 0
vt 1.950904 0.2
vt -1.950903 0
vt -1.950903 0.2
vt 1.950902 0
vt 1.950902 0.2
vt -1.950903 0
vt -1.950903 0.2
vt 1.950902 0
vt 1.950902 0.2
vt -1.950901 0
vt -1.950901 0.2
vt 1.950905 0
vt 1.950905 0.2
vt -1.950905 0
vt -1.950905 0.2
vt 1.950903 0
vt 1.950903 0.2
vt -1.950905 0
vt -1.950905 0.2
vt 1.950904 0
vt 1.950904 0.2
vt -1.950901 0
vt -1.950901 0.2
vt 1.950901 0
vt 1.950901 0.2
vt -1.950903 0
vt -1.950903 0.2
vt 1.950905 0
vt 1.950905 0.2
vt -1.950903 0
vt -1.950903 0.2
vt 1.950904 0
vt 1.950904 0.2
vt -9.238795 3.826835
vt 0 0
vt -10 0
vt -7.071068 7.071068
vt -3.826834 9.238795
vt 4.371139E-07 10
vt 3.826834 9.238795
vt 7.071068 7.071068
vt 9.238795 3.826835
vt 10 -8.742278E-07
vt 9.238795 -3.826834
vt 7.071068 -7.071067
vt 3.826836 -9.238795
vt -1.192488E-07 -10
vt -3.826836 -9.238794
vt -7.071066 -7.071069
vt -9.238795 -3.826834
vt 10 0
vt 0 0
vt 9.238795 3.826835
vt 7.071068 7.071068
vt 3.826834 9.238795
vt -4.371139E-07 10
vt -3.826834 9.238795
vt -7.071068 7.071068
vt -9.238795 3.826835
vt -10 -8.742278E-07
vt -9.238795 -3.826834
vt -7.071068 -7.071067
vt -3.826836 -9.238795
vt 1.192488E-07 -10
vt 3.826836 -9.238794
vt 7.071066 -7.071069
vt 9.238795 -3.826834
vn -0.9807853 0 -7.450581E-09
vn -0.9807853 0 -7.450581E-09
vn -0.9061275 0 0.3753303
vn -0.9061275 0 0.3753303
vn -0.9061275 0 0.3753303
vn -0.9061275 0 0.3753303
vn -0.6935199 0 0.6935199
vn -0.6935199 0 0.6935199
vn -0.6935199 0 0.6935199
vn -0.6935199 0 0.6935199
vn -0.3753302 0 0.9061275
vn -0.3753302 0 0.9061275
vn -0.3753302 0 0.9061275
vn -0.3753302 0 0.9061275
vn 2.980232E-08 0 0.9807853
vn 2.980232E-08 0 0.9807853
vn 2.980232E-08 0 0.9807853
vn 2.980232E-08 0 0.9807853
vn 0.3753303 0 0.9061275
vn 0.3753303 0 0.9061275
vn 0.3753303 0 0.9061275
vn 0.3753303 0 0.9061275
vn 0.6935198 0 0.69352
vn 0.6935198 0 0.69352
vn 0.6935198 0 0.69352
vn 0.6935198 0 0.69352
vn 0.9061273 0 0.3753303
vn 0.9061273 0 0.3753303
vn 0.9061273 0 0.3753303
vn 0.9061273 0 0.3753303
vn 0.9807853 0 -7.450581E-08
vn 0.9807853 0 -7.450581E-08
vn 0.9807853 0 -7.450581E-08
vn 0.9807853 0 -7.450581E-08
vn 0.9061275 0 -0.3753303
vn 0.9061275 0 -0.3753303
vn 0.9061275 0 -0.3753303
vn 0.9061275 0 -0.3753303
vn 0.6935201 0 -0.6935198
vn 0.6935201 0 -0.6935198
vn 0.6935201 0 -0.6935198
vn 0.6935201 0 -0.6935198
vn 0.3753303 0 -0.9061273
vn 0.3753303 0 -0.9061273
vn 0.3753303 0 -0.9061273
vn 0.3753303 0 -0.9061273
vn -1.266599E-07 0 -0.9807852
vn -1.266599E-07 0 -0.9807852
vn -1.266599E-07 0 -0.9807852
vn -1.266599E-07 0 -0.9807852
vn -0.3753304 0 -0.9061274
vn -0.3753304 0 -0.9061274
vn -0.3753304 0 -0.9061274
vn -0.3753304 0 -0.9061274
vn -0.6935198 0 -0.6935199
vn -0.6935198 0 -0.6935199
vn -0.6935198 0 -0.6935199
vn -0.6935198 0 -0.6935199
vn -0.9061273 0 -0.3753303
vn -0.9061273 0 -0.3753303
vn -0.9061273 0 -0.3753303
vn -0.9061273 0 -0.3753303
vn -0.9807853 0 -7.450581E-09
vn -0.9807853 0 -7.450581E-09
vn 0 -1 0
vn 0 -1 0
vn 0 -1 0
vn 0 -1 0
vn 0 -1 0
vn 0 -1 0
vn 0 -1 0
vn 0 -1 0
vn 0 -1 0
vn 0 -1 0
vn 0 -1 0
vn 0 -1 0
vn 0 -1 0
vn 0 -1 0
vn 0 -1 0
vn 0 -1 0
vn 0 -1 0
vn 0 1 0
vn 0 1 0
vn 0 1 0
vn 0 1 0
vn 0 1 0
vn 0 1 0
vn 0 1 0
vn 0 1 0
vn 0 1 0
vn 0 1 0
vn 0 1 0
vn 0 1 0
vn 0 1 0
vn 0 1 0
vn 0 1 0
vn 0 1 0
vn 0 1 0
g pb_Mesh16880_0
f 3/3/3 2/2/2 1/1/1
f 3/3/3 4/4/4 2/2/2
f 7/7/7 6/6/6 5/5/5
f 7/7/7 8/8/8 6/6/6
f 11/11/11 10/10/10 9/9/9
f 11/11/11 12/12/12 10/10/10
f 15/15/15 14/14/14 13/13/13
f 15/15/15 16/16/16 14/14/14
f 19/19/19 18/18/18 17/17/17
f 19/19/19 20/20/20 18/18/18
f 23/23/23 22/22/22 21/21/21
f 23/23/23 24/24/24 22/22/22
f 27/27/27 26/26/26 25/25/25
f 27/27/27 28/28/28 26/26/26
f 31/31/31 30/30/30 29/29/29
f 31/31/31 32/32/32 30/30/30
f 35/35/35 34/34/34 33/33/33
f 35/35/35 36/36/36 34/34/34
f 39/39/39 38/38/38 37/37/37
f 39/39/39 40/40/40 38/38/38
f 43/43/43 42/42/42 41/41/41
f 43/43/43 44/44/44 42/42/42
f 47/47/47 46/46/46 45/45/45
f 47/47/47 48/48/48 46/46/46
f 51/51/51 50/50/50 49/49/49
f 51/51/51 52/52/52 50/50/50
f 55/55/55 54/54/54 53/53/53
f 55/55/55 56/56/56 54/54/54
f 59/59/59 58/58/58 57/57/57
f 59/59/59 60/60/60 58/58/58
f 63/63/63 62/62/62 61/61/61
f 63/63/63 64/64/64 62/62/62
f 67/67/67 66/66/66 65/65/65
f 65/65/65 66/66/66 68/68/68
f 68/68/68 66/66/66 69/69/69
f 69/69/69 66/66/66 70/70/70
f 70/70/70 66/66/66 71/71/71
f 71/71/71 66/66/66 72/72/72
f 72/72/72 66/66/66 73/73/73
f 73/73/73 66/66/66 74/74/74
f 74/74/74 66/66/66 75/75/75
f 75/75/75 66/66/66 76/76/76
f 76/76/76 66/66/66 77/77/77
f 77/77/77 66/66/66 78/78/78
f 78/78/78 66/66/66 79/79/79
f 79/79/79 66/66/66 80/80/80
f 80/80/80 66/66/66 81/81/81
f 81/81/81 66/66/66 67/67/67
f 84/84/84 83/83/83 82/82/82
f 85/85/85 83/83/83 84/84/84
f 86/86/86 83/83/83 85/85/85
f 87/87/87 83/83/83 86/86/86
f 88/88/88 83/83/83 87/87/87
f 89/89/89 83/83/83 88/88/88
f 90/90/90 83/83/83 89/89/89
f 91/91/91 83/83/83 90/90/90
f 92/92/92 83/83/83 91/91/91
f 93/93/93 83/83/83 92/92/92
f 94/94/94 83/83/83 93/93/93
f 95/95/95 83/83/83 94/94/94
f 96/96/96 83/83/83 95/95/95
f 97/97/97 83/83/83 96/96/96
f 98/98/98 83/83/83 97/97/97
f 82/82/82 83/83/83 98/98/98
