g pb_Mesh-86314
v 6.5 -45.19754 -2.99988
v 17.99994 -45.19753 -2.999912
v 17.99991 -45.19754 8.500031
v 17.99991 -45.19754 20.00003
v -5 -45.19754 -2.99988
v -27.99991 -45.19754 8.500031
v -27.99991 -45.19754 -2.999969
v -16.5 -45.19754 -2.99988
v -27.99991 -45.19754 20.00003
v -27.99994 -46.25501 43.70634
v -27.99991 -45.19754 31.50003
v -17 -46.25502 43.70631
v -4.5 -46.25502 43.70631
v 8 -46.25502 43.70631
v 17.99991 -45.19754 31.50003
v 17.99994 -46.25501 43.70634
vt -6.502766 -2.061406
vt -18.00271 -2.061452
vt -18.00268 9.436015
vt -18.00268 20.93354
vt 4.997234 -2.061391
vt 27.99714 9.436073
vt 27.99714 -2.061451
vt 16.49723 -2.061377
vt 27.99714 20.9336
vt 27.99711 44.65675
vt 27.99714 32.43112
vt 16.99717 44.65671
vt 4.497169 44.65669
vt -8.002831 44.65668
vt -18.00268 32.43106
vt -18.00277 44.65669
vn -3.317124E-07 1 3.317124E-07
vn -1.326854E-06 1 1.326854E-06
vn -6.634264E-07 1 6.634264E-07
vn -0.004570632 0.9998224 0.01828246
vn 0 1 0
vn 0 1 0
vn 0 1 0
vn 0 1 0
vn 0.004080592 0.9997762 0.02075773
vn 1.621446E-06 0.9962684 0.08630963
vn 0.02180289 0.998769 0.04455253
vn 7.589734E-07 0.9962683 0.08631039
vn 0.01689636 0.9991823 0.03673121
vn -0.007481401 0.9989786 0.04456208
vn -0.05118199 0.9976972 0.04450439
vn -1.783591E-06 0.9962683 0.08630962
g pb_Mesh-86314_0
f 3/3/3 2/2/2 1/1/1
f 4/4/4 3/3/3 1/1/1
f 5/5/5 4/4/4 1/1/1
f 8/8/8 7/7/7 6/6/6
f 5/5/5 8/8/8 6/6/6
f 9/9/9 5/5/5 6/6/6
f 4/4/4 5/5/5 9/9/9
f 12/12/12 11/11/11 10/10/10
f 12/12/12 13/13/13 11/11/11
f 11/11/11 13/13/13 9/9/9
f 9/9/9 13/13/13 14/14/14
f 4/4/4 9/9/9 14/14/14
f 14/14/14 15/15/15 4/4/4
f 16/16/16 15/15/15 14/14/14
