g pb_Mesh215390
v 1 -8.999996 17
v 0.5 -8.999996 17
v 1.000002 2.500004 18.49999
v -1.999998 2.500004 18.49999
v 0.5 -8.999996 17
v 0.5 -8.999996 14
v -1.999998 2.500004 18.49999
v -1.999999 2.500004 12.49999
v 0.5 -8.999996 14
v 1 -8.999996 14
v -1.999999 2.500004 12.49999
v 1.000002 2.500004 12.49999
v 1 -8.999996 14
v 0.5 -8.999996 14
v 1 -8.999996 17
v 0.5 -8.999996 17
v 1 -8.999996 14
v 1 -8.999996 17
v 1.000002 2.500004 12.49999
v 1.000002 2.500004 18.49999
vt -4.000002 -5.250005
vt -4.125002 -5.250005
vt -4.000002 -2.500005
vt -4.750002 -2.500005
vt -14.5 23.49959
vt -15 23.49959
vt -14.5 24.5
vt -15 24.5
vt -3.375002 -5.250003
vt -3.500002 -5.250003
vt -2.749997 -2.500003
vt -3.499998 -2.500003
vt 1 14
vt 0.5 14
vt 1 17
vt 0.5 17
vt -15.3125 -3.968746
vt -15.6875 -3.968746
vt -15.12499 -2.531246
vt -15.87499 -2.531246
vn 0 -0.1293387 0.9916005
vn 0 -0.1293387 0.9916005
vn 0 -0.1293387 0.9916005
vn 0 -0.1293387 0.9916004
vn -0.9771764 -0.2124295 0
vn -0.9771765 -0.2124295 9.003941E-08
vn -0.9771765 -0.2124295 9.003941E-08
vn -0.9771764 -0.2124295 1.350591E-07
vn 0 -0.1293398 -0.9916004
vn 0 -0.1293397 -0.9916003
vn 0 -0.1293397 -0.9916003
vn 0 -0.1293397 -0.9916003
vn 0 -1 0
vn 0 -1 0
vn 0 -1 0
vn 0 -1 0
vn 1 -1.347583E-07 0
vn 1 -1.658564E-07 -7.947285E-08
vn 1 -1.658564E-07 -7.947285E-08
vn 1 -1.814055E-07 -1.192093E-07
g pb_Mesh215390_0
f 3/3/3 2/2/2 1/1/1
f 3/3/3 4/4/4 2/2/2
f 7/7/7 6/6/6 5/5/5
f 7/7/7 8/8/8 6/6/6
f 11/11/11 10/10/10 9/9/9
f 11/11/11 12/12/12 10/10/10
f 15/15/15 14/14/14 13/13/13
f 15/15/15 16/16/16 14/14/14
g pb_Mesh215390_1
f 19/19/19 18/18/18 17/17/17
f 19/19/19 20/20/20 18/18/18
