g pb_Mesh408914
v 0 0 0
v -1.75 0 -3.031089
v 0 1 0
v -1.75 1 -3.031089
v -1.06 0 -3.031089
v 0.345 0 -0.5975575
v -1.06 1 -3.031089
v 0.345 1 -0.5975575
v 3.5 0 -2.384186E-07
v 0 0 0
v 3.5 1 -2.384186E-07
v 0 1 0
v 0.345 0 -0.5975575
v 3.155 0 -0.5975578
v 0.345 1 -0.5975575
v 3.155 1 -0.5975578
v 5.25 0 -3.031089
v 3.5 0 -2.384186E-07
v 5.25 1 -3.031089
v 3.5 1 -2.384186E-07
v 3.155 0 -0.5975578
v 4.56 0 -3.031089
v 3.155 1 -0.5975578
v 4.56 1 -3.031089
v 3.5 0 -6.062178
v 5.25 0 -3.031089
v 3.5 1 -6.062178
v 5.25 1 -3.031089
v 4.56 0 -3.031089
v 3.155 0 -5.464621
v 4.56 1 -3.031089
v 3.155 1 -5.464621
v 2.384186E-07 0 -6.062178
v 3.5 0 -6.062178
v 2.384186E-07 1 -6.062178
v 3.5 1 -6.062178
v 3.155 0 -5.464621
v 0.3450001 0 -5.464621
v 3.155 1 -5.464621
v 0.3450001 1 -5.464621
v -1.75 0 -3.031089
v 2.384186E-07 0 -6.062178
v -1.75 1 -3.031089
v 2.384186E-07 1 -6.062178
v 0.3450001 0 -5.464621
v -1.06 0 -3.031089
v 0.3450001 1 -5.464621
v -1.06 1 -3.031089
v 0 2 0
v -1.75 2 -3.031089
v -1.06 2 -3.031089
v 0.345 2 -0.5975575
v 3.5 2 -2.384186E-07
v 0 2 0
v 0.345 2 -0.5975575
v 3.155 2 -0.5975578
v 5.25 2 -3.031089
v 3.5 2 -2.384186E-07
v 3.155 2 -0.5975578
v 4.56 2 -3.031089
v 3.5 2 -6.062178
v 5.25 2 -3.031089
v 4.56 2 -3.031089
v 3.155 2 -5.464621
v 2.384186E-07 2 -6.062178
v 3.5 2 -6.062178
v 3.155 2 -5.464621
v 0.3450001 2 -5.464621
v -1.75 2 -3.031089
v 2.384186E-07 2 -6.062178
v 0.3450001 2 -5.464621
v -1.06 2 -3.031089
v -1.75 0 -3.031089
v 0 0 0
v -1.06 0 -3.031089
v 0.345 0 -0.5975575
v 0 2 0
v -1.75 2 -3.031089
v 0.345 2 -0.5975575
v -1.06 2 -3.031089
v 3.5 0 -2.384186E-07
v 3.155 0 -0.5975578
v 3.5 2 -2.384186E-07
v 3.155 2 -0.5975578
v 5.25 0 -3.031089
v 4.56 0 -3.031089
v 5.25 2 -3.031089
v 4.56 2 -3.031089
v 3.5 0 -6.062178
v 3.155 0 -5.464621
v 3.5 2 -6.062178
v 3.155 2 -5.464621
v 2.384186E-07 0 -6.062178
v 0.3450001 0 -5.464621
v 2.384186E-07 2 -6.062178
v 0.3450001 2 -5.464621
vt 0 0
vt -3.5 0
vt 0 1
vt -3.5 1
vt 3.155 0
vt 0.345 0
vt 3.155 1
vt 0.345 1
vt 3.5 0
vt 0 0
vt 3.5 1
vt 0 1
vt -0.3450001 0
vt -3.155 0
vt -0.3450001 1
vt -3.155 1
vt 5.25 0
vt 1.75 0
vt 5.25 1
vt 1.75 1
vt -2.095 0
vt -4.905 0
vt -2.095 1
vt -4.905 1
vt 3.5 0
vt -5.136005E-07 0
vt 3.5 1
vt -5.136005E-07 1
vt -0.3450001 0
vt -3.155 0
vt -0.3450001 1
vt -3.155 1
vt -2.384186E-07 0
vt -3.5 0
vt -2.384186E-07 1
vt -3.5 1
vt 3.155 0
vt 0.3450001 0
vt 3.155 1
vt 0.3450001 1
vt -1.75 0
vt -5.25 0
vt -1.75 1
vt -5.25 1
vt 4.905 0
vt 2.095 0
vt 4.905 1
vt 2.095 1
vt 0 2
vt -3.5 2
vt 3.155 2
vt 0.345 2
vt 3.5 2
vt 0 2
vt -0.3450001 2
vt -3.155 2
vt 5.25 2
vt 1.75 2
vt -2.095 2
vt -4.905 2
vt 3.5 2
vt -5.136005E-07 2
vt -0.3450001 2
vt -3.155 2
vt -2.384186E-07 2
vt -3.5 2
vt 3.155 2
vt 0.3450001 2
vt -1.75 2
vt -5.25 2
vt 4.905 2
vt 2.095 2
vt -1.75 -3.031089
vt 0 0
vt -1.06 -3.031089
vt 0.345 -0.5975575
vt 0 0
vt 1.75 -3.031089
vt -0.345 -0.5975575
vt 1.06 -3.031089
vt 3.5 -2.384186E-07
vt 3.155 -0.5975578
vt -3.5 -2.384186E-07
vt -3.155 -0.5975578
vt 5.25 -3.031089
vt 4.56 -3.031089
vt -5.25 -3.031089
vt -4.56 -3.031089
vt 3.5 -6.062178
vt 3.155 -5.464621
vt -3.5 -6.062178
vt -3.155 -5.464621
vt 2.384186E-07 -6.062178
vt 0.3450001 -5.464621
vt -2.384186E-07 -6.062178
vt -0.3450001 -5.464621
vn -0.8660254 0 0.5
vn -0.8660254 0 0.5
vn -0.8660254 0 0.5
vn -0.8660254 0 0.5
vn 0.8660254 0 -0.5
vn 0.8660254 0 -0.5
vn 0.8660254 0 -0.5
vn 0.8660254 0 -0.5
vn 6.81196E-08 0 1
vn 6.81196E-08 0 1
vn 6.81196E-08 0 1
vn 6.81196E-08 0 1
vn -8.484647E-08 0 -1
vn -8.484647E-08 0 -1
vn -8.484647E-08 0 -1
vn -8.484647E-08 0 -1
vn 0.8660254 0 0.5
vn 0.8660254 0 0.5
vn 0.8660254 0 0.5
vn 0.8660254 0 0.5
vn -0.8660254 0 -0.4999999
vn -0.8660254 0 -0.4999999
vn -0.8660254 0 -0.4999999
vn -0.8660254 0 -0.4999999
vn 0.8660253 0 -0.5000001
vn 0.8660253 0 -0.5000001
vn 0.8660253 0 -0.5000001
vn 0.8660253 0 -0.5000001
vn -0.8660254 0 0.5000001
vn -0.8660254 0 0.5000001
vn -0.8660254 0 0.5000001
vn -0.8660254 0 0.5000001
vn 0 0 -1
vn 0 0 -1
vn 0 0 -1
vn 0 0 -1
vn 0 0 1
vn 0 0 1
vn 0 0 1
vn 0 0 1
vn -0.8660254 0 -0.5000001
vn -0.8660254 0 -0.5000001
vn -0.8660254 0 -0.5000001
vn -0.8660254 0 -0.5000001
vn 0.8660254 0 0.5000001
vn 0.8660254 0 0.5000001
vn 0.8660254 0 0.5000001
vn 0.8660254 0 0.5000001
vn -0.8660254 0 0.5
vn -0.8660254 0 0.5
vn 0.8660254 0 -0.5
vn 0.8660254 0 -0.5
vn 6.81196E-08 0 1
vn 6.81196E-08 0 1
vn -8.484647E-08 0 -1
vn -8.484647E-08 0 -1
vn 0.8660254 0 0.5
vn 0.8660254 0 0.5
vn -0.8660254 0 -0.4999999
vn -0.8660254 0 -0.4999999
vn 0.8660253 0 -0.5000001
vn 0.8660253 0 -0.5000001
vn -0.8660254 0 0.5000001
vn -0.8660254 0 0.5000001
vn 0 0 -1
vn 0 0 -1
vn 0 0 1
vn 0 0 1
vn -0.8660254 0 -0.5000001
vn -0.8660254 0 -0.5000001
vn 0.8660254 0 0.5000001
vn 0.8660254 0 0.5000001
vn 0 -1 0
vn 0 -1 0
vn 0 -1 0
vn 0 -0.9999999 0
vn 0 1 0
vn 0 1 0
vn 0 1 0
vn 0 0.9999999 0
vn 0 -1 0
vn 0 -1 0
vn 0 1 0
vn 0 1 0
vn 0 -1 0
vn 0 -0.9999999 0
vn 0 1 0
vn 0 1 0
vn 0 -1 0
vn 0 -1 0
vn 0 1 0
vn 0 1 0
vn 0 -1 0
vn 0 -1 0
vn 0 1 0
vn 0 1 0
g pb_Mesh408914_0
f 3/3/3 2/2/2 1/1/1
f 3/3/3 4/4/4 2/2/2
f 7/7/7 6/6/6 5/5/5
f 7/7/7 8/8/8 6/6/6
f 11/11/11 10/10/10 9/9/9
f 11/11/11 12/12/12 10/10/10
f 15/15/15 14/14/14 13/13/13
f 15/15/15 16/16/16 14/14/14
f 19/19/19 18/18/18 17/17/17
f 19/19/19 20/20/20 18/18/18
f 23/23/23 22/22/22 21/21/21
f 23/23/23 24/24/24 22/22/22
f 27/27/27 26/26/26 25/25/25
f 27/27/27 28/28/28 26/26/26
f 31/31/31 30/30/30 29/29/29
f 31/31/31 32/32/32 30/30/30
f 35/35/35 34/34/34 33/33/33
f 35/35/35 36/36/36 34/34/34
f 39/39/39 38/38/38 37/37/37
f 39/39/39 40/40/40 38/38/38
f 43/43/43 42/42/42 41/41/41
f 43/43/43 44/44/44 42/42/42
f 47/47/47 46/46/46 45/45/45
f 47/47/47 48/48/48 46/46/46
f 49/49/49 4/4/4 3/3/3
f 49/49/49 50/50/50 4/4/4
f 51/51/51 8/8/8 7/7/7
f 51/51/51 52/52/52 8/8/8
f 53/53/53 12/12/12 11/11/11
f 53/53/53 54/54/54 12/12/12
f 55/55/55 16/16/16 15/15/15
f 55/55/55 56/56/56 16/16/16
f 57/57/57 20/20/20 19/19/19
f 57/57/57 58/58/58 20/20/20
f 59/59/59 24/24/24 23/23/23
f 59/59/59 60/60/60 24/24/24
f 61/61/61 28/28/28 27/27/27
f 61/61/61 62/62/62 28/28/28
f 63/63/63 32/32/32 31/31/31
f 63/63/63 64/64/64 32/32/32
f 65/65/65 36/36/36 35/35/35
f 65/65/65 66/66/66 36/36/36
f 67/67/67 40/40/40 39/39/39
f 67/67/67 68/68/68 40/40/40
f 69/69/69 44/44/44 43/43/43
f 69/69/69 70/70/70 44/44/44
f 71/71/71 48/48/48 47/47/47
f 71/71/71 72/72/72 48/48/48
f 75/75/75 74/74/74 73/73/73
f 75/75/75 76/76/76 74/74/74
f 79/79/79 78/78/78 77/77/77
f 79/79/79 80/80/80 78/78/78
f 76/76/76 81/81/81 74/74/74
f 76/76/76 82/82/82 81/81/81
f 84/84/84 77/77/77 83/83/83
f 84/84/84 79/79/79 77/77/77
f 82/82/82 85/85/85 81/81/81
f 82/82/82 86/86/86 85/85/85
f 88/88/88 83/83/83 87/87/87
f 88/88/88 84/84/84 83/83/83
f 86/86/86 89/89/89 85/85/85
f 86/86/86 90/90/90 89/89/89
f 92/92/92 87/87/87 91/91/91
f 92/92/92 88/88/88 87/87/87
f 90/90/90 93/93/93 89/89/89
f 90/90/90 94/94/94 93/93/93
f 96/96/96 91/91/91 95/95/95
f 96/96/96 92/92/92 91/91/91
f 94/94/94 73/73/73 93/93/93
f 94/94/94 75/75/75 73/73/73
f 80/80/80 95/95/95 78/78/78
f 80/80/80 96/96/96 95/95/95
