g pb_Mesh215530
v -2 -1 -2.5
v -1.5 -1 -17
v -2.5 2.5 -2.5
v -1.5 -0.5 -17
v -1.5 -1 -17
v -0.5 -1 -17
v -1.5 -0.5 -17
v -0.5 -0.5 -17
v -0.5 -1 -17
v 0 -1 -2.5
v -0.5 -0.5 -17
v 0.5 2.5 -2.5
v 0.5 2.5 -2.5
v -2.5 2.5 -2.5
v -0.5 -0.5 -17
v -1.5 -0.5 -17
v -0.5 -1 -17
v -1.5 -1 -17
v 0 -1 -2.5
v -2 -1 -2.5
vt -3 -1.5
vt -9 -1.5
vt -3 -0.4999999
vt -9 -0.9999999
vt 2.5 -1.5
vt 0.5000001 -1.5
vt 2.5 -1
vt 0.4999995 -0.9999999
vt -2.987109 1
vt -9.000023 1
vt -2.987083 1.5
vt -8.999998 2
vt 1.054688 -2.302072
vt 1.945313 -2.302072
vt 1.351563 -6.697927
vt 1.648438 -6.697927
vt -0.5 -17
vt -1.5 -17
vt 0 -2.5
vt -2 -2.5
vn -0.9893732 -0.141339 -0.03411632
vn -0.9915435 -0.1239429 -0.03846505
vn -0.9915435 -0.1239429 -0.03846505
vn -0.9976303 0 -0.06880209
vn 0 0 -1
vn 0 0 -1
vn 0 0 -1
vn 0 0 -1
vn 0.999406 0 -0.03446228
vn 0.9915435 -0.1239429 -0.03846505
vn 0.9915435 -0.1239429 -0.03846505
vn 0.989197 -0.1413139 -0.03898313
vn 0 0.9792604 -0.2026056
vn 0 0.9792604 -0.2026056
vn 0 0.9792604 -0.2026056
vn 0 0.9792604 -0.2026056
vn 0 -1 0
vn 0 -1 0
vn 0 -1 0
vn 0 -1 0
g pb_Mesh215530_0
f 3/3/3 2/2/2 1/1/1
f 3/3/3 4/4/4 2/2/2
f 7/7/7 6/6/6 5/5/5
f 7/7/7 8/8/8 6/6/6
f 11/11/11 10/10/10 9/9/9
f 11/11/11 12/12/12 10/10/10
g pb_Mesh215530_1
f 15/15/15 14/14/14 13/13/13
f 15/15/15 16/16/16 14/14/14
g pb_Mesh215530_2
f 19/19/19 18/18/18 17/17/17
f 19/19/19 20/20/20 18/18/18
