g pb_Mesh58930
v 2.297509 -1.476284 2.513199
v -2.125515 -1.476284 2.484359
v 2.271982 0.25 2.499999
v -2.13848 0.25 2.486454
v -2.125515 -1.476284 2.484359
v -0.8335138 -1.50074 -3.577229
v -2.13848 0.25 2.486454
v -0.8335138 -1.25 -3.577229
v -0.8335138 -1.50074 -3.577229
v 0.6618114 -1.50074 -3.57807
v -0.8335138 -1.25 -3.577229
v 0.6618114 -1.25 -3.57807
v 0.6618114 -1.50074 -3.57807
v 2.297509 -1.476284 2.513199
v 0.6618114 -1.25 -3.57807
v 2.271982 0.25 2.499999
v 2.271982 0.25 2.499999
v -2.13848 0.25 2.486454
v 0.6618114 -1.25 -3.57807
v -0.8335138 -1.25 -3.577229
v 0.6618114 -1.50074 -3.57807
v -0.8335138 -1.50074 -3.577229
v 2.297509 -1.476284 2.513199
v -2.125515 -1.476284 2.484359
vt 2.313846 -1.495102
vt -2.109272 -1.495102
vt 2.288234 0.2312315
vt -2.122223 0.2311167
vt 2.872826 -1.465176
vt -3.324925 -1.489632
vt 2.877577 0.2611518
vt -3.324925 -1.238899
vt 0.8315026 -1.50074
vt -0.6638229 -1.50074
vt 0.8315026 -1.25
vt -0.6638229 -1.25
vt 3.28401 -1.50074
vt -3.023054 -1.476284
vt 3.28401 -1.25
vt -3.003686 0.25
vt -2.271791 2.487424
vt 2.138669 2.473472
vt -0.6627594 -3.773293
vt 0.8325654 -3.772749
vt 0.661808 -3.584065
vt -0.8335172 -3.583225
vt 2.297505 2.507252
vt -2.125519 2.478413
vn -0.006519954 0.00754944 0.9999502
vn -0.004798043 0.00316278 0.9999834
vn -0.004798043 0.00316278 0.9999834
vn -0.003071044 -0.001236639 0.9999945
vn -0.9780115 -0.007092378 -0.2084303
vn -0.9779645 -0.0061923 -0.2086801
vn -0.9779645 -0.0061923 -0.2086801
vn -0.9776169 0 -0.2103932
vn -0.0005621946 0 -0.9999999
vn -0.0005621946 0 -0.9999999
vn -0.0005621946 0 -0.9999999
vn -0.0005621946 0 -0.9999999
vn 0.9657851 0 -0.2593437
vn 0.9658293 0.01074171 -0.2589565
vn 0.9658293 0.01074171 -0.2589565
vn 0.9658264 0.01230233 -0.2588978
vn 0.0007363917 0.9708259 -0.2397842
vn 0.0005160463 0.9708024 -0.2398801
vn 0.0005160463 0.9708024 -0.2398801
vn -0.000134891 0.9707326 -0.2401634
vn 2.256814E-06 -0.999992 0.004014293
vn -1.904248E-05 -0.9999918 0.004025242
vn -1.904248E-05 -0.9999918 0.004025242
vn -2.62696E-05 -0.9999918 0.004028958
g pb_Mesh58930_0
f 3/3/3 2/2/2 1/1/1
f 3/3/3 4/4/4 2/2/2
g pb_Mesh58930_1
f 7/7/7 6/6/6 5/5/5
f 7/7/7 8/8/8 6/6/6
f 11/11/11 10/10/10 9/9/9
f 11/11/11 12/12/12 10/10/10
f 15/15/15 14/14/14 13/13/13
f 15/15/15 16/16/16 14/14/14
f 19/19/19 18/18/18 17/17/17
f 19/19/19 20/20/20 18/18/18
f 23/23/23 22/22/22 21/21/21
f 23/23/23 24/24/24 22/22/22
