g pb_Mesh216524
v -4.768372E-07 -1 -12
v -2.000001 -1 -12
v 0.5000073 1 -11.99999
v -2.499993 1 -11.99999
v -2.000001 -1 -12
v -1.500001 -1 -17
v -2.499993 1 -11.99999
v -1.500001 -0.5 -17
v -1.500001 -1 -17
v -0.5 -1 -17
v -1.500001 -0.5 -17
v -0.5 -0.5 -17
v -0.5 -1 -17
v -4.768372E-07 -1 -12
v -0.5 -0.5 -17
v 0.5000073 1 -11.99999
v 0.5000073 1 -11.99999
v -2.499993 1 -11.99999
v -0.5 -0.5 -17
v -1.500001 -0.5 -17
v -0.5 -1 -17
v -1.500001 -1 -17
v -4.768372E-07 -1 -12
v -2.000001 -1 -12
vt -0.8749938 -0.1250458
vt -1.124994 -0.1250458
vt -0.8124928 0.1249542
vt -1.187493 0.1249542
vt -13.91808 0.6998811
vt -14.5462 0.6998811
vt -13.91186 0.9574999
vt -14.5462 0.7605327
vt 1.062533 -0.78125
vt 0.937533 -0.78125
vt 1.062533 -0.71875
vt 0.937533 -0.71875
vt 14.7452 -0.125
vt 14.11709 -0.125
vt 14.7452 -0.0625
vt 14.11087 0.125
vt 0.8124928 -13.49038
vt 1.187493 -13.49038
vt 0.9374937 -14.1429
vt 1.062494 -14.1429
vt -0.9375005 -14.8125
vt -1.062501 -14.8125
vt -0.8750006 -14.1875
vt -1.125001 -14.1875
vn 0 -3.814697E-06 1
vn 0 -3.814697E-06 1
vn 0 -3.814697E-06 1
vn 0 -3.814697E-06 1
vn -0.9656101 -0.2413985 -0.09656092
vn -0.9738624 -0.1947692 -0.1168631
vn -0.9738624 -0.1947692 -0.1168631
vn -0.980581 0 -0.1961143
vn 1.907346E-06 0 -1
vn 1.907346E-06 0 -1
vn 1.907346E-06 0 -1
vn 1.907346E-06 0 -1
vn 0.9950373 0 -0.09950367
vn 0.9738612 -0.1947749 -0.1168636
vn 0.9738612 -0.1947749 -0.1168636
vn 0.963086 -0.2407748 -0.120386
vn 0 0.9578264 -0.2873476
vn 1.370179E-07 0.9578263 -0.2873475
vn 1.370179E-07 0.9578263 -0.2873475
vn 5.480709E-07 0.9578264 -0.2873473
vn 0 -1 0
vn 0 -1 0
vn 0 -1 0
vn 0 -1 0
g pb_Mesh216524_0
f 3/3/3 2/2/2 1/1/1
f 3/3/3 4/4/4 2/2/2
f 7/7/7 6/6/6 5/5/5
f 7/7/7 8/8/8 6/6/6
f 11/11/11 10/10/10 9/9/9
f 11/11/11 12/12/12 10/10/10
f 15/15/15 14/14/14 13/13/13
f 15/15/15 16/16/16 14/14/14
f 19/19/19 18/18/18 17/17/17
f 19/19/19 20/20/20 18/18/18
f 23/23/23 22/22/22 21/21/21
f 23/23/23 24/24/24 22/22/22
