g pb_Mesh22098
v -10 70 -10
v -20 70 -10
v -20 0 -10
v 0 0 -10
v 0 70 -10
v -20 70 -10
v -10 70 -10
v -10 70 0
v -20 70 0
v 0 70 -10
v 0 70 0
v 0 35 10
v -10 42 10
v 0 70 10
v -5 70 10
v 0 0 10
v -10 0 10
v -20 70 10
v -20 69 10
v -20 70 0
v -20 0 10
v -20 0 -10
v -20 70 -10
v 0 70 0
v 0 70 -10
v 0 35 10
v 0 0 -10
v 0 0 10
v 0 70 10
v -10 70 10
v -5 70 10
v 0 70 10
v -20 70 10
v -17.5 70 10
v -18.5 69 10
v -20 0 10
v -20 69 10
v -18 69.5 10
v -20 70 10
v -17.5 70 10
v -10 70 10
v -10 0 10
v 0 0 10
v 0 0 -10
v -20 0 -10
v -20 0 10
vt 10 39.375
vt 11.25 39.375
vt 11.25 30.625
vt 8.75 30.625
vt 8.75 39.375
vt 11.25 -1.25
vt 10 -1.25
vt 10 0
vt 11.25 0
vt 8.75 -1.25
vt 8.75 0
vt -8.75 35
vt -10 35.875
vt -8.75 39.375
vt -9.375 39.375
vt -8.75 30.625
vt -10 30.625
vt 1.25 39.375
vt 1.25 39.25
vt 0 39.375
vt 1.25 30.625
vt -1.25 30.625
vt -1.25 39.375
vt 0 39.375
vt 1.25 39.375
vt -1.25 35
vt 1.25 30.625
vt -1.25 30.625
vt -1.25 39.375
vt 10 1.25
vt 9.375 1.25
vt 8.75 1.25
vt 11.25 1.25
vt 10.9375 1.25
vt -11.0625 39.25
vt -11.25 30.625
vt -11.25 39.25
vt -11 39.3125
vt -11.25 39.375
vt -10.9375 39.375
vt -10 39.375
vt -10 10
vt 0 10
vt 0 -10
vt -20 -10
vt -20 10
vn 0 0 -1
vn 0 0 -1
vn 0 0 -1
vn 0 0 -1
vn 0 0 -1
vn 0 1 0
vn 0 1 0
vn 0 1 0
vn 0 1 0
vn 0 1 0
vn 0 1 0
vn 0 0 1
vn 0 0 0.9999999
vn 0 0 0.9999999
vn 0 0 1
vn 0 0 1
vn 0 0 1
vn -1 0 0
vn -1 0 0
vn -1 0 0
vn -1 0 0
vn -1 0 0
vn -0.9999999 0 0
vn 1 0 0
vn 1 0 0
vn 1 0 0
vn 1 0 0
vn 1 0 0
vn 1 0 0
vn 0 1 0
vn 0 1 0
vn 0 1 0
vn 0 1 0
vn 0 1 0
vn 0 0 1
vn 0 0 1
vn 0 0 0.9999999
vn 0 0 1
vn 0 0 1
vn 0 0 1
vn 0 0 1
vn 0 -1 0
vn 0 -1 0
vn 0 -1 0
vn 0 -1 0
vn 0 -1 0
g pb_Mesh22098_0
f 3/3/3 2/2/2 1/1/1
f 3/3/3 1/1/1 4/4/4
f 5/5/5 4/4/4 1/1/1
f 8/8/8 7/7/7 6/6/6
f 8/8/8 6/6/6 9/9/9
f 11/11/11 10/10/10 7/7/7
f 11/11/11 7/7/7 8/8/8
f 14/14/14 13/13/13 12/12/12
f 14/14/14 15/15/15 13/13/13
f 17/17/17 16/16/16 12/12/12
f 13/13/13 17/17/17 12/12/12
f 20/20/20 19/19/19 18/18/18
f 22/22/22 21/21/21 19/19/19
f 23/23/23 22/22/22 19/19/19
f 20/20/20 23/23/23 19/19/19
f 26/26/26 25/25/25 24/24/24
f 26/26/26 27/27/27 25/25/25
f 26/26/26 28/28/28 27/27/27
f 29/29/29 26/26/26 24/24/24
f 31/31/31 8/8/8 30/30/30
f 8/8/8 31/31/31 11/11/11
f 31/31/31 32/32/32 11/11/11
f 34/34/34 9/9/9 33/33/33
f 9/9/9 34/34/34 8/8/8
f 34/34/34 30/30/30 8/8/8
f 35/35/35 17/17/17 13/13/13
f 37/37/37 36/36/36 17/17/17
f 35/35/35 37/37/37 17/17/17
f 38/38/38 35/35/35 13/13/13
f 38/38/38 37/37/37 35/35/35
f 38/38/38 39/39/39 37/37/37
f 40/40/40 39/39/39 38/38/38
f 13/13/13 15/15/15 38/38/38
f 15/15/15 41/41/41 38/38/38
f 40/40/40 38/38/38 41/41/41
g pb_Mesh22098_1
f 44/44/44 43/43/43 42/42/42
f 44/44/44 42/42/42 45/45/45
f 46/46/46 45/45/45 42/42/42
