g pb_Mesh221534
v 1.000002 -2 18.5
v -1.999998 -2 18.5
v 1 2.5 18
v 0.5 2.5 18
v -1.999998 -2 18.5
v -1.999999 -2 12.5
v 0.5 2.5 18
v 0.5 2.5 13
v -1.999999 -2 12.5
v 1.000002 -2 12.5
v 0.5 2.5 13
v 1 2.5 13
v 1.000002 -2 12.5
v 1.000002 -2 18.5
v 1 2.5 13
v 1 2.5 18
vt -2.499996 -2.499985
vt -3.249997 -2.499985
vt -2.499997 -1.249985
vt -2.624997 -1.249985
vt 14.99999 -6.5
vt 14.5 -6.5
vt 15 -6
vt 14.5 -6
vt -1.249999 -2.499991
vt -1.999999 -2.499991
vt -1.874998 -1.249991
vt -1.999998 -1.249991
vt -15.125 -0.03125036
vt -15.875 -0.03125036
vt -15.1875 0.5312496
vt -15.8125 0.5312496
vn 0 0.1104311 0.9938838
vn 0 0.1104311 0.9938837
vn 0 0.1104311 0.9938837
vn 0 0.1104311 0.9938838
vn -0.8741574 0.4856426 1.042077E-07
vn -0.8741574 0.4856427 5.684055E-08
vn -0.8741574 0.4856427 5.684055E-08
vn -0.8741574 0.4856428 0
vn 0 0.1104322 -0.9938837
vn 0 0.1104322 -0.9938837
vn 0 0.1104322 -0.9938837
vn 0 0.1104322 -0.9938837
vn 1 3.57628E-07 -1.192093E-07
vn 1 4.238553E-07 -6.502324E-08
vn 1 4.238553E-07 -6.502324E-08
vn 1 5.033281E-07 0
g pb_Mesh221534_0
f 3/3/3 2/2/2 1/1/1
f 3/3/3 4/4/4 2/2/2
f 7/7/7 6/6/6 5/5/5
f 7/7/7 8/8/8 6/6/6
f 11/11/11 10/10/10 9/9/9
f 11/11/11 12/12/12 10/10/10
g pb_Mesh221534_1
f 15/15/15 14/14/14 13/13/13
f 15/15/15 16/16/16 14/14/14
