g pb_Mesh1141246
v 9 18 -0.5
v 11 18 -0.5
v 11 18 3.75
v 9 18 3.75
v 11 18 8
v 9 18 8
v 5 18 -0.5
v 7 18 -0.5
v 7 18 3.75
v 5 18 3.75
v 7 18 8
v 5 18 8
v 5 18 -9
v 7 18 -9
v 7 18 -4.75
v 5 18 -4.75
v 9 18 -9
v 9 18 -4.75
v 11 18 -9
v 11 18 -4.75
v 7 18 -9
v 5 18 -9
v 13 9 -9
v 5 0 -9
v 13 0 -9
v 9 18 -9
v 11 18 -9
v 13 18 -9
v 13 18 -4.75
v 13 18 -6.875
v 13 12.85714 -0.5
v 13 18 -2.625
v 13 18 -9
v 13 9 -9
v 13 0 -0.5
v 13 0 -9
v 13 9 8
v 13 0 8
v 13 18 5.875
v 13 18 8
v 13 18 3.75
v 13 18 1.625
v 13 18 -0.5
v 13 18 -0.5
v 13 18 1.625
v 13 18 3.75
v 13 18 5.875
v 13 18 8
v 13 18 -9
v 13 18 -6.875
v 13 18 -4.75
v 13 18 -2.625
v 5 0 8
v 13 0 8
v 13 0 -0.5
v 5 0 -9
v 13 0 -9
vt -9 -0.09999999
vt -9.5 -0.09999999
vt -9.5 0.9625
vt -9 0.9625
vt -9.5 2.025
vt -9 2.025
vt -8 -0.09999999
vt -8.5 -0.09999999
vt -8.5 0.9625
vt -8 0.9625
vt -8.5 2.025
vt -8 2.025
vt -8 -2.225
vt -8.5 -2.225
vt -8.5 -1.1625
vt -8 -1.1625
vt -9 -2.225
vt -9 -1.1625
vt -9.5 -2.225
vt -9.5 -1.1625
vt -8.75 10.525
vt -8.5 10.525
vt -9.5 9.4
vt -8.5 8.275
vt -9.5 8.275
vt -9 10.525
vt -9.25 10.525
vt -9.5 10.525
vt -1.03125 10.525
vt -1.296875 10.525
vt -0.5 9.882143
vt -0.765625 10.525
vt -1.5625 10.525
vt -1.5625 9.4
vt -0.5 8.275
vt -1.5625 8.275
vt 0.5625 9.4
vt 0.5625 8.275
vt 0.296875 10.525
vt 0.5625 10.525
vt 0.03125 10.525
vt -0.234375 10.525
vt -0.5 10.525
vt -10 -0.09999999
vt -10 0.43125
vt -10 0.9625
vt -10 1.49375
vt -10 2.025
vt -10 -2.225
vt -10 -1.69375
vt -10 -1.1625
vt -10 -0.63125
vt 5 8.4
vt 13 8.4
vt 13 -0.09999999
vt 5 -8.6
vt 13 -8.6
vn 0 1 0
vn 0 1 0
vn 0 1 0
vn 0 1 0
vn 0 1 0
vn 0 1 0
vn 0 1 0
vn 0 1 0
vn 0 1 0
vn 0 1 0
vn 0 1 0
vn 0 1 0
vn 0 1 0
vn 0 1 0
vn 0 1 0
vn 0 1 0
vn 0 1 0
vn 0 1 0
vn 0 1 0
vn 0 1 0
vn 0 0 -1
vn 0 0 -1
vn 0 0 -1
vn 0 0 -1
vn 0 0 -1
vn 0 0 -1
vn 0 0 -1
vn 0 0 -1
vn 1 1.854367E-07 0
vn 1 1.854367E-07 0
vn 1 1.854367E-07 0
vn 1 1.854367E-07 0
vn 1 0 0
vn 0.9999999 2.317958E-08 -9.817236E-08
vn 1 -4.363216E-08 -4.619875E-08
vn 1 0 0
vn 1 -4.363216E-08 4.619875E-08
vn 1 0 0
vn 0.9999999 2.317958E-08 9.817235E-08
vn 1 0 0
vn 1 1.854367E-07 0
vn 1 1.854367E-07 0
vn 1 1.854367E-07 0
vn 0 1 0
vn 0 1 0
vn 0 1 0
vn 0 1 0
vn 0 1 0
vn 0 1 0
vn 0 1 0
vn 0 1 0
vn 0 1 0
vn 0 -1 0
vn 0 -1 0
vn 0 -1 0
vn 0 -1 0
vn 0 -1 0
g pb_Mesh1141246_0
f 3/3/3 2/2/2 1/1/1
f 3/3/3 1/1/1 4/4/4
f 5/5/5 3/3/3 4/4/4
f 5/5/5 4/4/4 6/6/6
f 9/9/9 8/8/8 7/7/7
f 9/9/9 7/7/7 10/10/10
f 4/4/4 1/1/1 8/8/8
f 4/4/4 8/8/8 9/9/9
f 6/6/6 4/4/4 9/9/9
f 6/6/6 9/9/9 11/11/11
f 11/11/11 9/9/9 10/10/10
f 11/11/11 10/10/10 12/12/12
f 15/15/15 14/14/14 13/13/13
f 15/15/15 13/13/13 16/16/16
f 18/18/18 17/17/17 14/14/14
f 18/18/18 14/14/14 15/15/15
f 1/1/1 18/18/18 15/15/15
f 1/1/1 15/15/15 8/8/8
f 8/8/8 15/15/15 16/16/16
f 8/8/8 16/16/16 7/7/7
f 20/20/20 19/19/19 17/17/17
f 20/20/20 17/17/17 18/18/18
f 2/2/2 20/20/20 18/18/18
f 2/2/2 18/18/18 1/1/1
f 23/23/23 22/22/22 21/21/21
f 23/23/23 24/24/24 22/22/22
f 23/23/23 25/25/25 24/24/24
f 23/23/23 21/21/21 26/26/26
f 23/23/23 26/26/26 27/27/27
f 28/28/28 23/23/23 27/27/27
f 31/31/31 30/30/30 29/29/29
f 31/31/31 29/29/29 32/32/32
f 34/34/34 33/33/33 30/30/30
f 34/34/34 30/30/30 31/31/31
f 31/31/31 35/35/35 34/34/34
f 35/35/35 36/36/36 34/34/34
f 37/37/37 35/35/35 31/31/31
f 37/37/37 38/38/38 35/35/35
f 37/37/37 31/31/31 39/39/39
f 40/40/40 37/37/37 39/39/39
f 31/31/31 42/42/42 41/41/41
f 41/41/41 39/39/39 31/31/31
f 43/43/43 31/31/31 32/32/32
f 31/31/31 43/43/43 42/42/42
f 45/45/45 44/44/44 2/2/2
f 3/3/3 45/45/45 2/2/2
f 3/3/3 46/46/46 45/45/45
f 47/47/47 46/46/46 3/3/3
f 5/5/5 47/47/47 3/3/3
f 5/5/5 48/48/48 47/47/47
f 50/50/50 49/49/49 19/19/19
f 20/20/20 50/50/50 19/19/19
f 20/20/20 51/51/51 50/50/50
f 52/52/52 51/51/51 20/20/20
f 2/2/2 52/52/52 20/20/20
f 2/2/2 44/44/44 52/52/52
g pb_Mesh1141246_1
f 55/55/55 54/54/54 53/53/53
f 56/56/56 55/55/55 53/53/53
f 56/56/56 57/57/57 55/55/55
