g pb_Mesh408836
v -5 60 -0.4966531
v 5.5 60 -0.4966531
v 5.5 60 4.221546
v -5 60 4.221546
v 5.5 60 8.939746
v -5 60 8.939746
v -25 60 -0.4966527
v -15.5 60 -0.4966531
v -15.5 60 4.221546
v -25 60 3.97322
v -17 60 8.939746
v -25 60 8.939746
v -15.5 60 -5.214852
v -5 60 -5.214852
v -25 60 -4.966526
v 5.5 60 -5.214852
v 16 60 -0.4966531
v 16 60 1.862447
v 16 60 4.221546
v 16 60 6.580646
v 16 60 8.939746
v -20.25 60 -9.933052
v -15.5 60 -9.933052
v -25 60 -9.933052
v -10.25 60 -9.933052
v -5 60 -9.933052
v 0.25 60 -9.933052
v 5.5 60 -9.933052
v 10.75 60 -9.933052
v 16 60 -9.933052
v 16 60 -7.573952
v 16 60 -5.214852
v 16 60 -2.855753
v 16 0 8.939746
v -4.5 0 -9.933052
v -25 0 8.939746
v -25 0 -9.933052
v 16 0 -0.4966531
v 16 0 -9.933052
v 16 60 8.939746
v 16 30 8.939746
v 5.5 60 8.939746
v -5 60 8.939746
v -17 60 8.939746
v 16 0 8.939746
v -25 0 8.939746
v -25 60 8.939746
v -25 0 8.939746
v -25 0 -9.933052
v -25 30 -9.933052
v -25 60 8.939746
v -25 60 3.97322
v -25 60 -0.4966527
v -25 60 -4.966526
v -25 60 -9.933052
v -15.5 60 -9.933052
v -20.25 60 -9.933052
v -4.714286 42.85714 -9.933052
v -10.25 60 -9.933052
v -25 60 -9.933052
v -25 30 -9.933052
v -4.5 0 -9.933052
v -25 0 -9.933052
v 16 30 -9.933052
v 16 0 -9.933052
v 10.75 60 -9.933052
v 16 60 -9.933052
v 5.5 60 -9.933052
v 0.25 60 -9.933052
v -5 60 -9.933052
v 16 60 -5.214852
v 16 60 -7.573952
v 16 42.85714 -0.496653
v 16 60 -2.855753
v 16 60 -9.933052
v 16 30 -9.933052
v 16 0 -0.4966531
v 16 0 -9.933052
v 16 30 8.939746
v 16 0 8.939746
v 16 60 8.939746
v 16 60 6.580646
v 16 60 4.221546
v 16 60 1.862447
v 16 60 -0.4966531
vt 4.5625 -0.4966531
vt 3.25 -0.4966531
vt 3.25 0.09312183
vt 4.5625 0.09312183
vt 3.25 0.6828969
vt 4.5625 0.6828969
vt 7.0625 -0.496653
vt 5.875 -0.4966531
vt 5.875 0.09312183
vt 7.0625 0.0620811
vt 6.0625 0.6828969
vt 7.0625 0.6828969
vt 5.875 -1.086428
vt 4.5625 -1.086428
vt 7.0625 -1.055387
vt 3.25 -1.086428
vt 1.9375 -0.4966531
vt 1.9375 -0.2017656
vt 1.9375 0.09312183
vt 1.9375 0.3880093
vt 1.9375 0.6828969
vt 6.46875 -1.676203
vt 5.875 -1.676203
vt 7.0625 -1.676203
vt 5.21875 -1.676203
vt 4.5625 -1.676203
vt 3.90625 -1.676203
vt 3.25 -1.676203
vt 2.59375 -1.676203
vt 1.9375 -1.676203
vt 1.9375 -1.381315
vt 1.9375 -1.086428
vt 1.9375 -0.7915405
vt 16 8.939746
vt -4.5 -9.933052
vt -25 8.939746
vt -25 -9.933052
vt 16 -0.4966531
vt 16 -9.933052
vt 16 60
vt 16 30
vt 5.5 60
vt -5 60
vt -17 60
vt 16 0
vt -25 0
vt -25 60
vt 8.939746 0
vt -9.933052 0
vt -9.933052 30
vt 8.939746 60
vt 3.97322 60
vt -0.4966527 60
vt -4.966526 60
vt -9.933052 60
vt -5.875 33.75
vt -6.46875 33.75
vt -4.526786 31.60714
vt -5.21875 33.75
vt -7.0625 33.75
vt -7.0625 30
vt -4.5 26.25
vt -7.0625 26.25
vt -1.9375 30
vt -1.9375 26.25
vt -2.59375 33.75
vt -1.9375 33.75
vt -3.25 33.75
vt -3.90625 33.75
vt -4.5625 33.75
vt -1.086428 33.75
vt -1.381315 33.75
vt -0.4966531 31.60714
vt -0.7915405 33.75
vt -1.676203 33.75
vt -1.676203 30
vt -0.4966531 26.25
vt -1.676203 26.25
vt 0.6828969 30
vt 0.6828969 26.25
vt 0.6828969 33.75
vt 0.3880093 33.75
vt 0.09312183 33.75
vt -0.2017656 33.75
vt -0.4966531 33.75
vn 0 1 0
vn 0 1 0
vn 0 1 0
vn 0 1 0
vn 0 1 0
vn 0 1 0
vn 0 1 0
vn 0 1 0
vn 0 1 0
vn 0 1 0
vn 0 1 0
vn 0 1 0
vn 0 1 0
vn 0 1 0
vn 0 1 0
vn 0 1 0
vn 0 1 0
vn 0 1 0
vn 0 1 0
vn 0 1 0
vn 0 1 0
vn 0 0.9999999 0
vn 0 1 0
vn 0 1 0
vn 0 1 0
vn 0 1 0
vn 0 1 0
vn 0 1 0
vn 0 1 0
vn 0 1 0
vn 0 1 0
vn 0 1 0
vn 0 1 0
vn 0 -1 0
vn 0 -1 0
vn 0 -1 0
vn 0 -1 0
vn 0 -1 0
vn 0 -1 0
vn 0 0 1
vn 0 0 1
vn 0 0 1
vn 0 0 1
vn 0 0 1
vn 0 0 1
vn 0 0 1
vn 0 0 1
vn -1 0 0
vn -1 0 0
vn -1 0 0
vn -1 0 0
vn -1 0 0
vn -1 0 0
vn -1 0 0
vn -1 0 0
vn 0 0 -1
vn 0 0 -1
vn 0 0 -1
vn 0 0 -1
vn 0 0 -1
vn 0 0 -1
vn 0 0 -1
vn 0 0 -1
vn 0 0 -1
vn 0 0 -1
vn 0 0 -1
vn 0 0 -1
vn 0 0 -1
vn 0 0 -1
vn 0 0 -1
vn 1 0 0
vn 1 0 0
vn 1 0 0
vn 1 0 0
vn 1 0 0
vn 1 0 0
vn 1 0 0
vn 1 0 0
vn 1 0 0
vn 1 0 0
vn 1 0 0
vn 1 0 0
vn 1 0 0
vn 1 0 0
vn 1 0 0
g pb_Mesh408836_0
f 3/3/3 2/2/2 1/1/1
f 3/3/3 1/1/1 4/4/4
f 5/5/5 3/3/3 4/4/4
f 5/5/5 4/4/4 6/6/6
f 9/9/9 8/8/8 7/7/7
f 9/9/9 7/7/7 10/10/10
f 4/4/4 1/1/1 8/8/8
f 4/4/4 8/8/8 9/9/9
f 6/6/6 4/4/4 9/9/9
f 6/6/6 9/9/9 11/11/11
f 11/11/11 9/9/9 10/10/10
f 11/11/11 10/10/10 12/12/12
f 1/1/1 14/14/14 13/13/13
f 1/1/1 13/13/13 8/8/8
f 8/8/8 13/13/13 15/15/15
f 8/8/8 15/15/15 7/7/7
f 2/2/2 16/16/16 14/14/14
f 2/2/2 14/14/14 1/1/1
f 18/18/18 17/17/17 2/2/2
f 3/3/3 18/18/18 2/2/2
f 3/3/3 19/19/19 18/18/18
f 20/20/20 19/19/19 3/3/3
f 5/5/5 20/20/20 3/3/3
f 5/5/5 21/21/21 20/20/20
f 13/13/13 23/23/23 22/22/22
f 22/22/22 24/24/24 15/15/15
f 13/13/13 22/22/22 15/15/15
f 14/14/14 26/26/26 25/25/25
f 25/25/25 23/23/23 13/13/13
f 14/14/14 25/25/25 13/13/13
f 16/16/16 28/28/28 27/27/27
f 27/27/27 26/26/26 14/14/14
f 16/16/16 27/27/27 14/14/14
f 31/31/31 30/30/30 29/29/29
f 32/32/32 31/31/31 29/29/29
f 29/29/29 28/28/28 16/16/16
f 32/32/32 29/29/29 16/16/16
f 33/33/33 32/32/32 16/16/16
f 2/2/2 33/33/33 16/16/16
f 2/2/2 17/17/17 33/33/33
g pb_Mesh408836_1
f 36/36/36 35/35/35 34/34/34
f 36/36/36 37/37/37 35/35/35
f 35/35/35 38/38/38 34/34/34
f 35/35/35 39/39/39 38/38/38
f 42/42/42 41/41/41 40/40/40
f 42/42/42 43/43/43 41/41/41
f 43/43/43 44/44/44 41/41/41
f 46/46/46 45/45/45 41/41/41
f 41/41/41 44/44/44 46/46/46
f 44/44/44 47/47/47 46/46/46
f 50/50/50 49/49/49 48/48/48
f 51/51/51 50/50/50 48/48/48
f 50/50/50 51/51/51 52/52/52
f 50/50/50 52/52/52 53/53/53
f 50/50/50 53/53/53 54/54/54
f 54/54/54 55/55/55 50/50/50
g pb_Mesh408836_2
f 58/58/58 57/57/57 56/56/56
f 58/58/58 56/56/56 59/59/59
f 61/61/61 60/60/60 57/57/57
f 61/61/61 57/57/57 58/58/58
f 62/62/62 61/61/61 58/58/58
f 62/62/62 63/63/63 61/61/61
f 64/64/64 62/62/62 58/58/58
f 64/64/64 65/65/65 62/62/62
f 64/64/64 58/58/58 66/66/66
f 67/67/67 64/64/64 66/66/66
f 58/58/58 69/69/69 68/68/68
f 68/68/68 66/66/66 58/58/58
f 58/58/58 59/59/59 70/70/70
f 69/69/69 58/58/58 70/70/70
f 73/73/73 72/72/72 71/71/71
f 73/73/73 71/71/71 74/74/74
f 73/73/73 75/75/75 72/72/72
f 73/73/73 76/76/76 75/75/75
f 73/73/73 77/77/77 76/76/76
f 77/77/77 78/78/78 76/76/76
f 79/79/79 77/77/77 73/73/73
f 79/79/79 80/80/80 77/77/77
f 73/73/73 82/82/82 81/81/81
f 79/79/79 73/73/73 81/81/81
f 73/73/73 84/84/84 83/83/83
f 83/83/83 82/82/82 73/73/73
f 73/73/73 74/74/74 85/85/85
f 84/84/84 73/73/73 85/85/85
