g pb_Mesh1273974
v -1 -13.52721 0
v -1.000001 -1.673615 0
v -0.7071071 -13.52721 0.7071068
v -0.7071087 -1.673615 0.7071068
v -0.7071071 -13.52721 0.7071068
v -0.7071087 -1.673615 0.7071068
v -1.165716E-06 -13.52721 1
v -2.287497E-06 -1.673615 1
v -1.165716E-06 -13.52721 1
v -2.287497E-06 -1.673615 1
v 0.7071064 -13.52721 0.7071068
v 0.7071048 -1.673615 0.7071068
v 0.7071064 -13.52721 0.7071068
v 0.7071048 -1.673615 0.7071068
v 0.9999996 -13.52721 -8.742278E-08
v 0.999998 -1.673615 -8.742278E-08
v 0.9999996 -13.52721 -8.742278E-08
v 0.999998 -1.673615 -8.742278E-08
v 0.7071065 -13.52721 -0.7071067
v 0.7071049 -1.673615 -0.7071067
v 0.7071065 -13.52721 -0.7071067
v 0.7071049 -1.673615 -0.7071067
v -1.221352E-06 -13.52721 -1
v -2.343133E-06 -1.673615 -1
v -1.221352E-06 -13.52721 -1
v -2.343133E-06 -1.673615 -1
v -0.707107 -13.52721 -0.7071069
v -0.7071086 -1.673615 -0.7071069
v -0.707107 -13.52721 -0.7071069
v -0.7071086 -1.673615 -0.7071069
v -1 -13.52721 0
v -1.000001 -1.673615 0
v -0.7071071 -13.52721 0.7071068
v -1.209427E-06 -13.52721 0
v -1 -13.52721 0
v -1.165716E-06 -13.52721 1
v 0.7071064 -13.52721 0.7071068
v 0.9999996 -13.52721 -8.742278E-08
v 0.7071065 -13.52721 -0.7071067
v -1.221352E-06 -13.52721 -1
v -0.707107 -13.52721 -0.7071069
v -1.000001 -1.673615 0
v -2.331209E-06 -1.673615 0
v -0.7071087 -1.673615 0.7071068
v -2.287497E-06 -1.673615 1
v 0.7071048 -1.673615 0.7071068
v 0.999998 -1.673615 -8.742278E-08
v 0.7071049 -1.673615 -0.7071067
v -2.343133E-06 -1.673615 -1
v -0.7071086 -1.673615 -0.7071069
vt -0.3826832 -13.52721
vt -0.3826835 -1.673614
vt 0.3826835 -13.52721
vt 0.3826829 -1.673614
vt -0.3826834 -13.52721
vt -0.3826849 -1.673615
vt 0.3826827 -13.52721
vt 0.3826817 -1.673615
vt -0.3826841 -13.52721
vt -0.3826852 -1.673615
vt 0.3826835 -13.52721
vt 0.382682 -1.673615
vt -0.3826836 -13.52721
vt -0.3826842 -1.673615
vt 0.3826834 -13.52721
vt 0.3826827 -1.673615
vt -0.3826833 -13.52721
vt -0.3826827 -1.673615
vt 0.3826835 -13.52721
vt 0.3826841 -1.673615
vt -0.3826835 -13.52721
vt -0.382682 -1.673615
vt 0.3826842 -13.52721
vt 0.3826853 -1.673615
vt -0.3826827 -13.52721
vt -0.3826816 -1.673615
vt 0.3826833 -13.52721
vt 0.3826848 -1.673615
vt -0.3826836 -13.52721
vt -0.382683 -1.673614
vt 0.3826834 -13.52721
vt 0.3826837 -1.673614
vt -0.7071071 0.7071068
vt -1.209427E-06 0
vt -1 0
vt -1.165716E-06 1
vt 0.7071064 0.7071068
vt 0.9999996 -8.742278E-08
vt 0.7071065 -0.7071067
vt -1.221352E-06 -1
vt -0.707107 -0.7071069
vt 1.000001 0
vt 2.331209E-06 0
vt 0.7071087 0.7071068
vt 2.287497E-06 1
vt -0.7071048 0.7071068
vt -0.999998 -8.742278E-08
vt -0.7071049 -0.7071067
vt 2.343133E-06 -1
vt 0.7071086 -0.7071069
vn -0.9238797 -8.030231E-08 1.788139E-07
vn -0.9238799 -8.031649E-08 1.937151E-07
vn -0.6532818 -7.344475E-08 0.653281
vn -0.6532818 -8.402625E-08 0.6532809
vn -0.6532818 -7.344475E-08 0.653281
vn -0.6532818 -8.402625E-08 0.6532809
vn -3.129244E-07 -3.5041E-09 0.9238796
vn -2.086163E-07 4.947719E-09 0.9238796
vn -3.129244E-07 -3.5041E-09 0.9238796
vn -2.086163E-07 4.947719E-09 0.9238796
vn 0.6532814 8.490986E-08 0.6532816
vn 0.6532815 8.925547E-08 0.6532815
vn 0.6532814 8.490986E-08 0.6532816
vn 0.6532815 8.925547E-08 0.6532815
vn 0.9238796 1.256919E-07 -4.470348E-08
vn 0.9238796 1.258007E-07 -4.470348E-08
vn 0.9238796 1.256919E-07 -4.470348E-08
vn 0.9238796 1.258007E-07 -4.470348E-08
vn 0.6532813 8.854302E-08 -0.6532815
vn 0.6532814 8.443683E-08 -0.6532815
vn 0.6532813 8.854302E-08 -0.6532815
vn 0.6532814 8.443683E-08 -0.6532815
vn -2.980232E-07 3.914655E-09 -0.9238795
vn -1.788139E-07 -4.126527E-09 -0.9238795
vn -2.980232E-07 3.914655E-09 -0.9238795
vn -1.788139E-07 -4.126527E-09 -0.9238795
vn -0.6532816 -8.49099E-08 -0.6532813
vn -0.6532816 -7.406256E-08 -0.6532812
vn -0.6532816 -8.49099E-08 -0.6532813
vn -0.6532816 -7.406256E-08 -0.6532812
vn -0.9238797 -8.030231E-08 1.788139E-07
vn -0.9238799 -8.031649E-08 1.937151E-07
vn 0 -0.9999999 0
vn 0 -0.9999999 0
vn 0 -0.9999999 0
vn 0 -0.9999999 0
vn 0 -0.9999999 0
vn 0 -0.9999999 0
vn 0 -0.9999999 0
vn 0 -0.9999999 0
vn 0 -0.9999999 0
vn 0 0.9999999 0
vn 0 0.9999999 0
vn 0 0.9999999 0
vn 0 0.9999999 0
vn 0 0.9999999 0
vn 0 0.9999999 0
vn 0 0.9999999 0
vn 0 0.9999999 0
vn 0 0.9999999 0
g pb_Mesh1273974_0
f 3/3/3 2/2/2 1/1/1
f 3/3/3 4/4/4 2/2/2
f 7/7/7 6/6/6 5/5/5
f 7/7/7 8/8/8 6/6/6
f 11/11/11 10/10/10 9/9/9
f 11/11/11 12/12/12 10/10/10
f 15/15/15 14/14/14 13/13/13
f 15/15/15 16/16/16 14/14/14
f 19/19/19 18/18/18 17/17/17
f 19/19/19 20/20/20 18/18/18
f 23/23/23 22/22/22 21/21/21
f 23/23/23 24/24/24 22/22/22
f 27/27/27 26/26/26 25/25/25
f 27/27/27 28/28/28 26/26/26
f 31/31/31 30/30/30 29/29/29
f 31/31/31 32/32/32 30/30/30
f 35/35/35 34/34/34 33/33/33
f 33/33/33 34/34/34 36/36/36
f 36/36/36 34/34/34 37/37/37
f 37/37/37 34/34/34 38/38/38
f 38/38/38 34/34/34 39/39/39
f 39/39/39 34/34/34 40/40/40
f 40/40/40 34/34/34 41/41/41
f 41/41/41 34/34/34 35/35/35
f 44/44/44 43/43/43 42/42/42
f 45/45/45 43/43/43 44/44/44
f 46/46/46 43/43/43 45/45/45
f 47/47/47 43/43/43 46/46/46
f 48/48/48 43/43/43 47/47/47
f 49/49/49 43/43/43 48/48/48
f 50/50/50 43/43/43 49/49/49
f 42/42/42 43/43/43 50/50/50
