g pb_Mesh780798
v 0.5 -5 -0.5
v -0.5 -5 -0.5
v 0.5 -5 0.5
v -0.5 -5 0.5
v 0.5 -4 -0.5
v -0.5 -4 -0.5
v 0.5 -5 -0.5
v -0.5 -5 -0.5
v 0.5 -4 0.5
v 0.5 -4 -0.5
v 0.5 -5 0.5
v 0.5 -5 -0.5
v -0.5 -4 -0.5
v -0.5 -4 0.5
v -0.5 -5 -0.5
v -0.5 -5 0.5
v -0.5 -4 0.5
v 0.5 -4 0.5
v -0.5 -5 0.5
v 0.5 -5 0.5
v 1 -3 1
v 0 -3 1
v 0 1 1
v 1 1 1
v 0 -1 2
v -1 -1 2
v -1 1 2
v 0 1 2
v 1 -3 -1
v 0.5 -4 -0.5
v 1 -3 0
v 0.5 -4 0.5
v 1 -3 1
v -1 -3 1
v -0.5 -4 0.5
v -1 -3 0
v -0.5 -4 -0.5
v -1 -3 -1
v 1 -3 1
v 0.5 -4 0.5
v 0 -3 1
v -0.5 -4 0.5
v -1 -3 1
v -2 -1 0
v -2 -1 -1
v -2 1 -1
v -2 1 0
v 0 1 -2
v 1 -1 -2
v 1 1 -2
v 0 -1 -2
v -1 1 -1
v 0 -3 -1
v 0 1 -1
v -1 -3 -1
v 2 1 0
v 2 -1 1
v 2 1 1
v 2 -1 0
v -1 -3 -1
v -0.5 -4 -0.5
v 0 -3 -1
v 0.5 -4 -0.5
v 1 -3 -1
v -2 -1 0
v -2 -1 -1
v -1 -3 -1
v -1 1 -1
v -2 -1 -1
v -2 1 -1
v -1 1 0
v -1 -3 0
v -2 1 0
v -2 -1 0
v 1 -3 -1
v 1 1 -1
v 1 -1 -2
v 1 1 -2
v 1 1 -1
v 0 1 -1
v 1 1 -2
v 0 1 -2
v 0 1 -1
v 0 -3 -1
v 0 1 -2
v 0 -1 -2
v 0 -1 -2
v 1 -1 -2
v 1 -3 1
v 1 1 1
v 2 -1 1
v 2 1 1
v 1 1 0
v 1 -3 0
v 2 1 0
v 2 -1 0
v 2 -1 0
v 2 -1 1
v 0 -1 2
v -1 -1 2
v -1 -3 1
v -1 1 1
v -1 -1 2
v -1 1 2
v 0 1 1
v 0 -3 1
v 0 1 2
v 0 -1 2
v -1 1 1
v 0 1 1
v -1 1 2
v 0 1 2
v 0 1 1
v -1 1 1
v -1 3 1
v 0 1 1
v -1 3 1
v 0 5 7
v -4 5 4
v 1 3 1
v 0 1 1
v 1 3 1
v 0 1 1
v 0 5 7
v 4 5 4
v -1 -3 0
v -1 1 1
v -1 -3 1
v -1 1 0
v -1 1 0
v -1 1 -1
v -1 3 -1
v -2 5 -3
v -1 3 -1
v -4 5 -4
v -1 1 1
v -1 3 1
v -1 1 1
v -1 3 -1
v -1 3 1
v -1 3 -1
v -2 5 -3
v -2 5 3
v -4 5 4
v -1 3 1
v -2 5 3
v 0 5 -7
v 1 3 -1
v 4 5 -4
v 0 1 -1
v 0 1 -1
v 1 1 -1
v 1 3 -1
v 0 5 -7
v -4 5 -4
v -1 3 -1
v 0 1 -1
v -1 3 -1
v 0 1 -1
v 2 5 3
v 1 3 1
v 4 5 4
v 1 3 1
v 1 1 0
v 1 1 1
v 1 3 -1
v 1 3 -1
v 1 1 -1
v 1 1 0
v 2 5 -3
v 1 3 1
v 2 5 3
v 1 3 -1
v 4 5 -4
v 1 3 -1
v 2 5 -3
v 1 -3 0
v 1 -3 -1
v -4 5 4
v -2 5 3
v 0 5 7
v 0 5 7
v -2 5 3
v -2 5 -3
v 0 5 -7
v 4 5 -4
v 2 5 -3
v 2 5 3
v -2 5 -3
v -4 5 -4
v 0 5 7
v 4 5 4
v -2 1 -1
v -1 1 -1
v -2 1 0
v -1 1 0
v 1 1 1
v 1 1 0
v 2 1 0
v 2 1 1
vt 0.5 -0.5
vt -0.5 -0.5
vt 0.5 0.5
vt -0.5 0.5
vt -0.5 -4
vt 0.5 -4
vt -0.5 -5
vt 0.5 -5
vt -0.5 -4
vt 0.5 -4
vt -0.5 -5
vt 0.5 -5
vt -0.5 -4
vt 0.5 -4
vt -0.5 -5
vt 0.5 -5
vt -0.5 -4
vt 0.5 -4
vt -0.5 -5
vt 0.5 -5
vt 1.023216 -2.061597
vt 0.02349222 -2.049438
vt 0.02349222 1.373076
vt 1.023216 1.360917
vt 0 -1
vt -1 -1
vt -1 1
vt 0 1
vt 1 -2.236068
vt 0.5 -3.354102
vt 0 -2.236068
vt -0.5 -3.354102
vt -1 -2.236068
vt 1 -2.236068
vt 0.5 -3.354102
vt 0 -2.236068
vt -0.5 -3.354102
vt -1 -2.236068
vt 1 -2.236068
vt 0.5 -3.354102
vt 0 -2.236068
vt -0.5 -3.354102
vt -1 -2.236068
vt 0 -1
vt -1 -1
vt -1 1
vt 0 1
vt 0 1
vt -1 -1
vt -1 1
vt 0 -1
vt -1.023216 1.360917
vt -0.02349219 -2.049438
vt -0.02349219 1.373076
vt -1.023216 -2.061597
vt 0 1
vt -1 -1
vt -1 1
vt 0 -1
vt 1 -2.236068
vt 0.5 -3.354102
vt 0 -2.236068
vt -0.5 -3.354102
vt -1 -2.236068
vt 0 0
vt -1 0
vt 1 -3
vt 1 1
vt 2 -1
vt 2 1
vt -1 1
vt -1 -3
vt -2 1
vt -2 -1
vt 1 -3
vt 1 1
vt 2 -1
vt 2 1
vt -1 -1
vt 0 -1
vt -1 -2
vt 0 -2
vt -1 1
vt -1 -3
vt -2 1
vt -2 -1
vt 0 0
vt -1 0
vt 1 -3
vt 1 1
vt 2 -1
vt 2 1
vt -1 1
vt -1 -3
vt -2 1
vt -2 -1
vt 0 0
vt -1 0
vt 0 0
vt -1 0
vt 1 -3
vt 1 1
vt 2 -1
vt 2 1
vt -1 1
vt -1 -3
vt -2 1
vt -2 -1
vt 1 1
vt 0 1
vt 1 2
vt 0 2
vt 0.02349222 1.373076
vt -0.9762318 1.385236
vt -0.9762318 3.096492
vt 0.02349222 1.373076
vt -0.9762318 3.096492
vt 0.1644455 7.900276
vt -3.904927 6.39657
vt 1.023216 3.072174
vt 0.02349222 1.373076
vt 1.023216 3.072174
vt 0.02349222 1.373076
vt 0.1644455 7.900276
vt 4.092865 6.299295
vt 0.01544613 -2.702264
vt 1.015327 1.193997
vt 1.015327 -2.705701
vt 0.01544613 1.197434
vt 0.01544613 1.197434
vt -0.9844346 1.200871
vt -0.9844346 3.15072
vt -2.96875 5.329953
vt -0.9844346 3.15072
vt -3.937738 5.778409
vt 1.015327 1.193997
vt 1.015327 3.143846
vt 1.015327 1.193997
vt -0.9844346 3.15072
vt 1.015327 3.143846
vt -0.9844346 3.15072
vt -2.96875 5.329953
vt 3.030535 5.30933
vt 4.061307 5.750911
vt 1.015327 3.143846
vt 3.030535 5.30933
vt -0.1644453 7.900276
vt 0.9762318 3.096493
vt 3.904927 6.39657
vt -0.02349219 1.373076
vt -0.02349219 1.373076
vt 0.9762318 1.385235
vt 0.9762318 3.096493
vt -0.1644453 7.900276
vt -4.092865 6.299296
vt -1.023216 3.072174
vt -0.02349219 1.373076
vt -1.023216 3.072174
vt -0.02349219 1.373076
vt 2.96875 5.329953
vt 0.9844346 3.15072
vt 3.937738 5.778409
vt 0.9844346 3.15072
vt -0.01544611 1.197434
vt 0.9844346 1.200871
vt -1.015327 3.143846
vt -1.015327 3.143846
vt -1.015327 1.193997
vt -0.01544611 1.197434
vt -3.030535 5.30933
vt 0.9844346 3.15072
vt 2.96875 5.329953
vt -1.015327 3.143846
vt -4.061307 5.750911
vt -1.015327 3.143846
vt -3.030535 5.30933
vt -0.01544611 -2.702264
vt -1.015327 -2.705701
vt 4 4
vt 2 3
vt 0 7
vt 0 7
vt 2 3
vt 2 -3
vt 0 -7
vt -4 -4
vt -2 -3
vt -2 3
vt 2 -3
vt 4 -4
vt 0 7
vt -4 4
vt 2 -1
vt 1 -1
vt 2 0
vt 1 0
vt -1 1
vt -1 0
vt -2 0
vt -2 1
vn 0 -1 0
vn 0 -1 0
vn 0 -1 0
vn 0 -1 0
vn 0 0 -1
vn 0 0 -1
vn 0 0 -1
vn 0 0 -1
vn 1 0 0
vn 1 0 0
vn 1 0 0
vn 1 0 0
vn -1 0 0
vn -1 0 0
vn -1 0 0
vn -1 0 0
vn 0 0 1
vn 0 0 1
vn 0 0 1
vn 0 0 1
vn 0 0 1
vn 0 0 1
vn 0 0 1
vn 0 0 1
vn 0 0 1
vn 0 0 1
vn 0 0 1
vn 0 0 1
vn 0.8944272 -0.4472136 0
vn 0.8944272 -0.4472136 0
vn 0.8944272 -0.4472136 0
vn 0.8944272 -0.4472136 0
vn 0.8944272 -0.4472136 0
vn -0.8944272 -0.4472136 0
vn -0.8944272 -0.4472136 0
vn -0.8944272 -0.4472136 0
vn -0.8944272 -0.4472136 0
vn -0.8944272 -0.4472136 0
vn 0 -0.4472136 0.8944272
vn 0 -0.4472136 0.8944272
vn 0 -0.4472136 0.8944272
vn 0 -0.4472136 0.8944272
vn 0 -0.4472136 0.8944272
vn -1 0 0
vn -1 0 0
vn -1 0 0
vn -1 0 0
vn 0 0 -1
vn 0 0 -1
vn 0 0 -1
vn 0 0 -1
vn 0 0 -1
vn 0 0 -1
vn 0 0 -1
vn 0 0 -1
vn 1 0 0
vn 1 0 0
vn 1 0 0
vn 1 0 0
vn 0 -0.4472136 -0.8944272
vn 0 -0.4472136 -0.8944272
vn 0 -0.4472136 -0.8944272
vn 0 -0.4472136 -0.8944272
vn 0 -0.4472136 -0.8944272
vn -0.8944272 -0.4472136 0
vn -0.8944272 -0.4472136 0
vn 0 0 -1
vn 0 0 -1
vn 0 0 -1
vn 0 0 -1
vn 0 0 1
vn 0 0 1
vn 0 0 1
vn 0 0 1
vn 1 0 0
vn 1 0 0
vn 1 0 0
vn 1 0 0
vn 0 1 0
vn 0 1 0
vn 0 1 0
vn 0 1 0
vn -1 0 0
vn -1 0 0
vn -1 0 0
vn -1 0 0
vn 0 -0.4472136 -0.8944272
vn 0 -0.4472136 -0.8944272
vn 0 0 1
vn 0 0 1
vn 0 0 1
vn 0 0 1
vn 0 0 -1
vn 0 0 -1
vn 0 0 -1
vn 0 0 -1
vn 0.8944272 -0.4472136 0
vn 0.8944272 -0.4472136 0
vn 0 -0.4472136 0.8944272
vn 0 -0.4472136 0.8944272
vn -1 0 0
vn -1 0 0
vn -1 0 0
vn -1 0 0
vn 1 0 0
vn 1 0 0
vn 1 0 0
vn 1 0 0
vn 0 1 0
vn 0 1 0
vn 0 1 0
vn 0 1 0
vn -0.8164966 -0.4082483 0.4082483
vn 0 0 1
vn -0.5093206 -0.763981 0.3961383
vn -0.8164966 -0.4082483 0.4082483
vn -0.5093206 -0.763981 0.3961383
vn -0.520266 -0.780399 0.346844
vn -0.2579601 -0.9028605 0.3439468
vn 0.5093206 -0.763981 0.3961383
vn 0.8164966 -0.4082483 0.4082483
vn 0.5093206 -0.763981 0.3961383
vn 0.8164966 -0.4082483 0.4082483
vn 0.520266 -0.780399 0.346844
vn 0.2579601 -0.9028605 0.3439468
vn -1 0 0
vn -1 0 0
vn -1 0 0
vn -1 0 0
vn -1 0 0
vn -1 0 0
vn -1 0 0
vn -0.3713907 0.557086 0.7427813
vn -0.3713907 0.557086 0.7427813
vn -0.3713907 0.557086 0.7427813
vn -1 0 0
vn -1 0 0
vn -1 0 0
vn -1 0 0
vn -0.8944272 -0.4472136 0
vn -0.8944272 -0.4472136 0
vn -0.8944272 -0.4472136 0
vn -0.8944272 -0.4472136 0
vn -0.3713907 0.557086 -0.7427813
vn -0.3713907 0.557086 -0.7427813
vn -0.3713907 0.557086 -0.7427813
vn 0.520266 -0.780399 -0.346844
vn 0.5093206 -0.763981 -0.3961383
vn 0.2579601 -0.9028605 -0.3439468
vn 0.8164966 -0.4082483 -0.4082483
vn 0.8164966 -0.4082483 -0.4082483
vn 0 0 -1
vn 0.5093206 -0.763981 -0.3961383
vn -0.520266 -0.780399 -0.346844
vn -0.2579601 -0.9028605 -0.3439468
vn -0.5093206 -0.763981 -0.3961383
vn -0.8164966 -0.4082483 -0.4082483
vn -0.5093206 -0.763981 -0.3961383
vn -0.8164966 -0.4082483 -0.4082483
vn 0.3713907 0.557086 -0.7427813
vn 0.3713907 0.557086 -0.7427813
vn 0.3713907 0.557086 -0.7427813
vn 1 0 0
vn 1 0 0
vn 1 0 0
vn 1 0 0
vn 1 0 0
vn 1 0 0
vn 1 0 0
vn 0.8944272 -0.4472136 0
vn 0.8944272 -0.4472136 0
vn 0.8944272 -0.4472136 0
vn 0.8944272 -0.4472136 0
vn 0.3713907 0.557086 0.7427813
vn 0.3713907 0.557086 0.7427813
vn 0.3713907 0.557086 0.7427813
vn 1 0 0
vn 1 0 0
vn 0 1 0
vn 0 1 0
vn 0 1 0
vn 0 1 0
vn 0 1 0
vn 0 1 0
vn 0 1 0
vn 0 1 0
vn 0 1 0
vn 0 1 0
vn 0 1 0
vn 0 1 0
vn 0 1 0
vn 0 1 0
vn 0 1 0
vn 0 1 0
vn 0 1 0
vn 0 1 0
vn 0 1 0
vn 0 1 0
vn 0 1 0
vn 0 1 0
g pb_Mesh780798_0
f 3/3/3 2/2/2 1/1/1
f 3/3/3 4/4/4 2/2/2
f 7/7/7 6/6/6 5/5/5
f 7/7/7 8/8/8 6/6/6
f 11/11/11 10/10/10 9/9/9
f 11/11/11 12/12/12 10/10/10
f 15/15/15 14/14/14 13/13/13
f 15/15/15 16/16/16 14/14/14
f 19/19/19 18/18/18 17/17/17
f 19/19/19 20/20/20 18/18/18
f 23/23/23 22/22/22 21/21/21
f 23/23/23 21/21/21 24/24/24
f 27/27/27 26/26/26 25/25/25
f 27/27/27 25/25/25 28/28/28
f 31/31/31 30/30/30 29/29/29
f 32/32/32 30/30/30 31/31/31
f 33/33/33 32/32/32 31/31/31
f 36/36/36 35/35/35 34/34/34
f 36/36/36 37/37/37 35/35/35
f 38/38/38 37/37/37 36/36/36
f 41/41/41 40/40/40 39/39/39
f 41/41/41 42/42/42 40/40/40
f 43/43/43 42/42/42 41/41/41
f 46/46/46 45/45/45 44/44/44
f 46/46/46 44/44/44 47/47/47
f 50/50/50 49/49/49 48/48/48
f 49/49/49 51/51/51 48/48/48
f 54/54/54 53/53/53 52/52/52
f 53/53/53 55/55/55 52/52/52
f 58/58/58 57/57/57 56/56/56
f 57/57/57 59/59/59 56/56/56
f 62/62/62 61/61/61 60/60/60
f 63/63/63 61/61/61 62/62/62
f 64/64/64 63/63/63 62/62/62
f 65/65/65 38/38/38 36/36/36
f 65/65/65 66/66/66 38/38/38
f 69/69/69 68/68/68 67/67/67
f 69/69/69 70/70/70 68/68/68
f 73/73/73 72/72/72 71/71/71
f 73/73/73 74/74/74 72/72/72
f 77/77/77 76/76/76 75/75/75
f 77/77/77 78/78/78 76/76/76
f 81/81/81 80/80/80 79/79/79
f 81/81/81 82/82/82 80/80/80
f 85/85/85 84/84/84 83/83/83
f 85/85/85 86/86/86 84/84/84
f 87/87/87 64/64/64 62/62/62
f 87/87/87 88/88/88 64/64/64
f 91/91/91 90/90/90 89/89/89
f 91/91/91 92/92/92 90/90/90
f 95/95/95 94/94/94 93/93/93
f 95/95/95 96/96/96 94/94/94
f 97/97/97 33/33/33 31/31/31
f 97/97/97 98/98/98 33/33/33
f 99/99/99 43/43/43 41/41/41
f 99/99/99 100/100/100 43/43/43
f 103/103/103 102/102/102 101/101/101
f 103/103/103 104/104/104 102/102/102
f 107/107/107 106/106/106 105/105/105
f 107/107/107 108/108/108 106/106/106
f 111/111/111 110/110/110 109/109/109
f 111/111/111 112/112/112 110/110/110
f 115/115/115 114/114/114 113/113/113
f 118/118/118 117/117/117 116/116/116
f 118/118/118 119/119/119 117/117/117
f 121/121/121 24/24/24 120/120/120
f 124/124/124 123/123/123 122/122/122
f 124/124/124 122/122/122 125/125/125
f 128/128/128 127/127/127 126/126/126
f 127/127/127 129/129/129 126/126/126
f 132/132/132 131/131/131 130/130/130
f 135/135/135 134/134/134 133/133/133
f 132/132/132 130/130/130 136/136/136
f 139/139/139 138/138/138 137/137/137
f 142/142/142 141/141/141 140/140/140
f 142/142/142 140/140/140 143/143/143
f 146/146/146 145/145/145 144/144/144
f 149/149/149 148/148/148 147/147/147
f 148/148/148 150/150/150 147/147/147
f 153/153/153 152/152/152 151/151/151
f 156/156/156 155/155/155 154/154/154
f 157/157/157 156/156/156 154/154/154
f 159/159/159 52/52/52 158/158/158
f 162/162/162 161/161/161 160/160/160
f 165/165/165 164/164/164 163/163/163
f 163/163/163 164/164/164 166/166/166
f 169/169/169 168/168/168 167/167/167
f 172/172/172 171/171/171 170/170/170
f 171/171/171 173/173/173 170/170/170
f 176/176/176 175/175/175 174/174/174
f 178/178/178 168/168/168 177/177/177
f 169/169/169 177/177/177 168/168/168
f 181/181/181 180/180/180 179/179/179
f 184/184/184 183/183/183 182/182/182
f 187/187/187 186/186/186 185/185/185
f 188/188/188 187/187/187 185/185/185
f 185/185/185 190/190/190 189/189/189
f 188/188/188 185/185/185 189/189/189
f 189/189/189 191/191/191 188/188/188
f 191/191/191 192/192/192 188/188/188
f 195/195/195 194/194/194 193/193/193
f 195/195/195 196/196/196 194/194/194
f 199/199/199 198/198/198 197/197/197
f 200/200/200 199/199/199 197/197/197
