g pb_Mesh1134676
v 1 -1.526065E-05 0
v 0 -1.5378E-05 -1
v 0 0 0
v 1 -1.5378E-05 -1
v 0 5.999985 -1.000001
v 1 5.999985 -1.000001
v 1 5.999985 -7.040799E-07
v 0 6 -7.040799E-07
v 0 -1.5378E-05 -1
v 1 -1.5378E-05 -1
v 0 5.999985 -1.000001
v 1 5.999985 -1.000001
v 1 -1.5378E-05 -1
v 1 -1.526065E-05 0
v 1 5.999985 -1.000001
v 1 5.999985 -7.040799E-07
v 0 0 0
v 0 -1.5378E-05 -1
v 0 6 -7.040799E-07
v 0 5.999985 -1.000001
v 1 -1.526065E-05 0
v 0 0 0
v 1 5.999985 -7.040799E-07
v 0 6 -7.040799E-07
vt 0.3643264 -0.357106
vt 0.1104359 -0.602804
vt 0.1104359 -0.357106
vt 0.3643264 -0.602804
vt 0.9980348 -0.002764463
vt 0.4763696 -0.002764463
vt 0.4763696 0.9968905
vt 0.9980348 0.9968905
vt 0.9683151 0.02488375
vt 0.4973226 0.02488375
vt 0.9683151 0.9902415
vt 0.4973226 0.9902415
vt 0.9856359 0.02076578
vt 0.4963997 0.02076578
vt 0.9856362 0.994359
vt 0.4964001 0.994359
vt 0.9711053 0.01020837
vt 0.5043432 0.01020598
vt 0.971105 1.004934
vt 0.5043429 1.004931
vt 0.9903114 0.02597976
vt 0.479581 0.02598238
vt 0.9903114 0.9891577
vt 0.479581 0.9891603
vn -7.630326E-06 -1 7.747672E-06
vn -7.630326E-06 -1 7.747672E-06
vn -1.526065E-05 -1 1.5378E-05
vn 0 -1 1.173466E-07
vn 7.629395E-06 1 -7.629395E-06
vn 0 1 0
vn 7.629395E-06 1 -7.629395E-06
vn 1.525879E-05 1 -1.525879E-05
vn 0 -1.192093E-07 -1
vn 0 -1.192093E-07 -1
vn 0 -1.192093E-07 -1
vn 0 -1.192093E-07 -1
vn 1 0 0
vn 1 0 0
vn 1 0 0
vn 1 0 0
vn -1 0 0
vn -1 0 0
vn -1 0 0
vn -1 0 0
vn 1.790786E-12 1.173466E-07 1
vn 1.804888E-12 1.173466E-07 1
vn 1.804888E-12 1.173466E-07 1
vn 1.818989E-12 1.173466E-07 1
g pb_Mesh1134676_0
f 3/3/3 2/2/2 1/1/1
f 2/2/2 4/4/4 1/1/1
f 7/7/7 6/6/6 5/5/5
f 7/7/7 5/5/5 8/8/8
f 11/11/11 10/10/10 9/9/9
f 11/11/11 12/12/12 10/10/10
f 15/15/15 14/14/14 13/13/13
f 15/15/15 16/16/16 14/14/14
f 19/19/19 18/18/18 17/17/17
f 19/19/19 20/20/20 18/18/18
f 23/23/23 22/22/22 21/21/21
f 23/23/23 24/24/24 22/22/22
