g pb_Mesh107732
v -0.5 -1 -1.5
v -1.5 -1 -1.5
v -0.5 2.5 -1.5
v -1.5 2.5 -1.5
v -1.5 -1 -1.5
v -1.5 2 -2
v -1.5 2.5 -1.5
v -1.5 2.5 -2
v -1.5 2 -2
v -0.5 2 -2
v -1.5 2.5 -2
v -0.5 2.5 -2
v -0.5 2 -2
v -0.5 -1 -1.5
v -0.5 2.5 -2
v -0.5 2.5 -1.5
v -0.5 2.5 -1.5
v -1.5 2.5 -1.5
v -0.5 2.5 -2
v -1.5 2.5 -2
v -0.5 2 -2
v -1.5 2 -2
v -0.5 -1 -1.5
v -1.5 -1 -1.5
vt -0.5 -1
vt -1.5 -1
vt -0.5 2.5
vt -1.5 2.5
vt -1.5 -1
vt -2 2
vt -1.5 2.5
vt -2 2.5
vt 1.5 2
vt 0.5 2
vt 1.5 2.5
vt 0.5 2.5
vt 2 2
vt 1.5 -1
vt 2 2.5
vt 1.5 2.5
vt 0.5 -1.5
vt 1.5 -1.5
vt 0.5 -2
vt 1.5 -2
vt 0.5 2.301586
vt 1.5 2.301586
vt 0.5 -0.7397954
vt 1.5 -0.7397954
vn 0 0 1
vn 0 0 1
vn 0 0 1
vn 0 0 1
vn -1 0 0
vn -1 0 0
vn -1 0 0
vn -1 0 0
vn 0 0 -1
vn 0 0 -1
vn 0 0 -1
vn 0 0 -1
vn 1 0 0
vn 1 0 0
vn 1 0 0
vn 1 0 0
vn 0 1 0
vn 0 1 0
vn 0 1 0
vn 0 1 0
vn 0 -0.164399 -0.9863939
vn 0 -0.164399 -0.9863939
vn 0 -0.164399 -0.9863939
vn 0 -0.164399 -0.9863939
g pb_Mesh107732_0
f 3/3/3 2/2/2 1/1/1
f 3/3/3 4/4/4 2/2/2
f 7/7/7 6/6/6 5/5/5
f 7/7/7 8/8/8 6/6/6
f 11/11/11 10/10/10 9/9/9
f 11/11/11 12/12/12 10/10/10
f 15/15/15 14/14/14 13/13/13
f 15/15/15 16/16/16 14/14/14
f 19/19/19 18/18/18 17/17/17
f 19/19/19 20/20/20 18/18/18
f 23/23/23 22/22/22 21/21/21
f 23/23/23 24/24/24 22/22/22
