g pb_Mesh969706
v 0 0 0
v 0.5358984 2 0
v 0 0 2
v 0.5358984 2 2
v 0.9689112 1.75 0
v 0.5 0 0
v 0.9689112 1.75 2
v 0.5 0 2
v 0 0 2
v 0.5 0 2
v 0 0 0
v 0.5 0 0
v 0.5358984 2 0
v 2 3.464102 0
v 0.5358984 2 2
v 2 3.464102 2
v 2.25 3.031089 0
v 0.9689112 1.75 0
v 2.25 3.031089 2
v 0.9689112 1.75 2
v 2 3.464102 0
v 4 4 0
v 2 3.464102 2
v 4 4 2
v 4 3.5 0
v 2.25 3.031089 0
v 4 3.5 2
v 2.25 3.031089 2
v 4 4 0
v 6 3.464102 0
v 4 4 2
v 6 3.464102 2
v 5.75 3.031089 0
v 4 3.5 0
v 5.75 3.031089 2
v 4 3.5 2
v 6 3.464102 0
v 7.464102 2 0
v 6 3.464102 2
v 7.464102 2 2
v 7.031089 1.75 0
v 5.75 3.031089 0
v 7.031089 1.75 2
v 5.75 3.031089 2
v 7.464102 2 0
v 8 -3.496911E-07 0
v 7.464102 2 2
v 8 -3.496911E-07 2
v 7.5 -3.059797E-07 0
v 7.031089 1.75 0
v 7.5 -3.059797E-07 2
v 7.031089 1.75 2
v 7.5 -3.059797E-07 2
v 8 -3.496911E-07 2
v 7.5 -3.059797E-07 0
v 8 -3.496911E-07 0
v 0 0 2
v 0.5358984 2 2
v 0.5 0 2
v 0.9689112 1.75 2
v 0.5358984 2 0
v 0 0 0
v 0.9689112 1.75 0
v 0.5 0 0
v 0.5358984 2 2
v 2 3.464102 2
v 0.9689112 1.75 2
v 2.25 3.031089 2
v 2 3.464102 0
v 0.5358984 2 0
v 2.25 3.031089 0
v 0.9689112 1.75 0
v 2 3.464102 2
v 4 4 2
v 2.25 3.031089 2
v 4 3.5 2
v 4 4 0
v 2 3.464102 0
v 4 3.5 0
v 2.25 3.031089 0
v 4 4 2
v 6 3.464102 2
v 4 3.5 2
v 5.75 3.031089 2
v 6 3.464102 0
v 4 4 0
v 5.75 3.031089 0
v 4 3.5 0
v 6 3.464102 2
v 7.464102 2 2
v 5.75 3.031089 2
v 7.031089 1.75 2
v 7.464102 2 0
v 6 3.464102 0
v 7.031089 1.75 0
v 5.75 3.031089 0
v 7.464102 2 2
v 8 -3.496911E-07 2
v 7.031089 1.75 2
v 7.5 -3.059797E-07 2
v 8 -3.496911E-07 0
v 7.464102 2 0
v 7.5 -3.059797E-07 0
v 7.031089 1.75 0
vt 0.5 0.5176381
vt 0.5 1.552914
vt 1.5 0.5176381
vt 1.5 1.552914
vt -0.5 1.488209
vt -0.5 0.5823429
vt -1.5 1.488209
vt -1.5 0.5823429
vt 0.125 1.5
vt 0.375 1.5
vt 0.125 0.5
vt 0.375 0.5
vt 0.5 2.310789
vt 0.5 3.346066
vt 1.5 2.310789
vt 1.5 3.346066
vt -0.5 3.281361
vt -0.5 2.375494
vt -1.5 3.281361
vt -1.5 2.375494
vt -3.346065 0.5
vt -4.381341 0.5
vt -3.346065 1.5
vt -4.381341 1.5
vt 4.316637 0.5
vt 3.41077 0.5
vt 4.316637 1.5
vt 3.41077 1.5
vt -3.346065 0.5
vt -4.381341 0.5
vt -3.346065 1.5
vt -4.381341 1.5
vt 4.316637 0.5
vt 3.41077 0.5
vt 4.316637 1.5
vt 3.41077 1.5
vt -2.31079 0.5
vt -3.346066 0.5
vt -2.31079 1.5
vt -3.346066 1.5
vt 3.281361 0.5
vt 2.375494 0.5
vt 3.281361 1.5
vt 2.375494 1.5
vt -0.5 -0.517637
vt -0.5 -1.552913
vt -1.5 -0.517637
vt -1.5 -1.552913
vt 0.5 -1.48821
vt 0.5 -0.5823427
vt 1.5 -1.48821
vt 1.5 -0.5823427
vt 7.625 1.5
vt 7.875 1.5
vt 7.625 0.5
vt 7.875 0.5
vt 0.2422278 0.5
vt 0.510177 1.5
vt 0.4922278 0.5
vt 0.7266834 1.375
vt -0.510177 1.5
vt -0.2422278 0.5
vt -0.7266834 1.375
vt -0.4922278 0.5
vt 0.9644238 2.303525
vt 1.696475 3.035576
vt 1.18093 2.178525
vt 1.821475 2.81907
vt -1.696475 3.035576
vt -0.9644238 2.303525
vt -1.821475 2.81907
vt -1.18093 2.178525
vt 2.5 3.489823
vt 3.5 3.757772
vt 2.625 3.273317
vt 3.5 3.507772
vt -3.5 3.757772
vt -2.5 3.489823
vt -3.5 3.507772
vt -2.625 3.273317
vt 4.5 3.757772
vt 5.5 3.489823
vt 4.5 3.507772
vt 5.375 3.273317
vt -5.5 3.489823
vt -4.5 3.757772
vt -5.375 3.273317
vt -4.5 3.507772
vt 6.303525 3.035576
vt 7.035576 2.303525
vt 6.178525 2.81907
vt 6.81907 2.178525
vt -7.035576 2.303525
vt -6.303525 3.035576
vt -6.81907 2.178525
vt -6.178525 2.81907
vt 7.489823 1.5
vt 7.757772 0.4999998
vt 7.273316 1.375
vt 7.507772 0.4999998
vt -7.757772 0.4999998
vt -7.489823 1.5
vt -7.507772 0.4999998
vt -7.273316 1.375
vn -0.9659258 0.2588191 0
vn -0.9659258 0.2588191 0
vn -0.9659258 0.2588191 0
vn -0.9659258 0.2588191 0
vn 0.9659258 -0.2588191 0
vn 0.9659258 -0.2588191 0
vn 0.9659258 -0.2588191 0
vn 0.9659258 -0.2588191 0
vn 0 -1 0
vn 0 -1 0
vn 0 -1 0
vn 0 -1 0
vn -0.7071068 0.7071066 0
vn -0.7071068 0.7071066 0
vn -0.7071068 0.7071066 0
vn -0.7071068 0.7071066 0
vn 0.7071068 -0.7071067 0
vn 0.7071068 -0.7071067 0
vn 0.7071068 -0.7071067 0
vn 0.7071068 -0.7071067 0
vn -0.258819 0.9659258 0
vn -0.258819 0.9659258 0
vn -0.258819 0.9659258 0
vn -0.258819 0.9659258 0
vn 0.258819 -0.9659258 0
vn 0.258819 -0.9659258 0
vn 0.258819 -0.9659258 0
vn 0.258819 -0.9659258 0
vn 0.2588191 0.9659258 0
vn 0.2588191 0.9659258 0
vn 0.2588191 0.9659258 0
vn 0.2588191 0.9659258 0
vn -0.2588191 -0.9659258 0
vn -0.2588191 -0.9659258 0
vn -0.2588191 -0.9659258 0
vn -0.2588191 -0.9659258 0
vn 0.7071066 0.7071068 0
vn 0.7071066 0.7071068 0
vn 0.7071066 0.7071068 0
vn 0.7071066 0.7071068 0
vn -0.7071066 -0.7071068 0
vn -0.7071066 -0.7071068 0
vn -0.7071066 -0.7071068 0
vn -0.7071066 -0.7071068 0
vn 0.9659259 0.2588189 0
vn 0.9659259 0.2588189 0
vn 0.9659259 0.2588189 0
vn 0.9659259 0.2588189 0
vn -0.9659258 -0.258819 0
vn -0.9659258 -0.258819 0
vn -0.9659258 -0.258819 0
vn -0.9659258 -0.258819 0
vn -8.742279E-08 -1 0
vn -8.742279E-08 -1 0
vn -8.742279E-08 -1 0
vn -8.742279E-08 -1 0
vn 0 0 1
vn 0 0 1
vn 0 0 1
vn 0 0 1
vn 0 0 -1
vn 0 0 -1
vn 0 0 -1
vn 0 0 -1
vn 0 0 1
vn 0 0 1
vn 0 0 1
vn 0 0 1
vn 0 0 -1
vn 0 0 -1
vn 0 0 -1
vn 0 0 -1
vn 0 0 1
vn 0 0 1
vn 0 0 1
vn 0 0 1
vn 0 0 -1
vn 0 0 -1
vn 0 0 -1
vn 0 0 -1
vn 0 0 1
vn 0 0 1
vn 0 0 1
vn 0 0 1
vn 0 0 -1
vn 0 0 -1
vn 0 0 -1
vn 0 0 -1
vn 0 0 1
vn 0 0 0.9999999
vn 0 0 0.9999999
vn 0 0 1
vn 0 0 -1
vn 0 0 -1
vn 0 0 -1
vn 0 0 -1
vn 0 0 1
vn 0 0 1
vn 0 0 1
vn 0 0 1
vn 0 0 -1
vn 0 0 -1
vn 0 0 -1
vn 0 0 -0.9999999
g pb_Mesh969706_0
f 3/3/3 2/2/2 1/1/1
f 3/3/3 4/4/4 2/2/2
f 7/7/7 6/6/6 5/5/5
f 7/7/7 8/8/8 6/6/6
f 11/11/11 10/10/10 9/9/9
f 11/11/11 12/12/12 10/10/10
f 15/15/15 14/14/14 13/13/13
f 15/15/15 16/16/16 14/14/14
f 19/19/19 18/18/18 17/17/17
f 19/19/19 20/20/20 18/18/18
f 23/23/23 22/22/22 21/21/21
f 23/23/23 24/24/24 22/22/22
f 27/27/27 26/26/26 25/25/25
f 27/27/27 28/28/28 26/26/26
f 31/31/31 30/30/30 29/29/29
f 31/31/31 32/32/32 30/30/30
f 35/35/35 34/34/34 33/33/33
f 35/35/35 36/36/36 34/34/34
f 39/39/39 38/38/38 37/37/37
f 39/39/39 40/40/40 38/38/38
f 43/43/43 42/42/42 41/41/41
f 43/43/43 44/44/44 42/42/42
f 47/47/47 46/46/46 45/45/45
f 47/47/47 48/48/48 46/46/46
f 51/51/51 50/50/50 49/49/49
f 51/51/51 52/52/52 50/50/50
f 55/55/55 54/54/54 53/53/53
f 55/55/55 56/56/56 54/54/54
f 59/59/59 58/58/58 57/57/57
f 59/59/59 60/60/60 58/58/58
f 63/63/63 62/62/62 61/61/61
f 63/63/63 64/64/64 62/62/62
f 67/67/67 66/66/66 65/65/65
f 67/67/67 68/68/68 66/66/66
f 71/71/71 70/70/70 69/69/69
f 71/71/71 72/72/72 70/70/70
f 75/75/75 74/74/74 73/73/73
f 75/75/75 76/76/76 74/74/74
f 79/79/79 78/78/78 77/77/77
f 79/79/79 80/80/80 78/78/78
f 83/83/83 82/82/82 81/81/81
f 83/83/83 84/84/84 82/82/82
f 87/87/87 86/86/86 85/85/85
f 87/87/87 88/88/88 86/86/86
f 91/91/91 90/90/90 89/89/89
f 91/91/91 92/92/92 90/90/90
f 95/95/95 94/94/94 93/93/93
f 95/95/95 96/96/96 94/94/94
f 99/99/99 98/98/98 97/97/97
f 99/99/99 100/100/100 98/98/98
f 103/103/103 102/102/102 101/101/101
f 103/103/103 104/104/104 102/102/102
