g pb_Mesh-5802902
v -0.5000005 -1 0.5000002
v -0.5 0.5 0.5
v 0.5 0.5 0.5
v 0.4999996 -1 0.5000001
v -0.1250005 0.5 0.1000001
v -0.1250005 0.5 -0.0999999
v 0.1249995 0.5 -0.09999992
v 0.1249996 0.5 0.1000001
v -0.5000006 0.5 -0.55
v -0.5000006 -1 -0.55
v 0.4999995 -1 -0.55
v 0.4999995 0.5 -0.55
v -0.1250005 -1 -0.0999999
v -0.1250005 -1 0.1000001
v 0.1249996 -1 0.1000001
v 0.1249995 -1 -0.09999992
v 0.4999996 -1 0.5000001
v 0.5 0.5 0.5
v 0.4999995 0.5 -0.55
v 0.4999995 -1 -0.55
v -0.5000006 -1 -0.55
v -0.5000006 0.5 -0.55
v -0.5 0.5 0.5
v -0.5000005 -1 0.5000002
v -0.5 0.5 0.5
v -0.5000006 0.5 -0.55
v -0.1250005 0.5 0.1000001
v -0.1250005 0.5 -0.0999999
v -0.5000006 0.5 -0.55
v 0.4999995 0.5 -0.55
v -0.1250005 0.5 -0.0999999
v 0.1249995 0.5 -0.09999992
v 0.4999995 0.5 -0.55
v 0.5 0.5 0.5
v 0.1249995 0.5 -0.09999992
v 0.1249996 0.5 0.1000001
v 0.5 0.5 0.5
v -0.5 0.5 0.5
v 0.1249996 0.5 0.1000001
v -0.1250005 0.5 0.1000001
v -0.5000006 -1 -0.55
v -0.5000005 -1 0.5000002
v -0.1250005 -1 -0.0999999
v -0.1250005 -1 0.1000001
v -0.5000005 -1 0.5000002
v 0.4999996 -1 0.5000001
v 0.4999996 -1 0.5000001
v 0.4999995 -1 -0.55
v 0.1249996 -1 0.1000001
v 0.1249995 -1 -0.09999992
v 0.4999995 -1 -0.55
v -0.5000006 -1 -0.55
vt 1.999992 0.7500001
vt 1.999992 1
vt 0.9999921 1
vt 0.9999921 0.7500001
vt 2.249992 0.25
vt 2.749992 0.25
vt 2.749992 0.75
vt 2.249992 0.75
vt 1.999992 0.2500001
vt 1.999992 5.960464E-08
vt 0.9999921 5.960464E-08
vt 0.9999921 0.2500001
vt 0.25 0.2500001
vt 0.25 0.7500001
vt 0.75 0.7500001
vt 0.75 0.2500001
vt 0.9999921 1
vt 1.249992 1.000001
vt 1.249992 5.960464E-08
vt 0.9999921 5.960464E-08
vt 1.750008 -1.609325E-06
vt 2.000008 1.698732E-06
vt 1.999976 1.000002
vt 1.749976 0.9999984
vt 2.999992 1
vt 2.999992 0
vt 2.749992 0.75
vt 2.749992 0.25
vt 2.999992 0
vt 1.999992 0
vt 2.749992 0.25
vt 2.249992 0.25
vt 1.999992 0
vt 1.999992 1
vt 2.249992 0.25
vt 2.249992 0.75
vt 1.999992 1
vt 2.999992 1
vt 2.249992 0.75
vt 2.749992 0.75
vt 0 1.192093E-07
vt 0 1
vt 0.25 0.2500001
vt 0.25 0.7500001
vt 0 1
vt 1 1
vt 1 1
vt 1 1.788139E-07
vt 0.75 0.7500002
vt 0.75 0.2500002
vt 1 1.192093E-07
vt 0 1.192093E-07
vn 5.960464E-08 1.192093E-07 1
vn 0 1.589457E-07 1
vn 5.960464E-08 1.192093E-07 1
vn 1.192093E-07 7.947283E-08 1
vn 0 1 0
vn 0 1 0
vn 0 1 0
vn 0 1 0
vn -5.960464E-08 0 -1
vn -5.960464E-08 0 -1
vn -5.960464E-08 0 -1
vn -5.960464E-08 0 -1
vn 0 -1 0
vn 0 -1 0
vn 0 -1 0
vn 0 -1 0
vn 1 -1.192093E-07 -3.122148E-07
vn 1 -2.384186E-07 -4.825138E-07
vn 1 -1.192093E-07 -3.122148E-07
vn 1 0 -1.419158E-07
vn -1 1.589457E-07 3.405979E-07
vn -1 0 5.676633E-07
vn -1 1.589457E-07 3.405979E-07
vn -1 3.178914E-07 1.135326E-07
vn 0 0.9999999 0
vn 0 1 0
vn 0 1 0
vn 0 1 0
vn 0 1 0
vn 0 1 0
vn 0 1 0
vn 0 0.9999999 0
vn 0 0.9999999 0
vn 0 0.9999999 0
vn 0 0.9999999 0
vn 0 1 0
vn 0 1 0
vn 0 1 0
vn 0 1 0
vn 0 0.9999999 0
vn 0 -1 0
vn 0 -1 0
vn 0 -1 0
vn 0 -1 0
vn 0 -1 0
vn 0 -1 0
vn 0 -1 0
vn 0 -1 0
vn 0 -1 0
vn 0 -1 0
vn 0 -1 0
vn 0 -1 0
g pb_Mesh-5802902_0
f 3/3/3 2/2/2 1/1/1
f 4/4/4 3/3/3 1/1/1
f 7/7/7 6/6/6 5/5/5
f 8/8/8 7/7/7 5/5/5
f 11/11/11 10/10/10 9/9/9
f 12/12/12 11/11/11 9/9/9
f 15/15/15 14/14/14 13/13/13
f 16/16/16 15/15/15 13/13/13
f 19/19/19 18/18/18 17/17/17
f 20/20/20 19/19/19 17/17/17
f 23/23/23 22/22/22 21/21/21
f 24/24/24 23/23/23 21/21/21
f 27/27/27 26/26/26 25/25/25
f 27/27/27 28/28/28 26/26/26
f 31/31/31 30/30/30 29/29/29
f 31/31/31 32/32/32 30/30/30
f 35/35/35 34/34/34 33/33/33
f 35/35/35 36/36/36 34/34/34
f 39/39/39 38/38/38 37/37/37
f 39/39/39 40/40/40 38/38/38
f 43/43/43 42/42/42 41/41/41
f 43/43/43 44/44/44 42/42/42
f 14/14/14 46/46/46 45/45/45
f 14/14/14 15/15/15 46/46/46
f 49/49/49 48/48/48 47/47/47
f 49/49/49 50/50/50 48/48/48
f 16/16/16 52/52/52 51/51/51
f 16/16/16 13/13/13 52/52/52
