g pb_Mesh214450
v -10 -1 -1
v -9 0 -3
v -10 1 -1
v -9 1 -3
v 2 0 -3
v 3 -1 -1
v 2 1 -3
v 3 1 -1
v -6.25 1 -3
v -3.5 0 -3
v -3.5 1 -3
v -6.25 0 -3
v -9 1 -3
v -9 0 -3
v -6.75 -1 -1
v -6.25 0 -3
v -9 0 -3
v -10 -1 -1
v -3.5 -1 -1
v -3.5 0 -3
v -0.75 1 -3
v 2 0 -3
v 2 1 -3
v -0.75 0 -3
v 3 -1 -1
v 2 0 -3
v -0.25 -1 -1
v -0.75 0 -3
v -3.5 -1 -1
v -6.75 -1 -1
v -6.75 1 -1
v -3.5 1 -1
v -10 -1 -1
v -10 1 -1
v 3 -1 -1
v -0.25 -1 -1
v -0.25 1 -1
v 3 1 -1
v -10 1 -1
v -9 1 -3
v -6.75 1 -1
v -6.25 1 -3
v -3.5 1 -3
v -3.5 1 -1
v -0.75 1 -3
v -0.25 1 -1
v 2 1 -3
v 3 1 -1
vt -2.000001 2.5
vt -3 2.5
vt -2 3
vt -3 3
vt -4 2.5
vt -5 2.5
vt -4 3
vt -5 3
vt -3.25 3
vt -3.5 2.5
vt -3.5 3
vt -3.25 2.5
vt -3 3
vt -3 2.5
vt -2.75 -3.5
vt -2.75 -3
vt -2.5 -3
vt -2.5 -3.5
vt -3 -3.5
vt -3 -3
vt -3.75 3
vt -4 2.5
vt -4 3
vt -3.75 2.5
vt -3.5 -3.5
vt -3.5 -3
vt -3.25 -3.5
vt -3.25 -3
vt -15.85766 -1
vt -19.10766 -1
vt -19.10766 1
vt -15.85766 1
vt -22.35766 -1
vt -22.35766 1
vt -9.35766 -1
vt -12.60766 -1
vt -12.60766 1
vt -9.35766 1
vt -0.6249871 6.75
vt -0.6249937 6
vt -0.9687356 6.75
vt -0.9687421 6
vt -1.312491 6
vt -1.312484 6.75
vt -1.656239 6
vt -1.656232 6.75
vt -1.999987 6
vt -1.999981 6.75
vn -0.8944272 0 -0.4472136
vn -0.8944272 0 -0.4472136
vn -0.8944272 0 -0.4472136
vn -0.8944272 0 -0.4472136
vn 0.8944272 0 -0.4472136
vn 0.8944272 0 -0.4472136
vn 0.8944272 0 -0.4472136
vn 0.8944272 0 -0.4472136
vn 0 0 -1
vn 0 0 -1
vn 0 0 -1
vn 0 0 -1
vn 0 0 -1
vn 0 0 -1
vn 0 -0.8944272 -0.4472136
vn 0 -0.8944272 -0.4472136
vn 0 -0.8944272 -0.4472136
vn 0 -0.8944272 -0.4472136
vn 0 -0.8944272 -0.4472136
vn 0 -0.8944272 -0.4472136
vn 0 0 -1
vn 0 0 -1
vn 0 0 -1
vn 0 0 -1
vn 0 -0.8944272 -0.4472136
vn 0 -0.8944272 -0.4472136
vn 0 -0.8944272 -0.4472136
vn 0 -0.8944272 -0.4472136
vn 0 0 1
vn 0 0 1
vn 0 0 1
vn 0 0 1
vn 0 0 1
vn 0 0 1
vn 0 0 1
vn 0 0 1
vn 0 0 1
vn 0 0 1
vn 0 1 0
vn 0 1 0
vn 0 1 0
vn 0 1 0
vn 0 1 0
vn 0 1 0
vn 0 1 0
vn 0 1 0
vn 0 1 0
vn 0 1 0
g pb_Mesh214450_0
f 3/3/3 2/2/2 1/1/1
f 3/3/3 4/4/4 2/2/2
f 7/7/7 6/6/6 5/5/5
f 7/7/7 8/8/8 6/6/6
f 11/11/11 10/10/10 9/9/9
f 10/10/10 12/12/12 9/9/9
f 9/9/9 12/12/12 13/13/13
f 12/12/12 14/14/14 13/13/13
f 17/17/17 16/16/16 15/15/15
f 18/18/18 17/17/17 15/15/15
f 15/15/15 16/16/16 19/19/19
f 16/16/16 20/20/20 19/19/19
f 23/23/23 22/22/22 21/21/21
f 22/22/22 24/24/24 21/21/21
f 21/21/21 24/24/24 11/11/11
f 24/24/24 10/10/10 11/11/11
f 27/27/27 26/26/26 25/25/25
f 28/28/28 26/26/26 27/27/27
f 19/19/19 28/28/28 27/27/27
f 19/19/19 20/20/20 28/28/28
g pb_Mesh214450_1
f 31/31/31 30/30/30 29/29/29
f 31/31/31 29/29/29 32/32/32
f 34/34/34 33/33/33 30/30/30
f 34/34/34 30/30/30 31/31/31
f 37/37/37 36/36/36 35/35/35
f 37/37/37 35/35/35 38/38/38
f 32/32/32 29/29/29 36/36/36
f 32/32/32 36/36/36 37/37/37
g pb_Mesh214450_2
f 41/41/41 40/40/40 39/39/39
f 41/41/41 42/42/42 40/40/40
f 44/44/44 43/43/43 42/42/42
f 44/44/44 42/42/42 41/41/41
f 45/45/45 43/43/43 44/44/44
f 46/46/46 45/45/45 44/44/44
f 46/46/46 47/47/47 45/45/45
f 48/48/48 47/47/47 46/46/46
