g pb_Mesh443144
v 0 0 0
v 2 -2 2
v -1 -1 3
v 2 -2 2
v 4 -5 4
v 0 -3 7
v 2 -2 2
v 0 -3 7
v -1 -1 3
v -1 -1 3
v 0 -3 7
v -3 -2 6
v 0 0 0
v -1 -1 3
v -3 0 0
v -3 -2 6
v -5 -1 3
v -6.729358 0 0
v 0 0 0
v -3 0 0
v 1 -1 -3
v -3 0 0
v -6.729358 0 0
v -6 0 -3
v -3 0 0
v -6 0 -3
v 1 -1 -3
v -3 -1 -7
v 0 0 0
v 1 -1 -3
v 4 -2 -2
v 1 -1 -3
v -3 -1 -7
v 2 -3 -5
v 1 -1 -3
v 2 -3 -5
v 4 -2 -2
v 4 -2 -2
v 2 -3 -5
v 6 -5 -4
v 0 0 0
v 4 -2 -2
v 2 -2 2
v 4 -2 -2
v 6 -5 -4
v 6 -5 -1
v 4 -2 -2
v 6 -5 -1
v 2 -2 2
v 2 -2 2
v 6 -5 -1
v 4 -5 4
v -6.729358 0 0
v -5 -1 3
v -11 -2 3
v -5 -1 3
v -3 -2 6
v -6 -3 6
v -5 -1 3
v -6 -3 6
v -11 -2 3
v -11 -2 3
v -6 -3 6
v -11 -5 6
v -3 -2 6
v 0 -3 7
v -2 -5 8
v 0 -3 7
v 4 -5 4
v 1 -7 7
v 0 -3 7
v 1 -7 7
v -2 -5 8
v -2 -5 8
v 1 -7 7
v -3 -9 6
v 4 -5 4
v 6 -5 -1
v 5 -9 4
v 6 -5 -1
v 6 -5 -4
v 6 -9 -3
v 6 -5 -1
v 6 -9 -3
v 5 -9 4
v 5 -9 4
v 6 -9 -3
v 0 -10.88833 0
v 6 -5 -4
v 2 -3 -5
v 4 -7 -7
v 2 -3 -5
v -3 -1 -7
v -3 -5 -9
v 2 -3 -5
v -3 -5 -9
v 4 -7 -7
v 4 -7 -7
v -3 -5 -9
v -2 -9 -6
v -3 -1 -7
v -6 0 -3
v -8 -3 -6
v -6 0 -3
v -6.729358 0 0
v -11 -2 -2
v -6 0 -3
v -11 -2 -2
v -8 -3 -6
v -8 -3 -6
v -11 -2 -2
v -12 -5 -3
v -8 -11 3
v -12 -9 5
v -6 -11 7
v -12 -9 5
v -11 -5 6
v -8 -7 9
v -12 -9 5
v -8 -7 9
v -6 -11 7
v -6 -11 7
v -8 -7 9
v -3 -9 6
v -8 -11 3
v -6 -11 7
v -3.364679 -11.84417 0
v -6 -11 7
v -3 -9 6
v 0 -11 4
v -6 -11 7
v 0 -11 4
v -3.364679 -11.84417 0
v -3.364679 -11.84417 0
v 0 -11 4
v 0 -10.88833 0
v -8 -11 3
v -3.364679 -11.84417 0
v -5.342388 -10.62187 -3.2
v -3.364679 -11.84417 0
v 0 -10.88833 0
v 1 -11 -4
v -3.364679 -11.84417 0
v 1 -11 -4
v -5.342388 -10.62187 -3.2
v -5.342388 -10.62187 -3.2
v 1 -11 -4
v -2 -9 -6
v -8 -11 3
v -5.342388 -10.62187 -3.2
v -9 -16 -12
v -5.342388 -10.62187 -3.2
v -2 -9 -6
v -9 -14 -15
v -5.342388 -10.62187 -3.2
v -9 -14 -15
v -9 -16 -12
v -9 -16 -12
v -9 -14 -15
v -12 -5 -3
v -8 -11 3
v -9 -16 -12
v -12 -9 5
v -9 -16 -12
v -12 -5 -3
v -13 -5 2
v -9 -16 -12
v -13 -5 2
v -12 -9 5
v -12 -9 5
v -13 -5 2
v -11 -5 6
v -3 -9 6
v -8 -7 9
v -2 -5 8
v -8 -7 9
v -11 -5 6
v -6 -3 6
v -8 -7 9
v -6 -3 6
v -2 -5 8
v -2 -5 8
v -6 -3 6
v -3 -2 6
v 0 -10.88833 0
v 0 -11 4
v 5 -9 4
v 0 -11 4
v -3 -9 6
v 1 -7 7
v 0 -11 4
v 1 -7 7
v 5 -9 4
v 5 -9 4
v 1 -7 7
v 4 -5 4
v -2 -9 -6
v 1 -11 -4
v 4 -7 -7
v 1 -11 -4
v 0 -10.88833 0
v 6 -9 -3
v 1 -11 -4
v 6 -9 -3
v 4 -7 -7
v 4 -7 -7
v 6 -9 -3
v 6 -5 -4
v -12 -5 -3
v -9 -14 -15
v -8 -3 -6
v -9 -14 -15
v -2 -9 -6
v -3 -5 -9
v -9 -14 -15
v -3 -5 -9
v -8 -3 -6
v -8 -3 -6
v -3 -5 -9
v -3 -1 -7
v -11 -5 6
v -13 -5 2
v -11 -2 3
v -13 -5 2
v -12 -5 -3
v -11 -2 -2
v -13 -5 2
v -11 -2 -2
v -11 -2 3
v -11 -2 3
v -11 -2 -2
v -6.729358 0 0
vt -3.364679 0
vt -5.177709 1.977709
vt -1.977709 3.2
vt -1.977709 3.2
vt -3.364679 0
vt -5.177709 1.977709
vt 5.177709 3.2
vt 3.2 1.977709
vt 1.977709 5.177709
vt 1.977709 5.177709
vt 3.2 1.977709
vt 0 3.364679
vt -3.364679 0
vt -1.977709 3.2
vt 0 0
vt 0 5.444165
vt 1.977709 3.2
vt 3.364679 0
vt -3.364679 0
vt 0 0
vt -1.977709 -3.2
vt 0 0
vt 3.364679 0
vt 1.977709 -3.2
vt 0 0
vt 1.977709 -3.2
vt -1.977709 -3.2
vt 0 -5.444165
vt -3.364679 0
vt -1.977709 -3.2
vt -5.177709 -1.977709
vt -1.977709 5.177709
vt 0 3.364679
vt -3.2 1.977709
vt -1.977709 5.177709
vt -3.2 1.977709
vt -5.177709 3.2
vt 1.977709 3.2
vt 5.177709 1.977709
vt 3.364679 0
vt 0 5.444165
vt 1.977709 3.2
vt -1.977709 3.2
vt 1.977709 3.2
vt 3.364679 0
vt 0 0
vt 1.977709 3.2
vt 0 0
vt -1.977709 3.2
vt -1.977709 3.2
vt 0 0
vt -3.364679 0
vt 3.364679 0
vt 1.977709 3.2
vt 5.177709 1.977709
vt -1.977709 5.177709
vt 0 3.364679
vt -3.2 1.977709
vt -1.977709 5.177709
vt -3.2 1.977709
vt -5.177709 3.2
vt 1.977709 3.2
vt 5.177709 1.977709
vt 3.364679 0
vt 0 3.364679
vt 3.2 1.977709
vt 0 0
vt 3.2 1.977709
vt 5.444165 0
vt 3.2 -1.977709
vt 3.2 1.977709
vt 3.2 -1.977709
vt 0 0
vt 0 0
vt 3.2 -1.977709
vt 0 -3.364679
vt -3.364679 0
vt 0 0
vt -1.977709 -3.2
vt 0 0
vt 3.364679 0
vt 1.977709 -3.2
vt 0 0
vt 1.977709 -3.2
vt -1.977709 -3.2
vt -1.977709 -3.2
vt 1.977709 -3.2
vt 0 -5.444165
vt -5.444165 0
vt -3.2 1.977709
vt -3.2 -1.977709
vt -3.2 1.977709
vt 0 3.364679
vt 0 0
vt -3.2 1.977709
vt 0 0
vt -3.2 -1.977709
vt -3.2 -1.977709
vt 0 0
vt 0 -3.364679
vt 0 3.364679
vt 1.977709 5.177709
vt 3.2 1.977709
vt 1.977709 -3.2
vt 3.364679 0
vt 5.177709 -1.977709
vt 1.977709 5.177709
vt 5.177709 3.2
vt 3.2 1.977709
vt -5.177709 1.977709
vt -1.977709 3.2
vt -3.364679 0
vt -3.364679 0
vt -5.177709 1.977709
vt -1.977709 3.2
vt 1.977709 -3.2
vt 3.364679 0
vt 5.177709 -1.977709
vt -5.177709 -3.2
vt -3.2 -1.977709
vt -1.977709 -5.177709
vt -1.977709 -5.177709
vt -3.2 -1.977709
vt 0 -3.364679
vt -3.364679 0
vt -1.977709 3.2
vt 0 0
vt -1.977709 3.2
vt 0 5.444165
vt 1.977709 3.2
vt -1.977709 3.2
vt 1.977709 3.2
vt 0 0
vt 0 0
vt 1.977709 3.2
vt 3.364679 0
vt -3.364679 0
vt 0 0
vt -1.977709 -3.2
vt 0 0
vt 3.364679 0
vt 1.977709 -3.2
vt 0 0
vt 1.977709 -3.2
vt -1.977709 -3.2
vt -1.977709 -3.2
vt 1.977709 -3.2
vt 0 -5.444165
vt -3.364679 0
vt -1.977709 -3.2
vt -5.177709 -1.977709
vt 1.977709 -5.177709
vt 0 -3.364679
vt 3.2 -1.977709
vt 1.977709 -5.177709
vt 3.2 -1.977709
vt 5.177709 -3.2
vt -1.977709 -3.2
vt -5.177709 -1.977709
vt -3.364679 0
vt 0 -5.444165
vt -1.977709 -3.2
vt 1.977709 -3.2
vt -1.977709 -3.2
vt -3.364679 0
vt 0 0
vt -1.977709 -3.2
vt 0 0
vt 1.977709 -3.2
vt 1.977709 -3.2
vt 0 0
vt 3.364679 0
vt 0 -3.364679
vt -3.2 -1.977709
vt 0 0
vt -3.2 -1.977709
vt -5.444165 0
vt -3.2 1.977709
vt -3.2 -1.977709
vt -3.2 1.977709
vt 0 0
vt 0 0
vt -3.2 1.977709
vt 0 3.364679
vt 3.364679 0
vt 1.977709 3.2
vt 5.177709 1.977709
vt 1.977709 -5.177709
vt 0 -3.364679
vt 3.2 -1.977709
vt 1.977709 -5.177709
vt 3.2 -1.977709
vt 5.177709 -3.2
vt -1.977709 -3.2
vt -5.177709 -1.977709
vt -3.364679 0
vt 0 -3.364679
vt -1.977709 -5.177709
vt -3.2 -1.977709
vt 1.977709 -3.2
vt 3.364679 0
vt 5.177709 -1.977709
vt -1.977709 -5.177709
vt -5.177709 -3.2
vt -3.2 -1.977709
vt 5.177709 -1.977709
vt 1.977709 -3.2
vt 3.364679 0
vt 5.444165 0
vt 3.2 -1.977709
vt 3.2 1.977709
vt 3.2 -1.977709
vt 0 -3.364679
vt 0 0
vt 3.2 -1.977709
vt 0 0
vt 3.2 1.977709
vt 3.2 1.977709
vt 0 0
vt 0 3.364679
vt 3.364679 0
vt 0 0
vt 1.977709 3.2
vt 0 0
vt -3.364679 0
vt -1.977709 3.2
vt 0 0
vt -1.977709 3.2
vt 1.977709 3.2
vt 1.977709 3.2
vt -1.977709 3.2
vt 0 5.444165
vn 0.4082483 0.8164966 0.4082483
vn 0.4082483 0.8164966 0.4082483
vn 0.4082483 0.8164966 0.4082483
vn 0.6276459 0.6759264 0.3862436
vn 0.6276459 0.6759264 0.3862436
vn 0.6276459 0.6759264 0.3862436
vn 0.3956283 0.8571946 0.3296902
vn 0.3956283 0.8571946 0.3296902
vn 0.3956283 0.8571946 0.3296902
vn 0.1632993 0.8981462 0.4082483
vn 0.1632993 0.8981462 0.4082483
vn 0.1632993 0.8981462 0.4082483
vn 0 0.9486833 0.3162278
vn 0 0.9486833 0.3162278
vn 0 0.9486833 0.3162278
vn 0 0.9486833 0.3162278
vn 0 0.9486833 0.3162278
vn 0 0.9486833 0.3162278
vn 0 0.9486833 -0.3162278
vn 0 0.9486833 -0.3162278
vn 0 0.9486833 -0.3162278
vn 0 1 0
vn 0 1 0
vn 0 1 0
vn 0.140028 0.9801961 -0.140028
vn 0.140028 0.9801961 -0.140028
vn 0.140028 0.9801961 -0.140028
vn 0.140028 0.9801961 -0.140028
vn 0.3651484 0.9128709 -0.1825742
vn 0.3651484 0.9128709 -0.1825742
vn 0.3651484 0.9128709 -0.1825742
vn 0.4850713 0.7276069 -0.4850713
vn 0.4850713 0.7276069 -0.4850713
vn 0.4850713 0.7276069 -0.4850713
vn 0.421637 0.7378648 -0.5270463
vn 0.421637 0.7378648 -0.5270463
vn 0.421637 0.7378648 -0.5270463
vn 0.4796321 0.6851887 -0.548151
vn 0.4796321 0.6851887 -0.548151
vn 0.4796321 0.6851887 -0.548151
vn 0.5345225 0.8017837 0.2672612
vn 0.5345225 0.8017837 0.2672612
vn 0.5345225 0.8017837 0.2672612
vn 0.8320503 0.5547002 0
vn 0.8320503 0.5547002 0
vn 0.8320503 0.5547002 0
vn 0.7171372 0.5976143 0.3585686
vn 0.7171372 0.5976143 0.3585686
vn 0.7171372 0.5976143 0.3585686
vn 0.7016704 0.6548924 0.2806682
vn 0.7016704 0.6548924 0.2806682
vn 0.7016704 0.6548924 0.2806682
vn -0.1513795 0.908277 0.3900221
vn -0.1513795 0.908277 0.3900221
vn -0.1513795 0.908277 0.3900221
vn -0.2797514 0.8392544 0.4662524
vn -0.2797514 0.8392544 0.4662524
vn -0.2797514 0.8392544 0.4662524
vn -0.140797 0.8447819 0.5162556
vn -0.140797 0.8447819 0.5162556
vn -0.140797 0.8447819 0.5162556
vn -0.2721655 0.6804138 0.6804138
vn -0.2721655 0.6804138 0.6804138
vn -0.2721655 0.6804138 0.6804138
vn -0.1054093 0.5270463 0.8432741
vn -0.1054093 0.5270463 0.8432741
vn -0.1054093 0.5270463 0.8432741
vn 0.6423453 0.1605863 0.7494028
vn 0.6423453 0.1605863 0.7494028
vn 0.6423453 0.1605863 0.7494028
vn 0.3698001 0.09245003 0.9245003
vn 0.3698001 0.09245003 0.9245003
vn 0.3698001 0.09245003 0.9245003
vn 0 -0.4472136 0.8944272
vn 0 -0.4472136 0.8944272
vn 0 -0.4472136 0.8944272
vn 0.9044313 0.2261078 0.3617725
vn 0.9044313 0.2261078 0.3617725
vn 0.9044313 0.2261078 0.3617725
vn 1 0 0
vn 1 0 0
vn 1 0 0
vn 0.9874838 -0.07053456 0.1410691
vn 0.9874838 -0.07053456 0.1410691
vn 0.9874838 -0.07053456 0.1410691
vn 0.3206582 -0.9460866 0.04580832
vn 0.3206582 -0.9460866 0.04580832
vn 0.3206582 -0.9460866 0.04580832
vn 0.4558423 0.5698029 -0.6837635
vn 0.4558423 0.5698029 -0.6837635
vn 0.4558423 0.5698029 -0.6837635
vn 0.4728662 0.3940552 -0.7881104
vn 0.4728662 0.3940552 -0.7881104
vn 0.4728662 0.3940552 -0.7881104
vn 0.3713907 0.557086 -0.7427813
vn 0.3713907 0.557086 -0.7427813
vn 0.3713907 0.557086 -0.7427813
vn 0.06198758 -0.588882 -0.8058385
vn 0.06198758 -0.588882 -0.8058385
vn 0.06198758 -0.588882 -0.8058385
vn -0.4061643 0.7671993 -0.4964231
vn -0.4061643 0.7671993 -0.4964231
vn -0.4061643 0.7671993 -0.4964231
vn -0.3858708 0.9177707 -0.09381268
vn -0.3858708 0.9177707 -0.09381268
vn -0.3858708 0.9177707 -0.09381268
vn -0.4061643 0.7671993 -0.4964231
vn -0.4061643 0.7671993 -0.4964231
vn -0.4061643 0.7671993 -0.4964231
vn -0.6694387 0.4260064 -0.6085806
vn -0.6694387 0.4260064 -0.6085806
vn -0.6694387 0.4260064 -0.6085806
vn -0.3651484 -0.9128709 0.1825742
vn -0.3651484 -0.9128709 0.1825742
vn -0.3651484 -0.9128709 0.1825742
vn -0.7071068 0 0.7071068
vn -0.7071068 0 0.7071068
vn -0.7071068 0 0.7071068
vn -0.4242641 -0.5656855 0.7071068
vn -0.4242641 -0.5656855 0.7071068
vn -0.4242641 -0.5656855 0.7071068
vn 0.4364358 -0.2182179 0.8728715
vn 0.4364358 -0.2182179 0.8728715
vn 0.4364358 -0.2182179 0.8728715
vn -0.1359915 -0.9883739 0.06799575
vn -0.1359915 -0.9883739 0.06799575
vn -0.1359915 -0.9883739 0.06799575
vn 0.4364358 -0.2182179 0.8728715
vn 0.4364358 -0.2182179 0.8728715
vn 0.4364358 -0.2182179 0.8728715
vn 0.07327591 -0.9864853 0.1465518
vn 0.07327591 -0.9864853 0.1465518
vn 0.07327591 -0.9864853 0.1465518
vn 0.2731682 -0.9615916 -0.02684513
vn 0.2731682 -0.9615916 -0.02684513
vn 0.2731682 -0.9615916 -0.02684513
vn -0.288347 -0.9402739 -0.1809446
vn -0.288347 -0.9402739 -0.1809446
vn -0.288347 -0.9402739 -0.1809446
vn 0.2720374 -0.9576113 0.09474337
vn 0.2720374 -0.9576113 0.09474337
vn 0.2720374 -0.9576113 0.09474337
vn -0.09481136 -0.9480894 -0.3035414
vn -0.09481136 -0.9480894 -0.3035414
vn -0.09481136 -0.9480894 -0.3035414
vn -0.1230769 -0.7879407 -0.6033254
vn -0.1230769 -0.7879407 -0.6033254
vn -0.1230769 -0.7879407 -0.6033254
vn 0.6083823 -0.7641992 0.2141742
vn 0.6083823 -0.7641992 0.2141742
vn 0.6083823 -0.7641992 0.2141742
vn 0.4966988 -0.8629177 0.09307739
vn 0.4966988 -0.8629177 0.09307739
vn 0.4966988 -0.8629177 0.09307739
vn 0.9313617 -0.3029455 -0.2019637
vn 0.9313617 -0.3029455 -0.2019637
vn 0.9313617 -0.3029455 -0.2019637
vn -0.9782401 -0.1726306 -0.1150871
vn -0.9782401 -0.1726306 -0.1150871
vn -0.9782401 -0.1726306 -0.1150871
vn -0.2908649 -0.9016811 0.3199514
vn -0.2908649 -0.9016811 0.3199514
vn -0.2908649 -0.9016811 0.3199514
vn -0.9750179 -0.1063656 -0.1950036
vn -0.9750179 -0.1063656 -0.1950036
vn -0.9750179 -0.1063656 -0.1950036
vn -0.9584864 -0.2800073 -0.05384755
vn -0.9584864 -0.2800073 -0.05384755
vn -0.9584864 -0.2800073 -0.05384755
vn -0.8888889 0.1111111 0.4444444
vn -0.8888889 0.1111111 0.4444444
vn -0.8888889 0.1111111 0.4444444
vn 0.2987655 -0.4854939 0.8216051
vn 0.2987655 -0.4854939 0.8216051
vn 0.2987655 -0.4854939 0.8216051
vn -0.2638797 0.6596993 0.7036792
vn -0.2638797 0.6596993 0.7036792
vn -0.2638797 0.6596993 0.7036792
vn -0.07784989 0.6227992 0.7784989
vn -0.07784989 0.6227992 0.7784989
vn -0.07784989 0.6227992 0.7784989
vn -0.1690308 0.5070925 0.8451542
vn -0.1690308 0.5070925 0.8451542
vn -0.1690308 0.5070925 0.8451542
vn 0.371266 -0.928165 -0.02591194
vn 0.371266 -0.928165 -0.02591194
vn 0.371266 -0.928165 -0.02591194
vn 0.1116291 -0.6139601 0.7814038
vn 0.1116291 -0.6139601 0.7814038
vn 0.1116291 -0.6139601 0.7814038
vn 0.2480695 -0.6201737 0.7442084
vn 0.2480695 -0.6201737 0.7442084
vn 0.2480695 -0.6201737 0.7442084
vn 0.6423453 0.1605863 0.7494028
vn 0.6423453 0.1605863 0.7494028
vn 0.6423453 0.1605863 0.7494028
vn 0.08504865 -0.6378649 -0.7654379
vn 0.08504865 -0.6378649 -0.7654379
vn 0.08504865 -0.6378649 -0.7654379
vn 0.3493796 -0.9301046 0.113311
vn 0.3493796 -0.9301046 0.113311
vn 0.3493796 -0.9301046 0.113311
vn 0.4016097 -0.7228974 -0.5622535
vn 0.4016097 -0.7228974 -0.5622535
vn 0.4016097 -0.7228974 -0.5622535
vn 0.8616405 -0.1230915 -0.492366
vn 0.8616405 -0.1230915 -0.492366
vn 0.8616405 -0.1230915 -0.492366
vn -0.6647526 0.5083402 -0.5474433
vn -0.6647526 0.5083402 -0.5474433
vn -0.6647526 0.5083402 -0.5474433
vn 0.8236526 -0.1938006 -0.5329517
vn 0.8236526 -0.1938006 -0.5329517
vn 0.8236526 -0.1938006 -0.5329517
vn -0.1973343 0.6314697 -0.7498702
vn -0.1973343 0.6314697 -0.7498702
vn -0.1973343 0.6314697 -0.7498702
vn -0.3368608 0.421076 -0.8421519
vn -0.3368608 0.421076 -0.8421519
vn -0.3368608 0.421076 -0.8421519
vn -0.8164966 0.4082483 0.4082483
vn -0.8164966 0.4082483 0.4082483
vn -0.8164966 0.4082483 0.4082483
vn -0.9128709 0.3651484 -0.1825742
vn -0.9128709 0.3651484 -0.1825742
vn -0.9128709 0.3651484 -0.1825742
vn -0.8320503 0.5547003 0
vn -0.8320503 0.5547003 0
vn -0.8320503 0.5547003 0
vn -0.4241099 0.9056107 0
vn -0.4241099 0.9056107 0
vn -0.4241099 0.9056107 0
g pb_Mesh443144_0
f 3/3/3 2/2/2 1/1/1
f 6/6/6 5/5/5 4/4/4
f 9/9/9 8/8/8 7/7/7
f 12/12/12 11/11/11 10/10/10
f 15/15/15 14/14/14 13/13/13
f 17/17/17 16/16/16 14/14/14
f 15/15/15 17/17/17 14/14/14
f 18/18/18 17/17/17 15/15/15
f 21/21/21 20/20/20 19/19/19
f 24/24/24 23/23/23 22/22/22
f 27/27/27 26/26/26 25/25/25
f 28/28/28 26/26/26 27/27/27
f 31/31/31 30/30/30 29/29/29
f 34/34/34 33/33/33 32/32/32
f 37/37/37 36/36/36 35/35/35
f 40/40/40 39/39/39 38/38/38
f 43/43/43 42/42/42 41/41/41
f 46/46/46 45/45/45 44/44/44
f 49/49/49 48/48/48 47/47/47
f 52/52/52 51/51/51 50/50/50
f 55/55/55 54/54/54 53/53/53
f 58/58/58 57/57/57 56/56/56
f 61/61/61 60/60/60 59/59/59
f 64/64/64 63/63/63 62/62/62
f 67/67/67 66/66/66 65/65/65
f 70/70/70 69/69/69 68/68/68
f 73/73/73 72/72/72 71/71/71
f 76/76/76 75/75/75 74/74/74
f 79/79/79 78/78/78 77/77/77
f 82/82/82 81/81/81 80/80/80
f 85/85/85 84/84/84 83/83/83
f 88/88/88 87/87/87 86/86/86
f 91/91/91 90/90/90 89/89/89
f 94/94/94 93/93/93 92/92/92
f 97/97/97 96/96/96 95/95/95
f 100/100/100 99/99/99 98/98/98
f 103/103/103 102/102/102 101/101/101
f 106/106/106 105/105/105 104/104/104
f 109/109/109 108/108/108 107/107/107
f 112/112/112 111/111/111 110/110/110
f 115/115/115 114/114/114 113/113/113
f 118/118/118 117/117/117 116/116/116
f 121/121/121 120/120/120 119/119/119
f 124/124/124 123/123/123 122/122/122
f 127/127/127 126/126/126 125/125/125
f 130/130/130 129/129/129 128/128/128
f 133/133/133 132/132/132 131/131/131
f 136/136/136 135/135/135 134/134/134
f 139/139/139 138/138/138 137/137/137
f 142/142/142 141/141/141 140/140/140
f 145/145/145 144/144/144 143/143/143
f 148/148/148 147/147/147 146/146/146
f 151/151/151 150/150/150 149/149/149
f 154/154/154 153/153/153 152/152/152
f 157/157/157 156/156/156 155/155/155
f 160/160/160 159/159/159 158/158/158
f 163/163/163 162/162/162 161/161/161
f 166/166/166 165/165/165 164/164/164
f 169/169/169 168/168/168 167/167/167
f 172/172/172 171/171/171 170/170/170
f 175/175/175 174/174/174 173/173/173
f 178/178/178 177/177/177 176/176/176
f 181/181/181 180/180/180 179/179/179
f 184/184/184 183/183/183 182/182/182
f 187/187/187 186/186/186 185/185/185
f 190/190/190 189/189/189 188/188/188
f 193/193/193 192/192/192 191/191/191
f 196/196/196 195/195/195 194/194/194
f 199/199/199 198/198/198 197/197/197
f 202/202/202 201/201/201 200/200/200
f 205/205/205 204/204/204 203/203/203
f 208/208/208 207/207/207 206/206/206
f 211/211/211 210/210/210 209/209/209
f 214/214/214 213/213/213 212/212/212
f 217/217/217 216/216/216 215/215/215
f 220/220/220 219/219/219 218/218/218
f 223/223/223 222/222/222 221/221/221
f 226/226/226 225/225/225 224/224/224
f 229/229/229 228/228/228 227/227/227
f 232/232/232 231/231/231 230/230/230
