g pb_Mesh405222
v 0 1 0
v -13 1 0
v 0 1 -10
v -13 1 -10
v 0 -84.80753 -10
v -13 -84.80753 -10
v 0 -84.80753 0
v -13 -84.80753 0
v 0 -84.80753 0
v -13 -84.80753 0
v -13 -41.90376 0
v 0 -41.90376 0
v -13 -84.80753 0
v -13 -84.80753 -10
v -13 -41.90376 -10
v -13 -41.90376 0
v -13 -41.90376 -10
v 0 -84.80753 -10
v 0 -41.90376 -10
v -13 -84.80753 -10
v 0 -41.90376 -10
v 0 -84.80753 0
v 0 -41.90376 0
v 0 -84.80753 -10
v -13 -20.45188 0
v 0 -20.45188 0
v -13 -20.45188 -10
v -13 -20.45188 0
v -13 -20.45188 -10
v 0 -20.45188 -10
v 0 -20.45188 -10
v 0 -20.45188 0
v -13 -9.725941 0
v 0 -9.725941 0
v -13 1 0
v 0 1 0
v -13 -9.725941 -10
v -13 -9.725941 0
v -13 1 -10
v -13 1 0
v -13 -9.725941 -10
v 0 -9.725941 -10
v -13 1 -10
v 0 1 -10
v 0 -9.725941 -10
v 0 -9.725941 0
v 0 1 -10
v 0 1 0
vt 4.875 -3.75
vt 8.125 -3.75
vt 4.875 -6.25
vt 8.125 -6.25
vt -4.875 -6.25
vt -8.125 -6.25
vt -4.875 -3.75
vt -8.125 -3.75
vt -4.875 -52.6297
vt -8.125 -52.6297
vt -8.125 -41.90376
vt -4.875 -41.90376
vt -3.75 -52.6297
vt -6.25 -52.6297
vt -6.25 -41.90376
vt -3.75 -41.90376
vt -8.125 -41.90376
vt -4.875 -52.6297
vt -4.875 -41.90376
vt -8.125 -52.6297
vt -6.25 -41.90376
vt -3.75 -52.6297
vt -3.75 -41.90376
vt -6.25 -52.6297
vt -8.125 -36.54079
vt -4.875 -36.54079
vt -6.25 -36.54079
vt -3.75 -36.54079
vt -8.125 -36.54079
vt -4.875 -36.54079
vt -6.25 -36.54079
vt -3.75 -36.54079
vt -8.125 -33.85931
vt -4.875 -33.85931
vt -8.125 -31.17782
vt -4.875 -31.17782
vt -6.25 -33.85931
vt -3.75 -33.85931
vt -6.25 -31.17782
vt -3.75 -31.17782
vt -8.125 -33.85931
vt -4.875 -33.85931
vt -8.125 -31.17782
vt -4.875 -31.17782
vt -6.25 -33.85931
vt -3.75 -33.85931
vt -6.25 -31.17782
vt -3.75 -31.17782
vn 0 1 0
vn 0 1 0
vn 0 1 0
vn 0 1 0
vn 0 -1 0
vn 0 -1 0
vn 0 -1 0
vn 0 -1 0
vn 0 0 0.9999999
vn 0 0 0.9999999
vn 0 0 0.9999999
vn 0 0 0.9999999
vn -1 0 0
vn -1 0 0
vn -1 0 0
vn -1 0 0
vn 0 0 -0.9999999
vn 0 0 -0.9999999
vn 0 0 -0.9999999
vn 0 0 -0.9999999
vn 1 0 0
vn 1 0 0
vn 1 0 0
vn 1 0 0
vn 0 0 0.9999999
vn 0 0 0.9999999
vn -1 0 0
vn -1 0 0
vn 0 0 -0.9999999
vn 0 0 -0.9999999
vn 1 0 0
vn 1 0 0
vn 0 0 0.9999999
vn 0 0 0.9999999
vn 0 0 0.9999999
vn 0 0 0.9999999
vn -1 0 0
vn -1 0 0
vn -1 0 0
vn -1 0 0
vn 0 0 -0.9999999
vn 0 0 -0.9999999
vn 0 0 -0.9999999
vn 0 0 -0.9999999
vn 1 0 0
vn 1 0 0
vn 1 0 0
vn 1 0 0
g pb_Mesh405222_0
f 3/3/3 2/2/2 1/1/1
f 3/3/3 4/4/4 2/2/2
f 7/7/7 6/6/6 5/5/5
f 7/7/7 8/8/8 6/6/6
f 11/11/11 10/10/10 9/9/9
f 11/11/11 9/9/9 12/12/12
f 15/15/15 14/14/14 13/13/13
f 15/15/15 13/13/13 16/16/16
f 19/19/19 18/18/18 17/17/17
f 18/18/18 20/20/20 17/17/17
f 23/23/23 22/22/22 21/21/21
f 22/22/22 24/24/24 21/21/21
f 25/25/25 11/11/11 12/12/12
f 25/25/25 12/12/12 26/26/26
f 27/27/27 15/15/15 16/16/16
f 27/27/27 16/16/16 28/28/28
f 30/30/30 19/19/19 29/29/29
f 19/19/19 17/17/17 29/29/29
f 32/32/32 23/23/23 31/31/31
f 23/23/23 21/21/21 31/31/31
f 33/33/33 25/25/25 26/26/26
f 33/33/33 26/26/26 34/34/34
f 35/35/35 33/33/33 34/34/34
f 35/35/35 34/34/34 36/36/36
f 37/37/37 27/27/27 28/28/28
f 37/37/37 28/28/28 38/38/38
f 39/39/39 37/37/37 38/38/38
f 39/39/39 38/38/38 40/40/40
f 42/42/42 30/30/30 41/41/41
f 30/30/30 29/29/29 41/41/41
f 44/44/44 42/42/42 43/43/43
f 42/42/42 41/41/41 43/43/43
f 46/46/46 32/32/32 45/45/45
f 32/32/32 31/31/31 45/45/45
f 48/48/48 46/46/46 47/47/47
f 46/46/46 45/45/45 47/47/47
