g pb_Mesh221948
v -5.500003 0.5 -7.000006
v -6.000003 0.5 -7.000006
v -6.000003 1 -7.000006
v -5.500003 1 -7.000006
v -2.500002 0.5 -4.500006
v -5.500003 0.5 -7.000006
v -5.500003 1 -7.000006
v -2.500002 1 -4.500006
v -6.000003 0.5 -7.000006
v -6.000004 0.5 -12.00001
v -6.000004 1 -12.00001
v -6.000003 1 -7.000006
v -6.000004 0.5 -12.00001
v -5.500004 0.5 -12.00001
v -5.500004 1 -12.00001
v -6.000004 1 -12.00001
v -5.500003 0.5 -7.000006
v -5.500004 0.5 -12.00001
v -6.000003 0.5 -7.000006
v -6.000004 0.5 -12.00001
v -2.500002 0.5 -4.500006
v -2.500002 0.5 -9.500006
v 0.4999976 1 -7.000007
v 0.9999977 0.5 -7.000007
v 0.9999977 1 -7.000007
v 0.4999976 0.5 -7.000007
v -2.500002 1 -9.500006
v 0.4999976 0.5 -7.000007
v 0.4999976 1 -7.000007
v -2.500002 0.5 -9.500006
v 0.9999977 1 -7.000007
v 0.9999983 0.5 -2.000006
v 0.9999983 1 -2.000006
v 0.9999977 0.5 -7.000007
v 0.9999983 1 -2.000006
v 0.4999982 0.5 -2.000006
v 0.4999982 1 -2.000006
v 0.9999983 0.5 -2.000006
v 0.9999983 0.5 -2.000006
v 0.9999977 0.5 -7.000007
v 0.4999982 0.5 -2.000006
v 0.4999976 0.5 -7.000007
vt -8.631702 0.5
vt -9.027416 0.5
vt -9.027416 1
vt -8.631702 1
vt -4.729261 0.5
vt -8.631702 0.5
vt -8.631702 1
vt -4.729261 1
vt -6.796232 0.5
vt -11.79346 0.5
vt -11.79346 1
vt -6.796232 1
vt -11.79346 0.5
vt -11.81011 0.5
vt -11.81011 1
vt -11.79346 1
vt 5.500003 -7.000006
vt 5.500004 -12.00001
vt 6.000003 -7.000006
vt 6.000004 -12.00001
vt 2.500002 -4.500006
vt 2.500002 -9.500006
vt -3.883142 1
vt -3.487429 0.5
vt -3.487429 1
vt -3.883142 0.5
vt -7.785582 1
vt -3.883142 0.5
vt -3.883142 1
vt -7.785582 0.5
vt -7.029436 1
vt -2.03221 0.5
vt -2.03221 1
vt -7.029436 0.5
vt -2.03221 1
vt -2.015553 0.5
vt -2.015553 1
vt -2.03221 0.5
vt -0.9999983 -2.000006
vt -0.9999977 -7.000007
vt -0.4999982 -2.000006
vt -0.4999976 -7.000007
vn 0 0 1
vn 0 0 1
vn 0 0 1
vn 0 0 1
vn -0.6401843 0 0.7682214
vn -0.6401843 0 0.7682214
vn -0.6401843 0 0.7682214
vn -0.6401843 0 0.7682214
vn -1 0 9.536741E-08
vn -1 0 9.536741E-08
vn -1 0 9.536741E-08
vn -1 0 9.536741E-08
vn 0 0 -1
vn 0 0 -1
vn 0 0 -1
vn 0 0 -1
vn 0 -0.9999999 0
vn 0 -1 0
vn 0 -1 0
vn 0 -1 0
vn 0 -1 0
vn 0 -1 0
vn 0 0 -1
vn 0 0 -1
vn 0 0 -1
vn 0 0 -1
vn 0.6401843 0 -0.7682213
vn 0.6401843 0 -0.7682213
vn 0.6401843 0 -0.7682213
vn 0.6401843 0 -0.7682213
vn 1 0 -1.192093E-07
vn 1 0 -1.192093E-07
vn 1 0 -1.192093E-07
vn 1 0 -1.192093E-07
vn 0 0 1
vn 0 0 1
vn 0 0 1
vn 0 0 1
vn 0 -1 0
vn 0 -1 0
vn 0 -1 0
vn 0 -1 0
g pb_Mesh221948_0
f 3/3/3 2/2/2 1/1/1
f 3/3/3 1/1/1 4/4/4
f 7/7/7 6/6/6 5/5/5
f 7/7/7 5/5/5 8/8/8
f 11/11/11 10/10/10 9/9/9
f 11/11/11 9/9/9 12/12/12
f 15/15/15 14/14/14 13/13/13
f 15/15/15 13/13/13 16/16/16
f 19/19/19 18/18/18 17/17/17
f 20/20/20 18/18/18 19/19/19
f 17/17/17 22/22/22 21/21/21
f 17/17/17 18/18/18 22/22/22
f 25/25/25 24/24/24 23/23/23
f 24/24/24 26/26/26 23/23/23
f 29/29/29 28/28/28 27/27/27
f 28/28/28 30/30/30 27/27/27
f 33/33/33 32/32/32 31/31/31
f 32/32/32 34/34/34 31/31/31
f 37/37/37 36/36/36 35/35/35
f 36/36/36 38/38/38 35/35/35
f 41/41/41 40/40/40 39/39/39
f 42/42/42 40/40/40 41/41/41
f 21/21/21 42/42/42 41/41/41
f 21/21/21 22/22/22 42/42/42
