g pb_Mesh59000
v -1.5 -1.5 -1.020218
v -1.5 2 -2
v -1.5 3.411781 -0.9126892
v -1.5 3.411781 -2
v -1.5 2 -2
v -0.5 2 -2
v -1.5 3.411781 -2
v -0.5 3.411781 -2
v -0.5 2 -2
v -0.5 -1.5 -1.020218
v -0.5 3.411781 -2
v -0.5 3.411781 -0.9126892
v -1.5 2 -2
v -0.5 -1.5 -1.020218
v -0.5 2 -2
v -1.5 -1.5 -1.020218
v -0.5 3.411781 -0.9126892
v -1.5 3.411781 -0.9126892
v -0.5 3.411781 -2
v -1.5 3.411781 -2
vt -1.020218 -1.5
vt -2 2
vt -0.9126892 3.411781
vt -2 3.411781
vt 1.5 2
vt 0.5 2
vt 1.5 3.411781
vt 0.5 3.411781
vt 2 2
vt 1.020218 -1.5
vt 2 3.411781
vt 0.9126892 3.411781
vt 1.5 2.465108
vt 0.5 -1.169445
vt 0.5 2.465108
vt 1.5 -1.169445
vt 0.5 -0.9126892
vt 1.5 -0.9126892
vt 0.5 -2
vt 1.5 -2
vn -1 0 0
vn -1 0 0
vn -1 0 0
vn -1 0 0
vn 0 0 -1
vn 0 0 -1
vn 0 0 -1
vn 0 0 -1
vn 1 0 0
vn 1 0 0
vn 1 0 0
vn 1 0 0
vn 0 -0.2695743 -0.9629796
vn 0 -0.2695743 -0.9629796
vn 0 -0.2695743 -0.9629796
vn 0 -0.2695743 -0.9629796
vn 0 1 0
vn 0 1 0
vn 0 1 0
vn 0 1 0
g pb_Mesh59000_0
f 3/3/3 2/2/2 1/1/1
f 3/3/3 4/4/4 2/2/2
f 7/7/7 6/6/6 5/5/5
f 7/7/7 8/8/8 6/6/6
f 11/11/11 10/10/10 9/9/9
f 11/11/11 12/12/12 10/10/10
f 15/15/15 14/14/14 13/13/13
f 14/14/14 16/16/16 13/13/13
g pb_Mesh59000_1
f 19/19/19 18/18/18 17/17/17
f 19/19/19 20/20/20 18/18/18
