g pb_Mesh224998
v 0.625 24.125 0.875
v 0.5 10 0.5
v 0.3125 24.125 0.875
v 0.25 10 0.5
v 0 10 0.5
v 0 24.125 0.875
v 0.3125 24.125 0.875
v 0 24.125 0.875
v 0 38.25 0.5831604
v 0.375 38.25 0.5855103
v 0.75 38.25 0.5855103
v 0.625 24.125 0.875
v 0.375 38.25 0.5855103
v 0.3125 24.125 0.875
v 0 38.25 0.5831604
v -0.3125 24.125 0.875
v -0.375 38.25 0.5855103
v -0.25 10 0.5
v -0.3125 24.125 0.875
v -0.5 10 0.5
v -0.625 24.125 0.875
v -0.3125 24.125 0.875
v -0.625 24.125 0.875
v -0.375 38.25 0.5855103
v -0.75 38.25 0.5855103
v 0 66.5 2
v 0 52.375 0.5027542
v -0.4375 52.375 0.5027542
v -0.5 66.5 2
v 0 52.375 0.5027542
v 0 38.25 0.5831604
v -0.375 38.25 0.5855103
v -0.4375 52.375 0.5027542
v -0.375 38.25 0.5855103
v -0.75 38.25 0.5855103
v -0.875 52.375 0.5027542
v -0.875 52.375 0.5027542
v -1 66.5 2
v 0.875 52.375 0.5027542
v 0.75 38.25 0.5855103
v 0.4375 52.375 0.5027542
v 0.375 38.25 0.5855103
v 0.375 38.25 0.5855103
v 0 38.25 0.5831604
v 0 52.375 0.5027542
v 0.4375 52.375 0.5027542
v 0.5 66.5 2
v 1 66.5 2
v 0.875 52.375 0.5027542
v 0.75 38.25 -1.25
v 0.625 24.125 -0.875
v 0.75 38.25 -0.625
v 0.625 24.125 -0.4375
v 0.5 10 -0.5
v 0.5 10 -0.25
v 0.625 24.125 0
v 0.5 10 0
v 0.75 38.25 0
v 0.625 24.125 0.4375
v 0.5 10 0.25
v 0.5 10 0.5
v 0.625 24.125 0.875
v 0.75 38.25 0.263588
v 0.75 38.25 0.5855103
v 0.875 52.375 -0.3097458
v 0.875 52.375 0.5027542
v 1 66.5 1
v 1 66.5 2
v 1 66.5 0
v 0.875 52.375 -0.5829544
v 1 66.5 -2
v 0.875 52.375 -1.625
v 1 66.5 -1
v 0.875 52.375 -0.8125
v -0.625 24.125 0.875
v -0.5 10 0.5
v -0.625 24.125 0.4375
v -0.5 10 0.25
v -0.5 10 0
v -0.625 24.125 0
v -0.75 38.25 0
v -0.75 38.25 0.263588
v -0.75 38.25 0.5855103
v -0.625 24.125 -0.4375
v -0.75 38.25 -0.625
v -0.5 10 -0.25
v -0.5 10 -0.5
v -0.625 24.125 -0.875
v -0.75 38.25 -1.25
v -1 66.5 0
v -0.875 52.375 0
v -0.875 52.375 -0.8125
v -1 66.5 -1
v -0.875 52.375 -1.625
v -1 66.5 -2
v -0.875 52.375 0.5027542
v -0.875 52.375 0.2295456
v -1 66.5 1
v -1 66.5 2
v -0.75 38.25 -1.25
v -0.625 24.125 -0.875
v -0.375 38.25 -1.25
v -0.3125 24.125 -0.875
v -0.5 10 -0.5
v -0.25 10 -0.5
v 0 24.125 -0.875
v 0 10 -0.5
v 0 38.25 -1.25
v 0.3125 24.125 -0.875
v 0.25 10 -0.5
v 0.5 10 -0.5
v 0.625 24.125 -0.875
v 0.375 38.25 -1.25
v 0.75 38.25 -1.25
v 0.4375 52.375 -1.625
v 0.875 52.375 -1.625
v 0.5 66.5 -2
v 1 66.5 -2
v 0 66.5 -2
v 0 52.375 -1.625
v -1 66.5 -2
v -0.875 52.375 -1.625
v -0.5 66.5 -2
v -0.4375 52.375 -1.625
vt -14 41.82813
vt -13.99999 37
vt -14.25 41.82813
vt -14.24999 37
vt -14.49999 37
vt -14.5 41.82813
vt -14.25 41.82813
vt -14.5 41.82813
vt -14.5 46.75
vt -14.25 46.75
vt -14 46.75
vt -14 41.82813
vt -14.25 46.75
vt -14.25 41.82813
vt -14.5 46.75
vt -14.75 41.82813
vt -14.75 46.75
vt -14.74999 37
vt -14.75 41.82813
vt -14.99999 37
vt -15 41.82813
vt -14.75 41.82813
vt -15 41.82813
vt -14.75 46.75
vt -15 46.75
vt -14.5 56.5
vt -14.5 51.67188
vt -14.75 51.67188
vt -14.75 56.5
vt -14.5 51.67188
vt -14.5 46.75
vt -14.75 46.75
vt -14.75 51.67188
vt -14.75 46.75
vt -15 46.75
vt -15 51.67188
vt -15 51.67188
vt -15 56.5
vt -14 51.67188
vt -14 46.75
vt -14.25 51.67188
vt -14.25 46.75
vt -14.25 46.75
vt -14.5 46.75
vt -14.5 51.67188
vt -14.25 51.67188
vt -14.25 56.5
vt -14 56.5
vt -14 51.67188
vt -11.5 46.75
vt -11.5 41.82813
vt -11.75 46.75
vt -11.75 41.82813
vt -11.49999 37
vt -11.74999 37
vt -12 41.82813
vt -11.99999 37
vt -12 46.75
vt -12.25 41.82813
vt -12.24999 37
vt -12.49999 37
vt -12.5 41.82813
vt -12.25 46.75
vt -12.5 46.75
vt -12.25 51.67188
vt -12.5 51.67188
vt -12.25 56.5
vt -12.5 56.5
vt -12 56.5
vt -12 51.67188
vt -11.5 56.5
vt -11.5 51.67188
vt -11.75 56.5
vt -11.75 51.67188
vt -12.50002 41.82813
vt -12.50003 37
vt -12.75002 41.82813
vt -12.75003 37
vt -13.00003 37
vt -13.00002 41.82813
vt -13 46.75
vt -12.75 46.75
vt -12.5 46.75
vt -13.25002 41.82813
vt -13.25 46.75
vt -13.25003 37
vt -13.50003 37
vt -13.50002 41.82813
vt -13.5 46.75
vt -12.99996 56.5
vt -12.99998 51.67188
vt -13.24998 51.67188
vt -13.24996 56.5
vt -13.49998 51.67188
vt -13.49996 56.5
vt -12.49998 51.67188
vt -12.74998 51.67188
vt -12.74996 56.5
vt -12.49996 56.5
vt -10 46.75
vt -10 41.82813
vt -10.25 46.75
vt -10.25 41.82813
vt -9.999991 37
vt -10.24999 37
vt -10.5 41.82813
vt -10.49999 37
vt -10.5 46.75
vt -10.75 41.82813
vt -10.74999 37
vt -10.99999 37
vt -11 41.82813
vt -10.75 46.75
vt -11 46.75
vt -10.75 51.67188
vt -11 51.67188
vt -10.75 56.5
vt -11 56.5
vt -10.5 56.5
vt -10.5 51.67188
vt -10 56.5
vt -10 51.67188
vt -10.25 56.5
vt -10.25 51.67188
vn 0 -0.02653932 0.9996478
vn 0 -0.02653932 0.9996478
vn 0 -0.02653932 0.9996478
vn 0 -0.02653932 0.9996477
vn 0 -0.02653932 0.9996477
vn 0 -0.02653932 0.9996478
vn -0.003417225 0.02058111 0.9997823
vn 0 0.0206568 0.9997866
vn -0.003417225 0.02058111 0.9997823
vn -0.006264834 0.02051785 0.9997699
vn 0 0.02049055 0.9997901
vn 0 0.02049055 0.9997901
vn 0 0.02049055 0.9997901
vn 0 0.02049055 0.9997901
vn 0.003417225 0.02058111 0.9997823
vn 0.003417225 0.02058111 0.9997823
vn 0.006264834 0.02051785 0.9997699
vn 0 -0.02653932 0.9996478
vn 0 -0.02653932 0.9996478
vn 0 -0.02653932 0.9996478
vn 0 -0.02653932 0.9996478
vn 0 0.02049055 0.9997901
vn 0 0.02049055 0.9997901
vn 0 0.02049055 0.9997901
vn 0 0.02049055 0.9997901
vn 0 -0.1054092 0.9944289
vn 0 -0.1054092 0.9944289
vn 0 -0.1054092 0.9944289
vn 0 -0.1054092 0.9944289
vn 0.002892067 0.005781932 0.9999791
vn 0.006266051 0.00569227 0.9999642
vn 0.002892067 0.005781932 0.9999791
vn 0 0.005858734 0.9999828
vn 0 0.005858734 0.9999828
vn 0 0.005858734 0.9999828
vn 0 0.005858734 0.9999828
vn 0 -0.1054092 0.9944289
vn 0 -0.1054092 0.9944289
vn 0 0.005858734 0.9999828
vn 0 0.005858734 0.9999828
vn 0 0.005858734 0.9999828
vn 0 0.005858734 0.9999828
vn -0.002892067 0.005781932 0.9999791
vn -0.006266051 0.00569227 0.9999642
vn -0.002892067 0.005781932 0.9999791
vn 0 -0.1054092 0.9944289
vn 0 -0.1054092 0.9944289
vn 0 -0.1054092 0.9944289
vn 0 -0.1054092 0.9944289
vn 0.9999609 -0.008849212 0
vn 0.9999609 -0.008849212 0
vn 0.9999609 -0.008849212 0
vn 0.9999609 -0.008849211 0
vn 0.9999608 -0.008849211 0
vn 0.9999608 -0.008849211 0
vn 0.9999608 -0.008849211 0
vn 0.9999608 -0.008849211 0
vn 0.9999609 -0.008849212 0
vn 0.9999608 -0.008849211 0
vn 0.9999608 -0.008849211 0
vn 0.9999608 -0.008849211 0
vn 0.9999609 -0.008849211 0
vn 0.9999608 -0.008849211 0
vn 0.9999609 -0.008849212 0
vn 0.9999608 -0.00884921 0
vn 0.9999609 -0.008849211 0
vn 0.9999608 -0.008849211 0
vn 0.9999608 -0.008849211 0
vn 0.9999608 -0.008849211 0
vn 0.9999608 -0.00884921 0
vn 0.9999608 -0.008849211 0
vn 0.9999608 -0.008849211 0
vn 0.9999608 -0.008849211 0
vn 0.9999609 -0.008849211 0
vn -0.9999609 -0.008849211 0
vn -0.9999608 -0.008849211 0
vn -0.9999608 -0.008849211 0
vn -0.9999608 -0.008849211 0
vn -0.9999608 -0.008849211 0
vn -0.9999608 -0.008849211 0
vn -0.9999608 -0.008849211 0
vn -0.9999608 -0.008849211 0
vn -0.9999609 -0.008849212 0
vn -0.9999609 -0.008849212 0
vn -0.9999609 -0.008849212 0
vn -0.9999608 -0.008849211 0
vn -0.9999608 -0.008849211 0
vn -0.9999609 -0.008849211 0
vn -0.9999609 -0.008849212 0
vn -0.9999608 -0.008849211 0
vn -0.9999609 -0.008849211 0
vn -0.9999608 -0.008849211 0
vn -0.9999608 -0.008849211 0
vn -0.9999609 -0.008849211 0
vn -0.9999608 -0.008849211 0
vn -0.9999608 -0.00884921 0
vn -0.9999608 -0.008849211 0
vn -0.9999608 -0.008849211 0
vn -0.9999608 -0.008849211 0
vn 0 -0.02653932 -0.9996478
vn 0 -0.02653932 -0.9996477
vn 0 -0.02653932 -0.9996477
vn 0 -0.02653932 -0.9996478
vn 0 -0.02653932 -0.9996478
vn 0 -0.02653932 -0.9996477
vn 0 -0.02653932 -0.9996478
vn 0 -0.02653932 -0.9996477
vn 0 -0.02653932 -0.9996477
vn 0 -0.02653932 -0.9996478
vn 0 -0.02653932 -0.9996477
vn 0 -0.02653932 -0.9996478
vn 0 -0.02653932 -0.9996478
vn 0 -0.02653932 -0.9996477
vn 0 -0.02653932 -0.9996478
vn 0 -0.02653932 -0.9996479
vn 0 -0.02653932 -0.9996478
vn 0 -0.02653932 -0.9996478
vn 0 -0.02653932 -0.9996477
vn 0 -0.02653932 -0.9996478
vn 0 -0.02653932 -0.9996478
vn 0 -0.02653932 -0.9996477
vn 0 -0.02653932 -0.9996478
vn 0 -0.02653932 -0.9996478
vn 0 -0.02653932 -0.9996478
g pb_Mesh224998_0
f 3/3/3 2/2/2 1/1/1
f 3/3/3 4/4/4 2/2/2
f 6/6/6 5/5/5 4/4/4
f 6/6/6 4/4/4 3/3/3
f 9/9/9 8/8/8 7/7/7
f 9/9/9 7/7/7 10/10/10
f 13/13/13 12/12/12 11/11/11
f 13/13/13 14/14/14 12/12/12
f 16/16/16 8/8/8 15/15/15
f 17/17/17 16/16/16 15/15/15
f 18/18/18 5/5/5 6/6/6
f 19/19/19 18/18/18 6/6/6
f 19/19/19 20/20/20 18/18/18
f 21/21/21 20/20/20 19/19/19
f 24/24/24 23/23/23 22/22/22
f 25/25/25 23/23/23 24/24/24
f 28/28/28 27/27/27 26/26/26
f 29/29/29 28/28/28 26/26/26
f 32/32/32 31/31/31 30/30/30
f 33/33/33 32/32/32 30/30/30
f 33/33/33 35/35/35 34/34/34
f 36/36/36 35/35/35 33/33/33
f 29/29/29 37/37/37 28/28/28
f 38/38/38 37/37/37 29/29/29
f 41/41/41 40/40/40 39/39/39
f 41/41/41 42/42/42 40/40/40
f 45/45/45 44/44/44 43/43/43
f 45/45/45 43/43/43 41/41/41
f 26/26/26 27/27/27 46/46/46
f 26/26/26 46/46/46 47/47/47
f 47/47/47 49/49/49 48/48/48
f 47/47/47 46/46/46 49/49/49
f 52/52/52 51/51/51 50/50/50
f 53/53/53 51/51/51 52/52/52
f 53/53/53 54/54/54 51/51/51
f 55/55/55 54/54/54 53/53/53
f 56/56/56 55/55/55 53/53/53
f 56/56/56 57/57/57 55/55/55
f 58/58/58 53/53/53 52/52/52
f 58/58/58 56/56/56 53/53/53
f 61/61/61 60/60/60 59/59/59
f 62/62/62 61/61/61 59/59/59
f 62/62/62 59/59/59 63/63/63
f 64/64/64 62/62/62 63/63/63
f 63/63/63 59/59/59 58/58/58
f 59/59/59 56/56/56 58/58/58
f 59/59/59 60/60/60 56/56/56
f 60/60/60 57/57/57 56/56/56
f 64/64/64 63/63/63 65/65/65
f 66/66/66 64/64/64 65/65/65
f 66/66/66 65/65/65 67/67/67
f 68/68/68 66/66/66 67/67/67
f 67/67/67 65/65/65 69/69/69
f 65/65/65 70/70/70 69/69/69
f 65/65/65 63/63/63 70/70/70
f 63/63/63 58/58/58 70/70/70
f 73/73/73 72/72/72 71/71/71
f 74/74/74 72/72/72 73/73/73
f 74/74/74 50/50/50 72/72/72
f 52/52/52 50/50/50 74/74/74
f 70/70/70 52/52/52 74/74/74
f 70/70/70 58/58/58 52/52/52
f 69/69/69 74/74/74 73/73/73
f 69/69/69 70/70/70 74/74/74
f 77/77/77 76/76/76 75/75/75
f 77/77/77 78/78/78 76/76/76
f 80/80/80 79/79/79 78/78/78
f 80/80/80 78/78/78 77/77/77
f 81/81/81 80/80/80 77/77/77
f 81/81/81 77/77/77 82/82/82
f 82/82/82 75/75/75 83/83/83
f 82/82/82 77/77/77 75/75/75
f 84/84/84 80/80/80 81/81/81
f 85/85/85 84/84/84 81/81/81
f 86/86/86 79/79/79 80/80/80
f 84/84/84 86/86/86 80/80/80
f 84/84/84 87/87/87 86/86/86
f 88/88/88 87/87/87 84/84/84
f 85/85/85 88/88/88 84/84/84
f 89/89/89 88/88/88 85/85/85
f 92/92/92 91/91/91 90/90/90
f 93/93/93 92/92/92 90/90/90
f 85/85/85 81/81/81 91/91/91
f 92/92/92 85/85/85 91/91/91
f 92/92/92 89/89/89 85/85/85
f 94/94/94 89/89/89 92/92/92
f 93/93/93 94/94/94 92/92/92
f 95/95/95 94/94/94 93/93/93
f 97/97/97 83/83/83 96/96/96
f 97/97/97 82/82/82 83/83/83
f 91/91/91 81/81/81 82/82/82
f 91/91/91 82/82/82 97/97/97
f 90/90/90 91/91/91 97/97/97
f 90/90/90 97/97/97 98/98/98
f 98/98/98 96/96/96 99/99/99
f 98/98/98 97/97/97 96/96/96
f 102/102/102 101/101/101 100/100/100
f 103/103/103 101/101/101 102/102/102
f 103/103/103 104/104/104 101/101/101
f 105/105/105 104/104/104 103/103/103
f 106/106/106 105/105/105 103/103/103
f 106/106/106 107/107/107 105/105/105
f 108/108/108 103/103/103 102/102/102
f 108/108/108 106/106/106 103/103/103
f 111/111/111 110/110/110 109/109/109
f 112/112/112 111/111/111 109/109/109
f 112/112/112 109/109/109 113/113/113
f 114/114/114 112/112/112 113/113/113
f 113/113/113 109/109/109 108/108/108
f 109/109/109 106/106/106 108/108/108
f 109/109/109 110/110/110 106/106/106
f 110/110/110 107/107/107 106/106/106
f 114/114/114 113/113/113 115/115/115
f 116/116/116 114/114/114 115/115/115
f 116/116/116 115/115/115 117/117/117
f 118/118/118 116/116/116 117/117/117
f 117/117/117 115/115/115 119/119/119
f 115/115/115 120/120/120 119/119/119
f 115/115/115 113/113/113 120/120/120
f 113/113/113 108/108/108 120/120/120
f 123/123/123 122/122/122 121/121/121
f 124/124/124 122/122/122 123/123/123
f 124/124/124 100/100/100 122/122/122
f 102/102/102 100/100/100 124/124/124
f 120/120/120 102/102/102 124/124/124
f 120/120/120 108/108/108 102/102/102
f 119/119/119 124/124/124 123/123/123
f 119/119/119 120/120/120 124/124/124
