g pb_Mesh106248
v -0.5 -1 -1.5
v -1.5 -1 -1.5
v -0.5 2.5 -1.5
v -1.5 2.5 -1.5
v -1.5 -1 -1.5
v -1.499998 2 -2.5
v -1.5 2.5 -1.5
v -1.499998 2.5 -2.5
v -1.499998 2 -2.5
v -0.4999982 2 -2.5
v -1.499998 2.5 -2.5
v -0.4999982 2.5 -2.5
v -0.4999982 2 -2.5
v -0.5 -1 -1.5
v -0.4999982 2.5 -2.5
v -0.5 2.5 -1.5
v -0.4999982 2 -2.5
v -1.499998 2 -2.5
v -0.5 -1 -1.5
v -1.5 -1 -1.5
v -0.5 2.5 -1.5
v -1.5 2.5 -1.5
v -0.4999982 2.5 -2.5
v -1.499998 2.5 -2.5
vt -0.5 -1
vt -1.5 -1
vt -0.5 2.5
vt -1.5 2.5
vt -1.499997 -1
vt -2.499998 2
vt -1.499997 2.5
vt -2.499998 2.5
vt 1.499998 2
vt 0.4999982 2
vt 1.499998 2.5
vt 0.4999982 2.5
vt 2.499999 2
vt 1.499999 -1
vt 2.499999 2.5
vt 1.499999 2.5
vt 0.4999982 2.687936
vt 1.499998 2.687936
vt 0.5 -0.4743417
vt 1.5 -0.4743417
vt 0.5 -1.5
vt 1.5 -1.5
vt 0.4999982 -2.5
vt 1.499998 -2.5
vn 0 0 1
vn 0 0 1
vn 0 0 1
vn 0 0 1
vn -1 0 -1.66893E-06
vn -1 0 -1.66893E-06
vn -1 0 -1.66893E-06
vn -1 0 -1.66893E-06
vn 0 0 -1
vn 0 0 -1
vn 0 0 -1
vn 0 0 -1
vn 1 0 1.788139E-06
vn 1 0 1.788139E-06
vn 1 0 1.788139E-06
vn 1 0 1.788139E-06
vn 0 -0.3162277 -0.9486833
vn 0 -0.3162277 -0.9486833
vn 0 -0.3162277 -0.9486833
vn 0 -0.3162278 -0.9486833
vn 0 1 0
vn 0 1 0
vn 0 1 0
vn 0 1 0
g pb_Mesh106248_0
f 3/3/3 2/2/2 1/1/1
f 3/3/3 4/4/4 2/2/2
f 7/7/7 6/6/6 5/5/5
f 7/7/7 8/8/8 6/6/6
f 11/11/11 10/10/10 9/9/9
f 11/11/11 12/12/12 10/10/10
f 15/15/15 14/14/14 13/13/13
f 15/15/15 16/16/16 14/14/14
f 19/19/19 18/18/18 17/17/17
f 19/19/19 20/20/20 18/18/18
g pb_Mesh106248_1
f 23/23/23 22/22/22 21/21/21
f 23/23/23 24/24/24 22/22/22
