g pb_Mesh411910
v -2.121338 -0.5 2.121323
v -3.000018 -0.5 2.384186E-06
v -2.121338 0 2.121323
v -3.000018 0 2.384186E-06
v -1.000018 -0.5 2.384186E-06
v -0.7071245 -0.5 0.7071092
v -1.000018 0 2.384186E-06
v -0.7071245 0 0.7071092
v -1.740456E-05 -0.5 3.000002
v -2.121338 -0.5 2.121323
v -1.740456E-05 0 3.000002
v -2.121338 0 2.121323
v -0.7071245 -0.5 0.7071092
v -1.764297E-05 -0.5 1.000002
v -0.7071245 0 0.7071092
v -1.764297E-05 0 1.000002
v 2.121303 -0.5 2.121323
v -1.740456E-05 -0.5 3.000002
v 2.121303 0 2.121323
v -1.740456E-05 0 3.000002
v -1.764297E-05 -0.5 1.000002
v 0.7070892 -0.5 0.7071092
v -1.764297E-05 0 1.000002
v 0.7070892 0 0.7071092
v 2.999982 -0.5 2.145767E-06
v 2.121303 -0.5 2.121323
v 2.999982 0 2.145767E-06
v 2.121303 0 2.121323
v 0.7070892 -0.5 0.7071092
v 0.9999824 -0.5 2.384186E-06
v 0.7070892 0 0.7071092
v 0.9999824 0 2.384186E-06
v 2.121303 -0.5 -2.121318
v 2.999982 -0.5 2.145767E-06
v 2.121303 0 -2.121318
v 2.999982 0 2.145767E-06
v 0.9999824 -0.5 2.384186E-06
v 0.7070892 -0.5 -0.7071042
v 0.9999824 0 2.384186E-06
v 0.7070892 0 -0.7071042
v -1.764297E-05 -0.5 -2.999998
v 2.121303 -0.5 -2.121318
v -1.764297E-05 0 -2.999998
v 2.121303 0 -2.121318
v 0.7070892 -0.5 -0.7071042
v -1.764297E-05 -0.5 -0.9999976
v 0.7070892 0 -0.7071042
v -1.764297E-05 0 -0.9999976
v -2.121338 -0.5 -2.121318
v -1.764297E-05 -0.5 -2.999998
v -2.121338 0 -2.121318
v -1.764297E-05 0 -2.999998
v -1.764297E-05 -0.5 -0.9999976
v -0.7071242 -0.5 -0.7071044
v -1.764297E-05 0 -0.9999976
v -0.7071242 0 -0.7071044
v -3.000018 -0.5 2.384186E-06
v -2.121338 -0.5 -2.121318
v -3.000018 0 2.384186E-06
v -2.121338 0 -2.121318
v -0.7071242 -0.5 -0.7071044
v -1.000018 -0.5 2.384186E-06
v -0.7071242 0 -0.7071044
v -1.000018 0 2.384186E-06
v -2.121338 0.5 2.121323
v -3.000018 0.5 2.384186E-06
v -1.000018 0.5 2.384186E-06
v -0.7071245 0.5 0.7071092
v -1.740456E-05 0.5 3.000002
v -2.121338 0.5 2.121323
v -0.7071245 0.5 0.7071092
v -1.764297E-05 0.5 1.000002
v 2.121303 0.5 2.121323
v -1.740456E-05 0.5 3.000002
v -1.764297E-05 0.5 1.000002
v 0.7070892 0.5 0.7071092
v 2.999982 0.5 2.145767E-06
v 2.121303 0.5 2.121323
v 0.7070892 0.5 0.7071092
v 0.9999824 0.5 2.384186E-06
v 2.121303 0.5 -2.121318
v 2.999982 0.5 2.145767E-06
v 0.9999824 0.5 2.384186E-06
v 0.7070892 0.5 -0.7071042
v -1.764297E-05 0.5 -2.999998
v 2.121303 0.5 -2.121318
v 0.7070892 0.5 -0.7071042
v -1.764297E-05 0.5 -0.9999976
v -2.121338 0.5 -2.121318
v -1.764297E-05 0.5 -2.999998
v -1.764297E-05 0.5 -0.9999976
v -0.7071242 0.5 -0.7071044
v -3.000018 0.5 2.384186E-06
v -2.121338 0.5 -2.121318
v -0.7071242 0.5 -0.7071044
v -1.000018 0.5 2.384186E-06
v -3.000018 -0.5 2.384186E-06
v -2.121338 -0.5 2.121323
v -1.000018 -0.5 2.384186E-06
v -0.7071245 -0.5 0.7071092
v -2.121338 0.5 2.121323
v -3.000018 0.5 2.384186E-06
v -0.7071245 0.5 0.7071092
v -1.000018 0.5 2.384186E-06
v -1.740456E-05 -0.5 3.000002
v -1.764297E-05 -0.5 1.000002
v -1.740456E-05 0.5 3.000002
v -1.764297E-05 0.5 1.000002
v 2.121303 -0.5 2.121323
v 0.7070892 -0.5 0.7071092
v 2.121303 0.5 2.121323
v 0.7070892 0.5 0.7071092
v 2.999982 -0.5 2.145767E-06
v 0.9999824 -0.5 2.384186E-06
v 2.999982 0.5 2.145767E-06
v 0.9999824 0.5 2.384186E-06
v 2.121303 -0.5 -2.121318
v 0.7070892 -0.5 -0.7071042
v 2.121303 0.5 -2.121318
v 0.7070892 0.5 -0.7071042
v -1.764297E-05 -0.5 -2.999998
v -1.764297E-05 -0.5 -0.9999976
v -1.764297E-05 0.5 -2.999998
v -1.764297E-05 0.5 -0.9999976
v -2.121338 -0.5 -2.121318
v -0.7071242 -0.5 -0.7071044
v -2.121338 0.5 -2.121318
v -0.7071242 0.5 -0.7071044
vt 1.148046 -0.5
vt -1.148055 -0.5
vt 1.148046 0
vt -1.148055 0
vt 0.3826879 -0.5
vt -0.382679 -0.5
vt 0.3826879 0
vt -0.382679 0
vt 1.148035 -0.5
vt -1.148066 -0.5
vt 1.148035 0
vt -1.148066 0
vt 0.382699 -0.5
vt -0.382668 -0.5
vt 0.382699 0
vt -0.382668 0
vt 1.148033 -0.5
vt -1.148068 -0.5
vt 1.148033 0
vt -1.148068 0
vt 0.3827006 -0.5
vt -0.3826663 -0.5
vt 0.3827006 0
vt -0.3826663 0
vt 1.148042 -0.5
vt -1.148059 -0.5
vt 1.148042 0
vt -1.148059 0
vt 0.3826925 -0.5
vt -0.3826744 -0.5
vt 0.3826925 0
vt -0.3826744 0
vt 1.148054 -0.5
vt -1.148046 -0.5
vt 1.148054 0
vt -1.148046 0
vt 0.3826789 -0.5
vt -0.3826878 -0.5
vt 0.3826789 0
vt -0.3826878 0
vt 1.148066 -0.5
vt -1.148035 -0.5
vt 1.148066 0
vt -1.148035 0
vt 0.382668 -0.5
vt -0.382699 -0.5
vt 0.382668 0
vt -0.382699 0
vt 1.148067 -0.5
vt -1.148033 -0.5
vt 1.148067 0
vt -1.148033 0
vt 0.3826663 -0.5
vt -0.3827004 -0.5
vt 0.3826663 0
vt -0.3827004 0
vt 1.148059 -0.5
vt -1.148042 -0.5
vt 1.148059 0
vt -1.148042 0
vt 0.3826744 -0.5
vt -0.3826926 -0.5
vt 0.3826744 0
vt -0.3826926 0
vt 1.148046 0.5
vt -1.148055 0.5
vt 0.3826879 0.5
vt -0.382679 0.5
vt 1.148035 0.5
vt -1.148066 0.5
vt 0.382699 0.5
vt -0.382668 0.5
vt 1.148033 0.5
vt -1.148068 0.5
vt 0.3827006 0.5
vt -0.3826663 0.5
vt 1.148042 0.5
vt -1.148059 0.5
vt 0.3826925 0.5
vt -0.3826744 0.5
vt 1.148054 0.5
vt -1.148046 0.5
vt 0.3826789 0.5
vt -0.3826878 0.5
vt 1.148066 0.5
vt -1.148035 0.5
vt 0.382668 0.5
vt -0.382699 0.5
vt 1.148067 0.5
vt -1.148033 0.5
vt 0.3826663 0.5
vt -0.3827004 0.5
vt 1.148059 0.5
vt -1.148042 0.5
vt 0.3826744 0.5
vt -0.3826926 0.5
vt -3.000018 2.384186E-06
vt -2.121338 2.121323
vt -1.000018 2.384186E-06
vt -0.7071245 0.7071092
vt 2.121338 2.121323
vt 3.000018 2.384186E-06
vt 0.7071245 0.7071092
vt 1.000018 2.384186E-06
vt -1.740456E-05 3.000002
vt -1.764297E-05 1.000002
vt 1.740456E-05 3.000002
vt 1.764297E-05 1.000002
vt 2.121303 2.121323
vt 0.7070892 0.7071092
vt -2.121303 2.121323
vt -0.7070892 0.7071092
vt 2.999982 2.145767E-06
vt 0.9999824 2.384186E-06
vt -2.999982 2.145767E-06
vt -0.9999824 2.384186E-06
vt 2.121303 -2.121318
vt 0.7070892 -0.7071042
vt -2.121303 -2.121318
vt -0.7070892 -0.7071042
vt -1.764297E-05 -2.999998
vt -1.764297E-05 -0.9999976
vt 1.764297E-05 -2.999998
vt 1.764297E-05 -0.9999976
vt -2.121338 -2.121318
vt -0.7071242 -0.7071044
vt 2.121338 -2.121318
vt 0.7071242 -0.7071044
vn -0.9238794 0 0.3826835
vn -0.9238794 0 0.3826835
vn -0.9238794 0 0.3826835
vn -0.9238794 0 0.3826835
vn 0.9238796 0 -0.3826834
vn 0.9238796 0 -0.3826834
vn 0.9238796 0 -0.3826834
vn 0.9238796 0 -0.3826834
vn -0.3826835 0 0.9238796
vn -0.3826835 0 0.9238796
vn -0.3826835 0 0.9238796
vn -0.3826835 0 0.9238796
vn 0.3826834 0 -0.9238796
vn 0.3826834 0 -0.9238796
vn 0.3826834 0 -0.9238796
vn 0.3826834 0 -0.9238796
vn 0.3826835 0 0.9238795
vn 0.3826835 0 0.9238795
vn 0.3826835 0 0.9238795
vn 0.3826835 0 0.9238795
vn -0.3826834 0 -0.9238796
vn -0.3826834 0 -0.9238796
vn -0.3826834 0 -0.9238796
vn -0.3826834 0 -0.9238796
vn 0.9238796 0 0.3826835
vn 0.9238796 0 0.3826835
vn 0.9238796 0 0.3826835
vn 0.9238796 0 0.3826835
vn -0.9238796 0 -0.3826834
vn -0.9238796 0 -0.3826834
vn -0.9238796 0 -0.3826834
vn -0.9238796 0 -0.3826834
vn 0.9238795 0 -0.3826835
vn 0.9238795 0 -0.3826835
vn 0.9238795 0 -0.3826835
vn 0.9238795 0 -0.3826835
vn -0.9238795 0 0.3826835
vn -0.9238795 0 0.3826835
vn -0.9238795 0 0.3826835
vn -0.9238795 0 0.3826835
vn 0.3826835 0 -0.9238794
vn 0.3826835 0 -0.9238794
vn 0.3826835 0 -0.9238794
vn 0.3826835 0 -0.9238794
vn -0.3826836 0 0.9238794
vn -0.3826836 0 0.9238794
vn -0.3826836 0 0.9238794
vn -0.3826836 0 0.9238794
vn -0.3826833 0 -0.9238796
vn -0.3826833 0 -0.9238796
vn -0.3826833 0 -0.9238796
vn -0.3826833 0 -0.9238796
vn 0.3826835 0 0.9238795
vn 0.3826835 0 0.9238795
vn 0.3826835 0 0.9238795
vn 0.3826835 0 0.9238795
vn -0.9238795 0 -0.3826835
vn -0.9238795 0 -0.3826835
vn -0.9238795 0 -0.3826835
vn -0.9238795 0 -0.3826835
vn 0.9238794 0 0.3826836
vn 0.9238794 0 0.3826836
vn 0.9238794 0 0.3826836
vn 0.9238794 0 0.3826836
vn -0.9238794 0 0.3826835
vn -0.9238794 0 0.3826835
vn 0.9238796 0 -0.3826834
vn 0.9238796 0 -0.3826834
vn -0.3826835 0 0.9238796
vn -0.3826835 0 0.9238796
vn 0.3826834 0 -0.9238796
vn 0.3826834 0 -0.9238796
vn 0.3826835 0 0.9238795
vn 0.3826835 0 0.9238795
vn -0.3826834 0 -0.9238796
vn -0.3826834 0 -0.9238796
vn 0.9238796 0 0.3826835
vn 0.9238796 0 0.3826835
vn -0.9238796 0 -0.3826834
vn -0.9238796 0 -0.3826834
vn 0.9238795 0 -0.3826835
vn 0.9238795 0 -0.3826835
vn -0.9238795 0 0.3826835
vn -0.9238795 0 0.3826835
vn 0.3826835 0 -0.9238794
vn 0.3826835 0 -0.9238794
vn -0.3826836 0 0.9238794
vn -0.3826836 0 0.9238794
vn -0.3826833 0 -0.9238796
vn -0.3826833 0 -0.9238796
vn 0.3826835 0 0.9238795
vn 0.3826835 0 0.9238795
vn -0.9238795 0 -0.3826835
vn -0.9238795 0 -0.3826835
vn 0.9238794 0 0.3826836
vn 0.9238794 0 0.3826836
vn 0 -1 0
vn 0 -0.9999999 0
vn 0 -0.9999999 0
vn 0 -0.9999999 0
vn 0 1 0
vn 0 0.9999999 0
vn 0 0.9999999 0
vn 0 0.9999999 0
vn 0 -0.9999999 0
vn 0 -0.9999999 0
vn 0 1 0
vn 0 0.9999999 0
vn 0 -0.9999999 0
vn 0 -0.9999999 0
vn 0 1 0
vn 0 0.9999999 0
vn 0 -0.9999999 0
vn 0 -0.9999999 0
vn 0 1 0
vn 0 0.9999999 0
vn 0 -0.9999999 0
vn 0 -0.9999999 0
vn 0 1 0
vn 0 0.9999999 0
vn 0 -0.9999999 0
vn 0 -0.9999999 0
vn 0 1 0
vn 0 0.9999999 0
vn 0 -0.9999999 0
vn 0 -0.9999999 0
vn 0 1 0
vn 0 0.9999999 0
g pb_Mesh411910_0
f 3/3/3 2/2/2 1/1/1
f 3/3/3 4/4/4 2/2/2
f 7/7/7 6/6/6 5/5/5
f 7/7/7 8/8/8 6/6/6
f 11/11/11 10/10/10 9/9/9
f 11/11/11 12/12/12 10/10/10
f 15/15/15 14/14/14 13/13/13
f 15/15/15 16/16/16 14/14/14
f 19/19/19 18/18/18 17/17/17
f 19/19/19 20/20/20 18/18/18
f 23/23/23 22/22/22 21/21/21
f 23/23/23 24/24/24 22/22/22
f 27/27/27 26/26/26 25/25/25
f 27/27/27 28/28/28 26/26/26
f 31/31/31 30/30/30 29/29/29
f 31/31/31 32/32/32 30/30/30
f 35/35/35 34/34/34 33/33/33
f 35/35/35 36/36/36 34/34/34
f 39/39/39 38/38/38 37/37/37
f 39/39/39 40/40/40 38/38/38
f 43/43/43 42/42/42 41/41/41
f 43/43/43 44/44/44 42/42/42
f 47/47/47 46/46/46 45/45/45
f 47/47/47 48/48/48 46/46/46
f 51/51/51 50/50/50 49/49/49
f 51/51/51 52/52/52 50/50/50
f 55/55/55 54/54/54 53/53/53
f 55/55/55 56/56/56 54/54/54
f 59/59/59 58/58/58 57/57/57
f 59/59/59 60/60/60 58/58/58
f 63/63/63 62/62/62 61/61/61
f 63/63/63 64/64/64 62/62/62
f 65/65/65 4/4/4 3/3/3
f 65/65/65 66/66/66 4/4/4
f 67/67/67 8/8/8 7/7/7
f 67/67/67 68/68/68 8/8/8
f 69/69/69 12/12/12 11/11/11
f 69/69/69 70/70/70 12/12/12
f 71/71/71 16/16/16 15/15/15
f 71/71/71 72/72/72 16/16/16
f 73/73/73 20/20/20 19/19/19
f 73/73/73 74/74/74 20/20/20
f 75/75/75 24/24/24 23/23/23
f 75/75/75 76/76/76 24/24/24
f 77/77/77 28/28/28 27/27/27
f 77/77/77 78/78/78 28/28/28
f 79/79/79 32/32/32 31/31/31
f 79/79/79 80/80/80 32/32/32
f 81/81/81 36/36/36 35/35/35
f 81/81/81 82/82/82 36/36/36
f 83/83/83 40/40/40 39/39/39
f 83/83/83 84/84/84 40/40/40
f 85/85/85 44/44/44 43/43/43
f 85/85/85 86/86/86 44/44/44
f 87/87/87 48/48/48 47/47/47
f 87/87/87 88/88/88 48/48/48
f 89/89/89 52/52/52 51/51/51
f 89/89/89 90/90/90 52/52/52
f 91/91/91 56/56/56 55/55/55
f 91/91/91 92/92/92 56/56/56
f 93/93/93 60/60/60 59/59/59
f 93/93/93 94/94/94 60/60/60
f 95/95/95 64/64/64 63/63/63
f 95/95/95 96/96/96 64/64/64
f 99/99/99 98/98/98 97/97/97
f 99/99/99 100/100/100 98/98/98
f 103/103/103 102/102/102 101/101/101
f 103/103/103 104/104/104 102/102/102
f 100/100/100 105/105/105 98/98/98
f 100/100/100 106/106/106 105/105/105
f 108/108/108 101/101/101 107/107/107
f 108/108/108 103/103/103 101/101/101
f 106/106/106 109/109/109 105/105/105
f 106/106/106 110/110/110 109/109/109
f 112/112/112 107/107/107 111/111/111
f 112/112/112 108/108/108 107/107/107
f 110/110/110 113/113/113 109/109/109
f 110/110/110 114/114/114 113/113/113
f 116/116/116 111/111/111 115/115/115
f 116/116/116 112/112/112 111/111/111
f 114/114/114 117/117/117 113/113/113
f 114/114/114 118/118/118 117/117/117
f 120/120/120 115/115/115 119/119/119
f 120/120/120 116/116/116 115/115/115
f 118/118/118 121/121/121 117/117/117
f 118/118/118 122/122/122 121/121/121
f 124/124/124 119/119/119 123/123/123
f 124/124/124 120/120/120 119/119/119
f 122/122/122 125/125/125 121/121/121
f 122/122/122 126/126/126 125/125/125
f 128/128/128 123/123/123 127/127/127
f 128/128/128 124/124/124 123/123/123
f 126/126/126 97/97/97 125/125/125
f 126/126/126 99/99/99 97/97/97
f 104/104/104 127/127/127 102/102/102
f 104/104/104 128/128/128 127/127/127
