g pb_Mesh23992
v 1 -1.526065E-05 0
v 0 -1.5378E-05 -1
v 0 0 0
v 1 -1.5378E-05 -1
v 0 5.999985 -1.000001
v 1 5.999985 -1.000001
v 1 5.999985 -7.040799E-07
v 0 6 -7.040799E-07
v 0 -1.5378E-05 -1
v 1 -1.5378E-05 -1
v 0 5.999985 -1.000001
v 1 5.999985 -1.000001
v 1 -1.5378E-05 -1
v 1 -1.526065E-05 0
v 1 5.999985 -1.000001
v 1 5.999985 -7.040799E-07
v 0 0 0
v 0 -1.5378E-05 -1
v 0 6 -7.040799E-07
v 0 5.999985 -1.000001
v 1 -1.526065E-05 0
v 0 0 0
v 1 5.999985 -7.040799E-07
v 0 6 -7.040799E-07
vt 0.3643264 -0.874159
vt 0.1104359 -1.119857
vt 0.1104359 -0.874159
vt 0.3643264 -1.119857
vt 1.001748 -0.001812935
vt 0.491984 -0.001812935
vt 0.491984 0.9985144
vt 1.001748 0.9985144
vt -0.01160628 0.006920338
vt -0.5114533 0.006920338
vt -0.01160628 0.9930711
vt -0.5114533 0.9930711
vt 0.9883939 0.006920338
vt 0.4885469 0.006920338
vt 0.9883943 0.9930711
vt 0.4885473 0.9930711
vt -0.01160645 0.006929159
vt -0.5114535 0.006926537
vt -0.01160681 0.9930801
vt -0.5114539 0.9930775
vt 0.9883937 0.006926537
vt 0.4885467 0.006929159
vt 0.9883937 0.9930775
vt 0.4885467 0.9930801
vn -7.630326E-06 -1 7.747672E-06
vn -7.630326E-06 -1 7.747672E-06
vn -1.526065E-05 -1 1.5378E-05
vn 0 -1 1.173466E-07
vn 7.629395E-06 1 -7.629395E-06
vn 0 1 0
vn 7.629395E-06 1 -7.629395E-06
vn 1.525879E-05 1 -1.525879E-05
vn 0 -1.192093E-07 -1
vn 0 -1.192093E-07 -1
vn 0 -1.192093E-07 -1
vn 0 -1.192093E-07 -1
vn 1 0 0
vn 1 0 0
vn 1 0 0
vn 1 0 0
vn -1 0 0
vn -1 0 0
vn -1 0 0
vn -1 0 0
vn 1.790786E-12 1.173466E-07 1
vn 1.804888E-12 1.173466E-07 1
vn 1.804888E-12 1.173466E-07 1
vn 1.818989E-12 1.173466E-07 1
g pb_Mesh23992_0
f 3/3/3 2/2/2 1/1/1
f 2/2/2 4/4/4 1/1/1
g pb_Mesh23992_1
f 7/7/7 6/6/6 5/5/5
f 7/7/7 5/5/5 8/8/8
f 11/11/11 10/10/10 9/9/9
f 11/11/11 12/12/12 10/10/10
f 15/15/15 14/14/14 13/13/13
f 15/15/15 16/16/16 14/14/14
f 19/19/19 18/18/18 17/17/17
f 19/19/19 20/20/20 18/18/18
f 23/23/23 22/22/22 21/21/21
f 23/23/23 24/24/24 22/22/22
