g pb_Mesh1281932
v 1 4 -19
v 11 4 -19
v 11 4 -9.5
v 1 4 -9.5
v -9 4 -19
v -9 4 -9.5
v -9 4 -28.5
v 1 4 -28.5
v 11 4 -28.5
v 14.75 -9.946428 0
v 11 -23.89286 0
v 1 -16.28572 0
v 8.5 -6.142858 0
v 16 4 0
v 18.5 4 0
v 11 -45.44643 0
v 11 -67 0
v 1 -67 0
v 1 -41.64286 0
v -9 -67 0
v -9 -45.44643 0
v -9 -23.89286 0
v -12.75 -9.946428 0
v -6.5 -6.142858 0
v -14 4 0
v -16.5 4 0
v -6.5 4 0
v -6.5 -1.071429 0
v -9 4 0
v -11.5 4 0
v -4 4 0
v -1.5 -6.142858 0
v 1 -1.071429 0
v 1 4 0
v 3.5 4 0
v -1.5 4 0
v 6 4 0
v 3.5 -6.142858 0
v 11 4 0
v 13.5 4 0
v 8.5 -1.071429 0
v 8.5 4 0
v 1 4 0
v 3.5 4 0
v 6 4 0
v 8.5 4 0
v 11 4 0
v -9 4 0
v -6.5 4 0
v -4 4 0
v -1.5 4 0
v -19 4 -14.25
v -19 4 -19
v -19 4 -9.5
v -19 4 -23.75
v -19 4 -28.5
v -19 -67 0
v -19 -58.125 0
v -19 -49.25 0
v -19 -40.375 0
v -19 -31.5 0
v -19 -22.625 0
v -19 -13.75 0
v -19 -4.875 0
v -19 4 0
v -19 4 0
v -19 -4.875 0
v -19 4 -4.75
v -19 -20.85 -13.3
v -19 -13.75 0
v -19 -22.625 0
v -19 -40.375 0
v -19 -31.5 0
v -19 -58.125 0
v -19 -49.25 0
v -19 -67 0
v -19 -67 -19
v -19 4 -28.5
v -19 4 -23.75
v -19 4 -33.25
v -19 4 -19
v -19 4 -14.25
v -19 4 -9.5
v -19 4 0
v -19 4 -4.75
v -16.5 4 0
v -14 4 0
v -11.5 4 0
v -4 4 -38
v 1 4 -38
v -9 4 -38
v 6 4 -38
v 11 4 -38
v -9 4 -38
v -14 4 -38
v -1.5 -18.1875 -38
v -4 4 -38
v -19 4 -38
v -19 -13.75 -38
v -19 -31.5 -38
v -19 -49.25 -38
v 1 -67 -38
v -19 -67 -38
v 11 4 -38
v 6 4 -38
v 16 4 -38
v 1 4 -38
v -14 4 -38
v -19 4 -33.25
v -19 4 -38
v -19 -67 -38
v -19 -49.25 -38
v -19 -31.5 -38
v -19 -13.75 -38
v -19 4 -38
v 21 4 -19
v 21 4 -14.25
v 21 4 -9.5
v 21 4 -28.5
v 21 4 -23.75
v 21 -22.625 0
v 21 -31.5 0
v 21 -13.75 0
v 21 4 0
v 21 -4.875 0
v 21 -40.375 0
v 21 -49.25 0
v 21 -58.125 0
v 21 -67 0
v 13.5 4 0
v 16 4 0
v 21 4 -4.75
v 18.5 4 0
v 21 4 0
v 16 4 -38
v 21 4 -38
v 21 4 -33.25
v 21 4 -28.5
v 21 4 -33.25
v 21 -21.81818 -15.54545
v 21 4 -23.75
v 21 4 -38
v 21 -13.75 -38
v 21 -31.5 -38
v 21 -49.25 -38
v 21 -67 -19
v 21 -67 -38
v 21 -58.125 0
v 21 -67 0
v 21 -40.375 0
v 21 -49.25 0
v 21 -22.625 0
v 21 -31.5 0
v 21 -13.75 0
v 21 -4.875 0
v 21 4 -4.75
v 21 4 0
v 21 4 -9.5
v 21 4 -14.25
v 21 4 -19
v 21 -31.5 -38
v 21 -49.25 -38
v 21 -67 -38
v 21 -13.75 -38
v 21 4 -38
v 21 -67 -19
v 11 -67 0
v 21 -67 0
v 1 -67 0
v 1 -67 -38
v 21 -67 -38
v -19 -67 -19
v -9 -67 0
v -19 -67 0
v -19 -67 -38
vt -1 -19
vt -2.25 -19
vt -2.25 -17.8125
vt -1 -17.8125
vt 0.25 -19
vt 0.25 -17.8125
vt 0.25 -20.1875
vt -1 -20.1875
vt -2.25 -20.1875
vt 2.71875 -28.8058
vt 2.25 -30.54911
vt 1 -29.59822
vt 1.9375 -28.33036
vt 2.875 -27.0625
vt 3.1875 -27.0625
vt 2.25 -33.24331
vt 2.25 -35.9375
vt 1 -35.9375
vt 1 -32.76786
vt -0.25 -35.9375
vt -0.25 -33.24331
vt -0.25 -30.54911
vt -0.71875 -28.8058
vt 0.0625 -28.33036
vt -0.875 -27.0625
vt -1.1875 -27.0625
vt 0.0625 -27.0625
vt 0.0625 -27.69643
vt -0.25 -27.0625
vt -0.5625 -27.0625
vt 0.375 -27.0625
vt 0.6875 -28.33036
vt 1 -27.69643
vt 1 -27.0625
vt 1.3125 -27.0625
vt 0.6875 -27.0625
vt 1.625 -27.0625
vt 1.3125 -28.33036
vt 2.25 -27.0625
vt 2.5625 -27.0625
vt 1.9375 -27.69643
vt 1.9375 -27.0625
vt -1 -16.625
vt -1.3125 -16.625
vt -1.625 -16.625
vt -1.9375 -16.625
vt -2.25 -16.625
vt 0.25 -16.625
vt -0.0625 -16.625
vt -0.375 -16.625
vt -0.6875 -16.625
vt 1.5 -18.40625
vt 1.5 -19
vt 1.5 -17.8125
vt 1.5 -19.59375
vt 1.5 -20.1875
vt -1.5 -35.9375
vt -1.5 -34.82813
vt -1.5 -33.71875
vt -1.5 -32.60938
vt -1.5 -31.5
vt -1.5 -30.39063
vt -1.5 -29.28125
vt -1.5 -28.17188
vt -1.5 -27.0625
vt -16.625 -27.0625
vt -16.625 -28.17188
vt -17.21875 -27.0625
vt -18.2875 -30.16875
vt -16.625 -29.28125
vt -16.625 -30.39063
vt -16.625 -32.60938
vt -16.625 -31.5
vt -16.625 -34.82813
vt -16.625 -33.71875
vt -16.625 -35.9375
vt -19 -35.9375
vt -20.1875 -27.0625
vt -19.59375 -27.0625
vt -20.78125 -27.0625
vt -19 -27.0625
vt -18.40625 -27.0625
vt -17.8125 -27.0625
vt 1.5 -16.625
vt 1.5 -17.21875
vt 1.1875 -16.625
vt 0.875 -16.625
vt 0.5625 -16.625
vt -0.375 -21.375
vt -1 -21.375
vt 0.25 -21.375
vt -1.625 -21.375
vt -2.25 -21.375
vt -0.25 -27.0625
vt -0.875 -27.0625
vt 0.6875 -29.83594
vt 0.375 -27.0625
vt -1.5 -27.0625
vt -1.5 -29.28125
vt -1.5 -31.5
vt -1.5 -33.71875
vt 1 -35.9375
vt -1.5 -35.9375
vt 2.25 -27.0625
vt 1.625 -27.0625
vt 2.875 -27.0625
vt 1 -27.0625
vt 0.875 -21.375
vt 1.5 -20.78125
vt 1.5 -21.375
vt -21.375 -35.9375
vt -21.375 -33.71875
vt -21.375 -31.5
vt -21.375 -29.28125
vt -21.375 -27.0625
vt -3.5 -19
vt -3.5 -18.40625
vt -3.5 -17.8125
vt -3.5 -20.1875
vt -3.5 -19.59375
vt 3.5 -30.39063
vt 3.5 -31.5
vt 3.5 -29.28125
vt 3.5 -27.0625
vt 3.5 -28.17188
vt 3.5 -32.60938
vt 3.5 -33.71875
vt 3.5 -34.82813
vt 3.5 -35.9375
vt -2.5625 -16.625
vt -2.875 -16.625
vt -3.5 -17.21875
vt -3.1875 -16.625
vt -3.5 -16.625
vt -2.875 -21.375
vt -3.5 -21.375
vt -3.5 -20.78125
vt -20.1875 -27.0625
vt -20.78125 -27.0625
vt -18.56818 -30.28977
vt -19.59375 -27.0625
vt -21.375 -27.0625
vt -21.375 -29.28125
vt -21.375 -31.5
vt -21.375 -33.71875
vt -19 -35.9375
vt -21.375 -35.9375
vt -16.625 -34.82813
vt -16.625 -35.9375
vt -16.625 -32.60938
vt -16.625 -33.71875
vt -16.625 -30.39063
vt -16.625 -31.5
vt -16.625 -29.28125
vt -16.625 -28.17188
vt -17.21875 -27.0625
vt -16.625 -27.0625
vt -17.8125 -27.0625
vt -18.40625 -27.0625
vt -19 -27.0625
vt 3.5 -31.5
vt 3.5 -33.71875
vt 3.5 -35.9375
vt 3.5 -29.28125
vt 3.5 -27.0625
vt 3.5 -19
vt 2.25 -16.625
vt 3.5 -16.625
vt 1 -16.625
vt 1 -21.375
vt 3.5 -21.375
vt -1.5 -19
vt -0.25 -16.625
vt -1.5 -16.625
vt -1.5 -21.375
vn 0 1 0
vn 0 1 0
vn 0 1 0
vn 0 1 0
vn 0 1 0
vn 0 1 0
vn 0 1 0
vn 0 1 0
vn 0 1 0
vn 0 0 1
vn 0 0 1
vn 0 0 1
vn 0 0 1
vn 0 0 1
vn 0 0 1
vn 0 0 1
vn 0 0 1
vn 0 0 1
vn 0 0 1
vn 0 0 1
vn 0 0 1
vn 0 0 1
vn 0 0 1
vn 0 0 1
vn 0 0 1
vn 0 0 1
vn 0 0 1
vn 0 0 1
vn 0 0 1
vn 0 0 1
vn 0 0 1
vn 0 0 1
vn 0 0 1
vn 0 0 1
vn 0 0 1
vn 0 0 1
vn 0 0 1
vn 0 0 1
vn 0 0 1
vn 0 0 1
vn 0 0 1
vn 0 0 1
vn 0 1 0
vn 0 1 0
vn 0 1 0
vn 0 1 0
vn 0 1 0
vn 0 1 0
vn 0 1 0
vn 0 1 0
vn 0 1 0
vn 0 1 0
vn 0 1 0
vn 0 1 0
vn 0 1 0
vn 0 1 0
vn 0 0 0.9999999
vn 0 0 1
vn 0 0 0.9999999
vn 0 0 0.9999999
vn 0 0 1
vn 0 0 0.9999999
vn 0 0 1
vn 0 0 1
vn 0 0 0.9999999
vn -1 0 0
vn -1 0 0
vn -1 0 0
vn -1 0 0
vn -1 0 0
vn -1 0 0
vn -1 0 0
vn -1 0 0
vn -1 0 0
vn -1 0 0
vn -1 0 0
vn -1 0 0
vn -0.9999999 0 0
vn -1 0 0
vn -0.9999999 0 0
vn -1 0 0
vn -1 0 0
vn -1 0 0
vn 0 1 0
vn 0 1 0
vn 0 1 0
vn 0 1 0
vn 0 1 0
vn 0 1 0
vn 0 1 0
vn 0 1 0
vn 0 1 0
vn 0 1 0
vn 0 0 -1
vn 0 0 -1
vn 0 0 -1
vn 0 0 -1
vn 0 0 -0.9999999
vn 0 0 -1
vn 0 0 -0.9999999
vn 0 0 -0.9999999
vn 0 0 -1
vn 0 0 -0.9999999
vn 0 0 -1
vn 0 0 -1
vn 0 0 -1
vn 0 0 -1
vn 0 1 0
vn 0 1 0
vn 0 1 0
vn -1 0 0
vn -0.9999999 0 0
vn -0.9999999 0 0
vn -1 0 0
vn -1 0 0
vn 0 1 0
vn 0 1 0
vn 0 1 0
vn 0 1 0
vn 0 1 0
vn 0 0 0.9999999
vn 0 0 0.9999999
vn 0 0 1
vn 0 0 0.9999999
vn 0 0 1
vn 0 0 0.9999999
vn 0 0 0.9999999
vn 0 0 1
vn 0 0 0.9999999
vn 0 1 0
vn 0 1 0
vn 0 1 0
vn 0 1 0
vn 0 1 0
vn 0 1 0
vn 0 1 0
vn 0 1 0
vn 1 0 0
vn 1 0 0
vn 1 0 0
vn 1 0 0
vn 1 0 0
vn 1 0 0
vn 1 0 0
vn 1 0 0
vn 1 0 0
vn 1 0 0
vn 0.9999999 0 0
vn 1 0 0
vn 1 0 0
vn 1 0 0
vn 1 0 0
vn 1 0 0
vn 1 0 0
vn 1 0 0
vn 1 0 0
vn 1 0 0
vn 1 0 0
vn 1 0 0
vn 1 0 0
vn 0 0 -1
vn 0 0 -1
vn 0 0 -0.9999999
vn 0 0 -1
vn 0 0 -0.9999999
vn 0 -1 0
vn 0 -1 0
vn 0 -1 0
vn 0 -0.9999999 0
vn 0 -1 0
vn 0 -1 0
vn 0 -1 0
vn 0 -1 0
vn 0 -1 0
vn 0 -1 0
g pb_Mesh1281932_0
f 3/3/3 2/2/2 1/1/1
f 3/3/3 1/1/1 4/4/4
f 4/4/4 1/1/1 5/5/5
f 4/4/4 5/5/5 6/6/6
f 1/1/1 8/8/8 7/7/7
f 1/1/1 7/7/7 5/5/5
f 2/2/2 9/9/9 8/8/8
f 2/2/2 8/8/8 1/1/1
f 12/12/12 11/11/11 10/10/10
f 13/13/13 12/12/12 10/10/10
f 15/15/15 14/14/14 10/10/10
f 13/13/13 10/10/10 14/14/14
f 18/18/18 17/17/17 16/16/16
f 19/19/19 18/18/18 16/16/16
f 19/19/19 16/16/16 11/11/11
f 12/12/12 19/19/19 11/11/11
f 21/21/21 20/20/20 18/18/18
f 21/21/21 18/18/18 19/19/19
f 22/22/22 21/21/21 19/19/19
f 22/22/22 19/19/19 12/12/12
f 23/23/23 22/22/22 12/12/12
f 24/24/24 23/23/23 12/12/12
f 24/24/24 25/25/25 23/23/23
f 25/25/25 26/26/26 23/23/23
f 29/29/29 28/28/28 27/27/27
f 29/29/29 30/30/30 28/28/28
f 32/32/32 31/31/31 28/28/28
f 31/31/31 27/27/27 28/28/28
f 32/32/32 24/24/24 12/12/12
f 28/28/28 24/24/24 32/32/32
f 28/28/28 25/25/25 24/24/24
f 30/30/30 25/25/25 28/28/28
f 35/35/35 34/34/34 33/33/33
f 36/36/36 33/33/33 34/34/34
f 38/38/38 37/37/37 33/33/33
f 35/35/35 33/33/33 37/37/37
f 32/32/32 12/12/12 38/38/38
f 33/33/33 32/32/32 38/38/38
f 31/31/31 32/32/32 33/33/33
f 36/36/36 31/31/31 33/33/33
f 41/41/41 40/40/40 39/39/39
f 39/39/39 42/42/42 41/41/41
f 14/14/14 41/41/41 13/13/13
f 14/14/14 40/40/40 41/41/41
f 38/38/38 13/13/13 41/41/41
f 13/13/13 38/38/38 12/12/12
f 37/37/37 41/41/41 42/42/42
f 37/37/37 38/38/38 41/41/41
f 44/44/44 4/4/4 43/43/43
f 44/44/44 45/45/45 4/4/4
f 4/4/4 45/45/45 3/3/3
f 3/3/3 45/45/45 46/46/46
f 46/46/46 47/47/47 3/3/3
f 49/49/49 6/6/6 48/48/48
f 49/49/49 50/50/50 6/6/6
f 6/6/6 50/50/50 4/4/4
f 4/4/4 50/50/50 51/51/51
f 51/51/51 43/43/43 4/4/4
f 5/5/5 53/53/53 52/52/52
f 6/6/6 5/5/5 52/52/52
f 6/6/6 52/52/52 54/54/54
f 7/7/7 56/56/56 55/55/55
f 5/5/5 7/7/7 55/55/55
f 5/5/5 55/55/55 53/53/53
f 58/58/58 57/57/57 20/20/20
f 21/21/21 58/58/58 20/20/20
f 21/21/21 59/59/59 58/58/58
f 60/60/60 59/59/59 21/21/21
f 61/61/61 60/60/60 21/21/21
f 61/61/61 21/21/21 22/22/22
f 62/62/62 61/61/61 22/22/22
f 63/63/63 62/62/62 22/22/22
f 23/23/23 63/63/63 22/22/22
f 64/64/64 63/63/63 23/23/23
f 23/23/23 26/26/26 64/64/64
f 26/26/26 65/65/65 64/64/64
f 68/68/68 67/67/67 66/66/66
f 68/68/68 69/69/69 67/67/67
f 69/69/69 71/71/71 70/70/70
f 69/69/69 70/70/70 67/67/67
f 73/73/73 69/69/69 72/72/72
f 71/71/71 69/69/69 73/73/73
f 75/75/75 69/69/69 74/74/74
f 72/72/72 69/69/69 75/75/75
f 77/77/77 76/76/76 74/74/74
f 69/69/69 77/77/77 74/74/74
f 79/79/79 78/78/78 69/69/69
f 78/78/78 80/80/80 69/69/69
f 82/82/82 81/81/81 69/69/69
f 81/81/81 79/79/79 69/69/69
f 68/68/68 83/83/83 69/69/69
f 82/82/82 69/69/69 83/83/83
f 86/86/86 85/85/85 84/84/84
f 86/86/86 87/87/87 85/85/85
f 6/6/6 54/54/54 85/85/85
f 85/85/85 87/87/87 6/6/6
f 6/6/6 87/87/87 88/88/88
f 88/88/88 48/48/48 6/6/6
f 8/8/8 90/90/90 89/89/89
f 89/89/89 91/91/91 7/7/7
f 8/8/8 89/89/89 7/7/7
f 9/9/9 93/93/93 92/92/92
f 92/92/92 90/90/90 8/8/8
f 9/9/9 92/92/92 8/8/8
f 96/96/96 95/95/95 94/94/94
f 96/96/96 94/94/94 97/97/97
f 99/99/99 98/98/98 95/95/95
f 99/99/99 95/95/95 96/96/96
f 96/96/96 100/100/100 99/99/99
f 101/101/101 100/100/100 96/96/96
f 102/102/102 101/101/101 96/96/96
f 102/102/102 103/103/103 101/101/101
f 96/96/96 105/105/105 104/104/104
f 104/104/104 106/106/106 96/96/96
f 107/107/107 96/96/96 97/97/97
f 96/96/96 107/107/107 105/105/105
f 7/7/7 91/91/91 108/108/108
f 108/108/108 110/110/110 109/109/109
f 7/7/7 108/108/108 109/109/109
f 7/7/7 109/109/109 56/56/56
f 112/112/112 111/111/111 77/77/77
f 69/69/69 112/112/112 77/77/77
f 69/69/69 113/113/113 112/112/112
f 114/114/114 113/113/113 69/69/69
f 69/69/69 80/80/80 114/114/114
f 80/80/80 115/115/115 114/114/114
f 117/117/117 116/116/116 2/2/2
f 3/3/3 117/117/117 2/2/2
f 3/3/3 118/118/118 117/117/117
f 120/120/120 119/119/119 9/9/9
f 2/2/2 120/120/120 9/9/9
f 2/2/2 116/116/116 120/120/120
f 11/11/11 122/122/122 121/121/121
f 11/11/11 121/121/121 123/123/123
f 10/10/10 11/11/11 123/123/123
f 15/15/15 125/125/125 124/124/124
f 10/10/10 123/123/123 125/125/125
f 15/15/15 10/10/10 125/125/125
f 16/16/16 127/127/127 126/126/126
f 16/16/16 126/126/126 122/122/122
f 11/11/11 16/16/16 122/122/122
f 17/17/17 129/129/129 128/128/128
f 16/16/16 17/17/17 128/128/128
f 127/127/127 16/16/16 128/128/128
f 130/130/130 3/3/3 47/47/47
f 130/130/130 131/131/131 3/3/3
f 132/132/132 118/118/118 3/3/3
f 3/3/3 131/131/131 132/132/132
f 132/132/132 131/131/131 133/133/133
f 133/133/133 134/134/134 132/132/132
f 135/135/135 93/93/93 9/9/9
f 137/137/137 136/136/136 135/135/135
f 9/9/9 137/137/137 135/135/135
f 9/9/9 119/119/119 137/137/137
f 140/140/140 139/139/139 138/138/138
f 140/140/140 138/138/138 141/141/141
f 143/143/143 142/142/142 139/139/139
f 143/143/143 139/139/139 140/140/140
f 140/140/140 144/144/144 143/143/143
f 145/145/145 144/144/144 140/140/140
f 140/140/140 146/146/146 145/145/145
f 146/146/146 147/147/147 145/145/145
f 148/148/148 146/146/146 140/140/140
f 148/148/148 149/149/149 146/146/146
f 151/151/151 140/140/140 150/150/150
f 148/148/148 140/140/140 151/151/151
f 153/153/153 140/140/140 152/152/152
f 150/150/150 140/140/140 153/153/153
f 155/155/155 154/154/154 140/140/140
f 154/154/154 152/152/152 140/140/140
f 155/155/155 140/140/140 156/156/156
f 157/157/157 155/155/155 156/156/156
f 140/140/140 159/159/159 158/158/158
f 158/158/158 156/156/156 140/140/140
f 140/140/140 141/141/141 160/160/160
f 159/159/159 140/140/140 160/160/160
f 162/162/162 96/96/96 161/161/161
f 162/162/162 102/102/102 96/96/96
f 162/162/162 163/163/163 102/102/102
f 164/164/164 96/96/96 106/106/106
f 164/164/164 161/161/161 96/96/96
f 165/165/165 164/164/164 106/106/106
f 168/168/168 167/167/167 166/166/166
f 167/167/167 169/169/169 166/166/166
f 166/166/166 169/169/169 170/170/170
f 170/170/170 171/171/171 166/166/166
f 169/169/169 172/172/172 170/170/170
f 172/172/172 169/169/169 173/173/173
f 174/174/174 172/172/172 173/173/173
f 172/172/172 175/175/175 170/170/170
