g pb_Mesh72332
v 0 0 0
v -4 0 0
v 0 1 0
v -4 3 0
v -4 0 0
v -4 0 -8
v -4 3 0
v -4 3 -8
v -4 0 -8
v 0 0 -8
v -4 3 -8
v 0 1 -8
v 0 0 -8
v 0 0 0
v 0 1 -8
v 0 1 0
v 0 1 0
v -4 3 0
v 0 1 -8
v -4 3 -8
v 0 0 -8
v -4 0 -8
v 0 0 0
v -4 0 0
vt 0 0
vt -4 0
vt 0 1
vt -4 3
vt 0 0
vt -8 0
vt 0 3
vt -8 3
vt 4 0
vt 0 0
vt 4 3
vt 0 1
vt 8 0
vt 0 0
vt 8 1
vt 0 1
vt 0.4472136 0
vt 4.91935 0
vt 0.4472136 -8
vt 4.91935 -8
vt 0 -8
vt -4 -8
vt 0 0
vt -4 0
vn 0 0 1
vn 0 0 1
vn 0 0 1
vn 0 0 1
vn -1 0 0
vn -1 0 0
vn -1 0 0
vn -1 0 0
vn 0 0 -1
vn 0 0 -1
vn 0 0 -1
vn 0 0 -1
vn 1 0 0
vn 1 0 0
vn 1 0 0
vn 1 0 0
vn 0.4472136 0.8944272 0
vn 0.4472136 0.8944272 0
vn 0.4472136 0.8944272 0
vn 0.4472136 0.8944272 0
vn 0 -1 0
vn 0 -1 0
vn 0 -1 0
vn 0 -1 0
g pb_Mesh72332_0
f 3/3/3 2/2/2 1/1/1
f 3/3/3 4/4/4 2/2/2
f 7/7/7 6/6/6 5/5/5
f 7/7/7 8/8/8 6/6/6
f 11/11/11 10/10/10 9/9/9
f 11/11/11 12/12/12 10/10/10
f 15/15/15 14/14/14 13/13/13
f 15/15/15 16/16/16 14/14/14
f 19/19/19 18/18/18 17/17/17
f 19/19/19 20/20/20 18/18/18
f 23/23/23 22/22/22 21/21/21
f 23/23/23 24/24/24 22/22/22
