g pb_Mesh224254
v -7.000009 -2.99998 -9
v -7.000011 -3.99998 -9
v -6.250012 -4.249982 -6.75
v -7.000006 -1.99998 -9
v -6.249999 0.2500177 -6.75
v -7.000003 -0.9999802 -9
v -7 1.984835E-05 -9
v -5.500013 -4.499985 -4.5
v -5.499998 0.5000155 -4.5
v -4.750013 -4.749987 -2.25
v -4.749997 0.7500133 -2.25
v -3.999997 1.000011 0
v -4.000014 -4.999989 0
v -14.00001 -1.99996 -7
v -14.00001 -2.99996 -7
v -12.83334 -3.333297 -7.333333
v -12.25001 -2.999965 -7.5
v -14.00001 -3.99996 -7
v -12.25001 -3.999965 -7.5
v -10.50001 -3.99997 -8
v -12.25001 -1.999965 -7.5
v -11.66667 -2.666633 -7.666667
v -10.50001 -2.99997 -8
v -10.50001 -1.99997 -8
v -9.333342 -2.66664 -8.333334
v -8.750009 -2.999975 -8.5
v -8.750006 -1.999975 -8.5
v -7.000006 -1.99998 -9
v -8.166677 -3.33331 -8.666667
v -7.000009 -2.99998 -9
v -8.750011 -3.999975 -8.5
v -7.000011 -3.99998 -9
v -10.5 3.007054E-05 -8
v -10.5 -0.99997 -8
v -9.333338 -1.333307 -8.333334
v -8.750003 -0.9999751 -8.5
v -8.75 2.495944E-05 -8.5
v -8.166669 -0.6666435 -8.666667
v -7.000003 -0.9999802 -9
v -7 1.984835E-05 -9
v -14 4.029274E-05 -7
v -14 -0.9999597 -7
v -12.83334 -0.6666298 -7.333333
v -12.25 3.518164E-05 -7.5
v -12.25 -0.9999648 -7.5
v -11.66667 -1.3333 -7.666667
v -9.749998 0.5000279 -4
v -8.083331 0.6666898 -2.833333
v -9.374998 0.7500268 -2
v -7.624998 0.5000217 -4.25
v -7.249998 0.7500206 -2.25
v -5.499998 0.5000155 -4.5
v -8.999997 1.000026 0
v -8.999997 1.000026 0
v -7.249998 0.7500206 -2.25
v -6.499997 1.000018 0
v -6.166664 0.8333508 -1.5
v -5.499998 0.5000155 -4.5
v -4.749997 0.7500133 -2.25
v -3.999997 1.000011 0
v -14 0.5000403 -3.5
v -12.58333 0.6667029 -2.5
v -14 0.7500403 -1.75
v -11.875 0.5000341 -3.75
v -11.875 0.7500341 -2
v -9.749998 0.5000279 -4
v -14 1.00004 0
v -14 1.00004 0
v -11.875 0.7500341 -2
v -11.5 1.000033 0
v -10.91666 0.8333647 -1.333333
v -9.749998 0.5000279 -4
v -9.374998 0.7500268 -2
v -8.999997 1.000026 0
v -14 4.029274E-05 -7
v -12.25 3.518164E-05 -7.5
v -11.875 0.2500341 -5.5
v -11.41667 0.1666994 -6.333333
v -10.5 3.007054E-05 -8
v -10.125 0.250029 -6
v -9.749998 0.5000279 -4
v -14 4.029274E-05 -7
v -11.875 0.2500341 -5.5
v -14 0.2500403 -5.25
v -12.58333 0.3333695 -4.833333
v -9.083333 0.1666926 -7
v -8.75 2.495944E-05 -8.5
v -8.374999 0.2500239 -6.5
v -7 1.984835E-05 -9
v -9.749998 0.5000279 -4
v -8.374999 0.2500239 -6.5
v -7.624998 0.5000217 -4.25
v -7.416666 0.3333544 -5.833333
v -7 1.984835E-05 -9
v -6.249999 0.2500177 -6.75
v -5.499998 0.5000155 -4.5
v -5.500013 -4.499985 -4.5
v -7.416679 -4.333313 -5.833333
v -7.625013 -4.499979 -4.25
v -6.250012 -4.249982 -6.75
v -8.375012 -4.249976 -6.5
v -7.000011 -3.99998 -9
v -9.750013 -4.499972 -4
v -9.750013 -4.499972 -4
v -8.375012 -4.249976 -6.5
v -10.12501 -4.249971 -6
v -9.083345 -4.166641 -7
v -7.000011 -3.99998 -9
v -8.750011 -3.999975 -8.5
v -10.50001 -3.99997 -8
v -11.87501 -4.499966 -3.75
v -12.58335 -4.333298 -4.833333
v -14.00001 -4.49996 -3.5
v -14.00001 -4.24996 -5.25
v -9.750013 -4.499972 -4
v -11.87501 -4.249966 -5.5
v -14.00001 -3.99996 -7
v -11.87501 -4.249966 -5.5
v -11.41668 -4.166635 -6.333333
v -12.25001 -3.999965 -7.5
v -14.00001 -3.99996 -7
v -9.000014 -4.999974 0
v -10.91668 -4.833302 -1.333333
v -11.50001 -4.999967 0
v -9.375013 -4.749973 -2
v -11.87501 -4.749966 -2
v -9.750013 -4.499972 -4
v -14.00001 -4.99996 0
v -14.00001 -4.99996 0
v -11.87501 -4.749966 -2
v -14.00001 -4.74996 -1.75
v -12.58335 -4.666631 -2.5
v -4.000014 -4.999989 0
v -6.166681 -4.833316 -1.5
v -6.500014 -4.999982 0
v -4.750013 -4.749987 -2.25
v -7.250013 -4.749979 -2.25
v -5.500013 -4.499985 -4.5
v -9.000014 -4.999974 0
v -9.000014 -4.999974 0
v -7.250013 -4.749979 -2.25
v -9.375013 -4.749973 -2
v -8.083347 -4.666644 -2.833333
v -5.500013 -4.499985 -4.5
v -7.625013 -4.499979 -4.25
v -9.750013 -4.499972 -4
vt 7.000001 -1.125009
vt 7.000001 -1.000009
vt 7.250001 -1.000004
vt 7.000001 -1.250009
vt 7.250001 -1.500003
vt 7.000001 -1.375009
vt 7.000001 -1.500009
vt 7.5 -0.9999985
vt 7.5 -1.499998
vt 7.75 -0.9999934
vt 7.75 -1.499993
vt 8 -1.499988
vt 8 -0.9999883
vt 6.5 -1.250011
vt 6.5 -1.125011
vt 6.583333 -1.083344
vt 6.625 -1.12501
vt 6.5 -1.000011
vt 6.625 -1.00001
vt 6.75 -1.00001
vt 6.625 -1.25001
vt 6.666667 -1.166677
vt 6.75 -1.12501
vt 6.75 -1.25001
vt 6.833334 -1.166676
vt 6.875 -1.125009
vt 6.875001 -1.250009
vt 7.000001 -1.250009
vt 6.916667 -1.083342
vt 7.000001 -1.125009
vt 6.875 -1.000009
vt 7 -1.000009
vt 6.750001 -1.50001
vt 6.750001 -1.37501
vt 6.833335 -1.333343
vt 6.875001 -1.375009
vt 6.875001 -1.500009
vt 6.916668 -1.416676
vt 7.000001 -1.375009
vt 7.000002 -1.500008
vt 6.5 -1.500011
vt 6.5 -1.375011
vt 6.583333 -1.416677
vt 6.625 -1.500011
vt 6.625 -1.37501
vt 6.666667 -1.333344
vt 9.25 -5.25
vt 9.333334 -5.333333
vt 9.25 -5.375
vt 9.375 -5.25
vt 9.375 -5.375
vt 9.5 -5.25
vt 9.25 -5.5
vt 9.25 -5.5
vt 9.375 -5.375
vt 9.375 -5.5
vt 9.416667 -5.416667
vt 9.5 -5.25
vt 9.5 -5.375
vt 9.5 -5.5
vt 9 -5.25
vt 9.083334 -5.333333
vt 9 -5.375
vt 9.125 -5.25
vt 9.125 -5.375
vt 9.25 -5.25
vt 9 -5.5
vt 9 -5.5
vt 9.125 -5.375
vt 9.125 -5.5
vt 9.166667 -5.416667
vt 9.25 -5.25
vt 9.25 -5.375
vt 9.25 -5.5
vt 9 -5
vt 9.125 -5
vt 9.125 -5.125
vt 9.166667 -5.083333
vt 9.25 -5
vt 9.25 -5.125
vt 9.25 -5.25
vt 9 -5
vt 9.125 -5.125
vt 9 -5.125
vt 9.083334 -5.166667
vt 9.333334 -5.083333
vt 9.375 -5
vt 9.375 -5.125
vt 9.5 -5
vt 9.25 -5.25
vt 9.375 -5.125
vt 9.375 -5.25
vt 9.416667 -5.166667
vt 9.5 -5
vt 9.5 -5.125
vt 9.5 -5.25
vt -9 -4.25
vt -9.083334 -4.333333
vt -9.125 -4.25
vt -9 -4.375
vt -9.125 -4.375
vt -9 -4.5
vt -9.25 -4.25
vt -9.25 -4.25
vt -9.125 -4.375
vt -9.25 -4.375
vt -9.166667 -4.416667
vt -9 -4.5
vt -9.125 -4.5
vt -9.25 -4.5
vt -9.375 -4.25
vt -9.416667 -4.333333
vt -9.5 -4.25
vt -9.5 -4.375
vt -9.25 -4.25
vt -9.375 -4.375
vt -9.5 -4.5
vt -9.375 -4.375
vt -9.333334 -4.416667
vt -9.375 -4.5
vt -9.5 -4.5
vt -9.25 -4
vt -9.333334 -4.083333
vt -9.375 -4
vt -9.25 -4.125
vt -9.375 -4.125
vt -9.25 -4.25
vt -9.5 -4
vt -9.5 -4
vt -9.375 -4.125
vt -9.5 -4.125
vt -9.416667 -4.166667
vt -9 -4
vt -9.083334 -4.083333
vt -9.125 -4
vt -9 -4.125
vt -9.125 -4.125
vt -9 -4.25
vt -9.25 -4
vt -9.25 -4
vt -9.125 -4.125
vt -9.25 -4.125
vt -9.166667 -4.166667
vt -9 -4.25
vt -9.125 -4.25
vt -9.25 -4.25
vn 0.9486833 -2.714205E-06 -0.3162277
vn 0.9486833 -2.714205E-06 -0.3162277
vn 0.9486833 -2.796453E-06 -0.3162278
vn 0.9486833 -2.7838E-06 -0.3162278
vn 0.9486833 -2.827297E-06 -0.3162278
vn 0.9486833 -2.940388E-06 -0.3162277
vn 0.9486833 -3.166572E-06 -0.3162276
vn 0.9486833 -2.807798E-06 -0.3162279
vn 0.9486833 -2.80176E-06 -0.3162279
vn 0.9486833 -2.796453E-06 -0.3162278
vn 0.9486833 -2.796453E-06 -0.3162278
vn 0.9486834 -2.792877E-06 -0.3162277
vn 0.9486833 -2.789599E-06 -0.3162277
vn -0.2747211 1.031603E-06 -0.961524
vn -0.2747214 7.859842E-07 -0.9615239
vn -0.2747211 1.031603E-06 -0.961524
vn -0.2747209 1.277222E-06 -0.9615241
vn -0.2747213 5.40364E-07 -0.961524
vn -0.2747211 2.947439E-07 -0.9615239
vn -0.2747211 7.859834E-07 -0.9615239
vn -0.2747213 7.85984E-07 -0.9615239
vn -0.2747217 7.859853E-07 -0.9615237
vn -0.2747208 7.859826E-07 -0.9615241
vn -0.274721 1.080727E-06 -0.9615241
vn -0.2747199 7.859828E-07 -0.9615242
vn -0.2747208 7.859832E-07 -0.961524
vn -0.2747208 7.859832E-07 -0.961524
vn -0.2747211 7.859833E-07 -0.961524
vn -0.2747211 1.080727E-06 -0.961524
vn -0.2747208 7.859833E-07 -0.9615241
vn -0.2747213 7.85984E-07 -0.961524
vn -0.274721 4.912396E-07 -0.961524
vn -0.2747211 1.375472E-06 -0.961524
vn -0.2747217 7.859852E-07 -0.9615238
vn -0.2747211 1.375472E-06 -0.961524
vn -0.2747205 1.964958E-06 -0.9615242
vn -0.2747213 7.85984E-07 -0.961524
vn -0.2747217 7.859852E-07 -0.9615238
vn -0.2747208 7.859826E-07 -0.9615241
vn -0.2747209 1.191256E-06 -0.9615241
vn -0.2747213 1.031604E-06 -0.9615239
vn -0.2747214 7.859842E-07 -0.9615239
vn -0.2747213 1.031604E-06 -0.9615239
vn -0.2747211 1.277223E-06 -0.961524
vn -0.2747208 2.947436E-07 -0.961524
vn -0.2747217 7.859852E-07 -0.9615238
vn -0.01427774 0.9925028 -0.1213853
vn -0.01427774 0.9925028 -0.1213853
vn -0.01427776 0.9925027 -0.1213852
vn -0.01427773 0.9925028 -0.1213853
vn -0.0142777 0.9925028 -0.1213852
vn -0.01427772 0.9925027 -0.1213852
vn -0.01427772 0.9925028 -0.1213852
vn 2.938308E-06 0.9938837 -0.1104315
vn 2.908688E-06 0.9938837 -0.1104315
vn 2.908688E-06 0.9938837 -0.1104315
vn 2.819828E-06 0.9938838 -0.1104315
vn 2.914612E-06 0.9938837 -0.1104315
vn 2.914612E-06 0.9938837 -0.1104315
vn 2.920536E-06 0.9938837 -0.1104315
vn -0.01663263 0.9898126 -0.1414018
vn -0.01663263 0.9898126 -0.1414018
vn -0.01663264 0.9898126 -0.1414018
vn -0.01663262 0.9898126 -0.1414018
vn -0.01663261 0.9898126 -0.1414018
vn -0.01663262 0.9898126 -0.1414018
vn -0.01663262 0.9898126 -0.1414018
vn 2.886246E-06 0.9922779 -0.1240348
vn 2.878852E-06 0.9922779 -0.1240347
vn 2.878852E-06 0.9922779 -0.1240347
vn 2.856672E-06 0.9922779 -0.1240347
vn 2.886246E-06 0.9922779 -0.1240348
vn 2.886245E-06 0.9922779 -0.1240348
vn 2.893639E-06 0.9922779 -0.1240347
vn -0.03364026 0.9924732 -0.117751
vn -0.03364028 0.9924732 -0.117751
vn -0.03364028 0.9924732 -0.117751
vn -0.03364034 0.9924732 -0.117751
vn -0.03364024 0.9924732 -0.1177511
vn -0.03364021 0.9924731 -0.117751
vn -0.03364025 0.9924732 -0.1177511
vn -0.01663262 0.9898126 -0.1414018
vn -0.01663262 0.9898126 -0.1414018
vn -0.01663262 0.9898126 -0.1414018
vn -0.01663262 0.9898126 -0.1414018
vn -0.03364027 0.9924731 -0.117751
vn -0.03364026 0.9924732 -0.1177511
vn -0.03364024 0.9924731 -0.117751
vn -0.03364025 0.9924732 -0.117751
vn -0.01250345 0.9942551 -0.106304
vn -0.01250346 0.9942551 -0.106304
vn -0.01250346 0.9942551 -0.106304
vn -0.01250347 0.9942551 -0.106304
vn -0.01250345 0.9942551 -0.106304
vn -0.01250345 0.9942551 -0.106304
vn -0.01250345 0.9942551 -0.106304
vn -0.0125092 -0.9942551 -0.106304
vn -0.0125092 -0.9942551 -0.106304
vn -0.01250925 -0.994255 -0.106304
vn -0.01250914 -0.994255 -0.1063041
vn -0.01250926 -0.994255 -0.1063041
vn -0.01250925 -0.9942551 -0.106304
vn -0.01250926 -0.9942551 -0.1063041
vn -0.03364585 -0.992473 -0.117751
vn -0.03364587 -0.992473 -0.1177511
vn -0.03364587 -0.992473 -0.1177511
vn -0.03364592 -0.992473 -0.1177512
vn -0.03364598 -0.992473 -0.117751
vn -0.03364601 -0.9924731 -0.117751
vn -0.03364601 -0.992473 -0.1177511
vn -0.01663836 -0.9898124 -0.1414015
vn -0.0166385 -0.9898125 -0.1414016
vn -0.0166385 -0.9898125 -0.1414016
vn -0.01663863 -0.9898125 -0.1414018
vn -0.01663839 -0.9898125 -0.1414018
vn -0.01663827 -0.9898125 -0.1414018
vn -0.01663841 -0.9898124 -0.1414019
vn -0.03364607 -0.9924731 -0.1177509
vn -0.03364597 -0.992473 -0.1177505
vn -0.03364627 -0.9924729 -0.1177516
vn -0.03364604 -0.992473 -0.1177512
vn -2.741341E-06 -0.9922779 -0.1240346
vn -2.741341E-06 -0.9922779 -0.1240346
vn -2.83893E-06 -0.9922779 -0.1240344
vn -2.643752E-06 -0.9922779 -0.1240347
vn -2.83893E-06 -0.9922779 -0.1240348
vn -2.83893E-06 -0.9922779 -0.1240347
vn -2.83893E-06 -0.9922779 -0.1240347
vn -0.01663839 -0.9898125 -0.1414018
vn -0.01663839 -0.9898125 -0.1414018
vn -0.01663839 -0.9898125 -0.1414018
vn -0.01663839 -0.9898125 -0.1414018
vn -2.890916E-06 -0.9938837 -0.1104317
vn -2.890916E-06 -0.9938837 -0.1104317
vn -2.843524E-06 -0.9938837 -0.1104317
vn -2.938308E-06 -0.9938837 -0.1104316
vn -2.843524E-06 -0.9938837 -0.1104314
vn -2.843524E-06 -0.9938837 -0.1104314
vn -3.033093E-06 -0.9938837 -0.1104316
vn -0.0142835 -0.9925026 -0.1213851
vn -0.01428349 -0.9925027 -0.121385
vn -0.01428349 -0.9925027 -0.121385
vn -0.01428344 -0.9925027 -0.1213846
vn -0.0142835 -0.9925028 -0.1213852
vn -0.01428338 -0.9925027 -0.1213852
vn -0.01428363 -0.9925027 -0.1213853
g pb_Mesh224254_0
f 3/3/3 2/2/2 1/1/1
f 3/3/3 1/1/1 4/4/4
f 4/4/4 5/5/5 3/3/3
f 4/4/4 6/6/6 5/5/5
f 6/6/6 7/7/7 5/5/5
f 8/8/8 3/3/3 5/5/5
f 9/9/9 8/8/8 5/5/5
f 10/10/10 8/8/8 9/9/9
f 11/11/11 10/10/10 9/9/9
f 10/10/10 11/11/11 12/12/12
f 13/13/13 10/10/10 12/12/12
f 16/16/16 15/15/15 14/14/14
f 17/17/17 16/16/16 14/14/14
f 16/16/16 18/18/18 15/15/15
f 19/19/19 18/18/18 16/16/16
f 17/17/17 19/19/19 16/16/16
f 20/20/20 19/19/19 17/17/17
f 21/21/21 17/17/17 14/14/14
f 22/22/22 17/17/17 21/21/21
f 20/20/20 17/17/17 22/22/22
f 20/20/20 22/22/22 23/23/23
f 24/24/24 22/22/22 21/21/21
f 24/24/24 23/23/23 22/22/22
f 27/27/27 26/26/26 25/25/25
f 28/28/28 26/26/26 27/27/27
f 25/25/25 23/23/23 24/24/24
f 27/27/27 25/25/25 24/24/24
f 20/20/20 23/23/23 25/25/25
f 20/20/20 25/25/25 26/26/26
f 28/28/28 29/29/29 26/26/26
f 28/28/28 30/30/30 29/29/29
f 26/26/26 31/31/31 20/20/20
f 29/29/29 31/31/31 26/26/26
f 32/32/32 31/31/31 29/29/29
f 30/30/30 32/32/32 29/29/29
f 35/35/35 34/34/34 33/33/33
f 36/36/36 35/35/35 33/33/33
f 35/35/35 24/24/24 34/34/34
f 27/27/27 24/24/24 35/35/35
f 36/36/36 27/27/27 35/35/35
f 28/28/28 27/27/27 36/36/36
f 37/37/37 36/36/36 33/33/33
f 38/38/38 36/36/36 37/37/37
f 28/28/28 36/36/36 38/38/38
f 28/28/28 38/38/38 39/39/39
f 40/40/40 38/38/38 37/37/37
f 40/40/40 39/39/39 38/38/38
f 43/43/43 42/42/42 41/41/41
f 44/44/44 43/43/43 41/41/41
f 14/14/14 42/42/42 43/43/43
f 14/14/14 43/43/43 45/45/45
f 44/44/44 45/45/45 43/43/43
f 33/33/33 45/45/45 44/44/44
f 45/45/45 21/21/21 14/14/14
f 46/46/46 21/21/21 45/45/45
f 24/24/24 21/21/21 46/46/46
f 34/34/34 24/24/24 46/46/46
f 33/33/33 46/46/46 45/45/45
f 33/33/33 34/34/34 46/46/46
g pb_Mesh224254_1
f 49/49/49 48/48/48 47/47/47
f 48/48/48 50/50/50 47/47/47
f 51/51/51 50/50/50 48/48/48
f 51/51/51 52/52/52 50/50/50
f 49/49/49 51/51/51 48/48/48
f 53/53/53 51/51/51 49/49/49
f 56/56/56 55/55/55 54/54/54
f 56/56/56 57/57/57 55/55/55
f 59/59/59 58/58/58 55/55/55
f 57/57/57 59/59/59 55/55/55
f 60/60/60 59/59/59 57/57/57
f 60/60/60 57/57/57 56/56/56
f 63/63/63 62/62/62 61/61/61
f 62/62/62 64/64/64 61/61/61
f 65/65/65 64/64/64 62/62/62
f 65/65/65 66/66/66 64/64/64
f 63/63/63 65/65/65 62/62/62
f 67/67/67 65/65/65 63/63/63
f 70/70/70 69/69/69 68/68/68
f 70/70/70 71/71/71 69/69/69
f 73/73/73 72/72/72 69/69/69
f 71/71/71 73/73/73 69/69/69
f 74/74/74 73/73/73 71/71/71
f 74/74/74 71/71/71 70/70/70
f 77/77/77 76/76/76 75/75/75
f 77/77/77 78/78/78 76/76/76
f 78/78/78 79/79/79 76/76/76
f 80/80/80 79/79/79 78/78/78
f 80/80/80 78/78/78 77/77/77
f 81/81/81 80/80/80 77/77/77
f 84/84/84 83/83/83 82/82/82
f 85/85/85 83/83/83 84/84/84
f 64/64/64 83/83/83 85/85/85
f 64/64/64 66/66/66 83/83/83
f 61/61/61 85/85/85 84/84/84
f 64/64/64 85/85/85 61/61/61
f 80/80/80 86/86/86 79/79/79
f 86/86/86 87/87/87 79/79/79
f 88/88/88 87/87/87 86/86/86
f 88/88/88 89/89/89 87/87/87
f 80/80/80 88/88/88 86/86/86
f 81/81/81 88/88/88 80/80/80
f 92/92/92 91/91/91 90/90/90
f 92/92/92 93/93/93 91/91/91
f 95/95/95 94/94/94 91/91/91
f 93/93/93 95/95/95 91/91/91
f 96/96/96 95/95/95 93/93/93
f 96/96/96 93/93/93 92/92/92
f 99/99/99 98/98/98 97/97/97
f 98/98/98 100/100/100 97/97/97
f 101/101/101 100/100/100 98/98/98
f 101/101/101 102/102/102 100/100/100
f 101/101/101 98/98/98 99/99/99
f 103/103/103 101/101/101 99/99/99
f 106/106/106 105/105/105 104/104/104
f 107/107/107 105/105/105 106/106/106
f 109/109/109 108/108/108 105/105/105
f 107/107/107 109/109/109 105/105/105
f 110/110/110 109/109/109 107/107/107
f 110/110/110 107/107/107 106/106/106
f 113/113/113 112/112/112 111/111/111
f 114/114/114 112/112/112 113/113/113
f 116/116/116 115/115/115 111/111/111
f 112/112/112 116/116/116 111/111/111
f 114/114/114 116/116/116 112/112/112
f 117/117/117 116/116/116 114/114/114
f 118/118/118 106/106/106 104/104/104
f 118/118/118 119/119/119 106/106/106
f 119/119/119 110/110/110 106/106/106
f 120/120/120 110/110/110 119/119/119
f 120/120/120 119/119/119 118/118/118
f 121/121/121 120/120/120 118/118/118
f 124/124/124 123/123/123 122/122/122
f 123/123/123 125/125/125 122/122/122
f 126/126/126 125/125/125 123/123/123
f 126/126/126 127/127/127 125/125/125
f 126/126/126 123/123/123 124/124/124
f 128/128/128 126/126/126 124/124/124
f 131/131/131 130/130/130 129/129/129
f 132/132/132 130/130/130 131/131/131
f 111/111/111 115/115/115 130/130/130
f 132/132/132 111/111/111 130/130/130
f 113/113/113 111/111/111 132/132/132
f 113/113/113 132/132/132 131/131/131
f 135/135/135 134/134/134 133/133/133
f 134/134/134 136/136/136 133/133/133
f 137/137/137 136/136/136 134/134/134
f 137/137/137 138/138/138 136/136/136
f 137/137/137 134/134/134 135/135/135
f 139/139/139 137/137/137 135/135/135
f 142/142/142 141/141/141 140/140/140
f 143/143/143 141/141/141 142/142/142
f 145/145/145 144/144/144 141/141/141
f 143/143/143 145/145/145 141/141/141
f 146/146/146 145/145/145 143/143/143
f 146/146/146 143/143/143 142/142/142
