g pb_Mesh225090
v 1.000005 -2 18.5
v -1.999996 -2 18.5
v 1 2.5 18
v 0.5 2.5 18
v -1.999996 -2 18.5
v -1.999996 -2 12.5
v 0.5 2.5 18
v 0.5 2.5 13
v -1.999996 -2 12.5
v 1.000004 -2 12.5
v 0.5 2.5 13
v 1 2.5 13
v 1.000004 -2 12.5
v 1.000005 -2 18.5
v 1 2.5 13
v 1 2.5 18
vt -2.499994 -2.499992
vt -3.249994 -2.499992
vt -2.499995 -1.249992
vt -2.624995 -1.249992
vt 15 -6.499998
vt 14.5 -6.499998
vt 15 -6
vt 14.5 -6
vt -1.249997 -2.499997
vt -1.999997 -2.499997
vt -1.874996 -1.249997
vt -1.999996 -1.249997
vt -15.125 -0.03125095
vt -15.875 -0.03125095
vt -15.1875 0.531249
vt -15.8125 0.531249
vn 0 0.1104315 0.9938837
vn 0 0.1104315 0.9938837
vn 0 0.1104315 0.9938837
vn 0 0.1104315 0.9938837
vn -0.8741577 0.4856423 1.042077E-07
vn -0.8741576 0.4856423 5.684057E-08
vn -0.8741576 0.4856423 5.684057E-08
vn -0.8741577 0.4856424 0
vn -3.159471E-07 0.1104317 -0.9938837
vn -2.708118E-07 0.1104317 -0.9938837
vn -2.708118E-07 0.1104317 -0.9938837
vn 0 0.1104317 -0.9938837
vn 1 8.87447E-07 -1.192093E-07
vn 1 9.536743E-07 -6.502324E-08
vn 1 9.536743E-07 -6.502324E-08
vn 1 1.033147E-06 0
g pb_Mesh225090_0
f 3/3/3 2/2/2 1/1/1
f 3/3/3 4/4/4 2/2/2
f 7/7/7 6/6/6 5/5/5
f 7/7/7 8/8/8 6/6/6
f 11/11/11 10/10/10 9/9/9
f 11/11/11 12/12/12 10/10/10
g pb_Mesh225090_1
f 15/15/15 14/14/14 13/13/13
f 15/15/15 16/16/16 14/14/14
