g pb_Mesh222288
v -5.5 1 0
v -5.5 0 0
v -6.5 0.3333333 0
v -7 1 0
v -5.5 -1 0
v -7 0 0
v -8.5 1 0
v -6.5 -1 0
v -7 -1 0
v -7 0 0
v -8.5 1 0
v -5.5 -1 0
v -5.5 -2 0
v -5.5 -3 0
v -8.5 -3 0
v -10 -1 0
v -8.5 -1.666667 0
v -11.5 -3 0
v -7 -1 0
v -8.5 1 0
v -5.5 -3 0
v -11.5 -3 0
v -11.5 -2 0
v -10 -1 0
v -10.5 -1 0
v -11.5 -1 0
v -10 0 0
v -8.5 1 0
v -11.5 -1 0
v -10.5 0.3333333 0
v -10 0 0
v -11.5 0 0
v -11.5 1 0
v -10 1 0
v -8.5 1 0
v -11.5 -2 0
v -11.33333 -2.166667 -0.6666667
v -11.25 -1.75 -1
v -11.5 -1 0
v -11.5 -3 0
v -11.25 -2.75 -1
v -11 -2.5 -2
v -11.5 -1 0
v -11.25 -1.75 -1
v -11.25 -0.875 -1
v -11.16667 -1.416667 -1.333333
v -11 -2.5 -2
v -11 -1.625 -2
v -11 -0.75 -2
v -11 -0.75 -2
v -11 -1.625 -2
v -10.83333 -1.75 -2.666667
v -10.75 -1.375 -3
v -10.75 -2.25 -3
v -10.5 -2 -4
v -10.75 -1.375 -3
v -10.75 -0.625 -3
v -10.66667 -1.083333 -3.333333
v -10.5 -2 -4
v -10.5 -1.25 -4
v -10.5 -0.5 -4
v -11 0.125 -2
v -10.83333 -0.08333334 -2.666667
v -10.75 0.25 -3
v -11 1 -2
v -10.5 -0.5 -4
v -10.5 0.25 -4
v -10.75 0.25 -3
v -10.66667 0.5 -3.333333
v -10.5 1 -4
v -10.75 1 -3
v -11 1 -2
v -11.5 0 0
v -11.33333 -0.25 -0.6666667
v -11.25 0.125 -1
v -11.5 1 0
v -11 -0.75 -2
v -11 0.125 -2
v -11.25 0.125 -1
v -11.16667 0.4166667 -1.333333
v -11.25 1 -1
v -11.5 1 0
v -10.5 -0.5 -4
v -9.5 -1.25 -4
v -9.5 -0.5 -4
v -9.166667 -1 -4
v -8.5 -1.25 -4
v -8.5 -2 -4
v -8.5 -0.5 -4
v -10.5 -1.25 -4
v -9.833334 -1.5 -4
v -10.5 -2 -4
v -9.5 -2 -4
v -7.5 -1.25 -4
v -7.5 -0.5 -4
v -7.166667 -1 -4
v -6.5 -1.25 -4
v -6.5 -2 -4
v -6.5 -0.5 -4
v -7.833333 -1.5 -4
v -7.5 -2 -4
v -8.5 1 -4
v -7.5 0.25 -4
v -7.5 1 -4
v -7.166667 0.5 -4
v -6.5 0.25 -4
v -6.5 1 -4
v -8.5 0.25 -4
v -7.833333 0 -4
v -10.5 1 -4
v -9.5 0.25 -4
v -9.5 1 -4
v -9.166667 0.5 -4
v -10.5 0.25 -4
v -9.833334 0 -4
v -6.5 -0.5 -4
v -6.333333 -1.083333 -3.333333
v -6.25 -0.625 -3
v -6.5 -1.25 -4
v -6.5 -2 -4
v -6.25 -1.375 -3
v -6 -0.75 -2
v -6.5 -2 -4
v -6.25 -2.25 -3
v -6.25 -1.375 -3
v -6.166667 -1.75 -2.666667
v -6 -2.5 -2
v -6 -1.625 -2
v -6 -0.75 -2
v -5.833333 -1.416667 -1.333333
v -5.75 -0.875 -1
v -6 -1.625 -2
v -5.75 -1.75 -1
v -6 -2.5 -2
v -5.5 -1 0
v -5.75 -2.75 -1
v -5.75 -1.75 -1
v -5.666667 -2.166667 -0.6666667
v -5.5 -3 0
v -5.5 -2 0
v -5.5 -1 0
v -5.833333 0.4166667 -1.333333
v -5.75 0.125 -1
v -5.75 1 -1
v -5.5 1 0
v -6 1 -2
v -6 0.125 -2
v -6 -0.75 -2
v -5.5 1 0
v -5.75 0.125 -1
v -5.5 0 0
v -5.666667 -0.25 -0.6666667
v -6.333333 0.5 -3.333333
v -6.25 0.25 -3
v -6.25 1 -3
v -6.5 1 -4
v -6.5 0.25 -4
v -6.5 -0.5 -4
v -6 1 -2
v -6.25 0.25 -3
v -6 0.125 -2
v -6.166667 -0.08333334 -2.666667
v -8.5 1 -1
v -7.666667 1 -1.333333
v -7.25 1 -1
v -8.5 1 0
v -8.5 1 -2
v -7.25 1 -2
v -6 1 -2
v -7 1 0
v -6.666667 1 -0.6666667
v -5.75 1 -1
v -5.5 1 0
v -11 1 -2
v -9.75 1 -2
v -9.75 1 -1
v -9.333334 1 -1.333333
v -11.5 1 0
v -11.25 1 -1
v -10.33333 1 -0.6666667
v -10 1 0
v -10.5 1 -4
v -9.5 1 -4
v -9.5 1 -3
v -9.166667 1 -3.333333
v -8.5 1 -4
v -8.5 1 -3
v -10.75 1 -3
v -10 1 -2.666667
v -7.833333 1 -3.333333
v -7.5 1 -3
v -7.5 1 -4
v -6.5 1 -4
v -7 1 -2.666667
v -6.25 1 -3
v -5.5 -3 0
v -8.25 -2.75 -1
v -8.5 -3 0
v -9.333334 -2.833333 -0.6666667
v -11 -2.5 -2
v -11.25 -2.75 -1
v -11.5 -3 0
v -7.5 -2.666667 -1.333333
v -5.75 -2.75 -1
v -6 -2.5 -2
v -8.5 -2.5 -2
v -9.75 -2.25 -3
v -8.5 -2.333333 -2.666667
v -7.25 -2.25 -3
v -8.5 -2 -4
v -6.25 -2.25 -3
v -7 -2.166667 -3.333333
v -6.5 -2 -4
v -7.5 -2 -4
v -9.5 -2 -4
v -10 -2.166667 -3.333333
v -10.5 -2 -4
v -10.75 -2.25 -3
vt -6.8125 0.125
vt -6.8125 0
vt -6.9375 0.04166667
vt -7 0.125
vt -6.8125 -0.125
vt -7 0
vt -7.1875 0.125
vt -6.9375 -1
vt -7 -1
vt -7 -0.875
vt -7.1875 -0.75
vt -6.8125 -1
vt -6.8125 -1.125
vt -6.8125 -1.25
vt -8.5 -1.25
vt -8.6875 -1
vt -8.5 -1.083333
vt -8.875 -1.25
vt -8.3125 -1
vt -8.5 -0.75
vt -8.125 -1.25
vt -10.1875 -1.25
vt -10.1875 -1.125
vt -10 -1
vt -10.0625 -1
vt -10.1875 -1
vt -10 -0.875
vt -9.8125 -0.75
vt -10.1875 -0.125
vt -10.0625 0.04166667
vt -10 0
vt -10.1875 0
vt -10.1875 0.125
vt -10 0.125
vt -9.8125 0.125
vt 3 -1.25
vt 3.083333 -1.333333
vt 3.125 -1.25
vt 3 -1
vt 3 -1.5
vt 3.125 -1.5
vt 3.25 -1.5
vt 3 -1
vt 3.125 -1.25
vt 3.125 -1
vt 3.166667 -1.166667
vt 3.25 -1.5
vt 3.25 -1.25
vt 3.25 -1
vt 3.25 -1
vt 3.25 -1.25
vt 3.333333 -1.333333
vt 3.375 -1.25
vt 3.375 -1.5
vt 3.5 -1.5
vt 3.375 -1.25
vt 3.375 -1
vt 3.416667 -1.166667
vt 3.5 -1.5
vt 3.5 -1.25
vt 3.5 -1
vt 3.25 -0.75
vt 3.333333 -0.8333334
vt 3.375 -0.75
vt 3.25 -0.5
vt 3.5 -1
vt 3.5 -0.75
vt 3.375 -0.75
vt 3.416667 -0.6666667
vt 3.5 -0.5
vt 3.375 -0.5
vt 3.25 -0.5
vt 3 -0.75
vt 3.083333 -0.8333334
vt 3.125 -0.75
vt 3 -0.5
vt 3.25 -1
vt 3.25 -0.75
vt 3.125 -0.75
vt 3.166666 -0.6666667
vt 3.125 -0.5
vt 3 -0.5
vt 3.5 -1
vt 3.625 -1.25
vt 3.625 -1
vt 3.666667 -1.166667
vt 3.75 -1.25
vt 3.75 -1.5
vt 3.75 -1
vt 3.5 -1.25
vt 3.583333 -1.333333
vt 3.5 -1.5
vt 3.625 -1.5
vt 3.875 -1.25
vt 3.875 -1
vt 3.916667 -1.166667
vt 4 -1.25
vt 4 -1.5
vt 4 -1
vt 3.833333 -1.333333
vt 3.875 -1.5
vt 3.75 -0.5
vt 3.875 -0.75
vt 3.875 -0.5
vt 3.916667 -0.6666667
vt 4 -0.75
vt 4 -0.5
vt 3.75 -0.75
vt 3.833333 -0.8333334
vt 3.5 -0.5
vt 3.625 -0.75
vt 3.625 -0.5
vt 3.666667 -0.6666667
vt 3.5 -0.75
vt 3.583333 -0.8333334
vt 4 -1
vt 4.083333 -1.166667
vt 4.125 -1
vt 4 -1.25
vt 4 -1.5
vt 4.125 -1.25
vt 4.25 -1
vt 4 -1.5
vt 4.125 -1.5
vt 4.125 -1.25
vt 4.166667 -1.333333
vt 4.25 -1.5
vt 4.25 -1.25
vt 4.25 -1
vt 4.333333 -1.166667
vt 4.375 -1
vt 4.25 -1.25
vt 4.375 -1.25
vt 4.25 -1.5
vt 4.5 -1
vt 4.375 -1.5
vt 4.375 -1.25
vt 4.416667 -1.333333
vt 4.5 -1.5
vt 4.5 -1.25
vt 4.5 -1
vt 4.333333 -0.6666667
vt 4.375 -0.75
vt 4.375 -0.5
vt 4.5 -0.5
vt 4.25 -0.5
vt 4.25 -0.75
vt 4.25 -1
vt 4.5 -0.5
vt 4.375 -0.75
vt 4.5 -0.75
vt 4.416667 -0.8333334
vt 4.083333 -0.6666667
vt 4.125 -0.75
vt 4.125 -0.5
vt 4 -0.5
vt 4 -0.75
vt 4 -1
vt 4.25 -0.5
vt 4.125 -0.75
vt 4.25 -0.75
vt 4.166667 -0.8333334
vt 8.5 -1.875
vt 8.395833 -1.916667
vt 8.34375 -1.875
vt 8.5 -1.75
vt 8.5 -2
vt 8.34375 -2
vt 8.1875 -2
vt 8.3125 -1.75
vt 8.270833 -1.833333
vt 8.15625 -1.875
vt 8.125 -1.75
vt 8.8125 -2
vt 8.65625 -2
vt 8.65625 -1.875
vt 8.604167 -1.916667
vt 8.875 -1.75
vt 8.84375 -1.875
vt 8.729167 -1.833333
vt 8.6875 -1.75
vt 8.75 -2.25
vt 8.625 -2.25
vt 8.625 -2.125
vt 8.583333 -2.166667
vt 8.5 -2.25
vt 8.5 -2.125
vt 8.78125 -2.125
vt 8.6875 -2.083333
vt 8.416667 -2.166667
vt 8.375 -2.125
vt 8.375 -2.25
vt 8.25 -2.25
vt 8.3125 -2.083333
vt 8.21875 -2.125
vt -8 -2.5
vt -8.25 -2.375
vt -8.25 -2.5
vt -8.333334 -2.416667
vt -8.5 -2.25
vt -8.5 -2.375
vt -8.5 -2.5
vt -8.166667 -2.333333
vt -8 -2.375
vt -8 -2.25
vt -8.25 -2.25
vt -8.375 -2.125
vt -8.25 -2.166667
vt -8.125 -2.125
vt -8.25 -2
vt -8 -2.125
vt -8.083334 -2.083333
vt -8 -2
vt -8.125 -2
vt -8.375 -2
vt -8.416667 -2.083333
vt -8.5 -2
vt -8.5 -2.125
vn 0 0 1
vn 0 0 1
vn 0 0 1
vn 0 0 1
vn 0 0 1
vn 0 0 1
vn 0 0 1
vn 0 0 1
vn 0 0 1
vn 0 0 1
vn 0 0 1
vn 0 0 1
vn 0 0 1
vn 0 0 1
vn 0 0 1
vn 0 0 1
vn 0 0 1
vn 0 0 1
vn 0 0 1
vn 0 0 1
vn 0 0 1
vn 0 0 1
vn 0 0 1
vn 0 0 1
vn 0 0 1
vn 0 0 1
vn 0 0 1
vn 0 0 1
vn 0 0 1
vn 0 0 1
vn 0 0 1
vn 0 0 1
vn 0 0 1
vn 0 0 1
vn 0 0 1
vn -0.9701425 4.66214E-07 -0.2425355
vn -0.9701427 1.864856E-06 -0.2425352
vn -0.9701425 4.66214E-07 -0.2425355
vn -0.9701425 0 -0.2425356
vn -0.9701426 -4.662141E-07 -0.2425353
vn -0.9701425 -9.324282E-07 -0.2425359
vn -0.9701425 0 -0.2425356
vn -0.9701425 0 -0.2425356
vn -0.9701425 0 -0.2425354
vn -0.9701425 0 -0.2425354
vn -0.9701427 0 -0.2425347
vn -0.9701425 0 -0.2425356
vn -0.9701424 -2.726036E-07 -0.2425357
vn -0.9701425 2.726036E-07 -0.2425358
vn -0.9701425 5.452072E-07 -0.2425355
vn -0.9701427 0 -0.2425347
vn -0.9701425 5.452072E-07 -0.2425355
vn -0.9701424 1.090414E-06 -0.2425363
vn -0.9701424 -1.090414E-06 -0.2425359
vn -0.9701425 0 -0.2425356
vn -0.9701425 0 -0.2425354
vn -0.9701425 0 -0.2425354
vn -0.9701428 0 -0.2425347
vn -0.9701425 -3.4695E-07 -0.2425357
vn -0.9701424 0 -0.2425361
vn -0.9701425 3.4695E-07 -0.2425358
vn -0.9701427 0 -0.2425347
vn -0.9701425 -5.452071E-07 -0.2425352
vn -0.9701424 0 -0.2425361
vn -0.9701425 0 -0.2425356
vn -0.9701425 0 -0.2425356
vn -0.9701425 -3.4695E-07 -0.2425356
vn -0.9701425 -3.4695E-07 -0.2425356
vn -0.9701425 -1.3878E-06 -0.2425356
vn -0.9701424 3.4695E-07 -0.2425359
vn -0.9701425 6.939E-07 -0.2425356
vn -0.9701425 0 -0.2425356
vn -0.9701427 0 -0.2425347
vn -0.9701426 -4.662141E-07 -0.2425352
vn -0.9701424 0 -0.2425361
vn -0.9701425 0 -0.2425356
vn -0.9701425 0 -0.2425356
vn -0.9701425 -2.726036E-07 -0.2425356
vn -0.9701425 -2.726036E-07 -0.2425356
vn -0.9701425 -1.090414E-06 -0.2425356
vn -0.9701425 5.452071E-07 -0.2425356
vn -0.9701425 0 -0.2425356
vn 0 0 -1
vn 0 0 -1
vn 0 0 -1
vn 0 0 -1
vn 0 0 -1
vn 0 0 -1
vn 0 0 -1
vn 0 0 -1
vn 0 0 -1
vn 0 0 -1
vn 0 0 -1
vn 0 0 -1
vn 0 0 -1
vn 0 0 -1
vn 0 0 -1
vn 0 0 -1
vn 0 0 -1
vn 0 0 -1
vn 0 0 -1
vn 0 0 -1
vn 0 0 -1
vn 0 0 -1
vn 0 0 -1
vn 0 0 -1
vn 0 0 -1
vn 0 0 -1
vn 0 0 -1
vn 0 0 -1
vn 0 0 -1
vn 0 0 -1
vn 0 0 -1
vn 0 0 -1
vn 0 0 -1
vn 0.9701425 -1.1565E-07 -0.2425355
vn 0.9701425 -1.1565E-07 -0.2425355
vn 0.9701425 -2.313E-07 -0.2425357
vn 0.9701425 0 -0.2425354
vn 0.9701425 1.1565E-07 -0.2425356
vn 0.9701424 2.312999E-07 -0.2425358
vn 0.9701425 0 -0.2425356
vn 0.9701425 0 -0.2425356
vn 0.9701425 0 -0.2425354
vn 0.9701425 0 -0.2425354
vn 0.9701427 0 -0.2425348
vn 0.9701425 2.478214E-07 -0.2425358
vn 0.9701424 0 -0.242536
vn 0.9701425 -2.478214E-07 -0.2425357
vn 0.9701425 -1.239107E-07 -0.2425355
vn 0.9701425 -2.478214E-07 -0.2425356
vn 0.9701425 0 -0.2425354
vn 0.9701424 1.239107E-07 -0.2425356
vn 0.9701425 0 -0.2425356
vn 0.9701425 0 -0.2425356
vn 0.9701425 0 -0.2425354
vn 0.9701425 0 -0.2425354
vn 0.9701427 0 -0.2425348
vn 0.9701425 2.276859E-07 -0.2425358
vn 0.9701424 0 -0.2425361
vn 0.9701425 0 -0.2425356
vn 0.9701424 0 -0.242536
vn 0.9701425 0 -0.2425357
vn 0.9701425 0 -0.2425357
vn 0.9701425 0 -0.2425356
vn 0.9701425 -1.239107E-07 -0.2425355
vn 0.9701425 0 -0.2425354
vn 0.9701425 0 -0.2425356
vn 0.9701425 0 -0.2425356
vn 0.9701425 -2.276859E-07 -0.2425356
vn 0.9701425 -2.276859E-07 -0.2425356
vn 0.9701425 -9.107437E-07 -0.2425357
vn 0.9701424 0 -0.2425359
vn 0.9701425 0 -0.2425357
vn 0.9701425 0 -0.2425357
vn 0.9701425 -1.1565E-07 -0.2425355
vn 0.9701425 0 -0.2425354
vn 0.9701425 0 -0.2425356
vn 0.9701425 0 -0.2425356
vn 0.9701425 -2.478214E-07 -0.2425357
vn 0.9701425 -2.478214E-07 -0.2425357
vn 0.9701425 -9.912857E-07 -0.2425358
vn 0 1 0
vn 0 0.9999999 0
vn 0 1 0
vn 0 1 0
vn 0 1 0
vn 0 1 0
vn 0 1 0
vn 0 1 0
vn 0 1 0
vn 0 1 0
vn 0 1 0
vn 0 1 0
vn 0 0.9999999 0
vn 0 0.9999999 0
vn 0 1 0
vn 0 1 0
vn 0 1 0
vn 0 1 0
vn 0 1 0
vn 0 1 0
vn 0 1 0
vn 0 1 0
vn 0 1 0
vn 0 1 0
vn 0 1 0
vn 0 1 0
vn 0 1 0
vn 0 1 0
vn 0 1 0
vn 0 1 0
vn 0 1 0
vn 0 1 0
vn 0 1 0
vn 0 -0.9701425 -0.2425356
vn 3.975468E-08 -0.9701425 -0.2425356
vn 3.975468E-08 -0.9701425 -0.2425356
vn 1.590187E-07 -0.9701425 -0.2425356
vn -1.807031E-09 -0.9701425 -0.2425358
vn -7.950939E-08 -0.9701424 -0.2425356
vn -3.975469E-08 -0.9701425 -0.2425355
vn 0 -0.9701425 -0.2425356
vn 5.20425E-08 -0.9701425 -0.2425356
vn 2.602125E-08 -0.9701425 -0.2425357
vn 0 -0.9701425 -0.2425358
vn -5.20425E-08 -0.9701425 -0.2425356
vn -2.0817E-07 -0.9701426 -0.2425354
vn 5.20425E-08 -0.9701425 -0.2425356
vn 0 -0.9701425 -0.2425358
vn 0 -0.9701425 -0.2425355
vn 0 -0.9701425 -0.2425353
vn 8.673751E-08 -0.9701425 -0.2425357
vn 0 -0.9701424 -0.2425358
vn 8.67375E-08 -0.9701425 -0.2425356
vn 3.4695E-07 -0.9701425 -0.2425355
vn -8.673751E-08 -0.9701425 -0.2425357
vn -1.73475E-07 -0.9701425 -0.2425357
g pb_Mesh222288_0
f 3/3/3 2/2/2 1/1/1
f 4/4/4 3/3/3 1/1/1
f 2/2/2 3/3/3 5/5/5
f 3/3/3 6/6/6 5/5/5
f 4/4/4 6/6/6 3/3/3
f 7/7/7 6/6/6 4/4/4
f 10/10/10 9/9/9 8/8/8
f 10/10/10 11/11/11 9/9/9
f 8/8/8 13/13/13 12/12/12
f 10/10/10 8/8/8 12/12/12
f 13/13/13 9/9/9 14/14/14
f 8/8/8 9/9/9 13/13/13
f 17/17/17 16/16/16 15/15/15
f 16/16/16 18/18/18 15/15/15
f 20/20/20 17/17/17 19/19/19
f 16/16/16 17/17/17 20/20/20
f 21/21/21 19/19/19 15/15/15
f 19/19/19 17/17/17 15/15/15
f 24/24/24 23/23/23 22/22/22
f 24/24/24 25/25/25 23/23/23
f 25/25/25 26/26/26 23/23/23
f 26/26/26 25/25/25 27/27/27
f 28/28/28 27/27/27 24/24/24
f 25/25/25 24/24/24 27/27/27
f 31/31/31 30/30/30 29/29/29
f 29/29/29 30/30/30 32/32/32
f 33/33/33 32/32/32 30/30/30
f 33/33/33 30/30/30 34/34/34
f 35/35/35 34/34/34 31/31/31
f 30/30/30 31/31/31 34/34/34
f 38/38/38 37/37/37 36/36/36
f 39/39/39 38/38/38 36/36/36
f 37/37/37 40/40/40 36/36/36
f 37/37/37 41/41/41 40/40/40
f 38/38/38 41/41/41 37/37/37
f 42/42/42 41/41/41 38/38/38
f 45/45/45 44/44/44 43/43/43
f 46/46/46 44/44/44 45/45/45
f 48/48/48 47/47/47 44/44/44
f 46/46/46 48/48/48 44/44/44
f 49/49/49 48/48/48 46/46/46
f 49/49/49 46/46/46 45/45/45
f 52/52/52 51/51/51 50/50/50
f 53/53/53 52/52/52 50/50/50
f 52/52/52 42/42/42 51/51/51
f 52/52/52 54/54/54 42/42/42
f 53/53/53 54/54/54 52/52/52
f 55/55/55 54/54/54 53/53/53
f 57/57/57 56/56/56 49/49/49
f 58/58/58 56/56/56 57/57/57
f 56/56/56 58/58/58 59/59/59
f 58/58/58 60/60/60 59/59/59
f 61/61/61 60/60/60 58/58/58
f 61/61/61 58/58/58 57/57/57
f 63/63/63 49/49/49 62/62/62
f 63/63/63 57/57/57 49/49/49
f 64/64/64 57/57/57 63/63/63
f 61/61/61 57/57/57 64/64/64
f 64/64/64 63/63/63 62/62/62
f 65/65/65 64/64/64 62/62/62
f 68/68/68 67/67/67 66/66/66
f 69/69/69 67/67/67 68/68/68
f 70/70/70 67/67/67 69/69/69
f 70/70/70 69/69/69 71/71/71
f 72/72/72 71/71/71 68/68/68
f 69/69/69 68/68/68 71/71/71
f 74/74/74 43/43/43 73/73/73
f 74/74/74 45/45/45 43/43/43
f 75/75/75 45/45/45 74/74/74
f 49/49/49 45/45/45 75/75/75
f 75/75/75 74/74/74 73/73/73
f 76/76/76 75/75/75 73/73/73
f 79/79/79 78/78/78 77/77/77
f 80/80/80 78/78/78 79/79/79
f 72/72/72 78/78/78 80/80/80
f 72/72/72 80/80/80 81/81/81
f 82/82/82 81/81/81 79/79/79
f 80/80/80 79/79/79 81/81/81
f 85/85/85 84/84/84 83/83/83
f 86/86/86 84/84/84 85/85/85
f 87/87/87 84/84/84 86/86/86
f 87/87/87 88/88/88 84/84/84
f 89/89/89 86/86/86 85/85/85
f 89/89/89 87/87/87 86/86/86
f 90/90/90 83/83/83 84/84/84
f 91/91/91 90/90/90 84/84/84
f 91/91/91 92/92/92 90/90/90
f 93/93/93 92/92/92 91/91/91
f 84/84/84 93/93/93 91/91/91
f 88/88/88 93/93/93 84/84/84
f 95/95/95 94/94/94 89/89/89
f 96/96/96 94/94/94 95/95/95
f 97/97/97 94/94/94 96/96/96
f 97/97/97 98/98/98 94/94/94
f 99/99/99 96/96/96 95/95/95
f 99/99/99 97/97/97 96/96/96
f 87/87/87 89/89/89 94/94/94
f 100/100/100 87/87/87 94/94/94
f 100/100/100 88/88/88 87/87/87
f 101/101/101 88/88/88 100/100/100
f 94/94/94 101/101/101 100/100/100
f 98/98/98 101/101/101 94/94/94
f 104/104/104 103/103/103 102/102/102
f 105/105/105 103/103/103 104/104/104
f 106/106/106 103/103/103 105/105/105
f 106/106/106 99/99/99 103/103/103
f 107/107/107 105/105/105 104/104/104
f 107/107/107 106/106/106 105/105/105
f 108/108/108 102/102/102 103/103/103
f 109/109/109 108/108/108 103/103/103
f 109/109/109 89/89/89 108/108/108
f 95/95/95 89/89/89 109/109/109
f 103/103/103 95/95/95 109/109/109
f 99/99/99 95/95/95 103/103/103
f 112/112/112 111/111/111 110/110/110
f 113/113/113 111/111/111 112/112/112
f 108/108/108 111/111/111 113/113/113
f 108/108/108 89/89/89 111/111/111
f 102/102/102 113/113/113 112/112/112
f 102/102/102 108/108/108 113/113/113
f 114/114/114 110/110/110 111/111/111
f 115/115/115 114/114/114 111/111/111
f 115/115/115 83/83/83 114/114/114
f 85/85/85 83/83/83 115/115/115
f 111/111/111 85/85/85 115/115/115
f 89/89/89 85/85/85 111/111/111
f 118/118/118 117/117/117 116/116/116
f 117/117/117 119/119/119 116/116/116
f 120/120/120 119/119/119 117/117/117
f 120/120/120 117/117/117 121/121/121
f 118/118/118 121/121/121 117/117/117
f 122/122/122 121/121/121 118/118/118
f 125/125/125 124/124/124 123/123/123
f 126/126/126 124/124/124 125/125/125
f 127/127/127 124/124/124 126/126/126
f 128/128/128 127/127/127 126/126/126
f 129/129/129 126/126/126 125/125/125
f 129/129/129 128/128/128 126/126/126
f 131/131/131 130/130/130 122/122/122
f 130/130/130 132/132/132 122/122/122
f 133/133/133 132/132/132 130/130/130
f 133/133/133 134/134/134 132/132/132
f 131/131/131 133/133/133 130/130/130
f 135/135/135 133/133/133 131/131/131
f 137/137/137 136/136/136 127/127/127
f 138/138/138 136/136/136 137/137/137
f 139/139/139 136/136/136 138/138/138
f 140/140/140 139/139/139 138/138/138
f 140/140/140 137/137/137 141/141/141
f 140/140/140 138/138/138 137/137/137
f 144/144/144 143/143/143 142/142/142
f 143/143/143 144/144/144 145/145/145
f 144/144/144 142/142/142 146/146/146
f 142/142/142 147/147/147 146/146/146
f 143/143/143 147/147/147 142/142/142
f 148/148/148 147/147/147 143/143/143
f 151/151/151 150/150/150 149/149/149
f 151/151/151 152/152/152 150/150/150
f 150/150/150 131/131/131 122/122/122
f 152/152/152 131/131/131 150/150/150
f 135/135/135 131/131/131 152/152/152
f 151/151/151 135/135/135 152/152/152
f 155/155/155 154/154/154 153/153/153
f 154/154/154 155/155/155 146/146/146
f 155/155/155 153/153/153 156/156/156
f 153/153/153 157/157/157 156/156/156
f 154/154/154 157/157/157 153/153/153
f 158/158/158 157/157/157 154/154/154
f 161/161/161 160/160/160 159/159/159
f 161/161/161 162/162/162 160/160/160
f 160/160/160 118/118/118 116/116/116
f 162/162/162 118/118/118 160/160/160
f 122/122/122 118/118/118 162/162/162
f 161/161/161 122/122/122 162/162/162
f 165/165/165 164/164/164 163/163/163
f 166/166/166 165/165/165 163/163/163
f 164/164/164 167/167/167 163/163/163
f 164/164/164 168/168/168 167/167/167
f 165/165/165 168/168/168 164/164/164
f 169/169/169 168/168/168 165/165/165
f 170/170/170 165/165/165 166/166/166
f 170/170/170 171/171/171 165/165/165
f 165/165/165 171/171/171 169/169/169
f 171/171/171 172/172/172 169/169/169
f 173/173/173 172/172/172 171/171/171
f 173/173/173 171/171/171 170/170/170
f 176/176/176 175/175/175 174/174/174
f 177/177/177 175/175/175 176/176/176
f 177/177/177 167/167/167 175/175/175
f 163/163/163 167/167/167 177/177/177
f 176/176/176 163/163/163 177/177/177
f 176/176/176 166/166/166 163/163/163
f 180/180/180 179/179/179 178/178/178
f 181/181/181 180/180/180 178/178/178
f 179/179/179 180/180/180 174/174/174
f 180/180/180 176/176/176 174/174/174
f 181/181/181 176/176/176 180/180/180
f 166/166/166 176/176/176 181/181/181
f 184/184/184 183/183/183 182/182/182
f 185/185/185 183/183/183 184/184/184
f 185/185/185 186/186/186 183/183/183
f 187/187/187 186/186/186 185/185/185
f 184/184/184 187/187/187 185/185/185
f 184/184/184 167/167/167 187/187/187
f 189/189/189 188/188/188 174/174/174
f 175/175/175 189/189/189 174/174/174
f 188/188/188 189/189/189 182/182/182
f 189/189/189 184/184/184 182/182/182
f 175/175/175 184/184/184 189/189/189
f 167/167/167 184/184/184 175/175/175
f 191/191/191 190/190/190 187/187/187
f 167/167/167 191/191/191 187/187/187
f 190/190/190 186/186/186 187/187/187
f 190/190/190 192/192/192 186/186/186
f 191/191/191 192/192/192 190/190/190
f 193/193/193 192/192/192 191/191/191
f 168/168/168 191/191/191 167/167/167
f 168/168/168 194/194/194 191/191/191
f 191/191/191 194/194/194 193/193/193
f 194/194/194 195/195/195 193/193/193
f 169/169/169 195/195/195 194/194/194
f 169/169/169 194/194/194 168/168/168
f 198/198/198 197/197/197 196/196/196
f 199/199/199 197/197/197 198/198/198
f 200/200/200 197/197/197 199/199/199
f 200/200/200 199/199/199 201/201/201
f 202/202/202 199/199/199 198/198/198
f 202/202/202 201/201/201 199/199/199
f 197/197/197 203/203/203 196/196/196
f 203/203/203 204/204/204 196/196/196
f 203/203/203 205/205/205 204/204/204
f 206/206/206 205/205/205 203/203/203
f 206/206/206 203/203/203 197/197/197
f 200/200/200 206/206/206 197/197/197
f 200/200/200 207/207/207 206/206/206
f 207/207/207 208/208/208 206/206/206
f 206/206/206 209/209/209 205/205/205
f 206/206/206 208/208/208 209/209/209
f 208/208/208 210/210/210 209/209/209
f 207/207/207 210/210/210 208/208/208
f 209/209/209 211/211/211 205/205/205
f 209/209/209 212/212/212 211/211/211
f 212/212/212 213/213/213 211/211/211
f 214/214/214 213/213/213 212/212/212
f 214/214/214 212/212/212 209/209/209
f 210/210/210 214/214/214 209/209/209
f 207/207/207 215/215/215 210/210/210
f 216/216/216 215/215/215 207/207/207
f 217/217/217 215/215/215 216/216/216
f 218/218/218 217/217/217 216/216/216
f 218/218/218 207/207/207 200/200/200
f 218/218/218 216/216/216 207/207/207
