g pb_Mesh26990
v -27 74 0
v -13.5 74 0
v -13.5 74 9.933033
v -27 74 9.933033
v -27 74 -9.933033
v -13.5 74 -9.933033
v -13.5 74 -9.933033
v -27 74 -9.933033
v 0 55.5 -9.933033
v 0 37 -9.933033
v -27 0 -9.933033
v 0 0 -9.933033
v 0 74 -9.933033
v 0 74 -2.483258
v 0 74 -4.966516
v 0 70 0
v 0 59.2 -2.483258
v 0 70 2.483258
v 0 44.4 0
v 0 74 0
v 0 74 2.97991
v 0 70 0
v 0 74 0
v 0 74 0
v 0 74 0
v 0 70 0
v 0 74 -7.449775
v 0 57.35 -6.208146
v 0 74 -9.933033
v 0 55.5 -9.933033
v 0 40.7 -4.966516
v 0 37 -9.933033
v 0 0 0
v 0 0 -9.933033
v 0 40.7 4.966516
v 0 37 9.933033
v 0 0 9.933033
v 0 74 9.933033
v 0 74 6.953123
v 0 70 6.953123
v 0 70 9.933033
v -13.5 74 0
v 0 74 0
v 0 74 0
v -13.5 74 0
v 0 74 0
v 0 74 2.97991
v -13.5 74 0
v 0 74 6.953123
v 0 74 9.933033
v 0 74 -9.933033
v 0 74 -7.449775
v 0 74 -4.966516
v 0 74 -2.483258
v 0 74 0
v -27 74 9.933033
v -27 70 9.933033
v -27 74 0
v -27 0 9.933033
v -27 0 -9.933033
v -27 74 -9.933033
v 0 74 9.933033
v 0 70 9.933033
v -13.5 74 9.933033
v 0 70 9.933033
v -13.5 74 9.933033
v 0 70 9.933033
v -13.5 74 9.933033
v 0 70 9.933033
v -27 70 9.933033
v -27 74 9.933033
v -13.5 74 9.933033
v 0 0 9.933033
v -27 0 9.933033
v 0 37 9.933033
v 0 70 9.933033
v 0 70 6.953123
v 0 70 9.933033
v 0 70 9.933033
v 0 70 6.953123
v 0 70 9.933033
v 0 70 9.933033
v -27 0 9.933033
v 0 0 9.933033
v 0 0 0
v -27 0 -9.933033
v 0 0 -9.933033
vt 15.1875 -8.933033
vt 13.5 -8.933033
vt 13.5 -7.691404
vt 15.1875 -7.691404
vt 15.1875 -10.17466
vt 13.5 -10.17466
vt 13.5 41.625
vt 15.1875 41.625
vt 11.8125 39.3125
vt 11.8125 37
vt 15.1875 32.375
vt 11.8125 32.375
vt 11.8125 41.625
vt -0.1552036 39.3125
vt -0.3104073 39.3125
vt 0 39.0625
vt -0.1552036 38.3875
vt 0.1552036 39.0625
vt 0 37.4625
vt 0 39.3125
vt 0.1862444 39.3125
vt 0 39.0625
vt 0 39.3125
vt 0 39.3125
vt 0 39.3125
vt 0 39.0625
vt -0.4656109 39.3125
vt -0.3880091 38.27187
vt -0.6208146 39.3125
vt -0.6208146 38.15625
vt -0.3104073 37.23125
vt -0.6208146 37
vt 0 34.6875
vt -0.6208146 34.6875
vt 0.3104073 37.23125
vt 0.6208146 37
vt 0.6208146 34.6875
vt 0.6208146 39.3125
vt 0.4345702 39.3125
vt 0.4345702 39.0625
vt 0.6208146 39.0625
vt 13.5 -8.933033
vt 11.8125 -8.933033
vt 11.8125 -8.933033
vt 13.5 -8.933033
vt 11.8125 -8.933033
vt 11.8125 -8.560544
vt 13.5 -8.933033
vt 11.8125 -8.063892
vt 11.8125 -7.691404
vt 11.8125 -10.17466
vt 11.8125 -9.864255
vt 11.8125 -9.553847
vt 11.8125 -9.243441
vt 11.8125 -8.933033
vt 1.241629 41.625
vt 1.241629 41.125
vt 0 41.625
vt 1.241629 32.375
vt -1.241629 32.375
vt -1.241629 41.625
vt 15.1875 -31.375
vt 15.1875 -31.875
vt 13.5 -31.375
vt 15.1875 -31.875
vt 13.5 -31.375
vt 15.1875 -31.875
vt 13.5 -31.375
vt 15.1875 -31.875
vt 11.8125 -31.875
vt 11.8125 -31.375
vt 13.5 -31.375
vt 15.1875 -40.625
vt 11.8125 -40.625
vt 15.1875 -36
vt 15.1875 -31.875
vt 0.4345702 39.0625
vt 0.6208146 39.0625
vt 0.6208146 39.0625
vt 0.4345702 39.0625
vt 0.6208146 39.0625
vt 0.6208146 39.0625
vt -14.34375 0.6208146
vt -12.65625 0.6208146
vt -12.65625 0
vt -14.34375 -0.6208146
vt -12.65625 -0.6208146
vn 0 1 0
vn 0 1 0
vn 0 1 0
vn 0 1 0
vn 0 1 0
vn 0 1 0
vn 0 0 -1
vn 0 0 -1
vn 0 0 -1
vn 0 0 -1
vn 0 0 -1
vn 0 0 -1
vn 0 0 -1
vn 1 0 0
vn 1 0 0
vn 1 0 0
vn 1 0 0
vn 1 0 0
vn 1 0 0
vn 1 0 0
vn 1 0 0
vn 1 0 0
vn 1 0 0
vn 0 0 0
vn 1 0 0
vn 1 0 0
vn 1 0 0
vn 1 0 0
vn 1 0 0
vn 1 0 0
vn 1 0 0
vn 0.9999999 0 0
vn 1 0 0
vn 0.9999999 0 0
vn 1 0 0
vn 1 0 0
vn 0.9999999 0 0
vn 1 0 0
vn 1 0 0
vn 1 0 0
vn 1 0 0
vn 0 1 0
vn 0 0 0
vn 0 1 0
vn 0 1 0
vn 0 1 0
vn 0 1 0
vn 0 1 0
vn 0 1 0
vn 0 1 0
vn 0 1 0
vn 0 1 0
vn 0 1 0
vn 0 1 0
vn 0 1 0
vn -1 0 0
vn -0.9999999 0 0
vn -1 0 0
vn -0.9999999 0 0
vn -1 0 0
vn -0.9999999 0 0
vn 0 0 1
vn 0 0 1
vn 0 0 1
vn 0 0 1
vn 0 0 1
vn 0 0 1
vn 0 0 1
vn 0 0 1
vn 0 0 1
vn 0 0 1
vn 0 0 1
vn 0 0 1
vn 0 0 1
vn 0 0 1
vn 0 0 1
vn 1 0 0
vn 1 0 0
vn 1 0 0
vn 1 0 0
vn 1 0 0
vn 0 0 0
vn 0 -1 0
vn 0 -1 0
vn 0 -1 0
vn 0 -1 0
vn 0 -1 0
g pb_Mesh26990_0
f 3/3/3 2/2/2 1/1/1
f 3/3/3 1/1/1 4/4/4
f 2/2/2 6/6/6 5/5/5
f 2/2/2 5/5/5 1/1/1
f 9/9/9 8/8/8 7/7/7
f 10/10/10 8/8/8 9/9/9
f 10/10/10 11/11/11 8/8/8
f 10/10/10 12/12/12 11/11/11
f 13/13/13 9/9/9 7/7/7
f 16/16/16 15/15/15 14/14/14
f 16/16/16 17/17/17 15/15/15
f 18/18/18 17/17/17 16/16/16
f 18/18/18 19/19/19 17/17/17
f 21/21/21 16/16/16 20/20/20
f 16/16/16 21/21/21 18/18/18
f 23/23/23 22/22/22 14/14/14
f 26/26/26 25/25/25 24/24/24
f 17/17/17 27/27/27 15/15/15
f 17/17/17 28/28/28 27/27/27
f 28/28/28 29/29/29 27/27/27
f 28/28/28 30/30/30 29/29/29
f 31/31/31 30/30/30 28/28/28
f 31/31/31 32/32/32 30/30/30
f 19/19/19 28/28/28 17/17/17
f 19/19/19 31/31/31 28/28/28
f 33/33/33 32/32/32 31/31/31
f 33/33/33 34/34/34 32/32/32
f 19/19/19 33/33/33 31/31/31
f 35/35/35 33/33/33 19/19/19
f 36/36/36 33/33/33 35/35/35
f 36/36/36 37/37/37 33/33/33
f 40/40/40 39/39/39 38/38/38
f 41/41/41 40/40/40 38/38/38
f 18/18/18 21/21/21 39/39/39
f 40/40/40 18/18/18 39/39/39
f 40/40/40 19/19/19 18/18/18
f 40/40/40 35/35/35 19/19/19
f 44/44/44 43/43/43 42/42/42
f 47/47/47 46/46/46 45/45/45
f 48/48/48 3/3/3 47/47/47
f 3/3/3 49/49/49 47/47/47
f 3/3/3 50/50/50 49/49/49
f 52/52/52 51/51/51 6/6/6
f 53/53/53 52/52/52 6/6/6
f 6/6/6 2/2/2 53/53/53
f 2/2/2 54/54/54 53/53/53
f 2/2/2 55/55/55 54/54/54
f 58/58/58 57/57/57 56/56/56
f 60/60/60 59/59/59 57/57/57
f 61/61/61 60/60/60 57/57/57
f 58/58/58 61/61/61 57/57/57
f 64/64/64 63/63/63 62/62/62
f 67/67/67 66/66/66 65/65/65
f 70/70/70 69/69/69 68/68/68
f 72/72/72 71/71/71 70/70/70
f 70/70/70 74/74/74 73/73/73
f 70/70/70 73/73/73 75/75/75
f 70/70/70 75/75/75 76/76/76
f 78/78/78 35/35/35 77/77/77
f 79/79/79 36/36/36 35/35/35
f 82/82/82 81/81/81 80/80/80
g pb_Mesh26990_1
f 85/85/85 84/84/84 83/83/83
f 86/86/86 85/85/85 83/83/83
f 86/86/86 87/87/87 85/85/85
