g pb_Mesh1222664
v -8 0 15
v 0 0 15
v -7 0 14
v -1 0 14
v 0 0 13
v -1 0 13
v -8 0 5
v -7 0 6
v 0 0 5
v -1 0 6
v 0 0 7
v -1 0 7
v 0 0 7
v -1 0 7
v 0 4 7
v -1 4 7
v 0 0 15
v -8 0 15
v 0 4 15
v -8 4 15
v 0 0 5
v 0 0 7
v 0 4 5
v 0 4 7
v 0 0 13
v 0 0 15
v 0 4 13
v 0 4 15
vt -8 15
vt 0 15
vt -7 14
vt -1 14
vt 0 13
vt -1 13
vt -8 5
vt -7 6
vt 0 5
vt -1 6
vt 0 7
vt -1 7
vt 0 0
vt -1 0
vt 0 4
vt -1 4
vt 0 0
vt -8 0
vt 0 4
vt -8 4
vt -5.875 1.75
vt -6.125 1.75
vt -5.875 2.25
vt -6.125 2.25
vt -13.875 1.75
vt -14.125 1.75
vt -13.875 2.25
vt -14.125 2.25
vn 0 -1 0
vn 0 -1 0
vn 0 -1 0
vn 0 -1 0
vn 0 -1 0
vn 0 -1 0
vn 0 -1 0
vn 0 -1 0
vn 0 -1 0
vn 0 -1 0
vn 0 -1 0
vn 0 -1 0
vn 0 0 1
vn 0 0 1
vn 0 0 1
vn 0 0 1
vn 0 0 1
vn 0 0 1
vn 0 0 1
vn 0 0 1
vn 1 0 0
vn 1 0 0
vn 1 0 0
vn 1 0 0
vn 1 0 0
vn 1 0 0
vn 1 0 0
vn 1 0 0
g pb_Mesh1222664_0
f 3/3/3 2/2/2 1/1/1
f 3/3/3 4/4/4 2/2/2
f 4/4/4 5/5/5 2/2/2
f 4/4/4 6/6/6 5/5/5
f 1/1/1 7/7/7 3/3/3
f 7/7/7 8/8/8 3/3/3
f 9/9/9 8/8/8 7/7/7
f 9/9/9 10/10/10 8/8/8
f 10/10/10 9/9/9 11/11/11
f 12/12/12 10/10/10 11/11/11
f 15/15/15 14/14/14 13/13/13
f 15/15/15 16/16/16 14/14/14
f 19/19/19 18/18/18 17/17/17
f 19/19/19 20/20/20 18/18/18
g pb_Mesh1222664_1
f 23/23/23 22/22/22 21/21/21
f 23/23/23 24/24/24 22/22/22
f 27/27/27 26/26/26 25/25/25
f 27/27/27 28/28/28 26/26/26
