g pb_Mesh222314
v -5 0 0
v -4 0 -3
v -5 11 0
v -4 11 -3
v -4 0 -3
v -3 0 -3
v -4 11 -3
v -3 11 -3
v -3 0 -3
v -3 0 0
v -3 11 -3
v -3 11 0
v -3 0 -3
v -4 0 -3
v -3 0 0
v -5 0 0
vt -2 2
vt -3 2
vt -1.999999 6
vt -2.999999 6
vt -3 2.5
vt -4 2.5
vt -2.999952 6.625
vt -3.999952 6.625
vt -4 0.9999998
vt -5 1
vt -4.000009 5
vt -5.000009 5
vt -3.5 -3
vt -2.5 -3
vt -3.5 -3.5
vt -2.5 -3.5
vn -0.9486833 0 -0.3162278
vn -0.9486833 0 -0.3162278
vn -0.9486833 0 -0.3162278
vn -0.9486833 0 -0.3162278
vn 0 0 -1
vn 0 0 -1
vn 0 0 -1
vn 0 0 -1
vn 1 0 0
vn 1 0 0
vn 1 0 0
vn 1 0 0
vn 0 -1 0
vn 0 -1 0
vn 0 -1 0
vn 0 -1 0
g pb_Mesh222314_0
f 3/3/3 2/2/2 1/1/1
f 3/3/3 4/4/4 2/2/2
f 7/7/7 6/6/6 5/5/5
f 7/7/7 8/8/8 6/6/6
f 11/11/11 10/10/10 9/9/9
f 11/11/11 12/12/12 10/10/10
f 15/15/15 14/14/14 13/13/13
f 15/15/15 16/16/16 14/14/14
