g pb_Mesh21002
v 4 0 -16
v -10 0 -16
v 4 2 -16
v -10 6 -16
v -10 0 -16
v -10 0 -20
v -10 6 -16
v -10 6 -20
v -10 0 -20
v 4 0 -20
v -10 6 -20
v 4 2 -20
v 4 0 -20
v 4 0 -16
v 4 2 -20
v 4 2 -16
v 4 2 -16
v -10 6 -16
v 4 2 -20
v -10 6 -20
v 4 0 -20
v -10 0 -20
v 4 0 -16
v -10 0 -16
vt 4 0
vt -10 0
vt 4 2
vt -10 6
vt -16 0
vt -20 0
vt -16 6
vt -20 6
vt 10 0
vt -4 0
vt 10 6
vt -4 2
vt 20 0
vt 16 0
vt 20 2
vt 16 2
vt -3.296654 -16
vt 11.26357 -16
vt -3.296654 -20
vt 11.26357 -20
vt 4 -20
vt -10 -20
vt 4 -16
vt -10 -16
vn 0 0 1
vn 0 0 1
vn 0 0 1
vn 0 0 1
vn -1 0 0
vn -1 0 0
vn -1 0 0
vn -1 0 0
vn 0 0 -1
vn 0 0 -1
vn 0 0 -1
vn 0 0 -1
vn 1 0 0
vn 1 0 0
vn 1 0 0
vn 1 0 0
vn 0.2747211 0.9615239 0
vn 0.2747211 0.9615239 0
vn 0.2747211 0.9615239 0
vn 0.2747211 0.9615239 0
vn 0 -1 0
vn 0 -1 0
vn 0 -1 0
vn 0 -1 0
g pb_Mesh21002_0
f 3/3/3 2/2/2 1/1/1
f 3/3/3 4/4/4 2/2/2
f 7/7/7 6/6/6 5/5/5
f 7/7/7 8/8/8 6/6/6
f 11/11/11 10/10/10 9/9/9
f 11/11/11 12/12/12 10/10/10
f 15/15/15 14/14/14 13/13/13
f 15/15/15 16/16/16 14/14/14
f 19/19/19 18/18/18 17/17/17
f 19/19/19 20/20/20 18/18/18
f 23/23/23 22/22/22 21/21/21
f 23/23/23 24/24/24 22/22/22
