g pb_Mesh87384
v 0 0 0
v 2 -1 2
v -1 0 3
v 2 -1 2
v 4 -5 4
v 0 -2 7
v 2 -1 2
v 0 -2 7
v -1 0 3
v -1 0 3
v 0 -2 7
v -2 -1 7
v 0 0 0
v -1 0 3
v -3 1 0
v -1 0 3
v -2 -1 7
v -5 1 3
v -1 0 3
v -5 1 3
v -3 1 0
v -3 1 0
v -5 1 3
v -7 1 0
v 1 0 -3
v -6 1 -3
v -3 1 0
v -6 1 -3
v 1 0 -3
v 1 0 -3
v -6 1 -3
v -3 1 -7
v 0 0 0
v 1 0 -3
v 4 -1 -2
v 1 0 -3
v -3 1 -7
v 2 0 -5
v 1 0 -3
v 2 0 -5
v 4 -1 -2
v 4 -1 -2
v 2 0 -5
v 5 -3 -4
v 0 0 0
v 4 -1 -2
v 2 -1 2
v 4 -1 -2
v 5 -3 -4
v 6 -5 -1
v 4 -1 -2
v 6 -5 -1
v 2 -1 2
v 2 -1 2
v 6 -5 -1
v 4 -5 4
v -5 1 3
v -2 -1 7
v -5 -1 6
v -5 1 3
v -5 -1 6
v -13 0 3
v -13 0 3
v -5 -1 6
v -13 -5 6
v -2 -1 7
v 0 -2 7
v -1 -5 7.071869
v 0 -2 7
v 4 -5 4
v 1 -7 7
v 0 -2 7
v 1 -7 7
v -1 -5 7.071869
v -1 -5 7.071869
v 1 -7 7
v -2 -9 7.751373
v 4 -5 4
v 6 -5 -1
v 6 -9 4
v 6 -5 -1
v 5 -3 -4
v 9 -9 -3
v 6 -5 -1
v 9 -9 -3
v 6 -9 4
v 6 -9 4
v 9 -9 -3
v 9.583 -11 -0.1807861
v 5 -3 -4
v 2 0 -5
v 4 -3 -8
v 2 0 -5
v -3 1 -7
v 1 -2 -11
v 2 0 -5
v 1 -2 -11
v 4 -3 -8
v 4 -3 -8
v 1 -2 -11
v 1 -9 -14
v -3 1 -7
v -6 1 -3
v -9 0 -8
v -6 1 -3
v -7 1 0
v -12 1 -2
v -6 1 -3
v -12 1 -2
v -9 0 -8
v -9 0 -8
v -12 1 -2
v -11.65779 -5 -4
v -8 -11 3
v -12.81989 -8.286865 5.897263
v -2 -11 8.549866
v -12.81989 -8.286865 5.897263
v -13 -5 6
v -9 -7 6.124344
v -12.81989 -8.286865 5.897263
v -9 -7 6.124344
v -2 -11 8.549866
v -2 -11 8.549866
v -9 -7 6.124344
v -2 -9 7.751373
v -8 -11 3
v -2 -11 8.549866
v -3.364679 -11.84417 0
v -2 -11 8.549866
v -2 -9 7.751373
v 5.33168 -11 6.172913
v -2 -11 8.549866
v 5.33168 -11 6.172913
v -3.364679 -11.84417 0
v -3.364679 -11.84417 0
v 5.33168 -11 6.172913
v 9.583 -11 -0.1807861
v -8 -11 3
v -3.364679 -11.84417 0
v -5.342388 -10.62187 -3.2
v -3.364679 -11.84417 0
v 9.583 -11 -0.1807861
v 7.350861 -11 -8.802887
v -3.364679 -11.84417 0
v 7.350861 -11 -8.802887
v -5.342388 -10.62187 -3.2
v -5.342388 -10.62187 -3.2
v 7.350861 -11 -8.802887
v 1 -9 -14
v -8 -11 3
v -5.342388 -10.62187 -3.2
v -10.39154 -16 -8
v -5.342388 -10.62187 -3.2
v 1 -9 -14
v -9 -14 -13.6095
v -5.342388 -10.62187 -3.2
v -9 -14 -13.6095
v -10.39154 -16 -8
v -10.39154 -16 -8
v -9 -14 -13.6095
v -11.65779 -5 -4
v -8 -11 3
v -10.39154 -16 -8
v -12.81989 -8.286865 5.897263
v -10.39154 -16 -8
v -11.65779 -5 -4
v -12.62653 -5 2.869629
v -10.39154 -16 -8
v -12.62653 -5 2.869629
v -12.81989 -8.286865 5.897263
v -12.81989 -8.286865 5.897263
v -12.62653 -5 2.869629
v -13 -5 6
v -2 -9 7.751373
v -9 -7 6.124344
v -1 -5 7.071869
v -9 -7 6.124344
v -13 -5 6
v -5 -1 6
v -9 -7 6.124344
v -5 -1 6
v -1 -5 7.071869
v -1 -5 7.071869
v -5 -1 6
v -2 -1 7
v 9.583 -11 -0.1807861
v 5.33168 -11 6.172913
v 6 -9 4
v 5.33168 -11 6.172913
v -2 -9 7.751373
v 1 -7 7
v 5.33168 -11 6.172913
v 1 -7 7
v 6 -9 4
v 6 -9 4
v 1 -7 7
v 4 -5 4
v 1 -9 -14
v 7.350861 -11 -8.802887
v 4 -3 -8
v 7.350861 -11 -8.802887
v 9.583 -11 -0.1807861
v 9 -9 -3
v 7.350861 -11 -8.802887
v 9 -9 -3
v 4 -3 -8
v 4 -3 -8
v 9 -9 -3
v 5 -3 -4
v -11.65779 -5 -4
v -9 -14 -13.6095
v -9 0 -8
v -9 -14 -13.6095
v 1 -9 -14
v 1 -2 -11
v -9 -14 -13.6095
v 1 -2 -11
v -9 0 -8
v -9 0 -8
v 1 -2 -11
v -3 1 -7
v -13 -5 6
v -12.62653 -5 2.869629
v -13 0 3
v -12.62653 -5 2.869629
v -11.65779 -5 -4
v -12 1 -2
v -12.62653 -5 2.869629
v -12 1 -2
v -13 0 3
v -13 0 3
v -12 1 -2
v -7 1 0
v -7 1 0
v -5 1 3
v -13 0 3
vt -3.364679 0
vt -5.177709 1.977709
vt -1.977709 3.2
vt -1.977709 3.2
vt -3.364679 0
vt -5.177709 1.977709
vt 5.177709 3.2
vt 3.2 1.977709
vt 1.977709 5.177709
vt 1.977709 5.177709
vt 3.2 1.977709
vt 0 3.364679
vt -3.364679 0
vt -1.977709 3.2
vt 0 0
vt -1.977709 3.2
vt 0 5.444165
vt 1.977709 3.2
vt -1.977709 3.2
vt 1.977709 3.2
vt 0 0
vt 0 0
vt 1.977709 3.2
vt 3.364679 0
vt -1.977709 -3.2
vt 1.977709 -3.2
vt 0 0
vt 1.977709 -3.2
vt -1.977709 -3.2
vt -1.977709 -3.2
vt 1.977709 -3.2
vt 0 -5.444165
vt -3.364679 0
vt -1.977709 -3.2
vt -5.177709 -1.977709
vt -1.977709 5.177709
vt 0 3.364679
vt -3.2 1.977709
vt -1.977709 5.177709
vt -3.2 1.977709
vt -5.177709 3.2
vt 1.977709 3.2
vt 5.177709 1.977709
vt 3.364679 0
vt 0 5.444165
vt 1.977709 3.2
vt -1.977709 3.2
vt 1.977709 3.2
vt 3.364679 0
vt 0 0
vt 1.977709 3.2
vt 0 0
vt -1.977709 3.2
vt -1.977709 3.2
vt 0 0
vt -3.364679 0
vt -1.977709 5.177709
vt 0 3.364679
vt -3.2 1.977709
vt -1.977709 5.177709
vt -3.2 1.977709
vt -5.177709 3.2
vt 1.977709 3.2
vt 5.177709 1.977709
vt 3.364679 0
vt 0 3.364679
vt 3.2 1.977709
vt 0 0
vt 3.2 1.977709
vt 5.444165 0
vt 3.2 -1.977709
vt 3.2 1.977709
vt 3.2 -1.977709
vt 0 0
vt 0 0
vt 3.2 -1.977709
vt 0 -3.364679
vt -3.364679 0
vt 0 0
vt -1.977709 -3.2
vt 0 0
vt 3.364679 0
vt 1.977709 -3.2
vt 0 0
vt 1.977709 -3.2
vt -1.977709 -3.2
vt -1.977709 -3.2
vt 1.977709 -3.2
vt 0 -5.444165
vt -5.444165 0
vt -3.2 1.977709
vt -3.2 -1.977709
vt -3.2 1.977709
vt 0 3.364679
vt 0 0
vt -3.2 1.977709
vt 0 0
vt -3.2 -1.977709
vt -3.2 -1.977709
vt 0 0
vt 0 -3.364679
vt 0 3.364679
vt 1.977709 5.177709
vt 3.2 1.977709
vt 1.977709 -3.2
vt 3.364679 0
vt 5.177709 -1.977709
vt 1.977709 5.177709
vt 5.177709 3.2
vt 3.2 1.977709
vt -5.177709 1.977709
vt -1.977709 3.2
vt -3.364679 0
vt -3.364679 0
vt -5.177709 1.977709
vt -1.977709 3.2
vt 1.977709 -3.2
vt 3.364679 0
vt 5.177709 -1.977709
vt -5.177709 -3.2
vt -3.2 -1.977709
vt -1.977709 -5.177709
vt -1.977709 -5.177709
vt -3.2 -1.977709
vt 0 -3.364679
vt -3.364679 0
vt -1.977709 3.2
vt 0 0
vt -1.977709 3.2
vt 0 5.444165
vt 1.977709 3.2
vt -1.977709 3.2
vt 1.977709 3.2
vt 0 0
vt 0 0
vt 1.977709 3.2
vt 3.364679 0
vt -3.364679 0
vt 0 0
vt -1.977709 -3.2
vt 0 0
vt 3.364679 0
vt 1.977709 -3.2
vt 0 0
vt 1.977709 -3.2
vt -1.977709 -3.2
vt -1.977709 -3.2
vt 1.977709 -3.2
vt 0 -5.444165
vt -3.364679 0
vt -1.977709 -3.2
vt -5.177709 -1.977709
vt 1.977709 -5.177709
vt 0 -3.364679
vt 3.2 -1.977709
vt 1.977709 -5.177709
vt 3.2 -1.977709
vt 5.177709 -3.2
vt -1.977709 -3.2
vt -5.177709 -1.977709
vt -3.364679 0
vt 0 -5.444165
vt -1.977709 -3.2
vt 1.977709 -3.2
vt -1.977709 -3.2
vt -3.364679 0
vt 0 0
vt -1.977709 -3.2
vt 0 0
vt 1.977709 -3.2
vt 1.977709 -3.2
vt 0 0
vt 3.364679 0
vt 0 -3.364679
vt -3.2 -1.977709
vt 0 0
vt -3.2 -1.977709
vt -5.444165 0
vt -3.2 1.977709
vt -3.2 -1.977709
vt -3.2 1.977709
vt 0 0
vt 0 0
vt -3.2 1.977709
vt 0 3.364679
vt 3.364679 0
vt 1.977709 3.2
vt 5.177709 1.977709
vt 1.977709 -5.177709
vt 0 -3.364679
vt 3.2 -1.977709
vt 1.977709 -5.177709
vt 3.2 -1.977709
vt 5.177709 -3.2
vt -1.977709 -3.2
vt -5.177709 -1.977709
vt -3.364679 0
vt 0 -3.364679
vt -1.977709 -5.177709
vt -3.2 -1.977709
vt 1.977709 -3.2
vt 3.364679 0
vt 5.177709 -1.977709
vt -1.977709 -5.177709
vt -5.177709 -3.2
vt -3.2 -1.977709
vt 5.177709 -1.977709
vt 1.977709 -3.2
vt 3.364679 0
vt 5.444165 0
vt 3.2 -1.977709
vt 3.2 1.977709
vt 3.2 -1.977709
vt 0 -3.364679
vt 0 0
vt 3.2 -1.977709
vt 0 0
vt 3.2 1.977709
vt 3.2 1.977709
vt 0 0
vt 0 3.364679
vt 3.364679 0
vt 0 0
vt 1.977709 3.2
vt 0 0
vt -3.364679 0
vt -1.977709 3.2
vt 0 0
vt -1.977709 3.2
vt 1.977709 3.2
vt 1.977709 3.2
vt -1.977709 3.2
vt 0 5.444165
vt 3.364679 0
vt 1.977709 3.2
vt 5.177709 1.977709
vn 0.3487429 0.9299811 0.1162476
vn 0.3487429 0.9299811 0.1162476
vn 0.3487429 0.9299811 0.1162476
vn 0.7228974 0.5622535 0.4016097
vn 0.7228974 0.5622535 0.4016097
vn 0.7228974 0.5622535 0.4016097
vn 0.3956283 0.8571946 0.3296902
vn 0.3956283 0.8571946 0.3296902
vn 0.3956283 0.8571946 0.3296902
vn 0.4239992 0.8479983 0.3179994
vn 0.4239992 0.8479983 0.3179994
vn 0.4239992 0.8479983 0.3179994
vn 0.3144854 0.9434563 0.1048285
vn 0.3144854 0.9434563 0.1048285
vn 0.3144854 0.9434563 0.1048285
vn 0.2321035 0.9284142 0.2901294
vn 0.2321035 0.9284142 0.2901294
vn 0.2321035 0.9284142 0.2901294
vn 0.2394261 0.9577043 0.1596174
vn 0.2394261 0.9577043 0.1596174
vn 0.2394261 0.9577043 0.1596174
vn 0 1 0
vn 0 1 0
vn 0 1 0
vn 0.3144854 0.9434563 0.1048285
vn 0 1 0
vn 0.140028 0.9801961 -0.140028
vn 0.140028 0.9801961 -0.140028
vn 0.140028 0.9801961 -0.140028
vn 0.1406325 0.9844276 0.1054744
vn 0.1406325 0.9844276 0.1054744
vn 0.1406325 0.9844276 0.1054744
vn 0.2860388 0.9534626 0.09534626
vn 0.2860388 0.9534626 0.09534626
vn 0.2860388 0.9534626 0.09534626
vn 0.1638464 0.9830784 0.08192319
vn 0.1638464 0.9830784 0.08192319
vn 0.1638464 0.9830784 0.08192319
vn 0.2721655 0.9525794 0.1360828
vn 0.2721655 0.9525794 0.1360828
vn 0.2721655 0.9525794 0.1360828
vn 0.724286 0.6337503 -0.2716072
vn 0.724286 0.6337503 -0.2716072
vn 0.724286 0.6337503 -0.2716072
vn 0.3123475 0.9370426 0.1561738
vn 0.3123475 0.9370426 0.1561738
vn 0.3123475 0.9370426 0.1561738
vn 0.8944272 0.4472136 0
vn 0.8944272 0.4472136 0
vn 0.8944272 0.4472136 0
vn 0.7807201 0.48795 0.39036
vn 0.7807201 0.48795 0.39036
vn 0.7807201 0.48795 0.39036
vn 0.7784989 0.5449493 0.3113996
vn 0.7784989 0.5449493 0.3113996
vn 0.7784989 0.5449493 0.3113996
vn -0.1818182 0.8181819 0.5454546
vn -0.1818182 0.8181819 0.5454546
vn -0.1818182 0.8181819 0.5454546
vn -0.1034483 0.8275862 0.5517241
vn -0.1034483 0.8275862 0.5517241
vn -0.1034483 0.8275862 0.5517241
vn -0.2491364 0.4982729 0.8304548
vn -0.2491364 0.4982729 0.8304548
vn -0.2491364 0.4982729 0.8304548
vn 0.01026428 0.02052856 0.9997365
vn 0.01026428 0.02052856 0.9997365
vn 0.01026428 0.02052856 0.9997365
vn 0.6559042 0.1311808 0.7433581
vn 0.6559042 0.1311808 0.7433581
vn 0.6559042 0.1311808 0.7433581
vn 0.04487101 0.008974202 0.9989525
vn 0.04487101 0.008974202 0.9989525
vn 0.04487101 0.008974202 0.9989525
vn 0.1611665 0.125992 0.978852
vn 0.1611665 0.125992 0.978852
vn 0.1611665 0.125992 0.978852
vn 0.8421519 0.421076 0.3368608
vn 0.8421519 0.421076 0.3368608
vn 0.8421519 0.421076 0.3368608
vn 0.8197049 0.5635471 0.1024631
vn 0.8197049 0.5635471 0.1024631
vn 0.8197049 0.5635471 0.1024631
vn 0.8246002 0.4417501 0.3534001
vn 0.8246002 0.4417501 0.3534001
vn 0.8246002 0.4417501 0.3534001
vn 0.7096297 0.6355567 0.304127
vn 0.7096297 0.6355567 0.304127
vn 0.7096297 0.6355567 0.304127
vn 0.7249465 0.6645343 -0.1812366
vn 0.7249465 0.6645343 -0.1812366
vn 0.7249465 0.6645343 -0.1812366
vn 0.3154401 0.8832324 -0.3469841
vn 0.3154401 0.8832324 -0.3469841
vn 0.3154401 0.8832324 -0.3469841
vn 0.5869392 0.733674 -0.3423812
vn 0.5869392 0.733674 -0.3423812
vn 0.5869392 0.733674 -0.3423812
vn 0.724286 0.2716072 -0.6337503
vn 0.724286 0.2716072 -0.6337503
vn 0.724286 0.2716072 -0.6337503
vn -0.1456714 0.983282 -0.1092536
vn -0.1456714 0.983282 -0.1092536
vn -0.1456714 0.983282 -0.1092536
vn 0 1 0
vn 0 1 0
vn 0 1 0
vn -0.029801 0.9834329 -0.178806
vn -0.029801 0.9834329 -0.178806
vn -0.029801 0.9834329 -0.178806
vn -0.8827821 0.102474 -0.4584701
vn -0.8827821 0.102474 -0.4584701
vn -0.8827821 0.102474 -0.4584701
vn -0.3048635 -0.8935483 0.3295902
vn -0.3048635 -0.8935483 0.3295902
vn -0.3048635 -0.8935483 0.3295902
vn -0.04794767 -0.03383055 0.9982768
vn -0.04794767 -0.03383055 0.9982768
vn -0.04794767 -0.03383055 0.9982768
vn -0.1562581 0.2976396 0.9418036
vn -0.1562581 0.2976396 0.9418036
vn -0.1562581 0.2976396 0.9418036
vn -0.1092671 0.368567 0.9231571
vn -0.1092671 0.368567 0.9231571
vn -0.1092671 0.368567 0.9231571
vn -0.1058366 -0.9877785 0.1144207
vn -0.1058366 -0.9877785 0.1144207
vn -0.1058366 -0.9877785 0.1144207
vn 0.2883081 0.3550426 0.8892824
vn 0.2883081 0.3550426 0.8892824
vn 0.2883081 0.3550426 0.8892824
vn 0.03028792 -0.9951657 0.0934227
vn 0.03028792 -0.9951657 0.0934227
vn 0.03028792 -0.9951657 0.0934227
vn 0.06560773 -0.9968794 0.04389874
vn 0.06560773 -0.9968794 0.04389874
vn 0.06560773 -0.9968794 0.04389874
vn -0.288347 -0.9402739 -0.1809446
vn -0.288347 -0.9402739 -0.1809446
vn -0.288347 -0.9402739 -0.1809446
vn 0.06481762 -0.9977561 -0.01678036
vn 0.06481762 -0.9977561 -0.01678036
vn 0.06481762 -0.9977561 -0.01678036
vn -0.1482205 -0.9509237 -0.2716154
vn -0.1482205 -0.9509237 -0.2716154
vn -0.1482205 -0.9509237 -0.2716154
vn -0.1254974 -0.9676182 -0.21901
vn -0.1254974 -0.9676182 -0.21901
vn -0.1254974 -0.9676182 -0.21901
vn 0.6091976 -0.7634383 0.2145701
vn 0.6091976 -0.7634383 0.2145701
vn 0.6091976 -0.7634383 0.2145701
vn 0.4474776 -0.8848092 0.12991
vn 0.4474776 -0.8848092 0.12991
vn 0.4474776 -0.8848092 0.12991
vn 0.7497427 -0.6598913 -0.04928882
vn 0.7497427 -0.6598913 -0.04928882
vn 0.7497427 -0.6598913 -0.04928882
vn -0.9685549 -0.02135502 -0.247882
vn -0.9685549 -0.02135502 -0.247882
vn -0.9685549 -0.02135502 -0.247882
vn -0.2224836 -0.8684218 0.4431079
vn -0.2224836 -0.8684218 0.4431079
vn -0.2224836 -0.8684218 0.4431079
vn -0.9882307 -0.06308347 -0.1393574
vn -0.9882307 -0.06308347 -0.1393574
vn -0.9882307 -0.06308347 -0.1393574
vn -0.988502 -0.06680095 -0.1356511
vn -0.988502 -0.06680095 -0.1356511
vn -0.988502 -0.06680095 -0.1356511
vn -0.9916838 -0.05064447 -0.1183145
vn -0.9916838 -0.05064447 -0.1183145
vn -0.9916838 -0.05064447 -0.1183145
vn -0.1655616 0.2052535 0.9646037
vn -0.1655616 0.2052535 0.9646037
vn -0.1655616 0.2052535 0.9646037
vn -0.0155336 0.03106721 0.9993966
vn -0.0155336 0.03106721 0.9993966
vn -0.0155336 0.03106721 0.9993966
vn -0.1457235 0.1175066 0.9823222
vn -0.1457235 0.1175066 0.9823222
vn -0.1457235 0.1175066 0.9823222
vn -0.3156215 -0.06189285 0.9468645
vn -0.3156215 -0.06189285 0.9468645
vn -0.3156215 -0.06189285 0.9468645
vn 0.7900762 0.3103407 0.5286475
vn 0.7900762 0.3103407 0.5286475
vn 0.7900762 0.3103407 0.5286475
vn 0.2198335 0.03648961 0.9748547
vn 0.2198335 0.03648961 0.9748547
vn 0.2198335 0.03648961 0.9748547
vn 0.583804 0.499938 0.6397145
vn 0.583804 0.499938 0.6397145
vn 0.583804 0.499938 0.6397145
vn 0.5746958 0.2873479 0.766261
vn 0.5746958 0.2873479 0.766261
vn 0.5746958 0.2873479 0.766261
vn 0.6572408 0.3426606 -0.671281
vn 0.6572408 0.3426606 -0.671281
vn 0.6572408 0.3426606 -0.671281
vn 0.9656482 -0.07090478 -0.2499926
vn 0.9656482 -0.07090478 -0.2499926
vn 0.9656482 -0.07090478 -0.2499926
vn 0.8416139 0.3900112 -0.3736004
vn 0.8416139 0.3900112 -0.3736004
vn 0.8416139 0.3900112 -0.3736004
vn 0.8295614 0.5184759 -0.2073903
vn 0.8295614 0.5184759 -0.2073903
vn 0.8295614 0.5184759 -0.2073903
vn -0.9026012 0.1601091 -0.399595
vn -0.9026012 0.1601091 -0.399595
vn -0.9026012 0.1601091 -0.399595
vn -0.2267855 0.3836556 -0.8951965
vn -0.2267855 0.3836556 -0.8951965
vn -0.2267855 0.3836556 -0.8951965
vn -0.1999689 0.3644212 -0.9095106
vn -0.1999689 0.3644212 -0.9095106
vn -0.1999689 0.3644212 -0.9095106
vn -0.02807173 0.7860084 -0.617578
vn -0.02807173 0.7860084 -0.617578
vn -0.02807173 0.7860084 -0.617578
vn -0.9904591 -0.07090102 -0.1181684
vn -0.9904591 -0.07090102 -0.1181684
vn -0.9904591 -0.07090102 -0.1181684
vn -0.9901541 -0.009930381 -0.1396286
vn -0.9901541 -0.009930381 -0.1396286
vn -0.9901541 -0.009930381 -0.1396286
vn -0.9756687 -0.06743777 -0.2086213
vn -0.9756687 -0.06743777 -0.2086213
vn -0.9756687 -0.06743777 -0.2086213
vn -0.07264327 0.9806842 0.1816082
vn -0.07264327 0.9806842 0.1816082
vn -0.07264327 0.9806842 0.1816082
vn -0.1236129 0.9889028 0.08240857
vn -0.1236129 0.9889028 0.08240857
vn -0.1236129 0.9889028 0.08240857
g pb_Mesh87384_0
f 3/3/3 2/2/2 1/1/1
f 6/6/6 5/5/5 4/4/4
f 9/9/9 8/8/8 7/7/7
f 12/12/12 11/11/11 10/10/10
f 15/15/15 14/14/14 13/13/13
f 18/18/18 17/17/17 16/16/16
f 21/21/21 20/20/20 19/19/19
f 24/24/24 23/23/23 22/22/22
f 25/25/25 15/15/15 13/13/13
f 26/26/26 24/24/24 22/22/22
f 29/29/29 28/28/28 27/27/27
f 32/32/32 31/31/31 30/30/30
f 35/35/35 34/34/34 33/33/33
f 38/38/38 37/37/37 36/36/36
f 41/41/41 40/40/40 39/39/39
f 44/44/44 43/43/43 42/42/42
f 47/47/47 46/46/46 45/45/45
f 50/50/50 49/49/49 48/48/48
f 53/53/53 52/52/52 51/51/51
f 56/56/56 55/55/55 54/54/54
f 59/59/59 58/58/58 57/57/57
f 62/62/62 61/61/61 60/60/60
f 65/65/65 64/64/64 63/63/63
f 68/68/68 67/67/67 66/66/66
f 71/71/71 70/70/70 69/69/69
f 74/74/74 73/73/73 72/72/72
f 77/77/77 76/76/76 75/75/75
f 80/80/80 79/79/79 78/78/78
f 83/83/83 82/82/82 81/81/81
f 86/86/86 85/85/85 84/84/84
f 89/89/89 88/88/88 87/87/87
f 92/92/92 91/91/91 90/90/90
f 95/95/95 94/94/94 93/93/93
f 98/98/98 97/97/97 96/96/96
f 101/101/101 100/100/100 99/99/99
f 104/104/104 103/103/103 102/102/102
f 107/107/107 106/106/106 105/105/105
f 110/110/110 109/109/109 108/108/108
f 113/113/113 112/112/112 111/111/111
f 116/116/116 115/115/115 114/114/114
f 119/119/119 118/118/118 117/117/117
f 122/122/122 121/121/121 120/120/120
f 125/125/125 124/124/124 123/123/123
f 128/128/128 127/127/127 126/126/126
f 131/131/131 130/130/130 129/129/129
f 134/134/134 133/133/133 132/132/132
f 137/137/137 136/136/136 135/135/135
f 140/140/140 139/139/139 138/138/138
f 143/143/143 142/142/142 141/141/141
f 146/146/146 145/145/145 144/144/144
f 149/149/149 148/148/148 147/147/147
f 152/152/152 151/151/151 150/150/150
f 155/155/155 154/154/154 153/153/153
f 158/158/158 157/157/157 156/156/156
f 161/161/161 160/160/160 159/159/159
f 164/164/164 163/163/163 162/162/162
f 167/167/167 166/166/166 165/165/165
f 170/170/170 169/169/169 168/168/168
f 173/173/173 172/172/172 171/171/171
f 176/176/176 175/175/175 174/174/174
f 179/179/179 178/178/178 177/177/177
f 182/182/182 181/181/181 180/180/180
f 185/185/185 184/184/184 183/183/183
f 188/188/188 187/187/187 186/186/186
f 191/191/191 190/190/190 189/189/189
f 194/194/194 193/193/193 192/192/192
f 197/197/197 196/196/196 195/195/195
f 200/200/200 199/199/199 198/198/198
f 203/203/203 202/202/202 201/201/201
f 206/206/206 205/205/205 204/204/204
f 209/209/209 208/208/208 207/207/207
f 212/212/212 211/211/211 210/210/210
f 215/215/215 214/214/214 213/213/213
f 218/218/218 217/217/217 216/216/216
f 221/221/221 220/220/220 219/219/219
f 224/224/224 223/223/223 222/222/222
f 227/227/227 226/226/226 225/225/225
f 230/230/230 229/229/229 228/228/228
f 233/233/233 232/232/232 231/231/231
g pb_Mesh87384_1
f 236/236/236 235/235/235 234/234/234
