g pb_Mesh59348
v -33 -4 -1
v 1 -4 -1
v -33 15 -1
v 1 15 -1
v 1 -4 0
v -7.5 -4 0
v -7.5 0.75 0
v 1 0.75 0
v -16 -4 0
v -16 0.75 0
v -16 5.5 0
v -7.5 5.5 0
v 1 5.5 0
v -24.5 -4 0
v -24.5 0.75 0
v -33 -4 0
v -33 0.75 0
v -33 5.5 0
v -24.5 5.5 0
v -24.5 10.25 0
v -16 10.25 0
v -33 10.25 0
v -33 15 0
v -24.5 15 0
v -16 15 0
v -7.5 10.25 0
v 1 10.25 0
v -7.5 15 0
v 1 15 0
v -33 0.75 0
v -33 -4 0
v -33 -4 -1
v -33 5.5 0
v -33 15 -1
v -33 10.25 0
v -33 15 0
v 1 15 -1
v 1 10.25 0
v 1 15 0
v 1 5.5 0
v 1 -4 -1
v 1 0.75 0
v 1 -4 0
v -33 15 0
v -33 15 -1
v -24.5 15 0
v -16 15 0
v 1 15 -1
v -7.5 15 0
v 1 15 0
v -7.5 -4 0
v 1 -4 0
v 1 -4 -1
v -16 -4 0
v -33 -4 -1
v -24.5 -4 0
v -33 -4 0
vt 18.125 4.3125
vt 13.875 4.3125
vt 18.125 6.6875
vt 13.875 6.6875
vt -13.875 4.3125
vt -14.9375 4.3125
vt -14.9375 4.90625
vt -13.875 4.90625
vt -16 4.3125
vt -16 4.90625
vt -16 5.5
vt -14.9375 5.5
vt -13.875 5.5
vt -17.0625 4.3125
vt -17.0625 4.90625
vt -18.125 4.3125
vt -18.125 4.90625
vt -18.125 5.5
vt -17.0625 5.5
vt -17.0625 6.09375
vt -16 6.09375
vt -18.125 6.09375
vt -18.125 6.6875
vt -17.0625 6.6875
vt -16 6.6875
vt -14.9375 6.09375
vt -13.875 6.09375
vt -14.9375 6.6875
vt -13.875 6.6875
vt 0 0.75
vt 0 -4
vt -1 -4
vt 0 5.5
vt -1 15
vt 0 10.25
vt 0 15
vt 0.5625 6.6875
vt 0.4375 6.09375
vt 0.4375 6.6875
vt 0.4375 5.5
vt 0.5625 4.3125
vt 0.4375 4.90625
vt 0.4375 4.3125
vt 33 0
vt 33 -1
vt 24.5 0
vt 16 0
vt -1 -1
vt 7.5 0
vt -1 0
vt -7.5 0
vt 1 0
vt 1 -1
vt -16 0
vt -33 -1
vt -24.5 0
vt -33 0
vn 0 0 -1
vn 0 0 -1
vn 0 0 -1
vn 0 0 -1
vn 0 0 1
vn 0 0 1
vn 0 0 1
vn 0 0 1
vn 0 0 1
vn 0 0 1
vn 0 0 1
vn 0 0 1
vn 0 0 1
vn 0 0 1
vn 0 0 1
vn 0 0 1
vn 0 0 1
vn 0 0 1
vn 0 0 1
vn 0 0 1
vn 0 0 1
vn 0 0 1
vn 0 0 1
vn 0 0 1
vn 0 0 1
vn 0 0 1
vn 0 0 1
vn 0 0 1
vn 0 0 1
vn -1 0 0
vn -1 0 0
vn -1 0 0
vn -1 0 0
vn -1 0 0
vn -1 0 0
vn -1 0 0
vn 1 0 0
vn 1 0 0
vn 1 0 0
vn 1 0 0
vn 1 0 0
vn 1 0 0
vn 1 0 0
vn 0 1 0
vn 0 1 0
vn 0 1 0
vn 0 1 0
vn 0 1 0
vn 0 1 0
vn 0 1 0
vn 0 -1 0
vn 0 -1 0
vn 0 -1 0
vn 0 -1 0
vn 0 -1 0
vn 0 -1 0
vn 0 -1 0
g pb_Mesh59348_0
f 3/3/3 2/2/2 1/1/1
f 3/3/3 4/4/4 2/2/2
f 7/7/7 6/6/6 5/5/5
f 7/7/7 5/5/5 8/8/8
f 10/10/10 9/9/9 6/6/6
f 10/10/10 6/6/6 7/7/7
f 11/11/11 10/10/10 7/7/7
f 11/11/11 7/7/7 12/12/12
f 12/12/12 7/7/7 8/8/8
f 12/12/12 8/8/8 13/13/13
f 15/15/15 14/14/14 9/9/9
f 15/15/15 9/9/9 10/10/10
f 17/17/17 16/16/16 14/14/14
f 17/17/17 14/14/14 15/15/15
f 18/18/18 17/17/17 15/15/15
f 18/18/18 15/15/15 19/19/19
f 19/19/19 15/15/15 10/10/10
f 19/19/19 10/10/10 11/11/11
f 20/20/20 19/19/19 11/11/11
f 20/20/20 11/11/11 21/21/21
f 22/22/22 18/18/18 19/19/19
f 22/22/22 19/19/19 20/20/20
f 23/23/23 22/22/22 20/20/20
f 23/23/23 20/20/20 24/24/24
f 24/24/24 20/20/20 21/21/21
f 24/24/24 21/21/21 25/25/25
f 26/26/26 12/12/12 13/13/13
f 26/26/26 13/13/13 27/27/27
f 21/21/21 11/11/11 12/12/12
f 21/21/21 12/12/12 26/26/26
f 25/25/25 21/21/21 26/26/26
f 25/25/25 26/26/26 28/28/28
f 28/28/28 26/26/26 27/27/27
f 28/28/28 27/27/27 29/29/29
f 32/32/32 31/31/31 30/30/30
f 32/32/32 30/30/30 33/33/33
f 34/34/34 32/32/32 33/33/33
f 35/35/35 34/34/34 33/33/33
f 34/34/34 35/35/35 36/36/36
f 39/39/39 38/38/38 37/37/37
f 40/40/40 37/37/37 38/38/38
f 40/40/40 41/41/41 37/37/37
f 40/40/40 42/42/42 41/41/41
f 42/42/42 43/43/43 41/41/41
g pb_Mesh59348_1
f 46/46/46 45/45/45 44/44/44
f 46/46/46 47/47/47 45/45/45
f 45/45/45 47/47/47 48/48/48
f 48/48/48 47/47/47 49/49/49
f 49/49/49 50/50/50 48/48/48
f 53/53/53 52/52/52 51/51/51
f 51/51/51 54/54/54 53/53/53
f 53/53/53 54/54/54 55/55/55
f 55/55/55 54/54/54 56/56/56
f 57/57/57 55/55/55 56/56/56
