g pb_Mesh1138442
v 2.75 1.875 -19
v 6.5 0 -19
v 6.5 1.875 -19
v 2.75 0 -19
v 2.75 3.75 -19
v 6.5 3.75 -19
v 10.25 1.875 -19
v 14 0 -19
v 14 1.875 -19
v 10.25 0 -19
v 10.25 3.75 -19
v 14 3.75 -19
v 10.25 5.625 -19
v 14 5.625 -19
v 10.25 7.5 -19
v 14 7.5 -19
v 6.5 7.5 -19
v 6.5 5.625 -19
v 2.75 5.625 -19
v 2.75 7.5 -19
v 14 7.5 -8
v 14 7.5 -19
v 14 5.625 -19
v 14 3.75 -19
v 14 0 -8
v 14 1.875 -19
v 14 0 -19
v -1 3.75 -8
v -1 0 -8
v -1 0 -13.5
v -1 3.75 -15.85714
v -1 0 -19
v -1 0.9375 -19
v -1 1.875 -19
v -1 2.8125 -19
v -1 3.75 -19
v -1 4.6875 -19
v -1 5.625 -19
v -1 6.5625 -19
v -1 7.5 -13.5
v -1 7.5 -19
v -1 7.5 -8
v -1 3.75 -19
v -1 2.8125 -19
v -1 1.875 -19
v -1 0.9375 -19
v -1 0 -19
v -1 7.5 -19
v -1 6.5625 -19
v -1 5.625 -19
v -1 4.6875 -19
v -1 7.5 -13.5
v -1 7.5 -19
v 2.75 7.5 -19
v 6.5 7.5 -19
v 10.25 7.5 -19
v 14 7.5 -19
v 14 7.5 -8
v -1 7.5 -8
vt 6.03125 3.335625
vt 6.5 3.10125
vt 6.5 3.335625
vt 6.03125 3.10125
vt 6.03125 3.57
vt 6.5 3.57
vt 6.96875 3.335625
vt 7.4375 3.10125
vt 7.4375 3.335625
vt 6.96875 3.10125
vt 6.96875 3.57
vt 7.4375 3.57
vt 6.96875 3.804375
vt 7.4375 3.804375
vt 6.96875 4.03875
vt 7.4375 4.03875
vt 6.5 4.03875
vt 6.5 3.804375
vt 6.03125 3.804375
vt 6.03125 4.03875
vt 12.8125 4.03875
vt 14.1875 4.03875
vt 14.1875 3.804375
vt 14.1875 3.57
vt 12.8125 3.10125
vt 14.1875 3.335625
vt 14.1875 3.10125
vt -12.8125 3.601503
vt -12.8125 3.142366
vt -13.5 3.142366
vt -13.79464 3.601503
vt -14.1875 3.142366
vt -14.1875 3.257151
vt -14.1875 3.371935
vt -14.1875 3.486719
vt -14.1875 3.601503
vt -14.1875 3.716288
vt -14.1875 3.831072
vt -14.1875 3.945856
vt -13.5 4.06064
vt -14.1875 4.06064
vt -12.8125 4.06064
vt 5.5625 3.57
vt 5.5625 3.452812
vt 5.5625 3.335625
vt 5.5625 3.218437
vt 5.5625 3.10125
vt 5.5625 4.03875
vt 5.5625 3.921562
vt 5.5625 3.804375
vt 5.5625 3.687187
vt -5.5625 -13.5
vt -5.5625 -14.1875
vt -6.03125 -14.1875
vt -6.5 -14.1875
vt -6.96875 -14.1875
vt -7.4375 -14.1875
vt -7.4375 -12.8125
vt -5.5625 -12.8125
vn 0 0 -1
vn 0 0 -1
vn 0 0 -1
vn 0 0 -1
vn 0 0 -1
vn 0 0 -1
vn 0 0 -1
vn 0 0 -1
vn 0 0 -1
vn 0 0 -1
vn 0 0 -1
vn 0 0 -1
vn 0 0 -1
vn 0 0 -1
vn 0 0 -1
vn 0 0 -1
vn 0 0 -1
vn 0 0 -1
vn 0 0 -1
vn 0 0 -1
vn 1 0 0
vn 0.9999999 0 0
vn 0.9999999 0 0
vn 1 0 0
vn 1 0 0
vn 0.9999999 0 0
vn 0.9999999 0 0
vn -1 0 0
vn -0.9999999 0 0
vn -1 0 0
vn -1 0 0
vn -0.9999999 0 0
vn -1 0 0
vn -1 0 0
vn -1 0 0
vn -1 0 0
vn -1 0 0
vn -1 0 0
vn -1 0 0
vn -1 0 0
vn -0.9999999 0 0
vn -0.9999999 0 0
vn 0 0 -1
vn 0 0 -1
vn 0 0 -1
vn 0 0 -1
vn 0 0 -1
vn 0 0 -1
vn 0 0 -1
vn 0 0 -1
vn 0 0 -1
vn 0 1 0
vn 0 0.9999999 0
vn 0 0.9999999 0
vn 0 0.9999999 0
vn 0 0.9999999 0
vn 0 0.9999999 0
vn 0 1 0
vn 0 0.9999999 0
g pb_Mesh1138442_0
f 3/3/3 2/2/2 1/1/1
f 2/2/2 4/4/4 1/1/1
f 6/6/6 3/3/3 5/5/5
f 3/3/3 1/1/1 5/5/5
f 9/9/9 8/8/8 7/7/7
f 8/8/8 10/10/10 7/7/7
f 12/12/12 9/9/9 11/11/11
f 9/9/9 7/7/7 11/11/11
f 11/11/11 7/7/7 6/6/6
f 7/7/7 3/3/3 6/6/6
f 7/7/7 10/10/10 3/3/3
f 10/10/10 2/2/2 3/3/3
f 14/14/14 12/12/12 13/13/13
f 12/12/12 11/11/11 13/13/13
f 16/16/16 14/14/14 15/15/15
f 14/14/14 13/13/13 15/15/15
f 15/15/15 13/13/13 17/17/17
f 13/13/13 18/18/18 17/17/17
f 13/13/13 11/11/11 18/18/18
f 11/11/11 6/6/6 18/18/18
f 18/18/18 6/6/6 19/19/19
f 6/6/6 5/5/5 19/19/19
f 17/17/17 18/18/18 20/20/20
f 18/18/18 19/19/19 20/20/20
f 23/23/23 22/22/22 21/21/21
f 24/24/24 23/23/23 21/21/21
f 24/24/24 21/21/21 25/25/25
f 25/25/25 26/26/26 24/24/24
f 25/25/25 27/27/27 26/26/26
f 30/30/30 29/29/29 28/28/28
f 31/31/31 30/30/30 28/28/28
f 33/33/33 32/32/32 30/30/30
f 31/31/31 33/33/33 30/30/30
f 31/31/31 34/34/34 33/33/33
f 31/31/31 35/35/35 34/34/34
f 31/31/31 36/36/36 35/35/35
f 37/37/37 36/36/36 31/31/31
f 38/38/38 37/37/37 31/31/31
f 39/39/39 38/38/38 31/31/31
f 40/40/40 39/39/39 31/31/31
f 40/40/40 41/41/41 39/39/39
f 40/40/40 28/28/28 42/42/42
f 40/40/40 31/31/31 28/28/28
f 44/44/44 43/43/43 5/5/5
f 1/1/1 44/44/44 5/5/5
f 1/1/1 45/45/45 44/44/44
f 46/46/46 45/45/45 1/1/1
f 4/4/4 46/46/46 1/1/1
f 4/4/4 47/47/47 46/46/46
f 49/49/49 48/48/48 20/20/20
f 19/19/19 49/49/49 20/20/20
f 19/19/19 50/50/50 49/49/49
f 51/51/51 50/50/50 19/19/19
f 5/5/5 51/51/51 19/19/19
f 5/5/5 43/43/43 51/51/51
g pb_Mesh1138442_1
f 54/54/54 53/53/53 52/52/52
f 55/55/55 54/54/54 52/52/52
f 58/58/58 57/57/57 56/56/56
f 58/58/58 56/56/56 55/55/55
f 52/52/52 58/58/58 55/55/55
f 52/52/52 59/59/59 58/58/58
