g pb_Mesh177828
v -5 5 0
v -10 0 0
v 0 0 0
v -5 5 0
v -10 0 6
v -10 0 0
v -5 5 6
v -5 5 6
v 0 0 6
v -10 0 6
v -5 5 6
v 0 0 0
v 0 0 6
v -5 5 0
v 0 0 0
v -10 0 0
v 0 0 6
v -10 0 6
vt 5 5
vt 10 0
vt 0 0
vt 0 0
vt 7.071068 6
vt 7.071068 0
vt 0 6
vt -5 5
vt 0 0
vt -10 0
vt 7.071068 6
vt 0 0
vt 0 6
vt 7.071068 0
vt 0 0
vt -10 0
vt 0 6
vt -10 6
vn 0 0 -1
vn 0 0 -1
vn 0 0 -1
vn -0.7071068 0.7071068 0
vn -0.7071068 0.7071068 0
vn -0.7071068 0.7071068 0
vn -0.7071068 0.7071068 0
vn 0 0 1
vn 0 0 1
vn 0 0 1
vn 0.7071068 0.7071068 0
vn 0.7071068 0.7071068 0
vn 0.7071068 0.7071068 0
vn 0.7071068 0.7071068 0
vn 0 -1 0
vn 0 -1 0
vn 0 -1 0
vn 0 -1 0
g pb_Mesh177828_0
f 3/3/3 2/2/2 1/1/1
f 6/6/6 5/5/5 4/4/4
f 5/5/5 7/7/7 4/4/4
f 10/10/10 9/9/9 8/8/8
f 13/13/13 12/12/12 11/11/11
f 12/12/12 14/14/14 11/11/11
f 17/17/17 16/16/16 15/15/15
f 17/17/17 18/18/18 16/16/16
