g pb_Mesh223958
v -14.14214 -0.5 14.14214
v -20 -0.5 0
v -14.14214 0 14.14214
v -20 0 0
v -15 -0.5 0
v -10.6066 -0.5 10.6066
v -15 0 0
v -10.6066 0 10.6066
v 9.536743E-07 -0.5 20
v -14.14214 -0.5 14.14214
v 9.536743E-07 0 20
v -14.14214 0 14.14214
v -10.6066 -0.5 10.6066
v 9.536743E-07 -0.5 15
v -10.6066 0 10.6066
v 9.536743E-07 0 15
v 14.14214 -0.5 14.14214
v 9.536743E-07 -0.5 20
v 14.14214 0 14.14214
v 9.536743E-07 0 20
v 9.536743E-07 -0.5 15
v 10.6066 -0.5 10.6066
v 9.536743E-07 0 15
v 10.6066 0 10.6066
v 20 -0.5 -1.907349E-06
v 14.14214 -0.5 14.14214
v 20 0 -1.907349E-06
v 14.14214 0 14.14214
v 10.6066 -0.5 10.6066
v 15 -0.5 -9.536743E-07
v 10.6066 0 10.6066
v 15 0 -9.536743E-07
v 14.14214 -0.5 -14.14213
v 20 -0.5 -1.907349E-06
v 14.14214 0 -14.14213
v 20 0 -1.907349E-06
v 15 -0.5 -9.536743E-07
v 10.6066 -0.5 -10.6066
v 15 0 -9.536743E-07
v 10.6066 0 -10.6066
v 0 -0.5 -20
v 14.14214 -0.5 -14.14213
v 0 0 -20
v 14.14214 0 -14.14213
v 10.6066 -0.5 -10.6066
v 0 -0.5 -15
v 10.6066 0 -10.6066
v 0 0 -15
v -14.14213 -0.5 -14.14214
v 0 -0.5 -20
v -14.14213 0 -14.14214
v 0 0 -20
v 0 -0.5 -15
v -10.6066 -0.5 -10.6066
v 0 0 -15
v -10.6066 0 -10.6066
v -20 -0.5 0
v -14.14213 -0.5 -14.14214
v -20 0 0
v -14.14213 0 -14.14214
v -10.6066 -0.5 -10.6066
v -15 -0.5 0
v -10.6066 0 -10.6066
v -15 0 0
v -14.14214 0 14.14214
v -20 0 0
v -14.14214 0.5 14.14214
v -20 0.5 0
v -15 0 0
v -10.6066 0 10.6066
v -15 0.5 0
v -10.6066 0.5 10.6066
v 9.536743E-07 0 20
v -14.14214 0 14.14214
v 9.536743E-07 0.5 20
v -14.14214 0.5 14.14214
v -10.6066 0 10.6066
v 9.536743E-07 0 15
v -10.6066 0.5 10.6066
v 9.536743E-07 0.5 15
v 14.14214 0 14.14214
v 9.536743E-07 0 20
v 14.14214 0.5 14.14214
v 9.536743E-07 0.5 20
v 9.536743E-07 0 15
v 10.6066 0 10.6066
v 9.536743E-07 0.5 15
v 10.6066 0.5 10.6066
v 20 0 -1.907349E-06
v 14.14214 0 14.14214
v 20 0.5 -1.907349E-06
v 14.14214 0.5 14.14214
v 10.6066 0 10.6066
v 15 0 -9.536743E-07
v 10.6066 0.5 10.6066
v 15 0.5 -9.536743E-07
v 14.14214 0 -14.14213
v 20 0 -1.907349E-06
v 14.14214 0.5 -14.14213
v 20 0.5 -1.907349E-06
v 15 0 -9.536743E-07
v 10.6066 0 -10.6066
v 15 0.5 -9.536743E-07
v 10.6066 0.5 -10.6066
v 0 0 -20
v 14.14214 0 -14.14213
v 0 0.5 -20
v 14.14214 0.5 -14.14213
v 10.6066 0 -10.6066
v 0 0 -15
v 10.6066 0.5 -10.6066
v 0 0.5 -15
v -14.14213 0 -14.14214
v 0 0 -20
v -14.14213 0.5 -14.14214
v 0 0.5 -20
v 0 0 -15
v -10.6066 0 -10.6066
v 0 0.5 -15
v -10.6066 0.5 -10.6066
v -20 0 0
v -14.14213 0 -14.14214
v -20 0.5 0
v -14.14213 0.5 -14.14214
v -10.6066 0 -10.6066
v -15 0 0
v -10.6066 0.5 -10.6066
v -15 0.5 0
v -20 -0.5 0
v -14.14214 -0.5 14.14214
v -15 -0.5 0
v -10.6066 -0.5 10.6066
v -14.14214 0.5 14.14214
v -20 0.5 0
v -10.6066 0.5 10.6066
v -15 0.5 0
v -14.14214 -0.5 14.14214
v 9.536743E-07 -0.5 20
v -10.6066 -0.5 10.6066
v 9.536743E-07 -0.5 15
v 9.536743E-07 0.5 20
v -14.14214 0.5 14.14214
v 9.536743E-07 0.5 15
v -10.6066 0.5 10.6066
v 9.536743E-07 -0.5 20
v 14.14214 -0.5 14.14214
v 9.536743E-07 -0.5 15
v 10.6066 -0.5 10.6066
v 14.14214 0.5 14.14214
v 9.536743E-07 0.5 20
v 10.6066 0.5 10.6066
v 9.536743E-07 0.5 15
v 14.14214 -0.5 14.14214
v 20 -0.5 -1.907349E-06
v 10.6066 -0.5 10.6066
v 15 -0.5 -9.536743E-07
v 20 0.5 -1.907349E-06
v 14.14214 0.5 14.14214
v 15 0.5 -9.536743E-07
v 10.6066 0.5 10.6066
v 20 -0.5 -1.907349E-06
v 14.14214 -0.5 -14.14213
v 15 -0.5 -9.536743E-07
v 10.6066 -0.5 -10.6066
v 14.14214 0.5 -14.14213
v 20 0.5 -1.907349E-06
v 10.6066 0.5 -10.6066
v 15 0.5 -9.536743E-07
v 14.14214 -0.5 -14.14213
v 0 -0.5 -20
v 10.6066 -0.5 -10.6066
v 0 -0.5 -15
v 0 0.5 -20
v 14.14214 0.5 -14.14213
v 0 0.5 -15
v 10.6066 0.5 -10.6066
v 0 -0.5 -20
v -14.14213 -0.5 -14.14214
v 0 -0.5 -15
v -10.6066 -0.5 -10.6066
v -14.14213 0.5 -14.14214
v 0 0.5 -20
v -10.6066 0.5 -10.6066
v 0 0.5 -15
v -14.14213 -0.5 -14.14214
v -20 -0.5 0
v -10.6066 -0.5 -10.6066
v -15 -0.5 0
v -20 0.5 0
v -14.14213 0.5 -14.14214
v -15 0.5 0
v -10.6066 0.5 -10.6066
vt -31 31
vt -44 31
vt -31 31.5
vt -44 31.5
vt -31 26.5
vt -44 26.5
vt -31 27
vt -44 27
vt -31 31.5
vt -44 31.5
vt -31 32
vt -44 32
vt -31 26
vt -44 26
vt -31 26.5
vt -44 26.5
vt -31 32
vt -44 32
vt -31 32.5
vt -44 32.5
vt -31 25.5
vt -44 25.5
vt -31 26
vt -44 26
vt -31 32.5
vt -44 32.5
vt -31 33
vt -44 33
vt -31 25
vt -44 25
vt -31 25.5
vt -44 25.5
vt -31 33
vt -44 33
vt -31 33.5
vt -44 33.5
vt -31 28.5
vt -44 28.5
vt -31 29
vt -44 29
vt -31 33.5
vt -44 33.5
vt -31 34
vt -44 34
vt -31 28
vt -44 28
vt -31 28.5
vt -44 28.5
vt -31 30
vt -44 30
vt -31 30.5
vt -44 30.5
vt -31 27.5
vt -44 27.5
vt -31 28
vt -44 28
vt -31 30.5
vt -44 30.5
vt -31 31
vt -44 31
vt -31 27
vt -44 27
vt -31 27.5
vt -44 27.5
vt 15.5 54
vt 8.999998 54
vt 15.5 54.5
vt 8.999998 54.5
vt 12.95962 44.15447
vt 9.951384 44.15447
vt 12.95962 44.65447
vt 9.951384 44.65447
vt 15.5 54.5
vt 9.000001 54.5
vt 15.5 55
vt 9.000001 55
vt 12.95962 47.65447
vt 9.95138 47.65447
vt 12.95962 48.15447
vt 9.95138 48.15447
vt 15.5 51
vt 8.999999 51
vt 15.5 51.5
vt 8.999999 51.5
vt 12.95962 47.15447
vt 9.95138 47.15447
vt 12.95962 47.65447
vt 9.95138 47.65447
vt 15.5 51.5
vt 9 51.5
vt 15.5 52
vt 9 52
vt 12.95962 46.65447
vt 9.95138 46.65447
vt 12.95962 47.15447
vt 9.95138 47.15447
vt 15.5 52
vt 9 52
vt 15.5 52.5
vt 9 52.5
vt 12.95962 46.15447
vt 9.95138 46.15447
vt 12.95962 46.65447
vt 9.95138 46.65447
vt 15.5 52.5
vt 9.000002 52.5
vt 15.5 53
vt 9.000002 53
vt 12.95962 45.65447
vt 9.95138 45.65447
vt 12.95962 46.15447
vt 9.95138 46.15447
vt 15.5 53
vt 8.999998 53
vt 15.5 53.5
vt 8.999998 53.5
vt 12.95962 45.15447
vt 9.95138 45.15447
vt 12.95962 45.65447
vt 9.95138 45.65447
vt 15.5 53.5
vt 8.999998 53.5
vt 15.5 54
vt 8.999998 54
vt 12.95962 44.65447
vt 9.95138 44.65447
vt 12.95962 45.15447
vt 9.95138 45.15447
vt -15.59684 6.629126
vt -15.23073 7.51301
vt -15.28434 6.629126
vt -15.00976 7.292039
vt 15.23073 7.51301
vt 15.59684 6.629126
vt 15.00976 7.292039
vt 15.28434 6.629126
vt -7.513009 15.23073
vt -6.629126 15.59684
vt -7.292038 15.00976
vt -6.629126 15.28434
vt 6.629126 15.59684
vt 7.513009 15.23073
vt 6.629126 15.28434
vt 7.292038 15.00976
vt 6.629127 15.59684
vt 7.51301 15.23073
vt 6.629127 15.28434
vt 7.292039 15.00976
vt -7.51301 15.23073
vt -6.629127 15.59684
vt -7.292039 15.00976
vt -6.629127 15.28434
vt 15.23073 7.513009
vt 15.59684 6.629125
vt 15.00976 7.292038
vt 15.28434 6.629125
vt -15.59684 6.629125
vt -15.23073 7.513009
vt -15.28434 6.629125
vt -15.00976 7.292038
vt 15.59684 -6.629126
vt 15.23073 -7.513009
vt 15.28434 -6.629126
vt 15.00976 -7.292038
vt -15.23073 -7.513009
vt -15.59684 -6.629126
vt -15.00976 -7.292038
vt -15.28434 -6.629126
vt 7.51301 -15.23073
vt 6.629126 -15.59684
vt 7.292039 -15.00976
vt 6.629126 -15.28434
vt -6.629126 -15.59684
vt -7.51301 -15.23073
vt -6.629126 -15.28434
vt -7.292039 -15.00976
vt -6.629125 -15.59685
vt -7.513008 -15.23073
vt -6.629125 -15.28435
vt -7.292037 -15.00976
vt 7.513008 -15.23073
vt 6.629125 -15.59685
vt 7.292037 -15.00976
vt 6.629125 -15.28435
vt -15.23073 -7.513011
vt -15.59684 -6.629127
vt -15.00976 -7.29204
vt -15.28434 -6.629127
vt 15.59684 -6.629127
vt 15.23073 -7.513011
vt 15.28434 -6.629127
vt 15.00976 -7.29204
vn -0.9238794 0 0.3826834
vn -0.9238794 0 0.3826834
vn -0.9238794 0 0.3826834
vn -0.9238794 0 0.3826834
vn 0.9238795 0 -0.3826834
vn 0.9238795 0 -0.3826834
vn 0.9238795 0 -0.3826834
vn 0.9238795 0 -0.3826834
vn -0.3826834 0 0.9238795
vn -0.3826834 0 0.9238795
vn -0.3826834 0 0.9238795
vn -0.3826834 0 0.9238795
vn 0.3826834 0 -0.9238795
vn 0.3826834 0 -0.9238795
vn 0.3826834 0 -0.9238795
vn 0.3826834 0 -0.9238795
vn 0.3826835 0 0.9238795
vn 0.3826835 0 0.9238795
vn 0.3826835 0 0.9238795
vn 0.3826835 0 0.9238795
vn -0.3826835 0 -0.9238795
vn -0.3826835 0 -0.9238795
vn -0.3826835 0 -0.9238795
vn -0.3826835 0 -0.9238795
vn 0.9238795 0 0.3826834
vn 0.9238795 0 0.3826834
vn 0.9238795 0 0.3826834
vn 0.9238795 0 0.3826834
vn -0.9238795 0 -0.3826834
vn -0.9238795 0 -0.3826834
vn -0.9238795 0 -0.3826834
vn -0.9238795 0 -0.3826834
vn 0.9238795 0 -0.3826835
vn 0.9238795 0 -0.3826835
vn 0.9238795 0 -0.3826835
vn 0.9238795 0 -0.3826835
vn -0.9238795 0 0.3826835
vn -0.9238795 0 0.3826835
vn -0.9238795 0 0.3826835
vn -0.9238795 0 0.3826835
vn 0.3826835 0 -0.9238794
vn 0.3826835 0 -0.9238794
vn 0.3826835 0 -0.9238794
vn 0.3826835 0 -0.9238794
vn -0.3826834 0 0.9238795
vn -0.3826834 0 0.9238795
vn -0.3826834 0 0.9238795
vn -0.3826834 0 0.9238795
vn -0.3826834 0 -0.9238796
vn -0.3826834 0 -0.9238796
vn -0.3826834 0 -0.9238796
vn -0.3826834 0 -0.9238796
vn 0.3826833 0 0.9238796
vn 0.3826833 0 0.9238796
vn 0.3826833 0 0.9238796
vn 0.3826833 0 0.9238796
vn -0.9238795 0 -0.3826835
vn -0.9238795 0 -0.3826835
vn -0.9238795 0 -0.3826835
vn -0.9238795 0 -0.3826835
vn 0.9238795 0 0.3826835
vn 0.9238795 0 0.3826835
vn 0.9238795 0 0.3826835
vn 0.9238795 0 0.3826835
vn -0.9238794 0 0.3826834
vn -0.9238794 0 0.3826834
vn -0.9238794 0 0.3826834
vn -0.9238794 0 0.3826834
vn 0.9238795 0 -0.3826834
vn 0.9238795 0 -0.3826834
vn 0.9238795 0 -0.3826834
vn 0.9238795 0 -0.3826834
vn -0.3826834 0 0.9238795
vn -0.3826834 0 0.9238795
vn -0.3826834 0 0.9238795
vn -0.3826834 0 0.9238795
vn 0.3826834 0 -0.9238795
vn 0.3826834 0 -0.9238795
vn 0.3826834 0 -0.9238795
vn 0.3826834 0 -0.9238795
vn 0.3826835 0 0.9238795
vn 0.3826835 0 0.9238795
vn 0.3826835 0 0.9238795
vn 0.3826835 0 0.9238795
vn -0.3826835 0 -0.9238795
vn -0.3826835 0 -0.9238795
vn -0.3826835 0 -0.9238795
vn -0.3826835 0 -0.9238795
vn 0.9238795 0 0.3826834
vn 0.9238795 0 0.3826834
vn 0.9238795 0 0.3826834
vn 0.9238795 0 0.3826834
vn -0.9238795 0 -0.3826834
vn -0.9238795 0 -0.3826834
vn -0.9238795 0 -0.3826834
vn -0.9238795 0 -0.3826834
vn 0.9238795 0 -0.3826835
vn 0.9238795 0 -0.3826835
vn 0.9238795 0 -0.3826835
vn 0.9238795 0 -0.3826835
vn -0.9238795 0 0.3826835
vn -0.9238795 0 0.3826835
vn -0.9238795 0 0.3826835
vn -0.9238795 0 0.3826835
vn 0.3826835 0 -0.9238794
vn 0.3826835 0 -0.9238794
vn 0.3826835 0 -0.9238794
vn 0.3826835 0 -0.9238794
vn -0.3826834 0 0.9238795
vn -0.3826834 0 0.9238795
vn -0.3826834 0 0.9238795
vn -0.3826834 0 0.9238795
vn -0.3826834 0 -0.9238796
vn -0.3826834 0 -0.9238796
vn -0.3826834 0 -0.9238796
vn -0.3826834 0 -0.9238796
vn 0.3826833 0 0.9238796
vn 0.3826833 0 0.9238796
vn 0.3826833 0 0.9238796
vn 0.3826833 0 0.9238796
vn -0.9238795 0 -0.3826835
vn -0.9238795 0 -0.3826835
vn -0.9238795 0 -0.3826835
vn -0.9238795 0 -0.3826835
vn 0.9238795 0 0.3826835
vn 0.9238795 0 0.3826835
vn 0.9238795 0 0.3826835
vn 0.9238795 0 0.3826835
vn 0 -1 0
vn 0 -1 0
vn 0 -1 0
vn 0 -1 0
vn 0 1 0
vn 0 1 0
vn 0 1 0
vn 0 1 0
vn 0 -1 0
vn 0 -1 0
vn 0 -1 0
vn 0 -1 0
vn 0 1 0
vn 0 0.9999999 0
vn 0 0.9999999 0
vn 0 1 0
vn 0 -1 0
vn 0 -1 0
vn 0 -1 0
vn 0 -1 0
vn 0 1 0
vn 0 1 0
vn 0 1 0
vn 0 1 0
vn 0 -1 0
vn 0 -0.9999999 0
vn 0 -0.9999999 0
vn 0 -1 0
vn 0 1 0
vn 0 1 0
vn 0 1 0
vn 0 1 0
vn 0 -1 0
vn 0 -1 0
vn 0 -1 0
vn 0 -1 0
vn 0 1 0
vn 0 1 0
vn 0 1 0
vn 0 1 0
vn 0 -1 0
vn 0 -1 0
vn 0 -1 0
vn 0 -1 0
vn 0 1 0
vn 0 1 0
vn 0 1 0
vn 0 1 0
vn 0 -1 0
vn 0 -1 0
vn 0 -1 0
vn 0 -1 0
vn 0 1 0
vn 0 1 0
vn 0 1 0
vn 0 1 0
vn 0 -1 0
vn 0 -0.9999999 0
vn 0 -0.9999999 0
vn 0 -1 0
vn 0 1 0
vn 0 0.9999999 0
vn 0 0.9999999 0
vn 0 1 0
g pb_Mesh223958_0
f 3/3/3 2/2/2 1/1/1
f 3/3/3 4/4/4 2/2/2
f 7/7/7 6/6/6 5/5/5
f 7/7/7 8/8/8 6/6/6
f 11/11/11 10/10/10 9/9/9
f 11/11/11 12/12/12 10/10/10
f 15/15/15 14/14/14 13/13/13
f 15/15/15 16/16/16 14/14/14
f 19/19/19 18/18/18 17/17/17
f 19/19/19 20/20/20 18/18/18
f 23/23/23 22/22/22 21/21/21
f 23/23/23 24/24/24 22/22/22
f 27/27/27 26/26/26 25/25/25
f 27/27/27 28/28/28 26/26/26
f 31/31/31 30/30/30 29/29/29
f 31/31/31 32/32/32 30/30/30
f 35/35/35 34/34/34 33/33/33
f 35/35/35 36/36/36 34/34/34
f 39/39/39 38/38/38 37/37/37
f 39/39/39 40/40/40 38/38/38
f 43/43/43 42/42/42 41/41/41
f 43/43/43 44/44/44 42/42/42
f 47/47/47 46/46/46 45/45/45
f 47/47/47 48/48/48 46/46/46
f 51/51/51 50/50/50 49/49/49
f 51/51/51 52/52/52 50/50/50
f 55/55/55 54/54/54 53/53/53
f 55/55/55 56/56/56 54/54/54
f 59/59/59 58/58/58 57/57/57
f 59/59/59 60/60/60 58/58/58
f 63/63/63 62/62/62 61/61/61
f 63/63/63 64/64/64 62/62/62
g pb_Mesh223958_1
f 67/67/67 66/66/66 65/65/65
f 67/67/67 68/68/68 66/66/66
f 71/71/71 70/70/70 69/69/69
f 71/71/71 72/72/72 70/70/70
f 75/75/75 74/74/74 73/73/73
f 75/75/75 76/76/76 74/74/74
f 79/79/79 78/78/78 77/77/77
f 79/79/79 80/80/80 78/78/78
f 83/83/83 82/82/82 81/81/81
f 83/83/83 84/84/84 82/82/82
f 87/87/87 86/86/86 85/85/85
f 87/87/87 88/88/88 86/86/86
f 91/91/91 90/90/90 89/89/89
f 91/91/91 92/92/92 90/90/90
f 95/95/95 94/94/94 93/93/93
f 95/95/95 96/96/96 94/94/94
f 99/99/99 98/98/98 97/97/97
f 99/99/99 100/100/100 98/98/98
f 103/103/103 102/102/102 101/101/101
f 103/103/103 104/104/104 102/102/102
f 107/107/107 106/106/106 105/105/105
f 107/107/107 108/108/108 106/106/106
f 111/111/111 110/110/110 109/109/109
f 111/111/111 112/112/112 110/110/110
f 115/115/115 114/114/114 113/113/113
f 115/115/115 116/116/116 114/114/114
f 119/119/119 118/118/118 117/117/117
f 119/119/119 120/120/120 118/118/118
f 123/123/123 122/122/122 121/121/121
f 123/123/123 124/124/124 122/122/122
f 127/127/127 126/126/126 125/125/125
f 127/127/127 128/128/128 126/126/126
g pb_Mesh223958_2
f 131/131/131 130/130/130 129/129/129
f 131/131/131 132/132/132 130/130/130
f 135/135/135 134/134/134 133/133/133
f 135/135/135 136/136/136 134/134/134
f 139/139/139 138/138/138 137/137/137
f 139/139/139 140/140/140 138/138/138
f 143/143/143 142/142/142 141/141/141
f 143/143/143 144/144/144 142/142/142
f 147/147/147 146/146/146 145/145/145
f 147/147/147 148/148/148 146/146/146
f 151/151/151 150/150/150 149/149/149
f 151/151/151 152/152/152 150/150/150
f 155/155/155 154/154/154 153/153/153
f 155/155/155 156/156/156 154/154/154
f 159/159/159 158/158/158 157/157/157
f 159/159/159 160/160/160 158/158/158
f 163/163/163 162/162/162 161/161/161
f 163/163/163 164/164/164 162/162/162
f 167/167/167 166/166/166 165/165/165
f 167/167/167 168/168/168 166/166/166
f 171/171/171 170/170/170 169/169/169
f 171/171/171 172/172/172 170/170/170
f 175/175/175 174/174/174 173/173/173
f 175/175/175 176/176/176 174/174/174
f 179/179/179 178/178/178 177/177/177
f 179/179/179 180/180/180 178/178/178
f 183/183/183 182/182/182 181/181/181
f 183/183/183 184/184/184 182/182/182
f 187/187/187 186/186/186 185/185/185
f 187/187/187 188/188/188 186/186/186
f 191/191/191 190/190/190 189/189/189
f 191/191/191 192/192/192 190/190/190
