g pb_Mesh1142974
v 2 -1 0
v 0 -1 -1
v 0 -1 0
v 2 -1 -1
v 0 3 -1
v 2 3 -1
v 2 3 0
v 0 3 0
v 0 -1 -1
v 2 -1 -1
v 0 3 -1
v 2 3 -1
v 2 -1 -1
v 2 -1 0
v 2 3 -1
v 2 3 0
v 0 -1 0
v 0 -1 -1
v 0 3 0
v 0 3 -1
v 2 -1 0
v 0 -1 0
v 2 3 0
v 0 3 0
vt 0.9912716 -0.874159
vt 0.4834906 -1.119857
vt 0.4834906 -0.874159
vt 0.9912716 -1.119857
vt -1.008728 -1.119857
vt -1.516509 -1.119857
vt -1.516509 -0.874159
vt -1.008728 -0.874159
vt 0.4999825 0.00579524
vt 0.4999826 1.000189
vt 0.9880192 0.00579524
vt 0.9880192 1.000189
vt 0.3643264 0.01159614
vt 0.1104359 0.01159614
vt 0.3643264 0.994388
vt 0.1104359 0.994388
vt -0.6356736 0.01159614
vt -0.8895642 0.01159614
vt -0.6356736 0.994388
vt -0.8895642 0.994388
vt 0.9912716 0.01159614
vt 0.4834906 0.01159614
vt 0.9912716 0.994388
vt 0.4834906 0.994388
vn 0 -1 0
vn 0 -1 0
vn 0 -1 0
vn 0 -1 0
vn 0 1 0
vn 0 1 0
vn 0 1 0
vn 0 1 0
vn 0 0 -1
vn 0 0 -1
vn 0 0 -1
vn 0 0 -1
vn 1 0 0
vn 1 0 0
vn 1 0 0
vn 1 0 0
vn -1 0 0
vn -1 0 0
vn -1 0 0
vn -1 0 0
vn 0 0 1
vn 0 0 1
vn 0 0 1
vn 0 0 1
g pb_Mesh1142974_0
f 3/3/3 2/2/2 1/1/1
f 2/2/2 4/4/4 1/1/1
f 7/7/7 6/6/6 5/5/5
f 7/7/7 5/5/5 8/8/8
g pb_Mesh1142974_1
f 11/11/11 10/10/10 9/9/9
f 11/11/11 12/12/12 10/10/10
f 15/15/15 14/14/14 13/13/13
f 15/15/15 16/16/16 14/14/14
f 19/19/19 18/18/18 17/17/17
f 19/19/19 20/20/20 18/18/18
f 23/23/23 22/22/22 21/21/21
f 23/23/23 24/24/24 22/22/22
