g pb_Mesh215320
v -2.500003 1 -9.500001
v 0.499997 0.5 -7
v 0.499997 1 -7
v -2.500003 0.5 -9.500001
v 0.499997 0.5 -7
v -2.500003 0.5 -9.500001
v -2.500004 0.5 -4.5
v -2.500004 0.5 -4.5
v -5.500004 0.5 -7.000001
v -5.500004 1 -7.000001
v -2.500004 1 -4.5
v -5.500004 0.5 -7.000001
vt 8.002309 1
vt 4.097184 0.5
vt 4.097184 1
vt 8.002309 0.5
vt -0.499997 -7
vt 2.500003 -9.500001
vt 2.500004 -4.5
vt -4.801386 0.5
vt -8.706511 0.5
vt -8.706511 1
vt -4.801386 1
vt 5.500004 -7.000001
vn 0.6401845 0 -0.7682213
vn 0.6401845 0 -0.7682213
vn 0.6401845 0 -0.7682213
vn 0.6401845 0 -0.7682213
vn 0 -1 0
vn 0 -1 0
vn 0 -1 0
vn -0.6401844 0 0.7682212
vn -0.6401844 0 0.7682212
vn -0.6401844 0 0.7682212
vn -0.6401844 0 0.7682212
vn 0 -1 0
g pb_Mesh215320_0
f 3/3/3 2/2/2 1/1/1
f 2/2/2 4/4/4 1/1/1
f 7/7/7 6/6/6 5/5/5
f 10/10/10 9/9/9 8/8/8
f 10/10/10 8/8/8 11/11/11
f 12/12/12 6/6/6 7/7/7
