g pb_Mesh224804
v 1.000003 -2 18.50001
v -1.999997 -2 18.50001
v 1 2.5 18
v 0.5 2.5 18
v -1.999997 -2 18.50001
v -1.999998 -2 12.50001
v 0.5 2.5 18
v 0.5 2.5 13
v -1.999998 -2 12.50001
v 1.000003 -2 12.50001
v 0.5 2.5 13
v 1 2.5 13
v 1.000003 -2 12.50001
v 1.000003 -2 18.50001
v 1 2.5 13
v 1 2.5 18
vt -2.500007 -2.500015
vt -3.250007 -2.500015
vt -2.500008 -1.250015
vt -2.625008 -1.250015
vt 15.5 -6.499999
vt 15 -6.499998
vt 15.5 -6
vt 15 -6
vt -1.25 -2.500015
vt -2 -2.500015
vt -1.874999 -1.250015
vt -1.999999 -1.250015
vt -15.12501 -0.03125072
vt -15.87501 -0.03125072
vt -15.1875 0.5312493
vt -15.8125 0.5312493
vn 6.318941E-07 0.1104328 0.9938836
vn 5.416235E-07 0.1104328 0.9938836
vn 5.416235E-07 0.1104328 0.9938836
vn 0 0.1104332 0.9938836
vn -0.8741575 0.4856425 1.042077E-07
vn -0.8741575 0.4856426 5.684056E-08
vn -0.8741575 0.4856426 5.684056E-08
vn -0.8741575 0.4856426 0
vn 0 0.1104303 -0.9938839
vn 0 0.1104303 -0.9938838
vn 0 0.1104303 -0.9938838
vn 0 0.1104303 -0.9938839
vn 1 6.225372E-07 -1.192093E-07
vn 1 6.887647E-07 -6.502325E-08
vn 1 6.887647E-07 -6.502325E-08
vn 1 7.682377E-07 0
g pb_Mesh224804_0
f 3/3/3 2/2/2 1/1/1
f 3/3/3 4/4/4 2/2/2
f 7/7/7 6/6/6 5/5/5
f 7/7/7 8/8/8 6/6/6
f 11/11/11 10/10/10 9/9/9
f 11/11/11 12/12/12 10/10/10
g pb_Mesh224804_1
f 15/15/15 14/14/14 13/13/13
f 15/15/15 16/16/16 14/14/14
