g pb_Mesh407530
v 28 0 2
v 26 0 0
v 16 0 2
v 16 0 0
v 28 0 -36
v 26 0 -34
v -12 0 -36
v -10 0 -34
v -10 0 0
v -12 0 2
v 0 0 2
v 0 0 0
v -10 1 0
v 0 1 0
v 0 1 2
v -12 1 2
v -12 1 -36
v -10 1 -34
v 26 1 -34
v 28 1 -36
v 26 1 0
v 28 1 2
v 16 1 2
v 16 1 0
v -10 0 0
v 0 0 0
v -10 1 0
v 0 1 0
v 0 0 0
v 0 0 2
v 0 1 0
v 0 1 2
v 0 0 2
v -12 0 2
v 0 1 2
v -12 1 2
v -12 0 2
v -12 0 -36
v -12 1 2
v -12 1 -36
v -10 0 -34
v -10 0 0
v -10 1 -34
v -10 1 0
v 26 0 -34
v -10 0 -34
v 26 1 -34
v -10 1 -34
v -12 0 -36
v 28 0 -36
v -12 1 -36
v 28 1 -36
v 26 0 0
v 26 0 -34
v 26 1 0
v 26 1 -34
v 28 0 -36
v 28 0 2
v 28 1 -36
v 28 1 2
v 16 0 2
v 16 0 0
v 16 1 2
v 16 1 0
v 16 0 0
v 26 0 0
v 16 1 0
v 26 1 0
v 28 0 2
v 16 0 2
v 28 1 2
v 16 1 2
vt 10.5 -14.625
vt 10.25 -14.875
vt 9 -14.625
vt 9 -14.875
vt 10.5 -19.375
vt 10.25 -19.125
vt 5.5 -19.375
vt 5.75 -19.125
vt 5.75 -14.875
vt 5.5 -14.625
vt 7 -14.625
vt 7 -14.875
vt -5.75 -14.875
vt -7 -14.875
vt -7 -14.625
vt -5.5 -14.625
vt -5.5 -19.375
vt -5.75 -19.125
vt -10.25 -19.125
vt -10.5 -19.375
vt -10.25 -14.875
vt -10.5 -14.625
vt -9 -14.625
vt -9 -14.875
vt 5.625 0.4375
vt 4.375 0.4375
vt 5.625 0.5625
vt 4.375 0.5625
vt -0.875 0.4375
vt -1.125 0.4375
vt -0.875 0.5625
vt -1.125 0.5625
vt -5.25 0.4375
vt -6.75 0.4375
vt -5.25 0.5625
vt -6.75 0.5625
vt -14.625 0.4375
vt -19.375 0.4375
vt -14.625 0.5625
vt -19.375 0.5625
vt 19.125 0.4375
vt 14.875 0.4375
vt 19.125 0.5625
vt 14.875 0.5625
vt 10.25 0.4375
vt 5.75 0.4375
vt 10.25 0.5625
vt 5.75 0.5625
vt -5.5 0.4375
vt -10.5 0.4375
vt -5.5 0.5625
vt -10.5 0.5625
vt -14.875 0.4375
vt -19.125 0.4375
vt -14.875 0.5625
vt -19.125 0.5625
vt 19.375 0.4375
vt 14.625 0.4375
vt 19.375 0.5625
vt 14.625 0.5625
vt 1.125 0.4375
vt 0.875 0.4375
vt 1.125 0.5625
vt 0.875 0.5625
vt -20.375 0.4375
vt -21.625 0.4375
vt -20.375 0.5625
vt -21.625 0.5625
vt 22.75 0.4375
vt 21.25 0.4375
vt 22.75 0.5625
vt 21.25 0.5625
vn 0 -1 0
vn 0 -0.9999999 0
vn 0 -1 0
vn 0 -1 0
vn 0 -1 0
vn 0 -0.9999999 0
vn 0 -1 0
vn 0 -1 0
vn 0 -0.9999999 0
vn 0 -1 0
vn 0 -1 0
vn 0 -1 0
vn 0 0.9999999 0
vn 0 1 0
vn 0 1 0
vn 0 1 0
vn 0 1 0
vn 0 1 0
vn 0 0.9999999 0
vn 0 1 0
vn 0 0.9999999 0
vn 0 1 0
vn 0 1 0
vn 0 1 0
vn 0 0 -1
vn 0 0 -1
vn 0 0 -1
vn 0 0 -1
vn 1 0 0
vn 1 0 0
vn 1 0 0
vn 1 0 0
vn 0 0 1
vn 0 0 1
vn 0 0 1
vn 0 0 1
vn -1 0 0
vn -1 0 0
vn -1 0 0
vn -1 0 0
vn 1 0 0
vn 1 0 0
vn 1 0 0
vn 1 0 0
vn 0 0 1
vn 0 0 1
vn 0 0 1
vn 0 0 1
vn 0 0 -1
vn 0 0 -1
vn 0 0 -1
vn 0 0 -1
vn -1 0 0
vn -1 0 0
vn -1 0 0
vn -1 0 0
vn 1 0 0
vn 1 0 0
vn 1 0 0
vn 1 0 0
vn -1 0 0
vn -1 0 0
vn -1 0 0
vn -1 0 0
vn 0 0 -1
vn 0 0 -1
vn 0 0 -1
vn 0 0 -1
vn 0 0 1
vn 0 0 1
vn 0 0 1
vn 0 0 1
g pb_Mesh407530_0
f 3/3/3 2/2/2 1/1/1
f 3/3/3 4/4/4 2/2/2
f 2/2/2 5/5/5 1/1/1
f 2/2/2 6/6/6 5/5/5
f 7/7/7 5/5/5 6/6/6
f 7/7/7 6/6/6 8/8/8
f 7/7/7 8/8/8 9/9/9
f 10/10/10 7/7/7 9/9/9
f 10/10/10 9/9/9 11/11/11
f 9/9/9 12/12/12 11/11/11
f 15/15/15 14/14/14 13/13/13
f 15/15/15 13/13/13 16/16/16
f 13/13/13 17/17/17 16/16/16
f 13/13/13 18/18/18 17/17/17
f 18/18/18 19/19/19 17/17/17
f 19/19/19 20/20/20 17/17/17
f 20/20/20 19/19/19 21/21/21
f 22/22/22 20/20/20 21/21/21
f 21/21/21 24/24/24 23/23/23
f 22/22/22 21/21/21 23/23/23
f 27/27/27 26/26/26 25/25/25
f 27/27/27 28/28/28 26/26/26
f 31/31/31 30/30/30 29/29/29
f 31/31/31 32/32/32 30/30/30
f 35/35/35 34/34/34 33/33/33
f 35/35/35 36/36/36 34/34/34
f 39/39/39 38/38/38 37/37/37
f 39/39/39 40/40/40 38/38/38
f 43/43/43 42/42/42 41/41/41
f 43/43/43 44/44/44 42/42/42
f 47/47/47 46/46/46 45/45/45
f 47/47/47 48/48/48 46/46/46
f 51/51/51 50/50/50 49/49/49
f 51/51/51 52/52/52 50/50/50
f 55/55/55 54/54/54 53/53/53
f 55/55/55 56/56/56 54/54/54
f 59/59/59 58/58/58 57/57/57
f 59/59/59 60/60/60 58/58/58
f 63/63/63 62/62/62 61/61/61
f 63/63/63 64/64/64 62/62/62
f 67/67/67 66/66/66 65/65/65
f 67/67/67 68/68/68 66/66/66
f 71/71/71 70/70/70 69/69/69
f 71/71/71 72/72/72 70/70/70
