g pb_Mesh393190
v -12 0 0
v -12 0 -12
v -12 1 0
v -12 1 -12
v 0 0 -12
v 0 0 0
v 0 1 -12
v 0 1 0
v 0 0 0
v -10.00117 0 0.1496423
v -10.00117 1 0.1496423
v 0 1 0
v -10.00117 0 0.1496423
v -12 0 0
v -12 1 0
v -10.00117 1 0.1496423
v -12 1 -12
v -10.00117 0 -11.85036
v -10.00117 1 -11.85036
v -12 0 -12
v -10.00117 1 -11.85036
v 0 0 -12
v 0 1 -12
v -10.00117 0 -11.85036
v -10.00117 1 -11.85036
v 0 1 -12
v 0 1 0
v -10.00117 1 0.1496423
v -12 1 -12
v -12 1 0
v 0 -16.18645 0
v -10.00117 -16.18645 -11.85036
v -10.00117 -16.18645 0.1496423
v 0 -16.18645 -12
v -10.00117 0 0.1496423
v -12 0 -12
v -12 0 0
v -10.00117 0 -11.85036
v -10.00117 0 -11.85036
v -10.00117 0 0.1496423
v -10.00117 -16.18645 -11.85036
v -10.00117 -16.18645 0.1496423
v -10.00117 0 0.1496423
v 0 0 0
v -10.00117 -16.18645 0.1496423
v 0 -16.18645 0
v 0 0 0
v 0 0 -12
v 0 -16.18645 0
v 0 -16.18645 -12
v 0 0 -12
v -10.00117 0 -11.85036
v 0 -16.18645 -12
v -10.00117 -16.18645 -11.85036
vt -4.5 0.375
vt -7.5 0.375
vt -4.5 0.625
vt -7.5 0.625
vt 7.5 0.375
vt 4.5 0.375
vt 7.5 0.625
vt 4.5 0.625
vt -4.499896 0.375
vt -7.000385 0.375
vt -7.000385 0.625
vt -4.499896 0.625
vt -7.000385 0.375
vt -7.499826 0.375
vt -7.499826 0.625
vt -7.000385 0.625
vt -7.418193 0.625
vt -6.918751 0.375
vt -6.918751 0.625
vt -7.418193 0.375
vt -6.918751 0.625
vt -4.418262 0.375
vt -4.418262 0.625
vt -6.918751 0.375
vt 7.000292 -7.406475
vt 4.5 -7.443884
vt 4.5 -4.443884
vt 7.000292 -4.406474
vt 7.5 -7.443884
vt 7.5 -4.443884
vt -3.750438 -4.443884
vt -6.25073 -7.406475
vt -6.25073 -4.406474
vt -3.750438 -7.443884
vt -10.75073 -4.406474
vt -11.25044 -7.443884
vt -11.25044 -4.443884
vt -10.75073 -7.406475
vt -7.350361 -6.069918
vt -4.35036 -6.069918
vt -7.350361 -10.11653
vt -4.35036 -10.11653
vt -6.25143 -6.069918
vt -3.750858 -6.069918
vt -6.25143 -10.11653
vt -3.750858 -10.11653
vt 4.5 -6.069918
vt 7.5 -6.069918
vt 4.5 -10.11653
vt 7.5 -10.11653
vt 3.571334 -6.069918
vt 6.071907 -6.069918
vt 3.571334 -10.11653
vt 6.071907 -10.11653
vn -1 0 0
vn -1 0 0
vn -1 0 0
vn -1 0 0
vn 1 0 0
vn 1 0 0
vn 1 0 0
vn 1 0 0
vn 0.0149608 0 0.9998881
vn 0.0149608 0 0.9998881
vn 0.0149608 0 0.9998881
vn 0.0149608 0 0.9998881
vn -0.07465594 0 0.9972094
vn -0.07465594 0 0.9972094
vn -0.07465594 0 0.9972094
vn -0.07465594 0 0.9972094
vn 0.07465344 0 -0.9972095
vn 0.07465344 0 -0.9972095
vn 0.07465344 0 -0.9972095
vn 0.07465344 0 -0.9972095
vn -0.0149603 0 -0.9998881
vn -0.0149603 0 -0.9998881
vn -0.0149603 0 -0.9998881
vn -0.0149603 0 -0.9998881
vn 0 1 0
vn 0 1 0
vn 0 1 0
vn 0 1 0
vn 0 1 0
vn 0 1 0
vn 0 -0.9999999 0
vn 0 -0.9999999 0
vn 0 -1 0
vn 0 -1 0
vn 0 -1 0
vn 0 -1 0
vn 0 -1 0
vn 0 -0.9999999 0
vn -1 0 0
vn -1 0 0
vn -1 0 0
vn -1 0 0
vn 0.0149608 0 0.999888
vn 0.0149608 0 0.999888
vn 0.0149608 0 0.999888
vn 0.0149608 0 0.999888
vn 1 0 0
vn 1 0 0
vn 1 0 0
vn 1 0 0
vn -0.0149603 0 -0.999888
vn -0.0149603 0 -0.999888
vn -0.0149603 0 -0.999888
vn -0.0149603 0 -0.999888
g pb_Mesh393190_0
f 3/3/3 2/2/2 1/1/1
f 3/3/3 4/4/4 2/2/2
f 7/7/7 6/6/6 5/5/5
f 7/7/7 8/8/8 6/6/6
f 11/11/11 10/10/10 9/9/9
f 11/11/11 9/9/9 12/12/12
f 15/15/15 14/14/14 13/13/13
f 15/15/15 13/13/13 16/16/16
f 19/19/19 18/18/18 17/17/17
f 18/18/18 20/20/20 17/17/17
f 23/23/23 22/22/22 21/21/21
f 22/22/22 24/24/24 21/21/21
f 27/27/27 26/26/26 25/25/25
f 27/27/27 25/25/25 28/28/28
f 28/28/28 25/25/25 29/29/29
f 28/28/28 29/29/29 30/30/30
f 33/33/33 32/32/32 31/31/31
f 32/32/32 34/34/34 31/31/31
f 37/37/37 36/36/36 35/35/35
f 36/36/36 38/38/38 35/35/35
f 41/41/41 40/40/40 39/39/39
f 41/41/41 42/42/42 40/40/40
f 45/45/45 44/44/44 43/43/43
f 45/45/45 46/46/46 44/44/44
f 49/49/49 48/48/48 47/47/47
f 49/49/49 50/50/50 48/48/48
f 53/53/53 52/52/52 51/51/51
f 53/53/53 54/54/54 52/52/52
