g pb_Mesh54708
v 33 -61 -2
v -1 -61 -2
v 33 -61 38
v -1 -61 38
v 16 16 18
v 24.5 16 18
v 24.5 16 28
v 16 16 28
v 24.5 16 38
v 16 16 38
v 16 16 28
v 24.5 16 28
v 7.5 16 18
v 16 16 18
v 16 16 28
v 7.5 16 28
v 16 16 28
v 16 16 38
v 7.5 16 38
v 7.5 16 28
v 16 16 7
v 16 16 18
v 7.5 16 18
v 7.5 16 7
v 24.5 16 18
v 16 16 18
v 16 16 7
v 24.5 16 7
v 33 -13.5 -2
v 33 -61 -2
v 33 -61 38
v 33 -13.5 38
v 7.5 16 -2
v -1 16 -2
v -1 -15 -2
v 33 -11.5 -2
v 33 16 -2
v 24.5 16 -2
v 16 16 -2
v -1 -15 -2
v -1 -61 -2
v 33 -61 -2
v 33 -13.5 -2
v 33 -11.5 -2
v 0.02430725 16 18
v 7.5 16 18
v 7.5 16 28
v 0.02430725 16 28
v 0.02430725 16 7
v 7.5 16 7
v 7.5 16 18
v 0.02430725 16 18
v 0.02430725 16 28
v 7.5 16 28
v 7.5 16 38
v 0.02430725 16 38
v 0.02430725 16 37.5
v -1 16 37.5
v -1 16 28
v -1 35 37.5
v -1 35 28
v 0.02430725 16 18
v 0.02430725 16 28
v 0.02430725 35 18
v 0.02430725 35 28
v -1 16 28
v -1 16 18
v -1 35 28
v -1 35 18
v 0.02430725 16 28
v 0.02430725 16 37.5
v 0.02430725 35 28
v 0.02430725 35 37.5
v -1 16 7
v 0.02430725 16 7
v -1 35 7
v 0.02430725 35 7
v 0.02430725 16 7
v 0.02430725 16 18
v 0.02430725 35 7
v 0.02430725 35 18
v -1 16 18
v -1 16 7
v -1 35 18
v -1 35 7
v 24.5 16 18
v 32.00331 16 18
v 32.00331 16 28
v 24.5 16 28
v 24.5 16 7
v 32.00331 16 7
v 32.00331 16 18
v 24.5 16 18
v 33 16 38
v 33 -13.5 38
v 33 -61 38
v -1 -61 38
v -1 16 38
v 0.02430725 16 38
v 7.5 16 38
v 16 16 38
v 24.5 16 38
v 32.00331 16 38
v 24.5 16 28
v 32.00331 16 28
v 32.00331 16 37.5
v 32.00331 16 38
v 24.5 16 38
v 32.00331 16 7
v 33 16 7
v 32.00331 35 7
v 33 35 7
v 32.00331 16 37.5
v 32.00331 16 28
v 32.00331 35 37.5
v 32.00331 35 28
v 33 16 28
v 33 16 37.5
v 33 35 28
v 33 35 37.5
v 33 16 18
v 33 16 28
v 33 35 18
v 33 35 28
v 32.00331 16 28
v 32.00331 16 18
v 32.00331 35 28
v 32.00331 35 18
v 33 16 7
v 33 16 18
v 33 35 7
v 33 35 18
v 32.00331 16 18
v 32.00331 16 7
v 32.00331 35 18
v 32.00331 35 7
v 16 16 -1
v 16 16 7
v 7.5 16 7
v 7.5 16 -1
v 24.5 16 -1
v 24.5 16 7
v 16 16 7
v 16 16 -1
v -1 16 7
v -1 16 -1
v 7.5 16 -1
v 7.5 16 7
v 0.02430725 16 7
v -1 -61 38
v -1 -61 -2
v -1 -15 -2
v -1 16 -2
v -1 16 -1
v -1 16 7
v -1 16 18
v -1 16 28
v -1 16 37.5
v -1 16 38
v 24.5 16 7
v 24.5 16 -1
v 33 16 -1
v 33 16 7
v 32.00331 16 7
v 33 16 7
v 33 16 -1
v 33 16 -2
v 33 -11.5 -2
v 33 -13.5 -2
v 33 -13.5 38
v 33 16 38
v 33 16 37.5
v 33 16 28
v 33 16 18
v 24.5 16 -2
v 33 16 -2
v 24.5 35 -2
v 33 35 -2
v 33 16 -2
v 33 16 -1
v 33 35 -2
v 33 35 -1
v -1 16 -1
v -1 16 -2
v -1 35 -1
v -1 35 -2
v 33 16 -1
v 24.5 16 -1
v 33 35 -1
v 24.5 35 -1
v 16 16 -2
v 24.5 16 -2
v 16 35 -2
v 24.5 35 -2
v 24.5 16 -1
v 16 16 -1
v 24.5 35 -1
v 16 35 -1
v 7.5 16 -2
v 16 16 -2
v 7.5 35 -2
v 16 35 -2
v 16 16 -1
v 7.5 16 -1
v 16 35 -1
v 7.5 35 -1
v -1 16 -2
v 7.5 16 -2
v -1 35 -2
v 7.5 35 -2
v 7.5 16 -1
v -1 16 -1
v 7.5 35 -1
v -1 35 -1
vt 33 -2
vt -1 -2
vt 33 38
vt -1 38
vt -16 18.4375
vt -17.0625 18.4375
vt -17.0625 19.6875
vt -16 19.6875
vt -17.0625 20.9375
vt -16 20.9375
vt -16 19.6875
vt -17.0625 19.6875
vt -14.9375 18.4375
vt -16 18.4375
vt -16 19.6875
vt -14.9375 19.6875
vt -16 19.6875
vt -16 20.9375
vt -14.9375 20.9375
vt -14.9375 19.6875
vt -16 17.0625
vt -16 18.4375
vt -14.9375 18.4375
vt -14.9375 17.0625
vt -17.0625 18.4375
vt -16 18.4375
vt -16 17.0625
vt -17.0625 17.0625
vt -15.5 -34.28125
vt -15.5 -40.21875
vt -20.5 -40.21875
vt -20.5 -34.28125
vt 14.9375 10.75
vt 13.875 10.75
vt 13.875 6.875
vt 18.125 7.3125
vt 18.125 10.75
vt 17.0625 10.75
vt 16 10.75
vt -13.875 -33.59375
vt -13.875 -39.34375
vt -18.125 -39.34375
vt -18.125 -33.40625
vt -18.125 -33.15625
vt -14.00304 18.4375
vt -14.9375 18.4375
vt -14.9375 19.6875
vt -14.00304 19.6875
vt -14.00304 17.0625
vt -14.9375 17.0625
vt -14.9375 18.4375
vt -14.00304 18.4375
vt -14.00304 19.6875
vt -14.9375 19.6875
vt -14.9375 20.9375
vt -14.00304 20.9375
vt -14.00304 20.875
vt 20.4375 -9.375
vt 19.25 -9.375
vt 20.4375 -7
vt 19.25 -7
vt -22.375 24.3125
vt -23.625 24.3125
vt -22.375 26.6875
vt -23.625 26.6875
vt 19.25 -9.375
vt 18 -9.375
vt 19.25 -7
vt 18 -7
vt -32.15625 24.3125
vt -33.34375 24.3125
vt -32.15625 26.6875
vt -33.34375 26.6875
vt 0.5518656 24.3125
vt 0.4238272 24.3125
vt 0.5518656 26.6875
vt 0.4238272 26.6875
vt -11.8125 24.3125
vt -13.1875 24.3125
vt -11.8125 26.6875
vt -13.1875 26.6875
vt 18 -9.375
vt 16.625 -9.375
vt 18 -7
vt 16.625 -7
vt -17.0625 18.4375
vt -18.00041 18.4375
vt -18.00041 19.6875
vt -17.0625 19.6875
vt -17.0625 17.0625
vt -18.00041 17.0625
vt -18.00041 18.4375
vt -17.0625 18.4375
vt 33 16
vt 33 -13.5
vt 33 -61
vt -1 -61
vt -1 16
vt 0.02430725 16
vt 7.5 16
vt 16 16
vt 24.5 16
vt 32.00331 16
vt -17.0625 19.6875
vt -18.00041 19.6875
vt -18.00041 20.875
vt -18.00041 20.9375
vt -17.0625 20.9375
vt -32.43936 24.3125
vt -32.56395 24.3125
vt -32.43936 26.6875
vt -32.56395 26.6875
vt 33.34375 24.3125
vt 32.15625 24.3125
vt 33.34375 26.6875
vt 32.15625 26.6875
vt 19.25 11.40625
vt 20.4375 11.40625
vt 19.25 13.78125
vt 20.4375 13.78125
vt 18 11.40625
vt 19.25 11.40625
vt 18 13.78125
vt 19.25 13.78125
vt 23.625 24.3125
vt 22.375 24.3125
vt 23.625 26.6875
vt 22.375 26.6875
vt 16.625 11.40625
vt 18 11.40625
vt 16.625 13.78125
vt 18 13.78125
vt 13.1875 24.3125
vt 11.8125 24.3125
vt 13.1875 26.6875
vt 11.8125 26.6875
vt -16 16.0625
vt -16 17.0625
vt -14.9375 17.0625
vt -14.9375 16.0625
vt -17.0625 16.0625
vt -17.0625 17.0625
vt -16 17.0625
vt -16 16.0625
vt -13.875 17.0625
vt -13.875 16.0625
vt -14.9375 16.0625
vt -14.9375 17.0625
vt -14.00304 17.0625
vt 20.5 -19
vt 15.5 -19
vt 15.5 -13.25
vt 15.5 -9.375
vt 15.625 -9.375
vt 16.625 -9.375
vt 18 -9.375
vt 19.25 -9.375
vt 20.4375 -9.375
vt 20.5 -9.375
vt -17.0625 17.0625
vt -17.0625 16.0625
vt -18.125 16.0625
vt -18.125 17.0625
vt -18.00041 17.0625
vt 16.625 11.40625
vt 15.625 11.40625
vt 15.5 11.40625
vt 15.5 7.96875
vt 15.5 7.71875
vt 20.5 7.71875
vt 20.5 11.40625
vt 20.4375 11.40625
vt 19.25 11.40625
vt 18 11.40625
vt 17.0625 10.75
vt 18.125 10.75
vt 17.0625 13.125
vt 18.125 13.125
vt 1.5625 24.3125
vt 1.4375 24.3125
vt 1.5625 26.6875
vt 1.4375 26.6875
vt -1.4375 24.3125
vt -1.5625 24.3125
vt -1.4375 26.6875
vt -1.5625 26.6875
vt 29.28125 24.3125
vt 28.21875 24.3125
vt 29.28125 26.6875
vt 28.21875 26.6875
vt 16 10.75
vt 17.0625 10.75
vt 16 13.125
vt 17.0625 13.125
vt 20.78125 24.3125
vt 19.71875 24.3125
vt 20.78125 26.6875
vt 19.71875 26.6875
vt 14.9375 10.75
vt 16 10.75
vt 14.9375 13.125
vt 16 13.125
vt 12.28125 24.3125
vt 11.21875 24.3125
vt 12.28125 26.6875
vt 11.21875 26.6875
vt 13.875 10.75
vt 14.9375 10.75
vt 13.875 13.125
vt 14.9375 13.125
vt 3.78125 24.3125
vt 2.71875 24.3125
vt 3.78125 26.6875
vt 2.71875 26.6875
vn 0 -1 0
vn 0 -1 0
vn 0 -1 0
vn 0 -1 0
vn 0 1 0
vn 0 1 0
vn 0 1 0
vn 0 1 0
vn 0 1 0
vn 0 1 0
vn 0 1 0
vn 0 1 0
vn 0 1 0
vn 0 1 0
vn 0 1 0
vn 0 1 0
vn 0 1 0
vn 0 1 0
vn 0 1 0
vn 0 1 0
vn 0 1 0
vn 0 1 0
vn 0 1 0
vn 0 1 0
vn 0 1 0
vn 0 1 0
vn 0 1 0
vn 0 1 0
vn 0.9999999 0 0
vn 0.9999999 0 0
vn 0.9999999 0 0
vn 0.9999999 0 0
vn 0 0 -1
vn 0 0 -1
vn 0 0 -1
vn 0 0 -1
vn 0 0 -1
vn 0 0 -1
vn 0 0 -0.9999999
vn 0 0 -1
vn 0 0 -1
vn 0 0 -1
vn 0 0 -1
vn 0 0 -1
vn 0 1 0
vn 0 1 0
vn 0 1 0
vn 0 1 0
vn 0 1 0
vn 0 1 0
vn 0 1 0
vn 0 1 0
vn 0 1 0
vn 0 1 0
vn 0 0.9999999 0
vn 0 1 0
vn 0 1 0
vn -1 0 0
vn -1 0 0
vn -1 0 0
vn -1 0 0
vn 1 0 0
vn 1 0 0
vn 1 0 0
vn 1 0 0
vn -1 0 0
vn -1 0 0
vn -1 0 0
vn -1 0 0
vn 1 0 0
vn 1 0 0
vn 1 0 0
vn 1 0 0
vn 0 0 -1
vn 0 0 -1
vn 0 0 -1
vn 0 0 -1
vn 0.9999999 0 0
vn 0.9999999 0 0
vn 0.9999999 0 0
vn 0.9999999 0 0
vn -0.9999999 0 0
vn -0.9999999 0 0
vn -0.9999999 0 0
vn -0.9999999 0 0
vn 0 1 0
vn 0 1 0
vn 0 1 0
vn 0 1 0
vn 0 1 0
vn 0 1 0
vn 0 1 0
vn 0 1 0
vn 0 0 1
vn 0 0 1
vn 0 0 1
vn 0 0 1
vn 0 0 1
vn 0 0 1
vn 0 0 1
vn 0 0 1
vn 0 0 1
vn 0 0 1
vn 0 1 0
vn 0 1 0
vn 0 1 0
vn 0 1 0
vn 0 1 0
vn 0 0 -1
vn 0 0 -1
vn 0 0 -1
vn 0 0 -1
vn -1 0 0
vn -1 0 0
vn -1 0 0
vn -1 0 0
vn 1 0 0
vn 1 0 0
vn 1 0 0
vn 1 0 0
vn 1 0 0
vn 1 0 0
vn 1 0 0
vn 1 0 0
vn -1 0 0
vn -1 0 0
vn -1 0 0
vn -1 0 0
vn 0.9999999 0 0
vn 0.9999999 0 0
vn 0.9999999 0 0
vn 0.9999999 0 0
vn -0.9999999 0 0
vn -0.9999999 0 0
vn -0.9999999 0 0
vn -0.9999999 0 0
vn 0 1 0
vn 0 1 0
vn 0 1 0
vn 0 1 0
vn 0 1 0
vn 0 1 0
vn 0 1 0
vn 0 1 0
vn 0 1 0
vn 0 1 0
vn 0 0.9999999 0
vn 0 1 0
vn 0 1 0
vn -1 0 0
vn -0.9999999 0 0
vn -1 0 0
vn -1 0 0
vn -1 0 0
vn -1 0 0
vn -1 0 0
vn -1 0 0
vn -1 0 0
vn -1 0 0
vn 0 1 0
vn 0 1 0
vn 0 1 0
vn 0 0.9999999 0
vn 0 1 0
vn 1 0 0
vn 1 0 0
vn 0.9999999 0 0
vn 1 0 0
vn 1 0 0
vn 0.9999999 0 0
vn 1 0 0
vn 1 0 0
vn 1 0 0
vn 0.9999999 0 0
vn 0 0 -1
vn 0 0 -1
vn 0 0 -1
vn 0 0 -1
vn 1 0 0
vn 1 0 0
vn 1 0 0
vn 1 0 0
vn -1 0 0
vn -1 0 0
vn -1 0 0
vn -1 0 0
vn 0 0 1
vn 0 0 1
vn 0 0 1
vn 0 0 1
vn 0 0 -1
vn 0 0 -1
vn 0 0 -1
vn 0 0 -1
vn 0 0 1
vn 0 0 1
vn 0 0 1
vn 0 0 1
vn 0 0 -1
vn 0 0 -1
vn 0 0 -1
vn 0 0 -1
vn 0 0 1
vn 0 0 1
vn 0 0 1
vn 0 0 1
vn 0 0 -1
vn 0 0 -1
vn 0 0 -1
vn 0 0 -1
vn 0 0 1
vn 0 0 1
vn 0 0 1
vn 0 0 1
g pb_Mesh54708_0
f 3/3/3 2/2/2 1/1/1
f 3/3/3 4/4/4 2/2/2
f 103/103/103 95/95/95 94/94/94
f 103/103/103 102/102/102 95/95/95
f 102/102/102 101/101/101 95/95/95
f 101/101/101 100/100/100 95/95/95
f 100/100/100 99/99/99 95/95/95
f 97/97/97 96/96/96 95/95/95
f 98/98/98 97/97/97 95/95/95
f 99/99/99 98/98/98 95/95/95
g pb_Mesh54708_1
f 7/7/7 6/6/6 5/5/5
f 7/7/7 5/5/5 8/8/8
f 9/9/9 12/12/12 11/11/11
f 9/9/9 11/11/11 10/10/10
f 15/15/15 14/14/14 13/13/13
f 15/15/15 13/13/13 16/16/16
f 18/18/18 17/17/17 20/20/20
f 18/18/18 20/20/20 19/19/19
f 22/22/22 21/21/21 24/24/24
f 22/22/22 24/24/24 23/23/23
f 25/25/25 28/28/28 27/27/27
f 25/25/25 27/27/27 26/26/26
f 32/32/32 31/31/31 29/29/29
f 31/31/31 30/30/30 29/29/29
f 35/35/35 34/34/34 33/33/33
f 33/33/33 39/39/39 35/35/35
f 35/35/35 39/39/39 36/36/36
f 36/36/36 39/39/39 38/38/38
f 37/37/37 36/36/36 38/38/38
f 44/44/44 43/43/43 40/40/40
f 43/43/43 42/42/42 40/40/40
f 42/42/42 41/41/41 40/40/40
f 47/47/47 46/46/46 45/45/45
f 47/47/47 45/45/45 48/48/48
f 51/51/51 50/50/50 49/49/49
f 51/51/51 49/49/49 52/52/52
f 54/54/54 53/53/53 57/57/57
f 55/55/55 54/54/54 57/57/57
f 55/55/55 57/57/57 56/56/56
f 60/60/60 59/59/59 58/58/58
f 60/60/60 61/61/61 59/59/59
f 64/64/64 63/63/63 62/62/62
f 64/64/64 65/65/65 63/63/63
f 68/68/68 67/67/67 66/66/66
f 68/68/68 69/69/69 67/67/67
f 72/72/72 71/71/71 70/70/70
f 72/72/72 73/73/73 71/71/71
f 76/76/76 75/75/75 74/74/74
f 76/76/76 77/77/77 75/75/75
f 80/80/80 79/79/79 78/78/78
f 80/80/80 81/81/81 79/79/79
f 84/84/84 83/83/83 82/82/82
f 84/84/84 85/85/85 83/83/83
f 88/88/88 87/87/87 86/86/86
f 88/88/88 86/86/86 89/89/89
f 92/92/92 91/91/91 90/90/90
f 92/92/92 90/90/90 93/93/93
f 106/106/106 105/105/105 104/104/104
f 108/108/108 106/106/106 104/104/104
f 108/108/108 107/107/107 106/106/106
f 111/111/111 110/110/110 109/109/109
f 111/111/111 112/112/112 110/110/110
f 115/115/115 114/114/114 113/113/113
f 115/115/115 116/116/116 114/114/114
f 119/119/119 118/118/118 117/117/117
f 119/119/119 120/120/120 118/118/118
f 123/123/123 122/122/122 121/121/121
f 123/123/123 124/124/124 122/122/122
f 127/127/127 126/126/126 125/125/125
f 127/127/127 128/128/128 126/126/126
f 131/131/131 130/130/130 129/129/129
f 131/131/131 132/132/132 130/130/130
f 135/135/135 134/134/134 133/133/133
f 135/135/135 136/136/136 134/134/134
f 138/138/138 137/137/137 140/140/140
f 138/138/138 140/140/140 139/139/139
f 142/142/142 141/141/141 144/144/144
f 142/142/142 144/144/144 143/143/143
f 149/149/149 146/146/146 145/145/145
f 146/146/146 149/149/149 147/147/147
f 149/149/149 148/148/148 147/147/147
f 158/158/158 150/150/150 159/159/159
f 152/152/152 151/151/151 150/150/150
f 150/150/150 158/158/158 152/152/152
f 152/152/152 158/158/158 157/157/157
f 152/152/152 157/157/157 156/156/156
f 152/152/152 156/156/156 155/155/155
f 152/152/152 155/155/155 154/154/154
f 154/154/154 153/153/153 152/152/152
f 164/164/164 161/161/161 160/160/160
f 161/161/161 164/164/164 162/162/162
f 164/164/164 163/163/163 162/162/162
f 168/168/168 167/167/167 166/166/166
f 166/166/166 165/165/165 168/168/168
f 165/165/165 174/174/174 168/168/168
f 168/168/168 174/174/174 170/170/170
f 170/170/170 169/169/169 168/168/168
f 170/170/170 174/174/174 173/173/173
f 170/170/170 173/173/173 172/172/172
f 171/171/171 170/170/170 172/172/172
f 177/177/177 176/176/176 175/175/175
f 177/177/177 178/178/178 176/176/176
f 181/181/181 180/180/180 179/179/179
f 181/181/181 182/182/182 180/180/180
f 185/185/185 184/184/184 183/183/183
f 185/185/185 186/186/186 184/184/184
f 189/189/189 188/188/188 187/187/187
f 189/189/189 190/190/190 188/188/188
f 193/193/193 192/192/192 191/191/191
f 193/193/193 194/194/194 192/192/192
f 197/197/197 196/196/196 195/195/195
f 197/197/197 198/198/198 196/196/196
f 201/201/201 200/200/200 199/199/199
f 201/201/201 202/202/202 200/200/200
f 205/205/205 204/204/204 203/203/203
f 205/205/205 206/206/206 204/204/204
f 209/209/209 208/208/208 207/207/207
f 209/209/209 210/210/210 208/208/208
f 213/213/213 212/212/212 211/211/211
f 213/213/213 214/214/214 212/212/212
