g pb_Mesh383778
v 10.5 -1 5
v 10.5 -1.625 -0.875
v 10.5 1.75 -1.75
v 10.5 3 5
v 10.5 -2.25 -6.75
v 10.5 0.5 -8.5
v -5.5 -5 -5
v -5.5 -5 0
v -5.5 -3 0
v -5.5 -5 5
v -5.5 -1 5
v -5.5 0.5 -8.5
v -5.5 1.75 -1.75
v -5.5 3 5
v 10.5 -5 5
v 10.5 -5 0
v 10.5 -5 -5
v 2.5 -5 -5
v 6.5 -5 -5
v 6.5 -5 0
v 2.5 -5 0
v 10.5 -5 -5
v 10.5 -5 0
v 6.5 -5 5
v 2.5 -5 5
v 10.5 -5 5
v -5.5 -5 -5
v -1.5 -5 -5
v -1.5 -5 0
v -5.5 -5 0
v -1.5 -5 5
v -5.5 -5 5
v -1.5 3 5
v 2.5 -1 5
v 2.5 3 5
v -1.5 -1 5
v -5.5 3 5
v -5.5 -1 5
v -1.5 -5 5
v 2.5 -5 5
v -5.5 -5 5
v 6.5 3 5
v 10.5 -1 5
v 10.5 3 5
v 6.5 -1 5
v 6.5 -5 5
v 10.5 -5 5
v -5.5 4.5 -3.5
v -5.5 3.75 0.75
v 10.5 3.75 0.75
v 10.5 4.5 -3.5
v -1.5 3 5
v 2.5 3 5
v 2.5 3.75 0.75
v -5.5 3.75 0.75
v -5.5 3 5
v -5.5 4.5 -3.5
v 2.5 4.5 -3.5
v 6.5 3 5
v 10.5 3 5
v 10.5 3.75 0.75
v 10.5 4.5 -3.5
v 10.5 5.25 -7.75
v 2.5 6 -12
v 2.5 5.25 -7.75
v 10.5 6 -12
v -5.5 6 -12
v -5.5 5.25 -7.75
v -5.5 6 -12
v -5.5 5.25 -7.75
v 10.5 5.25 -7.75
v 10.5 6 -12
vt -2.4375 0.3125
vt -3.171875 0.234375
vt -3.28125 0.65625
vt -2.4375 0.8125
vt -3.90625 0.15625
vt -4.125 0.5
vt -3.6875 -0.1875
vt -3.0625 -0.1875
vt -3.0625 0.0625
vt -2.4375 -0.1875
vt -2.4375 0.3125
vt -4.125 0.5
vt -3.28125 0.65625
vt -2.4375 0.8125
vt -2.4375 -0.1875
vt -3.0625 -0.1875
vt -3.6875 -0.1875
vt -2.5 -0.625
vt -3 -0.625
vt -3 0
vt -2.5 0
vt -3.5 -0.625
vt -3.5 0
vt -3 0.625
vt -2.5 0.625
vt -3.5 0.625
vt -1.5 -0.625
vt -2 -0.625
vt -2 0
vt -1.5 0
vt -2 0.625
vt -1.5 0.625
vt 2 -0.5
vt 2.5 -1
vt 2.5 -0.5
vt 2 -1
vt 1.5 -0.5
vt 1.5 -1
vt 2 -1.5
vt 2.5 -1.5
vt 1.5 -1.5
vt 3 -0.5
vt 3.5 -1
vt 3.5 -0.5
vt 3 -1
vt 3 -1.5
vt 3.5 -1.5
vt -3.5 1
vt -2.96875 0.90625
vt -2.96875 0.90625
vt -3.5 1
vt -2 -3.149859
vt -2.5 -3.149859
vt -2.5 -3.689318
vt -1.5 -3.689318
vt -1.5 -3.149859
vt -1.5 -4.228776
vt -2.5 -4.228776
vt -3 -3.149859
vt -3.5 -3.149859
vt -3.5 -3.689318
vt -3.5 -4.228776
vt -3.5 -4.768235
vt -2.5 -5.307693
vt -2.5 -4.768235
vt -3.5 -5.307693
vt -1.5 -5.307693
vt -1.5 -4.768235
vt -4.5625 1.1875
vt -4.03125 1.09375
vt -4.03125 1.09375
vt -4.5625 1.1875
vn -1 0 0
vn -1 0 0
vn -1 0 0
vn -1 0 0
vn -1 0 0
vn -0.9999999 0 0
vn 1 0 0
vn 1 0 0
vn 1 0 0
vn 1 0 0
vn 1 0 0
vn 0.9999999 0 0
vn 1 0 0
vn 1 0 0
vn -1 0 0
vn -1 0 0
vn -1 0 0
vn 0 1 0
vn 0 1 0
vn 0 1 0
vn 0 1 0
vn 0 1 0
vn 0 1 0
vn 0 1 0
vn 0 1 0
vn 0 1 0
vn 0 1 0
vn 0 1 0
vn 0 1 0
vn 0 1 0
vn 0 1 0
vn 0 1 0
vn 0 0 -1
vn 0 0 -1
vn 0 0 -1
vn 0 0 -1
vn 0 0 -1
vn 0 0 -1
vn 0 0 -1
vn 0 0 -1
vn 0 0 -1
vn 0 0 -1
vn 0 0 -1
vn 0 0 -1
vn 0 0 -1
vn 0 0 -1
vn 0 0 -1
vn 0.9999999 0 0
vn 0.9999999 0 0
vn -0.9999999 0 0
vn -0.9999999 0 0
vn 0 -0.9847836 -0.1737853
vn 0 -0.9847836 -0.1737853
vn 0 -0.9847836 -0.1737853
vn 0 -0.9847836 -0.1737853
vn 0 -0.9847836 -0.1737853
vn 0 -0.9847836 -0.1737853
vn 0 -0.9847836 -0.1737853
vn 0 -0.9847836 -0.1737853
vn 0 -0.9847836 -0.1737853
vn 0 -0.9847836 -0.1737853
vn 0 -0.9847836 -0.1737853
vn 0 -0.9847836 -0.1737853
vn 0 -0.9847836 -0.1737853
vn 0 -0.9847836 -0.1737853
vn 0 -0.9847836 -0.1737853
vn 0 -0.9847836 -0.1737853
vn 0 -0.9847836 -0.1737853
vn 0.9999999 0 0
vn 0.9999999 0 0
vn -0.9999999 0 0
vn -0.9999999 0 0
g pb_Mesh383778_0
f 3/3/3 2/2/2 1/1/1
f 4/4/4 3/3/3 1/1/1
f 3/3/3 5/5/5 2/2/2
f 6/6/6 5/5/5 3/3/3
f 9/9/9 8/8/8 7/7/7
f 11/11/11 10/10/10 9/9/9
f 10/10/10 8/8/8 9/9/9
f 13/13/13 7/7/7 12/12/12
f 9/9/9 7/7/7 13/13/13
f 14/14/14 11/11/11 13/13/13
f 11/11/11 9/9/9 13/13/13
f 16/16/16 15/15/15 1/1/1
f 2/2/2 16/16/16 1/1/1
f 2/2/2 17/17/17 16/16/16
f 5/5/5 17/17/17 2/2/2
f 20/20/20 19/19/19 18/18/18
f 20/20/20 18/18/18 21/21/21
f 23/23/23 22/22/22 19/19/19
f 23/23/23 19/19/19 20/20/20
f 24/24/24 20/20/20 21/21/21
f 24/24/24 21/21/21 25/25/25
f 26/26/26 23/23/23 20/20/20
f 26/26/26 20/20/20 24/24/24
f 29/29/29 28/28/28 27/27/27
f 29/29/29 27/27/27 30/30/30
f 21/21/21 18/18/18 28/28/28
f 21/21/21 28/28/28 29/29/29
f 31/31/31 29/29/29 30/30/30
f 31/31/31 30/30/30 32/32/32
f 25/25/25 21/21/21 29/29/29
f 25/25/25 29/29/29 31/31/31
f 35/35/35 34/34/34 33/33/33
f 34/34/34 36/36/36 33/33/33
f 33/33/33 36/36/36 37/37/37
f 36/36/36 38/38/38 37/37/37
f 36/36/36 39/39/39 38/38/38
f 40/40/40 39/39/39 36/36/36
f 34/34/34 40/40/40 36/36/36
f 39/39/39 41/41/41 38/38/38
f 44/44/44 43/43/43 42/42/42
f 43/43/43 45/45/45 42/42/42
f 42/42/42 45/45/45 35/35/35
f 45/45/45 34/34/34 35/35/35
f 45/45/45 46/46/46 34/34/34
f 47/47/47 46/46/46 45/45/45
f 43/43/43 47/47/47 45/45/45
f 46/46/46 40/40/40 34/34/34
f 49/49/49 13/13/13 48/48/48
f 14/14/14 13/13/13 49/49/49
f 50/50/50 3/3/3 4/4/4
f 51/51/51 3/3/3 50/50/50
f 54/54/54 53/53/53 52/52/52
f 54/54/54 52/52/52 55/55/55
f 56/56/56 55/55/55 52/52/52
f 55/55/55 57/57/57 54/54/54
f 57/57/57 58/58/58 54/54/54
f 61/61/61 60/60/60 59/59/59
f 61/61/61 59/59/59 54/54/54
f 53/53/53 54/54/54 59/59/59
f 54/54/54 58/58/58 61/61/61
f 58/58/58 62/62/62 61/61/61
f 65/65/65 64/64/64 63/63/63
f 64/64/64 66/66/66 63/63/63
f 58/58/58 65/65/65 62/62/62
f 65/65/65 63/63/63 62/62/62
f 68/68/68 67/67/67 65/65/65
f 67/67/67 64/64/64 65/65/65
f 57/57/57 68/68/68 58/58/58
f 68/68/68 65/65/65 58/58/58
f 70/70/70 12/12/12 69/69/69
f 48/48/48 12/12/12 70/70/70
f 13/13/13 12/12/12 48/48/48
f 51/51/51 6/6/6 3/3/3
f 71/71/71 6/6/6 51/51/51
f 72/72/72 6/6/6 71/71/71
