g pb_Mesh69906
v 0 0 0
v 0.9378223 3.5 0
v 0 0 1
v 0.9378223 3.5 1
v 1.803848 3 0
v 1 0 0
v 1.803848 3 1
v 1 0 1
v 0 0 1
v 1 0 1
v 0 0 0
v 1 0 0
v 0.9378223 3.5 0
v 3.5 6.062178 0
v 0.9378223 3.5 1
v 3.5 6.062178 1
v 4 5.196153 0
v 1.803848 3 0
v 4 5.196153 1
v 1.803848 3 1
v 3.5 6.062178 0
v 7 7 0
v 3.5 6.062178 1
v 7 7 1
v 7 6 0
v 4 5.196153 0
v 7 6 1
v 4 5.196153 1
v 7 7 0
v 10.5 6.062178 0
v 7 7 1
v 10.5 6.062178 1
v 10 5.196152 0
v 7 6 0
v 10 5.196152 1
v 7 6 1
v 10.5 6.062178 0
v 13.06218 3.5 0
v 10.5 6.062178 1
v 13.06218 3.5 1
v 12.19615 3 0
v 10 5.196152 0
v 12.19615 3 1
v 10 5.196152 1
v 13.06218 3.5 0
v 14 -6.119594E-07 0
v 13.06218 3.5 1
v 14 -6.119594E-07 1
v 13 -5.245366E-07 0
v 12.19615 3 0
v 13 -5.245366E-07 1
v 12.19615 3 1
v 13 -5.245366E-07 1
v 14 -6.119594E-07 1
v 13 -5.245366E-07 0
v 14 -6.119594E-07 0
v 0 0 1
v 0.9378223 3.5 1
v 1 0 1
v 1.803848 3 1
v 0.9378223 3.5 0
v 0 0 0
v 1.803848 3 0
v 1 0 0
v 3.5 6.062178 1
v 4 5.196153 1
v 3.5 6.062178 0
v 4 5.196153 0
v 7 7 1
v 7 6 1
v 7 7 0
v 7 6 0
v 10.5 6.062178 1
v 10 5.196152 1
v 10.5 6.062178 0
v 10 5.196152 0
v 13.06218 3.5 1
v 12.19615 3 1
v 13.06218 3.5 0
v 12.19615 3 0
v 14 -6.119594E-07 1
v 13 -5.245366E-07 1
v 14 -6.119594E-07 0
v 13 -5.245366E-07 0
vt 0 0
vt 0 3.623467
vt 1 0
vt 1 3.623467
vt 0 3.364648
vt 0 0.2588191
vt -1 3.364648
vt -1 0.2588191
vt 0 1
vt 1 1
vt 0 0
vt 1 0
vt 0 3.138015
vt 0 6.761482
vt 1 3.138015
vt 1 6.761482
vt 0 6.502662
vt 0 3.396834
vt -1 6.502662
vt -1 3.396834
vt -4.949748 0
vt -8.573215 0
vt -4.949748 1
vt -8.573215 1
vt 8.314395 0
vt 5.208566 0
vt 8.314395 1
vt 5.208566 1
vt -4.949747 0
vt -8.573214 0
vt -4.949747 1
vt -8.573214 1
vt 8.314394 0
vt 5.208566 0
vt 8.314394 1
vt 5.208566 1
vt -3.138016 0
vt -6.761482 0
vt -3.138016 1
vt -6.761482 1
vt 6.502661 0
vt 3.396834 0
vt 6.502661 1
vt 3.396834 1
vt 0 6.844577E-07
vt 0 -3.623467
vt -1 6.844577E-07
vt -1 -3.623467
vt 0 -3.36465
vt 0 -0.2588202
vt 1 -3.36465
vt 1 -0.2588202
vt 13 1
vt 14 1
vt 13 0
vt 14 0
vt 0 0
vt 0.9378223 3.5
vt 1 0
vt 1.803848 3
vt -0.9378223 3.5
vt 0 0
vt -1.803848 3
vt -1 0
vt 3.5 6.062178
vt 4 5.196153
vt -3.5 6.062178
vt -4 5.196153
vt 7 7
vt 7 6
vt -7 7
vt -7 6
vt 10.5 6.062178
vt 10 5.196152
vt -10.5 6.062178
vt -10 5.196152
vt 13.06218 3.5
vt 12.19615 3
vt -13.06218 3.5
vt -12.19615 3
vt 14 -6.119594E-07
vt 13 -5.245366E-07
vt -14 -6.119594E-07
vt -13 -5.245366E-07
vn -0.9659258 0.2588191 0
vn -0.9659258 0.2588191 0
vn -0.9659258 0.2588191 0
vn -0.9659258 0.2588191 0
vn 0.9659258 -0.2588191 0
vn 0.9659258 -0.2588191 0
vn 0.9659258 -0.2588191 0
vn 0.9659258 -0.2588191 0
vn 0 -1 0
vn 0 -1 0
vn 0 -1 0
vn 0 -1 0
vn -0.7071068 0.7071067 0
vn -0.7071068 0.7071067 0
vn -0.7071068 0.7071067 0
vn -0.7071068 0.7071067 0
vn 0.7071068 -0.7071067 0
vn 0.7071068 -0.7071067 0
vn 0.7071068 -0.7071067 0
vn 0.7071068 -0.7071067 0
vn -0.258819 0.9659259 0
vn -0.258819 0.9659259 0
vn -0.258819 0.9659259 0
vn -0.258819 0.9659259 0
vn 0.2588189 -0.9659259 0
vn 0.2588189 -0.9659259 0
vn 0.2588189 -0.9659259 0
vn 0.2588189 -0.9659259 0
vn 0.2588191 0.9659258 0
vn 0.2588191 0.9659258 0
vn 0.2588191 0.9659258 0
vn 0.2588191 0.9659258 0
vn -0.2588191 -0.9659257 0
vn -0.2588191 -0.9659257 0
vn -0.2588191 -0.9659257 0
vn -0.2588191 -0.9659257 0
vn 0.7071066 0.7071068 0
vn 0.7071066 0.7071068 0
vn 0.7071066 0.7071068 0
vn 0.7071066 0.7071068 0
vn -0.7071068 -0.7071068 0
vn -0.7071068 -0.7071068 0
vn -0.7071068 -0.7071068 0
vn -0.7071068 -0.7071068 0
vn 0.9659258 0.258819 0
vn 0.9659258 0.258819 0
vn 0.9659258 0.258819 0
vn 0.9659258 0.258819 0
vn -0.9659258 -0.2588192 0
vn -0.9659258 -0.2588192 0
vn -0.9659258 -0.2588192 0
vn -0.9659258 -0.2588192 0
vn -8.742279E-08 -1 0
vn -8.742279E-08 -1 0
vn -8.742279E-08 -1 0
vn -8.742279E-08 -1 0
vn 0 0 1
vn 0 0 1
vn 0 0 1
vn 0 0 1
vn 0 0 -1
vn 0 0 -1
vn 0 0 -1
vn 0 0 -1
vn 0 0 1
vn 0 0 0.9999999
vn 0 0 -1
vn 0 0 -1
vn 0 0 1
vn 0 0 1
vn 0 0 -1
vn 0 0 -1
vn 0 0 1
vn 0 0 1
vn 0 0 -1
vn 0 0 -1
vn 0 0 1
vn 0 0 1
vn 0 0 -1
vn 0 0 -1
vn 0 0 1
vn 0 0 1
vn 0 0 -0.9999999
vn 0 0 -1
g pb_Mesh69906_0
f 3/3/3 2/2/2 1/1/1
f 3/3/3 4/4/4 2/2/2
f 7/7/7 6/6/6 5/5/5
f 7/7/7 8/8/8 6/6/6
f 11/11/11 10/10/10 9/9/9
f 11/11/11 12/12/12 10/10/10
f 15/15/15 14/14/14 13/13/13
f 15/15/15 16/16/16 14/14/14
f 19/19/19 18/18/18 17/17/17
f 19/19/19 20/20/20 18/18/18
f 23/23/23 22/22/22 21/21/21
f 23/23/23 24/24/24 22/22/22
f 27/27/27 26/26/26 25/25/25
f 27/27/27 28/28/28 26/26/26
f 31/31/31 30/30/30 29/29/29
f 31/31/31 32/32/32 30/30/30
f 35/35/35 34/34/34 33/33/33
f 35/35/35 36/36/36 34/34/34
f 39/39/39 38/38/38 37/37/37
f 39/39/39 40/40/40 38/38/38
f 43/43/43 42/42/42 41/41/41
f 43/43/43 44/44/44 42/42/42
f 47/47/47 46/46/46 45/45/45
f 47/47/47 48/48/48 46/46/46
f 51/51/51 50/50/50 49/49/49
f 51/51/51 52/52/52 50/50/50
f 55/55/55 54/54/54 53/53/53
f 55/55/55 56/56/56 54/54/54
f 59/59/59 58/58/58 57/57/57
f 59/59/59 60/60/60 58/58/58
f 63/63/63 62/62/62 61/61/61
f 63/63/63 64/64/64 62/62/62
f 60/60/60 65/65/65 58/58/58
f 60/60/60 66/66/66 65/65/65
f 68/68/68 61/61/61 67/67/67
f 68/68/68 63/63/63 61/61/61
f 66/66/66 69/69/69 65/65/65
f 66/66/66 70/70/70 69/69/69
f 72/72/72 67/67/67 71/71/71
f 72/72/72 68/68/68 67/67/67
f 70/70/70 73/73/73 69/69/69
f 70/70/70 74/74/74 73/73/73
f 76/76/76 71/71/71 75/75/75
f 76/76/76 72/72/72 71/71/71
f 74/74/74 77/77/77 73/73/73
f 74/74/74 78/78/78 77/77/77
f 80/80/80 75/75/75 79/79/79
f 80/80/80 76/76/76 75/75/75
f 78/78/78 81/81/81 77/77/77
f 78/78/78 82/82/82 81/81/81
f 84/84/84 79/79/79 83/83/83
f 84/84/84 80/80/80 79/79/79
