g pb_Mesh408090
v 0 19 0
v -1 19 0
v 0 20 0
v -1 20 0
v -9 19 0
v -10 19 0
v -9 20 0
v -10 20 0
v -1 19 0
v -9 19 0
v -1 20 0
v -9 20 0
v -1 19 -30
v 0 19 -30
v -1 20 -30
v 0 20 -30
v -10 19 -30
v -9 19 -30
v -10 20 -30
v -9 20 -30
v -9 19 -30
v -1 19 -30
v -9 20 -30
v -1 20 -30
v 0 0 0
v -1 0 0
v -1 9.5 0
v 0 9.5 0
v -9 0 0
v -10 0 0
v -10 9.5 0
v -9 9.5 0
v -1 9.5 -30
v 0 0 -30
v 0 9.5 -30
v -1 0 -30
v -10 9.5 -30
v -9 0 -30
v -9 9.5 -30
v -10 0 -30
v -1 14.25 0
v 0 14.25 0
v -1 19 0
v 0 19 0
v -10 14.25 0
v -9 14.25 0
v -10 19 0
v -9 19 0
v -1 14.25 -30
v 0 14.25 -30
v -1 19 -30
v 0 19 -30
v -10 14.25 -30
v -9 14.25 -30
v -10 19 -30
v -9 19 -30
v -1 19 -7.5
v -9 19 -15
v -9 19 -7.5
v -1 19 -15
v -1 19 0
v -9 19 0
v -9 9.5 -7.5
v -9 0 0
v -9 9.5 0
v -9 0 -7.5
v -9 9.5 -15
v -9 0 -15
v -1 0 0
v -1 0 -7.5
v -1 9.5 -7.5
v -1 9.5 0
v -1 0 -15
v -1 9.5 -15
v -9 14.25 -7.5
v -9 14.25 0
v -9 14.25 -15
v -9 19 -7.5
v -9 19 0
v -9 19 -15
v -1 14.25 -7.5
v -1 14.25 0
v -1 14.25 -15
v -1 19 -7.5
v -1 19 0
v -1 19 -15
v -1 19 -22.5
v -9 19 -30
v -9 19 -22.5
v -1 19 -30
v -9 9.5 -22.5
v -9 0 -22.5
v -9 9.5 -30
v -9 0 -30
v -1 0 -22.5
v -1 9.5 -22.5
v -1 0 -30
v -1 9.5 -30
v -9 14.25 -22.5
v -9 14.25 -30
v -9 19 -22.5
v -9 19 -30
v -1 14.25 -22.5
v -1 14.25 -30
v -1 19 -22.5
v -1 19 -30
vt -0.375 19.375
vt -0.625 19.375
vt -0.375 19.625
vt -0.625 19.625
vt -9.375 19.375
vt -9.625 19.375
vt -9.375 19.625
vt -9.625 19.625
vt -4 19.375
vt -6 19.375
vt -4 19.625
vt -6 19.625
vt 0.625 19.375
vt 0.375 19.375
vt 0.625 19.625
vt 0.375 19.625
vt 9.625 19.375
vt 9.375 19.375
vt 9.625 19.625
vt 9.375 19.625
vt 6 19.375
vt 4 19.375
vt 6 19.625
vt 4 19.625
vt -0.375 7.125
vt -0.625 7.125
vt -0.625 9.5
vt -0.375 9.5
vt -9.375 7.125
vt -9.625 7.125
vt -9.625 9.5
vt -9.375 9.5
vt -0.625 9.5
vt -0.375 7.125
vt -0.375 9.5
vt -0.625 7.125
vt -9.625 9.5
vt -9.375 7.125
vt -9.375 9.5
vt -9.625 7.125
vt -0.625 10.6875
vt -0.375 10.6875
vt -0.625 11.875
vt -0.375 11.875
vt -9.625 10.6875
vt -9.375 10.6875
vt -9.625 11.875
vt -9.375 11.875
vt -0.625 10.6875
vt -0.375 10.6875
vt -0.625 11.875
vt -0.375 11.875
vt -9.625 10.6875
vt -9.375 10.6875
vt -9.625 11.875
vt -9.375 11.875
vt 4 -13.125
vt 6 -15
vt 6 -13.125
vt 4 -15
vt 4 -11.25
vt 6 -11.25
vt -13.125 9.5
vt -11.25 7.125
vt -11.25 9.5
vt -13.125 7.125
vt -15 9.5
vt -15 7.125
vt -11.25 7.125
vt -13.125 7.125
vt -13.125 9.5
vt -11.25 9.5
vt -15 7.125
vt -15 9.5
vt -13.125 10.6875
vt -11.25 10.6875
vt -15 10.6875
vt -13.125 11.875
vt -11.25 11.875
vt -15 11.875
vt -13.125 10.6875
vt -11.25 10.6875
vt -15 10.6875
vt -13.125 11.875
vt -11.25 11.875
vt -15 11.875
vt 4 -16.875
vt 6 -18.75
vt 6 -16.875
vt 4 -18.75
vt -16.875 9.5
vt -16.875 7.125
vt -18.75 9.5
vt -18.75 7.125
vt -16.875 7.125
vt -16.875 9.5
vt -18.75 7.125
vt -18.75 9.5
vt -16.875 10.6875
vt -18.75 10.6875
vt -16.875 11.875
vt -18.75 11.875
vt -16.875 10.6875
vt -18.75 10.6875
vt -16.875 11.875
vt -18.75 11.875
vn 0 0 1
vn 0 0 1
vn 0 0 1
vn 0 0 1
vn 0 0 1
vn 0 0 1
vn 0 0 1
vn 0 0 1
vn 0 0 1
vn 0 0 1
vn 0 0 1
vn 0 0 1
vn 0 0 -1
vn 0 0 -1
vn 0 0 -1
vn 0 0 -1
vn 0 0 -1
vn 0 0 -1
vn 0 0 -1
vn 0 0 -1
vn 0 0 -1
vn 0 0 -1
vn 0 0 -1
vn 0 0 -1
vn 0 0 1
vn 0 0 1
vn 0 0 1
vn 0 0 1
vn 0 0 1
vn 0 0 1
vn 0 0 1
vn 0 0 1
vn 0 0 -1
vn 0 0 -1
vn 0 0 -1
vn 0 0 -1
vn 0 0 -1
vn 0 0 -1
vn 0 0 -1
vn 0 0 -1
vn 0 0 1
vn 0 0 1
vn 0 0 1
vn 0 0 1
vn 0 0 1
vn 0 0 1
vn 0 0 1
vn 0 0 1
vn 0 0 -1
vn 0 0 -1
vn 0 0 -1
vn 0 0 -1
vn 0 0 -1
vn 0 0 -1
vn 0 0 -1
vn 0 0 -1
vn 0 -1 0
vn 0 -1 0
vn 0 -1 0
vn 0 -1 0
vn 0 -1 0
vn 0 -1 0
vn 1 0 0
vn 1 0 0
vn 1 0 0
vn 1 0 0
vn 1 0 0
vn 1 0 0
vn -1 0 0
vn -1 0 0
vn -1 0 0
vn -1 0 0
vn -1 0 0
vn -1 0 0
vn 1 0 0
vn 1 0 0
vn 1 0 0
vn 1 0 0
vn 1 0 0
vn 1 0 0
vn -1 0 0
vn -1 0 0
vn -1 0 0
vn -1 0 0
vn -1 0 0
vn -1 0 0
vn 0 -1 0
vn 0 -1 0
vn 0 -1 0
vn 0 -1 0
vn 1 0 0
vn 1 0 0
vn 1 0 0
vn 1 0 0
vn -1 0 0
vn -1 0 0
vn -1 0 0
vn -1 0 0
vn 1 0 0
vn 1 0 0
vn 1 0 0
vn 1 0 0
vn -1 0 0
vn -1 0 0
vn -1 0 0
vn -1 0 0
g pb_Mesh408090_0
f 3/3/3 2/2/2 1/1/1
f 3/3/3 4/4/4 2/2/2
f 7/7/7 6/6/6 5/5/5
f 7/7/7 8/8/8 6/6/6
f 11/11/11 10/10/10 9/9/9
f 11/11/11 12/12/12 10/10/10
f 15/15/15 14/14/14 13/13/13
f 15/15/15 16/16/16 14/14/14
f 19/19/19 18/18/18 17/17/17
f 19/19/19 20/20/20 18/18/18
f 23/23/23 22/22/22 21/21/21
f 23/23/23 24/24/24 22/22/22
f 27/27/27 26/26/26 25/25/25
f 27/27/27 25/25/25 28/28/28
f 31/31/31 30/30/30 29/29/29
f 31/31/31 29/29/29 32/32/32
f 35/35/35 34/34/34 33/33/33
f 34/34/34 36/36/36 33/33/33
f 39/39/39 38/38/38 37/37/37
f 38/38/38 40/40/40 37/37/37
f 41/41/41 27/27/27 28/28/28
f 41/41/41 28/28/28 42/42/42
f 43/43/43 41/41/41 42/42/42
f 43/43/43 42/42/42 44/44/44
f 45/45/45 31/31/31 32/32/32
f 45/45/45 32/32/32 46/46/46
f 47/47/47 45/45/45 46/46/46
f 47/47/47 46/46/46 48/48/48
f 50/50/50 35/35/35 49/49/49
f 35/35/35 33/33/33 49/49/49
f 52/52/52 50/50/50 51/51/51
f 50/50/50 49/49/49 51/51/51
f 54/54/54 39/39/39 53/53/53
f 39/39/39 37/37/37 53/53/53
f 56/56/56 54/54/54 55/55/55
f 54/54/54 53/53/53 55/55/55
f 59/59/59 58/58/58 57/57/57
f 58/58/58 60/60/60 57/57/57
f 62/62/62 59/59/59 61/61/61
f 59/59/59 57/57/57 61/61/61
f 65/65/65 64/64/64 63/63/63
f 64/64/64 66/66/66 63/63/63
f 63/63/63 66/66/66 67/67/67
f 66/66/66 68/68/68 67/67/67
f 71/71/71 70/70/70 69/69/69
f 71/71/71 69/69/69 72/72/72
f 74/74/74 73/73/73 70/70/70
f 74/74/74 70/70/70 71/71/71
f 76/76/76 65/65/65 75/75/75
f 65/65/65 63/63/63 75/75/75
f 75/75/75 63/63/63 77/77/77
f 63/63/63 67/67/67 77/77/77
f 79/79/79 76/76/76 78/78/78
f 76/76/76 75/75/75 78/78/78
f 78/78/78 75/75/75 80/80/80
f 75/75/75 77/77/77 80/80/80
f 81/81/81 71/71/71 72/72/72
f 81/81/81 72/72/72 82/82/82
f 83/83/83 74/74/74 71/71/71
f 83/83/83 71/71/71 81/81/81
f 84/84/84 81/81/81 82/82/82
f 84/84/84 82/82/82 85/85/85
f 86/86/86 83/83/83 81/81/81
f 86/86/86 81/81/81 84/84/84
f 89/89/89 88/88/88 87/87/87
f 88/88/88 90/90/90 87/87/87
f 58/58/58 89/89/89 60/60/60
f 89/89/89 87/87/87 60/60/60
f 67/67/67 68/68/68 91/91/91
f 68/68/68 92/92/92 91/91/91
f 91/91/91 92/92/92 93/93/93
f 92/92/92 94/94/94 93/93/93
f 96/96/96 95/95/95 73/73/73
f 96/96/96 73/73/73 74/74/74
f 98/98/98 97/97/97 95/95/95
f 98/98/98 95/95/95 96/96/96
f 77/77/77 67/67/67 99/99/99
f 67/67/67 91/91/91 99/99/99
f 99/99/99 91/91/91 100/100/100
f 91/91/91 93/93/93 100/100/100
f 80/80/80 77/77/77 101/101/101
f 77/77/77 99/99/99 101/101/101
f 101/101/101 99/99/99 102/102/102
f 99/99/99 100/100/100 102/102/102
f 103/103/103 96/96/96 74/74/74
f 103/103/103 74/74/74 83/83/83
f 104/104/104 98/98/98 96/96/96
f 104/104/104 96/96/96 103/103/103
f 105/105/105 103/103/103 83/83/83
f 105/105/105 83/83/83 86/86/86
f 106/106/106 104/104/104 103/103/103
f 106/106/106 103/103/103 105/105/105
