g pb_Mesh218868
v 0.75 0 0.75
v -0.75 0 0.75
v 2 4 1
v -2 4 1
v -0.75 0 0.75
v -0.75 0 -0.75
v -2 4 1
v -2 4 -1
v -0.75 0 -0.75
v 0.75 0 -0.75
v -2 4 -1
v 2 4 -1
v 0.75 0 -0.75
v 0.75 0 0.75
v 2 4 -1
v 2 4 1
v 0.75 0 -0.75
v -0.75 0 -0.75
v 0.75 0 0.75
v -0.75 0 0.75
v 2 4 1
v -2 4 1
v 2 10 2
v -2 10 2
v -2 4 -1
v 2 4 -1
v -2 10 -2
v 2 10 -2
v 2 4 -1
v 2 4 1
v 3 4 -4
v -2 4 1
v -2 4 -1
v -3 4 4
v -3 4 -4
v -2 4 -1
v -2 10 -2
v -2 4 -4
v -2 11 -5
v -2 4 -1
v -2 4 -4
v -3 4 -4
v 2 10 -2
v 2 4 -1
v 2 11 -5
v 2 4 -4
v 2 4 -1
v 3 4 -4
v 2 4 -4
v -2 10 2
v -2 4 1
v -2 11 5
v -2 4 4
v -2 4 1
v -3 4 4
v -2 4 4
v 2 4 1
v 2 10 2
v 2 4 4
v 2 11 5
v 3 4 4
v 2 4 4
v -2 10 2
v -2 11 5
v -2 11 2
v -2 11 -5
v -2 10 -2
v -2 11 -2
v 2 10 -2
v 2 11 -5
v 2 11 -2
v 2 11 5
v 2 10 2
v 2 11 2
v 2 10 2
v -2 10 2
v 0.5 10 0.5
v -0.5 10 0.5
v 2 10 -2
v 2 10 2
v 0.5 10 -0.5
v 0.5 10 0.5
v -2 10 2
v -2 10 -2
v -0.5 10 0.5
v -0.5 10 -0.5
v -2 10 -2
v 2 10 -2
v -0.5 10 -0.5
v 0.5 10 -0.5
v 2 10 2
v 2 10 -2
v 1 10 2
v 1 10 -2
v 2 11 2
v 2 10 2
v 1 10 2
v 2 10 -2
v 2 11 -2
v 1 10 -2
v 2 11 -2
v 2 11 2
v 1 10 -2
v 1 10 2
v -2 10 -2
v -2 10 2
v -1 10 -2
v -1 10 2
v -2 11 -2
v -2 10 -2
v -1 10 -2
v -2 10 2
v -2 11 2
v -1 10 2
v -2 11 2
v -2 11 -2
v -1 10 2
v -1 10 -2
v 1 66.5 2
v -1 66.5 2
v 1 70 1.5
v -1 70 1.5
v -3 4 4
v -3 4 -4
v -11 11 -5
v 2 11 -5
v 2 4 -4
v 11 11 -5
v 3 4 -4
v 2 4 4
v 2 11 5
v 3 4 4
v 11 11 5
v -2 11 5
v -2 4 4
v -11 11 5
v -3 4 4
v -2 4 -4
v -2 11 -5
v -3 4 -4
v -11 11 -5
v -11 11 5
v 11 11 -5
v 3 4 -4
v 11 11 5
v 3 4 4
v 1 66.5 -2
v 1 66.5 2
v 1 70 -2
v 1 70 1.5
v -1 66.5 2
v -1 66.5 -2
v -1 70 1.5
v -1 70 -2
v -2 11 5
v -11 11 5
v -2 11 2
v -11 11 5
v -2 11 -2
v -2 11 2
v -11 11 -5
v -2 11 -5
v -2 11 -2
v -11 11 5
v -11 11 -5
v -2 11 -2
v 2 11 -5
v 11 11 -5
v 2 11 -2
v 2 11 2
v 2 11 -2
v 11 11 -5
v 11 11 5
v 2 11 5
v 2 11 5
v 2 11 2
v 11 11 -5
vt -0.4999792 3.999992
vt -0.9999791 3.999992
vt -0.5 4.5
vt -1 4.5
vt 2.285838E-05 4.000002
vt -0.4999771 4.000002
vt 0 4.499997
vt -0.5 4.499997
vt -0.9999771 3.999998
vt -0.4999771 3.999998
vt -1 4.5
vt -0.5 4.5
vt 2.083182E-05 4.000008
vt -0.4999792 3.999997
vt 0 4.500009
vt -0.5 4.499997
vt 0.75 -0.75
vt -0.75 -0.75
vt 0.75 0.75
vt -0.75 0.75
vt -0.5000004 7.000001
vt -1.5 7.000001
vt -0.4999995 8.5
vt -1.5 8.5
vt -0.5000004 7.000001
vt -1.5 7.000001
vt -0.4999995 8.5
vt -1.5 8.5
vt 42.00006 1.687506
vt 42.00006 1.812506
vt 42.50006 1.500005
vt 41.99986 1.812519
vt 42.0001 1.687519
vt 41.49949 1.999989
vt 41.50047 1.499989
vt 20 16
vt 20 18.99999
vt 20.99991 16
vt 20.99991 19.99999
vt 42.00006 1.687523
vt 42.00051 1.500023
vt 41.50051 1.499985
vt 19 19
vt 19 16
vt 18 20
vt 18 16
vt 42.00019 1.687516
vt 42.49994 1.499995
vt 41.99994 1.500016
vt 19 19
vt 19 16
vt 18 20
vt 18 16
vt 41.9998 1.812515
vt 41.49954 1.999993
vt 41.99954 2.000015
vt 20 16
vt 20 18.99999
vt 20.99991 16
vt 20.99991 19.99999
vt 42.50006 2.000005
vt 42.00006 2.000006
vt 19 19
vt 18 20
vt 19 20
vt 21.00009 19.99948
vt 19.99983 19.00051
vt 20.00017 20.00051
vt 19 19
vt 18 20
vt 19 20
vt 20.99991 19.99999
vt 20 18.99999
vt 20 19.99999
vt -1 1.625
vt 1 1.625
vt -0.25 0.875
vt 0.25 0.875
vt -1.625 -1
vt -1.625 1
vt -0.875 -0.25
vt -0.875 0.25
vt 1.625 1
vt 1.625 -1
vt 0.875 0.25
vt 0.875 -0.25
vt 1 -1.625
vt -1 -1.625
vt 0.25 -0.875
vt -0.25 -0.875
vt 2 2
vt 2 -2
vt 1 2
vt 1 -2
vt 1.75 10.75
vt 1.75 10.25
vt 1.25 10.25
vt -1.75 10.25
vt -1.75 10.75
vt -1.25 10.25
vt -8.838835 -1
vt -8.838835 1
vt -8.131729 -1
vt -8.131729 1
vt -2 -2
vt -2 2
vt -1 -2
vt -1 2
vt 1.75 10.75
vt 1.75 10.25
vt 1.25 10.25
vt -1.75 10.25
vt -1.75 10.75
vt -1.25 10.25
vt 8.838835 1
vt 8.838835 -1
vt 8.131729 1
vt 8.131729 -1
vt -18.5 68
vt -19 68
vt -18.5 69
vt -19 69
vt -3.499023 -6.5
vt -3.999023 -6.5
vt -3.999023 -6
vt -17 19.99999
vt -17 19.50001
vt -16.625 20
vt -16.875 19.50002
vt -17 19.49998
vt -17 19.99996
vt -16.875 19.5
vt -16.625 20
vt -17 19.99999
vt -17 19.50001
vt -16.625 20
vt -16.875 19.50002
vt -17 19.49998
vt -17 19.99996
vt -16.875 19.5
vt -16.625 20
vt -3.499023 -6
vt -6 -5
vt -6 -5.5
vt -6.5 -5
vt -6.5 -5.5
vt -21 68
vt -22 68
vt -21 69
vt -22 69
vt -19.5 68
vt -20.5 68
vt -19.5 69
vt -20.5 69
vt -4.49707 -6.5
vt -5.000977 -6.5
vt -4.49707 -6.375
vt -5.000977 -6.5
vt -4.49707 -6.125
vt -4.49707 -6.375
vt -5.000977 -6
vt -4.49707 -6
vt -4.49707 -6.125
vt -5.000977 -6.5
vt -5.000977 -6
vt -4.49707 -6.125
vt -5.5 -5
vt -5 -5
vt -5.5 -5.125
vt -5.5 -5.3125
vt -5.5 -5.125
vt -5 -5
vt -5 -5.5
vt -5.5 -5.5
vt -5.5 -5.5
vt -5.5 -5.3125
vt -5 -5
vn 0 -0.06237829 0.9980526
vn 0 -0.06237829 0.9980526
vn 0 -0.06237829 0.9980526
vn 0 -0.06237829 0.9980526
vn -0.9544799 -0.298275 0
vn -0.95448 -0.298275 0
vn -0.95448 -0.298275 0
vn -0.95448 -0.298275 0
vn 0 -0.06237829 -0.9980526
vn 0 -0.06237829 -0.9980526
vn 0 -0.06237829 -0.9980526
vn 0 -0.06237829 -0.9980526
vn 0.9544799 -0.298275 0
vn 0.95448 -0.298275 0
vn 0.95448 -0.298275 0
vn 0.95448 -0.298275 0
vn 0 -1 0
vn 0 -1 0
vn 0 -1 0
vn 0 -1 0
vn 0 -0.164399 0.9863939
vn 0 -0.164399 0.9863939
vn 0 -0.164399 0.9863939
vn 0 -0.164399 0.9863939
vn 0 -0.164399 -0.9863939
vn 0 -0.164399 -0.9863939
vn 0 -0.164399 -0.9863939
vn 0 -0.164399 -0.9863939
vn 0 -1 0
vn 0 -1 0
vn 0 -1 0
vn 0 -1 0
vn 0 -1 0
vn 0 -1 0
vn 0 -1 0
vn 1 0 0
vn 1 0 0
vn 1 0 0
vn 1 0 0
vn 0 -1 0
vn 0 -1 0
vn 0 -1 0
vn -1 0 0
vn -1 0 0
vn -1 0 0
vn -1 0 0
vn 0 -1 0
vn 0 -1 0
vn 0 -1 0
vn 1 0 0
vn 1 0 0
vn 1 0 0
vn 1 0 0
vn 0 -1 0
vn 0 -1 0
vn 0 -1 0
vn -1 0 0
vn -1 0 0
vn -1 0 0
vn -1 0 0
vn 0 -1 0
vn 0 -1 0
vn 1 0 0
vn 1 0 0
vn 1 0 0
vn 1 0 0
vn 1 0 0
vn 1 0 0
vn -1 0 0
vn -1 0 0
vn -1 0 0
vn -1 0 0
vn -1 0 0
vn -1 0 0
vn 0 1 0
vn 0 1 0
vn 0 1 0
vn 0 1 0
vn 0 1 0
vn 0 1 0
vn 0 1 0
vn 0 1 0
vn 0 1 0
vn 0 1 0
vn 0 1 0
vn 0 1 0
vn 0 1 0
vn 0 1 0
vn 0 1 0
vn 0 1 0
vn 0 -1 0
vn 0 -1 0
vn 0 -1 0
vn 0 -1 0
vn 0 0 1
vn 0 0 1
vn 0 0 1
vn 0 0 -1
vn 0 0 -1
vn 0 0 -1
vn -0.7071068 0.7071068 0
vn -0.7071068 0.7071068 0
vn -0.7071068 0.7071068 0
vn -0.7071068 0.7071068 0
vn 0 -1 0
vn 0 -1 0
vn 0 -1 0
vn 0 -1 0
vn 0 0 -1
vn 0 0 -1
vn 0 0 -1
vn 0 0 1
vn 0 0 1
vn 0 0 1
vn 0.7071068 0.7071068 0
vn 0.7071068 0.7071068 0
vn 0.7071068 0.7071068 0
vn 0.7071068 0.7071068 0
vn 0 0.1414214 0.9899495
vn 0 0.1414214 0.9899495
vn 0 0.1414214 0.9899495
vn 0 0.1414214 0.9899495
vn -0.6585046 -0.7525767 0
vn -0.6585046 -0.7525767 0
vn -0.6585046 -0.7525767 0
vn 0 -0.1414214 -0.9899495
vn 0 -0.1414214 -0.9899495
vn 0 -0.1414214 -0.9899495
vn 0 -0.1414214 -0.9899495
vn 0 -0.1414214 0.9899495
vn 0 -0.1414214 0.9899495
vn 0 -0.1414214 0.9899495
vn 0 -0.1414214 0.9899495
vn 0 -0.1414214 0.9899495
vn 0 -0.1414214 0.9899495
vn 0 -0.1414214 0.9899495
vn 0 -0.1414214 0.9899495
vn 0 -0.1414214 -0.9899495
vn 0 -0.1414214 -0.9899495
vn 0 -0.1414214 -0.9899495
vn 0 -0.1414214 -0.9899495
vn -0.6585046 -0.7525766 0
vn 0.6585046 -0.7525766 0
vn 0.6585046 -0.7525767 0
vn 0.6585046 -0.7525767 0
vn 0.6585046 -0.7525767 0
vn 1 0 0
vn 1 0 0
vn 1 0 0
vn 1 0 0
vn -1 0 0
vn -1 0 0
vn -1 0 0
vn -1 0 0
vn 0 1 0
vn 0 1 0
vn 0 1 0
vn 0 1 0
vn 0 1 0
vn 0 1 0
vn 0 1 0
vn 0 1 0
vn 0 1 0
vn 0 1 0
vn 0 1 0
vn 0 1 0
vn 0 1 0
vn 0 1 0
vn 0 1 0
vn 0 1 0
vn 0 1 0
vn 0 1 0
vn 0 1 0
vn 0 1 0
vn 0 1 0
vn 0 1 0
vn 0 1 0
g pb_Mesh218868_0
f 3/3/3 2/2/2 1/1/1
f 3/3/3 4/4/4 2/2/2
f 7/7/7 6/6/6 5/5/5
f 7/7/7 8/8/8 6/6/6
f 11/11/11 10/10/10 9/9/9
f 11/11/11 12/12/12 10/10/10
f 15/15/15 14/14/14 13/13/13
f 15/15/15 16/16/16 14/14/14
g pb_Mesh218868_1
f 19/19/19 18/18/18 17/17/17
f 19/19/19 20/20/20 18/18/18
f 23/23/23 22/22/22 21/21/21
f 23/23/23 24/24/24 22/22/22
f 27/27/27 26/26/26 25/25/25
f 27/27/27 28/28/28 26/26/26
f 31/31/31 30/30/30 29/29/29
f 34/34/34 33/33/33 32/32/32
f 34/34/34 35/35/35 33/33/33
f 38/38/38 37/37/37 36/36/36
f 38/38/38 39/39/39 37/37/37
f 42/42/42 41/41/41 40/40/40
f 45/45/45 44/44/44 43/43/43
f 45/45/45 46/46/46 44/44/44
f 49/49/49 48/48/48 47/47/47
f 52/52/52 51/51/51 50/50/50
f 52/52/52 53/53/53 51/51/51
f 56/56/56 55/55/55 54/54/54
f 59/59/59 58/58/58 57/57/57
f 59/59/59 60/60/60 58/58/58
f 61/61/61 30/30/30 31/31/31
f 61/61/61 62/62/62 30/30/30
f 65/65/65 64/64/64 63/63/63
f 68/68/68 67/67/67 66/66/66
f 71/71/71 70/70/70 69/69/69
f 74/74/74 73/73/73 72/72/72
f 77/77/77 76/76/76 75/75/75
f 77/77/77 78/78/78 76/76/76
f 81/81/81 80/80/80 79/79/79
f 81/81/81 82/82/82 80/80/80
f 85/85/85 84/84/84 83/83/83
f 85/85/85 86/86/86 84/84/84
f 89/89/89 88/88/88 87/87/87
f 89/89/89 90/90/90 88/88/88
f 93/93/93 92/92/92 91/91/91
f 93/93/93 94/94/94 92/92/92
f 97/97/97 96/96/96 95/95/95
f 100/100/100 99/99/99 98/98/98
f 103/103/103 102/102/102 101/101/101
f 103/103/103 104/104/104 102/102/102
f 107/107/107 106/106/106 105/105/105
f 107/107/107 108/108/108 106/106/106
f 111/111/111 110/110/110 109/109/109
f 114/114/114 113/113/113 112/112/112
f 117/117/117 116/116/116 115/115/115
f 117/117/117 118/118/118 116/116/116
f 121/121/121 120/120/120 119/119/119
f 121/121/121 122/122/122 120/120/120
g pb_Mesh218868_2
f 125/125/125 124/124/124 123/123/123
f 128/128/128 127/127/127 126/126/126
f 128/128/128 129/129/129 127/127/127
f 132/132/132 131/131/131 130/130/130
f 132/132/132 133/133/133 131/131/131
f 136/136/136 135/135/135 134/134/134
f 136/136/136 137/137/137 135/135/135
f 140/140/140 139/139/139 138/138/138
f 140/140/140 141/141/141 139/139/139
f 123/123/123 142/142/142 125/125/125
f 145/145/145 144/144/144 143/143/143
f 145/145/145 146/146/146 144/144/144
f 149/149/149 148/148/148 147/147/147
f 149/149/149 150/150/150 148/148/148
f 153/153/153 152/152/152 151/151/151
f 153/153/153 154/154/154 152/152/152
f 157/157/157 156/156/156 155/155/155
f 160/160/160 159/159/159 158/158/158
f 163/163/163 162/162/162 161/161/161
f 166/166/166 165/165/165 164/164/164
f 169/169/169 168/168/168 167/167/167
f 172/172/172 171/171/171 170/170/170
f 168/168/168 174/174/174 173/173/173
f 177/177/177 176/176/176 175/175/175
