g pb_Mesh24754
v -0.09999847 -0.004226685 -0.9692535
v 0 -0.004226685 -0.9692535
v -0.05000305 0.0443573 -1.056656
v -0.1 0 -0.7239151
v -0.05 0.1 -0.8035889
v -0.3839181 0.2441986 -0.7239151
v -0.05 0.1 -0.8035889
v 0 0 -0.7239151
v 0.283918 0.2441986 -0.7239151
v -0.1 0.1 -0.5130119
v -0.05 0.1 -0.8035889
v 0 0.1 -0.5130119
v -0.1 0.1 -0.5130119
v 0 0.1 -0.5130119
v -0.05 0.05 -0.3021088
v -0.3839181 0.2441986 -0.7239151
v -0.05 0.1 -0.8035889
v -0.1 0.1 -0.5130119
v -0.3839181 0.2941986 -0.5130119
v -0.3839181 0.2941986 -0.5130119
v -0.1 0.1 -0.5130119
v -0.05 0.05 -0.3021088
v -0.3839181 0.2441986 -0.3021088
v -0.05 0.1 -0.8035889
v 0.283918 0.2441986 -0.7239151
v 0.283918 0.2941986 -0.5130119
v 0 0.1 -0.5130119
v 0 0.1 -0.5130119
v 0.283918 0.2941986 -0.5130119
v 0.283918 0.2441986 -0.3021088
v -0.05 0.05 -0.3021088
v -0.3839181 0.2441986 -0.7239151
v -0.3839181 0.2941986 -0.5130119
v -0.7369232 0.1941986 -0.3751917
v -0.7369232 0.1941986 -0.1649399
v -0.3839181 0.2941986 -0.5130119
v -0.3839181 0.2441986 -0.3021088
v -0.7369232 0.1941986 -0.1649399
v -0.7369232 0.1941986 0.04531199
v 0.283918 0.2441986 -0.7239151
v 0.6369231 0.1941986 -0.3751917
v 0.283918 0.2941986 -0.5130119
v 0.6369231 0.1941986 -0.1649399
v 0.283918 0.2941986 -0.5130119
v 0.6369231 0.1941986 -0.1649399
v 0.283918 0.2441986 -0.3021088
v 0.6369231 0.1941986 0.04531199
v -0.1 0 -0.7239151
v 0 0 -0.7239151
v -0.09999847 -0.004226685 -0.9692535
v 0 -0.004226685 -0.9692535
v 0 0 -0.7239151
v -0.05 0.1 -0.8035889
v 0 -0.004226685 -0.9692535
v -0.05000305 0.0443573 -1.056656
v -0.05 0.1 -0.8035889
v -0.1 0 -0.7239151
v -0.05000305 0.0443573 -1.056656
v -0.09999847 -0.004226685 -0.9692535
v -0.025 0.025 -0.5130119
v 0 0 -0.7239151
v -0.1 0 -0.7239151
v -0.075 0.025 -0.5130119
v -0.05 0.05 -0.3021088
v -0.075 0.025 -0.5130119
v -0.1 0 -0.7239151
v -0.3839181 0.2441986 -0.5130119
v -0.3839181 0.2441986 -0.7239151
v -0.05 0.05 -0.3021088
v -0.075 0.025 -0.5130119
v -0.3839181 0.2441986 -0.3021088
v -0.3839181 0.2441986 -0.5130119
v 0.283918 0.2441986 -0.3021088
v -0.025 0.025 -0.5130119
v -0.05 0.05 -0.3021088
v 0.283918 0.2441986 -0.5130119
v 0.283918 0.2441986 -0.5130119
v 0 0 -0.7239151
v -0.025 0.025 -0.5130119
v 0.283918 0.2441986 -0.7239151
v -0.3839181 0.2441986 -0.5130119
v -0.7369232 0.1941986 -0.3751917
v -0.7369232 0.1941986 -0.1649399
v -0.3839181 0.2441986 -0.7239151
v -0.3839181 0.2441986 -0.3021088
v -0.7369232 0.1941986 0.04531199
v 0.6369231 0.1941986 -0.1649399
v 0.6369231 0.1941986 -0.3751917
v 0.283918 0.2441986 -0.5130119
v 0.283918 0.2441986 -0.7239151
v 0.6369231 0.1941986 0.04531199
v 0.283918 0.2441986 -0.3021088
vt -0.09999847 -0.8451149
vt 0 -0.8451149
vt -0.05000305 -0.9451127
vt -0.2226538 0.3124898
vt -0.3021744 0.4244022
vt 0.03338509 0.5857782
vt 0.392355 0.4050011
vt 0.3128344 0.2930887
vt 0.05679553 0.5663771
vt 0.1 -0.5197852
vt 0.05 -0.8092518
vt -2.34811E-12 -0.5197852
vt 0.1 -0.5197852
vt -2.34811E-12 -0.5197852
vt 0.05 -0.3053211
vt 0.4547615 -0.7237367
vt 0.09394057 -0.8056255
vt 0.136978 -0.5141338
vt 0.480213 -0.5152773
vt 0.480213 -0.5152773
vt 0.136978 -0.5141338
vt 0.06848898 -0.3026114
vt 0.4547615 -0.302469
vt -0.007865799 -0.8081973
vt -0.3686866 -0.7263085
vt -0.3941382 -0.517849
vt -0.05090318 -0.5167056
vt -0.05090318 -0.5167056
vt -0.3941382 -0.517849
vt -0.3686866 -0.3050408
vt 0.01758579 -0.3051833
vt 0.3247858 -0.7239151
vt 0.3143947 -0.5130119
vt 0.6804747 -0.3751917
vt 0.6804747 -0.1649399
vt 0.3143947 -0.5130119
vt 0.3247858 -0.3021088
vt 0.6804747 -0.1649399
vt 0.6804747 0.04531198
vt -0.2269691 -0.7239151
vt -0.5826579 -0.3751917
vt -0.2165779 -0.5130119
vt -0.5826579 -0.1649399
vt -0.2165779 -0.5130119
vt -0.5826579 -0.1649399
vt -0.2269691 -0.3021088
vt -0.5826579 0.04531199
vt -0.1 -0.7238077
vt 0 -0.7238077
vt -0.09999847 -0.9691826
vt 0 -0.9691826
vt 0.723889 -0.002720875
vt 0.8039848 0.1087806
vt 0.9692186 -0.007433691
vt 1.057043 0.05792769
vt -0.7954397 0.04346736
vt -0.7114556 -0.06513552
vt -1.047407 -0.01696222
vt -0.9557279 -0.0779394
vt 0.025 -0.5065024
vt 0 -0.7188822
vt 0.1 -0.7188822
vt 0.075 -0.5065024
vt 0.05 -0.2941227
vt 0.07571849 -0.5131423
vt 0.08176968 -0.7261969
vt 0.4545013 -0.5130263
vt 0.4545013 -0.723214
vt 0.0696673 -0.3000878
vt 0.07571849 -0.5131423
vt 0.4545013 -0.3028387
vt 0.4545013 -0.5130263
vt -0.3727316 -0.298101
vt 0.006051181 -0.5084047
vt 0.01210236 -0.2953501
vt -0.3727316 -0.5082886
vt -0.3727316 -0.5082886
vt 0 -0.7214592
vt 0.006051181 -0.5084047
vt -0.3727316 -0.7184764
vt 0.3458773 -0.5130119
vt 0.7024058 -0.3751917
vt 0.7024058 -0.1649399
vt 0.3458773 -0.7239151
vt 0.3458773 -0.3021088
vt 0.7024058 0.04531199
vt -0.603394 -0.1649399
vt -0.603394 -0.3751917
vt -0.2468655 -0.5130119
vt -0.2468655 -0.7239151
vt -0.603394 0.04531199
vt -0.2468655 -0.3021088
vn 0 -0.8740421 -0.4858502
vn 0 -0.8740421 -0.4858502
vn 0 -0.8740421 -0.4858502
vn -0.3861435 -0.4489507 -0.8058141
vn -0.3861435 -0.4489507 -0.8058141
vn -0.3861435 -0.4489507 -0.8058141
vn 0.3861436 -0.4489507 -0.8058142
vn 0.3861436 -0.4489507 -0.8058142
vn 0.3861436 -0.4489507 -0.8058142
vn 0 0.9999999 0
vn 0 0.9999999 0
vn 0 0.9999999 0
vn 0 0.9730293 0.2306815
vn 0 0.9730293 0.2306815
vn 0 0.9730293 0.2306815
vn 0.4760052 0.8785262 -0.04013331
vn 0.4095916 0.9095424 0.07047901
vn 0.4760052 0.8785262 -0.04013331
vn 0.5540549 0.8100275 -0.1920378
vn 0.5272442 0.8387047 0.136338
vn 0.5634866 0.8238166 0.06171787
vn 0.5272442 0.8387047 0.136338
vn 0.4925009 0.846839 0.2007649
vn -0.4760053 0.8785262 -0.0401333
vn -0.3429985 0.9140013 -0.2166875
vn -0.4760053 0.8785262 -0.0401333
vn -0.5619177 0.8215227 0.09669001
vn -0.5272443 0.8387046 0.136338
vn -0.554055 0.8100274 0.1920378
vn -0.5272443 0.8387046 0.136338
vn -0.5008987 0.8612787 0.08543729
vn -0.3434579 0.9138381 -0.2166487
vn -0.311092 0.9437522 -0.1120433
vn -0.311092 0.9437522 -0.1120433
vn -0.2725569 0.9621396 0
vn -0.04812798 0.9719017 0.2304142
vn -0.09441921 0.98859 0.1173665
vn -0.09441921 0.98859 0.1173665
vn -0.1402412 0.9901173 0
vn 0.3434579 0.913838 -0.2166487
vn 0.311092 0.9437522 -0.1120433
vn 0.311092 0.9437522 -0.1120433
vn 0.2725568 0.9621396 0
vn 0.04812799 0.9719018 0.2304142
vn 0.09441921 0.9885899 0.1173665
vn 0.09441921 0.9885899 0.1173665
vn 0.1402412 0.9901173 0
vn 0 -0.9998516 0.01722542
vn 0 -0.9998516 0.01722542
vn 0 -0.9998516 0.01722542
vn 0 -0.9998515 0.01722542
vn 0.8968167 0.4423367 -0.007620567
vn 0.8585489 0.5090713 -0.06115584
vn 0.8585489 0.5090713 -0.06115584
vn 0.7980438 0.5885389 -0.1294137
vn -0.916784 0.3900681 -0.08575455
vn -0.8585631 0.5090487 -0.06114524
vn -0.8585631 0.5090487 -0.06114524
vn -0.7077243 0.7063838 -0.01217397
vn 0 -0.9930476 0.1177137
vn 0 -0.9930475 0.1177137
vn 0 -0.9930476 0.1177137
vn 0 -0.9930475 0.1177137
vn 0 -0.9930475 0.1177137
vn -0.5709432 -0.8046341 0.1630579
vn -0.613725 -0.7851545 0.08291005
vn -0.613725 -0.7851545 0.08291005
vn -0.6520839 -0.7581469 0
vn -0.4962622 -0.8533064 0.1599749
vn -0.5390869 -0.8382846 0.0816353
vn -0.5390869 -0.8382846 0.0816353
vn -0.5786881 -0.815549 0
vn 0.5390869 -0.8382846 0.08163526
vn 0.5390869 -0.8382846 0.08163526
vn 0.4962622 -0.8533064 0.1599748
vn 0.5786881 -0.815549 0
vn 0.6137251 -0.7851543 0.08291009
vn 0.6137251 -0.7851543 0.08291009
vn 0.5709432 -0.804634 0.163058
vn 0.6520839 -0.7581468 0
vn 0.1402412 -0.9901174 0
vn 0.1402412 -0.9901174 0
vn 0.1402412 -0.9901173 0
vn 0.1402412 -0.9901174 0
vn 0.1402412 -0.9901174 0
vn 0.1402412 -0.9901173 0
vn -0.1402412 -0.9901173 0
vn -0.1402412 -0.9901174 0
vn -0.1402412 -0.9901174 0
vn -0.1402412 -0.9901174 0
vn -0.1402412 -0.9901173 0
vn -0.1402412 -0.9901174 0
g pb_Mesh24754_0
f 3/3/3 2/2/2 1/1/1
f 6/6/6 5/5/5 4/4/4
f 9/9/9 8/8/8 7/7/7
f 12/12/12 11/11/11 10/10/10
f 15/15/15 14/14/14 13/13/13
f 18/18/18 17/17/17 16/16/16
f 18/18/18 16/16/16 19/19/19
f 22/22/22 21/21/21 20/20/20
f 22/22/22 20/20/20 23/23/23
f 26/26/26 25/25/25 24/24/24
f 26/26/26 24/24/24 27/27/27
f 30/30/30 29/29/29 28/28/28
f 30/30/30 28/28/28 31/31/31
f 34/34/34 33/33/33 32/32/32
f 33/33/33 34/34/34 35/35/35
f 38/38/38 37/37/37 36/36/36
f 37/37/37 38/38/38 39/39/39
f 42/42/42 41/41/41 40/40/40
f 43/43/43 41/41/41 42/42/42
f 46/46/46 45/45/45 44/44/44
f 47/47/47 45/45/45 46/46/46
f 50/50/50 49/49/49 48/48/48
f 50/50/50 51/51/51 49/49/49
f 54/54/54 53/53/53 52/52/52
f 54/54/54 55/55/55 53/53/53
f 58/58/58 57/57/57 56/56/56
f 58/58/58 59/59/59 57/57/57
f 62/62/62 61/61/61 60/60/60
f 62/62/62 60/60/60 63/63/63
f 60/60/60 64/64/64 63/63/63
f 67/67/67 66/66/66 65/65/65
f 67/67/67 68/68/68 66/66/66
f 71/71/71 70/70/70 69/69/69
f 71/71/71 72/72/72 70/70/70
f 75/75/75 74/74/74 73/73/73
f 74/74/74 76/76/76 73/73/73
f 79/79/79 78/78/78 77/77/77
f 78/78/78 80/80/80 77/77/77
f 83/83/83 82/82/82 81/81/81
f 84/84/84 81/81/81 82/82/82
f 86/86/86 83/83/83 85/85/85
f 81/81/81 85/85/85 83/83/83
f 89/89/89 88/88/88 87/87/87
f 90/90/90 88/88/88 89/89/89
f 92/92/92 87/87/87 91/91/91
f 89/89/89 87/87/87 92/92/92
