g pb_Mesh-159188
v 6.5 -53.19754 -2.99988
v 17.99994 -53.19753 -2.999912
v 17.99991 -53.19754 8.500031
v 17.99991 -53.19754 20.00003
v -5 -53.19754 -2.99988
v -27.99991 -53.19754 8.500031
v -27.99991 -53.19754 -2.999969
v -16.5 -53.19754 -2.99988
v -27.99991 -53.19754 20.00003
v -25.29611 -46.56632 34.58941
v -27.99991 -53.40831 31.50003
v -14.29617 -46.56633 34.58938
v -4.5 -46.56633 43.29972
v -4.5 -46.56633 43.29972
v -27.99991 -53.40831 31.50003
v 8 -46.56633 43.29972
v 17.99991 -53.40831 31.50003
v 17.99994 -46.56632 43.29975
v 6.5 -45.19754 -2.99988
v 17.99994 -45.19753 -2.999912
v 6.5 -53.19754 -2.99988
v 17.99994 -53.19753 -2.999912
v 17.99994 -45.19753 -2.999912
v 17.99991 -45.19754 8.500031
v 17.99994 -53.19753 -2.999912
v 17.99991 -53.19754 8.500031
v 17.99991 -45.19754 20.00003
v 17.99991 -53.19754 20.00003
v -5 -45.19754 -2.99988
v -5 -53.19754 -2.99988
v -27.99991 -45.19754 8.500031
v -27.99991 -45.19754 -2.999969
v -27.99991 -53.19754 8.500031
v -27.99991 -53.19754 -2.999969
v -27.99991 -45.19754 -2.999969
v -16.5 -45.19754 -2.99988
v -27.99991 -53.19754 -2.999969
v -16.5 -53.19754 -2.99988
v -27.99991 -45.19754 20.00003
v -27.99991 -53.19754 20.00003
v -25.29611 -44.56632 34.58941
v -27.99991 -45.19754 31.50003
v -25.29611 -46.56632 34.58941
v -27.99991 -53.40831 31.50003
v -14.29617 -44.56633 34.58938
v -25.29611 -44.56632 34.58941
v -14.29617 -46.56633 34.58938
v -25.29611 -46.56632 34.58941
v -4.5 -44.56633 43.29972
v -14.29617 -44.56633 34.58938
v -4.5 -46.56633 43.29972
v -14.29617 -46.56633 34.58938
v -27.99991 -45.19754 31.50003
v -27.99991 -53.40831 31.50003
v 8 -44.56633 43.29972
v -4.5 -44.56633 43.29972
v 8 -46.56633 43.29972
v -4.5 -46.56633 43.29972
v 17.99991 -45.19754 31.50003
v 17.99991 -53.40831 31.50003
v 17.99994 -44.56632 43.29975
v 17.99994 -46.56632 43.29975
v 17.99994 -44.56632 43.29975
v 8 -44.56633 43.29972
v 17.99994 -46.56632 43.29975
v 8 -46.56633 43.29972
vt -6.727879 -9.917302
vt -18.22772 -9.910897
vt -18.22768 1.49057
vt -18.22768 12.8921
vt 4.772015 -9.923737
vt 27.77172 1.464832
vt 27.77172 -9.936695
vt 16.27191 -9.930172
vt 27.77172 12.86636
vt 25.09635 28.19826
vt 27.77081 24.24036
vt 14.09651 28.20438
vt 4.300433 36.84561
vt 4.300433 36.84561
vt 27.77081 24.24036
vt -8.199452 36.85261
vt -18.22859 24.2661
vt -18.1993 36.85823
vt 6.500008 -45.19754
vt 17.99995 -45.19753
vt 6.500008 -53.19754
vt 17.99995 -53.19753
vt -2.999963 -45.19753
vt 8.49998 -45.19754
vt -2.999963 -53.19753
vt 8.49998 -53.19754
vt 20.00003 -45.19754
vt 20.00003 -53.19754
vt -5 -45.19754
vt -5 -53.19754
vt -8.500031 -45.19754
vt 2.999969 -45.19754
vt -8.500031 -53.19754
vt 2.999969 -53.19754
vt -27.99993 -45.19754
vt -16.50002 -45.19754
vt -27.99993 -53.19754
vt -16.50002 -53.19754
vt -20.00003 -45.19754
vt -20.00003 -53.19754
vt -9.369053 -44.56632
vt -5.263591 -45.19754
vt -9.369053 -46.56632
vt -5.263591 -53.40831
vt 14.29626 -44.56633
vt 25.29621 -44.56632
vt 14.29626 -46.56633
vt 25.29621 -46.56632
vt -25.40873 -44.56633
vt -12.30015 -44.56633
vt -25.40873 -46.56633
vt -12.30015 -46.56633
vt -31.50003 -45.19754
vt -31.50003 -53.40831
vt -8 -44.56633
vt 4.5 -44.56633
vt -8 -46.56633
vt 4.5 -46.56633
vt 31.50003 -45.19754
vt 31.50003 -53.40831
vt 43.2998 -44.56632
vt 43.2998 -46.56632
vt -18.00007 -44.56632
vt -8.000133 -44.56633
vt -18.00007 -46.56632
vt -8.000133 -46.56633
vn -3.317124E-07 1 3.317124E-07
vn -1.326854E-06 1 1.326854E-06
vn -6.634264E-07 1 6.634264E-07
vn 0.03051412 0.993026 -0.1138791
vn 0 1 0
vn 0 1 0
vn 0 1 0
vn 0 1 0
vn -0.02722374 0.9913428 -0.1284458
vn -1.95767E-06 0.4115266 -0.9113977
vn -0.08422742 0.8398994 -0.5361667
vn 0.363801 -0.3364623 -0.8685862
vn -0.04361813 0.9550907 -0.2930855
vn -0.04361813 0.9550907 -0.2930855
vn -0.08422742 0.8398994 -0.5361667
vn 0.04885662 0.9606567 -0.2734078
vn 0.3177083 0.9119725 -0.2595526
vn 2.107921E-07 0.8650899 -0.5016169
vn 2.757376E-06 0 1
vn 2.757376E-06 0 1
vn 2.757376E-06 0 1
vn 2.757376E-06 0 1
vn -1 0 -2.819573E-06
vn -1 0 -2.819573E-06
vn -1 0 -2.819573E-06
vn -1 0 -2.819573E-06
vn -1 0 0
vn -1 0 0
vn 0 0 1
vn 0 0 1
vn 1 0 0
vn 1 0 0
vn 1 0 0
vn 1 0 0
vn -7.77458E-06 0 1
vn -7.77458E-06 0 1
vn -7.77458E-06 0 1
vn -7.77458E-06 0 1
vn 1 0 0
vn 1 0 0
vn 0.7525054 0 -0.6585861
vn 0.7525054 0 -0.6585861
vn 0.7525054 0 -0.6585861
vn 0.7525054 0 -0.6585861
vn -2.77434E-06 0 -1
vn -2.77434E-06 0 -1
vn -2.77434E-06 0 -1
vn -2.77434E-06 0 -1
vn 0.6644759 0 -0.7473096
vn 0.6644759 0 -0.7473096
vn 0.6644759 0 -0.7473096
vn 0.6644759 0 -0.7473096
vn 1 0 0
vn 1 0 0
vn 0 0 -1
vn 0 0 -1
vn 0 0 -1
vn 0 0 -1
vn -1 0 0
vn -1 0 0
vn -1 0 2.747941E-06
vn -1 0 2.747941E-06
vn 3.051775E-06 0 -1
vn 3.051775E-06 0 -1
vn 3.051775E-06 0 -1
vn 3.051775E-06 0 -1
g pb_Mesh-159188_0
f 3/3/3 2/2/2 1/1/1
f 4/4/4 3/3/3 1/1/1
f 5/5/5 4/4/4 1/1/1
f 8/8/8 7/7/7 6/6/6
f 5/5/5 8/8/8 6/6/6
f 9/9/9 5/5/5 6/6/6
f 4/4/4 5/5/5 9/9/9
f 12/12/12 11/11/11 10/10/10
f 12/12/12 13/13/13 11/11/11
f 15/15/15 14/14/14 9/9/9
f 9/9/9 14/14/14 16/16/16
f 4/4/4 9/9/9 16/16/16
f 16/16/16 17/17/17 4/4/4
f 18/18/18 17/17/17 16/16/16
f 21/21/21 20/20/20 19/19/19
f 21/21/21 22/22/22 20/20/20
f 25/25/25 24/24/24 23/23/23
f 25/25/25 26/26/26 24/24/24
f 26/26/26 27/27/27 24/24/24
f 26/26/26 28/28/28 27/27/27
f 30/30/30 19/19/19 29/29/29
f 30/30/30 21/21/21 19/19/19
f 33/33/33 32/32/32 31/31/31
f 33/33/33 34/34/34 32/32/32
f 37/37/37 36/36/36 35/35/35
f 37/37/37 38/38/38 36/36/36
f 38/38/38 29/29/29 36/36/36
f 38/38/38 30/30/30 29/29/29
f 40/40/40 31/31/31 39/39/39
f 40/40/40 33/33/33 31/31/31
f 43/43/43 42/42/42 41/41/41
f 43/43/43 44/44/44 42/42/42
f 47/47/47 46/46/46 45/45/45
f 47/47/47 48/48/48 46/46/46
f 51/51/51 50/50/50 49/49/49
f 51/51/51 52/52/52 50/50/50
f 54/54/54 39/39/39 53/53/53
f 54/54/54 40/40/40 39/39/39
f 57/57/57 56/56/56 55/55/55
f 57/57/57 58/58/58 56/56/56
f 28/28/28 59/59/59 27/27/27
f 28/28/28 60/60/60 59/59/59
f 60/60/60 61/61/61 59/59/59
f 60/60/60 62/62/62 61/61/61
f 65/65/65 64/64/64 63/63/63
f 65/65/65 66/66/66 64/64/64
