g pb_Mesh21172
v -28.5 82 0
v -18.75 82 0
v -18.75 82 7
v -28.5 82 7
v -12.01379 82 7
v -9 82 0
v -9 82 7
v -38.25 82 0
v -38.25 82 5
v -38.25 82 -5
v -38.25 82 -10
v -28.5 82 -9.999985
v -28.5 82 -4.999985
v -18.75 82 -9.999985
v -18.75 82 -4.999985
v -9 82 -9.999969
v -9 82 -4.999985
v -9 41 9.999985
v -28.5 58.57143 10
v -9 82 9.999985
v -12.01379 82 9.999985
v -9 0 9.999985
v -28.5 0 10
v -48 82 10
v -25.99994 82 10.00008
v -18.75 82 9.999985
v -9 41 9.999985
v -9 82 -9.999969
v -9 0 -9.999985
v -9 0 9.999985
v -9 82 -4.999985
v -9 82 0
v -9 82 7
v -9 82 9.999985
v -18.75 82 7
v -25.99994 82 10.00008
v -28.5 82 7
v -18.75 82 9.999985
v -48 82 10
v -38.25 82 5
v -25.99994 82 10.00008
v -28.5 82 7
v -38.25 82 -10
v -48 82 -10
v -48 41 -10
v -28.5 82 -9.999985
v -18.75 82 -9.999985
v -9 82 -9.999969
v -9 0 -9.999985
v -48 0 -10
v -48 0 10
v -48 20.5 10
v -48 41 10
v -48 61.5 10
v -12.01379 82 9.999985
v -18.75 82 9.999985
v -12.01379 82 7
v -9 82 7
v -12.01379 96 7
v -9 96 6.999996
v -9 82 7
v -9 82 9.999985
v -9 96 6.999996
v -9 96 9.999985
v -12.01379 82 9.999985
v -12.01379 82 7
v -12.0069 96 9.999992
v -12.01379 96 7
v -9 96 9.999985
v -12.0069 96 9.999992
v -48 89 10
v -48 85 10
v -48 89 -3
v -48 85 -10
v -48 89 -10
v -48 89 -10
v -48 85 -10
v -37 89 -10
v -26 85 -10
v -27 89 -10
v -26 89 -10
v -48 89 -10
v -37 89 -10
v -37 89 -3
v -48 89 -3
v -31.5 89 -3
v -31.5 89 3
v -37 89 3
v -31.5 89 10
v -37 89 10
v -48 89 -3
v -37 89 3
v -48 89 10
v -26 85 10
v -26 89 3
v -26 85 3
v -26 89 10
v -26 89 -10
v -26 85 -3
v -25.9995 89 -3
v -26 85 -10
v -25.99991 82 3
v -26 85 10
v -26 85 3
v -25.99994 82 10.00008
v -25.99994 82 10.00008
v -48 85 10
v -26 85 10
v -48 82 10
v -48 82 10
v -48 82 -10
v -48 82 -10
v -26 85 -10
v -48 85 -10
v -25.99994 82 -10.00008
v -25.99994 82 -10.00008
v -26 85 -3
v -26 85 -10
v -25.99991 82 -3
v -26 89 10
v -26.99799 89 10
v -31.5 89 10
v -37 89 10
v -48 89 10
v -31.5 89 3
v -26.99799 89 3
v -26.99799 89 10
v -31.5 89 -3
v -26.99799 89 -3
v -26.99799 89 3
v -31.5 89 3
v -26 89 -3
v -26 89 3
v -26.99799 89 3
v -37 89 -10
v -31.5 89 -3
v -27 89 -10
v -26.9995 89 -3
v -25.9995 89 -3
v -26 89 -3
v -26.99799 89 -3
v -26.99799 89 3
v -26 89 3
v -26.99799 96 3
v -26 96 3
v -26 89 3
v -26 89 10
v -26 96 3
v -26 96 10
v -26.99799 89 10
v -26.99799 89 3
v -26.99799 96 10
v -26.99799 96 3
v -26 96 10
v -26.99799 96 10
v -27 99 -10
v -18 99 -10
v -18 99 -3
v -27 99 -3
v -9 99 -10
v -9 99 -3
v -9 96 0
v -18 96 -10
v -18 96 0
v -9 96 -10
v -27 96 -10
v -27 96 -3
v -27 99 -10
v -18 96 -10
v -18 99 -10
v -9 96 -10
v -9 99 -10
v -27 96 -10
v -24 89 -3
v -25.9995 89 -3
v -24 96 -3
v -26 96 -3
v -26 89 -4
v -24 89 -4
v -26 96 -4
v -24 96 -4
v -24 89 -4
v -24 89 -3
v -24 96 -4
v -24 96 -3
v -24 89 -4
v -26 89 -4
v -24 89 -3
v -25.9995 89 -3
v -24 89 4
v -26 89 4
v -24 96 4
v -26 96 4
v -26 89 3
v -24 89 3
v -26 96 3
v -24 96 3
v -24 89 3
v -24 89 4
v -24 96 3
v -24 96 4
v -24 89 3
v -26 89 3
v -24 89 4
v -26 89 4
v -9 96 9.999985
v -12.0069 96 9.999992
v -12 99 10
v -9 99 10
v -9 99 -10
v -9 96 0
v -9 99 -3
v -9 96 6.999996
v -9 99 7
v -9 96 -10
v -9 96 9.999985
v -9 99 10
v -18 99 10
v -18 99 -3
v -12 99 10
v -9 99 7
v -9 99 10
v -12.0069 96 9.999992
v -9 96 9.999985
v -9 96 6.999996
v -18 96 10
v -48 61.5 10
v -48 20.5 10
v -48 0 10
v -48 0 0
v -48 0 -10
v -48 41 -10
v -48 41 10
v -26 89 -10
v -25.9995 89 -3
v -26 96 -10
v -25.9995 96 -3
v -25.9995 89 -3
v -26.9995 89 -3
v -25.9995 96 -3
v -27 96 -3
v -26.9995 89 -3
v -27 89 -10
v -27 96 -3
v -27 96 -10
v -26 85 3
v -25.9995 89 -3
v -26 85 -3
v -26 89 3
v -18 96 10
v -26 96 10
v -26 99 10
v -18 99 10
v -26.99799 96 10
v -27 99 10
v -26.99799 96 10
v -26.99799 96 3
v -27 99 3
v -27 99 10
v -27 99 10
v -27 99 3
v -26 99 10
v -18 99 -3
v -18 99 10
v -26 96 10
v -26.99799 96 3
v -26.99799 96 10
v -27 96 -3
v -27 99 3
v -26.99799 96 3
v -27 99 -3
v -27 96 -3
v -27 96 -10
v -27 99 -10
v -28.5 0 10
v -9 0 9.999985
v -9 0 -9.999985
v -48 0 -10
v -48 0 0
v -48 0 10
vt 28.5 3.397465E-06
vt 27.28125 3.397465E-06
vt 27.28125 0.8691446
vt 28.5 0.8691449
vt 26.43922 0.8691444
vt 26.0625 3.397465E-06
vt 26.0625 0.8691443
vt 29.71875 3.367662E-06
vt 29.71875 0.6208188
vt 29.71875 -0.6208121
vt 29.71875 -1.241627
vt 28.5 -1.241627
vt 28.5 -0.6208118
vt 27.28125 -1.241626
vt 27.28125 -0.6208115
vt 26.0625 -1.241626
vt 26.0625 -0.6208112
vt -17.53125 36.625
vt -19.96875 38.82143
vt -17.53125 41.75
vt -17.90798 41.75
vt -17.53126 31.5
vt -19.96876 31.5
vt -22.40625 41.75
vt -19.65625 41.75
vt -18.75 41.75
vt 1.241631 47.125
vt -1.241627 52.25
vt -1.241627 42
vt 1.241631 42
vt -0.6208124 52.25
vt 2.145767E-06 52.25
vt 0.869143 52.25
vt 1.241631 52.25
vt 27.28125 0.8691446
vt -6.93754 -1.687557
vt 28.5 0.8691449
vt 27.28125 1.241633
vt 1.25006 49.18751
vt 29.71875 0.6208188
vt -6.93754 -1.687557
vt 28.5 0.8691449
vt 29.71875 46.125
vt -1.25 46.125
vt 30.9375 41
vt 28.5 46.125
vt 27.28125 46.125
vt 26.0625 46.125
vt 26.0625 35.875
vt 30.9375 35.875
vt -22.40626 31.5
vt -22.40625 34.0625
vt -22.40625 36.625
vt -22.40625 39.1875
vt 26.43922 1.241633
vt 27.28125 1.241633
vt 10.69526 88.125
vt 10.31854 88.125
vt 10.69526 89.875
vt 10.31854 89.875
vt 8.686251 55.6875
vt 8.313764 55.6875
vt 8.686252 53.9375
vt 8.313764 53.9375
vt 8.629329 88.125
vt 8.256841 88.125
vt 8.629329 89.875
vt 8.256841 89.875
vt -17.53125 43.5
vt -17.90712 43.5
vt 1.25 50.0625
vt 1.25 49.5625
vt -0.375 50.0625
vt -1.25 49.5625
vt -1.25 50.0625
vt 10.375 2.25
vt 10.375 1.75
vt 9 2.25
vt 7.625 1.75
vt 7.75 2.25
vt 7.625 2.25
vt 10.675 -2.21
vt 9.3 -2.21
vt 9.3 -0.96
vt 10.675 -0.96
vt 8.6125 -0.96
vt 8.6125 -0.335
vt 9.3 -0.335
vt 8.6125 0.29
vt 9.3 0.29
vt 10.675 -0.96
vt 9.3 -0.335
vt 10.675 0.29
vt 1.25 1.75
vt 0.375 2.25
vt 0.375 1.75
vt 1.25 2.25
vt -1.25 2.25
vt -0.375 1.75
vt -0.375 2.25
vt -1.25 1.75
vt -6.062531 -1.687557
vt -6.937531 -1.312557
vt -6.062531 -1.312557
vt -6.93754 -1.687557
vt -19.65625 41.75
vt -22.40625 42.125
vt -19.65625 42.125
vt -22.40625 41.75
vt 1.25 49.1875
vt -1.25 49.1875
vt -1.25 46.125
vt -2 -0.0002352397
vt 20 -0.0002352397
vt -2.000056 -3.000235
vt 6.93754 -1.687537
vt 6.062531 -1.312537
vt 6.937531 -1.312537
vt 6.062531 -1.687537
vt -19.65625 42.625
vt -19.781 42.625
vt -20.34375 42.625
vt -21.03125 42.625
vt -22.40625 42.625
vt 8.6125 -0.335
vt 8.049748 -0.585
vt 8.049748 0.29
vt 8.6125 -0.96
vt 8.049748 -0.96
vt 8.049748 -0.585
vt 8.6125 -0.335
vt 7.925 -0.96
vt 7.925 -0.585
vt 8.049748 -0.585
vt 9.3 -2.21
vt 8.6125 -0.96
vt 8.05 -2.21
vt 8.049874 -1.335
vt 7.925 -1.335
vt 7.925 -0.96
vt 8.049748 -0.96
vt -1.138633 6.1025
vt -1.263381 6.1025
vt -1.138633 6.9775
vt -1.263381 6.9775
vt -5.7625 6.1025
vt -6.6375 6.1025
vt -5.7625 6.9775
vt -6.6375 6.9775
vt 9.3125 8.03125
vt 8.4375 8.03125
vt 9.3125 8.90625
vt 8.4375 8.90625
vt -19.65625 43.5
vt -19.781 43.5
vt -5.875 7.75
vt -7 7.75
vt -7 9
vt -5.875 9
vt -8.125 7.75
vt -8.125 9
vt -4.505111 6.231912
vt -5.623652 4.976128
vt -4.38125 5.11375
vt -5.747512 6.094289
vt -5.499791 3.857967
vt -4.63011 3.954303
vt -5.875 1.6875
vt -7 1.3125
vt -7 1.6875
vt -8.125 1.3125
vt -8.125 1.6875
vt -5.875 1.3125
vt 0.125 10.0625
vt -0.125 10.0625
vt 0.125 10.9375
vt -0.125 10.9375
vt 0.125 10.0625
vt -0.125 10.0625
vt 0.125 10.9375
vt -0.125 10.9375
vt 0.5625 10.0625
vt 0.4375 10.0625
vt 0.5625 10.9375
vt 0.4375 10.9375
vt 0.125 -0.5625
vt -0.125 -0.5625
vt 0.125 -0.4375
vt -0.125 -0.4375
vt 0.125 10.0625
vt -0.125 10.0625
vt 0.125 10.9375
vt -0.125 10.9375
vt 0.125 10.0625
vt -0.125 10.0625
vt 0.125 10.9375
vt -0.125 10.9375
vt 0.5625 10.0625
vt 0.4375 10.0625
vt 0.5625 10.9375
vt 0.4375 10.9375
vt 0.125 -0.5625
vt -0.125 -0.5625
vt 0.125 -0.4375
vt -0.125 -0.4375
vt -17.53125 43.5
vt -17.90712 43.5
vt -17.90625 43.875
vt -17.53125 43.875
vt 10.79702 53.5625
vt 9.555393 53.9375
vt 9.927883 53.5625
vt 8.686252 53.9375
vt 8.686251 53.5625
vt 10.79702 53.9375
vt 8.313764 53.9375
vt 8.313762 53.5625
vt -7 10.25
vt -7 9
vt -7.5625 10.25
vt -8.125 9.625
vt -8.125 10.25
vt -3.221329 5.995956
vt -3.262712 6.369534
vt -3.63543 6.328247
vt -3.138849 5.251373
vt 1.25 46.625
vt 1.25 41.5
vt 1.25 38.9375
vt 0 38.9375
vt -1.25 38.9375
vt -1.25 44.0625
vt 1.25 44.0625
vt 6.93937 92.0625
vt 6.06437 92.0625
vt 6.93937 92.9375
vt 6.06437 92.9375
vt -26.43722 92.0625
vt -26.56222 92.0625
vt -26.43722 92.9375
vt -26.56228 92.9375
vt 7.6875 8.03125
vt 6.8125 8.03125
vt 7.6875 8.90625
vt 6.8125 8.90625
vt -0.375 86.74673
vt 0.375 87.24673
vt 0.375 86.74673
vt -0.375 87.24673
vt -18.65625 43.5
vt -19.65625 43.5
vt -19.65625 43.875
vt -18.65625 43.875
vt -19.781 43.5
vt -19.78125 43.875
vt 9.3125 8.90625
vt 8.4375 8.90625
vt 8.4375 9.28125
vt 9.3125 9.28125
vt -5.875 10.25
vt -5.875 9.625
vt -6.4375 10.25
vt -7 9
vt -7 10.25
vt -3.028751 4.257452
vt -3.884697 4.037127
vt -3.015017 4.133463
vt 7.6875 8.90625
vt 8.4375 9.28125
vt 8.4375 8.90625
vt 7.6875 9.28125
vt 7.6875 8.90625
vt 6.8125 8.90625
vt 6.8125 9.28125
vt -28.5 9.933044
vt -9 9.933033
vt -9 -9.933033
vt -48 -9.933048
vt -48 3.33786E-06
vt -48 9.933055
vn 0 1 0
vn 0 1 0
vn 0 1 0
vn 0 1 0
vn 0 1 0
vn 0 1 0
vn 0 0.9999999 0
vn 0 1 0
vn 0 1 0
vn 0 1 0
vn 0 1 0
vn 0 1 0
vn 0 1 0
vn 0 1 0
vn 0 1 0
vn 0 1 0
vn 0 1 0
vn 7.82502E-07 0 0.9999999
vn 7.190023E-07 5.285183E-08 0.9999999
vn 7.190023E-07 5.285183E-08 0.9999999
vn 0 6.512898E-07 1
vn 7.82502E-07 0 0.9999999
vn 7.82502E-07 0 1
vn -3.467897E-06 -2.88639E-06 1
vn -3.467897E-06 -2.88639E-06 1
vn 6.545959E-06 -2.072867E-06 1
vn 1 0 0
vn 0.9999999 0 0
vn 1 0 0
vn 1 0 0
vn 1 0 0
vn 1 0 0
vn 1 0 0
vn 1 0 0
vn 0 1 0
vn 0 1 0
vn 0 1 0
vn 0 1 0
vn 0 1 0
vn 0 1 0
vn 0 1 0
vn 0 1 0
vn 7.82502E-07 -1.860828E-07 -0.9999999
vn 0 0 -0.9999999
vn 5.868765E-07 4.65207E-08 -0.9999999
vn 7.82502E-07 0 -0.9999999
vn 7.82502E-07 -1.860828E-07 -0.9999999
vn 6.955573E-07 8.270347E-08 -1
vn 5.21668E-07 1.240552E-07 -1
vn 3.91251E-07 0 -0.9999999
vn 0 0 0.9999999
vn 0 0 1
vn 0 0 0.9999999
vn 0 0 0.9999999
vn 0 0.9999999 0
vn 0 0.9999999 0
vn 0 0 -0.9999999
vn -6.328729E-07 -1.362392E-07 -0.9999999
vn -6.328729E-07 -1.362392E-07 -0.9999999
vn -1.265746E-06 -2.724784E-07 -0.9999999
vn 1 0 0
vn 1 0 0
vn 1 0 0
vn 1 0 0
vn -0.9999998 0.0004926408 0
vn -0.9999992 0.00024632 0.001149499
vn -0.9999992 0.00024632 0.001149499
vn -0.9999974 0 0.002298991
vn 1.267196E-06 -2.727905E-07 0.9999999
vn 2.537298E-06 -5.462067E-07 1
vn -1 0 0
vn -1 0 0
vn -1 0 0
vn -1 0 0
vn -1 0 0
vn 0 0 -1
vn 0 0 -1
vn 0 0 -1
vn 0 0 -1
vn 0 0 -1
vn 0 0 -1
vn 0 1 0
vn 0 1 0
vn 0 1 0
vn 0 1 0
vn 0 1 0
vn 0 1 0
vn 0 1 0
vn 0 1 0
vn 0 1 0
vn 0 0.9999999 0
vn 0 1 0
vn 0 0.9999999 0
vn 1 0 0
vn 1 0 0
vn 1 0 0
vn 1 0 0
vn 1 -6.29425E-05 -3.596715E-05
vn 1 -6.29425E-05 -3.596715E-05
vn 1 -0.000125885 -7.193429E-05
vn 1 0 0
vn 1 2.543134E-05 2.179815E-06
vn 1 2.543134E-05 2.179815E-06
vn 1 3.051758E-05 0
vn 0.9999999 2.034516E-05 4.359606E-06
vn -1.733951E-06 1.271564E-05 1
vn -1.733951E-06 1.271564E-05 1
vn 0 2.543132E-05 1
vn -3.467897E-06 0 1
vn -1 0 0
vn -1 0 0
vn -1.733951E-06 1.271564E-05 -1
vn -1.733951E-06 1.271564E-05 -1
vn 0 0 -1
vn -3.467897E-06 2.543124E-05 -1
vn 1 2.543134E-05 -2.179815E-06
vn 1 2.543134E-05 -2.179815E-06
vn 1 2.034505E-05 0
vn 0.9999999 3.051758E-05 -4.359606E-06
vn 0 0 1
vn 0 0 1
vn 0 0 1
vn 0 0 1
vn 0 0 1
vn 0 1 0
vn 0 1 0
vn 0 1 0
vn 0 1 0
vn 0 1 0
vn 0 1 0
vn 0 1 0
vn 0 1 0
vn 0 1 0
vn 0 1 0
vn 0 1 0
vn 0 1 0
vn 0 1 0
vn 0 1 0
vn 0 0 0
vn 0 0 0
vn 0 0 0
vn 0 0 -1
vn 0 0 -1
vn 0 0 -1
vn 0 0 -1
vn 1 0 0
vn 1 0 0
vn 1 0 0
vn 1 0 0
vn -1 0 0
vn -1 0 0
vn -1 0 0
vn -1 0 0
vn 0 0 1
vn 0 0 1
vn 0 1 0
vn 0 1 0
vn 0 1 0
vn 0 1 0
vn 0 1 0
vn 0 1 0
vn 0 -1 0
vn 0 -1 0
vn 0 -1 0
vn 0 -1 0
vn 0 -1 0
vn 0 -1 0
vn 0 0 -1
vn 0 0 -1
vn 0 0 -1
vn 0 0 -1
vn 0 0 -1
vn 0 0 -1
vn 0 0 1
vn 0 0 1
vn 0 0 1
vn 0 0 1
vn 0 0 -1
vn 0 0 -1
vn 0 0 -1
vn 0 0 -1
vn 1 0 0
vn 1 0 0
vn 1 0 0
vn 1 0 0
vn 0 -1 0
vn 0 -1 0
vn 0 -1 0
vn 0 -1 0
vn 0 0 1
vn 0 0 1
vn 0 0 1
vn 0 0 1
vn 0 0 -1
vn 0 0 -1
vn 0 0 -1
vn 0 0 -1
vn 1 0 0
vn 1 0 0
vn 1 0 0
vn 1 0 0
vn 0 -1 0
vn 0 -1 0
vn 0 -1 0
vn 0 -1 0
vn 1.270106E-06 -3.816157E-06 1
vn 2.537298E-06 -2.548965E-06 0.9999999
vn 1.270106E-06 -3.816157E-06 1
vn 0 -5.086263E-06 1
vn 1 0 0
vn 1 0 0
vn 1 0 0
vn 1 0 0
vn 1 0 0
vn 1 0 0
vn 1 0 0
vn 1 0 0
vn 0 1 0
vn 0 1 0
vn 0 1 0
vn 0 1 0
vn 0 1 0
vn 0 -1 0
vn 0 -1 0
vn 0 -1 0
vn 0 -1 0
vn -1 0 0
vn -1 0 0
vn -1 0 0
vn -1 0 0
vn -1 0 0
vn -1 0 0
vn -1 0 0
vn 1 0 -7.193429E-05
vn 1 0 -7.193429E-05
vn 1 0 -7.193429E-05
vn 1 0 -7.193429E-05
vn 0 0 1
vn 0 0 0.9999999
vn 0 0 0.9999999
vn 0 0 1
vn -1 -7.193429E-05 7.193429E-05
vn -1 -3.596715E-05 3.596715E-05
vn -1 -3.596715E-05 3.596715E-05
vn -1 0 0
vn 1 -6.29425E-05 4.196167E-05
vn 1 -6.29425E-05 4.196167E-05
vn 1 -0.000125885 0
vn 1 0 8.392334E-05
vn 3.468994E-07 0 1
vn 0 0 1
vn 0 0 1
vn 3.816013E-07 -7.632026E-07 1
vn 0 0 1
vn 0 0 1
vn -0.9999997 -0.0006713865 0
vn -0.9999997 -0.0006713865 0
vn -0.9999997 -0.0006713865 0
vn -0.9999997 -0.0006713865 0
vn 0 1 0
vn 0 1 0
vn 0 1 0
vn 0 1 0
vn 0 1 0
vn 0 -1 0
vn 0 -0.9999999 0
vn 0 -1 0
vn -1 -0.0003356934 0.0001678467
vn -1 -0.0003356934 0.0001678467
vn -0.9999996 -0.0006713865 0.0003356932
vn -1 0 0
vn -1 0 0
vn -1 0 0
vn -1 0 0
vn 0 -1 0
vn 0 -1 0
vn 0 -1 0
vn 0 -1 0
vn 0 -1 0
vn 0 -1 0
g pb_Mesh21172_0
f 3/3/3 2/2/2 1/1/1
f 3/3/3 1/1/1 4/4/4
f 5/5/5 2/2/2 3/3/3
f 2/2/2 5/5/5 6/6/6
f 5/5/5 7/7/7 6/6/6
f 4/4/4 1/1/1 8/8/8
f 4/4/4 8/8/8 9/9/9
f 12/12/12 11/11/11 10/10/10
f 13/13/13 12/12/12 10/10/10
f 13/13/13 10/10/10 8/8/8
f 1/1/1 13/13/13 8/8/8
f 14/14/14 12/12/12 13/13/13
f 15/15/15 14/14/14 13/13/13
f 16/16/16 14/14/14 15/15/15
f 17/17/17 16/16/16 15/15/15
f 2/2/2 17/17/17 15/15/15
f 2/2/2 6/6/6 17/17/17
f 1/1/1 15/15/15 13/13/13
f 1/1/1 2/2/2 15/15/15
f 20/20/20 19/19/19 18/18/18
f 20/20/20 21/21/21 19/19/19
f 23/23/23 22/22/22 18/18/18
f 19/19/19 23/23/23 18/18/18
f 25/25/25 24/24/24 19/19/19
f 19/19/19 21/21/21 26/26/26
f 26/26/26 25/25/25 19/19/19
f 29/29/29 28/28/28 27/27/27
f 30/30/30 29/29/29 27/27/27
f 27/27/27 28/28/28 31/31/31
f 27/27/27 31/31/31 32/32/32
f 27/27/27 32/32/32 33/33/33
f 34/34/34 27/27/27 33/33/33
f 37/37/37 36/36/36 35/35/35
f 36/36/36 38/38/38 35/35/35
f 41/41/41 40/40/40 39/39/39
f 40/40/40 41/41/41 42/42/42
f 45/45/45 44/44/44 43/43/43
f 43/43/43 46/46/46 45/45/45
f 46/46/46 47/47/47 45/45/45
f 47/47/47 48/48/48 45/45/45
f 49/49/49 45/45/45 48/48/48
f 49/49/49 50/50/50 45/45/45
f 52/52/52 51/51/51 23/23/23
f 23/23/23 19/19/19 52/52/52
f 19/19/19 53/53/53 52/52/52
f 54/54/54 53/53/53 19/19/19
f 19/19/19 24/24/24 54/54/54
f 55/55/55 5/5/5 3/3/3
f 55/55/55 3/3/3 56/56/56
f 59/59/59 58/58/58 57/57/57
f 59/59/59 60/60/60 58/58/58
f 63/63/63 62/62/62 61/61/61
f 63/63/63 64/64/64 62/62/62
f 67/67/67 66/66/66 65/65/65
f 67/67/67 68/68/68 66/66/66
f 69/69/69 21/21/21 20/20/20
f 69/69/69 70/70/70 21/21/21
f 73/73/73 72/72/72 71/71/71
f 72/72/72 73/73/73 74/74/74
f 73/73/73 75/75/75 74/74/74
f 78/78/78 77/77/77 76/76/76
f 77/77/77 78/78/78 79/79/79
f 79/79/79 78/78/78 80/80/80
f 80/80/80 81/81/81 79/79/79
f 84/84/84 83/83/83 82/82/82
f 84/84/84 82/82/82 85/85/85
f 87/87/87 86/86/86 84/84/84
f 87/87/87 84/84/84 88/88/88
f 89/89/89 87/87/87 88/88/88
f 89/89/89 88/88/88 90/90/90
f 92/92/92 84/84/84 91/91/91
f 93/93/93 92/92/92 91/91/91
f 93/93/93 90/90/90 92/92/92
f 96/96/96 95/95/95 94/94/94
f 97/97/97 94/94/94 95/95/95
f 100/100/100 99/99/99 98/98/98
f 99/99/99 101/101/101 98/98/98
f 104/104/104 103/103/103 102/102/102
f 103/103/103 105/105/105 102/102/102
f 108/108/108 107/107/107 106/106/106
f 107/107/107 109/109/109 106/106/106
f 72/72/72 74/74/74 110/110/110
f 74/74/74 111/111/111 110/110/110
f 114/114/114 113/113/113 112/112/112
f 113/113/113 115/115/115 112/112/112
f 118/118/118 117/117/117 116/116/116
f 117/117/117 119/119/119 116/116/116
f 121/121/121 108/108/108 120/120/120
f 121/121/121 122/122/122 108/108/108
f 122/122/122 123/123/123 108/108/108
f 108/108/108 123/123/123 107/107/107
f 123/123/123 124/124/124 107/107/107
f 127/127/127 126/126/126 125/125/125
f 127/127/127 125/125/125 89/89/89
f 130/130/130 129/129/129 128/128/128
f 130/130/130 128/128/128 131/131/131
f 133/133/133 132/132/132 129/129/129
f 134/134/134 133/133/133 129/129/129
f 136/136/136 135/135/135 84/84/84
f 135/135/135 138/138/138 137/137/137
f 136/136/136 138/138/138 135/135/135
f 141/141/141 140/140/140 139/139/139
f 144/144/144 143/143/143 142/142/142
f 144/144/144 145/145/145 143/143/143
f 148/148/148 147/147/147 146/146/146
f 148/148/148 149/149/149 147/147/147
f 152/152/152 151/151/151 150/150/150
f 152/152/152 153/153/153 151/151/151
f 154/154/154 121/121/121 120/120/120
f 154/154/154 155/155/155 121/121/121
f 158/158/158 157/157/157 156/156/156
f 158/158/158 156/156/156 159/159/159
f 161/161/161 160/160/160 157/157/157
f 161/161/161 157/157/157 158/158/158
f 164/164/164 163/163/163 162/162/162
f 163/163/163 165/165/165 162/162/162
f 167/167/167 166/166/166 164/164/164
f 166/166/166 163/163/163 164/164/164
f 170/170/170 169/169/169 168/168/168
f 171/171/171 169/169/169 170/170/170
f 172/172/172 171/171/171 170/170/170
f 169/169/169 173/173/173 168/168/168
f 176/176/176 175/175/175 174/174/174
f 176/176/176 177/177/177 175/175/175
f 180/180/180 179/179/179 178/178/178
f 180/180/180 181/181/181 179/179/179
f 184/184/184 183/183/183 182/182/182
f 184/184/184 185/185/185 183/183/183
f 188/188/188 187/187/187 186/186/186
f 188/188/188 189/189/189 187/187/187
f 192/192/192 191/191/191 190/190/190
f 192/192/192 193/193/193 191/191/191
f 196/196/196 195/195/195 194/194/194
f 196/196/196 197/197/197 195/195/195
f 200/200/200 199/199/199 198/198/198
f 200/200/200 201/201/201 199/199/199
f 204/204/204 203/203/203 202/202/202
f 204/204/204 205/205/205 203/203/203
f 208/208/208 207/207/207 206/206/206
f 208/208/208 206/206/206 209/209/209
f 212/212/212 211/211/211 210/210/210
f 213/213/213 211/211/211 212/212/212
f 214/214/214 213/213/213 212/212/212
f 211/211/211 215/215/215 210/210/210
f 216/216/216 213/213/213 214/214/214
f 217/217/217 216/216/216 214/214/214
f 220/220/220 219/219/219 218/218/218
f 221/221/221 161/161/161 219/219/219
f 219/219/219 220/220/220 221/221/221
f 220/220/220 222/222/222 221/221/221
f 225/225/225 224/224/224 223/223/223
f 225/225/225 223/223/223 164/164/164
f 164/164/164 162/162/162 225/225/225
f 226/226/226 164/164/164 223/223/223
f 111/111/111 227/227/227 110/110/110
f 230/230/230 229/229/229 228/228/228
f 228/228/228 231/231/231 230/230/230
f 228/228/228 232/232/232 231/231/231
f 232/232/232 228/228/228 233/233/233
f 232/232/232 233/233/233 227/227/227
f 111/111/111 232/232/232 227/227/227
f 236/236/236 235/235/235 234/234/234
f 236/236/236 237/237/237 235/235/235
f 240/240/240 239/239/239 238/238/238
f 240/240/240 241/241/241 239/239/239
f 244/244/244 243/243/243 242/242/242
f 244/244/244 245/245/245 243/243/243
f 248/248/248 247/247/247 246/246/246
f 247/247/247 249/249/249 246/246/246
f 252/252/252 251/251/251 250/250/250
f 253/253/253 207/207/207 208/208/208
f 253/253/253 250/250/250 207/207/207
f 252/252/252 250/250/250 253/253/253
f 255/255/255 254/254/254 251/251/251
f 255/255/255 251/251/251 252/252/252
f 258/258/258 257/257/257 256/256/256
f 258/258/258 256/256/256 259/259/259
f 262/262/262 261/261/261 260/260/260
f 263/263/263 159/159/159 261/261/261
f 264/264/264 263/263/263 261/261/261
f 262/262/262 264/264/264 261/261/261
f 266/266/266 226/226/226 265/265/265
f 266/266/266 164/164/164 226/226/226
f 266/266/266 167/167/167 164/164/164
f 267/267/267 266/266/266 265/265/265
f 270/270/270 269/269/269 268/268/268
f 269/269/269 271/271/271 268/268/268
f 274/274/274 273/273/273 272/272/272
f 274/274/274 272/272/272 271/271/271
g pb_Mesh21172_1
f 277/277/277 276/276/276 275/275/275
f 278/278/278 277/277/277 275/275/275
f 275/275/275 279/279/279 278/278/278
f 280/280/280 279/279/279 275/275/275
