g pb_Mesh69178
v 0 -0.2499925 2.339482E-06
v -1.5 -0.2499998 -2.499998
v 0 3 0
v -1.5 3 -2.598076
v -1.25 -0.2499998 -2.499998
v 0 -0.2499932 -0.2499977
v -1.3 3 -2.598076
v 0.1 3 -0.1732051
v 3 -0.2499925 2.339482E-06
v 0 -0.2499925 2.339482E-06
v 3 3 -2.384186E-07
v 0 3 0
v 0 -0.2499932 -0.2499977
v 3 -0.2499932 -0.2499977
v 0.1 3 -0.1732051
v 2.9 3 -0.1732054
v 4.5 -0.2499998 -2.499998
v 3 -0.2499925 2.339482E-06
v 4.5 3 -2.598077
v 3 3 -2.384186E-07
v 3 -0.2499932 -0.2499977
v 4.25 -0.2499998 -2.499998
v 2.9 3 -0.1732054
v 4.3 3 -2.598077
v 3 -0.2500079 -5.249998
v 4.5 -0.2499998 -2.499998
v 3 3 -5.196153
v 4.5 3 -2.598077
v 4.25 -0.2499998 -2.499998
v 3 -0.2500071 -4.999998
v 4.3 3 -2.598077
v 2.9 3 -5.022947
v 0 -0.2500079 -5.249998
v 3 -0.2500079 -5.249998
v 1.192093E-07 3 -5.196153
v 3 3 -5.196153
v 3 -0.2500071 -4.999998
v 0 -0.2500071 -4.999998
v 2.9 3 -5.022947
v 0.1000001 3 -5.022947
v -1.5 -0.2499998 -2.499998
v 0 -0.2500079 -5.249998
v -1.5 3 -2.598076
v 1.192093E-07 3 -5.196153
v 0 -0.2500071 -4.999998
v -1.25 -0.2499998 -2.499998
v 0.1000001 3 -5.022947
v -1.3 3 -2.598076
v 0 3 0
v -1.5 3 -2.598076
v 0 6 0
v -1.5 6 -2.598076
v -1.3 3 -2.598076
v 0.1 3 -0.1732051
v -1.3 6 -2.598076
v 0.1 6 -0.1732051
v 3 6 -2.384186E-07
v 0 6 0
v 0.1 3 -0.1732051
v 2.9 3 -0.1732054
v 0.1 6 -0.1732051
v 2.9 6 -0.1732054
v 4.5 3 -2.598077
v 3 3 -2.384186E-07
v 4.5 6 -2.598077
v 3 6 -2.384186E-07
v 2.9 3 -0.1732054
v 4.3 3 -2.598077
v 2.9 6 -0.1732054
v 4.3 6 -2.598077
v 3 3 -5.196153
v 4.5 3 -2.598077
v 3 6 -5.196153
v 4.5 6 -2.598077
v 4.3 3 -2.598077
v 2.9 3 -5.022947
v 4.3 6 -2.598077
v 2.9 6 -5.022947
v 1.192093E-07 3 -5.196153
v 3 3 -5.196153
v 1.192093E-07 6 -5.196153
v 3 6 -5.196153
v 2.9 3 -5.022947
v 0.1000001 3 -5.022947
v 2.9 6 -5.022947
v 0.1000001 6 -5.022947
v -1.5 3 -2.598076
v 1.192093E-07 3 -5.196153
v -1.5 6 -2.598076
v 1.192093E-07 6 -5.196153
v 0.1000001 3 -5.022947
v -1.3 3 -2.598076
v 0.1000001 6 -5.022947
v -1.3 6 -2.598076
v -1.5 -0.2499998 -2.499998
v 0 -0.2499925 2.339482E-06
v -1.25 -0.2499998 -2.499998
v 0 -0.2499932 -0.2499977
v 0 6 0
v -1.5 6 -2.598076
v 0.1 6 -0.1732051
v -1.3 6 -2.598076
v 3 -0.2499925 2.339482E-06
v 3 -0.2499932 -0.2499977
v 3 6 -2.384186E-07
v 2.9 6 -0.1732054
v 4.5 -0.2499998 -2.499998
v 4.25 -0.2499998 -2.499998
v 4.5 6 -2.598077
v 4.3 6 -2.598077
v 3 -0.2500079 -5.249998
v 3 -0.2500071 -4.999998
v 3 6 -5.196153
v 2.9 6 -5.022947
v 0 -0.2500079 -5.249998
v 0 -0.2500071 -4.999998
v 1.192093E-07 6 -5.196153
v 0.1000001 6 -5.022947
vt 2.00609E-06 -0.2499925
vt -2.915474 -0.2499998
vt 0 3
vt -2.999576 3
vt 2.792445 -0.2498531
vt 0.2185373 -0.2498465
vt 2.902463 3.000149
vt 0.1028442 3.000205
vt 3 -0.2499925
vt 0 -0.2499925
vt 3 3
vt 0 3
vt 0 -0.2558289
vt -3 -0.2558289
vt -0.1 2.995072
vt -2.9 2.995071
vt 4.458961 -0.2899066
vt 1.543485 -0.2898993
vt 4.543063 2.960485
vt 1.543487 2.959702
vt -1.675466 -0.2885308
vt -4.249373 -0.2885374
vt -1.559773 2.961849
vt -4.359392 2.961137
vt 3.172393 -0.2908381
vt 0.03990192 -0.29083
vt 3.125123 2.959272
vt 0.126005 2.958695
vt -0.3354083 -0.115873
vt -3.130493 -0.1158803
vt -0.4007722 3.135334
vt -3.195741 3.130763
vt 0 -0.3369417
vt -3 -0.3369417
vt -1.192093E-07 2.913512
vt -3 2.913512
vt 3 -0.2146946
vt 0 -0.2146946
vt 2.9 3.035393
vt 0.1000001 3.035393
vt -1.476459 -0.2136484
vt -4.60895 -0.2136565
vt -1.562562 3.036691
vt -4.56168 3.03564
vt 4.472134 -0.3043938
vt 1.677049 -0.3043865
vt 4.537382 2.946578
vt 1.742412 2.942492
vt 0 3
vt -3 3
vt 0 6
vt -3 6
vt 2.9 3
vt 0.1 3
vt 2.9 6
vt 0.1 6
vt 3 6
vt 0 6
vt -0.1 3
vt -2.9 3
vt -0.1 6
vt -2.9 6
vt 4.5 3
vt 1.5 3
vt 4.5 6
vt 1.5 6
vt -1.6 3
vt -4.4 3
vt -1.6 6
vt -4.4 6
vt 3 3
vt -4.107323E-07 3
vt 3 6
vt -4.107323E-07 6
vt -0.09999991 3
vt -2.9 3
vt -0.09999991 6
vt -2.9 6
vt -1.192093E-07 3
vt -3 3
vt -1.192093E-07 6
vt -3 6
vt 2.9 3
vt 0.1000001 3
vt 2.9 6
vt 0.1000001 6
vt -1.5 3
vt -4.5 3
vt -1.5 6
vt -4.5 6
vt 4.4 3
vt 1.6 3
vt 4.4 6
vt 1.6 6
vt -1.5 -2.499998
vt 0 1.609347E-06
vt -1.25 -2.499998
vt 0 -0.2499984
vt 0 0
vt 1.5 -2.598076
vt -0.1 -0.1732051
vt 1.3 -2.598076
vt 3 1.609347E-06
vt 3 -0.2499984
vt -3 -2.384186E-07
vt -2.9 -0.1732054
vt 4.5 -2.499998
vt 4.25 -2.499998
vt -4.5 -2.598077
vt -4.3 -2.598077
vt 3 -5.249999
vt 3 -4.999999
vt -3 -5.196153
vt -2.9 -5.022947
vt 0 -5.249999
vt 0 -4.999999
vt -1.192093E-07 -5.196153
vt -0.1000001 -5.022947
vn -0.857493 3.703558E-07 0.5144958
vn -0.8618253 0.007652541 0.5071474
vn -0.8618253 0.007652541 0.5071474
vn -0.8659268 0.01508729 0.4999431
vn 0.8741566 -0.001207173 -0.4856426
vn 0.8699198 -0.008306573 -0.4931232
vn 0.8699198 -0.008306573 -0.4931232
vn 0.8659301 -0.01483111 -0.499945
vn 0 7.93202E-07 1
vn 3.973643E-08 7.565222E-07 1
vn 3.973643E-08 7.565222E-07 1
vn 7.947285E-08 7.198423E-07 1
vn 0 0.02362193 -0.9997211
vn -4.109527E-08 0.02362189 -0.999721
vn -4.109527E-08 0.02362189 -0.999721
vn -8.51259E-08 0.02362185 -0.9997211
vn 0.8573896 0.01552466 0.5144337
vn 0.8618253 0.007652593 0.5071474
vn 0.8618253 0.007652593 0.5071474
vn 0.8660254 3.96601E-07 0.5
vn -0.8740533 -0.01542036 -0.4855851
vn -0.8699198 -0.008306642 -0.4931231
vn -0.8699198 -0.008306642 -0.4931231
vn -0.8660241 -0.001765673 -0.4999991
vn 0.877868 0.007933324 -0.4788371
vn 0.872148 -0.003329264 -0.489231
vn 0.872148 -0.003329264 -0.489231
vn 0.8659268 -0.01508736 -0.4999432
vn -0.8940952 0.0272463 0.4470475
vn -0.8806075 0.002048841 0.4738419
vn -0.8806075 0.002048841 0.4738419
vn -0.8657941 -0.02311009 0.4998665
vn 0 0.01656536 -0.9998628
vn 0 0.01656536 -0.9998628
vn 0 0.01656536 -0.9998628
vn 0 0.01656536 -0.9998628
vn 0 0.007061254 0.9999751
vn 0 0.007061253 0.999975
vn 0 0.007061253 0.999975
vn 0 0.007061253 0.9999751
vn -0.8778039 -0.01444936 -0.4788021
vn -0.872148 -0.00332931 -0.4892309
vn -0.872148 -0.00332931 -0.4892309
vn -0.8659956 0.008283562 -0.4999829
vn 0.8941618 -0.02435562 0.447081
vn 0.8806075 0.002048906 0.4738419
vn 0.8806075 0.002048906 0.4738419
vn 0.865676 0.02840107 0.4997984
vn -0.8660253 0 0.5
vn -0.8660253 0 0.5
vn -0.8660253 0 0.5
vn -0.8660253 0 0.5
vn 0.8660254 0 -0.5000001
vn 0.8660254 0 -0.5000001
vn 0.8660254 0 -0.5000001
vn 0.8660254 0 -0.5000001
vn 7.947286E-08 0 1
vn 7.947286E-08 0 1
vn -8.514949E-08 0 -1
vn -8.514949E-08 0 -1
vn -8.514949E-08 0 -1
vn -8.514949E-08 0 -1
vn 0.8660254 0 0.5
vn 0.8660254 0 0.5
vn 0.8660254 0 0.5
vn 0.8660254 0 0.5
vn -0.8660254 0 -0.4999999
vn -0.8660254 0 -0.4999999
vn -0.8660254 0 -0.4999999
vn -0.8660254 0 -0.4999999
vn 0.8660253 0 -0.5000001
vn 0.8660253 0 -0.5000001
vn 0.8660253 0 -0.5000001
vn 0.8660253 0 -0.5000001
vn -0.8660253 0 0.5000001
vn -0.8660253 0 0.5000001
vn -0.8660253 0 0.5000001
vn -0.8660253 0 0.5000001
vn 0 0 -1
vn 0 0 -1
vn 0 0 -1
vn 0 0 -1
vn 0 0 0.9999999
vn 0 0 0.9999999
vn 0 0 0.9999999
vn 0 0 0.9999999
vn -0.8660253 0 -0.5000001
vn -0.8660253 0 -0.5000001
vn -0.8660253 0 -0.5000001
vn -0.8660253 0 -0.5000001
vn 0.8660254 0 0.5000001
vn 0.8660254 0 0.5000001
vn 0.8660254 0 0.5000001
vn 0.8660254 0 0.5000001
vn 0 -1 2.920628E-06
vn 0 -1 2.920628E-06
vn 0 -1 2.920628E-06
vn 0 -1 2.920628E-06
vn 0 1 0
vn 0 1 0
vn 0 1 0
vn 0 1 0
vn 0 -1 2.920628E-06
vn 0 -1 2.920628E-06
vn 0 1 0
vn 0 1 0
vn 0 -1 2.920628E-06
vn 0 -1 2.920628E-06
vn 0 1 0
vn 0 1 0
vn -3.72529E-08 -1 2.942979E-06
vn -1.192093E-07 -1 2.980232E-06
vn 0 1 0
vn 0 1 0
vn 0 -1 2.980232E-06
vn 0 -1 2.980232E-06
vn 0 1 0
vn 0 1 0
g pb_Mesh69178_0
f 3/3/3 2/2/2 1/1/1
f 3/3/3 4/4/4 2/2/2
f 7/7/7 6/6/6 5/5/5
f 7/7/7 8/8/8 6/6/6
f 11/11/11 10/10/10 9/9/9
f 11/11/11 12/12/12 10/10/10
f 15/15/15 14/14/14 13/13/13
f 15/15/15 16/16/16 14/14/14
f 19/19/19 18/18/18 17/17/17
f 19/19/19 20/20/20 18/18/18
f 23/23/23 22/22/22 21/21/21
f 23/23/23 24/24/24 22/22/22
f 27/27/27 26/26/26 25/25/25
f 27/27/27 28/28/28 26/26/26
f 31/31/31 30/30/30 29/29/29
f 31/31/31 32/32/32 30/30/30
f 35/35/35 34/34/34 33/33/33
f 35/35/35 36/36/36 34/34/34
f 39/39/39 38/38/38 37/37/37
f 39/39/39 40/40/40 38/38/38
f 43/43/43 42/42/42 41/41/41
f 43/43/43 44/44/44 42/42/42
f 47/47/47 46/46/46 45/45/45
f 47/47/47 48/48/48 46/46/46
f 51/51/51 50/50/50 49/49/49
f 51/51/51 52/52/52 50/50/50
f 55/55/55 54/54/54 53/53/53
f 55/55/55 56/56/56 54/54/54
f 57/57/57 12/12/12 11/11/11
f 57/57/57 58/58/58 12/12/12
f 61/61/61 60/60/60 59/59/59
f 61/61/61 62/62/62 60/60/60
f 65/65/65 64/64/64 63/63/63
f 65/65/65 66/66/66 64/64/64
f 69/69/69 68/68/68 67/67/67
f 69/69/69 70/70/70 68/68/68
f 73/73/73 72/72/72 71/71/71
f 73/73/73 74/74/74 72/72/72
f 77/77/77 76/76/76 75/75/75
f 77/77/77 78/78/78 76/76/76
f 81/81/81 80/80/80 79/79/79
f 81/81/81 82/82/82 80/80/80
f 85/85/85 84/84/84 83/83/83
f 85/85/85 86/86/86 84/84/84
f 89/89/89 88/88/88 87/87/87
f 89/89/89 90/90/90 88/88/88
f 93/93/93 92/92/92 91/91/91
f 93/93/93 94/94/94 92/92/92
f 97/97/97 96/96/96 95/95/95
f 97/97/97 98/98/98 96/96/96
f 101/101/101 100/100/100 99/99/99
f 101/101/101 102/102/102 100/100/100
f 98/98/98 103/103/103 96/96/96
f 98/98/98 104/104/104 103/103/103
f 106/106/106 99/99/99 105/105/105
f 106/106/106 101/101/101 99/99/99
f 104/104/104 107/107/107 103/103/103
f 104/104/104 108/108/108 107/107/107
f 110/110/110 105/105/105 109/109/109
f 110/110/110 106/106/106 105/105/105
f 108/108/108 111/111/111 107/107/107
f 108/108/108 112/112/112 111/111/111
f 114/114/114 109/109/109 113/113/113
f 114/114/114 110/110/110 109/109/109
f 112/112/112 115/115/115 111/111/111
f 112/112/112 116/116/116 115/115/115
f 118/118/118 113/113/113 117/117/117
f 118/118/118 114/114/114 113/113/113
f 116/116/116 95/95/95 115/115/115
f 116/116/116 97/97/97 95/95/95
f 102/102/102 117/117/117 100/100/100
f 102/102/102 118/118/118 117/117/117
