g pb_Mesh219516
v 3.500004 -2 18.5
v 0.5000036 -2 18.5
v 1 2.5 18
v 0.5 2.5 18
v 0.5000029 -2 12.5
v 3.500003 -2 12.5
v 0.5 2.5 13
v 1 2.5 13
v 3.500003 -2 12.5
v 3.500004 -2 18.5
v 1 2.5 13
v 1 2.5 18
v 0.5000036 -2 18.5
v 0.5000029 -2 12.5
v 0.5 2.5 18
v 0.5 2.5 13
vt -1.250006 -2.499985
vt -2.000006 -2.499985
vt -1.875007 -1.249985
vt -2.000007 -1.249985
vt -2.500001 -2.499987
vt -3.250001 -2.499987
vt -2.5 -1.249987
vt -2.625 -1.249987
vt 15 -6.99418
vt 14.5 -6.994179
vt 15 -6.494179
vt 14.5 -6.494179
vt 15.875 -0.03125048
vt 15.125 -0.03125048
vt 15.8125 0.5312495
vt 15.1875 0.5312495
vn 6.318942E-07 0.110431 0.9938837
vn 5.416236E-07 0.1104311 0.9938838
vn 5.416236E-07 0.1104311 0.9938838
vn 0 0.1104311 0.9938838
vn 0 0.1104324 -0.9938837
vn 0 0.1104324 -0.9938836
vn 0 0.1104324 -0.9938836
vn 0 0.1104324 -0.9938837
vn 0.874157 0.4856434 -6.947175E-08
vn 0.874157 0.4856434 -3.789368E-08
vn 0.874157 0.4856434 -3.789368E-08
vn 0.874157 0.4856435 0
vn -1 -7.814832E-07 1.192093E-07
vn -0.9999999 -7.152557E-07 6.502324E-08
vn -0.9999999 -7.152557E-07 6.502324E-08
vn -1 -6.357829E-07 0
g pb_Mesh219516_0
f 3/3/3 2/2/2 1/1/1
f 3/3/3 4/4/4 2/2/2
f 7/7/7 6/6/6 5/5/5
f 7/7/7 8/8/8 6/6/6
f 11/11/11 10/10/10 9/9/9
f 11/11/11 12/12/12 10/10/10
g pb_Mesh219516_1
f 15/15/15 14/14/14 13/13/13
f 15/15/15 16/16/16 14/14/14
