g pb_Mesh63632
v 0 0 7
v 0 0 37
v 0 20 7
v 0 20 37
v -1 0 37
v -1 0 22
v -1 10 22
v -1 10 37
v -1 0 7
v -1 10 7
v -1 20 7
v -1 20 22
v -1 20 37
v 0 20 7
v -1 20 7
v -1 10 7
v 0 0 7
v -1 0 7
v -1 20 22
v -1 20 7
v 0 20 7
v 0 20 37
v -1 20 37
v 0 0 37
v -1 0 37
v -1 10 37
v 0 20 37
v -1 20 37
v 0 0 37
v -1 0 22
v -1 0 37
v 0 0 7
v -1 0 7
vt -20.125 8.75
vt -23.875 8.75
vt -20.125 11.25
vt -23.875 11.25
vt 23.875 8.75
vt 22 8.75
vt 22 10
vt 23.875 10
vt 20.125 8.75
vt 20.125 10
vt 20.125 11.25
vt 22 11.25
vt 23.875 11.25
vt 0.4375 11.25
vt 0.5625 11.25
vt 0.5625 10
vt 0.4375 8.75
vt 0.5625 8.75
vt 0.5625 22
vt 0.5625 20.125
vt 0.4375 20.125
vt 0.4375 23.875
vt 0.5625 23.875
vt 0 0
vt -1 0
vt -1 10
vt 0 20
vt -1 20
vt 0 37
vt -1 22
vt -1 37
vt 0 7
vt -1 7
vn 1 0 0
vn 1 0 0
vn 1 0 0
vn 1 0 0
vn -1 0 0
vn -1 0 0
vn -1 0 0
vn -1 0 0
vn -1 0 0
vn -1 0 0
vn -1 0 0
vn -1 0 0
vn -1 0 0
vn 0 0 -1
vn 0 0 -1
vn 0 0 -1
vn 0 0 -1
vn 0 0 -1
vn 0 1 0
vn 0 1 0
vn 0 1 0
vn 0 1 0
vn 0 1 0
vn 0 0 1
vn 0 0 1
vn 0 0 1
vn 0 0 1
vn 0 0 1
vn 0 -1 0
vn 0 -1 0
vn 0 -1 0
vn 0 -1 0
vn 0 -1 0
g pb_Mesh63632_0
f 3/3/3 2/2/2 1/1/1
f 3/3/3 4/4/4 2/2/2
f 7/7/7 6/6/6 5/5/5
f 7/7/7 5/5/5 8/8/8
f 10/10/10 9/9/9 6/6/6
f 10/10/10 6/6/6 7/7/7
f 11/11/11 10/10/10 7/7/7
f 11/11/11 7/7/7 12/12/12
f 12/12/12 7/7/7 8/8/8
f 12/12/12 8/8/8 13/13/13
f 16/16/16 15/15/15 14/14/14
f 17/17/17 16/16/16 14/14/14
f 17/17/17 18/18/18 16/16/16
f 21/21/21 20/20/20 19/19/19
f 22/22/22 21/21/21 19/19/19
f 22/22/22 19/19/19 23/23/23
g pb_Mesh63632_1
f 26/26/26 25/25/25 24/24/24
f 27/27/27 26/26/26 24/24/24
f 27/27/27 28/28/28 26/26/26
f 31/31/31 30/30/30 29/29/29
f 30/30/30 32/32/32 29/29/29
f 30/30/30 33/33/33 32/32/32
