g pb_Mesh1215670
v -8 -77 -46
v -8 -77 44
v -8 -67 -46
v -8 -67 44
v -9 -72 -1
v -9 -77 -1
v -9 -72 -23.5
v -9 -77 -46
v -9 -72 -46
v -9 -67 -23.5
v -9 -67 -1
v -9 -67 -46
v -9 -72 44
v -9 -77 44
v -9 -72 21.5
v -9 -67 21.5
v -9 -67 44
v -9 -67 -23.5
v -9 -67 -46
v -8 -67 -46
v -9 -67 -1
v -8 -67 44
v -9 -67 21.5
v -9 -67 44
v -8 -77 44
v -9 -77 44
v -9 -72 44
v -8 -67 44
v -9 -67 44
v -8 -67 -46
v -9 -67 -46
v -9 -72 -46
v -8 -77 -46
v -9 -77 -46
vt 6.625 -72.625
vt -4.625 -72.625
vt 6.625 -71.375
vt -4.625 -71.375
vt -1 -72
vt -1 -72.625
vt -3.8125 -72
vt -6.625 -72.625
vt -6.625 -72
vt -3.8125 -71.375
vt -1 -71.375
vt -6.625 -71.375
vt 4.625 -72
vt 4.625 -72.625
vt 1.8125 -72
vt 1.8125 -71.375
vt 4.625 -71.375
vt 8.5625 -3.8125
vt 8.5625 -6.625
vt 8.4375 -6.625
vt 8.5625 -1
vt 8.4375 4.625
vt 8.5625 1.8125
vt 8.5625 4.625
vt -8 -77
vt -9 -77
vt -9 -72
vt -8 -67
vt -9 -67
vt 8 -67
vt 9 -67
vt 9 -72
vt 8 -77
vt 9 -77
vn 1 0 0
vn 1 0 0
vn 1 0 0
vn 1 0 0
vn -1 0 0
vn -1 0 0
vn -1 0 0
vn -1 0 0
vn -1 0 0
vn -1 0 0
vn -1 0 0
vn -1 0 0
vn -1 0 0
vn -1 0 0
vn -1 0 0
vn -1 0 0
vn -1 0 0
vn 0 1 0
vn 0 1 0
vn 0 1 0
vn 0 1 0
vn 0 1 0
vn 0 1 0
vn 0 1 0
vn 0 0 1
vn 0 0 1
vn 0 0 1
vn 0 0 1
vn 0 0 1
vn 0 0 -1
vn 0 0 -1
vn 0 0 -1
vn 0 0 -1
vn 0 0 -1
g pb_Mesh1215670_0
f 3/3/3 2/2/2 1/1/1
f 3/3/3 4/4/4 2/2/2
f 7/7/7 6/6/6 5/5/5
f 6/6/6 7/7/7 8/8/8
f 7/7/7 9/9/9 8/8/8
f 10/10/10 7/7/7 5/5/5
f 10/10/10 5/5/5 11/11/11
f 12/12/12 9/9/9 7/7/7
f 12/12/12 7/7/7 10/10/10
f 15/15/15 14/14/14 13/13/13
f 14/14/14 15/15/15 6/6/6
f 15/15/15 5/5/5 6/6/6
f 16/16/16 15/15/15 13/13/13
f 16/16/16 13/13/13 17/17/17
f 11/11/11 5/5/5 15/15/15
f 11/11/11 15/15/15 16/16/16
f 20/20/20 19/19/19 18/18/18
f 20/20/20 18/18/18 21/21/21
f 22/22/22 20/20/20 21/21/21
f 23/23/23 22/22/22 21/21/21
f 22/22/22 23/23/23 24/24/24
g pb_Mesh1215670_1
f 27/27/27 26/26/26 25/25/25
f 28/28/28 27/27/27 25/25/25
f 28/28/28 29/29/29 27/27/27
f 32/32/32 31/31/31 30/30/30
f 33/33/33 32/32/32 30/30/30
f 33/33/33 34/34/34 32/32/32
