g pb_Mesh127028
v -25 18 20
v -22 6 9
v -22 6 20
v -25 18 -10
v -22 6 -10
v -22 6 -10
v -17 0 9
v -22 6 9
v -17 0 -10
v -20 6 9
v -17 0 20
v -20 6 20
v -17 0 9
v -22 6 20
v -20 6 20
v -17 0 20
v -22 6 20
v -22 6 9
v -20 6 20
v -20 6 9
v -22 6 9
v -17 0 9
v -20 6 9
v 7 6 20
v 7 6 -10
v 15 18 -10
v 15 18 20
v 7 0 20
v 7 0 -10
v 7 6 -10
v 7 6 20
v -10 0 14
v 0 0 14
v 0 4 20
v -10 4 20
v 4 0 20
v 0 4 20
v 0 0 14
v -14 0 20
v -10 0 14
v -10 4 20
v 4 0 20
v -14 0 20
v 0 4 20
v -10 4 20
v -10 11 16
v 0 11 16
v -10 12 16
v 0 12 16
v -12 11 20
v 2 11 20
v -10 11 16
v 0 11 16
v -12 13 20
v -12 11 20
v -10 12 16
v -10 11 16
v 2 11 20
v 2 13 20
v 0 11 16
v 0 12 16
v -12 13 20
v -10 12 16
v 2 13 20
v 0 12 16
v 7 6 -10
v 7 0 -10
v 15 18 -10
v 7 0 -10
v -17 0 -10
v 15 18 -10
v -22 6 -10
v -25 18 -10
v 15 44 -10
v -25 44 -10
v -25 46 -8
v 15 46 -8
v -25 46 6
v -25 46 -8
v -25 44 -10
v -25 44 7
v 15 44 -10
v 15 46 6
v 15 44 7
v 15 46 -8
v -25 46 6
v 15 44 7
v 15 46 6
v -25 44 7
v 15 44 7
v -25 44 7
v 15 44 7
v 15 44 7
v -25 44 7
v -25 44 7
v 15 44 7
v 15 46 6
v 15 46 -8
v -25 46 6
v -25 46 -8
vt 20.136 25.57664
vt 9.119803 13.30695
vt 20.11964 13.28595
vt -9.863559 25.63392
vt -9.879914 13.34322
vt -9.879914 13.34322
vt 9.092546 5.935951
vt 9.119803 13.30695
vt -9.907172 5.972225
vt -9 14.31083
vt -20 7.602631
vt -20 14.31083
vt -9 7.602631
vt -22 6
vt -20 6
vt -17 0
vt 22 20
vt 22 9
vt 20 20
vt 20 9
vt 22 6
vt 17 0
vt 20 6
vt 20 8.471653
vt -10 8.471653
vt -10 22.76954
vt 20 22.76954
vt 20 3.086327
vt -10 3.086327
vt -10 8.471653
vt 20 8.471653
vt 10 11.6487
vt 0 11.6487
vt 0 18.85981
vt 10 18.85981
vt -2.828427 19.29673
vt 2.828427 19.29673
vt 0 12.66348
vt 9.899495 22.31184
vt 7.071068 15.67859
vt 4.24264 22.31184
vt 4 0
vt -14 0
vt 0 4
vt -10 4
vt 10 11
vt 0 11
vt 10 12
vt 0 12
vt -12 20
vt 2 20
vt -10 16
vt 0 16
vt 23.25511 13
vt 23.25511 11
vt 18.78297 12
vt 18.78297 11
vt -18.78297 11
vt -18.78297 13
vt -14.31083 11
vt -14.31083 12
vt 12 22.55581
vt 10 18.43271
vt -2 22.55581
vt 0 18.43271
vt -7 6
vt -7 0
vt -15 18
vt -7 0
vt 17 0
vt -15 18
vt 22 6
vt 25 18
vt 5 74
vt -15 74
vt -15 74.95711
vt 5 74.95711
vt 48 39.00001
vt 41 39.00001
vt 40 38.00001
vt 48 38
vt 54.75 44.49998
vt 62.75 45.49998
vt 63.25 44.49998
vt 55.75 45.49998
vt 5 51
vt -15 50.01436
vt -15 51
vt 5 50.01436
vt -15 50.01436
vt 5 50.01436
vt -15 50.01436
vt -15 50.01436
vt 5 50.01436
vt 5 50.01436
vt -15 50.01436
vt 5.000004 88.5
vt 5.000004 81.5
vt -15 88.5
vt -15 81.5
vn 0.9701425 0.2425356 0
vn 0.9701425 0.2425356 0
vn 0.9701425 0.2425356 0
vn 0.9701425 0.2425356 0
vn 0.9701425 0.2425356 0
vn 0.7682213 0.6401844 0
vn 0.7682213 0.6401844 0
vn 0.7682213 0.6401844 0
vn 0.7682213 0.6401844 0
vn 0.8944272 0.4472136 0
vn 0.8944272 0.4472136 0
vn 0.8944272 0.4472136 0
vn 0.8944272 0.4472136 0
vn 0 0 1
vn 0 0 1
vn 0 0 1
vn 0 1 0
vn 0 1 0
vn 0 1 0
vn 0 1 0
vn 0 0 -1
vn 0 0 -1
vn 0 0 -1
vn -0.8320503 0.5547001 0
vn -0.8320503 0.5547001 0
vn -0.8320503 0.5547001 0
vn -0.8320503 0.5547001 0
vn -1 0 0
vn -1 0 0
vn -1 0 0
vn -1 0 0
vn 0 0.8320503 -0.5547003
vn 0 0.8320503 -0.5547003
vn 0 0.8320503 -0.5547003
vn 0 0.8320503 -0.5547003
vn 0.6396022 0.6396022 -0.4264014
vn 0.6396022 0.6396022 -0.4264014
vn 0.6396022 0.6396022 -0.4264014
vn -0.6396022 0.6396022 -0.4264014
vn -0.6396022 0.6396022 -0.4264014
vn -0.6396022 0.6396022 -0.4264014
vn 0 0 1
vn 0 0 1
vn 0 0 1
vn 0 0 1
vn 0 0 -1
vn 0 0 -1
vn 0 0 -1
vn 0 0 -1
vn 0 -1 0
vn 0 -1 0
vn 0 -1 0
vn 0 -1 0
vn -0.8944272 0 -0.4472136
vn -0.8944272 0 -0.4472136
vn -0.8944272 0 -0.4472136
vn -0.8944272 0 -0.4472136
vn 0.8944272 0 -0.4472136
vn 0.8944272 0 -0.4472136
vn 0.8944272 0 -0.4472136
vn 0.8944272 0 -0.4472136
vn 0 0.9701425 -0.2425356
vn 0 0.9701425 -0.2425356
vn 0 0.9701425 -0.2425356
vn 0 0.9701425 -0.2425356
vn 0 0 -1
vn 0 0 1
vn 0 0 1
vn 0 0 1
vn 0 0 1
vn 0 0 1
vn 0 0 1
vn 0 0 1
vn 0 -0.7071068 0.7071068
vn 0 -0.7071068 0.7071068
vn 0 -0.7071068 0.7071068
vn 0 -0.7071068 0.7071068
vn 1 0 0
vn 1 0 0
vn 1 0 0
vn 1 0 0
vn -1 0 0
vn -1 0 0
vn -1 0 0
vn -1 0 0
vn 0 -0.4472136 -0.8944272
vn 0 -0.4472136 -0.8944272
vn 0 -0.4472136 -0.8944272
vn 0 -0.4472136 -0.8944272
vn 0 -0.4472136 -0.8944272
vn 0 -0.4472136 -0.8944272
vn 0 0 0
vn 0 -0.4472136 -0.8944272
vn 0 -0.4472136 -0.8944272
vn 0 0 0
vn 0 0 0
vn 0 -1 0
vn 0 -1 0
vn 0 -1 0
vn 0 -1 0
g pb_Mesh127028_0
f 3/3/3 2/2/2 1/1/1
f 1/1/1 2/2/2 4/4/4
f 2/2/2 5/5/5 4/4/4
f 8/8/8 7/7/7 6/6/6
f 7/7/7 9/9/9 6/6/6
f 12/12/12 11/11/11 10/10/10
f 11/11/11 13/13/13 10/10/10
f 16/16/16 15/15/15 14/14/14
f 19/19/19 18/18/18 17/17/17
f 19/19/19 20/20/20 18/18/18
f 23/23/23 22/22/22 21/21/21
f 26/26/26 25/25/25 24/24/24
f 26/26/26 24/24/24 27/27/27
f 30/30/30 29/29/29 28/28/28
f 30/30/30 28/28/28 31/31/31
f 34/34/34 33/33/33 32/32/32
f 34/34/34 32/32/32 35/35/35
f 38/38/38 37/37/37 36/36/36
f 41/41/41 40/40/40 39/39/39
f 44/44/44 43/43/43 42/42/42
f 44/44/44 45/45/45 43/43/43
f 48/48/48 47/47/47 46/46/46
f 48/48/48 49/49/49 47/47/47
f 52/52/52 51/51/51 50/50/50
f 52/52/52 53/53/53 51/51/51
f 56/56/56 55/55/55 54/54/54
f 56/56/56 57/57/57 55/55/55
f 60/60/60 59/59/59 58/58/58
f 60/60/60 61/61/61 59/59/59
f 64/64/64 63/63/63 62/62/62
f 64/64/64 65/65/65 63/63/63
f 68/68/68 67/67/67 66/66/66
f 71/71/71 70/70/70 69/69/69
f 72/72/72 70/70/70 71/71/71
f 73/73/73 72/72/72 71/71/71
g pb_Mesh127028_1
f 76/76/76 75/75/75 74/74/74
f 76/76/76 74/74/74 77/77/77
f 80/80/80 79/79/79 78/78/78
f 80/80/80 78/78/78 81/81/81
f 84/84/84 83/83/83 82/82/82
f 83/83/83 85/85/85 82/82/82
f 88/88/88 87/87/87 86/86/86
f 90/90/90 89/89/89 86/86/86
f 93/93/93 92/92/92 91/91/91
f 96/96/96 95/95/95 94/94/94
g pb_Mesh127028_2
f 99/99/99 98/98/98 97/97/97
f 99/99/99 100/100/100 98/98/98
