g pb_Mesh33426
v 1 -1.5 0.5000003
v 1 -1.5 0.5000003
v -1 -1.5 0.5000003
v -5.5 -1.5 0.5000001
v -5.5 -1.5 -0.4999999
v -2.25 -1.5 -0.4999998
v -2.25 -1.5 0.5000002
v -2.25 -1.5 -0.4999998
v 1 -1.5 -0.4999997
v 1 -1.5 0.5000003
v -2.25 -1.5 0.5000002
v -12 -1.5 0.5
v -12 -1.5 -0.5
v -8.75 -1.5 -0.4999999
v -8.75 -1.5 0.5000001
v -8.75 -1.5 -0.4999999
v -5.5 -1.5 -0.4999999
v -5.5 -1.5 0.5000001
v -8.75 -1.5 0.5000001
v -12 -1.5 0.5
v -8.75 -1.5 0.5000001
v -5.5 -1.5 0.5000001
v -2.25 -1.5 0.5000002
v 1 -1.5 0.5000003
v -1 -1.5 0.5000003
v 1 1.5 0.5000001
v 1 1.5 -0.4999999
v 1 3 -0.4999999
v 1 3 0.5000001
v 1 3 -0.4999999
v 1 4.5 -0.5
v 1 4.5 0.5
v 1 3 0.5000001
v 1 -1.5 0.5000003
v 1 -1.5 -0.4999997
v 1 0 -0.4999998
v 1 0 0.5000002
v 1 0 -0.4999998
v 1 1.5 -0.4999999
v 1 1.5 0.5000001
v 1 0 0.5000002
v -12 1.5 0.5
v -12 3 0.5
v -12 3 -0.5
v -12 1.5 -0.5
v -12 3 0.5
v -12 4.5 0.5
v -12 4.5 -0.5
v -12 3 -0.5
v -12 -1.5 0.5
v -12 0 0.5
v -12 0 -0.5
v -12 -1.5 -0.5
v -12 0 0.5
v -12 1.5 0.5
v -12 1.5 -0.5
v -12 0 -0.5
v -5.5 4.5 -0.5
v -5.5 4.5 0.5
v -2.25 4.5 0.5
v -2.25 4.5 -0.5
v -2.25 4.5 0.5
v 1 4.5 0.5
v 1 4.5 -0.5
v -2.25 4.5 -0.5
v -12 4.5 -0.5
v -12 4.5 0.5
v -8.75 4.5 0.5
v -8.75 4.5 -0.5
v -8.75 4.5 0.5
v -5.5 4.5 0.5
v -5.5 4.5 -0.5
v -8.75 4.5 -0.5
vt 0 0
vt 0 0
vt 0 0
vt 5.5 0.1250001
vt 5.5 -0.1249999
vt 4.6875 -0.1249998
vt 4.6875 0.1250002
vt 4.6875 -0.1249998
vt 3.875 -0.1249998
vt 3.875 0.1250002
vt 4.6875 0.1250002
vt 7.125 0.1250001
vt 7.125 -0.1249999
vt 6.3125 -0.1249999
vt 6.3125 0.1250001
vt 6.3125 -0.1249999
vt 5.5 -0.1249999
vt 5.5 0.1250001
vt 6.3125 0.1250001
vt 12 0.5
vt 8.75 0.5000001
vt 5.5 0.5000001
vt 2.25 0.5000002
vt -1 0.5000003
vt 1 0.5000003
vt 0.5000001 1.5
vt -0.4999999 1.5
vt -0.4999999 3
vt 0.5000001 3
vt -0.4999999 3
vt -0.5 4.5
vt 0.5 4.5
vt 0.5000001 3
vt 0.5000003 -1.5
vt -0.4999997 -1.5
vt -0.4999998 0
vt 0.5000002 0
vt -0.4999998 0
vt -0.4999999 1.5
vt 0.5000001 1.5
vt 0.5000002 0
vt 0.5 1.5
vt 0.5 3
vt -0.5 3
vt -0.5 1.5
vt 0.5 3
vt 0.5 4.5
vt -0.5 4.5
vt -0.5 3
vt 0.5 -1.5
vt 0.5 0
vt -0.5 0
vt -0.5 -1.5
vt 0.5 0
vt 0.5 1.5
vt -0.5 1.5
vt -0.5 0
vt 5.5 -0.5
vt 5.5 0.5
vt 2.25 0.5
vt 2.25 -0.5
vt 2.25 0.5
vt -1 0.5
vt -1 -0.5
vt 2.25 -0.5
vt 12 -0.5
vt 12 0.5
vt 8.75 0.5
vt 8.75 -0.5
vt 8.75 0.5
vt 5.5 0.5
vt 5.5 -0.5
vt 8.75 -0.5
vn 0 0 0
vn 0 0 0
vn 0 0 0
vn 0 1 0
vn 0 1 0
vn 0 1 0
vn 0 1 0
vn 0 1 0
vn 0 1 0
vn 0 1 0
vn 0 1 0
vn 0 1 0
vn 0 1 0
vn 0 1 0
vn 0 1 0
vn 0 1 0
vn 0 1 0
vn 0 0.9999999 0
vn 0 1 0
vn 0 1 0
vn 0 1 0
vn 0 1 0
vn 0 1 0
vn 0 1 0
vn 0 1 0
vn -1 0 0
vn -1 0 0
vn -1 0 0
vn -1 0 0
vn -1 0 0
vn -1 0 0
vn -1 0 0
vn -1 0 0
vn -1 0 0
vn -1 0 0
vn -1 0 0
vn -1 0 0
vn -1 0 0
vn -1 0 0
vn -1 0 0
vn -1 0 0
vn 1 0 0
vn 1 0 0
vn 1 0 0
vn 1 0 0
vn 1 0 0
vn 1 0 0
vn 1 0 0
vn 1 0 0
vn 1 0 0
vn 1 0 0
vn 1 0 0
vn 1 0 0
vn 1 0 0
vn 1 0 0
vn 1 0 0
vn 1 0 0
vn 0 -1 0
vn 0 -1 0
vn 0 -1 0
vn 0 -1 0
vn 0 -1 0
vn 0 -1 0
vn 0 -1 0
vn 0 -1 0
vn 0 -1 0
vn 0 -1 0
vn 0 -1 0
vn 0 -1 0
vn 0 -1 0
vn 0 -1 0
vn 0 -1 0
vn 0 -1 0
g pb_Mesh33426_0
f 3/3/3 2/2/2 1/1/1
f 25/25/25 21/21/21 20/20/20
f 21/21/21 23/23/23 22/22/22
f 21/21/21 25/25/25 23/23/23
f 25/25/25 24/24/24 23/23/23
g pb_Mesh33426_1
f 6/6/6 5/5/5 4/4/4
f 7/7/7 6/6/6 4/4/4
f 9/9/9 8/8/8 11/11/11
f 10/10/10 9/9/9 11/11/11
f 14/14/14 13/13/13 12/12/12
f 15/15/15 14/14/14 12/12/12
f 17/17/17 16/16/16 19/19/19
f 18/18/18 17/17/17 19/19/19
g pb_Mesh33426_2
f 29/29/29 27/27/27 26/26/26
f 28/28/28 27/27/27 29/29/29
f 32/32/32 30/30/30 33/33/33
f 31/31/31 30/30/30 32/32/32
f 37/37/37 35/35/35 34/34/34
f 36/36/36 35/35/35 37/37/37
f 40/40/40 38/38/38 41/41/41
f 39/39/39 38/38/38 40/40/40
f 43/43/43 42/42/42 44/44/44
f 42/42/42 45/45/45 44/44/44
f 47/47/47 46/46/46 48/48/48
f 46/46/46 49/49/49 48/48/48
f 51/51/51 50/50/50 52/52/52
f 50/50/50 53/53/53 52/52/52
f 55/55/55 54/54/54 56/56/56
f 54/54/54 57/57/57 56/56/56
f 59/59/59 58/58/58 60/60/60
f 58/58/58 61/61/61 60/60/60
f 62/62/62 65/65/65 63/63/63
f 65/65/65 64/64/64 63/63/63
f 67/67/67 66/66/66 68/68/68
f 66/66/66 69/69/69 68/68/68
f 70/70/70 73/73/73 71/71/71
f 73/73/73 72/72/72 71/71/71
