g pb_Mesh1278314
v -0.2000001 0.1832886 0
v -0.1999974 0.4999999 -0.2031403
v -0.1414214 0.1832886 0.1414214
v -0.141419 0.6414184 -0.2031403
v -0.1414214 0.1832886 0.1414214
v -0.141419 0.6414184 -0.2031403
v -1.442056E-07 0.1832886 0.2
v -5.960464E-07 0.699997 -0.2031403
v -1.442056E-07 0.1832886 0.2
v -5.960464E-07 0.699997 -0.2031403
v 0.1414213 0.1832886 0.1414214
v 0.1414179 0.6414186 -0.2031403
v 0.1414213 0.1832886 0.1414214
v 0.1414179 0.6414186 -0.2031403
v 0.1999999 0.1832886 -1.748456E-08
v 0.1999966 0.5000002 -0.2031403
v 0.1999999 0.1832886 -1.748456E-08
v 0.1999966 0.5000002 -0.2031403
v 0.1414213 0.1832886 -0.1414213
v 0.1999966 0.5000002 -0.2031403
v 0.1414182 0.3585817 -0.2031403
v 0.1414213 0.1832886 -0.1414213
v 0.1414213 0.1832886 -0.1414213
v 0.1414182 0.3585817 -0.2031403
v -1.553329E-07 0.1832886 -0.2
v -2.384186E-07 0.3000031 -0.2031403
v -1.553329E-07 0.1832886 -0.2
v -2.384186E-07 0.3000031 -0.2031403
v -0.1414214 0.1832886 -0.1414214
v -0.1414188 0.3585814 -0.2031403
v -0.1414214 0.1832886 -0.1414214
v -0.1414188 0.3585814 -0.2031403
v -0.2000001 0.1832886 0
v -0.1999974 0.4999999 -0.2031403
v -0.1414214 0.1832886 0.1414214
v -1.529479E-07 0.1832886 0
v -0.2000001 0.1832886 0
v -1.442056E-07 0.1832886 0.2
v 0.1414213 0.1832886 0.1414214
v 0.1999999 0.1832886 -1.748456E-08
v 0.1414213 0.1832886 -0.1414213
v -1.553329E-07 0.1832886 -0.2
v -0.1414214 0.1832886 -0.1414214
v -0.1999974 0.4999999 -0.2031403
v -4.172325E-07 0.5000001 -0.2031403
v -0.141419 0.6414184 -0.2031403
v -5.960464E-07 0.699997 -0.2031403
v 0.1414179 0.6414186 -0.2031403
v 0.1999966 0.5000002 -0.2031403
v 0.1414182 0.3585817 -0.2031403
v -2.384186E-07 0.3000031 -0.2031403
v -0.1414188 0.3585814 -0.2031403
vt -0.07653671 0.1339564
vt -0.2642128 0.4600694
vt 0.07653667 0.1339564
vt -0.2417958 0.6103122
vt -0.07653674 0.04508113
vt -0.2083926 0.6029518
vt 0.07653658 0.04508113
vt -0.07773899 0.6819385
vt -0.07653678 0.04064098
vt 0.07773782 0.6775939
vt 0.07653666 0.04064098
vt 0.2083915 0.5984286
vt -0.07653674 0.1250297
vt 0.2417954 0.6017586
vt 0.07653666 0.1250297
vt 0.2642125 0.4508882
vt -0.07653665 0.2220502
vt 0.1111417 0.5481622
vt 0.0765367 0.2220502
vt 0.1111417 0.5481622
vt 0.1335587 0.3979197
vt 0.0765367 0.2220502
vt -0.07653666 0.2314557
vt -0.05291498 0.4157894
vt 0.0765368 0.2314557
vt 0.07773861 0.3433434
vt -0.07653657 0.1878237
vt -0.07773822 0.3045742
vt 0.0765367 0.1878237
vt 0.05291546 0.3644793
vt -0.07653667 0.2063186
vt -0.1335585 0.3831951
vt 0.07653673 0.2063186
vt -0.1111414 0.5305734
vt -0.1414214 0.1414214
vt -1.529479E-07 0
vt -0.2000001 0
vt -1.442056E-07 0.2
vt 0.1414213 0.1414214
vt 0.1999999 -1.748456E-08
vt 0.1414213 -0.1414213
vt -1.553329E-07 -0.2
vt -0.1414214 -0.1414214
vt 0.1999974 0.4999999
vt 4.172325E-07 0.5000001
vt 0.141419 0.6414184
vt 5.960464E-07 0.699997
vt -0.1414179 0.6414186
vt -0.1999966 0.5000002
vt -0.1414182 0.3585817
vt 2.384186E-07 0.3000031
vt 0.1414188 0.3585814
vn -0.8751694 -0.004461773 -0.04388539
vn -0.8265042 -0.01685905 -0.04758169
vn -0.5869433 0.4327719 0.5879597
vn -0.5511401 0.462766 0.6077452
vn -0.5869433 0.4327719 0.5879597
vn -0.5511401 0.462766 0.6077452
vn 0.01578832 0.5845993 0.7557352
vn 0.01597501 0.5902722 0.7630063
vn 0.01578832 0.5845993 0.7557352
vn 0.01597501 0.5902722 0.7630063
vn 0.5833492 0.4305261 0.5648774
vn 0.550612 0.4390958 0.5963671
vn 0.5833492 0.4305261 0.5648774
vn 0.550612 0.4390958 0.5963671
vn 0.8784351 0.02827567 0.0227832
vn 0.8232449 0.04066703 0.02647166
vn 0.8784351 0.02827567 0.0227832
vn 0.8232449 0.04066703 0.02647166
vn 0.6085046 -0.2783181 -0.6689951
vn 0.8232449 0.04066703 0.02647166
vn 0.4326966 -0.2347998 -0.841819
vn 0.6085046 -0.2783181 -0.6689951
vn 0.6085046 -0.2783181 -0.6689951
vn 0.4326966 -0.2347998 -0.841819
vn -0.07134538 -0.1176736 -0.9356513
vn -0.1143672 -0.118696 -0.9736422
vn -0.07134538 -0.1176736 -0.9356513
vn -0.1143672 -0.118696 -0.9736422
vn -0.5777409 -0.1720084 -0.6634827
vn -0.4946875 -0.2881579 -0.696932
vn -0.5777409 -0.1720084 -0.6634827
vn -0.4946875 -0.2881579 -0.696932
vn -0.8751694 -0.004461773 -0.04388539
vn -0.8265042 -0.01685905 -0.04758169
vn 0 -1 0
vn 0 -1 0
vn 0 -1 0
vn 0 -1 0
vn 0 -1 0
vn 0 -0.9999999 0
vn 0 -1 0
vn 0 -1 0
vn 0 -0.9999999 0
vn 0 0 -1
vn 0 0 -1
vn 0 0 -1
vn 0 0 -1
vn 0 0 -1
vn 0 0 -1
vn 0 0 -1
vn 0 0 -0.9999999
vn 0 0 -1
g pb_Mesh1278314_0
f 3/3/3 2/2/2 1/1/1
f 3/3/3 4/4/4 2/2/2
f 7/7/7 6/6/6 5/5/5
f 7/7/7 8/8/8 6/6/6
f 11/11/11 10/10/10 9/9/9
f 11/11/11 12/12/12 10/10/10
f 15/15/15 14/14/14 13/13/13
f 15/15/15 16/16/16 14/14/14
f 19/19/19 18/18/18 17/17/17
f 22/22/22 21/21/21 20/20/20
f 25/25/25 24/24/24 23/23/23
f 25/25/25 26/26/26 24/24/24
f 29/29/29 28/28/28 27/27/27
f 29/29/29 30/30/30 28/28/28
f 33/33/33 32/32/32 31/31/31
f 33/33/33 34/34/34 32/32/32
f 37/37/37 36/36/36 35/35/35
f 35/35/35 36/36/36 38/38/38
f 38/38/38 36/36/36 39/39/39
f 39/39/39 36/36/36 40/40/40
f 40/40/40 36/36/36 41/41/41
f 41/41/41 36/36/36 42/42/42
f 42/42/42 36/36/36 43/43/43
f 43/43/43 36/36/36 37/37/37
f 46/46/46 45/45/45 44/44/44
f 47/47/47 45/45/45 46/46/46
f 48/48/48 45/45/45 47/47/47
f 49/49/49 45/45/45 48/48/48
f 50/50/50 45/45/45 49/49/49
f 51/51/51 45/45/45 50/50/50
f 52/52/52 45/45/45 51/51/51
f 44/44/44 45/45/45 52/52/52
