g pb_Mesh65576
v 24.57489 8.675629 3.737213
v 27.30916 9.884979 2.101357
v 28.27516 9.107361 6.198757
v 24.30746 7.754089 7.014099
v 30.04344 11.09433 0.4654999
v 32.24286 10.46062 5.383415
v 29.24116 8.329742 10.29614
v 34.44229 9.826904 10.30132
v 24.04004 6.832565 10.29097
v 18.83891 5.335388 10.2858
v 20.47346 6.861603 6.190998
v 13.63778 3.838226 10.28062
v 16.63948 5.969101 5.367889
v 19.64118 8.099976 0.4551506
v 22.10803 8.387802 2.096184
v 22.64289 10.23087 -4.457588
v 24.97602 10.05792 -1.178116
v 25.64458 12.36174 -9.370331
v 27.84401 11.72803 -4.452415
v 3.900581 2.017471 3.515671
v 6.55069 3.41449 1.931934
v 7.552032 2.700256 6.052528
v 3.684784 1.075623 6.790649
v 9.20079 4.811523 0.3481979
v 11.41928 4.324875 5.314415
v 8.553375 1.986008 10.17311
v 13.63778 3.838226 10.28062
v 3.468979 0.1337891 10.06561
v -1.615425 -1.71843 9.958099
v -0.0745697 -0.07806396 5.891273
v -6.699829 -3.570648 9.850594
v -3.833923 -1.231781 4.991898
v -0.9680176 1.107086 0.1331863
v 1.466278 1.562286 1.824429
v 1.897888 3.445953 -4.725525
v 4.224289 3.430237 -1.396797
v 4.763794 5.784836 -9.584236
v 6.982292 5.298187 -4.618019
v -16.19469 -6.031418 2.894253
v -13.6268 -4.448822 1.364464
v -12.63412 -5.108627 5.502892
v -16.38885 -6.99881 6.163132
v -11.05892 -2.866241 -0.165329
v -8.879379 -3.218445 4.84264
v -11.64142 -5.768433 9.641296
v -6.699829 -3.570648 9.850594
v -16.58302 -7.966202 9.431999
v -21.52461 -10.16397 9.222702
v -20.0465 -8.405289 5.188942
v -26.4662 -12.36176 9.013405
v -23.70415 -9.811783 4.214748
v -20.94211 -7.26181 -0.5839233
v -18.5684 -6.646606 1.155167
v -18.18006 -4.711823 -5.382595
v -15.90343 -4.580322 -2.009068
v -15.41801 -2.16185 -10.18127
v -13.23846 -2.514038 -5.173298
v -8.421799 -1.424393 -1.735146
v -5.784683 0.01745605 -3.304966
v -6.127869 -1.328094 1.628372
v -3.37635 0.5622711 -1.585892
v -0.9680176 1.107086 0.1331863
v -3.833923 -1.231781 4.991898
v -8.879379 -3.218445 4.84264
v -6.699829 -3.570648 9.850594
v -11.05892 -2.866241 -0.165329
v -9.397179 -0.7997894 -5.883579
v -5.555893 0.9144745 -6.593857
v -13.23846 -2.514038 -5.173298
v -15.41801 -2.16185 -10.18127
v -10.37256 -0.1751709 -10.03201
v -5.32711 1.811493 -9.882751
v -1.828995 2.180206 -5.659691
v -0.281662 3.798157 -9.733494
v 1.897888 3.445953 -4.725525
v 4.763794 5.784836 -9.584236
v 11.94142 6.069885 -1.271557
v 14.68205 7.328262 -2.891312
v 14.29045 6.019485 2.048164
v 17.16162 7.714111 -1.218079
v 19.64118 8.099976 0.4551506
v 16.63948 5.969101 5.367889
v 11.41928 4.324875 5.314415
v 13.63778 3.838226 10.28062
v 9.20079 4.811523 0.3481979
v 10.96271 6.749481 -5.401157
v 14.94312 8.200775 -6.184296
v 6.982292 5.298187 -4.618019
v 4.763794 5.784836 -9.584236
v 9.983994 7.429062 -9.530762
v 15.20419 9.073288 -9.477283
v 18.793 9.21582 -5.320942
v 20.42439 10.71751 -9.423805
v 22.64289 10.23087 -4.457588
v 25.64458 12.36174 -9.370331
v -25.44217 -8.638977 -3.823051
v -25.18616 -7.708282 -7.032169
v -21.68311 -6.210052 -6.207382
v -23.19214 -7.950394 -2.203487
v -24.93015 -6.777603 -10.24129
v -20.17408 -4.469727 -10.21128
v -18.18006 -4.711823 -5.382595
v -15.41801 -2.16185 -10.18127
v -20.94211 -7.26181 -0.5839233
v -27.9482 -10.25827 -2.233498
v -25.82618 -10.03503 0.9906235
v -23.70415 -9.811783 4.214748
v -28.46022 -12.11966 4.184738
v -26.4662 -12.36176 9.013405
v -30.45424 -11.87756 -0.6439438
v -28.81721 -9.67189 -6.252396
v -32.44826 -11.63547 -5.472626
v -34.44228 -11.39336 -10.30131
v -29.68621 -9.08548 -10.2713
vt 2.650882 2.424427
vt 2.560455 2.370327
vt 2.528508 2.505834
vt 2.659726 2.532798
vt 2.470028 2.316226
vt 2.39729 2.478869
vt 2.496561 2.641341
vt 2.324552 2.641512
vt 2.66857 2.64117
vt 2.840579 2.640998
vt 2.786522 2.505577
vt 3.012589 2.640827
vt 2.913317 2.478356
vt 2.814046 2.315884
vt 2.732464 2.370155
vt 2.714775 2.153413
vt 2.637615 2.26187
vt 2.615504 1.990941
vt 2.542766 2.153584
vt 3.334612 2.4171
vt 3.246969 2.364723
vt 3.213853 2.500998
vt 3.341749 2.525408
vt 3.159327 2.312347
vt 3.085958 2.476587
vt 3.180737 2.637272
vt 3.012589 2.640827
vt 3.348886 2.633716
vt 3.517034 2.630161
vt 3.466076 2.495665
vt 3.685183 2.626606
vt 3.590403 2.465921
vt 3.495624 2.305236
vt 3.415118 2.361168
vt 3.400844 2.144552
vt 3.323907 2.254638
vt 3.306065 1.983867
vt 3.232696 2.148107
vt 3.999191 2.396549
vt 3.914268 2.345956
vt 3.881438 2.48282
vt 4.005612 2.504656
vt 3.829344 2.295364
vt 3.757263 2.460985
vt 3.848608 2.619684
vt 3.685183 2.626606
vt 4.012034 2.612762
vt 4.17546 2.605841
vt 4.126576 2.472438
vt 4.338885 2.598919
vt 4.24754 2.44022
vt 4.156196 2.281521
vt 4.077693 2.339035
vt 4.064851 2.122821
vt 3.989559 2.234389
vt 3.973506 1.964122
vt 3.901425 2.129743
vt 3.742131 2.243448
vt 3.654918 2.191532
vt 3.666267 2.354684
vt 3.575271 2.248384
vt 3.495624 2.305236
vt 3.590403 2.465921
vt 3.757263 2.460985
vt 3.685183 2.626606
vt 3.829344 2.295364
vt 3.774388 2.106253
vt 3.647352 2.082763
vt 3.901425 2.129743
vt 3.973506 1.964122
vt 3.806645 1.969059
vt 3.639785 1.973995
vt 3.524098 2.113657
vt 3.472925 1.978931
vt 3.400844 2.144552
vt 3.306065 1.983867
vt 3.06869 2.258779
vt 2.978053 2.205212
vt 2.991004 2.368567
vt 2.896049 2.260548
vt 2.814046 2.315884
vt 2.913317 2.478356
vt 3.085958 2.476587
vt 3.012589 2.640827
vt 3.159327 2.312347
vt 3.101057 2.122207
vt 2.969419 2.096308
vt 3.232696 2.148107
vt 3.306065 1.983867
vt 3.133425 1.985636
vt 2.960784 1.987404
vt 2.842097 2.12486
vt 2.788144 1.989173
vt 2.714775 2.153413
vt 2.615504 1.990941
vt 4.305019 2.174398
vt 4.296553 2.068268
vt 4.180702 2.095544
vt 4.230608 2.227959
vt 4.288086 1.962137
vt 4.130796 1.96313
vt 4.064851 2.122821
vt 3.973506 1.964122
vt 4.156196 2.281521
vt 4.387897 2.226967
vt 4.317719 2.333593
vt 4.24754 2.44022
vt 4.40483 2.439227
vt 4.338885 2.598919
vt 4.470776 2.279536
vt 4.416636 2.094056
vt 4.536721 2.119844
vt 4.602666 1.960152
vt 4.445376 1.961145
vn -0.2687332 0.9327391 0.2403753
vn -0.2687327 0.9327394 0.2403748
vn -0.2687333 0.9327391 0.2403755
vn -0.2687329 0.932739 0.2403759
vn -0.2687326 0.9327395 0.2403743
vn -0.2687319 0.9327395 0.2403752
vn -0.268733 0.9327391 0.2403753
vn -0.2687311 0.9327396 0.2403757
vn -0.2687327 0.9327391 0.2403756
vn -0.2687335 0.9327386 0.2403769
vn -0.2687332 0.9327391 0.2403752
vn -0.3001536 0.9241599 0.2342872
vn -0.281841 0.9309558 0.2315918
vn -0.2818421 0.9309555 0.231592
vn -0.2687343 0.9327391 0.2403737
vn -0.2818401 0.9309559 0.2315924
vn -0.2687334 0.9327393 0.2403742
vn -0.2818397 0.9309561 0.2315925
vn -0.2687318 0.9327399 0.2403736
vn -0.3367804 0.9105682 0.239676
vn -0.3367811 0.9105682 0.239675
vn -0.3367823 0.9105678 0.239675
vn -0.3367816 0.9105676 0.2396765
vn -0.3158638 0.9198703 0.2312435
vn -0.3188529 0.9185415 0.2324464
vn -0.3367825 0.9105675 0.2396757
vn -0.3001536 0.9241599 0.2342872
vn -0.3367811 0.9105679 0.2396761
vn -0.3367832 0.9105669 0.2396769
vn -0.3367822 0.9105676 0.2396758
vn -0.367612 0.8998041 0.232961
vn -0.349859 0.9078233 0.2306412
vn -0.3498594 0.9078235 0.2306401
vn -0.336783 0.9105676 0.2396742
vn -0.3498602 0.907823 0.2306409
vn -0.3367822 0.9105677 0.2396753
vn -0.331556 0.9149393 0.2280313
vn -0.3128766 0.9211988 0.2300386
vn -0.4031192 0.8837659 0.2375976
vn -0.4031193 0.883766 0.2375975
vn -0.403119 0.8837656 0.237599
vn -0.4031184 0.8837661 0.2375984
vn -0.3830262 0.894423 0.2296024
vn -0.3858964 0.8929004 0.2307452
vn -0.4031185 0.8837656 0.2375999
vn -0.367612 0.8998041 0.232961
vn -0.4031177 0.8837664 0.2375984
vn -0.4031195 0.8837661 0.2375966
vn -0.4031193 0.8837662 0.2375968
vn -0.415043 0.8803955 0.2289425
vn -0.4150432 0.8803956 0.2289419
vn -0.4150431 0.8803952 0.2289432
vn -0.4031201 0.8837659 0.2375964
vn -0.4150428 0.8803955 0.2289428
vn -0.4031199 0.8837658 0.2375968
vn -0.3976739 0.8886235 0.2264966
vn -0.3801565 0.8959453 0.2284595
vn -0.3629346 0.9050794 0.2216075
vn -0.3629338 0.9050797 0.2216072
vn -0.3629338 0.9050794 0.2216084
vn -0.3629324 0.9050801 0.2216079
vn -0.3498594 0.9078235 0.2306401
vn -0.349859 0.9078233 0.2306412
vn -0.3858964 0.8929004 0.2307452
vn -0.367612 0.8998041 0.232961
vn -0.3830262 0.894423 0.2296024
vn -0.362935 0.9050794 0.2216067
vn -0.3629337 0.9050798 0.2216069
vn -0.3801565 0.8959453 0.2284595
vn -0.3976739 0.8886235 0.2264966
vn -0.3629346 0.9050794 0.2216074
vn -0.3629331 0.9050799 0.2216076
vn -0.3629329 0.9050802 0.2216071
vn -0.3629353 0.9050787 0.2216089
vn -0.3498602 0.907823 0.2306409
vn -0.331556 0.9149393 0.2280313
vn -0.294947 0.9291723 0.2228121
vn -0.2949475 0.9291719 0.2228124
vn -0.2949476 0.9291726 0.2228096
vn -0.2949482 0.9291718 0.2228121
vn -0.2818421 0.9309555 0.231592
vn -0.281841 0.9309558 0.2315918
vn -0.3188529 0.9185415 0.2324464
vn -0.3001536 0.9241599 0.2342872
vn -0.3158638 0.9198703 0.2312435
vn -0.2949471 0.9291723 0.2228115
vn -0.2949477 0.9291723 0.2228106
vn -0.3128766 0.9211988 0.2300386
vn -0.331556 0.9149393 0.2280313
vn -0.2949473 0.9291726 0.22281
vn -0.294948 0.9291723 0.2228102
vn -0.2949483 0.929172 0.2228112
vn -0.2949477 0.9291726 0.2228097
vn -0.2818401 0.9309559 0.2315924
vn -0.2818397 0.9309561 0.2315925
vn -0.4269664 0.8770245 0.2202901
vn -0.4269668 0.8770248 0.2202881
vn -0.4269644 0.8770257 0.2202891
vn -0.4269639 0.8770252 0.2202919
vn -0.4269652 0.8770261 0.2202862
vn -0.4269655 0.8770255 0.2202879
vn -0.4150428 0.8803955 0.2289428
vn -0.3976739 0.8886235 0.2264966
vn -0.4150431 0.8803952 0.2289432
vn -0.4269674 0.8770242 0.2202895
vn -0.4269655 0.8770248 0.2202906
vn -0.4150432 0.8803956 0.2289419
vn -0.4269656 0.8770253 0.2202882
vn -0.415043 0.8803955 0.2289425
vn -0.4269666 0.8770245 0.2202899
vn -0.4269683 0.8770239 0.2202888
vn -0.4269665 0.8770247 0.2202894
vn -0.4269655 0.8770248 0.2202909
vn -0.4269666 0.8770245 0.2202896
g pb_Mesh65576_0
f 3/3/3 2/2/2 1/1/1
f 3/3/3 1/1/1 4/4/4
f 6/6/6 5/5/5 2/2/2
f 3/3/3 6/6/6 2/2/2
f 7/7/7 6/6/6 3/3/3
f 8/8/8 6/6/6 7/7/7
f 7/7/7 3/3/3 4/4/4
f 7/7/7 4/4/4 9/9/9
f 9/9/9 11/11/11 10/10/10
f 9/9/9 4/4/4 11/11/11
f 10/10/10 13/13/13 12/12/12
f 10/10/10 11/11/11 13/13/13
f 13/13/13 11/11/11 14/14/14
f 11/11/11 15/15/15 14/14/14
f 1/1/1 15/15/15 11/11/11
f 4/4/4 1/1/1 11/11/11
f 17/17/17 16/16/16 14/14/14
f 15/15/15 17/17/17 14/14/14
f 19/19/19 18/18/18 16/16/16
f 17/17/17 19/19/19 16/16/16
f 5/5/5 19/19/19 17/17/17
f 2/2/2 5/5/5 17/17/17
f 15/15/15 1/1/1 17/17/17
f 1/1/1 2/2/2 17/17/17
f 22/22/22 21/21/21 20/20/20
f 22/22/22 20/20/20 23/23/23
f 25/25/25 24/24/24 21/21/21
f 22/22/22 25/25/25 21/21/21
f 26/26/26 25/25/25 22/22/22
f 27/27/27 25/25/25 26/26/26
f 26/26/26 22/22/22 23/23/23
f 26/26/26 23/23/23 28/28/28
f 28/28/28 30/30/30 29/29/29
f 28/28/28 23/23/23 30/30/30
f 29/29/29 32/32/32 31/31/31
f 29/29/29 30/30/30 32/32/32
f 32/32/32 30/30/30 33/33/33
f 30/30/30 34/34/34 33/33/33
f 20/20/20 34/34/34 30/30/30
f 23/23/23 20/20/20 30/30/30
f 36/36/36 35/35/35 33/33/33
f 34/34/34 36/36/36 33/33/33
f 38/38/38 37/37/37 35/35/35
f 36/36/36 38/38/38 35/35/35
f 24/24/24 38/38/38 36/36/36
f 21/21/21 24/24/24 36/36/36
f 34/34/34 20/20/20 36/36/36
f 20/20/20 21/21/21 36/36/36
f 41/41/41 40/40/40 39/39/39
f 41/41/41 39/39/39 42/42/42
f 44/44/44 43/43/43 40/40/40
f 41/41/41 44/44/44 40/40/40
f 45/45/45 44/44/44 41/41/41
f 46/46/46 44/44/44 45/45/45
f 45/45/45 41/41/41 42/42/42
f 45/45/45 42/42/42 47/47/47
f 47/47/47 49/49/49 48/48/48
f 47/47/47 42/42/42 49/49/49
f 48/48/48 51/51/51 50/50/50
f 48/48/48 49/49/49 51/51/51
f 51/51/51 49/49/49 52/52/52
f 49/49/49 53/53/53 52/52/52
f 39/39/39 53/53/53 49/49/49
f 42/42/42 39/39/39 49/49/49
f 55/55/55 54/54/54 52/52/52
f 53/53/53 55/55/55 52/52/52
f 57/57/57 56/56/56 54/54/54
f 55/55/55 57/57/57 54/54/54
f 43/43/43 57/57/57 55/55/55
f 40/40/40 43/43/43 55/55/55
f 53/53/53 39/39/39 55/55/55
f 39/39/39 40/40/40 55/55/55
f 60/60/60 59/59/59 58/58/58
f 61/61/61 59/59/59 60/60/60
f 60/60/60 62/62/62 61/61/61
f 63/63/63 62/62/62 60/60/60
f 63/63/63 60/60/60 64/64/64
f 65/65/65 63/63/63 64/64/64
f 66/66/66 60/60/60 58/58/58
f 64/64/64 60/60/60 66/66/66
f 58/58/58 59/59/59 67/67/67
f 59/59/59 68/68/68 67/67/67
f 58/58/58 67/67/67 69/69/69
f 66/66/66 58/58/58 69/69/69
f 69/69/69 71/71/71 70/70/70
f 67/67/67 71/71/71 69/69/69
f 67/67/67 68/68/68 71/71/71
f 68/68/68 72/72/72 71/71/71
f 73/73/73 68/68/68 59/59/59
f 61/61/61 73/73/73 59/59/59
f 73/73/73 72/72/72 68/68/68
f 73/73/73 74/74/74 72/72/72
f 75/75/75 74/74/74 73/73/73
f 75/75/75 76/76/76 74/74/74
f 62/62/62 73/73/73 61/61/61
f 62/62/62 75/75/75 73/73/73
f 79/79/79 78/78/78 77/77/77
f 80/80/80 78/78/78 79/79/79
f 79/79/79 81/81/81 80/80/80
f 82/82/82 81/81/81 79/79/79
f 82/82/82 79/79/79 83/83/83
f 84/84/84 82/82/82 83/83/83
f 85/85/85 79/79/79 77/77/77
f 83/83/83 79/79/79 85/85/85
f 77/77/77 78/78/78 86/86/86
f 78/78/78 87/87/87 86/86/86
f 77/77/77 86/86/86 88/88/88
f 85/85/85 77/77/77 88/88/88
f 88/88/88 90/90/90 89/89/89
f 86/86/86 90/90/90 88/88/88
f 86/86/86 87/87/87 90/90/90
f 87/87/87 91/91/91 90/90/90
f 92/92/92 87/87/87 78/78/78
f 80/80/80 92/92/92 78/78/78
f 92/92/92 91/91/91 87/87/87
f 92/92/92 93/93/93 91/91/91
f 94/94/94 93/93/93 92/92/92
f 94/94/94 95/95/95 93/93/93
f 81/81/81 92/92/92 80/80/80
f 81/81/81 94/94/94 92/92/92
f 98/98/98 97/97/97 96/96/96
f 99/99/99 98/98/98 96/96/96
f 98/98/98 100/100/100 97/97/97
f 98/98/98 101/101/101 100/100/100
f 102/102/102 101/101/101 98/98/98
f 102/102/102 103/103/103 101/101/101
f 104/104/104 98/98/98 99/99/99
f 104/104/104 102/102/102 98/98/98
f 106/106/106 96/96/96 105/105/105
f 99/99/99 96/96/96 106/106/106
f 106/106/106 104/104/104 99/99/99
f 107/107/107 104/104/104 106/106/106
f 107/107/107 106/106/106 108/108/108
f 109/109/109 107/107/107 108/108/108
f 110/110/110 106/106/106 105/105/105
f 108/108/108 106/106/106 110/110/110
f 105/105/105 96/96/96 111/111/111
f 96/96/96 97/97/97 111/111/111
f 105/105/105 111/111/111 112/112/112
f 110/110/110 105/105/105 112/112/112
f 112/112/112 114/114/114 113/113/113
f 111/111/111 114/114/114 112/112/112
f 111/111/111 97/97/97 114/114/114
f 97/97/97 100/100/100 114/114/114
