g pb_Mesh22250
v 0 0 0.75
v -8 0 0.75
v 0 26 1
v -8 26 1
v -8 0 -0.25
v -8 0 -44
v -8 26 0
v -8 0 -44
v -8 0 -44
v -8 26 0
v -8 0 -44
v 0 0 -44
v -8 0 -44
v 0 0 -44
v 0 0 -44
v -8 0 -44
v 0 0 -44
v 0 0 -0.25
v 0 0 -44
v 0 0 -0.25
v 0 26 0
v 0 0 -44
v 0 26 0
v -8 26 0
v 0 0 -44
v -8 0 -44
v 0 0 -44
v -8 0 -44
v 0 0 -0.25
v -8 0 -0.25
v 0 0 0.75
v -8 0 0.75
v 0 26 0
v 0 0 -0.25
v 0 26 1
v 0 0 0.75
v -8 26 0
v -8 0 0.75
v -8 26 1
v -8 26 0
v 0 26 0
v -8 26 1
v 0 26 1
vt 0 0.007211205
vt -8 0.007211205
vt 0 26.00841
vt -8 26.00841
vt -0.25 0
vt -44 0
vt 0 26
vt -44 0
vt -44 0
vt 0 26
vt 0 0
vt 0 0
vt 0 0
vt 0 0
vt 0 0
vt 0 0
vt 0 0
vt 0 0
vt 0 0
vt 0 0
vt 0 0
vt 0 0
vt 0 13.22696
vt 8 13.22696
vt 0 -37.88077
vt 8 -37.88077
vt 0 -44
vt -8 -44
vt 0 -0.25
vt -8 -0.25
vt 0 0.75
vt -8 0.75
vt 0 26
vt 0.25 0
vt -1 26
vt -0.75 0
vt 0 26
vt 0.75 0
vt 1 26
vt 8 0
vt 0 0
vt 8 1
vt 0 1
vn 0 -0.00961494 0.9999537
vn 0 -0.00961494 0.9999537
vn 0 -0.00961494 0.9999537
vn 0 -0.00961494 0.9999537
vn -1 0 0
vn -1 0 0
vn -1 0 0
vn -1 0 0
vn 0 0 0
vn -1 0 0
vn 0 0 0
vn 0 0 0
vn 0 0 0
vn 0 0 0
vn 0 0 0
vn 0 0 0
vn 0 0 0
vn 1 0 0
vn 1 0 0
vn 1 0 0
vn 1 0 0
vn 1 0 0
vn 0 0.8609265 -0.5087293
vn 0 0.8609265 -0.5087293
vn 0 0.8609265 -0.5087293
vn 0 0.8609265 -0.5087293
vn 0 -1 0
vn 0 -1 0
vn 0 -1 0
vn 0 -1 0
vn 0 -1 0
vn 0 -1 0
vn 1 0 0
vn 1 0 0
vn 1 0 0
vn 1 0 0
vn -1 0 0
vn -1 0 0
vn -1 0 0
vn 0 1 0
vn 0 1 0
vn 0 1 0
vn 0 1 0
g pb_Mesh22250_0
f 3/3/3 2/2/2 1/1/1
f 3/3/3 4/4/4 2/2/2
f 7/7/7 6/6/6 5/5/5
f 10/10/10 9/9/9 8/8/8
f 13/13/13 12/12/12 11/11/11
f 16/16/16 15/15/15 14/14/14
f 19/19/19 18/18/18 17/17/17
f 22/22/22 21/21/21 20/20/20
f 25/25/25 24/24/24 23/23/23
f 25/25/25 26/26/26 24/24/24
f 29/29/29 28/28/28 27/27/27
f 29/29/29 30/30/30 28/28/28
f 31/31/31 30/30/30 29/29/29
f 31/31/31 32/32/32 30/30/30
f 35/35/35 34/34/34 33/33/33
f 35/35/35 36/36/36 34/34/34
f 38/38/38 37/37/37 5/5/5
f 38/38/38 39/39/39 37/37/37
f 42/42/42 41/41/41 40/40/40
f 42/42/42 43/43/43 41/41/41
