g pb_Mesh331864
v -1 -58 42
v -1 -58 33.5
v -1 -34 33.5
v -1 -34 42
v -1 -58 25
v -1 -34 25
v -1 -10 25
v -1 -10 33.5
v -1 -10 42
v -1 -58 16.5
v -1 -34 16.5
v -1 -10 16.5
v -1 14 16.5
v -1 14 25
v -1 38 16.5
v -1 38 25
v -1 14 33.5
v -1 14 42
v -1 38 33.5
v -1 38 42
v 0 -34 16.5
v 0 -58 25
v 0 -34 25
v 0 -58 16.5
v 0 -34 33.5
v 0 -58 42
v 0 -34 42
v 0 -58 33.5
v -1 -58 8
v -1 -46 8
v -1 -34 8
v -1 -22 8
v -1 -10 8
v -1 2 8
v -1 14 8
v -1 26 8
v -1 38 8
v -0.5 38 8
v -1 38 8
v -1 26 8
v -0.5 -10 8
v -1 14 8
v -1 2 8
v -1 -10 8
v -1 -22 8
v -1 -34 8
v -1 -46 8
v -0.5 -58 8
v -1 -58 8
v 0 -46 8
v 0 -58 8
v 0 -22 8
v 0 -34 8
v 0 -34 8
v 0 -46 8
v 0 -58 8
v 0 -58 42
v -1 -58 33.5
v -1 -58 42
v 0 -58 33.5
v -1 -58 25
v 0 -58 25
v -1 -58 16.5
v 0 -58 16.5
v -0.5 -58 8
v -1 -58 8
v 0 -58 8
v 0 -58 42
v -1 -58 42
v -1 -34 42
v 0 -34 42
v -1 -10 42
v 0 -10 42
v 0 2 42
v -1 14 42
v 0 8.5 42
v 0 26 42
v -1 38 42
v 0 38 42
v 0 -10 20.75
v 0 -10 16.5
v 0 -10 25
v 0 -10 37.75
v 0 -10 33.5
v 0 -10 42
v 0 -10 29.25
v 0 2 37.75
v 0 2 42
v 0 8.5 38
v 0 8.5 42
v 0 14 33.5
v 0 2 33.5
v 0 26 37.75
v 0 26 42
v 0 38 37.75
v 0 38 42
v 0 38 33.5
v 0 26 33.5
v 0 26 29.25
v 0 14 29.25
v 0 38 29.25
v 0 38 25
v 0 26 25
v 0 14 25
v 0 2 29.25
v 0 2 25
v 0 2 20.75
v 0 14 20.75
v 0 14 16.5
v 0 2 16.5
v 0 26 20.75
v 0 38 20.75
v 0 38 16.5
v 0 26 16.5
v 0 20 8
v 0 26 8
v 0 14 8
v 0 8 8
v 0 2 8
v 0 32 8
v 0 38 8
v 0 -4 8
v 0 -10 8
v 0 -10 12.25
v 0 -10 8
v 0 -22 8
v 0 38 12.25
v 0 26 11.4
v 0 38 8
v 0 32 8
v 0 26 8
v 0 20 8
v 0 14 12.25
v 0 14 8
v 0 2 11.4
v 0 8 8
v 0 2 8
v 0 -4 8
v -0.5 38 8
v 0 38 8
v 0 38 12.25
v -1 38 8
v -1 38 16.5
v 0 38 16.5
v 0 38 20.75
v -1 38 25
v 0 38 25
v 0 38 29.25
v -1 38 33.5
v 0 38 33.5
v 0 38 37.75
v -1 38 42
v 0 38 42
vt 27.125 -16
vt 26.0625 -16
vt 26.0625 -13
vt 27.125 -13
vt 25 -16
vt 25 -13
vt 25 -10
vt 26.0625 -10
vt 27.125 -10
vt 23.9375 -16
vt 23.9375 -13
vt 23.9375 -10
vt 23.9375 -7
vt 25 -7
vt 23.9375 -4
vt 25 -4
vt 26.0625 -7
vt 27.125 -7
vt 26.0625 -4
vt 27.125 -4
vt 23.9375 -13
vt 25 -16
vt 25 -13
vt 23.9375 -16
vt 26.0625 -13
vt 27.125 -16
vt 27.125 -13
vt 26.0625 -16
vt 22.875 -16
vt 22.875 -14.5
vt 22.875 -13
vt 22.875 -11.5
vt 22.875 -10
vt 22.875 -8.5
vt 22.875 -7
vt 22.875 -5.5
vt 22.875 -4
vt -0.5 -4
vt -0.5625 -4
vt -0.5625 -5.5
vt -0.5 -10
vt -0.5625 -7
vt -0.5625 -8.5
vt -0.5625 -10
vt -0.5625 -11.5
vt -0.5625 -13
vt -0.5625 -14.5
vt -0.5 -16
vt -0.5625 -16
vt -0.4375 -14.5
vt -0.4375 -16
vt -0.4375 -11.5
vt -0.4375 -13
vt 22.875 -13
vt 22.875 -14.5
vt 22.875 -16
vt -0.4375 27.125
vt -0.5625 26.0625
vt -0.5625 27.125
vt -0.4375 26.0625
vt -0.5625 25
vt -0.4375 25
vt -0.5625 23.9375
vt -0.4375 23.9375
vt -0.5 22.875
vt -0.5625 22.875
vt -0.4375 22.875
vt -0.4375 -16
vt -0.5625 -16
vt -0.5625 -13
vt -0.4375 -13
vt -0.5625 -10
vt -0.4375 -10
vt -0.4375 -8.5
vt -0.5625 -7
vt -0.4375 -7.6875
vt -0.4375 -5.5
vt -0.5625 -4
vt -0.4375 -4
vt 24.46875 -10
vt 23.9375 -10
vt 25 -10
vt 26.59375 -10
vt 26.0625 -10
vt 27.125 -10
vt 25.53125 -10
vt 26.59375 -8.5
vt 27.125 -8.5
vt 26.625 -7.6875
vt 27.125 -7.6875
vt 26.0625 -7
vt 26.0625 -8.5
vt 26.59375 -5.5
vt 27.125 -5.5
vt 26.59375 -4
vt 27.125 -4
vt 26.0625 -4
vt 26.0625 -5.5
vt 25.53125 -5.5
vt 25.53125 -7
vt 25.53125 -4
vt 25 -4
vt 25 -5.5
vt 25 -7
vt 25.53125 -8.5
vt 25 -8.5
vt 24.46875 -8.5
vt 24.46875 -7
vt 23.9375 -7
vt 23.9375 -8.5
vt 24.46875 -5.5
vt 24.46875 -4
vt 23.9375 -4
vt 23.9375 -5.5
vt -0.4375 -6.25
vt -0.4375 -5.5
vt -0.4375 -7
vt -0.4375 -7.75
vt -0.4375 -8.5
vt -0.4375 -4.75
vt -0.4375 -4
vt -0.4375 -9.25
vt -0.4375 -10
vt 23.40625 -10
vt 22.875 -10
vt 22.875 -11.5
vt 23.40625 -4
vt 23.3 -5.5
vt 22.875 -4
vt 22.875 -4.75
vt 22.875 -5.5
vt 22.875 -6.25
vt 23.40625 -7
vt 22.875 -7
vt 23.3 -8.5
vt 22.875 -7.75
vt 22.875 -8.5
vt 22.875 -9.25
vt 0.5 22.875
vt 0.4375 22.875
vt 0.4375 23.40625
vt 0.5625 22.875
vt 0.5625 23.9375
vt 0.4375 23.9375
vt 0.4375 24.46875
vt 0.5625 25
vt 0.4375 25
vt 0.4375 25.53125
vt 0.5625 26.0625
vt 0.4375 26.0625
vt 0.4375 26.59375
vt 0.5625 27.125
vt 0.4375 27.125
vn -1 0 0
vn -1 0 0
vn -1 0 0
vn -1 0 0
vn -1 0 0
vn -1 0 0
vn -1 0 0
vn -1 0 0
vn -1 0 0
vn -1 0 0
vn -1 0 0
vn -1 0 0
vn -1 0 0
vn -1 0 0
vn -1 0 0
vn -1 0 0
vn -1 0 0
vn -1 0 0
vn -1 0 0
vn -1 0 0
vn 1 0 0
vn 1 0 0
vn 1 0 0
vn 1 0 0
vn 1 0 0
vn 1 0 0
vn 1 0 0
vn 1 0 0
vn -1 0 0
vn -1 0 0
vn -1 0 0
vn -1 0 0
vn -1 0 0
vn -1 0 0
vn -1 0 0
vn -1 0 0
vn -1 0 0
vn 0 0 -1
vn 0 0 -1
vn 0 0 -1
vn 0 0 -1
vn 0 0 -1
vn 0 0 -1
vn 0 0 -1
vn 0 0 -1
vn 0 0 -1
vn 0 0 -1
vn 0 0 -1
vn 0 0 -1
vn 0 0 -1
vn 0 0 -1
vn 0 0 -1
vn 0 0 -1
vn 1 0 0
vn 1 0 0
vn 1 0 0
vn 0 -1 0
vn 0 -1 0
vn 0 -1 0
vn 0 -1 0
vn 0 -1 0
vn 0 -1 0
vn 0 -1 0
vn 0 -1 0
vn 0 -1 0
vn 0 -1 0
vn 0 -1 0
vn 0 0 1
vn 0 0 1
vn 0 0 1
vn 0 0 1
vn 0 0 1
vn 0 0 1
vn 0 0 1
vn 0 0 1
vn 0 0 1
vn 0 0 0.9999999
vn 0 0 1
vn 0 0 1
vn 1 0 0
vn 1 0 0
vn 1 0 0
vn 1 0 0
vn 1 0 0
vn 1 0 0
vn 1 0 0
vn 1 0 0
vn 1 0 0
vn 1 0 0
vn 1 0 0
vn 1 0 0
vn 1 0 0
vn 1 0 0
vn 1 0 0
vn 1 0 0
vn 1 0 0
vn 1 0 0
vn 1 0 0
vn 1 0 0
vn 1 0 0
vn 1 0 0
vn 1 0 0
vn 1 0 0
vn 1 0 0
vn 1 0 0
vn 1 0 0
vn 1 0 0
vn 1 0 0
vn 1 0 0
vn 1 0 0
vn 1 0 0
vn 1 0 0
vn 1 0 0
vn 1 0 0
vn 0 0 -1
vn 0 0 -1
vn 0 0 -1
vn 0 0 -1
vn 0 0 -1
vn 0 0 -1
vn 0 0 -1
vn 0 0 -1
vn 0 0 -1
vn 1 0 0
vn 1 0 0
vn 1 0 0
vn 1 0 0
vn 1 0 0
vn 1 0 0
vn 1 0 0
vn 1 0 0
vn 1 0 0
vn 1 0 0
vn 1 0 0
vn 1 0 0
vn 1 0 0
vn 1 0 0
vn 1 0 0
vn 0 1 0
vn 0 1 0
vn 0 1 0
vn 0 1 0
vn 0 1 0
vn 0 1 0
vn 0 1 0
vn 0 1 0
vn 0 1 0
vn 0 1 0
vn 0 1 0
vn 0 1 0
vn 0 1 0
vn 0 1 0
vn 0 1 0
g pb_Mesh331864_0
f 3/3/3 2/2/2 1/1/1
f 3/3/3 1/1/1 4/4/4
f 6/6/6 5/5/5 2/2/2
f 6/6/6 2/2/2 3/3/3
f 7/7/7 6/6/6 3/3/3
f 7/7/7 3/3/3 8/8/8
f 8/8/8 3/3/3 4/4/4
f 8/8/8 4/4/4 9/9/9
f 11/11/11 10/10/10 5/5/5
f 11/11/11 5/5/5 6/6/6
f 12/12/12 11/11/11 6/6/6
f 12/12/12 6/6/6 7/7/7
f 13/13/13 12/12/12 7/7/7
f 13/13/13 7/7/7 14/14/14
f 15/15/15 13/13/13 14/14/14
f 15/15/15 14/14/14 16/16/16
f 17/17/17 8/8/8 9/9/9
f 17/17/17 9/9/9 18/18/18
f 14/14/14 7/7/7 8/8/8
f 14/14/14 8/8/8 17/17/17
f 16/16/16 14/14/14 17/17/17
f 16/16/16 17/17/17 19/19/19
f 19/19/19 17/17/17 18/18/18
f 19/19/19 18/18/18 20/20/20
f 23/23/23 22/22/22 21/21/21
f 22/22/22 24/24/24 21/21/21
f 27/27/27 26/26/26 25/25/25
f 26/26/26 28/28/28 25/25/25
f 25/25/25 28/28/28 23/23/23
f 28/28/28 22/22/22 23/23/23
f 30/30/30 29/29/29 10/10/10
f 11/11/11 30/30/30 10/10/10
f 11/11/11 31/31/31 30/30/30
f 32/32/32 31/31/31 11/11/11
f 12/12/12 32/32/32 11/11/11
f 12/12/12 33/33/33 32/32/32
f 34/34/34 33/33/33 12/12/12
f 13/13/13 34/34/34 12/12/12
f 13/13/13 35/35/35 34/34/34
f 36/36/36 35/35/35 13/13/13
f 15/15/15 36/36/36 13/13/13
f 15/15/15 37/37/37 36/36/36
f 40/40/40 39/39/39 38/38/38
f 41/41/41 40/40/40 38/38/38
f 41/41/41 42/42/42 40/40/40
f 41/41/41 43/43/43 42/42/42
f 41/41/41 44/44/44 43/43/43
f 45/45/45 44/44/44 41/41/41
f 46/46/46 45/45/45 41/41/41
f 47/47/47 46/46/46 41/41/41
f 41/41/41 48/48/48 47/47/47
f 48/48/48 49/49/49 47/47/47
f 50/50/50 48/48/48 41/41/41
f 50/50/50 51/51/51 48/48/48
f 53/53/53 41/41/41 52/52/52
f 50/50/50 41/41/41 53/53/53
f 55/55/55 54/54/54 21/21/21
f 24/24/24 55/55/55 21/21/21
f 24/24/24 56/56/56 55/55/55
f 59/59/59 58/58/58 57/57/57
f 58/58/58 60/60/60 57/57/57
f 58/58/58 61/61/61 60/60/60
f 61/61/61 62/62/62 60/60/60
f 61/61/61 63/63/63 62/62/62
f 63/63/63 64/64/64 62/62/62
f 63/63/63 65/65/65 64/64/64
f 63/63/63 66/66/66 65/65/65
f 65/65/65 67/67/67 64/64/64
f 70/70/70 69/69/69 68/68/68
f 70/70/70 68/68/68 71/71/71
f 72/72/72 70/70/70 71/71/71
f 72/72/72 71/71/71 73/73/73
f 72/72/72 73/73/73 74/74/74
f 75/75/75 72/72/72 74/74/74
f 75/75/75 74/74/74 76/76/76
f 75/75/75 76/76/76 77/77/77
f 78/78/78 75/75/75 77/77/77
f 78/78/78 77/77/77 79/79/79
f 21/21/21 81/81/81 80/80/80
f 21/21/21 80/80/80 23/23/23
f 82/82/82 23/23/23 80/80/80
f 25/25/25 84/84/84 83/83/83
f 25/25/25 83/83/83 27/27/27
f 85/85/85 27/27/27 83/83/83
f 23/23/23 82/82/82 86/86/86
f 23/23/23 86/86/86 25/25/25
f 84/84/84 25/25/25 86/86/86
f 88/88/88 85/85/85 87/87/87
f 85/85/85 83/83/83 87/87/87
f 90/90/90 88/88/88 89/89/89
f 88/88/88 87/87/87 89/89/89
f 89/89/89 87/87/87 91/91/91
f 87/87/87 92/92/92 91/91/91
f 87/87/87 83/83/83 92/92/92
f 83/83/83 84/84/84 92/92/92
f 94/94/94 90/90/90 93/93/93
f 90/90/90 89/89/89 93/93/93
f 96/96/96 94/94/94 95/95/95
f 94/94/94 93/93/93 95/95/95
f 95/95/95 93/93/93 97/97/97
f 93/93/93 98/98/98 97/97/97
f 93/93/93 89/89/89 98/98/98
f 89/89/89 91/91/91 98/98/98
f 98/98/98 91/91/91 99/99/99
f 91/91/91 100/100/100 99/99/99
f 97/97/97 98/98/98 101/101/101
f 98/98/98 99/99/99 101/101/101
f 101/101/101 99/99/99 102/102/102
f 99/99/99 103/103/103 102/102/102
f 99/99/99 100/100/100 103/103/103
f 100/100/100 104/104/104 103/103/103
f 92/92/92 84/84/84 105/105/105
f 84/84/84 86/86/86 105/105/105
f 91/91/91 92/92/92 100/100/100
f 92/92/92 105/105/105 100/100/100
f 100/100/100 105/105/105 104/104/104
f 105/105/105 106/106/106 104/104/104
f 105/105/105 86/86/86 106/106/106
f 86/86/86 82/82/82 106/106/106
f 106/106/106 82/82/82 107/107/107
f 82/82/82 80/80/80 107/107/107
f 104/104/104 106/106/106 108/108/108
f 106/106/106 107/107/107 108/108/108
f 108/108/108 107/107/107 109/109/109
f 107/107/107 110/110/110 109/109/109
f 107/107/107 80/80/80 110/110/110
f 80/80/80 81/81/81 110/110/110
f 103/103/103 104/104/104 111/111/111
f 104/104/104 108/108/108 111/111/111
f 102/102/102 103/103/103 112/112/112
f 103/103/103 111/111/111 112/112/112
f 112/112/112 111/111/111 113/113/113
f 111/111/111 114/114/114 113/113/113
f 111/111/111 108/108/108 114/114/114
f 108/108/108 109/109/109 114/114/114
f 116/116/116 115/115/115 41/41/41
f 115/115/115 117/117/117 41/41/41
f 117/117/117 118/118/118 41/41/41
f 118/118/118 119/119/119 41/41/41
f 121/121/121 120/120/120 38/38/38
f 116/116/116 38/38/38 120/120/120
f 116/116/116 41/41/41 38/38/38
f 119/119/119 122/122/122 41/41/41
f 122/122/122 123/123/123 41/41/41
f 123/123/123 52/52/52 41/41/41
f 126/126/126 125/125/125 124/124/124
f 124/124/124 81/81/81 126/126/126
f 21/21/21 126/126/126 81/81/81
f 21/21/21 54/54/54 126/126/126
f 114/114/114 128/128/128 127/127/127
f 113/113/113 114/114/114 127/127/127
f 130/130/130 129/129/129 127/127/127
f 128/128/128 130/130/130 127/127/127
f 128/128/128 131/131/131 130/130/130
f 132/132/132 131/131/131 128/128/128
f 133/133/133 132/132/132 128/128/128
f 133/133/133 134/134/134 132/132/132
f 114/114/114 133/133/133 128/128/128
f 114/114/114 109/109/109 133/133/133
f 110/110/110 135/135/135 133/133/133
f 109/109/109 110/110/110 133/133/133
f 136/136/136 134/134/134 133/133/133
f 135/135/135 136/136/136 133/133/133
f 135/135/135 137/137/137 136/136/136
f 138/138/138 137/137/137 135/135/135
f 124/124/124 138/138/138 135/135/135
f 124/124/124 125/125/125 138/138/138
f 110/110/110 124/124/124 135/135/135
f 110/110/110 81/81/81 124/124/124
f 141/141/141 140/140/140 139/139/139
f 141/141/141 139/139/139 142/142/142
f 142/142/142 143/143/143 141/141/141
f 143/143/143 144/144/144 141/141/141
f 145/145/145 144/144/144 143/143/143
f 146/146/146 145/145/145 143/143/143
f 146/146/146 147/147/147 145/145/145
f 148/148/148 147/147/147 146/146/146
f 149/149/149 148/148/148 146/146/146
f 149/149/149 150/150/150 148/148/148
f 151/151/151 150/150/150 149/149/149
f 152/152/152 151/151/151 149/149/149
f 152/152/152 153/153/153 151/151/151
