g pb_Mesh217778
v 3.337863E-06 -1 -12
v -1.999995 -1 -12
v 0.5000029 1 -12
v -2.499995 1 -12
v -1.999995 -1 -12
v -1.5 -1 -17
v -2.499995 1 -12
v -1.5 -0.5 -17
v -1.5 -1 -17
v -0.5 -1 -17
v -1.5 -0.5 -17
v -0.5 -0.5 -17
v -0.5 -1 -17
v 3.337863E-06 -1 -12
v -0.5 -0.5 -17
v 0.5000029 1 -12
v 0.5000029 1 -12
v -2.499995 1 -12
v -0.5 -0.5 -17
v -1.5 -0.5 -17
v -0.5 -1 -17
v -1.5 -1 -17
v 3.337863E-06 -1 -12
v -1.999995 -1 -12
vt -0.8750018 -0.1249928
vt -1.125002 -0.1249928
vt -0.8125019 0.1250072
vt -1.187502 0.1250072
vt -13.91809 0.699891
vt -14.5462 0.699891
vt -13.91187 0.9575101
vt -14.5462 0.7605426
vt 1.0625 -0.78125
vt 0.9375 -0.78125
vt 1.0625 -0.71875
vt 0.9375 -0.71875
vt 14.74521 -0.125
vt 14.11709 -0.125
vt 14.74521 -0.0625
vt 14.11087 0.125
vt 0.8124962 -13.49039
vt 1.187496 -13.49039
vt 0.9374965 -14.1429
vt 1.062497 -14.1429
vt -0.9374964 -14.8125
vt -1.062496 -14.8125
vt -0.8749961 -14.1875
vt -1.124996 -14.1875
vn -4.768375E-07 5.960464E-07 1
vn -1.90735E-07 2.384186E-07 1
vn -1.90735E-07 2.384186E-07 1
vn 0 0 1
vn -0.9656092 -0.2414022 -0.09655999
vn -0.9738618 -0.1947723 -0.1168625
vn -0.9738618 -0.1947723 -0.1168625
vn -0.9805808 0 -0.1961152
vn 0 0 -1
vn 0 0 -1
vn 0 0 -1
vn 0 0 -1
vn 0.9950371 0 -0.09950436
vn 0.9738616 -0.1947722 -0.116864
vn 0.9738616 -0.1947722 -0.116864
vn 0.9630868 -0.2407715 -0.1203865
vn 0 0.9578263 -0.2873479
vn 0 0.9578263 -0.2873479
vn 0 0.9578263 -0.2873479
vn 0 0.9578263 -0.2873479
vn 0 -1 0
vn 0 -1 0
vn 0 -1 0
vn 0 -1 0
g pb_Mesh217778_0
f 3/3/3 2/2/2 1/1/1
f 3/3/3 4/4/4 2/2/2
f 7/7/7 6/6/6 5/5/5
f 7/7/7 8/8/8 6/6/6
f 11/11/11 10/10/10 9/9/9
f 11/11/11 12/12/12 10/10/10
f 15/15/15 14/14/14 13/13/13
f 15/15/15 16/16/16 14/14/14
f 19/19/19 18/18/18 17/17/17
f 19/19/19 20/20/20 18/18/18
f 23/23/23 22/22/22 21/21/21
f 23/23/23 24/24/24 22/22/22
