g pb_Mesh1136980
v 0 0 -17
v -11 0 -17
v 0 7.5 -17
v -11 7.5 -17
v -11 3.75 -18
v -5 0 -18
v -5 3.75 -18
v -11 0 -18
v 1 0 -18
v 1 3.75 -18
v -5 7.5 -18
v 1 7.5 -18
v -11 7.5 -18
v -11 0 -17
v -11 0 -18
v -11 3.75 -18
v -11 7.5 -17
v -11 7.5 -18
v 0 7.5 -17
v 1 7.5 -18
v 1 3.75 -18
v 0 0 -17
v 1 0 -18
v -11 7.5 -17
v -11 7.5 -18
v -5 7.5 -18
v 0 7.5 -17
v 1 7.5 -18
vt -4.306886 3.10125
vt -5.681875 3.10125
vt -4.306886 4.03875
vt -5.681875 4.03875
vt -5.681387 3.57
vt -4.931393 3.10125
vt -4.931393 3.57
vt -5.681387 3.10125
vt -4.181398 3.10125
vt -4.181398 3.57
vt -4.931393 4.03875
vt -4.181398 4.03875
vt -5.681387 4.03875
vt -17.4375 3.28125
vt -17.5625 3.28125
vt -17.5625 3.75
vt -17.4375 4.21875
vt -17.5625 4.21875
vt 12.63953 4.21875
vt 12.81631 4.21875
vt 12.81631 3.75
vt 12.63953 3.28125
vt 12.81631 3.28125
vt 5.75 -17.4375
vt 5.75 -17.5625
vt 5 -17.5625
vt 4.375 -17.4375
vt 4.25 -17.5625
vn 0 0 0.9999999
vn 0 0 0.9999999
vn 0 0 0.9999999
vn 0 0 0.9999999
vn 0 0 -1
vn 0 0 -1
vn 0 0 -1
vn 0 0 -1
vn 0 0 -1
vn 0 0 -1
vn 0 0 -1
vn 0 0 -1
vn 0 0 -1
vn -1 0 0
vn -1 0 0
vn -1 0 0
vn -1 0 0
vn -1 0 0
vn 0.7071068 0 0.7071068
vn 0.7071068 0 0.7071068
vn 0.7071068 0 0.7071068
vn 0.7071068 0 0.7071068
vn 0.7071068 0 0.7071068
vn 0 1 0
vn 0 1 0
vn 0 1 0
vn 0 1 0
vn 0 1 0
g pb_Mesh1136980_0
f 3/3/3 2/2/2 1/1/1
f 3/3/3 4/4/4 2/2/2
f 7/7/7 6/6/6 5/5/5
f 6/6/6 8/8/8 5/5/5
f 10/10/10 9/9/9 7/7/7
f 9/9/9 6/6/6 7/7/7
f 12/12/12 10/10/10 11/11/11
f 10/10/10 7/7/7 11/11/11
f 11/11/11 7/7/7 13/13/13
f 7/7/7 5/5/5 13/13/13
g pb_Mesh1136980_1
f 16/16/16 15/15/15 14/14/14
f 17/17/17 16/16/16 14/14/14
f 17/17/17 18/18/18 16/16/16
f 21/21/21 20/20/20 19/19/19
f 22/22/22 21/21/21 19/19/19
f 22/22/22 23/23/23 21/21/21
f 26/26/26 25/25/25 24/24/24
f 27/27/27 26/26/26 24/24/24
f 27/27/27 28/28/28 26/26/26
