g pb_Mesh68390
v 0 0 0
v 0.8708348 3.25 0
v 0 0 1
v 0.8708348 3.25 1
v 1.73686 2.75 0
v 1 0 0
v 1.73686 2.75 1
v 1 0 1
v 0 0 1
v 1 0 1
v 0 0 0
v 1 0 0
v 0.8708348 3.25 0
v 3.25 5.629166 0
v 0.8708348 3.25 1
v 3.25 5.629166 1
v 3.75 4.76314 0
v 1.73686 2.75 0
v 3.75 4.76314 1
v 1.73686 2.75 1
v 3.25 5.629166 0
v 6.5 6.5 0
v 3.25 5.629166 1
v 6.5 6.5 1
v 6.5 5.5 0
v 3.75 4.76314 0
v 6.5 5.5 1
v 3.75 4.76314 1
v 6.5 6.5 0
v 9.75 5.629165 0
v 6.5 6.5 1
v 9.75 5.629165 1
v 9.25 4.76314 0
v 6.5 5.5 0
v 9.25 4.76314 1
v 6.5 5.5 1
v 9.75 5.629165 0
v 12.12917 3.25 0
v 9.75 5.629165 1
v 12.12917 3.25 1
v 11.26314 2.75 0
v 9.25 4.76314 0
v 11.26314 2.75 1
v 9.25 4.76314 1
v 12.12917 3.25 0
v 13 -5.68248E-07 0
v 12.12917 3.25 1
v 13 -5.68248E-07 1
v 12 -4.808253E-07 0
v 11.26314 2.75 0
v 12 -4.808253E-07 1
v 11.26314 2.75 1
v 12 -4.808253E-07 1
v 13 -5.68248E-07 1
v 12 -4.808253E-07 0
v 13 -5.68248E-07 0
v 0 0 1
v 0.8708348 3.25 1
v 1 0 1
v 1.73686 2.75 1
v 0.8708348 3.25 0
v 0 0 0
v 1.73686 2.75 0
v 1 0 0
v 3.25 5.629166 1
v 3.75 4.76314 1
v 3.25 5.629166 0
v 3.75 4.76314 0
v 6.5 6.5 1
v 6.5 5.5 1
v 6.5 6.5 0
v 6.5 5.5 0
v 9.75 5.629165 1
v 9.25 4.76314 1
v 9.75 5.629165 0
v 9.25 4.76314 0
v 12.12917 3.25 1
v 11.26314 2.75 1
v 12.12917 3.25 0
v 11.26314 2.75 0
v 13 -5.68248E-07 1
v 12 -4.808253E-07 1
v 13 -5.68248E-07 0
v 12 -4.808253E-07 0
vt 0 0
vt 0 3.364648
vt 1 0
vt 1 3.364648
vt 0 3.105829
vt 0 0.258819
vt -1 3.105829
vt -1 0.258819
vt 0 1
vt 1 1
vt 0 0
vt 1 0
vt 0 2.91387
vt 0 6.278519
vt 1 2.91387
vt 1 6.278519
vt 6.019699 0
vt 3.172689 0
vt 6.019699 1
vt 3.172689 1
vt -4.596194 0
vt -7.960842 0
vt -4.596194 1
vt -7.960842 1
vt 7.702024 0
vt 4.855013 0
vt 7.702024 1
vt 4.855013 1
vt -4.596194 0
vt -7.960841 0
vt -4.596194 1
vt -7.960841 1
vt 7.702023 0
vt 4.855013 0
vt 7.702023 1
vt 4.855013 1
vt -2.913873 0
vt -6.278521 0
vt -2.913873 1
vt -6.278521 1
vt 6.0197 0
vt 3.17269 0
vt 6.0197 1
vt 3.17269 1
vt 0 3.022502E-06
vt 0 -3.364645
vt -1 3.022502E-06
vt -1 -3.364645
vt 0 -3.105828
vt 0 -0.258818
vt 1 -3.105828
vt 1 -0.258818
vt 12 1
vt 13 1
vt 12 0
vt 13 0
vt 0 0
vt 0.8708348 3.25
vt 1 0
vt 1.73686 2.75
vt -0.8708348 3.25
vt 0 0
vt -1.73686 2.75
vt -1 0
vt 3.25 5.629166
vt 3.75 4.76314
vt -3.25 5.629166
vt -3.75 4.76314
vt 6.5 6.5
vt 6.5 5.5
vt -6.5 6.5
vt -6.5 5.5
vt 9.75 5.629165
vt 9.25 4.76314
vt -9.75 5.629165
vt -9.25 4.76314
vt 12.12917 3.25
vt 11.26314 2.75
vt -12.12917 3.25
vt -11.26314 2.75
vt 13 -5.68248E-07
vt 12 -4.808253E-07
vt -13 -5.68248E-07
vt -12 -4.808253E-07
vn -0.9659258 0.258819 0
vn -0.9659258 0.258819 0
vn -0.9659258 0.258819 0
vn -0.9659258 0.258819 0
vn 0.9659258 -0.258819 0
vn 0.9659258 -0.258819 0
vn 0.9659258 -0.258819 0
vn 0.9659258 -0.258819 0
vn 0 -1 0
vn 0 -1 0
vn 0 -1 0
vn 0 -1 0
vn -0.7071068 0.7071067 0
vn -0.7071068 0.7071067 0
vn -0.7071068 0.7071067 0
vn -0.7071068 0.7071067 0
vn 0.7071067 -0.7071068 0
vn 0.7071067 -0.7071068 0
vn 0.7071067 -0.7071068 0
vn 0.7071067 -0.7071068 0
vn -0.2588189 0.9659259 0
vn -0.2588189 0.9659259 0
vn -0.2588189 0.9659259 0
vn -0.2588189 0.9659259 0
vn 0.258819 -0.9659258 0
vn 0.258819 -0.9659258 0
vn 0.258819 -0.9659258 0
vn 0.258819 -0.9659258 0
vn 0.2588191 0.9659258 0
vn 0.2588191 0.9659258 0
vn 0.2588191 0.9659258 0
vn 0.2588191 0.9659258 0
vn -0.2588191 -0.9659258 0
vn -0.2588191 -0.9659258 0
vn -0.2588191 -0.9659258 0
vn -0.2588191 -0.9659258 0
vn 0.7071066 0.7071069 0
vn 0.7071066 0.7071069 0
vn 0.7071066 0.7071069 0
vn 0.7071066 0.7071069 0
vn -0.7071067 -0.7071068 0
vn -0.7071067 -0.7071068 0
vn -0.7071067 -0.7071068 0
vn -0.7071067 -0.7071068 0
vn 0.9659259 0.2588188 0
vn 0.9659259 0.2588188 0
vn 0.9659259 0.2588188 0
vn 0.9659259 0.2588188 0
vn -0.9659259 -0.258819 0
vn -0.9659259 -0.258819 0
vn -0.9659259 -0.258819 0
vn -0.9659259 -0.258819 0
vn -8.742273E-08 -1 0
vn -8.742273E-08 -1 0
vn -8.742273E-08 -1 0
vn -8.742273E-08 -1 0
vn 0 0 1
vn 0 0 1
vn 0 0 1
vn 0 0 1
vn 0 0 -1
vn 0 0 -1
vn 0 0 -1
vn 0 0 -1
vn 0 0 1
vn 0 0 1
vn 0 0 -0.9999999
vn 0 0 -1
vn 0 0 1
vn 0 0 1
vn 0 0 -1
vn 0 0 -1
vn 0 0 0.9999999
vn 0 0 1
vn 0 0 -0.9999999
vn 0 0 -0.9999999
vn 0 0 1
vn 0 0 1
vn 0 0 -1
vn 0 0 -1
vn 0 0 0.9999999
vn 0 0 1
vn 0 0 -1
vn 0 0 -0.9999999
g pb_Mesh68390_0
f 3/3/3 2/2/2 1/1/1
f 3/3/3 4/4/4 2/2/2
f 7/7/7 6/6/6 5/5/5
f 7/7/7 8/8/8 6/6/6
f 11/11/11 10/10/10 9/9/9
f 11/11/11 12/12/12 10/10/10
f 15/15/15 14/14/14 13/13/13
f 15/15/15 16/16/16 14/14/14
f 19/19/19 18/18/18 17/17/17
f 19/19/19 20/20/20 18/18/18
f 23/23/23 22/22/22 21/21/21
f 23/23/23 24/24/24 22/22/22
f 27/27/27 26/26/26 25/25/25
f 27/27/27 28/28/28 26/26/26
f 31/31/31 30/30/30 29/29/29
f 31/31/31 32/32/32 30/30/30
f 35/35/35 34/34/34 33/33/33
f 35/35/35 36/36/36 34/34/34
f 39/39/39 38/38/38 37/37/37
f 39/39/39 40/40/40 38/38/38
f 43/43/43 42/42/42 41/41/41
f 43/43/43 44/44/44 42/42/42
f 47/47/47 46/46/46 45/45/45
f 47/47/47 48/48/48 46/46/46
f 51/51/51 50/50/50 49/49/49
f 51/51/51 52/52/52 50/50/50
f 55/55/55 54/54/54 53/53/53
f 55/55/55 56/56/56 54/54/54
f 59/59/59 58/58/58 57/57/57
f 59/59/59 60/60/60 58/58/58
f 63/63/63 62/62/62 61/61/61
f 63/63/63 64/64/64 62/62/62
f 60/60/60 65/65/65 58/58/58
f 60/60/60 66/66/66 65/65/65
f 68/68/68 61/61/61 67/67/67
f 68/68/68 63/63/63 61/61/61
f 66/66/66 69/69/69 65/65/65
f 66/66/66 70/70/70 69/69/69
f 72/72/72 67/67/67 71/71/71
f 72/72/72 68/68/68 67/67/67
f 70/70/70 73/73/73 69/69/69
f 70/70/70 74/74/74 73/73/73
f 76/76/76 71/71/71 75/75/75
f 76/76/76 72/72/72 71/71/71
f 74/74/74 77/77/77 73/73/73
f 74/74/74 78/78/78 77/77/77
f 80/80/80 75/75/75 79/79/79
f 80/80/80 76/76/76 75/75/75
f 78/78/78 81/81/81 77/77/77
f 78/78/78 82/82/82 81/81/81
f 84/84/84 79/79/79 83/83/83
f 84/84/84 80/80/80 79/79/79
