g pb_Mesh66672
v 23.72148 13.23031 4.500472
v 26.45576 14.43966 2.864614
v 27.42175 13.66204 6.962014
v 23.45405 12.30877 7.777354
v 29.19003 15.64901 1.228757
v 31.38944 15.0153 6.146672
v 28.38775 12.88442 11.0594
v 28.38775 12.88442 11.0594
v 31.38944 15.0153 6.146672
v 32.89397 16.79345 11.68614
v 23.18663 11.38725 11.05422
v 17.98551 9.890071 11.04905
v 19.62006 11.41628 6.954255
v 12.78437 8.392915 11.04387
v 15.78607 10.52378 6.131146
v 18.78778 12.65466 1.218408
v 21.25463 12.94248 2.859441
v 21.78948 14.78555 -3.694331
v 24.12261 14.6126 -0.414858
v 24.79118 16.91643 -8.607074
v 26.99061 16.28271 -3.689159
v 3.04717 6.572158 4.27893
v 5.697278 7.969178 2.695192
v 6.69862 7.254943 6.815786
v 2.831373 5.630309 7.553905
v 8.347377 9.366207 1.111455
v 10.56587 8.879562 6.077672
v 7.699962 6.540694 10.93637
v 12.78437 8.392915 11.04387
v 2.615568 4.688473 10.82886
v -2.468836 2.836256 10.72135
v -0.9279806 4.47662 6.654531
v -7.553239 0.9840367 10.61385
v -4.687335 3.322904 5.755157
v -1.821428 5.661773 0.8964436
v 0.6128662 6.116973 2.587686
v 1.044476 8.000642 -3.962268
v 3.370878 7.984925 -0.63354
v 3.910383 10.33952 -8.820979
v 6.128881 9.85287 -3.854761
v -17.0481 -1.476734 3.657511
v -14.48021 0.1058632 2.127721
v -13.48753 -0.5539421 6.266148
v -17.24227 -2.444126 6.926389
v -11.91234 1.688444 0.5979283
v -9.732791 1.33624 5.605899
v -12.49483 -1.213748 10.40455
v -7.553239 0.9840367 10.61385
v -17.43643 -3.411515 10.19525
v -22.37802 -5.609284 9.985955
v -20.89991 -3.850602 5.952199
v -27.31961 -7.807075 9.776659
v -24.55756 -5.257098 4.978007
v -21.79552 -2.707125 0.1793336
v -19.4218 -2.091923 1.918424
v -19.03347 -0.1571373 -4.619338
v -16.75685 -0.0256372 -1.24581
v -16.27143 2.392836 -9.418011
v -14.09188 2.040647 -4.410041
v -9.275209 3.130292 -0.9718883
v -6.638094 4.57214 -2.541708
v -6.981278 3.226591 2.39163
v -4.229762 5.116956 -0.8226345
v -1.821428 5.661773 0.8964436
v -4.687335 3.322904 5.755157
v -9.732791 1.33624 5.605899
v -7.553239 0.9840367 10.61385
v -11.91234 1.688444 0.5979283
v -10.25059 3.754895 -5.120321
v -6.409304 5.469161 -5.8306
v -14.09188 2.040647 -4.410041
v -16.27143 2.392836 -9.418011
v -11.22597 4.379513 -9.268754
v -6.180521 6.366179 -9.119495
v -2.682406 6.734893 -4.896433
v -1.135073 8.352845 -8.970238
v 1.044476 8.000642 -3.962268
v 3.910383 10.33952 -8.820979
v 11.08801 10.62457 -0.5082996
v 13.82864 11.88294 -2.128054
v 13.43704 10.57417 2.811422
v 16.30822 12.26879 -0.4548208
v 18.78778 12.65466 1.218408
v 15.78607 10.52378 6.131146
v 10.56587 8.879562 6.077672
v 12.78437 8.392915 11.04387
v 8.347377 9.366207 1.111455
v 10.10929 11.30416 -4.6379
v 14.08971 12.75546 -5.421038
v 6.128881 9.85287 -3.854761
v 3.910383 10.33952 -8.820979
v 9.13058 11.98374 -8.767505
v 14.35078 13.62797 -8.714027
v 17.93959 13.7705 -4.557685
v 19.57099 15.2722 -8.660548
v 21.78948 14.78555 -3.694331
v 24.79118 16.91643 -8.607074
v -26.29558 -4.08429 -3.059795
v -26.03956 -3.153598 -6.26891
v -22.53651 -1.655369 -5.444124
v -24.04555 -3.395708 -1.44023
v -25.78355 -2.222919 -9.478031
v -21.02749 0.08495862 -9.448021
v -19.03347 -0.1571373 -4.619338
v -16.27143 2.392836 -9.418011
v -21.79552 -2.707125 0.1793336
v -28.80161 -5.703584 -1.47024
v -26.67959 -5.480348 1.753881
v -24.55756 -5.257098 4.978007
v -29.31363 -7.56498 4.947997
v -27.31961 -7.807075 9.776659
v -31.30764 -7.322884 0.1193131
v -29.67062 -5.117206 -5.489137
v -33.30167 -7.080787 -4.709368
v -35.2957 -6.838675 -9.538052
v -30.53962 -4.530793 -9.508041
vt 2.650882 2.424427
vt 2.560455 2.370327
vt 2.528508 2.505834
vt 2.659726 2.532798
vt 2.470028 2.316226
vt 2.39729 2.478869
vt 2.496561 2.641341
vt 2.496561 2.641341
vt 2.39729 2.478869
vt 2.324552 2.641512
vt 2.66857 2.64117
vt 2.840579 2.640998
vt 2.786522 2.505577
vt 3.012589 2.640827
vt 2.913317 2.478356
vt 2.814046 2.315884
vt 2.732464 2.370155
vt 2.714775 2.153413
vt 2.637615 2.26187
vt 2.615504 1.990941
vt 2.542766 2.153584
vt 3.334612 2.4171
vt 3.246969 2.364723
vt 3.213853 2.500998
vt 3.341749 2.525408
vt 3.159327 2.312347
vt 3.085958 2.476587
vt 3.180737 2.637272
vt 3.012589 2.640827
vt 3.348886 2.633716
vt 3.517034 2.630161
vt 3.466076 2.495665
vt 3.685183 2.626606
vt 3.590403 2.465921
vt 3.495624 2.305236
vt 3.415118 2.361168
vt 3.400844 2.144552
vt 3.323907 2.254638
vt 3.306065 1.983867
vt 3.232696 2.148107
vt 3.999191 2.396549
vt 3.914268 2.345956
vt 3.881438 2.48282
vt 4.005612 2.504656
vt 3.829344 2.295364
vt 3.757263 2.460985
vt 3.848608 2.619684
vt 3.685183 2.626606
vt 4.012034 2.612762
vt 4.17546 2.605841
vt 4.126576 2.472438
vt 4.338885 2.598919
vt 4.24754 2.44022
vt 4.156196 2.281521
vt 4.077693 2.339035
vt 4.064851 2.122821
vt 3.989559 2.234389
vt 3.973506 1.964122
vt 3.901425 2.129743
vt 3.742131 2.243448
vt 3.654918 2.191532
vt 3.666267 2.354684
vt 3.575271 2.248384
vt 3.495624 2.305236
vt 3.590403 2.465921
vt 3.757263 2.460985
vt 3.685183 2.626606
vt 3.829344 2.295364
vt 3.774388 2.106253
vt 3.647352 2.082763
vt 3.901425 2.129743
vt 3.973506 1.964122
vt 3.806645 1.969059
vt 3.639785 1.973995
vt 3.524098 2.113657
vt 3.472925 1.978931
vt 3.400844 2.144552
vt 3.306065 1.983867
vt 3.06869 2.258779
vt 2.978053 2.205212
vt 2.991004 2.368567
vt 2.896049 2.260548
vt 2.814046 2.315884
vt 2.913317 2.478356
vt 3.085958 2.476587
vt 3.012589 2.640827
vt 3.159327 2.312347
vt 3.101057 2.122207
vt 2.969419 2.096308
vt 3.232696 2.148107
vt 3.306065 1.983867
vt 3.133425 1.985636
vt 2.960784 1.987404
vt 2.842097 2.12486
vt 2.788144 1.989173
vt 2.714775 2.153413
vt 2.615504 1.990941
vt 4.305019 2.174398
vt 4.296553 2.068268
vt 4.180702 2.095544
vt 4.230608 2.227959
vt 4.288086 1.962137
vt 4.130796 1.96313
vt 4.064851 2.122821
vt 3.973506 1.964122
vt 4.156196 2.281521
vt 4.387897 2.226967
vt 4.317719 2.333593
vt 4.24754 2.44022
vt 4.40483 2.439227
vt 4.338885 2.598919
vt 4.470776 2.279536
vt 4.416636 2.094056
vt 4.536721 2.119844
vt 4.602666 1.960152
vt 4.445376 1.961145
vn -0.2687332 0.932739 0.2403754
vn -0.2687328 0.9327394 0.2403747
vn -0.2687335 0.9327389 0.2403756
vn -0.2687329 0.932739 0.2403761
vn -0.2687325 0.9327397 0.2403739
vn -0.3636587 0.8891266 0.1634581
vn -0.3636596 0.8891263 0.1634584
vn -0.3636596 0.8891263 0.1634584
vn -0.3636587 0.8891266 0.1634581
vn -0.648437 0.7582884 -0.06729241
vn -0.2687326 0.9327392 0.2403757
vn -0.268733 0.9327388 0.2403768
vn -0.2687332 0.9327391 0.2403753
vn -0.3001529 0.9241602 0.2342868
vn -0.2818404 0.9309561 0.2315916
vn -0.2818421 0.9309555 0.231592
vn -0.2687344 0.9327391 0.2403737
vn -0.2818401 0.9309559 0.2315926
vn -0.2687333 0.9327393 0.2403741
vn -0.2818397 0.9309559 0.2315931
vn -0.2687315 0.93274 0.2403737
vn -0.3367807 0.910568 0.2396763
vn -0.336781 0.9105682 0.2396748
vn -0.3367825 0.9105676 0.2396752
vn -0.3367819 0.9105674 0.2396769
vn -0.3158632 0.9198706 0.2312429
vn -0.3188525 0.9185417 0.232446
vn -0.3367828 0.9105672 0.239676
vn -0.3001529 0.9241602 0.2342868
vn -0.3367813 0.9105677 0.2396765
vn -0.336783 0.9105669 0.2396771
vn -0.3367824 0.9105673 0.2396761
vn -0.3676119 0.8998039 0.2329613
vn -0.349859 0.9078233 0.2306413
vn -0.3498596 0.9078234 0.2306402
vn -0.3367833 0.9105675 0.2396744
vn -0.34986 0.9078231 0.2306408
vn -0.336782 0.9105678 0.2396752
vn -0.3315555 0.9149396 0.2280309
vn -0.3128762 0.9211991 0.2300383
vn -0.4031196 0.8837658 0.2375975
vn -0.4031195 0.8837659 0.2375975
vn -0.4031191 0.8837656 0.2375991
vn -0.4031183 0.8837662 0.2375983
vn -0.3830261 0.8944231 0.2296023
vn -0.3858963 0.8929005 0.2307454
vn -0.4031183 0.8837657 0.2376
vn -0.3676119 0.8998039 0.2329613
vn -0.4031177 0.8837665 0.2375981
vn -0.40312 0.8837659 0.2375968
vn -0.4031194 0.8837662 0.2375965
vn -0.4150438 0.8803952 0.2289427
vn -0.4150437 0.8803952 0.2289422
vn -0.4150431 0.8803952 0.2289431
vn -0.4031202 0.8837658 0.2375963
vn -0.4150431 0.8803954 0.2289427
vn -0.4031202 0.8837656 0.2375968
vn -0.3976741 0.8886234 0.2264966
vn -0.3801565 0.8959453 0.2284594
vn -0.3629343 0.9050795 0.2216074
vn -0.362934 0.9050797 0.2216074
vn -0.3629338 0.9050795 0.2216083
vn -0.3629329 0.90508 0.2216078
vn -0.3498596 0.9078234 0.2306402
vn -0.349859 0.9078233 0.2306413
vn -0.3858963 0.8929005 0.2307454
vn -0.3676119 0.8998039 0.2329613
vn -0.3830261 0.8944231 0.2296023
vn -0.3629349 0.9050795 0.2216068
vn -0.3629339 0.9050797 0.221607
vn -0.3801565 0.8959453 0.2284594
vn -0.3976741 0.8886234 0.2264966
vn -0.3629347 0.9050793 0.2216073
vn -0.3629333 0.9050798 0.2216076
vn -0.3629332 0.9050799 0.2216072
vn -0.3629352 0.9050788 0.2216088
vn -0.34986 0.9078231 0.2306408
vn -0.3315555 0.9149396 0.2280309
vn -0.2949467 0.9291722 0.222812
vn -0.2949471 0.929172 0.2228125
vn -0.2949471 0.9291729 0.2228094
vn -0.294948 0.929172 0.222812
vn -0.2818421 0.9309555 0.231592
vn -0.2818404 0.9309561 0.2315916
vn -0.3188525 0.9185417 0.232446
vn -0.3001529 0.9241602 0.2342868
vn -0.3158632 0.9198706 0.2312429
vn -0.294947 0.9291723 0.2228115
vn -0.2949475 0.9291724 0.2228105
vn -0.3128762 0.9211991 0.2300383
vn -0.3315555 0.9149396 0.2280309
vn -0.2949472 0.9291727 0.2228099
vn -0.2949477 0.9291725 0.2228101
vn -0.2949482 0.929172 0.2228113
vn -0.2949478 0.9291725 0.2228099
vn -0.2818401 0.9309559 0.2315926
vn -0.2818397 0.9309559 0.2315931
vn -0.4269663 0.8770245 0.22029
vn -0.4269667 0.8770249 0.2202878
vn -0.4269643 0.8770258 0.220289
vn -0.4269636 0.8770254 0.2202919
vn -0.4269651 0.8770261 0.2202859
vn -0.4269658 0.8770253 0.220288
vn -0.4150431 0.8803954 0.2289427
vn -0.3976741 0.8886234 0.2264966
vn -0.4150431 0.8803952 0.2289431
vn -0.4269682 0.8770237 0.2202898
vn -0.426966 0.8770245 0.220291
vn -0.4150437 0.8803952 0.2289422
vn -0.4269665 0.8770248 0.2202887
vn -0.4150438 0.8803952 0.2289427
vn -0.4269682 0.8770235 0.2202908
vn -0.4269687 0.8770237 0.2202887
vn -0.426967 0.8770242 0.2202899
vn -0.4269652 0.8770247 0.2202918
vn -0.4269665 0.8770244 0.22029
g pb_Mesh66672_0
f 3/3/3 2/2/2 1/1/1
f 3/3/3 1/1/1 4/4/4
f 6/6/6 5/5/5 2/2/2
f 3/3/3 6/6/6 2/2/2
f 7/7/7 6/6/6 3/3/3
f 10/10/10 9/9/9 8/8/8
f 7/7/7 3/3/3 4/4/4
f 7/7/7 4/4/4 11/11/11
f 11/11/11 13/13/13 12/12/12
f 11/11/11 4/4/4 13/13/13
f 12/12/12 15/15/15 14/14/14
f 12/12/12 13/13/13 15/15/15
f 15/15/15 13/13/13 16/16/16
f 13/13/13 17/17/17 16/16/16
f 1/1/1 17/17/17 13/13/13
f 4/4/4 1/1/1 13/13/13
f 19/19/19 18/18/18 16/16/16
f 17/17/17 19/19/19 16/16/16
f 21/21/21 20/20/20 18/18/18
f 19/19/19 21/21/21 18/18/18
f 5/5/5 21/21/21 19/19/19
f 2/2/2 5/5/5 19/19/19
f 17/17/17 1/1/1 19/19/19
f 1/1/1 2/2/2 19/19/19
f 24/24/24 23/23/23 22/22/22
f 24/24/24 22/22/22 25/25/25
f 27/27/27 26/26/26 23/23/23
f 24/24/24 27/27/27 23/23/23
f 28/28/28 27/27/27 24/24/24
f 29/29/29 27/27/27 28/28/28
f 28/28/28 24/24/24 25/25/25
f 28/28/28 25/25/25 30/30/30
f 30/30/30 32/32/32 31/31/31
f 30/30/30 25/25/25 32/32/32
f 31/31/31 34/34/34 33/33/33
f 31/31/31 32/32/32 34/34/34
f 34/34/34 32/32/32 35/35/35
f 32/32/32 36/36/36 35/35/35
f 22/22/22 36/36/36 32/32/32
f 25/25/25 22/22/22 32/32/32
f 38/38/38 37/37/37 35/35/35
f 36/36/36 38/38/38 35/35/35
f 40/40/40 39/39/39 37/37/37
f 38/38/38 40/40/40 37/37/37
f 26/26/26 40/40/40 38/38/38
f 23/23/23 26/26/26 38/38/38
f 36/36/36 22/22/22 38/38/38
f 22/22/22 23/23/23 38/38/38
f 43/43/43 42/42/42 41/41/41
f 43/43/43 41/41/41 44/44/44
f 46/46/46 45/45/45 42/42/42
f 43/43/43 46/46/46 42/42/42
f 47/47/47 46/46/46 43/43/43
f 48/48/48 46/46/46 47/47/47
f 47/47/47 43/43/43 44/44/44
f 47/47/47 44/44/44 49/49/49
f 49/49/49 51/51/51 50/50/50
f 49/49/49 44/44/44 51/51/51
f 50/50/50 53/53/53 52/52/52
f 50/50/50 51/51/51 53/53/53
f 53/53/53 51/51/51 54/54/54
f 51/51/51 55/55/55 54/54/54
f 41/41/41 55/55/55 51/51/51
f 44/44/44 41/41/41 51/51/51
f 57/57/57 56/56/56 54/54/54
f 55/55/55 57/57/57 54/54/54
f 59/59/59 58/58/58 56/56/56
f 57/57/57 59/59/59 56/56/56
f 45/45/45 59/59/59 57/57/57
f 42/42/42 45/45/45 57/57/57
f 55/55/55 41/41/41 57/57/57
f 41/41/41 42/42/42 57/57/57
f 62/62/62 61/61/61 60/60/60
f 63/63/63 61/61/61 62/62/62
f 62/62/62 64/64/64 63/63/63
f 65/65/65 64/64/64 62/62/62
f 65/65/65 62/62/62 66/66/66
f 67/67/67 65/65/65 66/66/66
f 68/68/68 62/62/62 60/60/60
f 66/66/66 62/62/62 68/68/68
f 60/60/60 61/61/61 69/69/69
f 61/61/61 70/70/70 69/69/69
f 60/60/60 69/69/69 71/71/71
f 68/68/68 60/60/60 71/71/71
f 71/71/71 73/73/73 72/72/72
f 69/69/69 73/73/73 71/71/71
f 69/69/69 70/70/70 73/73/73
f 70/70/70 74/74/74 73/73/73
f 75/75/75 70/70/70 61/61/61
f 63/63/63 75/75/75 61/61/61
f 75/75/75 74/74/74 70/70/70
f 75/75/75 76/76/76 74/74/74
f 77/77/77 76/76/76 75/75/75
f 77/77/77 78/78/78 76/76/76
f 64/64/64 75/75/75 63/63/63
f 64/64/64 77/77/77 75/75/75
f 81/81/81 80/80/80 79/79/79
f 82/82/82 80/80/80 81/81/81
f 81/81/81 83/83/83 82/82/82
f 84/84/84 83/83/83 81/81/81
f 84/84/84 81/81/81 85/85/85
f 86/86/86 84/84/84 85/85/85
f 87/87/87 81/81/81 79/79/79
f 85/85/85 81/81/81 87/87/87
f 79/79/79 80/80/80 88/88/88
f 80/80/80 89/89/89 88/88/88
f 79/79/79 88/88/88 90/90/90
f 87/87/87 79/79/79 90/90/90
f 90/90/90 92/92/92 91/91/91
f 88/88/88 92/92/92 90/90/90
f 88/88/88 89/89/89 92/92/92
f 89/89/89 93/93/93 92/92/92
f 94/94/94 89/89/89 80/80/80
f 82/82/82 94/94/94 80/80/80
f 94/94/94 93/93/93 89/89/89
f 94/94/94 95/95/95 93/93/93
f 96/96/96 95/95/95 94/94/94
f 96/96/96 97/97/97 95/95/95
f 83/83/83 94/94/94 82/82/82
f 83/83/83 96/96/96 94/94/94
f 100/100/100 99/99/99 98/98/98
f 101/101/101 100/100/100 98/98/98
f 100/100/100 102/102/102 99/99/99
f 100/100/100 103/103/103 102/102/102
f 104/104/104 103/103/103 100/100/100
f 104/104/104 105/105/105 103/103/103
f 106/106/106 100/100/100 101/101/101
f 106/106/106 104/104/104 100/100/100
f 108/108/108 98/98/98 107/107/107
f 101/101/101 98/98/98 108/108/108
f 108/108/108 106/106/106 101/101/101
f 109/109/109 106/106/106 108/108/108
f 109/109/109 108/108/108 110/110/110
f 111/111/111 109/109/109 110/110/110
f 112/112/112 108/108/108 107/107/107
f 110/110/110 108/108/108 112/112/112
f 107/107/107 98/98/98 113/113/113
f 98/98/98 99/99/99 113/113/113
f 107/107/107 113/113/113 114/114/114
f 112/112/112 107/107/107 114/114/114
f 114/114/114 116/116/116 115/115/115
f 113/113/113 116/116/116 114/114/114
f 113/113/113 99/99/99 116/116/116
f 99/99/99 102/102/102 116/116/116
