g polySurface6
v -8.534256 5.50008 0
v -8.534256 5.50008 -3.007743
v -7.781849 5.50008 -3.007743
v -7.781849 5.50008 0
v 0 5.50008 0
v 0 5.50008 -3.007743
v -7.781849 4.884583 0.9783101
v -8.534256 4.884582 0.9783101
v -8.534256 5.50008 0
v -7.781849 5.50008 0
v 0 4.884583 0.9783101
v 0 5.50008 0
v -8.158051 4.599165 0.5333138
v -8.534256 4.884582 0.9783101
v -7.781849 4.884583 0.9783101
v -8.534256 4.254139 -0.004319191
v -7.781849 4.254138 -0.004319191
v -7.458698 4.280318 0.03648615
v -7.484879 4.254138 -0.004319191
v -6.755871 4.337258 0.1252327
v -6.838989 4.254138 -0.004319191
v -6.56855 4.524578 0.4171958
v 0 4.884583 0.9783101
v 0 4.25414 -0.004320145
v -7.214439 4.524578 0.4171958
v -8.158051 0 0.5192237
v -8.534256 4.254139 -0.004319191
v -8.158051 4.599165 0.5333138
v -7.781849 4.254138 -0.004319191
v -7.781849 3.957169 -0.004018307
v -8.158051 4.599165 0.5333138
v -7.781849 3.957169 -0.004018307
v -8.078655 3.660363 0.4171958
v -7.781849 3.311278 -0.003362179
v -8.080044 3.013081 0.4171958
v -7.781849 0 0
v -8.158051 0 0.5192237
v -7.484879 4.254138 -0.004319191
v -7.781849 3.957169 -0.004018307
v -7.781849 4.254138 -0.004319191
v -6.838989 4.254138 -0.004319191
v -7.781849 3.311278 -0.003362179
v 0 0 0
v -6.838989 4.254138 -0.004319191
v 0 4.25414 -0.004320145
v -7.781849 3.311278 -0.003362179
v -7.781849 0 0
v -7.781849 3.957169 -0.004018307
v -7.484879 4.254138 -0.004319191
v -7.458698 4.280318 0.03648615
v -8.078655 3.660363 0.4171958
v -7.214439 4.524578 0.4171958
v -8.080044 3.013081 0.4171958
v -8.078655 3.660363 0.4171958
v -7.214439 4.524578 0.4171958
v -6.56855 4.524578 0.4171958
v -7.781849 3.311278 -0.003362179
v -8.080044 3.013081 0.4171958
v -6.56855 4.524578 0.4171958
v -6.838989 4.254138 -0.004319191
v -6.56855 4.524578 0.4171958
v -6.755871 4.337258 0.1252327
v -6.838989 4.254138 -0.004319191
v -8.158051 0 0.5192237
v -8.158051 4.599165 0.5333138
v -8.078655 3.660363 0.4171958
v -8.080044 3.013081 0.4171958
v -8.158051 0 0.5192237
v -8.534256 0 0
v -8.534256 4.254139 -0.004319191
vt 0.515674 0.858138
vt 0.478018 0.85814
vt 0.478017 0.86756
vt 0.515673 0.867558
vt 0.51567 0.964983
vt 0.478017 0.964983
vt 0.530143 0.86756
vt 0.530146 0.858142
vt 0.515674 0.858138
vt 0.515673 0.867558
vt 0.53014 0.9649886
vt 0.51567 0.964983
vt 0.5232683 0.8627611
vt 0.5166503 0.8580491
vt 0.5166473 0.8674671
vt 0.5312674 0.8580532
vt 0.5312624 0.8674811
vt 0.5306513 0.8715197
vt 0.5312554 0.8711991
vt 0.5292803 0.8803095
vt 0.5312057 0.8792658
vt 0.5249628 0.8826535
vt 0.5166444 0.9648957
vt 0.531261 0.9648888
vt 0.5249673 0.8745582
vt 0.175476 0.8904144
vt 0.1628763 0.9912738
vt 0.1746793 0.998778
vt 0.1881981 0.9915807
vt 0.1881982 0.9845271
vt 0.1746793 0.998778
vt 0.1881979 0.9845875
vt 0.1772691 0.9773853
vt 0.1881983 0.9692398
vt 0.1773886 0.9620192
vt 0.1881994 0.8905257
vt 0.175476 0.8904144
vt 0.867812 0.976245
vt 0.864184 0.97244
vt 0.864095 0.976156
vt 0.875897 0.976436
vt 0.864375 0.964356
vt 0.9199741 0.6583619
vt 0.8663452 0.7437518
vt 0.8667148 0.6581313
vt 0.8780987 0.7556074
vt 0.9195537 0.755786
vt 0.458461 0.908394
vt 0.458545 0.913651
vt 0.459063 0.914106
vt 0.463645 0.903051
vt 0.463901 0.91835
vt 0.469266 0.897214
vt 0.463645 0.903051
vt 0.463901 0.91835
vt 0.469714 0.923972
vt 0.458317 0.885184
vt 0.463582 0.890464
vt 0.463582 0.863702
vt 0.458305 0.86849
vt 0.463582 0.863702
vt 0.459927 0.867019
vt 0.458305 0.86849
vt 0.175476 0.8904144
vt 0.1746793 0.998778
vt 0.1773201 0.9773933
vt 0.1773886 0.9620192
vt 0.175476 0.8904144
vt 0.1626988 0.8902147
vt 0.1628763 0.9912738
vn 0 1 0
vn 0 1 0
vn 0 1 0
vn 0 1 0
vn 0 1 0
vn 0 1 0
vn 0 0.8464185 0.5325183
vn 0 0.8464185 0.5325183
vn 0 0.846418 0.532519
vn 0 0.846418 0.532519
vn 0 0.8464187 0.5325179
vn 0 0.8464187 0.5325179
vn 0 -0.8417401 0.539883
vn 0 -0.8417401 0.539883
vn 0 -0.8417401 0.539883
vn 0.000197 -0.8416619 0.540005
vn -0.000197 -0.841665 0.54
vn 0 -0.8416619 0.540005
vn 0 -0.8416669 0.539997
vn 0 -0.8416631 0.540003
vn 0 -0.8416643 0.5400012
vn 0 -0.8416638 0.5400018
vn 0 -0.8416638 0.5400018
vn 0 -0.8416643 0.5400012
vn 0 -0.8416657 0.5399988
vn -0.8187984 -0.001758001 0.5740784
vn -0.8187988 -0.001757999 0.5740779
vn -0.8187988 -0.001757999 0.5740779
vn 0.8195082 0.0005950001 0.5730671
vn 0.8195082 0.0005950001 0.5730671
vn 0.8195082 0.0005950001 0.5730671
vn 0.816792 -0.000584 0.576932
vn 0.816792 -0.000584 0.576932
vn 0.815553 0.000587 0.578682
vn 0.815553 0.000587 0.578682
vn 0.815553 0.000587 0.578682
vn 0.8097848 -0.001096 0.5867259
vn 0 0.001015 0.9999995
vn 0 0.001015 0.9999995
vn 0 0.001015 0.9999995
vn 0 0.001016 0.9999995
vn 0 0.001016001 0.9999995
vn 0 0.001016 0.9999995
vn 0 0.001016 0.9999995
vn 0 0.001016 0.9999995
vn 0 0.001015 0.9999995
vn 0 0.001015 0.9999995
vn -0.7071078 0.7071058 0
vn -0.7071072 0.7071062 0
vn -0.7071072 0.7071062 0
vn -0.7071072 0.7071062 0
vn -0.7071078 0.7071058 0
vn 0 0 1
vn 0 0 1
vn 0 0 1
vn 0 0 1
vn 0.7071072 -0.7071062 0
vn 0.7071072 -0.7071062 0
vn 0.7071072 -0.7071062 0
vn 0.7071072 -0.7071062 0
vn 0.7071072 -0.7071062 0
vn 0.7071072 -0.7071062 0
vn 0.7071072 -0.7071062 0
vn 0.8187988 -0.001757999 0.5740779
vn 0.8187988 -0.001757999 0.5740779
vn 0.8187988 -0.001757999 0.5740779
vn 0.8187993 -0.001758 0.5740772
vn -0.8097831 0.0005960001 0.586729
vn -0.8097831 0.0005960001 0.586729
vn -0.8097831 0.0005960001 0.586729
g polySurface6_0
f 3/3/3 2/2/2 1/1/1
f 4/4/4 3/3/3 1/1/1
f 3/3/3 4/4/4 5/5/5
f 6/6/6 3/3/3 5/5/5
f 9/9/9 8/8/8 7/7/7
f 10/10/10 9/9/9 7/7/7
f 10/10/10 7/7/7 11/11/11
f 12/12/12 10/10/10 11/11/11
f 15/15/15 14/14/14 13/13/13
f 13/13/13 14/14/14 16/16/16
f 17/17/17 15/15/15 13/13/13
f 18/18/18 15/15/15 17/17/17
f 17/17/17 19/19/19 18/18/18
f 18/18/18 19/19/19 20/20/20
f 19/19/19 21/21/21 20/20/20
f 20/20/20 22/22/22 18/18/18
f 22/22/22 20/20/20 23/23/23
f 22/22/22 23/23/23 15/15/15
f 23/23/23 20/20/20 21/21/21
f 23/23/23 21/21/21 24/24/24
f 22/22/22 25/25/25 18/18/18
f 18/18/18 25/25/25 15/15/15
f 25/25/25 22/22/22 15/15/15
f 28/28/28 27/27/27 26/26/26
f 31/31/31 30/30/30 29/29/29
f 31/31/31 33/33/33 32/32/32
f 32/32/32 33/33/33 34/34/34
f 33/33/33 35/35/35 34/34/34
f 34/34/34 35/35/35 36/36/36
f 35/35/35 37/37/37 36/36/36
f 40/40/40 39/39/39 38/38/38
f 38/38/38 39/39/39 41/41/41
f 39/39/39 42/42/42 41/41/41
f 45/45/45 44/44/44 43/43/43
f 44/44/44 46/46/46 43/43/43
f 46/46/46 47/47/47 43/43/43
f 50/50/50 49/49/49 48/48/48
f 48/48/48 51/51/51 50/50/50
f 51/51/51 52/52/52 50/50/50
f 55/55/55 54/54/54 53/53/53
f 56/56/56 55/55/55 53/53/53
f 59/59/59 58/58/58 57/57/57
f 57/57/57 60/60/60 59/59/59
f 63/63/63 62/62/62 61/61/61
f 66/66/66 65/65/65 64/64/64
f 67/67/67 66/66/66 64/64/64
f 70/70/70 69/69/69 68/68/68
