g polySurface10
v 0 0 3.814697E-06
v 0 6.459433 3.814697E-06
v 2.143816 6.459433 3.814697E-06
v 2.143816 0 3.814697E-06
v 0 6.459433 3.814697E-06
v 0 6.768296 0.4134102
v 2.143816 6.768296 0.4134102
v 2.143816 6.459433 3.814697E-06
v 0 6.768296 0.4134102
v 0 7.15193 3.814697E-06
v 2.143816 7.15193 3.814697E-06
v 2.143816 6.768296 0.4134102
v 0 7.15193 3.814697E-06
v 0 6.768296 -0.3618507
v 2.143816 6.768296 -0.3618507
v 2.143816 7.15193 3.814697E-06
v 0 6.768296 -0.3618507
v 0 6.459433 3.814697E-06
v 2.143816 6.459433 3.814697E-06
v 2.143816 6.768296 -0.3618507
v 2.143816 7.15193 3.814697E-06
v 2.143816 6.768296 -0.3618507
v 2.143816 6.459433 3.814697E-06
v 2.143816 6.768296 0.4134102
v 0 6.768296 0.4134102
v 0 6.459433 3.814697E-06
v 0 6.768296 -0.3618507
v 0 7.15193 3.814697E-06
vt 0.7836019 0.9675327
vt 0.7836019 0.8866637
vt 0.7567618 0.8866637
vt 0.7567618 0.9675327
vt 0.7831767 0.9751276
vt 0.7793794 0.9751276
vt 0.7793794 0.9909016
vt 0.7831767 0.9909017
vt 0.7797692 0.9872878
vt 0.781971 0.9872884
vt 0.781971 0.978919
vt 0.7797692 0.9789187
vt 0.7817958 0.9787428
vt 0.7797362 0.9787432
vt 0.7797375 0.9871123
vt 0.7817958 0.9871123
vt 0.7796085 0.9912007
vt 0.7832036 0.9911996
vt 0.7831988 0.9750049
vt 0.779606 0.9750054
vt 0.7755136 0.9774228
vt 0.7755308 0.9753644
vt 0.7736751 0.9754408
vt 0.7733118 0.9774225
vt 0.7733118 0.9857916
vt 0.7736738 0.9877733
vt 0.7755299 0.987851
vt 0.7755136 0.9857922
vn 0 0 1
vn 0 0 1
vn 0 0 1
vn 0 0 1
vn 0 -0.8011093 0.5985181
vn 0 -0.8011093 0.5985181
vn 0 -0.8011093 0.5985181
vn 0 -0.8011093 0.5985181
vn 0 0.7330118 0.6802158
vn 0 0.7330118 0.6802158
vn 0 0.7330118 0.6802158
vn 0 0.7330118 0.6802158
vn 0 0.6861557 -0.7274547
vn 0 0.6861557 -0.7274547
vn 0 0.6861557 -0.7274547
vn 0 0.6861557 -0.7274547
vn 0 -0.7606031 -0.6492171
vn 0 -0.7606031 -0.6492171
vn 0 -0.7606031 -0.6492171
vn 0 -0.7606031 -0.6492171
vn 1 0 0
vn 1 0 0
vn 1 0 0
vn 1 0 0
vn -1 0 0
vn -1 0 0
vn -1 0 0
vn -1 0 0
g polySurface10_0
f 3/3/3 2/2/2 1/1/1
f 4/4/4 3/3/3 1/1/1
f 7/7/7 6/6/6 5/5/5
f 8/8/8 7/7/7 5/5/5
f 11/11/11 10/10/10 9/9/9
f 12/12/12 11/11/11 9/9/9
f 15/15/15 14/14/14 13/13/13
f 16/16/16 15/15/15 13/13/13
f 19/19/19 18/18/18 17/17/17
f 20/20/20 19/19/19 17/17/17
f 23/23/23 22/22/22 21/21/21
f 24/24/24 23/23/23 21/21/21
f 27/27/27 26/26/26 25/25/25
f 28/28/28 27/27/27 25/25/25
