g polySurface4
v 12.86291 -3.268661 0
v 12.86291 -3.268661 4.057161
v 12.86291 -1.758127 4.057161
v 12.86291 -9.536743E-07 0
v 10.71909 -1.758127 4.057161
v 10.71909 -9.536743E-07 0
v 8.575272 -1.758127 4.057161
v 8.575272 -9.536743E-07 0
v 6.431454 -1.758127 4.057161
v 6.431454 -9.536743E-07 0
v 10.71909 -3.268661 4.057161
v 12.86291 -3.268661 4.057161
v 8.575272 -3.268661 4.057161
v 6.431454 -3.268661 4.057161
v 0 0 0
v 0 -1.758127 4.057161
v 0 -3.26866 4.057161
v 0 -3.268661 0
v 2.143818 0 0
v 2.143818 -1.758127 4.057161
v 4.287636 -9.536743E-07 0
v 4.287636 -1.758127 4.057161
v 6.431454 -9.536743E-07 0
v 6.431454 -1.758127 4.057161
v 4.287636 -3.268661 4.057161
v 6.431454 -3.268661 4.057161
v 2.143818 -3.26866 4.057161
v 0 -3.26866 4.057161
vt 0.286261 0.701396
vt 0.332859 0.681183
vt 0.325333 0.663838
vt 0.269976 0.663851
vt 0.325329 0.637002
vt 0.269972 0.637004
vt 0.32533 0.610165
vt 0.269973 0.610157
vt 0.325335 0.583327
vt 0.269979 0.583311
vt 0.344241 0.637001
vt 0.344243 0.663839
vt 0.34424 0.610167
vt 0.344245 0.583333
vt 0.270023 0.663893
vt 0.32538 0.663852
vt 0.332913 0.681195
vt 0.286324 0.70143
vt 0.270004 0.637049
vt 0.325361 0.637015
vt 0.269988 0.610202
vt 0.325345 0.610177
vt 0.269979 0.583355
vt 0.325335 0.583339
vt 0.344256 0.610167
vt 0.344245 0.583333
vt 0.344272 0.637003
vt 0.344291 0.663841
vn 1 0 0
vn 0.948488 0 0.316813
vn 0.7380908 0.5254018 0.4232908
vn 0.6033143 0.7317523 0.3170972
vn 0 0.7787171 0.6273751
vn 0 0.9175537 0.3976119
vn 0 0.7787171 0.6273751
vn 0 0.9175537 0.3976119
vn 0 0.7787171 0.6273751
vn 0 0.9175537 0.3976119
vn 0 0 1
vn 0.948488 0 0.316813
vn 0 0 1
vn 0 0 1
vn -0.6033143 0.7317523 0.3170972
vn -0.7380908 0.5254018 0.4232908
vn -0.948488 0 0.316813
vn -1 0 0
vn 0 0.9175537 0.3976119
vn 0 0.7787171 0.6273751
vn 0 0.9175537 0.3976119
vn 0 0.7787171 0.6273751
vn 0 0.9175537 0.3976119
vn 0 0.7787171 0.6273751
vn 0 0 1
vn 0 0 1
vn 0 0 1
vn -0.948488 0 0.316813
g polySurface4_0
f 3/3/3 2/2/2 1/1/1
f 4/4/4 3/3/3 1/1/1
f 5/5/5 3/3/3 4/4/4
f 6/6/6 5/5/5 4/4/4
f 7/7/7 5/5/5 6/6/6
f 8/8/8 7/7/7 6/6/6
f 9/9/9 7/7/7 8/8/8
f 10/10/10 9/9/9 8/8/8
f 5/5/5 11/11/11 3/3/3
f 11/11/11 12/12/12 3/3/3
f 13/13/13 11/11/11 5/5/5
f 7/7/7 13/13/13 5/5/5
f 14/14/14 13/13/13 7/7/7
f 9/9/9 14/14/14 7/7/7
f 17/17/17 16/16/16 15/15/15
f 18/18/18 17/17/17 15/15/15
f 15/15/15 16/16/16 19/19/19
f 16/16/16 20/20/20 19/19/19
f 19/19/19 20/20/20 21/21/21
f 20/20/20 22/22/22 21/21/21
f 21/21/21 22/22/22 23/23/23
f 22/22/22 24/24/24 23/23/23
f 22/22/22 25/25/25 24/24/24
f 25/25/25 26/26/26 24/24/24
f 27/27/27 25/25/25 22/22/22
f 20/20/20 27/27/27 22/22/22
f 28/28/28 27/27/27 20/20/20
f 16/16/16 28/28/28 20/20/20
