g ropetie
v 4.166722E-05 0.006160624 -0.006500002
v -0.0008895039 0.00577492 -0.006500002
v 4.166722E-05 0.004843749 -0.007500003
v -0.0008895039 0.00577492 -0.006500002
v -0.001275208 0.004843749 -0.006500002
v 4.166722E-05 0.004843749 -0.007500003
v -0.001275208 0.004843749 -0.006500002
v -0.0008895039 0.003912578 -0.006500002
v 4.166722E-05 0.004843749 -0.007500003
v -0.0008895039 0.003912578 -0.006500002
v 4.166841E-05 0.003526874 -0.006500002
v 4.166722E-05 0.004843749 -0.007500003
v 4.166722E-05 0.004843749 -0.007500003
v 4.166841E-05 0.003526874 -0.006500002
v 0.0009728384 0.003912578 -0.006500002
v 0.0009728384 0.003912578 -0.006500002
v 0.001358542 0.004843751 -0.006500002
v 4.166722E-05 0.004843749 -0.007500003
v 0.001358542 0.004843751 -0.006500002
v 0.0009728372 0.005774922 -0.006500002
v 4.166722E-05 0.004843749 -0.007500003
v 0.0009728372 0.005774922 -0.006500002
v 4.166722E-05 0.006160624 -0.006500002
v 4.166722E-05 0.004843749 -0.007500003
v 4.166722E-05 0.006160624 -0.006500002
v 4.166722E-05 0.006160623 0.006499999
v -0.0008895039 0.00577492 0.006500002
v -0.0008895039 0.00577492 -0.006500002
v -0.0008895039 0.003912578 -0.006500002
v -0.001275208 0.004843749 -0.006500002
v -0.001275208 0.004843749 0.006500002
v -0.0008895039 0.003912578 0.006500002
v 4.166841E-05 0.003526874 -0.006500002
v -0.0008895039 0.003912578 -0.006500002
v -0.0008895039 0.003912578 0.006500002
v 4.166841E-05 0.003526874 0.006500002
v 0.001358542 0.004843751 -0.006500002
v 0.0009728384 0.003912578 -0.006500002
v 0.0009728384 0.003912578 0.006500002
v 0.001358542 0.00484375 0.006500002
v 4.166722E-05 0.006160623 0.006499999
v 4.166722E-05 0.004843749 0.0075
v -0.0008895039 0.00577492 0.006500002
v -0.0008895039 0.00577492 0.006500002
v 4.166722E-05 0.004843749 0.0075
v -0.001275208 0.004843749 0.006500002
v -0.001275208 0.004843749 0.006500002
v 4.166722E-05 0.004843749 0.0075
v -0.0008895039 0.003912578 0.006500002
v -0.0008895039 0.003912578 0.006500002
v 4.166722E-05 0.004843749 0.0075
v 4.166841E-05 0.003526874 0.006500002
v 4.166722E-05 0.004843749 0.0075
v 0.0009728384 0.003912578 0.006500002
v 4.166841E-05 0.003526874 0.006500002
v 0.0009728384 0.003912578 0.006500002
v 4.166722E-05 0.004843749 0.0075
v 0.001358542 0.00484375 0.006500002
v 0.001358542 0.00484375 0.006500002
v 4.166722E-05 0.004843749 0.0075
v 0.0009728372 0.005774921 0.006500002
v 0.0009728372 0.005774921 0.006500002
v 4.166722E-05 0.004843749 0.0075
v 4.166722E-05 0.006160623 0.006499999
v 4.166722E-05 0.006160624 -0.006500002
v 0.0009728372 0.005774922 -0.006500002
v 0.0009728372 0.005774921 0.006500002
v 4.166722E-05 0.006160623 0.006499999
v -0.001275208 0.004843749 -0.006500002
v -0.0008895039 0.00577492 -0.006500002
v -0.0008895039 0.00577492 0.006500002
v -0.001275208 0.004843749 0.006500002
v 0.0009728372 0.005774922 -0.006500002
v 0.001358542 0.004843751 -0.006500002
v 0.001358542 0.00484375 0.006500002
v 0.0009728372 0.005774921 0.006500002
v 0.0009728384 0.003912578 -0.006500002
v 4.166841E-05 0.003526874 -0.006500002
v 4.166841E-05 0.003526874 0.006500002
v 0.0009728384 0.003912578 0.006500002
v 0.005309165 0.004843753 0.003999998
v 4.166841E-05 0.004843749 0.003999998
v 0.003766346 0.008568438 0.003999998
v 4.166603E-05 0.01011125 0.003999998
v -0.003683018 0.008568433 0.003999998
v -0.005225835 0.004843749 0.003999998
v -0.003683018 0.001119064 0.003999998
v 4.166841E-05 -0.0004237514 0.003999998
v 0.003766354 0.001119065 0.003999998
v -0.003683018 0.008568433 0.002499999
v -0.005225835 0.004843749 0.002499999
v 4.166841E-05 0.004843749 0.002499999
v 4.166603E-05 0.01011125 0.002499999
v 0.003766346 0.008568438 0.002499999
v 0.005309165 0.004843753 0.002499999
v 0.003766354 0.001119065 0.002499999
v 4.166841E-05 -0.0004237514 0.002499999
v -0.003683018 0.001119064 0.002499999
v -0.005225835 0.004843749 0.003999998
v -0.003683018 0.001119064 0.003999998
v -0.003683018 0.001119064 0.002499999
v -0.005225835 0.004843749 0.002499999
v -0.003683018 0.008568433 0.003999998
v -0.003683018 0.008568433 0.002499999
v 4.166603E-05 0.01011125 0.003999998
v 4.166603E-05 0.01011125 0.002499999
v 4.166841E-05 -0.0004237514 0.002499999
v 4.166841E-05 -0.0004237514 0.003999998
v 0.003766354 0.001119065 0.002499999
v 0.003766354 0.001119065 0.003999998
v 0.005309165 0.004843753 0.002499999
v 0.005309165 0.004843753 0.003999998
v 0.003766346 0.008568438 0.002499999
v 0.003766346 0.008568438 0.003999998
v 4.166603E-05 0.01011125 0.002499999
v 4.166603E-05 0.01011125 0.003999998
v 0.005309167 0.004843754 -0.004000003
v 0.005309167 0.004843754 -0.002500003
v 0.003766348 0.008568439 -0.002500003
v 0.003766348 0.008568439 -0.004000003
v 4.166841E-05 0.01011125 -0.002500003
v 4.166841E-05 0.01011125 -0.004000003
v 0.003766354 0.001119066 -0.004000003
v 0.003766354 0.001119066 -0.002500003
v 4.166961E-05 -0.000423751 -0.004000003
v 4.166961E-05 -0.000423751 -0.002500003
v -0.003683017 0.001119064 -0.004000003
v -0.003683017 0.001119064 -0.002500003
v -0.005225833 0.004843749 -0.004000003
v -0.005225833 0.004843749 -0.002500003
v -0.003683017 0.008568434 -0.004000003
v -0.003683017 0.008568434 -0.002500003
v 4.166841E-05 0.01011125 -0.004000003
v 4.166841E-05 0.01011125 -0.002500003
v 0.003766354 0.001119066 -0.004000003
v 0.005309167 0.004843754 -0.004000003
v 4.166841E-05 0.004843749 -0.004000003
v 0.003766348 0.008568439 -0.004000003
v 4.166841E-05 0.01011125 -0.004000003
v 4.166961E-05 -0.000423751 -0.004000003
v -0.003683017 0.001119064 -0.004000003
v -0.005225833 0.004843749 -0.004000003
v -0.003683017 0.008568434 -0.004000003
v -0.005225833 0.004843749 -0.002500003
v 4.166841E-05 0.004843749 -0.002500003
v -0.003683017 0.001119064 -0.002500003
v -0.003683017 0.008568434 -0.002500003
v 4.166841E-05 0.01011125 -0.002500003
v 0.003766348 0.008568439 -0.002500003
v 0.005309167 0.004843754 -0.002500003
v 0.003766354 0.001119066 -0.002500003
v 4.166961E-05 -0.000423751 -0.002500003
v 0.002788923 0.006827291 -0.0015
v 0.003780693 0.004843751 -0.0015
v 0.003780693 0.00484375 0.001499997
v 0.002788923 0.006827291 0.001499997
v -0.00288323 0.00682729 -0.0015
v -0.00288323 0.006827291 0.001499997
v -0.003875001 0.00484375 -0.0015
v -0.003875001 0.004843751 0.001499997
v 0.002788923 0.002860207 0.001499997
v 0.003780693 0.00484375 0.001499997
v 0.003780693 0.004843751 -0.0015
v 0.002788923 0.002860208 -0.0015
v -0.00288323 0.002860207 -0.001499999
v -0.00288323 0.002860208 0.001499998
v -0.003875001 0.00484375 -0.0015
v -0.003875001 0.004843751 0.001499997
v -0.00288323 0.00682729 -0.0015
v -0.003875001 0.00484375 -0.0015
v -0.00288323 0.002860207 -0.001499999
v 0.002788923 0.002860208 -0.0015
v 0.002788923 0.006827291 -0.0015
v 0.003780693 0.004843751 -0.0015
v -0.003875001 0.004843751 0.001499997
v -0.00288323 0.006827291 0.001499997
v -0.00288323 0.002860208 0.001499998
v 0.002788923 0.002860207 0.001499997
v 0.002788923 0.006827291 0.001499997
v 0.003780693 0.00484375 0.001499997
v -0.002 -0.004833333 0.002999998
v -0.002 -0.004833333 -0.003000001
v -0.002 -0.0003333329 -0.003000003
v -0.002 -0.000333332 0.002999997
v 0.002000001 -0.004833333 0.002999998
v 0.002000001 -0.000333332 0.002999997
v 0.002000001 -0.004833333 -0.003000001
v 0.002000001 -0.0003333329 -0.003000003
v -0.002 -0.0003333329 -0.003000003
v 0.002000001 -0.0003333329 -0.003000003
v 0.002000001 -0.0003333329 -0.003000003
v 0.002000001 -0.000333332 0.002999997
v -0.002 -0.000333332 0.002999997
v -0.002 -0.0003333329 -0.003000003
v 0.0005000006 -0.001166666 -0.0007500026
v -0.0004999994 -0.001166666 -0.0007500026
v -0.0004999994 -0.001166666 0.0007499975
v 0.0005000006 -0.001166666 0.0007499975
v 0.0005000006 0.005101922 -0.0007500054
v 0.0005000006 0.005101922 0.0007499947
v -0.0004999994 0.005101922 0.0007499947
v -0.0004999994 0.005101922 -0.0007500054
v -0.0004999994 -0.001166666 0.0007499975
v -0.0004999994 0.005101922 0.0007499947
v 0.0005000006 0.005101922 0.0007499947
v 0.0005000006 -0.001166666 0.0007499975
v 0.0005000006 0.005101922 -0.0007500054
v 0.0005000006 -0.001166666 -0.0007500026
v -0.0004999994 0.005101922 -0.0007500054
v -0.0004999994 -0.001166666 -0.0007500026
v -0.0004999994 0.005101922 0.0007499947
v -0.0004999994 -0.001166666 0.0007499975
vt 0.1041058 0.1455284
vt 0.09928347 0.1493022
vt 0.1075913 0.1549504
vt 0.09928347 0.1493022
vt 0.0975478 0.1551745
vt 0.1075913 0.1549504
vt 0.0975478 0.1551745
vt 0.09954371 0.1609636
vt 0.1075913 0.1549504
vt 0.09954371 0.1609636
vt 0.1045296 0.1645185
vt 0.1075913 0.1549504
vt 0.1075913 0.1549504
vt 0.1045296 0.1645185
vt 0.110653 0.1645185
vt 0.110653 0.1645185
vt 0.1156389 0.1609636
vt 0.1075913 0.1549504
vt 0.1156389 0.1609636
vt 0.1176348 0.1551745
vt 0.1075913 0.1549504
vt 0.1176348 0.1551745
vt 0.1158991 0.1493022
vt 0.1075913 0.1549504
vt 0.1080015 0.03650159
vt 0.03965344 0.2494571
vt 0.04577684 0.2494571
vt 0.1170147 0.03650159
vt 0.1350411 0.03650156
vt 0.1260279 0.03650159
vt 0.05190028 0.2494571
vt 0.05802374 0.2494571
vt 0.1440544 0.03650156
vt 0.1350411 0.03650156
vt 0.05802374 0.2494571
vt 0.06414718 0.2494571
vt 0.1620808 0.03650156
vt 0.1530676 0.03650153
vt 0.07027058 0.2494571
vt 0.07639404 0.2494571
vt 0.06131594 0.2148274
vt 0.06962378 0.2091792
vt 0.05958027 0.2089551
vt 0.05958027 0.2089551
vt 0.06962378 0.2091792
vt 0.06157614 0.203166
vt 0.06157614 0.203166
vt 0.06962378 0.2091792
vt 0.06656206 0.1996111
vt 0.06656206 0.1996111
vt 0.06962378 0.2091792
vt 0.0726855 0.1996111
vt 0.06962378 0.2091792
vt 0.07767136 0.203166
vt 0.0726855 0.1996111
vt 0.07767136 0.203166
vt 0.06962378 0.2091792
vt 0.07966727 0.2089551
vt 0.07966727 0.2089551
vt 0.06962378 0.2091792
vt 0.0779316 0.2148274
vt 0.0779316 0.2148274
vt 0.06962378 0.2091792
vt 0.07310927 0.2186011
vt 0.1801073 0.03650156
vt 0.171094 0.03650153
vt 0.08251747 0.2494571
vt 0.08864091 0.249457
vt 0.1260279 0.03650159
vt 0.1170147 0.03650159
vt 0.04577684 0.2494571
vt 0.05190028 0.2494571
vt 0.171094 0.03650153
vt 0.1620808 0.03650156
vt 0.07639404 0.2494571
vt 0.08251747 0.2494571
vt 0.1530676 0.03650153
vt 0.1440544 0.03650156
vt 0.06414718 0.2494571
vt 0.07027058 0.2494571
vt 0.8137609 0.2617545
vt 0.8046087 0.2880374
vt 0.8296651 0.2759241
vt 0.8308916 0.2971894
vt 0.816722 0.3130937
vt 0.7954566 0.3143202
vt 0.7795525 0.3001507
vt 0.7783259 0.2788853
vt 0.7924955 0.2629811
vt 0.9346275 0.2912061
vt 0.9505317 0.3053757
vt 0.9596839 0.2790928
vt 0.933401 0.2699408
vt 0.9475706 0.2540366
vt 0.9688358 0.25281
vt 0.9847401 0.2669796
vt 0.9859667 0.288245
vt 0.9717971 0.3041492
vt 0.9027513 0.1970095
vt 0.9015247 0.1757441
vt 0.8936126 0.1762005
vt 0.8948392 0.1974659
vt 0.9039779 0.2182749
vt 0.8960658 0.2187313
vt 0.9052044 0.2395403
vt 0.8972924 0.2399967
vt 0.8923861 0.1549351
vt 0.9002981 0.1544788
vt 0.8911594 0.1336698
vt 0.8990716 0.1332134
vt 0.8899329 0.1124044
vt 0.8978449 0.111948
vt 0.8887063 0.09113908
vt 0.8966184 0.09068269
vt 0.8874798 0.06987369
vt 0.8953918 0.06941736
vt 0.8981977 0.1119278
vt 0.9061097 0.1114714
vt 0.9048831 0.09020609
vt 0.8969711 0.09066242
vt 0.9036566 0.06894064
vt 0.8957446 0.06939703
vt 0.8994242 0.1331932
vt 0.9073362 0.1327368
vt 0.9006507 0.1544586
vt 0.9085628 0.1540022
vt 0.9018774 0.1757239
vt 0.9097893 0.1752676
vt 0.9031039 0.1969893
vt 0.911016 0.1965329
vt 0.9043305 0.2182546
vt 0.9122425 0.2177983
vt 0.905557 0.23952
vt 0.9134691 0.2390636
vt 0.8266835 0.2242324
vt 0.8107793 0.2100628
vt 0.8016272 0.2363456
vt 0.7895139 0.2112894
vt 0.7753444 0.2271935
vt 0.8279101 0.2454978
vt 0.8137405 0.261402
vt 0.7924751 0.2626285
vt 0.7765709 0.2484589
vt 0.8471483 0.3113387
vt 0.8563005 0.2850559
vt 0.8312441 0.2971691
vt 0.8684137 0.3101122
vt 0.8825833 0.294208
vt 0.8813567 0.2729426
vt 0.8654525 0.258773
vt 0.8441871 0.2599996
vt 0.8300176 0.2759038
vt 0.3875915 0.6411684
vt 0.3880481 0.6013336
vt 0.4306501 0.6018218
vt 0.4301934 0.6416568
vt 0.3857448 0.8022649
vt 0.4283467 0.8027533
vt 0.3852881 0.8420998
vt 0.42789 0.8425882
vt 0.4728801 0.6421462
vt 0.4733367 0.6023113
vt 0.4307348 0.6018229
vt 0.4302782 0.6416578
vt 0.4284315 0.8027542
vt 0.4710333 0.8032426
vt 0.4279748 0.8425892
vt 0.4705767 0.8430775
vt 0.3291063 0.8132845
vt 0.3006158 0.8411292
vt 0.2727712 0.8126387
vt 0.2746179 0.6515423
vt 0.3309531 0.6521881
vt 0.3031084 0.6236976
vt 0.3570357 0.841776
vt 0.3855262 0.8139313
vt 0.3291911 0.8132855
vt 0.3310378 0.6521891
vt 0.3873729 0.6528349
vt 0.3595283 0.6243445
vt 0.3521321 0.8319338
vt 0.3054747 0.7652506
vt 0.2991026 0.8970761
vt 0.3550805 0.8361211
vt 0.3557969 0.828429
vt 0.3587178 0.8331597
vt 0.414712 0.7662051
vt 0.4172351 0.6162367
vt 0.3054747 0.6162367
vt 0.4030964 0.8984286
vt 0.4030964 0.8984286
vt 0.3587178 0.8331597
vt 0.3550805 0.8361211
vt 0.2991026 0.8970761
vt 0.8169196 0.7478679
vt 0.7922212 0.7478679
vt 0.7922212 0.7849155
vt 0.8169196 0.7849155
vt 0.8169594 0.7478679
vt 0.8169594 0.7849155
vt 0.8416578 0.7849155
vt 0.8416577 0.7478679
vt 0.7922212 0.7478282
vt 0.9470452 0.7478281
vt 0.9470452 0.7231297
vt 0.7922212 0.7231298
vt 0.9470452 0.6860822
vt 0.7922212 0.6860822
vt 0.9470452 0.6613838
vt 0.7922212 0.6613838
vt 0.9470452 0.6243362
vt 0.7922212 0.6243363
vn -0.2429943 0.5866411 -0.7725323
vn -0.2429943 0.5866411 -0.7725323
vn -0.2429943 0.5866411 -0.7725323
vn -0.5866403 0.2429946 -0.7725328
vn -0.5866403 0.2429946 -0.7725328
vn -0.5866403 0.2429946 -0.7725328
vn -0.5866407 -0.2429947 -0.7725323
vn -0.5866407 -0.2429947 -0.7725323
vn -0.5866407 -0.2429947 -0.7725323
vn -0.2429948 -0.586641 -0.7725321
vn -0.2429948 -0.586641 -0.7725321
vn -0.2429948 -0.586641 -0.7725321
vn 0.2429951 -0.5866407 -0.7725323
vn 0.2429951 -0.5866407 -0.7725323
vn 0.2429951 -0.5866407 -0.7725323
vn 0.5866404 -0.2429945 -0.7725326
vn 0.5866404 -0.2429945 -0.7725326
vn 0.5866404 -0.2429945 -0.7725326
vn 0.5866402 0.2429953 -0.7725325
vn 0.5866402 0.2429953 -0.7725325
vn 0.5866402 0.2429953 -0.7725325
vn 0.2429944 0.5866405 -0.7725325
vn 0.2429944 0.5866405 -0.7725325
vn 0.2429944 0.5866405 -0.7725325
vn -0.3826829 0.9238797 0
vn -0.3826829 0.9238797 0
vn -0.3826829 0.9238797 0
vn -0.3826829 0.9238797 0
vn -0.9238794 -0.3826836 0
vn -0.9238794 -0.3826836 0
vn -0.9238794 -0.3826836 0
vn -0.9238794 -0.3826836 0
vn -0.382683 -0.9238797 0
vn -0.382683 -0.9238797 0
vn -0.382683 -0.9238797 0
vn -0.382683 -0.9238797 0
vn 0.9238795 -0.3826834 0
vn 0.9238795 -0.3826834 0
vn 0.9238795 -0.3826834 0
vn 0.9238795 -0.3826834 0
vn -0.2429915 0.5866419 0.7725325
vn -0.2429915 0.5866419 0.7725325
vn -0.2429915 0.5866419 0.7725325
vn -0.5866404 0.2429943 0.7725328
vn -0.5866404 0.2429943 0.7725328
vn -0.5866404 0.2429943 0.7725328
vn -0.5866404 -0.2429946 0.7725325
vn -0.5866404 -0.2429946 0.7725325
vn -0.5866404 -0.2429946 0.7725325
vn -0.242994 -0.5866406 0.7725327
vn -0.242994 -0.5866406 0.7725327
vn -0.242994 -0.5866406 0.7725327
vn 0.2429949 -0.58664 0.7725328
vn 0.2429949 -0.58664 0.7725328
vn 0.2429949 -0.58664 0.7725328
vn 0.5866402 -0.2429943 0.7725329
vn 0.5866402 -0.2429943 0.7725329
vn 0.5866402 -0.2429943 0.7725329
vn 0.5866402 0.2429954 0.7725325
vn 0.5866402 0.2429954 0.7725325
vn 0.5866402 0.2429954 0.7725325
vn 0.2429927 0.5866418 0.7725323
vn 0.2429927 0.5866418 0.7725323
vn 0.2429927 0.5866418 0.7725323
vn 0.3826826 0.9238799 0
vn 0.3826826 0.9238799 0
vn 0.3826826 0.9238799 0
vn 0.3826826 0.9238799 0
vn -0.9238794 0.3826836 0
vn -0.9238794 0.3826836 0
vn -0.9238794 0.3826836 0
vn -0.9238794 0.3826836 0
vn 0.923879 0.3826847 0
vn 0.923879 0.3826847 0
vn 0.923879 0.3826847 0
vn 0.923879 0.3826847 0
vn 0.3826841 -0.9238793 0
vn 0.3826841 -0.9238793 0
vn 0.3826841 -0.9238793 0
vn 0.3826841 -0.9238793 0
vn 0 0 1
vn 0 0 1
vn 0 0 1
vn 0 0 1
vn 0 0 1
vn 0 0 1
vn 0 0 1
vn 0 0 1
vn -1.518993E-07 0 1
vn 0 0 -1
vn 0 0 -1
vn 0 0 -1
vn 0 0 -1
vn 0 0 -1
vn 0 0 -1
vn 0 0 -1
vn 0 0 -1
vn 0 0 -1
vn -0.7763855 0 0.6302583
vn -0.5489864 -0.5489864 0.6302601
vn -0.5489864 -0.5489864 -0.6302601
vn -0.7763855 0 -0.6302583
vn -0.5489864 0.5489864 0.6302601
vn -0.5489864 0.5489864 -0.6302601
vn 0 0.7763855 0.6302583
vn 0 0.7763855 -0.6302583
vn 0 -0.7763855 -0.6302583
vn 0 -0.7763855 0.6302583
vn 0.5489864 -0.5489864 -0.6302601
vn 0.5489864 -0.5489864 0.6302601
vn 0.7763855 0 -0.6302583
vn 0.7763855 0 0.6302583
vn 0.5489864 0.5489864 -0.6302601
vn 0.5489864 0.5489864 0.6302601
vn 0 0.7763855 -0.6302583
vn 0 0.7763855 0.6302583
vn 0.7763855 0 -0.6302583
vn 0.7763855 0 0.6302583
vn 0.5489864 0.5489864 0.6302601
vn 0.5489864 0.5489864 -0.6302601
vn 0 0.7763855 0.6302583
vn 0 0.7763855 -0.6302583
vn 0.5489864 -0.5489864 -0.6302601
vn 0.5489864 -0.5489864 0.6302601
vn 0 -0.7763855 -0.6302583
vn 0 -0.7763855 0.6302583
vn -0.5489864 -0.5489864 -0.6302601
vn -0.5489864 -0.5489864 0.6302601
vn -0.7763855 0 -0.6302583
vn -0.7763855 0 0.6302583
vn -0.5489864 0.5489864 -0.6302601
vn -0.5489864 0.5489864 0.6302601
vn 0 0.7763855 -0.6302583
vn 0 0.7763855 0.6302583
vn 0 0 -1
vn 0 0 -1
vn 0 0 -1
vn 0 0 -1
vn 0 0 -1
vn 1.518994E-07 0 -1
vn -1.518993E-07 0 -1
vn 0 0 -1
vn 0 0 -1
vn 0 0 1
vn 0 0 1
vn 0 0 1
vn 0 0 1
vn 1.518993E-07 0 1
vn -1.518996E-07 0 1
vn 0 0 1
vn 0 0 1
vn -1.518994E-07 0 1
vn 0.4183059 0.6768402 -0.6057287
vn 0.7854449 0 -0.6189316
vn 0.7854449 0 0.6189316
vn 0.4183059 0.6768402 0.6057287
vn -0.4183059 0.6768402 -0.6057287
vn -0.4183059 0.6768402 0.6057287
vn -0.7854449 0 -0.6189316
vn -0.7854449 0 0.6189316
vn 0.4183059 -0.6768402 0.6057287
vn 0.7854449 0 0.6189316
vn 0.7854449 0 -0.6189316
vn 0.4183059 -0.6768402 -0.6057287
vn -0.4183059 -0.6768402 -0.6057287
vn -0.4183059 -0.6768402 0.6057287
vn -0.7854449 0 -0.6189316
vn -0.7854449 0 0.6189316
vn -0.4183059 0.6768402 -0.6057287
vn -0.7854449 0 -0.6189316
vn -0.4183059 -0.6768402 -0.6057287
vn 0.4183059 -0.6768402 -0.6057287
vn 0.4183059 0.6768402 -0.6057287
vn 0.7854449 0 -0.6189316
vn -0.7854449 0 0.6189316
vn -0.4183059 0.6768402 0.6057287
vn -0.4183059 -0.6768402 0.6057287
vn 0.4183059 -0.6768402 0.6057287
vn 0.4183059 0.6768402 0.6057287
vn 0.7854449 0 0.6189316
vn -0.5773503 -0.5773503 0.5773503
vn -0.5773503 -0.5773503 -0.5773503
vn -0.5773503 0.5773503 -0.5773503
vn -0.5773503 0.5773503 0.5773503
vn 0.5773503 -0.5773503 0.5773503
vn 0.5773503 0.5773503 0.5773503
vn 0.5773503 -0.5773503 -0.5773503
vn 0.5773503 0.5773503 -0.5773503
vn -0.5773503 0.5773503 -0.5773503
vn 0.5773503 0.5773503 -0.5773503
vn 0 1 -1.474594E-07
vn 0 1 -1.474594E-07
vn 0 1 -1.474594E-07
vn 0 1 -1.474594E-07
vn 0 -1 1.862645E-07
vn 0 -1 1.862645E-07
vn 0 -1 1.862645E-07
vn 0 -1 1.862645E-07
vn 0 1 -4.967053E-07
vn 0 1 -4.967053E-07
vn 0 1 -4.967053E-07
vn 0 1 -4.967053E-07
vn -0.5773503 -0.5773503 0.5773503
vn -0.5773503 0.5773503 0.5773503
vn 0.5773503 0.5773503 0.5773503
vn 0.5773503 -0.5773503 0.5773503
vn 0.5773503 0.5773503 -0.5773503
vn 0.5773503 -0.5773503 -0.5773503
vn -0.5773503 0.5773503 -0.5773503
vn -0.5773503 -0.5773503 -0.5773503
vn -0.5773503 0.5773503 0.5773503
vn -0.5773503 -0.5773503 0.5773503
g ropetie_0
f 3/3/3 2/2/2 1/1/1
f 6/6/6 5/5/5 4/4/4
f 9/9/9 8/8/8 7/7/7
f 12/12/12 11/11/11 10/10/10
f 15/15/15 14/14/14 13/13/13
f 18/18/18 17/17/17 16/16/16
f 21/21/21 20/20/20 19/19/19
f 24/24/24 23/23/23 22/22/22
f 27/27/27 26/26/26 25/25/25
f 28/28/28 27/27/27 25/25/25
f 31/31/31 30/30/30 29/29/29
f 32/32/32 31/31/31 29/29/29
f 35/35/35 34/34/34 33/33/33
f 36/36/36 35/35/35 33/33/33
f 39/39/39 38/38/38 37/37/37
f 40/40/40 39/39/39 37/37/37
f 43/43/43 42/42/42 41/41/41
f 46/46/46 45/45/45 44/44/44
f 49/49/49 48/48/48 47/47/47
f 52/52/52 51/51/51 50/50/50
f 55/55/55 54/54/54 53/53/53
f 58/58/58 57/57/57 56/56/56
f 61/61/61 60/60/60 59/59/59
f 64/64/64 63/63/63 62/62/62
f 67/67/67 66/66/66 65/65/65
f 68/68/68 67/67/67 65/65/65
f 71/71/71 70/70/70 69/69/69
f 72/72/72 71/71/71 69/69/69
f 75/75/75 74/74/74 73/73/73
f 76/76/76 75/75/75 73/73/73
f 79/79/79 78/78/78 77/77/77
f 80/80/80 79/79/79 77/77/77
f 83/83/83 82/82/82 81/81/81
f 83/83/83 84/84/84 82/82/82
f 85/85/85 82/82/82 84/84/84
f 86/86/86 82/82/82 85/85/85
f 87/87/87 82/82/82 86/86/86
f 82/82/82 87/87/87 88/88/88
f 89/89/89 82/82/82 88/88/88
f 81/81/81 82/82/82 89/89/89
f 92/92/92 91/91/91 90/90/90
f 92/92/92 90/90/90 93/93/93
f 93/93/93 94/94/94 92/92/92
f 92/92/92 94/94/94 95/95/95
f 92/92/92 95/95/95 96/96/96
f 92/92/92 96/96/96 97/97/97
f 98/98/98 92/92/92 97/97/97
f 92/92/92 98/98/98 91/91/91
f 101/101/101 100/100/100 99/99/99
f 102/102/102 101/101/101 99/99/99
f 102/102/102 99/99/99 103/103/103
f 104/104/104 102/102/102 103/103/103
f 104/104/104 103/103/103 105/105/105
f 106/106/106 104/104/104 105/105/105
f 101/101/101 107/107/107 100/100/100
f 107/107/107 108/108/108 100/100/100
f 107/107/107 109/109/109 108/108/108
f 109/109/109 110/110/110 108/108/108
f 109/109/109 111/111/111 110/110/110
f 111/111/111 112/112/112 110/110/110
f 111/111/111 113/113/113 112/112/112
f 113/113/113 114/114/114 112/112/112
f 113/113/113 115/115/115 114/114/114
f 115/115/115 116/116/116 114/114/114
f 119/119/119 118/118/118 117/117/117
f 120/120/120 119/119/119 117/117/117
f 121/121/121 119/119/119 120/120/120
f 122/122/122 121/121/121 120/120/120
f 117/117/117 118/118/118 123/123/123
f 118/118/118 124/124/124 123/123/123
f 123/123/123 124/124/124 125/125/125
f 124/124/124 126/126/126 125/125/125
f 125/125/125 126/126/126 127/127/127
f 126/126/126 128/128/128 127/127/127
f 127/127/127 128/128/128 129/129/129
f 128/128/128 130/130/130 129/129/129
f 129/129/129 130/130/130 131/131/131
f 130/130/130 132/132/132 131/131/131
f 131/131/131 132/132/132 133/133/133
f 132/132/132 134/134/134 133/133/133
f 137/137/137 136/136/136 135/135/135
f 137/137/137 138/138/138 136/136/136
f 139/139/139 138/138/138 137/137/137
f 137/137/137 135/135/135 140/140/140
f 141/141/141 137/137/137 140/140/140
f 137/137/137 141/141/141 142/142/142
f 137/137/137 142/142/142 143/143/143
f 137/137/137 143/143/143 139/139/139
f 146/146/146 145/145/145 144/144/144
f 144/144/144 145/145/145 147/147/147
f 147/147/147 145/145/145 148/148/148
f 149/149/149 148/148/148 145/145/145
f 149/149/149 145/145/145 150/150/150
f 150/150/150 145/145/145 151/151/151
f 151/151/151 145/145/145 152/152/152
f 145/145/145 146/146/146 152/152/152
f 155/155/155 154/154/154 153/153/153
f 156/156/156 155/155/155 153/153/153
f 153/153/153 157/157/157 156/156/156
f 157/157/157 158/158/158 156/156/156
f 158/158/158 157/157/157 159/159/159
f 160/160/160 158/158/158 159/159/159
f 163/163/163 162/162/162 161/161/161
f 164/164/164 163/163/163 161/161/161
f 165/165/165 164/164/164 161/161/161
f 166/166/166 165/165/165 161/161/161
f 167/167/167 165/165/165 166/166/166
f 168/168/168 167/167/167 166/166/166
f 171/171/171 170/170/170 169/169/169
f 172/172/172 171/171/171 169/169/169
f 173/173/173 172/172/172 169/169/169
f 172/172/172 173/173/173 174/174/174
f 177/177/177 176/176/176 175/175/175
f 177/177/177 178/178/178 176/176/176
f 178/178/178 179/179/179 176/176/176
f 179/179/179 178/178/178 180/180/180
f 183/183/183 182/182/182 181/181/181
f 184/184/184 183/183/183 181/181/181
f 184/184/184 181/181/181 185/185/185
f 185/185/185 181/181/181 182/182/182
f 186/186/186 184/184/184 185/185/185
f 186/186/186 185/185/185 187/187/187
f 187/187/187 185/185/185 182/182/182
f 188/188/188 187/187/187 182/182/182
f 189/189/189 188/188/188 182/182/182
f 190/190/190 186/186/186 187/187/187
f 193/193/193 192/192/192 191/191/191
f 194/194/194 193/193/193 191/191/191
f 197/197/197 196/196/196 195/195/195
f 198/198/198 197/197/197 195/195/195
f 201/201/201 200/200/200 199/199/199
f 202/202/202 201/201/201 199/199/199
f 205/205/205 204/204/204 203/203/203
f 206/206/206 205/205/205 203/203/203
f 207/207/207 205/205/205 206/206/206
f 208/208/208 207/207/207 206/206/206
f 209/209/209 207/207/207 208/208/208
f 210/210/210 209/209/209 208/208/208
f 211/211/211 209/209/209 210/210/210
f 212/212/212 211/211/211 210/210/210
