g SpinPizza2
v -0.8026792 -2.545772 3.875732E-07
v -0.7516432 -2.383907 0.1498029
v 0.5410116 -2.440346 0.1498029
v 0.5777459 -2.606043 3.875732E-07
v 0.4675432 -2.10895 0.1957442
v -0.6495711 -2.060175 0.1957442
v 1.688702 -1.842896 0.1498029
v 1.803364 -1.968027 7.751465E-07
v 1.459379 -1.592634 0.1957442
v 2.383907 -0.7516425 0.1498029
v 2.545773 -0.8026789 3.875732E-07
v 2.060177 -0.6495712 0.1957442
v 2.440346 0.5410112 0.1498029
v 2.606044 0.5777454 7.751465E-07
v 2.108951 0.4675428 0.195745
v 1.842897 1.688702 0.1498036
v 1.968028 1.803364 1.16272E-06
v 1.592635 1.459379 0.195745
v 0.7516448 2.383907 0.1498029
v 0.802681 2.545773 7.751465E-07
v 0.649573 2.060176 0.195745
v 0.9640647 -1.052092 0.1957442
v 0.3088588 -1.393169 0.1957442
v -0.4291056 -1.360949 0.1957442
v 1.360951 -0.4291064 0.1957442
v 1.393171 0.3088583 0.195745
v 1.052093 0.9640648 0.195745
v 0.4291073 1.36095 0.195745
v 8.720398E-07 7.751465E-07 0.1957442
v -0.6495717 -2.060177 -0.1957431
v -0.7516432 -2.383907 -0.1498021
v 0.5410116 -2.440346 -0.1498021
v 0.4675432 -2.108952 -0.1957431
v 0.5777459 -2.606043 3.875732E-07
v -0.8026792 -2.545772 3.875732E-07
v 1.688702 -1.842896 -0.1498021
v 1.459379 -1.592634 -0.1957435
v 1.803364 -1.968027 7.751465E-07
v 2.383907 -0.7516425 -0.1498021
v 2.060177 -0.649572 -0.1957439
v 2.545773 -0.8026789 3.875732E-07
v 2.440346 0.5410112 -0.1498017
v 2.108951 0.4675424 -0.1957431
v 2.606044 0.5777454 7.751465E-07
v 1.842897 1.688702 -0.1498009
v 1.592635 1.459379 -0.1957431
v 1.968028 1.803364 1.16272E-06
v 0.7516448 2.383907 -0.1498017
v 0.649573 2.060177 -0.1957427
v 0.802681 2.545773 7.751465E-07
v 1.360951 -0.4291064 -0.1957431
v 0.9640647 -1.052092 -0.1957439
v 0.3088586 -1.393169 -0.1957435
v -0.4291057 -1.36095 -0.1957435
v 1.052093 0.9640648 -0.1957431
v 1.393171 0.3088583 -0.1957431
v 0.4291074 1.36095 -0.1957431
v 8.720398E-07 7.751465E-07 -0.1957431
v 0.802681 2.545773 7.751465E-07
v 0.7516448 2.383907 0.1498029
v -0.5410096 2.440346 0.1498029
v -0.5777439 2.606043 7.751465E-07
v -0.4675415 2.108951 0.195745
v 0.649573 2.060176 0.195745
v -1.688701 1.842897 0.1498036
v -1.803363 1.968028 1.16272E-06
v -1.459378 1.592634 0.195745
v -2.383907 0.7516448 0.1498029
v -2.545772 0.8026809 7.751465E-07
v -2.060175 0.649572 0.195745
v -2.440346 -0.5410096 0.1498029
v -2.606044 -0.577743 3.875732E-07
v -2.108951 -0.4675412 0.1957442
v -1.842896 -1.688701 0.1498029
v -1.968027 -1.803362 7.751465E-07
v -1.592634 -1.459378 0.1957442
v -0.7516432 -2.383907 0.1498029
v -0.8026792 -2.545772 3.875732E-07
v -0.6495711 -2.060175 0.1957442
v -0.964063 1.052092 0.195745
v -0.3088569 1.393171 0.195745
v 0.4291073 1.36095 0.195745
v -1.360949 0.4291067 0.195745
v -1.39317 -0.3088571 0.1957442
v -1.052091 -0.9640629 0.1957442
v -0.4291056 -1.360949 0.1957442
v 8.720398E-07 7.751465E-07 0.1957442
v 0.649573 2.060177 -0.1957427
v 0.7516448 2.383907 -0.1498017
v -0.5410096 2.440346 -0.1498017
v -0.4675416 2.108952 -0.1957427
v -0.5777439 2.606043 7.751465E-07
v 0.802681 2.545773 7.751465E-07
v -1.688701 1.842897 -0.1498013
v -1.459378 1.592634 -0.1957431
v -1.803363 1.968028 1.16272E-06
v -2.383907 0.7516448 -0.1498017
v -2.060176 0.6495727 -0.1957431
v -2.545772 0.8026809 7.751465E-07
v -2.440346 -0.5410096 -0.1498021
v -2.108951 -0.467542 -0.1957439
v -2.606044 -0.577743 3.875732E-07
v -1.842896 -1.688702 -0.1498021
v -1.592634 -1.459378 -0.1957435
v -1.968027 -1.803362 7.751465E-07
v -0.7516432 -2.383907 -0.1498021
v -0.6495717 -2.060177 -0.1957431
v -0.8026792 -2.545772 3.875732E-07
v -1.360949 0.4291067 -0.1957431
v -0.964063 1.052092 -0.1957431
v -0.3088569 1.393171 -0.1957431
v 0.4291074 1.36095 -0.1957431
v -1.052091 -0.9640629 -0.1957439
v -1.39317 -0.3088571 -0.1957435
v -0.4291057 -1.36095 -0.1957435
v 8.720398E-07 7.751465E-07 -0.1957431
vt 0.4966804 0.02354526
vt 0.4966804 0.0633645
vt 0.2760069 0.1224937
vt 0.2560973 0.0880091
vt 0.3059479 0.174353
vt 0.4966803 0.1232463
vt 0.1144626 0.284038
vt 0.07997818 0.2641283
vt 0.1663218 0.313979
vt 0.05533311 0.5047114
vt 0.01551386 0.5047114
vt 0.1152151 0.5047114
vt 0.1144624 0.7253849
vt 0.079978 0.7452945
vt 0.1663216 0.6954439
vt 0.2760067 0.886929
vt 0.256097 0.9214135
vt 0.3059477 0.8350698
vt 0.4966801 0.9460584
vt 0.49668 0.9858777
vt 0.4966801 0.8861763
vt 0.2783068 0.3786332
vt 0.3706023 0.2863378
vt 0.4966803 0.2525554
vt 0.244524 0.5047114
vt 0.2783066 0.6307893
vt 0.3706021 0.723085
vt 0.4966801 0.7568674
vt 0.4966801 0.5047114
vt 0.5306795 0.1235861
vt 0.5306798 0.06386891
vt 0.7383471 0.1228355
vt 0.7101707 0.1745522
vt 0.7570833 0.088446
vt 0.5306798 0.02415928
vt 0.89037 0.2839352
vt 0.8415673 0.3137938
vt 0.9228221 0.2640805
vt 0.9460142 0.5040016
vt 0.8896618 0.5040016
vt 0.9834865 0.5040017
vt 0.89037 0.7240678
vt 0.841567 0.6942092
vt 0.9228215 0.7439226
vt 0.7383471 0.8851675
vt 0.7101707 0.8334509
vt 0.7570834 0.9195571
vt 0.5306798 0.9441339
vt 0.5306795 0.8844167
vt 0.5306798 0.9838434
vt 0.7679741 0.5040016
vt 0.7361824 0.3782705
vt 0.6493267 0.2862289
vt 0.5306795 0.2525392
vt 0.6493267 0.7217741
vt 0.7361824 0.6297327
vt 0.5306795 0.7554637
vt 0.5306795 0.5040016
vt 0.4954737 0.02354526
vt 0.4954736 0.06336445
vt 0.2748002 0.1224938
vt 0.2548906 0.08800928
vt 0.3047413 0.1743532
vt 0.4954736 0.1232465
vt 0.1132559 0.2840378
vt 0.07877147 0.2641282
vt 0.1651153 0.3139789
vt 0.05412638 0.5047113
vt 0.0143072 0.5047113
vt 0.1140086 0.5047113
vt 0.1132556 0.7253848
vt 0.07877114 0.7452943
vt 0.165115 0.6954437
vt 0.2747997 0.886929
vt 0.2548901 0.9214135
vt 0.3047408 0.8350698
vt 0.4954733 0.9460584
vt 0.4954733 0.9858777
vt 0.4954734 0.8861766
vt 0.2771002 0.3786334
vt 0.3693957 0.2863381
vt 0.4954736 0.2525555
vt 0.2433176 0.5047114
vt 0.2771 0.6307894
vt 0.3693954 0.723085
vt 0.4954734 0.7568675
vt 0.4954736 0.5047116
vt 0.5305597 0.1231943
vt 0.5305597 0.06347726
vt 0.7382267 0.1224437
vt 0.7100508 0.1741603
vt 0.7569631 0.08805406
vt 0.5305597 0.02376775
vt 0.8902502 0.2835431
vt 0.8414475 0.3134018
vt 0.9227022 0.2636883
vt 0.9458947 0.5036094
vt 0.8895418 0.5036094
vt 0.9833671 0.5036094
vt 0.8902502 0.7236756
vt 0.8414475 0.6938171
vt 0.9227022 0.7435305
vt 0.738227 0.8847753
vt 0.7100508 0.8330589
vt 0.7569633 0.9191648
vt 0.5305597 0.9437423
vt 0.5305598 0.8840249
vt 0.5305597 0.983452
vt 0.7678541 0.5036094
vt 0.736063 0.3778783
vt 0.6492069 0.285837
vt 0.5305597 0.2521473
vt 0.6492069 0.7213821
vt 0.736063 0.6293406
vt 0.5305598 0.7550718
vt 0.5305597 0.5036095
vn -0.3007066 -0.9537167 7.647937E-07
vn -0.1365579 -0.4331058 0.8909384
vn 0.09829009 -0.4433595 0.8909385
vn 0.2164394 -0.9762961 2.660155E-07
vn 0.01695705 -0.07648832 0.9969262
vn -0.02355899 -0.07471928 0.9969262
vn 0.306801 -0.3348146 0.8909391
vn 0.67559 -0.7372775 6.650402E-07
vn 0.05292957 -0.05776244 0.9969262
vn 0.433104 -0.1365573 0.8909394
vn 0.9537168 -0.3007062 3.325211E-07
vn 0.07472001 -0.02355932 0.9969262
vn 0.4433582 0.0982898 0.8909391
vn 0.9762962 0.2164392 -2.660169E-07
vn 0.07648929 0.01695683 0.9969262
vn 0.334815 0.3068008 0.8909389
vn 0.7372774 0.6755901 0
vn 0.05776293 0.05292992 0.9969262
vn 0.1365574 0.4331052 0.8909388
vn 0.3007061 0.9537168 0
vn 0.02355913 0.07472049 0.9969261
vn 0 0 1
vn 0 0 1
vn 0 0 1
vn 0 -4.591409E-07 1
vn 0 -5.132392E-07 1
vn 0 0 1
vn 0 0 1
vn 0 -3.494623E-07 1
vn -0.02355887 -0.0747193 -0.9969262
vn -0.1365582 -0.4331063 -0.8909382
vn 0.09829028 -0.4433596 -0.8909384
vn 0.01695697 -0.07648839 -0.9969262
vn 0.2164394 -0.9762961 2.660155E-07
vn -0.3007066 -0.9537167 7.647937E-07
vn 0.3068014 -0.3348151 -0.8909386
vn 0.05292958 -0.05776258 -0.9969262
vn 0.67559 -0.7372775 6.650402E-07
vn 0.4331044 -0.1365573 -0.8909391
vn 0.07471987 -0.02355894 -0.9969262
vn 0.9537168 -0.3007062 3.325211E-07
vn 0.4433579 0.09829032 -0.8909392
vn 0.07648899 0.01695752 -0.9969262
vn 0.9762962 0.2164392 -2.660169E-07
vn 0.3348147 0.3068007 -0.8909391
vn 0.05776297 0.05293 -0.9969261
vn 0.7372774 0.6755901 0
vn 0.1365576 0.4331046 -0.8909391
vn 0.02355917 0.07471956 -0.9969262
vn 0.3007061 0.9537168 0
vn 0 4.386903E-07 -1
vn 0 0 -1
vn 0 -2.7129E-07 -1
vn 0 -2.856187E-07 -1
vn 0 0 -1
vn 0 0 -1
vn 0 2.594951E-07 -1
vn 0 0 -1
vn 0.3007061 0.9537168 0
vn 0.1365574 0.4331052 0.8909388
vn -0.09828984 0.443359 0.8909388
vn -0.2164393 0.9762962 4.987802E-07
vn -0.01695711 0.07648947 0.9969261
vn 0.02355913 0.07472049 0.9969261
vn -0.3068006 0.3348148 0.8909391
vn -0.6755896 0.737278 5.652848E-07
vn -0.05292984 0.05776289 0.9969262
vn -0.4331048 0.1365576 0.8909389
vn -0.9537167 0.3007066 2.992684E-07
vn -0.07472002 0.02355884 0.9969262
vn -0.4433587 -0.09829038 0.8909389
vn -0.9762962 -0.2164387 6.317883E-07
vn -0.07648872 -0.0169573 0.9969262
vn -0.3348152 -0.3068013 0.8909388
vn -0.7372776 -0.6755897 1.197068E-06
vn -0.05776237 -0.05292941 0.9969262
vn -0.1365579 -0.4331058 0.8909384
vn -0.3007066 -0.9537167 7.647937E-07
vn -0.02355899 -0.07471928 0.9969262
vn 0 0 1
vn 0 0 1
vn 0 0 1
vn 0 -5.272016E-07 1
vn 0 -4.642519E-07 1
vn 0 0 1
vn 0 0 1
vn 0 -3.494623E-07 1
vn 0.02355917 0.07471956 -0.9969262
vn 0.1365576 0.4331046 -0.8909391
vn -0.09829009 0.4433587 -0.8909389
vn -0.01695709 0.07648842 -0.9969262
vn -0.2164393 0.9762962 4.987802E-07
vn 0.3007061 0.9537168 0
vn -0.3068008 0.3348152 -0.8909389
vn -0.05292958 0.05776267 -0.9969262
vn -0.6755896 0.737278 5.652848E-07
vn -0.4331048 0.1365581 -0.8909389
vn -0.07471965 0.02355945 -0.9969262
vn -0.9537167 0.3007066 2.992684E-07
vn -0.4433594 -0.09829047 -0.8909386
vn -0.07648865 -0.01695691 -0.9969262
vn -0.9762962 -0.2164387 6.317883E-07
vn -0.334816 -0.3068027 -0.890938
vn -0.05776236 -0.05292949 -0.9969262
vn -0.7372776 -0.6755897 1.197068E-06
vn -0.1365582 -0.4331063 -0.8909382
vn -0.02355887 -0.0747193 -0.9969262
vn -0.3007066 -0.9537167 7.647937E-07
vn 0 2.8691E-07 -1
vn 0 0 -1
vn 0 2.583769E-07 -1
vn 0 2.594951E-07 -1
vn 0 0 -1
vn 0 4.244434E-07 -1
vn 0 -2.856187E-07 -1
vn 0 0 -1
g SpinPizza2_0
f 3/3/3 2/2/2 1/1/1
f 4/4/4 3/3/3 1/1/1
f 3/3/3 5/5/5 2/2/2
f 5/5/5 6/6/6 2/2/2
f 7/7/7 3/3/3 4/4/4
f 8/8/8 7/7/7 4/4/4
f 9/9/9 5/5/5 3/3/3
f 7/7/7 9/9/9 3/3/3
f 10/10/10 7/7/7 8/8/8
f 11/11/11 10/10/10 8/8/8
f 12/12/12 9/9/9 7/7/7
f 10/10/10 12/12/12 7/7/7
f 13/13/13 10/10/10 11/11/11
f 14/14/14 13/13/13 11/11/11
f 15/15/15 12/12/12 10/10/10
f 13/13/13 15/15/15 10/10/10
f 16/16/16 13/13/13 14/14/14
f 17/17/17 16/16/16 14/14/14
f 18/18/18 15/15/15 13/13/13
f 16/16/16 18/18/18 13/13/13
f 19/19/19 16/16/16 17/17/17
f 20/20/20 19/19/19 17/17/17
f 21/21/21 18/18/18 16/16/16
f 19/19/19 21/21/21 16/16/16
f 22/22/22 9/9/9 12/12/12
f 22/22/22 23/23/23 9/9/9
f 23/23/23 5/5/5 9/9/9
f 23/23/23 24/24/24 5/5/5
f 24/24/24 6/6/6 5/5/5
f 25/25/25 22/22/22 12/12/12
f 25/25/25 12/12/12 15/15/15
f 26/26/26 25/25/25 15/15/15
f 26/26/26 15/15/15 18/18/18
f 27/27/27 26/26/26 18/18/18
f 27/27/27 18/18/18 21/21/21
f 28/28/28 27/27/27 21/21/21
f 29/29/29 24/24/24 23/23/23
f 29/29/29 23/23/23 22/22/22
f 29/29/29 22/22/22 25/25/25
f 29/29/29 25/25/25 26/26/26
f 29/29/29 26/26/26 27/27/27
f 29/29/29 27/27/27 28/28/28
f 32/32/32 31/31/31 30/30/30
f 33/33/33 32/32/32 30/30/30
f 32/32/32 34/34/34 31/31/31
f 34/34/34 35/35/35 31/31/31
f 36/36/36 32/32/32 33/33/33
f 37/37/37 36/36/36 33/33/33
f 38/38/38 34/34/34 32/32/32
f 36/36/36 38/38/38 32/32/32
f 39/39/39 36/36/36 37/37/37
f 40/40/40 39/39/39 37/37/37
f 41/41/41 38/38/38 36/36/36
f 39/39/39 41/41/41 36/36/36
f 42/42/42 39/39/39 40/40/40
f 43/43/43 42/42/42 40/40/40
f 44/44/44 41/41/41 39/39/39
f 42/42/42 44/44/44 39/39/39
f 45/45/45 42/42/42 43/43/43
f 46/46/46 45/45/45 43/43/43
f 47/47/47 44/44/44 42/42/42
f 45/45/45 47/47/47 42/42/42
f 48/48/48 45/45/45 46/46/46
f 49/49/49 48/48/48 46/46/46
f 50/50/50 47/47/47 45/45/45
f 48/48/48 50/50/50 45/45/45
f 51/51/51 40/40/40 37/37/37
f 52/52/52 51/51/51 37/37/37
f 52/52/52 37/37/37 33/33/33
f 53/53/53 52/52/52 33/33/33
f 53/53/53 33/33/33 30/30/30
f 54/54/54 53/53/53 30/30/30
f 55/55/55 46/46/46 43/43/43
f 56/56/56 55/55/55 43/43/43
f 51/51/51 56/56/56 40/40/40
f 56/56/56 43/43/43 40/40/40
f 57/57/57 49/49/49 46/46/46
f 55/55/55 57/57/57 46/46/46
f 58/58/58 53/53/53 54/54/54
f 58/58/58 52/52/52 53/53/53
f 58/58/58 51/51/51 52/52/52
f 58/58/58 56/56/56 51/51/51
f 58/58/58 55/55/55 56/56/56
f 58/58/58 57/57/57 55/55/55
f 61/61/61 60/60/60 59/59/59
f 62/62/62 61/61/61 59/59/59
f 61/61/61 63/63/63 60/60/60
f 63/63/63 64/64/64 60/60/60
f 65/65/65 61/61/61 62/62/62
f 66/66/66 65/65/65 62/62/62
f 67/67/67 63/63/63 61/61/61
f 65/65/65 67/67/67 61/61/61
f 68/68/68 65/65/65 66/66/66
f 69/69/69 68/68/68 66/66/66
f 70/70/70 67/67/67 65/65/65
f 68/68/68 70/70/70 65/65/65
f 71/71/71 68/68/68 69/69/69
f 72/72/72 71/71/71 69/69/69
f 73/73/73 70/70/70 68/68/68
f 71/71/71 73/73/73 68/68/68
f 74/74/74 71/71/71 72/72/72
f 75/75/75 74/74/74 72/72/72
f 76/76/76 73/73/73 71/71/71
f 74/74/74 76/76/76 71/71/71
f 77/77/77 74/74/74 75/75/75
f 78/78/78 77/77/77 75/75/75
f 79/79/79 76/76/76 74/74/74
f 77/77/77 79/79/79 74/74/74
f 80/80/80 67/67/67 70/70/70
f 80/80/80 81/81/81 67/67/67
f 81/81/81 63/63/63 67/67/67
f 81/81/81 82/82/82 63/63/63
f 82/82/82 64/64/64 63/63/63
f 83/83/83 80/80/80 70/70/70
f 83/83/83 70/70/70 73/73/73
f 84/84/84 83/83/83 73/73/73
f 84/84/84 73/73/73 76/76/76
f 85/85/85 84/84/84 76/76/76
f 85/85/85 76/76/76 79/79/79
f 86/86/86 85/85/85 79/79/79
f 87/87/87 82/82/82 81/81/81
f 87/87/87 81/81/81 80/80/80
f 87/87/87 80/80/80 83/83/83
f 87/87/87 83/83/83 84/84/84
f 87/87/87 84/84/84 85/85/85
f 87/87/87 85/85/85 86/86/86
f 90/90/90 89/89/89 88/88/88
f 91/91/91 90/90/90 88/88/88
f 90/90/90 92/92/92 89/89/89
f 92/92/92 93/93/93 89/89/89
f 94/94/94 90/90/90 91/91/91
f 95/95/95 94/94/94 91/91/91
f 96/96/96 92/92/92 90/90/90
f 94/94/94 96/96/96 90/90/90
f 97/97/97 94/94/94 95/95/95
f 98/98/98 97/97/97 95/95/95
f 99/99/99 96/96/96 94/94/94
f 97/97/97 99/99/99 94/94/94
f 100/100/100 97/97/97 98/98/98
f 101/101/101 100/100/100 98/98/98
f 102/102/102 99/99/99 97/97/97
f 100/100/100 102/102/102 97/97/97
f 103/103/103 100/100/100 101/101/101
f 104/104/104 103/103/103 101/101/101
f 105/105/105 102/102/102 100/100/100
f 103/103/103 105/105/105 100/100/100
f 106/106/106 103/103/103 104/104/104
f 107/107/107 106/106/106 104/104/104
f 108/108/108 105/105/105 103/103/103
f 106/106/106 108/108/108 103/103/103
f 109/109/109 98/98/98 95/95/95
f 110/110/110 109/109/109 95/95/95
f 110/110/110 95/95/95 91/91/91
f 111/111/111 110/110/110 91/91/91
f 111/111/111 91/91/91 88/88/88
f 112/112/112 111/111/111 88/88/88
f 113/113/113 104/104/104 101/101/101
f 114/114/114 113/113/113 101/101/101
f 109/109/109 114/114/114 98/98/98
f 114/114/114 101/101/101 98/98/98
f 115/115/115 107/107/107 104/104/104
f 113/113/113 115/115/115 104/104/104
f 116/116/116 111/111/111 112/112/112
f 116/116/116 110/110/110 111/111/111
f 116/116/116 109/109/109 110/110/110
f 116/116/116 114/114/114 109/109/109
f 116/116/116 113/113/113 114/114/114
f 116/116/116 115/115/115 113/113/113
