g Stop
v 0.4078048 -2.389215E-09 -0.0003326105
v 0.2883615 0.2883615 0.06626073
v 0.2883615 0.2883615 -0.0003326166
v 0.4078047 -3.041222E-09 0.06626073
v -1.731589E-08 0.4078047 0.06626073
v -1.731589E-08 0.4078048 -0.0003326166
v -0.2883615 0.2883615 0.06626073
v -0.2883615 0.2883615 -0.0003326166
v -0.4078047 -3.869464E-08 0.06626073
v -0.4078048 -3.804411E-08 -0.0003326105
v -0.2883614 -0.2883615 0.06626074
v -0.2883614 -0.2883615 -0.0003326045
v 5.346164E-09 -0.4078047 0.06626074
v 5.346164E-09 -0.4078048 -0.0003326045
v 0.2883614 -0.2883615 0.06626074
v 0.2883615 -0.2883615 -0.0003326045
v 0.4078047 -3.041222E-09 0.06626073
v 0.2649857 0.2649857 0.1008607
v 0.2883615 0.2883615 0.06626073
v 0.3747464 -2.786924E-09 0.1008607
v -1.570731E-08 0.3747464 0.1008607
v -1.731589E-08 0.4078047 0.06626073
v -0.2649857 0.2649857 0.1008607
v -0.2883615 0.2883615 0.06626073
v -0.3747464 -3.554696E-08 0.1008607
v -0.4078047 -3.869464E-08 0.06626073
v -0.2649857 -0.2649858 0.1008607
v -0.2883614 -0.2883615 0.06626074
v 5.156919E-09 -0.3747464 0.1008607
v 5.346164E-09 -0.4078047 0.06626074
v 0.2649857 -0.2649858 0.1008607
v 0.2883614 -0.2883615 0.06626074
v 0.3747464 -2.786924E-09 0.1008607
v -0.01174016 0.05501809 0.1522458
v 0.2649857 0.2649857 0.1008607
v 0.04163354 -0.019477 0.1522458
v -1.570731E-08 0.3747464 0.1008607
v -0.2649857 0.2649857 0.1008607
v -0.05054067 -0.03598289 0.1522458
v -0.3747464 -3.554696E-08 0.1008607
v -0.2649857 -0.2649858 0.1008607
v 5.156919E-09 -0.3747464 0.1008607
v 0.2649857 -0.2649858 0.1008607
v 5.346164E-09 -0.4078048 -0.0003326045
v -0.4078048 -3.804411E-08 -0.0003326105
v -0.2883614 -0.2883615 -0.0003326045
v 0.4078048 -2.389215E-09 -0.0003326105
v -1.731589E-08 0.4078048 -0.0003326166
v -0.2883615 0.2883615 -0.0003326166
v 0.2883615 0.2883615 -0.0003326166
v 0.2883615 -0.2883615 -0.0003326045
v 0.04163354 -0.019477 0.1522458
v -0.01174015 0.05501806 0.6198985
v -0.01174016 0.05501809 0.1522458
v 0.04163354 -0.01947702 0.6198985
v -0.01174015 0.05501804 1.237351
v 0.04163354 -0.01947705 1.237351
v -0.01174015 0.05501803 1.507276
v 0.04163354 -0.01947705 1.507276
v -0.01174016 0.05501809 0.1522458
v -0.05054067 -0.03598291 0.6198985
v -0.05054067 -0.03598289 0.1522458
v -0.01174015 0.05501806 0.6198985
v -0.05054067 -0.03598294 1.237351
v -0.01174015 0.05501804 1.237351
v -0.05054067 -0.03598294 1.507276
v -0.01174015 0.05501803 1.507276
v -0.05054067 -0.03598289 0.1522458
v 0.04163354 -0.01947702 0.6198985
v 0.04163354 -0.019477 0.1522458
v -0.05054067 -0.03598291 0.6198985
v 0.04163354 -0.01947705 1.237351
v -0.05054067 -0.03598294 1.237351
v 0.04163354 -0.01947705 1.507276
v -0.05054067 -0.03598294 1.507276
v -0.01286811 0.06782743 1.511901
v 0.04163354 -0.01947705 1.507276
v 0.05289895 -0.02396542 1.511901
v -0.01174015 0.05501803 1.507276
v -0.06067811 -0.04430398 1.511901
v -0.05054067 -0.03598294 1.507276
v 0.05982633 -0.4800893 2.05672
v -0.07179558 -0.4800893 2.452775
v 0.05982631 -0.4800893 2.452775
v -0.07179555 -0.4800893 2.05672
v -0.07179555 -0.2000366 2.732827
v 0.05982636 -0.2000366 2.732827
v 0.05982639 -0.2000366 1.776667
v -0.07179549 -0.2000366 1.776667
v 0.05982646 0.1960177 1.776667
v -0.07179543 0.1960177 1.776667
v 0.05982651 0.4760703 2.05672
v -0.07179539 0.4760703 2.05672
v 0.05982649 0.4760704 2.452775
v -0.07179541 0.4760704 2.452775
v 0.05982643 0.1960177 2.732827
v -0.07179547 0.1960177 2.732827
v 0.05982636 -0.2000366 2.732827
v -0.07179555 -0.2000366 2.732827
v 0.05982646 0.1960177 1.776667
v 0.05982649 0.4760704 2.452775
v 0.05982651 0.4760703 2.05672
v 0.05982633 -0.4800893 2.05672
v 0.05982636 -0.2000366 2.732827
v 0.05982643 0.1960177 2.732827
v 0.05982631 -0.4800893 2.452775
v 0.05982639 -0.2000366 1.776667
v -0.07179558 -0.4800893 2.452775
v -0.07179547 0.1960177 2.732827
v -0.07179555 -0.2000366 2.732827
v -0.07179549 -0.2000366 1.776667
v -0.07179539 0.4760703 2.05672
v -0.07179541 0.4760704 2.452775
v -0.07179543 0.1960177 1.776667
v -0.07179555 -0.4800893 2.05672
v -0.01174015 0.05501802 1.781826
v 0.05289895 -0.02396542 1.511901
v 0.04163354 -0.01947706 1.781826
v -0.01286811 0.06782743 1.511901
v -0.05054067 -0.03598296 1.781826
v -0.06067811 -0.04430398 1.511901
vt 0.9798597 0.05149003
vt 0.9700072 0.07225552
vt 0.9700072 0.07225552
vt 0.9798597 0.05149003
vt 0.9462213 0.08085689
vt 0.9462213 0.08085689
vt 0.9224353 0.07225552
vt 0.9224353 0.07225552
vt 0.9125829 0.05149003
vt 0.9125829 0.05149003
vt 0.9224353 0.03072455
vt 0.9224353 0.03072455
vt 0.9462213 0.02212318
vt 0.9462213 0.02212318
vt 0.9700072 0.03072455
vt 0.9700072 0.03072455
vt 0.9798597 0.05149003
vt 0.968079 0.07057217
vt 0.9700072 0.07225552
vt 0.9771329 0.05149003
vt 0.9462213 0.07847628
vt 0.9462213 0.08085689
vt 0.9243636 0.07057217
vt 0.9224353 0.07225552
vt 0.9153097 0.05149003
vt 0.9125829 0.05149003
vt 0.9243636 0.03240791
vt 0.9224353 0.03072455
vt 0.9462213 0.02450379
vt 0.9462213 0.02212318
vt 0.968079 0.03240791
vt 0.9700072 0.03072455
vt 0.9771329 0.05149003
vt 0.945253 0.05545202
vt 0.968079 0.07057217
vt 0.9496555 0.05008748
vt 0.9462213 0.07847628
vt 0.9243636 0.07057217
vt 0.9420524 0.04889884
vt 0.9153097 0.05149003
vt 0.9243636 0.03240791
vt 0.9462213 0.02450379
vt 0.968079 0.03240791
vt 0.9462213 0.02212318
vt 0.9125829 0.05149003
vt 0.9224353 0.03072455
vt 0.9798597 0.05149003
vt 0.9462213 0.08085689
vt 0.9224353 0.07225552
vt 0.9700072 0.07225552
vt 0.9700072 0.03072455
vt 0.9496555 0.05008748
vt 0.945253 0.05545202
vt 0.945253 0.05545202
vt 0.9496555 0.05008748
vt 0.945253 0.05545202
vt 0.9496555 0.05008748
vt 0.945253 0.05545202
vt 0.9496555 0.05008748
vt 0.945253 0.05545202
vt 0.9420524 0.04889884
vt 0.9420524 0.04889884
vt 0.945253 0.05545202
vt 0.9420524 0.04889884
vt 0.945253 0.05545202
vt 0.9420524 0.04889884
vt 0.945253 0.05545202
vt 0.9420524 0.04889884
vt 0.9496555 0.05008748
vt 0.9496555 0.05008748
vt 0.9420524 0.04889884
vt 0.9496555 0.05008748
vt 0.9420524 0.04889884
vt 0.9496555 0.05008748
vt 0.9420524 0.04889884
vt 0.9007676 0.9491536
vt 0.9409665 0.8942257
vt 0.9492756 0.8914019
vt 0.9015996 0.9410946
vt 0.8655043 0.8786058
vt 0.8729814 0.883841
vt 0.5455803 0.2432795
vt 0.5594551 0.2743407
vt 0.5594551 0.2432795
vt 0.5455803 0.2743407
vt 0.5733299 0.2743407
vt 0.5733299 0.2432795
vt 0.5317056 0.2432795
vt 0.5317056 0.2743407
vt 0.5178308 0.2432795
vt 0.5178308 0.2743407
vt 0.5039561 0.2432795
vt 0.5039561 0.2743407
vt 0.4900814 0.2432795
vt 0.4900814 0.2743407
vt 0.4762066 0.2432795
vt 0.4762066 0.2743407
vt 0.4623319 0.2432795
vt 0.4623319 0.2743407
vt 0.6782901 0.06956944
vt 0.9304306 0.6782902
vt 0.9304305 0.3217098
vt 0.06956929 0.3217099
vt 0.3217098 0.9304307
vt 0.6782902 0.9304307
vt 0.06956929 0.6782904
vt 0.3217098 0.06956944
vt 0.9304306 0.6782904
vt 0.3217097 0.9304307
vt 0.6782901 0.9304307
vt 0.6782901 0.06956944
vt 0.06956941 0.3217098
vt 0.0695693 0.6782902
vt 0.3217098 0.06956944
vt 0.9304306 0.3217099
vt 0.9015996 0.9410945
vt 0.9492756 0.8914019
vt 0.9409665 0.8942257
vt 0.9007676 0.9491536
vt 0.8729814 0.883841
vt 0.8655043 0.8786058
vn 1 0 7.129712E-07
vn 0.7071068 0.7071068 5.289489E-07
vn 0.7071066 0.7071069 5.286775E-07
vn 1 0 7.135141E-07
vn 0 1 7.132428E-07
vn 0 1 7.132426E-07
vn -0.7071069 0.7071066 5.286775E-07
vn -0.7071068 0.7071068 5.289482E-07
vn -1 0 7.129719E-07
vn -1 0 7.135134E-07
vn -0.7071066 -0.7071069 5.284068E-07
vn -0.7071066 -0.7071069 5.286775E-07
vn 0 -1 7.132426E-07
vn 0 -1 7.132427E-07
vn 0.7071068 -0.7071067 5.286773E-07
vn 0.7071066 -0.7071069 5.284061E-07
vn 0.7230313 0 0.6908153
vn 0.5112603 0.5112604 0.6908152
vn 0.5112604 0.5112604 0.6908152
vn 0.7230312 0 0.6908153
vn 0 0.7230313 0.6908153
vn 0 0.7230313 0.6908153
vn -0.5112604 0.5112603 0.6908152
vn -0.5112604 0.5112604 0.6908152
vn -0.7230313 0 0.6908153
vn -0.7230312 0 0.6908153
vn -0.51126 -0.5112603 0.6908155
vn -0.5112602 -0.5112601 0.6908156
vn 0 -0.7230312 0.6908154
vn 0 -0.7230312 0.6908154
vn 0.51126 -0.5112603 0.6908155
vn 0.5112602 -0.5112602 0.6908155
vn 0.1481797 0.003558037 0.9889541
vn -0.009673409 0.1020024 0.9947371
vn 0.1066168 0.1015464 0.9891012
vn 0.1047032 -0.02919681 0.9940749
vn 0.00103836 0.1586415 0.9873357
vn -0.1113282 0.1078362 0.9879158
vn -0.08482201 -0.0614511 0.9944993
vn -0.156207 0.003081339 0.9877195
vn -0.1136608 -0.1149985 0.9868418
vn 0.00202167 -0.153912 0.9880825
vn 0.107348 -0.1091727 0.9882094
vn 0 0 -1
vn 0 0 -1
vn 0 0 -1
vn 0 0 -1
vn 0 0 -1
vn 0 0 -1
vn 0 0 -1
vn 0 0 -1
vn 0.8128918 0.5824147 0
vn 0.8128918 0.5824147 0
vn 0.8128918 0.5824147 0
vn 0.8128918 0.5824148 0
vn 0.8128918 0.5824149 0
vn 0.8128918 0.5824147 0
vn 0.8128918 0.5824147 0
vn 0.8128918 0.5824147 0
vn -0.9198751 0.3922114 0
vn -0.9198751 0.3922115 0
vn -0.9198751 0.3922115 0
vn -0.919875 0.3922116 0
vn -0.919875 0.3922116 0
vn -0.919875 0.3922115 0
vn -0.919875 0.3922115 0
vn -0.919875 0.3922115 0
vn 0.1762688 -0.984342 0
vn 0.1762688 -0.984342 0
vn 0.1762688 -0.984342 0
vn 0.1762689 -0.984342 0
vn 0.1762689 -0.984342 0
vn 0.1762689 -0.984342 0
vn 0.1762688 -0.984342 0
vn 0.1762688 -0.984342 0
vn -0.09642934 0.8921837 -0.4412592
vn 0.3281629 -0.1390539 -0.9343303
vn 0.8324368 -0.3377361 -0.4392985
vn -0.0559358 0.3346934 -0.9406654
vn -0.7011181 -0.5596173 -0.4418845
vn -0.2688781 -0.1964896 -0.9429191
vn 0 -0.9238796 -0.3826833
vn 0 -0.9238795 0.3826835
vn 0 -0.9238795 0.3826835
vn 0 -0.9238795 -0.3826833
vn 0 -0.3826834 0.9238795
vn 0 -0.3826833 0.9238795
vn 0 -0.3826835 -0.9238795
vn 0 -0.3826835 -0.9238794
vn 0 0.3826834 -0.9238795
vn 0 0.3826835 -0.9238795
vn 0 0.9238795 -0.3826835
vn 0 0.9238795 -0.3826834
vn 0 0.9238796 0.3826832
vn 0 0.9238796 0.3826832
vn 0 0.3826836 0.9238794
vn 0 0.3826835 0.9238795
vn 0 -0.3826833 0.9238795
vn 0 -0.3826834 0.9238795
vn 1 0 0
vn 1 0 0
vn 1 0 0
vn 1 0 0
vn 1 0 0
vn 1 0 0
vn 1 0 0
vn 1 0 0
vn -1 0 0
vn -1 0 0
vn -1 0 0
vn -1 0 0
vn -1 0 0
vn -1 0 0
vn -1 0 0
vn -1 0 0
vn -0.109576 0.9928392 0.04757354
vn 0.8324368 -0.3377361 -0.4392985
vn 0.9254425 -0.3762206 0.04487955
vn -0.09642934 0.8921837 -0.4412592
vn -0.78162 -0.6218646 0.0485253
vn -0.7011181 -0.5596173 -0.4418845
g Stop_0
f 3/3/3 2/2/2 1/1/1
f 4/4/4 1/1/1 2/2/2
f 2/2/2 3/3/3 5/5/5
f 6/6/6 5/5/5 3/3/3
f 5/5/5 6/6/6 7/7/7
f 8/8/8 7/7/7 6/6/6
f 7/7/7 8/8/8 9/9/9
f 10/10/10 9/9/9 8/8/8
f 9/9/9 10/10/10 11/11/11
f 12/12/12 11/11/11 10/10/10
f 11/11/11 12/12/12 13/13/13
f 14/14/14 13/13/13 12/12/12
f 13/13/13 14/14/14 15/15/15
f 16/16/16 15/15/15 14/14/14
f 1/1/1 4/4/4 16/16/16
f 15/15/15 16/16/16 4/4/4
f 19/19/19 18/18/18 17/17/17
f 20/20/20 17/17/17 18/18/18
f 18/18/18 19/19/19 21/21/21
f 22/22/22 21/21/21 19/19/19
f 21/21/21 22/22/22 23/23/23
f 24/24/24 23/23/23 22/22/22
f 23/23/23 24/24/24 25/25/25
f 26/26/26 25/25/25 24/24/24
f 25/25/25 26/26/26 27/27/27
f 28/28/28 27/27/27 26/26/26
f 27/27/27 28/28/28 29/29/29
f 30/30/30 29/29/29 28/28/28
f 29/29/29 30/30/30 31/31/31
f 32/32/32 31/31/31 30/30/30
f 17/17/17 20/20/20 32/32/32
f 31/31/31 32/32/32 20/20/20
f 35/35/35 34/34/34 33/33/33
f 36/36/36 33/33/33 34/34/34
f 37/37/37 34/34/34 35/35/35
f 38/38/38 34/34/34 37/37/37
f 34/34/34 38/38/38 39/39/39
f 40/40/40 39/39/39 38/38/38
f 41/41/41 39/39/39 40/40/40
f 42/42/42 39/39/39 41/41/41
f 36/36/36 39/39/39 42/42/42
f 33/33/33 36/36/36 43/43/43
f 43/43/43 36/36/36 42/42/42
f 46/46/46 45/45/45 44/44/44
f 45/45/45 47/47/47 44/44/44
f 48/48/48 47/47/47 45/45/45
f 49/49/49 48/48/48 45/45/45
f 50/50/50 47/47/47 48/48/48
f 44/44/44 47/47/47 51/51/51
f 54/54/54 53/53/53 52/52/52
f 55/55/55 52/52/52 53/53/53
f 53/53/53 56/56/56 55/55/55
f 57/57/57 55/55/55 56/56/56
f 56/56/56 58/58/58 57/57/57
f 59/59/59 57/57/57 58/58/58
f 62/62/62 61/61/61 60/60/60
f 63/63/63 60/60/60 61/61/61
f 61/61/61 64/64/64 63/63/63
f 65/65/65 63/63/63 64/64/64
f 64/64/64 66/66/66 65/65/65
f 67/67/67 65/65/65 66/66/66
f 70/70/70 69/69/69 68/68/68
f 71/71/71 68/68/68 69/69/69
f 69/69/69 72/72/72 71/71/71
f 73/73/73 71/71/71 72/72/72
f 72/72/72 74/74/74 73/73/73
f 75/75/75 73/73/73 74/74/74
f 78/78/78 77/77/77 76/76/76
f 79/79/79 76/76/76 77/77/77
f 76/76/76 79/79/79 80/80/80
f 81/81/81 80/80/80 79/79/79
f 80/80/80 81/81/81 78/78/78
f 77/77/77 78/78/78 81/81/81
f 84/84/84 83/83/83 82/82/82
f 85/85/85 82/82/82 83/83/83
f 83/83/83 84/84/84 86/86/86
f 87/87/87 86/86/86 84/84/84
f 82/82/82 85/85/85 88/88/88
f 89/89/89 88/88/88 85/85/85
f 88/88/88 89/89/89 90/90/90
f 91/91/91 90/90/90 89/89/89
f 90/90/90 91/91/91 92/92/92
f 93/93/93 92/92/92 91/91/91
f 92/92/92 93/93/93 94/94/94
f 95/95/95 94/94/94 93/93/93
f 94/94/94 95/95/95 96/96/96
f 97/97/97 96/96/96 95/95/95
f 96/96/96 97/97/97 98/98/98
f 99/99/99 98/98/98 97/97/97
f 102/102/102 101/101/101 100/100/100
f 101/101/101 103/103/103 100/100/100
f 104/104/104 103/103/103 101/101/101
f 105/105/105 104/104/104 101/101/101
f 106/106/106 103/103/103 104/104/104
f 100/100/100 103/103/103 107/107/107
f 110/110/110 109/109/109 108/108/108
f 109/109/109 111/111/111 108/108/108
f 112/112/112 111/111/111 109/109/109
f 113/113/113 112/112/112 109/109/109
f 114/114/114 111/111/111 112/112/112
f 108/108/108 111/111/111 115/115/115
f 118/118/118 117/117/117 116/116/116
f 119/119/119 116/116/116 117/117/117
f 116/116/116 119/119/119 120/120/120
f 121/121/121 120/120/120 119/119/119
f 120/120/120 121/121/121 118/118/118
f 117/117/117 118/118/118 121/121/121
