g TV007
v 63.13693 -43.51974 -58.32798
v -63.13695 12.77785 -58.32798
v -63.13695 -43.51972 -58.32798
v 63.13693 12.77782 -58.32798
v 63.13693 12.77785 58.32798
v -63.13695 -43.51974 58.32797
v -63.13695 12.77785 58.32798
v 63.13693 -43.51972 58.32797
v 63.13693 -43.51974 -58.32798
v 63.13693 12.77785 58.32798
v 63.13693 12.77782 -58.32798
v 63.13693 -43.51972 58.32797
v -63.13695 12.77785 -58.32798
v -63.13695 -43.51974 58.32797
v -63.13695 -43.51972 -58.32798
v -63.13695 12.77785 58.32798
v 63.13693 -43.51974 -58.32798
v 56.9722 -43.51975 -45.37865
v 58.03738 -43.51975 -43.0918
v 58.03738 -43.51974 50.3325
v 63.13693 -43.51972 58.32797
v 56.9722 -43.51973 51.92838
v 55.26147 -43.51973 52.84729
v -53.33568 -43.51973 52.84729
v -63.13695 -43.51974 58.32797
v -55.82562 -43.51973 51.92838
v -56.89085 -43.51975 49.53679
v -56.89085 -43.51975 -42.44311
v -63.13695 -43.51972 -58.32798
v 54.71365 -43.51975 -46.29756
v -55.82562 -43.51975 -45.37865
v -53.2148 -43.51975 -46.29756
v 56.9722 -43.51975 -45.37865
v 53.64783 -38.84192 -42.51081
v 54.93457 -38.84192 -39.83554
v 58.03738 -43.51975 -43.0918
v 51.26541 -38.84192 -43.62083
v 54.93457 -38.84192 46.79506
v 58.03738 -43.51974 50.3325
v 54.71365 -43.51975 -46.29756
v -53.2148 -43.51975 -46.29756
v -49.89041 -38.84192 -43.62083
v -55.82562 -43.51975 -45.37865
v -52.50124 -38.84192 -42.51081
v -53.78801 -38.84192 -39.83554
v -56.89085 -43.51975 -42.44311
v 56.9722 -43.51973 51.92838
v 53.64783 -38.84192 49.06054
v 51.50064 -38.84192 50.17058
v 55.26147 -43.51973 52.84729
v -49.89041 -38.84192 50.17058
v -53.33568 -43.51973 52.84729
v -53.78801 -38.84192 47.01913
v -56.89085 -43.51975 49.53679
v -55.82562 -43.51973 51.92838
v -52.50124 -38.84192 49.27633
v 63.13693 12.77785 58.32798
v 53.6377 12.77782 -48.69372
v 63.13693 12.77782 -58.32798
v 52.33844 12.77784 44.2664
v -63.13695 12.77785 58.32798
v -52.33838 12.77784 44.2664
v -63.13695 12.77785 -58.32798
v -52.33838 12.77784 -48.69372
v 63.13693 12.77782 -58.32798
v 52.33844 12.77784 44.2664
v 35.94556 47.32072 -39.77925
v 53.6377 12.77782 -48.69372
v 35.94556 47.32072 -39.77925
v 52.33844 12.77784 44.2664
v 35.94556 47.32073 23.28412
v -52.33838 12.77784 -48.69372
v -35.94553 47.32073 23.28412
v -52.33838 12.77784 44.2664
v -35.94553 47.32073 23.28412
v -52.33838 12.77784 -48.69372
v -35.94553 47.3207 -39.77925
v 53.6377 12.77782 -48.69372
v -35.94553 47.3207 -39.77925
v -52.33838 12.77784 -48.69372
v 35.94556 47.32072 -39.77925
v -52.33838 12.77784 44.2664
v 35.94556 47.32073 23.28412
v 52.33844 12.77784 44.2664
v -35.94553 47.32073 23.28412
v -35.94553 47.3207 -39.77925
v 35.94556 47.32073 23.28412
v -35.94553 47.32073 23.28412
v 35.94556 47.32073 23.28412
v -35.94553 47.3207 -39.77925
v 35.94556 47.32072 -39.77925
v -63.13695 -43.51972 -58.32798
v 54.71365 -43.51975 -46.29756
v 63.13693 -43.51974 -58.32798
v -53.2148 -43.51975 -46.29756
v 54.93457 -38.84192 46.79506
v 36.72515 -44.26408 -25.92831
v 36.72515 -44.2641 32.47805
v 54.93457 -38.84192 -39.83554
v 53.64783 -38.84192 49.06054
v 53.64783 -38.84192 -42.51081
v 51.50064 -38.84192 50.17058
v -49.89041 -38.84192 50.17058
v -35.57859 -44.26408 32.47805
v -52.50124 -38.84192 49.27633
v -53.78801 -38.84192 47.01913
v -53.78801 -38.84192 -39.83554
v -35.57859 -44.26408 -25.92831
v 51.26541 -38.84192 -43.62083
v -49.89041 -38.84192 -43.62083
v -52.50124 -38.84192 -42.51081
v 0.5733056 -47.32073 3.274869
vt 0.9903885 0.8896859
vt 0.78593 0.9732116
vt 0.78593 0.8896859
vt 0.9903884 0.9732116
vt 0.7859265 0.9732085
vt 0.9903849 0.8896828
vt 0.9903849 0.9732085
vt 0.7859265 0.8896828
vt 0.7859293 0.8896831
vt 0.9903875 0.9732089
vt 0.7859292 0.9732087
vt 0.9903876 0.8896832
vt 0.9903935 0.9732118
vt 0.7859351 0.8896861
vt 0.9903935 0.8896861
vt 0.785935 0.9732118
vt 0.4811841 0.3127363
vt 0.4728136 0.3358634
vt 0.4742599 0.339094
vt 0.4742599 0.4710685
vt 0.4811841 0.4841914
vt 0.4728136 0.473323
vt 0.4704908 0.474621
vt 0.3230371 0.474621
vt 0.3097289 0.4841914
vt 0.3196563 0.473323
vt 0.3182099 0.4699445
vt 0.3182099 0.3400103
vt 0.3097289 0.3127363
vt 0.4697469 0.3345654
vt 0.3196563 0.3358634
vt 0.3232012 0.3345654
vt 0.7240224 0.7334097
vt 0.7092862 0.7453654
vt 0.7108359 0.7484149
vt 0.7264668 0.7376991
vt 0.7063811 0.7442647
vt 0.7108362 0.8710945
vt 0.7264408 0.8823026
vt 0.7194215 0.7312708
vt 0.5366182 0.7312497
vt 0.5494115 0.7442525
vt 0.5314516 0.7334036
vt 0.5461687 0.7453789
vt 0.5446088 0.7483888
vt 0.5289208 0.7386354
vt 0.7240533 0.8855928
vt 0.7093562 0.8736052
vt 0.7067506 0.8746432
vt 0.7203177 0.8876301
vt 0.5493744 0.8746612
vt 0.5363799 0.8876442
vt 0.5446226 0.8713077
vt 0.5289302 0.8810328
vt 0.5313859 0.8854821
vt 0.5461326 0.8737488
vt 0.480664 0.4842876
vt 0.4677202 0.3264337
vt 0.480664 0.3122235
vt 0.4659497 0.4635471
vt 0.3086 0.4842876
vt 0.3233144 0.4635471
vt 0.3086 0.3122235
vt 0.3233144 0.3264337
vt 0.480664 0.3122235
vt 0.2357163 0.5880477
vt 0.2684011 0.5063038
vt 0.2331258 0.5880478
vt 0.2684011 0.5063038
vt 0.2357163 0.5880477
vt 0.2684011 0.5063038
vt 0.4444253 0.5880478
vt 0.4117406 0.5063038
vt 0.4444253 0.5880478
vt 0.4117406 0.5063038
vt 0.4444253 0.5880478
vt 0.4117406 0.5063038
vt 0.2331258 0.5880478
vt 0.4117406 0.5063038
vt 0.4444253 0.5880478
vt 0.2684011 0.5063038
vt 0.4444253 0.5880478
vt 0.2684011 0.5063038
vt 0.2357163 0.5880477
vt 0.4117406 0.5063038
vt 0.4117406 0.5063038
vt 0.2684011 0.5063038
vt 0.4117406 0.5063038
vt 0.2684011 0.5063038
vt 0.4117406 0.5063038
vt 0.2684011 0.5063038
vt 0.01849383 0.3374345
vt 0.4496614 0.3813552
vt 0.4804687 0.3373351
vt 0.05480362 0.3814402
vt 0.973906 0.9045569
vt 0.8117025 0.2759138
vt 0.8114887 0.7794771
vt 0.9742537 0.1545171
vt 0.9610255 0.9262726
vt 0.961367 0.1292616
vt 0.9403845 0.9376746
vt 0.06301789 0.9373518
vt 0.1880062 0.7791964
vt 0.03841007 0.9277427
vt 0.02551028 0.9060808
vt 0.02580196 0.154099
vt 0.1882399 0.2756437
vt 0.938706 0.1178135
vt 0.06335485 0.1174124
vt 0.03871915 0.1288504
vt 0.4998604 0.5275601
vn 0 0 -1
vn 0 0 -1
vn 0 0 -1
vn 0 0 -1
vn 0 0 1
vn 0 0 1
vn 0 0 1
vn 0 0 1
vn 1 0 0
vn 1 0 0
vn 0.8928167 0.45042 0
vn 1 0 0
vn -1 0 0
vn -1 0 0
vn -1 0 0
vn -1 0 0
vn 0 -1 0
vn 0 -1 0
vn 0 -1 0
vn 0 -1 0
vn 0 -1 0
vn 0 -1 0
vn 0 -1 0
vn 0 -1 0
vn 0 -1 0
vn 0 -1 0
vn 0 -1 0
vn 0 -1 0
vn 0 -1 0
vn 0 -1 0
vn 0 -1 0
vn 0 -1 0
vn -0.5155097 -0.6777229 0.5243485
vn -0.5056728 -0.6827198 0.527436
vn -0.7833923 -0.6086627 0.1258023
vn -0.7447843 -0.6355677 0.2033473
vn -0.118137 -0.5613618 0.8190949
vn -0.7735724 -0.616657 -0.1460133
vn -0.7023771 -0.6625811 -0.2601011
vn -0.1954028 -0.5916165 0.7821814
vn 0.1737665 -0.5792221 0.796434
vn 0.1086798 -0.5564544 0.8237398
vn 0.5278043 -0.6673738 0.5253902
vn 0.494847 -0.6819 0.5386453
vn 0.7848505 -0.6063921 0.1276647
vn 0.777559 -0.6070903 0.1638394
vn -0.4960553 -0.689768 -0.5273988
vn -0.49919 -0.6822485 -0.5341783
vn -0.1292236 -0.5676684 -0.8130522
vn -0.2401492 -0.62033 -0.746672
vn 0.09423121 -0.5437969 -0.8339097
vn 0.181154 -0.5855494 -0.7901361
vn 0.7765812 -0.6110296 -0.1535069
vn 0.7671439 -0.6121122 -0.1918567
vn 0.5163838 -0.6616147 -0.543704
vn 0.4548041 -0.6613666 -0.5964457
vn 0 1 0
vn 0 1 0
vn 0 1 0
vn 0 1 0
vn 0 1 0
vn 0 1 0
vn 0 1 0
vn 0 1 0
vn 0.8928167 0.45042 0
vn 0.8912809 0.4532804 0.01245686
vn 0.8912809 0.4532804 0.01245686
vn 0.8912809 0.4532804 0.01245686
vn 0.9034293 0.428737 0
vn 0.9034293 0.4287369 0
vn 0.9034293 0.4287369 0
vn -0.9034296 0.4287363 0
vn -0.9034296 0.4287363 0
vn -0.9034296 0.4287363 0
vn -0.9034296 0.4287367 0
vn -0.9034296 0.4287367 0
vn -0.9034296 0.4287367 0
vn 0 0.2498829 -0.968276
vn 0 0.2498828 -0.968276
vn 0 0.2498829 -0.968276
vn 0 0.2498825 -0.9682761
vn 0 0.5191554 0.8546798
vn 0 0.5191554 0.8546798
vn 0 0.5191554 0.8546798
vn 0 0.5191555 0.8546798
vn 0 1 0
vn 0 1 0
vn 0 1 0
vn 0 1 0
vn 0 1 0
vn 0 1 0
vn 0 -1 0
vn 0 -1 0
vn 0 -1 0
vn 0 -1 0
vn 0.2306357 -0.9702144 0.07410289
vn 0.1206963 -0.9848893 -0.1242001
vn 0.1206596 -0.984898 0.1241658
vn 0.2376633 -0.9690593 -0.06663347
vn 0.1553279 -0.9747831 0.1602222
vn 0.1571993 -0.9747946 -0.1583152
vn 0.07173286 -0.968854 0.2370158
vn -0.05398456 -0.9661129 0.2524119
vn -0.1206309 -0.9849046 0.1241415
vn -0.1445881 -0.9749468 0.1690356
vn -0.2296689 -0.9704323 0.07425199
vn -0.2376626 -0.9690596 -0.06663451
vn -0.1207072 -0.9848863 -0.1242124
vn 0.06706364 -0.9680647 -0.2415642
vn -0.06302223 -0.9673508 -0.2454805
vn -0.1549962 -0.9747805 -0.1605592
vn 0 -1 0
g TV007_0
f 3/3/3 2/2/2 1/1/1
f 4/4/4 1/1/1 2/2/2
f 7/7/7 6/6/6 5/5/5
f 8/8/8 5/5/5 6/6/6
f 11/11/11 10/10/10 9/9/9
f 12/12/12 9/9/9 10/10/10
f 15/15/15 14/14/14 13/13/13
f 16/16/16 13/13/13 14/14/14
f 19/19/19 18/18/18 17/17/17
f 19/19/19 17/17/17 20/20/20
f 21/21/21 20/20/20 17/17/17
f 22/22/22 20/20/20 21/21/21
f 21/21/21 23/23/23 22/22/22
f 23/23/23 21/21/21 24/24/24
f 25/25/25 24/24/24 21/21/21
f 26/26/26 24/24/24 25/25/25
f 27/27/27 26/26/26 25/25/25
f 27/27/27 25/25/25 28/28/28
f 29/29/29 28/28/28 25/25/25
f 18/18/18 30/30/30 17/17/17
f 31/31/31 28/28/28 29/29/29
f 29/29/29 32/32/32 31/31/31
f 35/35/35 34/34/34 33/33/33
f 36/36/36 35/35/35 33/33/33
f 34/34/34 37/37/37 33/33/33
f 35/35/35 36/36/36 38/38/38
f 39/39/39 38/38/38 36/36/36
f 33/33/33 37/37/37 40/40/40
f 40/40/40 37/37/37 41/41/41
f 42/42/42 41/41/41 37/37/37
f 41/41/41 42/42/42 43/43/43
f 42/42/42 44/44/44 43/43/43
f 44/44/44 45/45/45 43/43/43
f 43/43/43 45/45/45 46/46/46
f 47/47/47 38/38/38 39/39/39
f 48/48/48 38/38/38 47/47/47
f 49/49/49 48/48/48 47/47/47
f 50/50/50 49/49/49 47/47/47
f 49/49/49 50/50/50 51/51/51
f 52/52/52 51/51/51 50/50/50
f 45/45/45 53/53/53 46/46/46
f 54/54/54 46/46/46 53/53/53
f 54/54/54 53/53/53 55/55/55
f 55/55/55 51/51/51 52/52/52
f 53/53/53 56/56/56 55/55/55
f 56/56/56 51/51/51 55/55/55
f 59/59/59 58/58/58 57/57/57
f 60/60/60 57/57/57 58/58/58
f 57/57/57 60/60/60 61/61/61
f 62/62/62 61/61/61 60/60/60
f 61/61/61 62/62/62 63/63/63
f 64/64/64 63/63/63 62/62/62
f 63/63/63 64/64/64 65/65/65
f 58/58/58 65/65/65 64/64/64
f 68/68/68 67/67/67 66/66/66
f 71/71/71 70/70/70 69/69/69
f 74/74/74 73/73/73 72/72/72
f 77/77/77 76/76/76 75/75/75
f 80/80/80 79/79/79 78/78/78
f 81/81/81 78/78/78 79/79/79
f 84/84/84 83/83/83 82/82/82
f 85/85/85 82/82/82 83/83/83
f 88/88/88 87/87/87 86/86/86
f 91/91/91 90/90/90 89/89/89
f 94/94/94 93/93/93 92/92/92
f 95/95/95 92/92/92 93/93/93
g TV007_1
f 98/98/98 97/97/97 96/96/96
f 99/99/99 96/96/96 97/97/97
f 100/100/100 98/98/98 96/96/96
f 101/101/101 99/99/99 97/97/97
f 100/100/100 102/102/102 98/98/98
f 102/102/102 103/103/103 98/98/98
f 104/104/104 98/98/98 103/103/103
f 105/105/105 104/104/104 103/103/103
f 105/105/105 106/106/106 104/104/104
f 106/106/106 107/107/107 104/104/104
f 108/108/108 104/104/104 107/107/107
f 97/97/97 108/108/108 109/109/109
f 101/101/101 97/97/97 109/109/109
f 110/110/110 109/109/109 108/108/108
f 111/111/111 108/108/108 107/107/107
f 111/111/111 110/110/110 108/108/108
f 98/98/98 112/112/112 97/97/97
f 108/108/108 112/112/112 104/104/104
f 104/104/104 112/112/112 98/98/98
f 97/97/97 112/112/112 108/108/108
