g TV028
v 41.1612 -34.3316 -44.32927
v -41.1612 24.06834 -44.32927
v -41.1612 -34.3316 -44.32927
v 41.1612 24.06833 -44.32927
v 41.1612 -34.3316 -44.32927
v 41.1612 24.06833 11.35562
v 41.1612 24.06833 -44.32927
v 41.1612 -34.3316 11.35562
v -41.1612 24.06834 -44.32927
v 41.1612 24.06833 11.35562
v -41.1612 24.06833 11.35562
v 41.1612 24.06833 -44.32927
v -41.1612 24.06834 -44.32927
v -41.1612 -34.3316 11.35562
v -41.1612 -34.3316 -44.32927
v -41.1612 24.06833 11.35562
v 41.1612 -34.3316 -44.32927
v 16.60282 -34.33161 -37.95251
v 17.60422 -34.3316 -34.72523
v 41.1612 -34.3316 11.35562
v 17.60422 -34.3316 1.896507
v 12.81714 -34.3316 -39.31651
v -41.1612 -34.3316 -44.32927
v -31.58913 -34.3316 -39.31651
v -35.1492 -34.33161 -37.95251
v -36.1506 -34.3316 -34.71494
v -41.1612 -34.3316 11.35562
v -36.1506 -34.3316 1.80085
v -35.1492 -34.33161 4.812248
v -31.8722 -34.3316 5.884434
v 13.30187 -34.3316 5.884434
v 16.60282 -34.33161 4.812248
v 16.60282 -34.33161 -37.95251
v 11.66224 -26.70711 -33.62845
v 12.88734 -26.70711 -30.13663
v 17.60422 -34.3316 -34.72523
v 7.842499 -26.70711 -34.63154
v 17.60422 -34.3316 1.896507
v 12.88734 -26.7071 -2.837013
v 12.81714 -34.3316 -39.31651
v -26.38889 -26.70711 -34.63154
v -31.58913 -34.3316 -39.31651
v -35.1492 -34.33161 -37.95251
v -30.20863 -26.70711 -33.62845
v -31.43373 -26.70711 -30.13663
v -36.1506 -34.3316 -34.71494
v -31.43373 -26.7071 -2.837013
v -36.1506 -34.3316 1.80085
v -35.1492 -34.33161 4.812248
v -30.20863 -26.70711 0.6548004
v -26.38889 -26.70711 1.657898
v -31.8722 -34.3316 5.884434
v 7.842499 -26.70711 1.657898
v 13.30187 -34.3316 5.884434
v 16.60282 -34.33161 4.812248
v 11.66224 -26.70711 0.6548004
v 41.1612 -34.3316 11.35562
v 20.08178 -17.31218 11.35562
v 23.97237 -3.683963 11.35562
v 8.5924 -23.43751 11.35562
v -41.1612 -34.3316 11.35562
v -2.896976 -17.31218 11.35562
v -6.787566 -3.683963 11.35562
v -41.1612 24.06833 11.35562
v -2.896976 9.944254 11.35562
v 8.5924 16.06958 11.35562
v 41.1612 24.06833 11.35562
v 20.08178 9.944257 11.35562
v 23.97237 -3.683963 11.35562
v 16.71734 -7.613122 13.96993
v 13.5766 6.023103 13.96993
v 20.08178 -17.31218 11.35562
v 8.5924 -23.43751 11.35562
v 8.598186 -15.96625 13.96993
v -2.896976 -17.31218 11.35562
v 0.4715204 -7.612496 13.96993
v -6.787566 -3.683963 11.35562
v 20.08178 9.944257 11.35562
v 8.5924 16.06958 11.35562
v 4.372964 6.185428 12.61456
v -2.896976 9.944254 11.35562
v 8.579994 -3.316334 15.39043
v 12.88734 -26.7071 -2.837013
v 3.834256 -30.68314 -27.21901
v 3.834255 -30.68313 -5.754639
v 12.88734 -26.70711 -30.13663
v 11.66224 -26.70711 0.6548004
v 11.66224 -26.70711 -33.62845
v 7.842499 -26.70711 1.657898
v -26.38889 -26.70711 1.657898
v -22.38064 -30.68313 -5.754639
v -30.20863 -26.70711 0.6548004
v -31.43373 -26.7071 -2.837013
v -31.43373 -26.70711 -30.13663
v -22.38064 -30.68313 -27.21901
v 7.842499 -26.70711 -34.63154
v -26.38889 -26.70711 -34.63154
v -30.20863 -26.70711 -33.62845
v -9.273193 -32.92455 -16.48682
vt 0.5098521 0.510478
vt 0.8036138 0.3220401
vt 0.8036138 0.510478
vt 0.5098521 0.32204
vt 0.8057647 0.5129521
vt 0.9901648 0.6973522
vt 0.9901646 0.5129521
vt 0.8057647 0.6973522
vt 0.2064472 0.6308316
vt 0.4381724 0.8050844
vt 0.2064472 0.8050844
vt 0.4381724 0.6308316
vt 0.9901645 0.5129522
vt 0.8057646 0.6973523
vt 0.8057646 0.5129522
vt 0.9901645 0.6973523
vt 0.8035246 0.5134789
vt 0.7157615 0.5344233
vt 0.7193402 0.5450231
vt 0.8035247 0.6963747
vt 0.7193402 0.6653065
vt 0.7022329 0.5299431
vt 0.5093331 0.5134786
vt 0.5435404 0.529943
vt 0.5308179 0.534423
vt 0.5272394 0.5450567
vt 0.5093331 0.6963745
vt 0.5272394 0.664992
vt 0.5308179 0.6748828
vt 0.5425288 0.6784046
vt 0.7039652 0.6784047
vt 0.7157616 0.6748832
vt 0.2164863 0.8257113
vt 0.2004177 0.8412163
vt 0.2036021 0.8514581
vt 0.2212989 0.8371972
vt 0.1878752 0.8386374
vt 0.2212989 0.9686011
vt 0.2036021 0.9514304
vt 0.202342 0.8215887
vt 0.05367454 0.8386374
vt 0.0383746 0.8215886
vt 0.02506342 0.8259248
vt 0.04113181 0.8412163
vt 0.03794761 0.851458
vt 0.02153168 0.8384618
vt 0.03794761 0.9514304
vt 0.02153168 0.965479
vt 0.02506342 0.9769638
vt 0.04113181 0.9616719
vt 0.05367454 0.9642509
vt 0.0373294 0.9812999
vt 0.1878752 0.9642509
vt 0.2041319 0.9812998
vt 0.2152054 0.9769637
vt 0.2004177 0.9616721
vt 0.5097615 0.5106289
vt 0.5850047 0.4556681
vt 0.5711172 0.4116586
vt 0.6260161 0.4754486
vt 0.8036121 0.5106288
vt 0.6670277 0.455668
vt 0.6809151 0.4116584
vt 0.803612 0.3220378
vt 0.6670275 0.3676488
vt 0.6260161 0.3478683
vt 0.5097616 0.322038
vt 0.5850047 0.367649
vt 0.07133263 0.5489858
vt 0.05858365 0.54361
vt 0.05306458 0.5622669
vt 0.06449586 0.5303398
vt 0.04430603 0.5219592
vt 0.04431619 0.5321813
vt 0.02411623 0.5303398
vt 0.03003555 0.5436108
vt 0.01727944 0.5489858
vt 0.06449586 0.5676318
vt 0.04430603 0.5760124
vt 0.03689139 0.562489
vt 0.02411623 0.5676318
vt 0.04428425 0.5494888
vt 0.9754072 0.8376659
vt 0.7736043 0.3244215
vt 0.7736043 0.7726778
vt 0.9754072 0.2594337
vt 0.9453523 0.9162617
vt 0.9453523 0.1808373
vt 0.860782 0.9423906
vt 0.1383684 0.9423903
vt 0.2255462 0.7726774
vt 0.05379824 0.9162617
vt 0.02374281 0.8376654
vt 0.02374354 0.259433
vt 0.2255462 0.3244215
vt 0.860782 0.1547085
vt 0.1383684 0.1547085
vt 0.05379885 0.1808372
vt 0.4995753 0.5485499
vn 0 0 -1
vn 0 0 -1
vn 0 0 -1
vn 0 0 -1
vn 1 0 0
vn 1 0 0
vn 1 0 0
vn 1 0 0
vn 0 1 0
vn 0 1 0
vn 0 1 0
vn 0 1 0
vn -1 0 0
vn -1 0 0
vn -1 0 0
vn -1 0 0
vn 0 -1 0
vn 0 -1 0
vn 0 -1 0
vn 0 -1 0
vn 0 -1 0
vn 0 -1 0
vn 0 -1 0
vn 0 -1 0
vn 0 -1 0
vn 0 -1 0
vn 0 -1 0
vn 0 -1 0
vn 0 -1 0
vn 0 -1 0
vn 0 -1 0
vn 0 -1 0
vn -0.5424244 -0.6568798 0.5237218
vn -0.4992772 -0.6490477 0.5739855
vn -0.8165388 -0.5687065 0.09918339
vn -0.7981706 -0.5836381 0.1492991
vn -0.0824154 -0.5528858 0.8291713
vn -0.7905573 -0.5902889 -0.1630283
vn -0.8167601 -0.5681946 -0.1002883
vn -0.1709108 -0.5943694 0.785821
vn 0.08208287 -0.5532895 0.828935
vn 0.1803454 -0.6013029 0.7784024
vn 0.5448743 -0.6587314 0.5188304
vn 0.4992778 -0.6490472 0.5739856
vn 0.8165486 -0.5686904 0.09919457
vn 0.7984633 -0.5833505 0.1488572
vn 0.8168446 -0.5680549 -0.1003917
vn 0.7936902 -0.5873458 -0.1583685
vn 0.5398872 -0.648944 -0.536091
vn 0.5007265 -0.6414106 -0.581262
vn 0.07692463 -0.5206943 -0.8502706
vn 0.1657896 -0.5666423 -0.8071123
vn -0.07695356 -0.5206607 -0.8502885
vn -0.1647171 -0.5658022 -0.8079209
vn -0.5373192 -0.6495228 -0.5379666
vn -0.5007259 -0.6414111 -0.5812619
vn 0 0 1
vn 0 0 1
vn 0 0 1
vn 0 0 1
vn 0 0 1
vn 0 0 1
vn 0 0 1
vn 0 0 1
vn 0 0 1
vn 0 0 1
vn 0 0 1
vn 0 0 1
vn 0.337385 0.01675748 0.9412175
vn 0.2526589 -0.07686742 0.9644973
vn 0.111363 0.1819019 0.9769902
vn 0.194169 -0.1919477 0.9620055
vn 0.01848691 -0.299915 0.9537868
vn 0.05349656 -0.254471 0.9655996
vn -0.2451225 -0.2067179 0.9471973
vn -0.254473 -0.02941193 0.9666325
vn -0.2775463 0.05053448 0.9593822
vn 0.2594802 0.1995165 0.9449144
vn -0.02966119 0.222802 0.9744124
vn -0.1528844 0.1552191 0.9759781
vn -0.1233397 0.0923757 0.9880556
vn -0.03821631 0.04870014 0.998082
vn 0.3821475 -0.9214499 0.06995289
vn 0.1795469 -0.959258 -0.2181442
vn 0.1795469 -0.9592581 0.218144
vn 0.382148 -0.9214497 -0.06995292
vn 0.2567378 -0.9299219 0.2633077
vn 0.256738 -0.9299217 -0.2633084
vn 0.06817817 -0.894071 0.4427061
vn -0.0681781 -0.894071 0.4427062
vn -0.1795469 -0.9592581 0.2181439
vn -0.2567377 -0.9299219 0.2633075
vn -0.3821475 -0.92145 0.0699527
vn -0.3821473 -0.92145 -0.06995279
vn -0.1795469 -0.9592581 -0.218144
vn 0.06817799 -0.8940706 -0.442707
vn -0.06817792 -0.8940709 -0.4427064
vn -0.2567375 -0.9299219 -0.2633078
vn 0 -1 0
g TV028_0
f 3/3/3 2/2/2 1/1/1
f 4/4/4 1/1/1 2/2/2
f 7/7/7 6/6/6 5/5/5
f 8/8/8 5/5/5 6/6/6
f 11/11/11 10/10/10 9/9/9
f 12/12/12 9/9/9 10/10/10
f 15/15/15 14/14/14 13/13/13
f 16/16/16 13/13/13 14/14/14
f 19/19/19 18/18/18 17/17/17
f 17/17/17 20/20/20 19/19/19
f 21/21/21 19/19/19 20/20/20
f 18/18/18 22/22/22 17/17/17
f 17/17/17 22/22/22 23/23/23
f 24/24/24 23/23/23 22/22/22
f 23/23/23 24/24/24 25/25/25
f 25/25/25 26/26/26 23/23/23
f 23/23/23 26/26/26 27/27/27
f 28/28/28 27/27/27 26/26/26
f 28/28/28 29/29/29 27/27/27
f 29/29/29 30/30/30 27/27/27
f 27/27/27 30/30/30 20/20/20
f 31/31/31 20/20/20 30/30/30
f 20/20/20 31/31/31 32/32/32
f 32/32/32 21/21/21 20/20/20
f 35/35/35 34/34/34 33/33/33
f 36/36/36 35/35/35 33/33/33
f 34/34/34 37/37/37 33/33/33
f 36/36/36 38/38/38 35/35/35
f 39/39/39 35/35/35 38/38/38
f 33/33/33 37/37/37 40/40/40
f 37/37/37 41/41/41 40/40/40
f 42/42/42 40/40/40 41/41/41
f 42/42/42 41/41/41 43/43/43
f 41/41/41 44/44/44 43/43/43
f 44/44/44 45/45/45 43/43/43
f 43/43/43 45/45/45 46/46/46
f 45/45/45 47/47/47 46/46/46
f 48/48/48 46/46/46 47/47/47
f 48/48/48 47/47/47 49/49/49
f 47/47/47 50/50/50 49/49/49
f 50/50/50 51/51/51 49/49/49
f 49/49/49 51/51/51 52/52/52
f 51/51/51 53/53/53 52/52/52
f 54/54/54 52/52/52 53/53/53
f 54/54/54 53/53/53 55/55/55
f 53/53/53 56/56/56 55/55/55
f 56/56/56 39/39/39 55/55/55
f 55/55/55 39/39/39 38/38/38
f 59/59/59 58/58/58 57/57/57
f 58/58/58 60/60/60 57/57/57
f 57/57/57 60/60/60 61/61/61
f 60/60/60 62/62/62 61/61/61
f 62/62/62 63/63/63 61/61/61
f 61/61/61 63/63/63 64/64/64
f 63/63/63 65/65/65 64/64/64
f 65/65/65 66/66/66 64/64/64
f 64/64/64 66/66/66 67/67/67
f 67/67/67 59/59/59 57/57/57
f 66/66/66 68/68/68 67/67/67
f 68/68/68 59/59/59 67/67/67
f 71/71/71 70/70/70 69/69/69
f 69/69/69 70/70/70 72/72/72
f 72/72/72 70/70/70 73/73/73
f 74/74/74 73/73/73 70/70/70
f 73/73/73 74/74/74 75/75/75
f 76/76/76 75/75/75 74/74/74
f 75/75/75 76/76/76 77/77/77
f 78/78/78 71/71/71 69/69/69
f 79/79/79 71/71/71 78/78/78
f 80/80/80 71/71/71 79/79/79
f 76/76/76 80/80/80 77/77/77
f 81/81/81 80/80/80 79/79/79
f 77/77/77 80/80/80 81/81/81
f 71/71/71 82/82/82 70/70/70
f 70/70/70 82/82/82 74/74/74
f 74/74/74 82/82/82 76/76/76
f 80/80/80 82/82/82 71/71/71
f 76/76/76 82/82/82 80/80/80
g TV028_1
f 85/85/85 84/84/84 83/83/83
f 86/86/86 83/83/83 84/84/84
f 87/87/87 85/85/85 83/83/83
f 88/88/88 86/86/86 84/84/84
f 87/87/87 89/89/89 85/85/85
f 89/89/89 90/90/90 85/85/85
f 91/91/91 85/85/85 90/90/90
f 92/92/92 91/91/91 90/90/90
f 92/92/92 93/93/93 91/91/91
f 93/93/93 94/94/94 91/91/91
f 95/95/95 91/91/91 94/94/94
f 84/84/84 95/95/95 96/96/96
f 88/88/88 84/84/84 96/96/96
f 97/97/97 96/96/96 95/95/95
f 98/98/98 95/95/95 94/94/94
f 98/98/98 97/97/97 95/95/95
f 85/85/85 99/99/99 84/84/84
f 95/95/95 99/99/99 91/91/91
f 91/91/91 99/99/99 85/85/85
f 84/84/84 99/99/99 95/95/95
