g TV036
v 31.97766 -36.10881 -34.75881
v -31.97766 15.46306 -34.75881
v -31.97766 -36.10881 -34.75881
v 31.97766 15.46305 -34.75881
v 31.97766 -36.10881 -34.75881
v 31.97766 15.46307 34.7588
v 31.97766 15.46305 -34.75881
v 31.97766 -36.10881 34.75881
v -31.97766 15.46306 -34.75881
v -31.97766 -36.10881 34.75881
v -31.97766 -36.10881 -34.75881
v -31.97766 15.46306 34.7588
v 31.97766 -36.10881 -34.75881
v 28.423 -36.10881 -14.93974
v 29.53136 -36.10881 -12.46805
v 29.53136 -36.10881 29.2844
v 31.97766 -36.10881 34.75881
v 28.423 -36.10881 31.95971
v 26.39827 -36.10881 32.86721
v -25.71907 -36.10881 32.86721
v -31.97766 -36.10881 34.75881
v -28.85626 -36.10881 31.95971
v -29.96461 -36.10881 29.41224
v -29.96461 -36.10881 -12.44633
v -31.97766 -36.10881 -34.75881
v -28.85626 -36.10881 -14.93974
v -28.85626 -36.10881 -14.93974
v -25.75612 -36.10881 -15.84724
v -31.97766 -36.10881 -34.75881
v 25.21809 -36.10881 -15.84724
v 31.97766 -36.10881 -34.75881
v 28.423 -36.10881 -14.93974
v 28.423 -36.10881 -14.93974
v 25.64496 -30.75078 -12.66512
v 27.15834 -30.75078 -8.351662
v 29.53136 -36.10881 -12.46805
v 20.92644 -30.75077 -13.90425
v 29.53136 -36.10881 29.2844
v 27.15834 -30.75077 25.37163
v 28.423 -36.10881 31.95971
v 25.64496 -30.75078 29.68507
v 20.92644 -30.75077 30.92421
v 26.39827 -36.10881 32.86721
v -25.71907 -36.10881 32.86721
v -21.3597 -30.75078 30.92421
v -28.85626 -36.10881 31.95971
v -26.07823 -30.75078 29.68507
v -27.59158 -30.75077 25.37163
v -29.96461 -36.10881 29.41224
v -29.96461 -36.10881 -12.44633
v -27.59158 -30.75078 -8.351669
v -28.85626 -36.10881 -14.93974
v -26.07823 -30.75078 -12.66512
v -21.3597 -30.75078 -13.90425
v -25.75612 -36.10881 -15.84724
v 25.21809 -36.10881 -15.84724
v 31.97766 -36.10881 34.75881
v -31.97766 15.46306 34.7588
v 31.97766 15.46307 34.7588
v -31.97766 -36.10881 34.75881
v 31.97766 15.46305 -34.75881
v -25.52571 15.46306 -16.58846
v -31.97766 15.46306 -34.75881
v 25.52574 15.46305 -16.58846
v 31.97766 15.46307 34.7588
v 25.52574 15.46306 30.43015
v -25.52571 15.46306 30.43015
v -31.97766 15.46306 34.7588
v 25.52574 15.46306 30.43015
v 31.97766 15.46307 34.7588
v 25.52574 15.46305 -16.58846
v -20.55418 37.69006 -13.96967
v -25.52571 15.46306 -16.58846
v 20.55418 37.69006 -13.96967
v 25.52574 15.46306 30.43015
v 20.55418 37.69006 -13.96967
v 25.52574 15.46305 -16.58846
v 20.55418 37.69006 -13.96967
v 25.52574 15.46306 30.43015
v 20.55418 37.69007 23.42142
v -25.52571 15.46306 -16.58846
v -20.55418 37.69007 23.42142
v -25.52571 15.46306 30.43015
v -20.55418 37.69006 -13.96967
v -25.52571 15.46306 30.43015
v 20.55418 37.69007 23.42142
v 25.52574 15.46306 30.43015
v -20.55418 37.69007 23.42142
v -20.55418 37.69007 23.42142
v 20.55418 37.69006 -13.96967
v 20.55418 37.69007 23.42142
v -20.55418 37.69006 -13.96967
v 27.15834 -30.75077 25.37163
v 15.97504 -35.18841 -4.74752
v 15.97504 -35.18841 21.76748
v 27.15834 -30.75078 -8.351662
v 25.64496 -30.75078 29.68507
v 25.64496 -30.75078 -12.66512
v 20.92644 -30.75077 30.92421
v -21.3597 -30.75078 30.92421
v -16.40829 -35.18841 21.76748
v -26.07823 -30.75078 29.68507
v -27.59158 -30.75077 25.37163
v -27.59158 -30.75078 -8.351669
v -16.40829 -35.18841 -4.74752
v 20.92644 -30.75077 -13.90425
v -21.3597 -30.75078 -13.90425
v -26.07823 -30.75078 -12.66512
v -0.2166138 -37.69007 8.509983
vt 0.9726737 0.8885586
vt 0.9458957 0.9956707
vt 0.9458957 0.8885586
vt 0.9726737 0.9956707
vt 0.9726737 0.8885586
vt 0.9994517 0.9956709
vt 0.9726737 0.9956707
vt 0.9994517 0.8885586
vt 0.9458957 0.9956707
vt 0.9191176 0.8885586
vt 0.9458957 0.8885586
vt 0.9191176 0.9956709
vt 0.8215092 0.9467782
vt 0.8200936 0.9553964
vt 0.8200935 0.9575104
vt 0.8200936 0.9836307
vt 0.8215092 0.9870554
vt 0.8200936 0.985872
vt 0.8182805 0.985872
vt 0.7881213 0.985872
vt 0.7844996 0.9870554
vt 0.7856646 0.985872
vt 0.7856646 0.9837106
vt 0.7856646 0.9575241
vt 0.7844996 0.9467782
vt 0.7856646 0.9553964
vt 0.5103214 0.9861764
vt 0.5271332 0.9861764
vt 0.5022799 0.9060399
vt 0.7307616 0.9861764
vt 0.7577643 0.9060399
vt 0.7479919 0.9861764
vt 0.7270029 0.7318072
vt 0.7080988 0.7466846
vt 0.7127649 0.7594671
vt 0.7308819 0.7399477
vt 0.6935511 0.7430125
vt 0.7308819 0.8782484
vt 0.7127649 0.8594034
vt 0.7270029 0.8870633
vt 0.7080988 0.8721861
vt 0.6935511 0.8758581
vt 0.7200846 0.890116
vt 0.5404776 0.890116
vt 0.5631775 0.8758581
vt 0.5297256 0.8870633
vt 0.5486296 0.8721861
vt 0.5439638 0.8594034
vt 0.5258467 0.8786719
vt 0.5258467 0.7400197
vt 0.5439638 0.7594671
vt 0.5297256 0.7318072
vt 0.5486296 0.7466846
vt 0.5631775 0.7430125
vt 0.54035 0.7287545
vt 0.7160175 0.7287545
vt 0.8923395 0.8885586
vt 0.9191176 0.9956709
vt 0.8923395 0.9956709
vt 0.9191176 0.8885586
vt 0.9726737 0.9956707
vt 0.9458957 0.9956707
vt 0.9458957 0.9956707
vt 0.9726737 0.9956707
vt 0.9994517 0.9956709
vt 0.9994517 0.9956709
vt 0.9191176 0.9956709
vt 0.9191176 0.9956709
vt 0.8923395 0.9956709
vt 0.8923395 0.9956709
vt 0.2268151 0.5867382
vt 0.4271253 0.5052309
vt 0.4487366 0.5867382
vt 0.2484265 0.5052309
vt 0.2268151 0.5867382
vt 0.2484265 0.5052309
vt 0.2268151 0.5867382
vt 0.2484265 0.5052309
vt 0.2268151 0.5867382
vt 0.2484265 0.5052309
vt 0.4487366 0.5867382
vt 0.4271253 0.5052309
vt 0.4487366 0.5867382
vt 0.4271253 0.5052309
vt 0.4487366 0.5867382
vt 0.2484265 0.5052309
vt 0.2268151 0.5867382
vt 0.4271253 0.5052309
vt 0.4271253 0.5052309
vt 0.2484265 0.5052309
vt 0.2484265 0.5052309
vt 0.4271253 0.5052309
vt 0.9709451 0.8278479
vt 0.7731191 0.3247174
vt 0.7731191 0.7641406
vt 0.9709451 0.26101
vt 0.9414827 0.9048955
vt 0.9414821 0.183962
vt 0.858579 0.9305093
vt 0.1504015 0.9305099
vt 0.2358613 0.7641411
vt 0.06749725 0.904896
vt 0.0380342 0.8278487
vt 0.0380342 0.2610112
vt 0.2358613 0.3247181
vt 0.8585784 0.1583485
vt 0.1504004 0.1583497
vt 0.06749678 0.1839639
vt 0.5044905 0.5444295
vn 0 0 -1
vn 0 0 -1
vn 0 0 -1
vn 0 0 -1
vn 1 0 0
vn 1 0 0
vn 1 0 0
vn 1 0 0
vn -1 0 0
vn -1 0 0
vn -1 0 0
vn -1 0 0
vn 0 -1 0
vn 0 -1 0
vn 0 -1 0
vn 0 -1 0
vn 0 -1 0
vn 0 -1 0
vn 0 -1 0
vn 0 -1 0
vn 0 -1 0
vn 0 -1 0
vn 0 -1 0
vn 0 -1 0
vn 0 -1 0
vn 0 -1 0
vn 0 -1 0
vn 0 -1 0
vn 0 -1 0
vn 0 -1 0
vn 0 -1 0
vn 0 -1 0
vn -0.5564153 -0.570146 0.6044301
vn -0.5467315 -0.5510854 0.6303884
vn -0.8823811 -0.4594969 0.1013215
vn -0.8133253 -0.5353107 0.2279132
vn -0.07293896 -0.3890989 0.9183038
vn -0.8258243 -0.5218456 -0.2137556
vn -0.8826385 -0.4588782 -0.1018831
vn -0.574483 -0.589493 -0.5678619
vn -0.5467313 -0.5510874 -0.6303869
vn -0.07048206 -0.3914172 -0.9175102
vn -0.2429149 -0.5402423 -0.8056864
vn 0.1694666 -0.4549164 -0.8742608
vn 0.07278896 -0.3892538 -0.91825
vn 0.5596332 -0.5694329 -0.602127
vn 0.5467339 -0.5510865 -0.6303855
vn 0.882475 -0.4592709 -0.1015284
vn 0.8181838 -0.5301592 -0.2225005
vn 0.814744 -0.5338174 0.2263434
vn 0.8824076 -0.4594332 0.1013799
vn 0.5579163 -0.5711428 0.6021007
vn 0.5467339 -0.5510845 0.6303871
vn 0.07270703 -0.3893333 0.9182229
vn 0.1713578 -0.4570919 0.8727563
vn -0.1660875 -0.4510292 0.8769194
vn 0 0 1
vn 0 0 1
vn 0 0 1
vn 0 0 1
vn 0 1 0
vn 0 1 0
vn 0 1 0
vn 0 1 0
vn 0 1 0
vn 0 1 0
vn 0 1 0
vn 0 1 0
vn 0 1 0
vn 0 1 0
vn 0 0.1170108 -0.9931306
vn 0 0.1170108 -0.9931306
vn 0 0.1170108 -0.9931306
vn 0 0.1170108 -0.9931306
vn 0.9758865 0.2182784 0
vn 0.9758865 0.2182784 0
vn 0.9758865 0.2182784 0
vn 0.9758865 0.2182784 0
vn 0.9758865 0.2182784 0
vn 0.9758865 0.2182784 0
vn -0.9758868 0.2182771 0
vn -0.9758868 0.2182771 0
vn -0.9758868 0.2182771 0
vn -0.9758868 0.2182772 0
vn 0 0.3007284 0.9537098
vn 0 0.3007284 0.9537099
vn 0 0.3007284 0.9537098
vn 0 0.3007284 0.9537099
vn 0 1 0
vn 0 1 0
vn 0 1 0
vn 0 1 0
vn 0.3501433 -0.9344971 0.06414878
vn 0.1633917 -0.9661192 -0.199792
vn 0.1633919 -0.9661192 0.1997921
vn 0.3501426 -0.9344971 -0.06414911
vn 0.2349532 -0.9416955 0.2408458
vn 0.2349524 -0.9416955 -0.2408464
vn 0.06291855 -0.9110374 0.4074948
vn -0.06291887 -0.9110377 0.4074942
vn -0.163392 -0.9661192 0.1997918
vn -0.2349539 -0.9416956 0.2408445
vn -0.350144 -0.9344968 0.06414786
vn -0.3501433 -0.9344971 -0.06414834
vn -0.1633918 -0.9661192 -0.1997918
vn 0.06291816 -0.9110374 -0.4074948
vn -0.06291849 -0.9110377 -0.4074942
vn -0.2349531 -0.9416956 -0.2408452
vn 0 -1 0
g TV036_0
f 3/3/3 2/2/2 1/1/1
f 4/4/4 1/1/1 2/2/2
f 7/7/7 6/6/6 5/5/5
f 8/8/8 5/5/5 6/6/6
f 11/11/11 10/10/10 9/9/9
f 12/12/12 9/9/9 10/10/10
f 15/15/15 14/14/14 13/13/13
f 15/15/15 13/13/13 16/16/16
f 17/17/17 16/16/16 13/13/13
f 18/18/18 16/16/16 17/17/17
f 17/17/17 19/19/19 18/18/18
f 19/19/19 17/17/17 20/20/20
f 21/21/21 20/20/20 17/17/17
f 22/22/22 20/20/20 21/21/21
f 23/23/23 22/22/22 21/21/21
f 23/23/23 21/21/21 24/24/24
f 25/25/25 24/24/24 21/21/21
f 26/26/26 24/24/24 25/25/25
f 29/29/29 28/28/28 27/27/27
f 28/28/28 29/29/29 30/30/30
f 31/31/31 30/30/30 29/29/29
f 32/32/32 30/30/30 31/31/31
f 35/35/35 34/34/34 33/33/33
f 36/36/36 35/35/35 33/33/33
f 34/34/34 37/37/37 33/33/33
f 36/36/36 38/38/38 35/35/35
f 39/39/39 35/35/35 38/38/38
f 40/40/40 39/39/39 38/38/38
f 41/41/41 39/39/39 40/40/40
f 42/42/42 41/41/41 40/40/40
f 43/43/43 42/42/42 40/40/40
f 43/43/43 44/44/44 42/42/42
f 45/45/45 42/42/42 44/44/44
f 46/46/46 45/45/45 44/44/44
f 47/47/47 45/45/45 46/46/46
f 48/48/48 47/47/47 46/46/46
f 49/49/49 48/48/48 46/46/46
f 49/49/49 50/50/50 48/48/48
f 51/51/51 48/48/48 50/50/50
f 52/52/52 51/51/51 50/50/50
f 53/53/53 51/51/51 52/52/52
f 54/54/54 53/53/53 52/52/52
f 55/55/55 54/54/54 52/52/52
f 55/55/55 56/56/56 54/54/54
f 37/37/37 54/54/54 56/56/56
f 33/33/33 37/37/37 56/56/56
f 59/59/59 58/58/58 57/57/57
f 60/60/60 57/57/57 58/58/58
f 63/63/63 62/62/62 61/61/61
f 64/64/64 61/61/61 62/62/62
f 61/61/61 64/64/64 65/65/65
f 66/66/66 65/65/65 64/64/64
f 62/62/62 63/63/63 67/67/67
f 68/68/68 67/67/67 63/63/63
f 67/67/67 68/68/68 69/69/69
f 70/70/70 69/69/69 68/68/68
f 73/73/73 72/72/72 71/71/71
f 74/74/74 71/71/71 72/72/72
f 77/77/77 76/76/76 75/75/75
f 80/80/80 79/79/79 78/78/78
f 83/83/83 82/82/82 81/81/81
f 84/84/84 81/81/81 82/82/82
f 87/87/87 86/86/86 85/85/85
f 88/88/88 85/85/85 86/86/86
f 91/91/91 90/90/90 89/89/89
f 92/92/92 89/89/89 90/90/90
g TV036_1
f 95/95/95 94/94/94 93/93/93
f 96/96/96 93/93/93 94/94/94
f 97/97/97 95/95/95 93/93/93
f 98/98/98 96/96/96 94/94/94
f 97/97/97 99/99/99 95/95/95
f 99/99/99 100/100/100 95/95/95
f 101/101/101 95/95/95 100/100/100
f 102/102/102 101/101/101 100/100/100
f 102/102/102 103/103/103 101/101/101
f 103/103/103 104/104/104 101/101/101
f 105/105/105 101/101/101 104/104/104
f 94/94/94 105/105/105 106/106/106
f 98/98/98 94/94/94 106/106/106
f 107/107/107 106/106/106 105/105/105
f 108/108/108 105/105/105 104/104/104
f 108/108/108 107/107/107 105/105/105
f 95/95/95 109/109/109 94/94/94
f 105/105/105 109/109/109 101/101/101
f 101/101/101 109/109/109 95/95/95
f 94/94/94 109/109/109 105/105/105
